<?xml version="1.0" encoding="UTF-8" standalone="no"?>
<!DOCTYPE svg PUBLIC "-//W3C//DTD SVG 1.1//EN"
 "http://www.w3.org/Graphics/SVG/1.1/DTD/svg11.dtd">
<!-- Generated by graphviz version 2.43.0 (0)
 -->
<!-- Title: /home/alexander/Documents/Seminars/TP/Project/src/general/request_handlers/abstract_handler.hpp Pages: 1 -->
<svg width="509pt" height="229pt"
 viewBox="0.00 0.00 508.50 229.00" xmlns="http://www.w3.org/2000/svg" xmlns:xlink="http://www.w3.org/1999/xlink">
<g id="graph0" class="graph" transform="scale(1 1) rotate(0) translate(4 225)">
<title>/home/alexander/Documents/Seminars/TP/Project/src/general/request_handlers/abstract_handler.hpp</title>
<!-- Node1 -->
<g id="node1" class="node">
<title>Node1</title>
<g id="a_node1"><a xlink:title=" ">
<polygon fill="#bfbfbf" stroke="black" points="0,-168.5 0,-220.5 158,-220.5 158,-168.5 0,-168.5"/>
<text text-anchor="start" x="8" y="-208.5" font-family="Helvetica,sans-Serif" font-size="10.00">/home/alexander/Documents</text>
<text text-anchor="start" x="8" y="-197.5" font-family="Helvetica,sans-Serif" font-size="10.00">/Seminars/TP/Project/src</text>
<text text-anchor="start" x="8" y="-186.5" font-family="Helvetica,sans-Serif" font-size="10.00">/general/request_handlers</text>
<text text-anchor="middle" x="79" y="-175.5" font-family="Helvetica,sans-Serif" font-size="10.00">/abstract_handler.hpp</text>
</a>
</g>
</g>
<!-- Node2 -->
<g id="node2" class="node">
<title>Node2</title>
<g id="a_node2"><a xlink:title=" ">
<polygon fill="none" stroke="#bfbfbf" points="87,-0.5 87,-19.5 145,-19.5 145,-0.5 87,-0.5"/>
<text text-anchor="middle" x="116" y="-7.5" font-family="Helvetica,sans-Serif" font-size="10.00">memory</text>
</a>
</g>
</g>
<!-- Node1&#45;&gt;Node2 -->
<g id="edge1" class="edge">
<title>Node1&#45;&gt;Node2</title>
<path fill="none" stroke="midnightblue" d="M52.58,-168.29C26.05,-139.83 -7.74,-92.71 16,-56 29.45,-35.2 55.05,-23.92 76.98,-17.86"/>
<polygon fill="midnightblue" stroke="midnightblue" points="77.88,-21.24 86.74,-15.42 76.19,-14.45 77.88,-21.24"/>
</g>
<!-- Node3 -->
<g id="node3" class="node">
<title>Node3</title>
<g id="a_node3"><a xlink:href="account_8hpp.html" target="_top" xlink:title=" ">
<polygon fill="none" stroke="black" points="41,-112.5 41,-131.5 117,-131.5 117,-112.5 41,-112.5"/>
<text text-anchor="middle" x="79" y="-119.5" font-family="Helvetica,sans-Serif" font-size="10.00">account.hpp</text>
</a>
</g>
</g>
<!-- Node1&#45;&gt;Node3 -->
<g id="edge2" class="edge">
<title>Node1&#45;&gt;Node3</title>
<path fill="none" stroke="midnightblue" d="M79,-168.45C79,-159.73 79,-150.1 79,-141.96"/>
<polygon fill="midnightblue" stroke="midnightblue" points="82.5,-141.7 79,-131.7 75.5,-141.7 82.5,-141.7"/>
</g>
<!-- Node7 -->
<g id="node7" class="node">
<title>Node7</title>
<g id="a_node7"><a xlink:href="socket_8hpp.html" target="_top" xlink:title=" ">
<polygon fill="none" stroke="black" points="212,-112.5 212,-131.5 316,-131.5 316,-112.5 212,-112.5"/>
<text text-anchor="middle" x="264" y="-119.5" font-family="Helvetica,sans-Serif" font-size="10.00">socket/socket.hpp</text>
</a>
</g>
</g>
<!-- Node1&#45;&gt;Node7 -->
<g id="edge7" class="edge">
<title>Node1&#45;&gt;Node7</title>
<path fill="none" stroke="midnightblue" d="M144.74,-168.45C174.37,-157.16 208,-144.34 231.98,-135.2"/>
<polygon fill="midnightblue" stroke="midnightblue" points="233.53,-138.36 241.62,-131.53 231.03,-131.82 233.53,-138.36"/>
</g>
<!-- Node3&#45;&gt;Node2 -->
<g id="edge3" class="edge">
<title>Node3&#45;&gt;Node2</title>
<path fill="none" stroke="midnightblue" d="M61.93,-112.43C40.76,-100.6 9.07,-78.21 23,-56 34.9,-37.02 57.33,-25.85 77.17,-19.38"/>
<polygon fill="midnightblue" stroke="midnightblue" points="78.35,-22.69 86.95,-16.5 76.37,-15.97 78.35,-22.69"/>
</g>
<!-- Node4 -->
<g id="node4" class="node">
<title>Node4</title>
<g id="a_node4"><a xlink:title=" ">
<polygon fill="none" stroke="#bfbfbf" points="32,-56.5 32,-75.5 64,-75.5 64,-56.5 32,-56.5"/>
<text text-anchor="middle" x="48" y="-63.5" font-family="Helvetica,sans-Serif" font-size="10.00">set</text>
</a>
</g>
</g>
<!-- Node3&#45;&gt;Node4 -->
<g id="edge4" class="edge">
<title>Node3&#45;&gt;Node4</title>
<path fill="none" stroke="midnightblue" d="M73.88,-112.08C69.59,-104.61 63.34,-93.72 58.06,-84.52"/>
<polygon fill="midnightblue" stroke="midnightblue" points="61.04,-82.68 53.02,-75.75 54.97,-86.17 61.04,-82.68"/>
</g>
<!-- Node5 -->
<g id="node5" class="node">
<title>Node5</title>
<g id="a_node5"><a xlink:title=" ">
<polygon fill="none" stroke="#bfbfbf" points="82,-56.5 82,-75.5 138,-75.5 138,-56.5 82,-56.5"/>
<text text-anchor="middle" x="110" y="-63.5" font-family="Helvetica,sans-Serif" font-size="10.00">sstream</text>
</a>
</g>
</g>
<!-- Node3&#45;&gt;Node5 -->
<g id="edge5" class="edge">
<title>Node3&#45;&gt;Node5</title>
<path fill="none" stroke="midnightblue" d="M84.12,-112.08C88.41,-104.61 94.66,-93.72 99.94,-84.52"/>
<polygon fill="midnightblue" stroke="midnightblue" points="103.03,-86.17 104.98,-75.75 96.96,-82.68 103.03,-86.17"/>
</g>
<!-- Node6 -->
<g id="node6" class="node">
<title>Node6</title>
<g id="a_node6"><a xlink:title=" ">
<polygon fill="none" stroke="#bfbfbf" points="156,-56.5 156,-75.5 200,-75.5 200,-56.5 156,-56.5"/>
<text text-anchor="middle" x="178" y="-63.5" font-family="Helvetica,sans-Serif" font-size="10.00">string</text>
</a>
</g>
</g>
<!-- Node3&#45;&gt;Node6 -->
<g id="edge6" class="edge">
<title>Node3&#45;&gt;Node6</title>
<path fill="none" stroke="midnightblue" d="M94.91,-112.32C110.64,-103.74 134.94,-90.49 153.21,-80.52"/>
<polygon fill="midnightblue" stroke="midnightblue" points="155.03,-83.52 162.13,-75.65 151.68,-77.37 155.03,-83.52"/>
</g>
<!-- Node7&#45;&gt;Node2 -->
<g id="edge10" class="edge">
<title>Node7&#45;&gt;Node2</title>
<path fill="none" stroke="midnightblue" d="M258.5,-112.42C249.5,-98.95 230.49,-72.67 209,-56 191.22,-42.21 168.53,-31.13 150.02,-23.41"/>
<polygon fill="midnightblue" stroke="midnightblue" points="151.07,-20.07 140.49,-19.58 148.46,-26.56 151.07,-20.07"/>
</g>
<!-- Node7&#45;&gt;Node6 -->
<g id="edge11" class="edge">
<title>Node7&#45;&gt;Node6</title>
<path fill="none" stroke="midnightblue" d="M250.18,-112.32C236.77,-103.9 216.18,-90.97 200.41,-81.07"/>
<polygon fill="midnightblue" stroke="midnightblue" points="202.11,-78.01 191.78,-75.65 198.39,-83.94 202.11,-78.01"/>
</g>
<!-- Node8 -->
<g id="node8" class="node">
<title>Node8</title>
<g id="a_node8"><a xlink:title=" ">
<polygon fill="none" stroke="#bfbfbf" points="256,-56.5 256,-75.5 344,-75.5 344,-56.5 256,-56.5"/>
<text text-anchor="middle" x="300" y="-63.5" font-family="Helvetica,sans-Serif" font-size="10.00">boost/asio.hpp</text>
</a>
</g>
</g>
<!-- Node7&#45;&gt;Node8 -->
<g id="edge8" class="edge">
<title>Node7&#45;&gt;Node8</title>
<path fill="none" stroke="midnightblue" d="M269.94,-112.08C274.98,-104.53 282.34,-93.49 288.51,-84.23"/>
<polygon fill="midnightblue" stroke="midnightblue" points="291.53,-86.01 294.17,-75.75 285.71,-82.13 291.53,-86.01"/>
</g>
<!-- Node9 -->
<g id="node9" class="node">
<title>Node9</title>
<g id="a_node9"><a xlink:title=" ">
<polygon fill="none" stroke="#bfbfbf" points="362.5,-56.5 362.5,-75.5 427.5,-75.5 427.5,-56.5 362.5,-56.5"/>
<text text-anchor="middle" x="395" y="-63.5" font-family="Helvetica,sans-Serif" font-size="10.00">functional</text>
</a>
</g>
</g>
<!-- Node7&#45;&gt;Node9 -->
<g id="edge9" class="edge">
<title>Node7&#45;&gt;Node9</title>
<path fill="none" stroke="midnightblue" d="M284.76,-112.44C306.32,-103.56 340.26,-89.56 364.79,-79.45"/>
<polygon fill="midnightblue" stroke="midnightblue" points="366.43,-82.56 374.34,-75.52 363.76,-76.09 366.43,-82.56"/>
</g>
<!-- Node10 -->
<g id="node10" class="node">
<title>Node10</title>
<g id="a_node10"><a xlink:href="general_2socket_2log_8hpp.html" target="_top" xlink:title=" ">
<polygon fill="none" stroke="black" points="445.5,-56.5 445.5,-75.5 498.5,-75.5 498.5,-56.5 445.5,-56.5"/>
<text text-anchor="middle" x="472" y="-63.5" font-family="Helvetica,sans-Serif" font-size="10.00">log.hpp</text>
</a>
</g>
</g>
<!-- Node7&#45;&gt;Node10 -->
<g id="edge12" class="edge">
<title>Node7&#45;&gt;Node10</title>
<path fill="none" stroke="midnightblue" d="M296.96,-112.44C334.71,-102.64 396.38,-86.63 435.54,-76.47"/>
<polygon fill="midnightblue" stroke="midnightblue" points="436.67,-79.79 445.47,-73.89 434.91,-73.01 436.67,-79.79"/>
</g>
<!-- Node10&#45;&gt;Node2 -->
<g id="edge13" class="edge">
<title>Node10&#45;&gt;Node2</title>
<path fill="none" stroke="midnightblue" d="M445.32,-57.81C442.52,-57.15 439.71,-56.54 437,-56 336.49,-36.1 216.58,-21.74 155.71,-15.11"/>
<polygon fill="midnightblue" stroke="midnightblue" points="155.71,-11.59 145.4,-14 154.96,-18.55 155.71,-11.59"/>
</g>
<!-- Node11 -->
<g id="node11" class="node">
<title>Node11</title>
<g id="a_node11"><a xlink:title=" ">
<polygon fill="none" stroke="#bfbfbf" points="443.5,-0.5 443.5,-19.5 500.5,-19.5 500.5,-0.5 443.5,-0.5"/>
<text text-anchor="middle" x="472" y="-7.5" font-family="Helvetica,sans-Serif" font-size="10.00">ostream</text>
</a>
</g>
</g>
<!-- Node10&#45;&gt;Node11 -->
<g id="edge14" class="edge">
<title>Node10&#45;&gt;Node11</title>
<path fill="none" stroke="midnightblue" d="M472,-56.08C472,-49.01 472,-38.86 472,-29.99"/>
<polygon fill="midnightblue" stroke="midnightblue" points="475.5,-29.75 472,-19.75 468.5,-29.75 475.5,-29.75"/>
</g>
</g>
</svg>
