<?xml version="1.0" encoding="UTF-8" standalone="no"?>
<!DOCTYPE svg PUBLIC "-//W3C//DTD SVG 1.1//EN"
 "http://www.w3.org/Graphics/SVG/1.1/DTD/svg11.dtd">
<!-- Generated by graphviz version 2.43.0 (0)
 -->
<!-- Title: /home/alexander/Documents/Seminars/TP/Project/src/general/request_handlers/abstract_handler.cpp Pages: 1 -->
<!--zoomable 755 -->
<svg id="main" version="1.1" xmlns="http://www.w3.org/2000/svg" xmlns:xlink="http://www.w3.org/1999/xlink" xml:space="preserve" onload="init(evt)">
<style type="text/css"><![CDATA[
.edge:hover path { stroke: red; }
.edge:hover polygon { stroke: red; fill: red; }
]]></style>
<script type="text/javascript"><![CDATA[
var edges = document.getElementsByTagName('g');
if (edges && edges.length) {
  for (var i=0;i<edges.length;i++) {
    if (edges[i].id.substr(0,4)=='edge') {
      edges[i].setAttribute('class','edge');
    }
  }
}
]]></script>
        <defs>
                <circle id="rim" cx="0" cy="0" r="7"/>
                <circle id="rim2" cx="0" cy="0" r="3.5"/>
                <g id="zoomPlus">
                        <use xlink:href="#rim" fill="#404040">
                                <set attributeName="fill" to="#808080" begin="zoomplus.mouseover" end="zoomplus.mouseout"/>
                        </use>
                        <path d="M-4,0h8M0,-4v8" fill="none" stroke="white" stroke-width="1.5" pointer-events="none"/>
                </g>
                <g id="zoomMin">
                        <use xlink:href="#rim" fill="#404040">
                                <set attributeName="fill" to="#808080" begin="zoomminus.mouseover" end="zoomminus.mouseout"/>
                        </use>
                        <path d="M-4,0h8" fill="none" stroke="white" stroke-width="1.5" pointer-events="none"/>
                </g>
                <g id="dirArrow">
                        <path fill="none" stroke="white" stroke-width="1.5" d="M0,-3.0v7 M-2.5,-0.5L0,-3.0L2.5,-0.5"/>
                </g>
               <g id="resetDef">
                       <use xlink:href="#rim2" fill="#404040">
                               <set attributeName="fill" to="#808080" begin="reset.mouseover" end="reset.mouseout"/>
                       </use>
               </g>
        </defs>

<script type="text/javascript">
var viewWidth = 792;
var viewHeight = 755;
var sectionId = 'dynsection-0';
</script>
<script xlink:href="svgpan.js"/>
<svg id="graph" class="graph">
<g id="viewport">
<title>/home/alexander/Documents/Seminars/TP/Project/src/general/request_handlers/abstract_handler.cpp</title>
<!-- Node1 -->
<g id="node1" class="node">
<title>Node1</title>
<g id="a_node1"><a xlink:title=" ">
<polygon fill="#bfbfbf" stroke="black" points="368,-694.5 368,-746.5 526,-746.5 526,-694.5 368,-694.5"/>
<text text-anchor="start" x="376" y="-734.5" font-family="Helvetica,sans-Serif" font-size="10.00">/home/alexander/Documents</text>
<text text-anchor="start" x="376" y="-723.5" font-family="Helvetica,sans-Serif" font-size="10.00">/Seminars/TP/Project/src</text>
<text text-anchor="start" x="376" y="-712.5" font-family="Helvetica,sans-Serif" font-size="10.00">/general/request_handlers</text>
<text text-anchor="middle" x="447" y="-701.5" font-family="Helvetica,sans-Serif" font-size="10.00">/abstract_handler.cpp</text>
</a>
</g>
</g>
<!-- Node2 -->
<g id="node2" class="node">
<title>Node2</title>
<g id="a_node2"><a xlink:href="abstract__handler_8hpp.html" target="_top" xlink:title=" ">
<polygon fill="none" stroke="black" points="490.5,-168.5 490.5,-187.5 609.5,-187.5 609.5,-168.5 490.5,-168.5"/>
<text text-anchor="middle" x="550" y="-175.5" font-family="Helvetica,sans-Serif" font-size="10.00">abstract_handler.hpp</text>
</a>
</g>
</g>
<!-- Node1&#45;&gt;Node2 -->
<g id="edge1" class="edge">
<title>Node1&#45;&gt;Node2</title>
<path fill="none" stroke="midnightblue" d="M367.86,-712.47C239.47,-698.86 0,-663.31 0,-587.5 0,-587.5 0,-587.5 0,-524 0,-247.18 475,-303.55 522,-255 537.1,-239.4 544.17,-214.98 547.4,-198.05"/>
<polygon fill="midnightblue" stroke="midnightblue" points="550.93,-198.15 549.08,-187.72 544.02,-197.03 550.93,-198.15"/>
</g>
<!-- Node13 -->
<g id="node13" class="node">
<title>Node13</title>
<g id="a_node13"><a xlink:href="request__creator_8hpp.html" target="_top" xlink:title=" ">
<polygon fill="none" stroke="black" points="368,-638.5 368,-657.5 526,-657.5 526,-638.5 368,-638.5"/>
<text text-anchor="middle" x="447" y="-645.5" font-family="Helvetica,sans-Serif" font-size="10.00">requests/request_creator.hpp</text>
</a>
</g>
</g>
<!-- Node1&#45;&gt;Node13 -->
<g id="edge16" class="edge">
<title>Node1&#45;&gt;Node13</title>
<path fill="none" stroke="midnightblue" d="M447,-694.45C447,-685.73 447,-676.1 447,-667.96"/>
<polygon fill="midnightblue" stroke="midnightblue" points="450.5,-667.7 447,-657.7 443.5,-667.7 450.5,-667.7"/>
</g>
<!-- Node33 -->
<g id="node33" class="node">
<title>Node33</title>
<g id="a_node33"><a xlink:href="request__parser_8hpp.html" target="_top" xlink:title=" ">
<polygon fill="none" stroke="black" points="544.5,-638.5 544.5,-657.5 699.5,-657.5 699.5,-638.5 544.5,-638.5"/>
<text text-anchor="middle" x="622" y="-645.5" font-family="Helvetica,sans-Serif" font-size="10.00">requests/request_parser.hpp</text>
</a>
</g>
</g>
<!-- Node1&#45;&gt;Node33 -->
<g id="edge48" class="edge">
<title>Node1&#45;&gt;Node33</title>
<path fill="none" stroke="midnightblue" d="M509.19,-694.45C537.09,-683.21 568.74,-670.45 591.41,-661.33"/>
<polygon fill="midnightblue" stroke="midnightblue" points="592.87,-664.51 600.83,-657.53 590.25,-658.02 592.87,-664.51"/>
</g>
<!-- Node3 -->
<g id="node3" class="node">
<title>Node3</title>
<g id="a_node3"><a xlink:title=" ">
<polygon fill="none" stroke="#bfbfbf" points="498,-0.5 498,-19.5 556,-19.5 556,-0.5 498,-0.5"/>
<text text-anchor="middle" x="527" y="-7.5" font-family="Helvetica,sans-Serif" font-size="10.00">memory</text>
</a>
</g>
</g>
<!-- Node2&#45;&gt;Node3 -->
<g id="edge2" class="edge">
<title>Node2&#45;&gt;Node3</title>
<path fill="none" stroke="midnightblue" d="M551.7,-168.31C555.32,-148.16 562.59,-96.88 552,-56 549.45,-46.18 544.25,-36.21 539.24,-28.17"/>
<polygon fill="midnightblue" stroke="midnightblue" points="542.08,-26.11 533.63,-19.73 536.25,-29.99 542.08,-26.11"/>
</g>
<!-- Node4 -->
<g id="node4" class="node">
<title>Node4</title>
<g id="a_node4"><a xlink:href="account_8hpp.html" target="_top" xlink:title=" ">
<polygon fill="none" stroke="black" points="467,-112.5 467,-131.5 543,-131.5 543,-112.5 467,-112.5"/>
<text text-anchor="middle" x="505" y="-119.5" font-family="Helvetica,sans-Serif" font-size="10.00">account.hpp</text>
</a>
</g>
</g>
<!-- Node2&#45;&gt;Node4 -->
<g id="edge3" class="edge">
<title>Node2&#45;&gt;Node4</title>
<path fill="none" stroke="midnightblue" d="M542.57,-168.08C536.15,-160.38 526.69,-149.03 518.88,-139.65"/>
<polygon fill="midnightblue" stroke="midnightblue" points="521.38,-137.19 512.29,-131.75 516.01,-141.67 521.38,-137.19"/>
</g>
<!-- Node8 -->
<g id="node8" class="node">
<title>Node8</title>
<g id="a_node8"><a xlink:href="socket_8hpp.html" target="_top" xlink:title=" ">
<polygon fill="none" stroke="black" points="219,-112.5 219,-131.5 323,-131.5 323,-112.5 219,-112.5"/>
<text text-anchor="middle" x="271" y="-119.5" font-family="Helvetica,sans-Serif" font-size="10.00">socket/socket.hpp</text>
</a>
</g>
</g>
<!-- Node2&#45;&gt;Node8 -->
<g id="edge8" class="edge">
<title>Node2&#45;&gt;Node8</title>
<path fill="none" stroke="midnightblue" d="M505.79,-168.44C456.71,-158.94 377.49,-143.61 324.84,-133.42"/>
<polygon fill="midnightblue" stroke="midnightblue" points="325.48,-129.98 315,-131.52 324.15,-136.85 325.48,-129.98"/>
</g>
<!-- Node4&#45;&gt;Node3 -->
<g id="edge4" class="edge">
<title>Node4&#45;&gt;Node3</title>
<path fill="none" stroke="midnightblue" d="M503.02,-112.42C500.45,-99.82 496.9,-75.68 502,-56 504.55,-46.18 509.75,-36.21 514.76,-28.17"/>
<polygon fill="midnightblue" stroke="midnightblue" points="517.75,-29.99 520.37,-19.73 511.92,-26.11 517.75,-29.99"/>
</g>
<!-- Node5 -->
<g id="node5" class="node">
<title>Node5</title>
<g id="a_node5"><a xlink:title=" ">
<polygon fill="none" stroke="#bfbfbf" points="511,-56.5 511,-75.5 543,-75.5 543,-56.5 511,-56.5"/>
<text text-anchor="middle" x="527" y="-63.5" font-family="Helvetica,sans-Serif" font-size="10.00">set</text>
</a>
</g>
</g>
<!-- Node4&#45;&gt;Node5 -->
<g id="edge5" class="edge">
<title>Node4&#45;&gt;Node5</title>
<path fill="none" stroke="midnightblue" d="M508.63,-112.08C511.61,-104.77 515.93,-94.18 519.62,-85.1"/>
<polygon fill="midnightblue" stroke="midnightblue" points="522.9,-86.33 523.43,-75.75 516.42,-83.69 522.9,-86.33"/>
</g>
<!-- Node6 -->
<g id="node6" class="node">
<title>Node6</title>
<g id="a_node6"><a xlink:title=" ">
<polygon fill="none" stroke="#bfbfbf" points="656,-56.5 656,-75.5 712,-75.5 712,-56.5 656,-56.5"/>
<text text-anchor="middle" x="684" y="-63.5" font-family="Helvetica,sans-Serif" font-size="10.00">sstream</text>
</a>
</g>
</g>
<!-- Node4&#45;&gt;Node6 -->
<g id="edge6" class="edge">
<title>Node4&#45;&gt;Node6</title>
<path fill="none" stroke="midnightblue" d="M533.36,-112.44C563.74,-103.28 612.11,-88.69 645.82,-78.52"/>
<polygon fill="midnightblue" stroke="midnightblue" points="647.21,-81.76 655.77,-75.52 645.18,-75.05 647.21,-81.76"/>
</g>
<!-- Node7 -->
<g id="node7" class="node">
<title>Node7</title>
<g id="a_node7"><a xlink:title=" ">
<polygon fill="none" stroke="#bfbfbf" points="411,-56.5 411,-75.5 455,-75.5 455,-56.5 411,-56.5"/>
<text text-anchor="middle" x="433" y="-63.5" font-family="Helvetica,sans-Serif" font-size="10.00">string</text>
</a>
</g>
</g>
<!-- Node4&#45;&gt;Node7 -->
<g id="edge7" class="edge">
<title>Node4&#45;&gt;Node7</title>
<path fill="none" stroke="midnightblue" d="M493.43,-112.32C482.58,-104.18 466.12,-91.84 453.12,-82.09"/>
<polygon fill="midnightblue" stroke="midnightblue" points="454.88,-79.03 444.78,-75.83 450.68,-84.63 454.88,-79.03"/>
</g>
<!-- Node8&#45;&gt;Node3 -->
<g id="edge11" class="edge">
<title>Node8&#45;&gt;Node3</title>
<path fill="none" stroke="midnightblue" d="M271.72,-112.32C273.38,-98.22 278.77,-70.45 296,-56 324.51,-32.08 429.41,-19.42 487.55,-14.1"/>
<polygon fill="midnightblue" stroke="midnightblue" points="488.18,-17.56 497.83,-13.19 487.56,-10.59 488.18,-17.56"/>
</g>
<!-- Node8&#45;&gt;Node7 -->
<g id="edge12" class="edge">
<title>Node8&#45;&gt;Node7</title>
<path fill="none" stroke="midnightblue" d="M296.67,-112.44C324.96,-103.01 370.52,-87.83 401.09,-77.64"/>
<polygon fill="midnightblue" stroke="midnightblue" points="402.45,-80.87 410.83,-74.39 400.24,-74.23 402.45,-80.87"/>
</g>
<!-- Node9 -->
<g id="node9" class="node">
<title>Node9</title>
<g id="a_node9"><a xlink:title=" ">
<polygon fill="none" stroke="#bfbfbf" points="305,-56.5 305,-75.5 393,-75.5 393,-56.5 305,-56.5"/>
<text text-anchor="middle" x="349" y="-63.5" font-family="Helvetica,sans-Serif" font-size="10.00">boost/asio.hpp</text>
</a>
</g>
</g>
<!-- Node8&#45;&gt;Node9 -->
<g id="edge9" class="edge">
<title>Node8&#45;&gt;Node9</title>
<path fill="none" stroke="midnightblue" d="M283.53,-112.32C295.59,-103.98 314.03,-91.21 328.27,-81.35"/>
<polygon fill="midnightblue" stroke="midnightblue" points="330.27,-84.22 336.5,-75.65 326.28,-78.47 330.27,-84.22"/>
</g>
<!-- Node10 -->
<g id="node10" class="node">
<title>Node10</title>
<g id="a_node10"><a xlink:title=" ">
<polygon fill="none" stroke="#bfbfbf" points="183.5,-56.5 183.5,-75.5 248.5,-75.5 248.5,-56.5 183.5,-56.5"/>
<text text-anchor="middle" x="216" y="-63.5" font-family="Helvetica,sans-Serif" font-size="10.00">functional</text>
</a>
</g>
</g>
<!-- Node8&#45;&gt;Node10 -->
<g id="edge10" class="edge">
<title>Node8&#45;&gt;Node10</title>
<path fill="none" stroke="midnightblue" d="M261.92,-112.08C253.83,-104.14 241.8,-92.34 232.09,-82.8"/>
<polygon fill="midnightblue" stroke="midnightblue" points="234.5,-80.26 224.91,-75.75 229.6,-85.25 234.5,-80.26"/>
</g>
<!-- Node11 -->
<g id="node11" class="node">
<title>Node11</title>
<g id="a_node11"><a xlink:href="general_2socket_2log_8hpp.html" target="_top" xlink:title=" ">
<polygon fill="none" stroke="black" points="112.5,-56.5 112.5,-75.5 165.5,-75.5 165.5,-56.5 112.5,-56.5"/>
<text text-anchor="middle" x="139" y="-63.5" font-family="Helvetica,sans-Serif" font-size="10.00">log.hpp</text>
</a>
</g>
</g>
<!-- Node8&#45;&gt;Node11 -->
<g id="edge13" class="edge">
<title>Node8&#45;&gt;Node11</title>
<path fill="none" stroke="midnightblue" d="M250.08,-112.44C228.26,-103.52 193.85,-89.44 169.11,-79.32"/>
<polygon fill="midnightblue" stroke="midnightblue" points="170.4,-76.06 159.82,-75.52 167.75,-82.54 170.4,-76.06"/>
</g>
<!-- Node11&#45;&gt;Node3 -->
<g id="edge14" class="edge">
<title>Node11&#45;&gt;Node3</title>
<path fill="none" stroke="midnightblue" d="M165.68,-57.77C168.48,-57.13 171.29,-56.52 174,-56 286.94,-34.37 422.27,-20.4 487.71,-14.39"/>
<polygon fill="midnightblue" stroke="midnightblue" points="488.34,-17.85 497.98,-13.46 487.7,-10.88 488.34,-17.85"/>
</g>
<!-- Node12 -->
<g id="node12" class="node">
<title>Node12</title>
<g id="a_node12"><a xlink:title=" ">
<polygon fill="none" stroke="#bfbfbf" points="110.5,-0.5 110.5,-19.5 167.5,-19.5 167.5,-0.5 110.5,-0.5"/>
<text text-anchor="middle" x="139" y="-7.5" font-family="Helvetica,sans-Serif" font-size="10.00">ostream</text>
</a>
</g>
</g>
<!-- Node11&#45;&gt;Node12 -->
<g id="edge15" class="edge">
<title>Node11&#45;&gt;Node12</title>
<path fill="none" stroke="midnightblue" d="M139,-56.08C139,-49.01 139,-38.86 139,-29.99"/>
<polygon fill="midnightblue" stroke="midnightblue" points="142.5,-29.75 139,-19.75 135.5,-29.75 142.5,-29.75"/>
</g>
<!-- Node14 -->
<g id="node14" class="node">
<title>Node14</title>
<g id="a_node14"><a xlink:href="sign__in__request_8hpp.html" target="_top" xlink:title=" ">
<polygon fill="none" stroke="black" points="625,-571.5 625,-601.5 751,-601.5 751,-571.5 625,-571.5"/>
<text text-anchor="start" x="633" y="-589.5" font-family="Helvetica,sans-Serif" font-size="10.00">requests/authorization</text>
<text text-anchor="middle" x="688" y="-578.5" font-family="Helvetica,sans-Serif" font-size="10.00">/sign_in_request.hpp</text>
</a>
</g>
</g>
<!-- Node13&#45;&gt;Node14 -->
<g id="edge17" class="edge">
<title>Node13&#45;&gt;Node14</title>
<path fill="none" stroke="midnightblue" d="M481.53,-638.48C517.91,-629.49 576.09,-615.13 621.44,-603.93"/>
<polygon fill="midnightblue" stroke="midnightblue" points="622.33,-607.32 631.2,-601.52 620.65,-600.52 622.33,-607.32"/>
</g>
<!-- Node21 -->
<g id="node21" class="node">
<title>Node21</title>
<g id="a_node21"><a xlink:href="sign__up__request_8hpp.html" target="_top" xlink:title=" ">
<polygon fill="none" stroke="black" points="481,-571.5 481,-601.5 607,-601.5 607,-571.5 481,-571.5"/>
<text text-anchor="start" x="489" y="-589.5" font-family="Helvetica,sans-Serif" font-size="10.00">requests/authorization</text>
<text text-anchor="middle" x="544" y="-578.5" font-family="Helvetica,sans-Serif" font-size="10.00">/sign_up_request.hpp</text>
</a>
</g>
</g>
<!-- Node13&#45;&gt;Node21 -->
<g id="edge29" class="edge">
<title>Node13&#45;&gt;Node21</title>
<path fill="none" stroke="midnightblue" d="M460.9,-638.48C474.28,-630.27 495,-617.56 512.4,-606.88"/>
<polygon fill="midnightblue" stroke="midnightblue" points="514.44,-609.74 521.14,-601.52 510.78,-603.77 514.44,-609.74"/>
</g>
<!-- Node22 -->
<g id="node22" class="node">
<title>Node22</title>
<g id="a_node22"><a xlink:href="messages__builder_8hpp.html" target="_top" xlink:title=" ">
<polygon fill="none" stroke="black" points="299,-571.5 299,-601.5 463,-601.5 463,-571.5 299,-571.5"/>
<text text-anchor="start" x="307" y="-589.5" font-family="Helvetica,sans-Serif" font-size="10.00">requests/messages/messages</text>
<text text-anchor="middle" x="381" y="-578.5" font-family="Helvetica,sans-Serif" font-size="10.00">_builder.hpp</text>
</a>
</g>
</g>
<!-- Node13&#45;&gt;Node22 -->
<g id="edge31" class="edge">
<title>Node13&#45;&gt;Node22</title>
<path fill="none" stroke="midnightblue" d="M437.54,-638.48C428.86,-630.64 415.62,-618.71 404.14,-608.37"/>
<polygon fill="midnightblue" stroke="midnightblue" points="406.33,-605.62 396.55,-601.52 401.64,-610.82 406.33,-605.62"/>
</g>
<!-- Node15 -->
<g id="node15" class="node">
<title>Node15</title>
<g id="a_node15"><a xlink:href="authorization__request_8hpp.html" target="_top" xlink:title=" ">
<polygon fill="none" stroke="black" points="612,-515.5 612,-534.5 756,-534.5 756,-515.5 612,-515.5"/>
<text text-anchor="middle" x="684" y="-522.5" font-family="Helvetica,sans-Serif" font-size="10.00">authorization_request.hpp</text>
</a>
</g>
</g>
<!-- Node14&#45;&gt;Node15 -->
<g id="edge18" class="edge">
<title>Node14&#45;&gt;Node15</title>
<path fill="none" stroke="midnightblue" d="M687.05,-571.4C686.52,-563.47 685.85,-553.46 685.27,-544.86"/>
<polygon fill="midnightblue" stroke="midnightblue" points="688.74,-544.4 684.58,-534.66 681.76,-544.87 688.74,-544.4"/>
</g>
<!-- Node16 -->
<g id="node16" class="node">
<title>Node16</title>
<g id="a_node16"><a xlink:href="request_8hpp.html" target="_top" xlink:title=" ">
<polygon fill="none" stroke="black" points="576.5,-291.5 576.5,-310.5 695.5,-310.5 695.5,-291.5 576.5,-291.5"/>
<text text-anchor="middle" x="636" y="-298.5" font-family="Helvetica,sans-Serif" font-size="10.00">requests/request.hpp</text>
</a>
</g>
</g>
<!-- Node15&#45;&gt;Node16 -->
<g id="edge19" class="edge">
<title>Node15&#45;&gt;Node16</title>
<path fill="none" stroke="midnightblue" d="M691.26,-515.25C706.82,-495.39 740.86,-445.38 727,-403 714.77,-365.6 679.88,-334.08 657.03,-316.64"/>
<polygon fill="midnightblue" stroke="midnightblue" points="659.06,-313.79 648.93,-310.67 654.9,-319.42 659.06,-313.79"/>
</g>
<!-- Node16&#45;&gt;Node3 -->
<g id="edge20" class="edge">
<title>Node16&#45;&gt;Node3</title>
<path fill="none" stroke="midnightblue" d="M657.44,-291.36C673.89,-283.82 696.2,-271.51 711,-255 735.83,-227.31 746,-216.19 746,-179 746,-179 746,-179 746,-121 746,-90.05 744.36,-76.31 721,-56 698.23,-36.2 616.29,-22.47 566.48,-15.75"/>
<polygon fill="midnightblue" stroke="midnightblue" points="566.74,-12.25 556.37,-14.42 565.83,-19.19 566.74,-12.25"/>
</g>
<!-- Node16&#45;&gt;Node7 -->
<g id="edge21" class="edge">
<title>Node16&#45;&gt;Node7</title>
<path fill="none" stroke="midnightblue" d="M576.35,-298.54C506.17,-295.42 395.88,-285.63 370,-255 325.96,-202.89 387.88,-118.78 418.08,-83.45"/>
<polygon fill="midnightblue" stroke="midnightblue" points="421.03,-85.4 424.99,-75.57 415.77,-80.78 421.03,-85.4"/>
</g>
<!-- Node17 -->
<g id="node17" class="node">
<title>Node17</title>
<g id="a_node17"><a xlink:href="client__handler_8hpp.html" target="_top" xlink:title=" ">
<polygon fill="none" stroke="black" points="570.5,-224.5 570.5,-254.5 701.5,-254.5 701.5,-224.5 570.5,-224.5"/>
<text text-anchor="start" x="578.5" y="-242.5" font-family="Helvetica,sans-Serif" font-size="10.00">request_handlers/client</text>
<text text-anchor="middle" x="636" y="-231.5" font-family="Helvetica,sans-Serif" font-size="10.00">_handler.hpp</text>
</a>
</g>
</g>
<!-- Node16&#45;&gt;Node17 -->
<g id="edge22" class="edge">
<title>Node16&#45;&gt;Node17</title>
<path fill="none" stroke="midnightblue" d="M636,-291.48C636,-284.47 636,-274.19 636,-264.7"/>
<polygon fill="midnightblue" stroke="midnightblue" points="639.5,-264.52 636,-254.52 632.5,-264.52 639.5,-264.52"/>
</g>
<!-- Node19 -->
<g id="node19" class="node">
<title>Node19</title>
<g id="a_node19"><a xlink:href="server__handler_8hpp.html" target="_top" xlink:title=" ">
<polygon fill="none" stroke="black" points="379,-224.5 379,-254.5 513,-254.5 513,-224.5 379,-224.5"/>
<text text-anchor="start" x="387" y="-242.5" font-family="Helvetica,sans-Serif" font-size="10.00">request_handlers/server</text>
<text text-anchor="middle" x="446" y="-231.5" font-family="Helvetica,sans-Serif" font-size="10.00">_handler.hpp</text>
</a>
</g>
</g>
<!-- Node16&#45;&gt;Node19 -->
<g id="edge26" class="edge">
<title>Node16&#45;&gt;Node19</title>
<path fill="none" stroke="midnightblue" d="M608.78,-291.48C580.64,-282.66 535.95,-268.67 500.51,-257.57"/>
<polygon fill="midnightblue" stroke="midnightblue" points="501.37,-254.17 490.78,-254.52 499.28,-260.85 501.37,-254.17"/>
</g>
<!-- Node17&#45;&gt;Node2 -->
<g id="edge23" class="edge">
<title>Node17&#45;&gt;Node2</title>
<path fill="none" stroke="midnightblue" d="M615.62,-224.4C602.09,-215.04 584.39,-202.79 570.78,-193.38"/>
<polygon fill="midnightblue" stroke="midnightblue" points="572.73,-190.47 562.51,-187.66 568.75,-196.23 572.73,-190.47"/>
</g>
<!-- Node18 -->
<g id="node18" class="node">
<title>Node18</title>
<g id="a_node18"><a xlink:href="renderer_8hpp.html" target="_top" xlink:title=" ">
<polygon fill="none" stroke="black" points="599,-112.5 599,-131.5 677,-131.5 677,-112.5 599,-112.5"/>
<text text-anchor="middle" x="638" y="-119.5" font-family="Helvetica,sans-Serif" font-size="10.00">renderer.hpp</text>
</a>
</g>
</g>
<!-- Node17&#45;&gt;Node18 -->
<g id="edge24" class="edge">
<title>Node17&#45;&gt;Node18</title>
<path fill="none" stroke="midnightblue" d="M636.25,-224.34C636.6,-203.62 637.27,-165.02 637.67,-141.9"/>
<polygon fill="midnightblue" stroke="midnightblue" points="641.18,-141.73 637.85,-131.67 634.18,-141.61 641.18,-141.73"/>
</g>
<!-- Node18&#45;&gt;Node3 -->
<g id="edge25" class="edge">
<title>Node18&#45;&gt;Node3</title>
<path fill="none" stroke="midnightblue" d="M632.03,-112.49C622.75,-99.55 603.96,-74.51 585,-56 573.52,-44.79 559.3,-33.72 547.82,-25.37"/>
<polygon fill="midnightblue" stroke="midnightblue" points="549.83,-22.51 539.66,-19.55 545.77,-28.21 549.83,-22.51"/>
</g>
<!-- Node19&#45;&gt;Node2 -->
<g id="edge28" class="edge">
<title>Node19&#45;&gt;Node2</title>
<path fill="none" stroke="midnightblue" d="M470.65,-224.4C487.32,-214.86 509.23,-202.32 525.81,-192.84"/>
<polygon fill="midnightblue" stroke="midnightblue" points="527.93,-195.66 534.87,-187.66 524.45,-189.59 527.93,-195.66"/>
</g>
<!-- Node20 -->
<g id="node20" class="node">
<title>Node20</title>
<g id="a_node20"><a xlink:title=" ">
<polygon fill="none" stroke="#bfbfbf" points="379.5,-168.5 379.5,-187.5 472.5,-187.5 472.5,-168.5 379.5,-168.5"/>
<text text-anchor="middle" x="426" y="-175.5" font-family="Helvetica,sans-Serif" font-size="10.00">unordered_map</text>
</a>
</g>
</g>
<!-- Node19&#45;&gt;Node20 -->
<g id="edge27" class="edge">
<title>Node19&#45;&gt;Node20</title>
<path fill="none" stroke="midnightblue" d="M441.26,-224.4C438.53,-216.29 435.08,-206.01 432.14,-197.28"/>
<polygon fill="midnightblue" stroke="midnightblue" points="435.41,-196.02 428.91,-187.66 428.78,-198.25 435.41,-196.02"/>
</g>
<!-- Node21&#45;&gt;Node15 -->
<g id="edge30" class="edge">
<title>Node21&#45;&gt;Node15</title>
<path fill="none" stroke="midnightblue" d="M577.18,-571.4C600.56,-561.46 631.61,-548.26 654.21,-538.66"/>
<polygon fill="midnightblue" stroke="midnightblue" points="655.79,-541.79 663.63,-534.66 653.06,-535.35 655.79,-541.79"/>
</g>
<!-- Node23 -->
<g id="node23" class="node">
<title>Node23</title>
<g id="a_node23"><a xlink:href="all__messages_8hpp.html" target="_top" xlink:title=" ">
<polygon fill="none" stroke="black" points="329,-515.5 329,-534.5 433,-534.5 433,-515.5 329,-515.5"/>
<text text-anchor="middle" x="381" y="-522.5" font-family="Helvetica,sans-Serif" font-size="10.00">all_messages.hpp</text>
</a>
</g>
</g>
<!-- Node22&#45;&gt;Node23 -->
<g id="edge32" class="edge">
<title>Node22&#45;&gt;Node23</title>
<path fill="none" stroke="midnightblue" d="M381,-571.4C381,-563.47 381,-553.46 381,-544.86"/>
<polygon fill="midnightblue" stroke="midnightblue" points="384.5,-544.66 381,-534.66 377.5,-544.66 384.5,-544.66"/>
</g>
<!-- Node24 -->
<g id="node24" class="node">
<title>Node24</title>
<g id="a_node24"><a xlink:href="base__message_8hpp.html" target="_top" xlink:title=" ">
<polygon fill="none" stroke="black" points="608,-403.5 608,-422.5 718,-422.5 718,-403.5 608,-403.5"/>
<text text-anchor="middle" x="663" y="-410.5" font-family="Helvetica,sans-Serif" font-size="10.00">base_message.hpp</text>
</a>
</g>
</g>
<!-- Node23&#45;&gt;Node24 -->
<g id="edge33" class="edge">
<title>Node23&#45;&gt;Node24</title>
<path fill="none" stroke="midnightblue" d="M433.31,-524.24C512.38,-523.37 656.57,-516.51 689,-479 701.11,-464.99 689.59,-444.63 678.29,-430.44"/>
<polygon fill="midnightblue" stroke="midnightblue" points="680.65,-427.83 671.48,-422.52 675.34,-432.39 680.65,-427.83"/>
</g>
<!-- Node26 -->
<g id="node26" class="node">
<title>Node26</title>
<g id="a_node26"><a xlink:href="private__decorator_8hpp.html" target="_top" xlink:title=" ">
<polygon fill="none" stroke="black" points="28.5,-459.5 28.5,-478.5 151.5,-478.5 151.5,-459.5 28.5,-459.5"/>
<text text-anchor="middle" x="90" y="-466.5" font-family="Helvetica,sans-Serif" font-size="10.00">private_decorator.hpp</text>
</a>
</g>
</g>
<!-- Node23&#45;&gt;Node26 -->
<g id="edge36" class="edge">
<title>Node23&#45;&gt;Node26</title>
<path fill="none" stroke="midnightblue" d="M334.89,-515.44C283.59,-505.92 200.73,-490.55 145.81,-480.36"/>
<polygon fill="midnightblue" stroke="midnightblue" points="146.36,-476.9 135.89,-478.52 145.09,-483.78 146.36,-476.9"/>
</g>
<!-- Node28 -->
<g id="node28" class="node">
<title>Node28</title>
<g id="a_node28"><a xlink:href="room__decorator_8hpp.html" target="_top" xlink:title=" ">
<polygon fill="none" stroke="black" points="170,-459.5 170,-478.5 284,-478.5 284,-459.5 170,-459.5"/>
<text text-anchor="middle" x="227" y="-466.5" font-family="Helvetica,sans-Serif" font-size="10.00">room_decorator.hpp</text>
</a>
</g>
</g>
<!-- Node23&#45;&gt;Node28 -->
<g id="edge39" class="edge">
<title>Node23&#45;&gt;Node28</title>
<path fill="none" stroke="midnightblue" d="M356.6,-515.44C330.8,-506.4 289.92,-492.06 260.98,-481.92"/>
<polygon fill="midnightblue" stroke="midnightblue" points="261.88,-478.52 251.29,-478.52 259.57,-485.13 261.88,-478.52"/>
</g>
<!-- Node29 -->
<g id="node29" class="node">
<title>Node29</title>
<g id="a_node29"><a xlink:href="sender__decorator_8hpp.html" target="_top" xlink:title=" ">
<polygon fill="none" stroke="black" points="302,-459.5 302,-478.5 424,-478.5 424,-459.5 302,-459.5"/>
<text text-anchor="middle" x="363" y="-466.5" font-family="Helvetica,sans-Serif" font-size="10.00">sender_decorator.hpp</text>
</a>
</g>
</g>
<!-- Node23&#45;&gt;Node29 -->
<g id="edge41" class="edge">
<title>Node23&#45;&gt;Node29</title>
<path fill="none" stroke="midnightblue" d="M378.03,-515.08C375.62,-507.85 372.14,-497.41 369.13,-488.4"/>
<polygon fill="midnightblue" stroke="midnightblue" points="372.4,-487.13 365.92,-478.75 365.76,-489.34 372.4,-487.13"/>
</g>
<!-- Node30 -->
<g id="node30" class="node">
<title>Node30</title>
<g id="a_node30"><a xlink:href="text__decorator_8hpp.html" target="_top" xlink:title=" ">
<polygon fill="none" stroke="black" points="442,-459.5 442,-478.5 550,-478.5 550,-459.5 442,-459.5"/>
<text text-anchor="middle" x="496" y="-466.5" font-family="Helvetica,sans-Serif" font-size="10.00">text_decorator.hpp</text>
</a>
</g>
</g>
<!-- Node23&#45;&gt;Node30 -->
<g id="edge43" class="edge">
<title>Node23&#45;&gt;Node30</title>
<path fill="none" stroke="midnightblue" d="M399.22,-515.44C417.9,-506.68 447.16,-492.94 468.62,-482.86"/>
<polygon fill="midnightblue" stroke="midnightblue" points="470.3,-485.93 477.86,-478.52 467.32,-479.6 470.3,-485.93"/>
</g>
<!-- Node31 -->
<g id="node31" class="node">
<title>Node31</title>
<g id="a_node31"><a xlink:href="time__decorator_8hpp.html" target="_top" xlink:title=" ">
<polygon fill="none" stroke="black" points="568.5,-459.5 568.5,-478.5 679.5,-478.5 679.5,-459.5 568.5,-459.5"/>
<text text-anchor="middle" x="624" y="-466.5" font-family="Helvetica,sans-Serif" font-size="10.00">time_decorator.hpp</text>
</a>
</g>
</g>
<!-- Node23&#45;&gt;Node31 -->
<g id="edge45" class="edge">
<title>Node23&#45;&gt;Node31</title>
<path fill="none" stroke="midnightblue" d="M419.5,-515.44C461.81,-506.04 529.82,-490.93 575.67,-480.74"/>
<polygon fill="midnightblue" stroke="midnightblue" points="576.67,-484.1 585.68,-478.52 575.15,-477.27 576.67,-484.1"/>
</g>
<!-- Node25 -->
<g id="node25" class="node">
<title>Node25</title>
<g id="a_node25"><a xlink:href="message_8hpp.html" target="_top" xlink:title=" ">
<polygon fill="none" stroke="black" points="595,-347.5 595,-366.5 677,-366.5 677,-347.5 595,-347.5"/>
<text text-anchor="middle" x="636" y="-354.5" font-family="Helvetica,sans-Serif" font-size="10.00">message.hpp</text>
</a>
</g>
</g>
<!-- Node24&#45;&gt;Node25 -->
<g id="edge34" class="edge">
<title>Node24&#45;&gt;Node25</title>
<path fill="none" stroke="midnightblue" d="M658.54,-403.08C654.85,-395.69 649.48,-384.95 644.91,-375.81"/>
<polygon fill="midnightblue" stroke="midnightblue" points="647.98,-374.13 640.38,-366.75 641.72,-377.26 647.98,-374.13"/>
</g>
<!-- Node25&#45;&gt;Node16 -->
<g id="edge35" class="edge">
<title>Node25&#45;&gt;Node16</title>
<path fill="none" stroke="midnightblue" d="M636,-347.08C636,-340.01 636,-329.86 636,-320.99"/>
<polygon fill="midnightblue" stroke="midnightblue" points="639.5,-320.75 636,-310.75 632.5,-320.75 639.5,-320.75"/>
</g>
<!-- Node27 -->
<g id="node27" class="node">
<title>Node27</title>
<g id="a_node27"><a xlink:href="properties__decorator_8hpp.html" target="_top" xlink:title=" ">
<polygon fill="none" stroke="black" points="340,-403.5 340,-422.5 478,-422.5 478,-403.5 340,-403.5"/>
<text text-anchor="middle" x="409" y="-410.5" font-family="Helvetica,sans-Serif" font-size="10.00">properties_decorator.hpp</text>
</a>
</g>
</g>
<!-- Node26&#45;&gt;Node27 -->
<g id="edge37" class="edge">
<title>Node26&#45;&gt;Node27</title>
<path fill="none" stroke="midnightblue" d="M140.55,-459.44C197.01,-449.89 288.37,-434.42 348.57,-424.23"/>
<polygon fill="midnightblue" stroke="midnightblue" points="349.41,-427.64 358.69,-422.52 348.25,-420.73 349.41,-427.64"/>
</g>
<!-- Node27&#45;&gt;Node25 -->
<g id="edge38" class="edge">
<title>Node27&#45;&gt;Node25</title>
<path fill="none" stroke="midnightblue" d="M444.97,-403.44C484.32,-394.08 547.49,-379.06 590.31,-368.87"/>
<polygon fill="midnightblue" stroke="midnightblue" points="591.28,-372.24 600.2,-366.52 589.66,-365.43 591.28,-372.24"/>
</g>
<!-- Node28&#45;&gt;Node27 -->
<g id="edge40" class="edge">
<title>Node28&#45;&gt;Node27</title>
<path fill="none" stroke="midnightblue" d="M255.84,-459.44C286.86,-450.24 336.33,-435.56 370.62,-425.39"/>
<polygon fill="midnightblue" stroke="midnightblue" points="371.71,-428.72 380.3,-422.52 369.71,-422.01 371.71,-428.72"/>
</g>
<!-- Node29&#45;&gt;Node27 -->
<g id="edge42" class="edge">
<title>Node29&#45;&gt;Node27</title>
<path fill="none" stroke="midnightblue" d="M370.6,-459.08C377.23,-451.3 387.02,-439.8 395.06,-430.37"/>
<polygon fill="midnightblue" stroke="midnightblue" points="397.73,-432.63 401.55,-422.75 392.4,-428.09 397.73,-432.63"/>
</g>
<!-- Node30&#45;&gt;Node27 -->
<g id="edge44" class="edge">
<title>Node30&#45;&gt;Node27</title>
<path fill="none" stroke="midnightblue" d="M482.02,-459.32C468.45,-450.9 447.62,-437.97 431.68,-428.07"/>
<polygon fill="midnightblue" stroke="midnightblue" points="433.29,-424.95 422.94,-422.65 429.59,-430.9 433.29,-424.95"/>
</g>
<!-- Node31&#45;&gt;Node27 -->
<g id="edge46" class="edge">
<title>Node31&#45;&gt;Node27</title>
<path fill="none" stroke="midnightblue" d="M589.93,-459.44C552.82,-450.12 493.34,-435.18 452.79,-425"/>
<polygon fill="midnightblue" stroke="midnightblue" points="453.46,-421.56 442.91,-422.52 451.75,-428.35 453.46,-421.56"/>
</g>
<!-- Node32 -->
<g id="node32" class="node">
<title>Node32</title>
<g id="a_node32"><a xlink:title=" ">
<polygon fill="none" stroke="#bfbfbf" points="542,-403.5 542,-422.5 590,-422.5 590,-403.5 542,-403.5"/>
<text text-anchor="middle" x="566" y="-410.5" font-family="Helvetica,sans-Serif" font-size="10.00">time.h</text>
</a>
</g>
</g>
<!-- Node31&#45;&gt;Node32 -->
<g id="edge47" class="edge">
<title>Node31&#45;&gt;Node32</title>
<path fill="none" stroke="midnightblue" d="M614.68,-459.32C606.11,-451.34 593.19,-439.31 582.81,-429.65"/>
<polygon fill="midnightblue" stroke="midnightblue" points="585.19,-427.09 575.49,-422.83 580.42,-432.21 585.19,-427.09"/>
</g>
<!-- Node33&#45;&gt;Node6 -->
<g id="edge49" class="edge">
<title>Node33&#45;&gt;Node6</title>
<path fill="none" stroke="midnightblue" d="M688.54,-638.48C713.8,-632.16 741.02,-621.16 760,-602 784.93,-576.84 784,-561.42 784,-526 784,-526 784,-526 784,-238.5 784,-173.29 729.37,-110.79 700.87,-82.61"/>
<polygon fill="midnightblue" stroke="midnightblue" points="703.22,-80.02 693.59,-75.6 698.36,-85.06 703.22,-80.02"/>
</g>
<!-- Node33&#45;&gt;Node14 -->
<g id="edge50" class="edge">
<title>Node33&#45;&gt;Node14</title>
<path fill="none" stroke="midnightblue" d="M631.46,-638.48C640.14,-630.64 653.38,-618.71 664.86,-608.37"/>
<polygon fill="midnightblue" stroke="midnightblue" points="667.36,-610.82 672.45,-601.52 662.67,-605.62 667.36,-610.82"/>
</g>
<!-- Node33&#45;&gt;Node21 -->
<g id="edge51" class="edge">
<title>Node33&#45;&gt;Node21</title>
<path fill="none" stroke="midnightblue" d="M610.82,-638.48C600.36,-630.49 584.32,-618.25 570.57,-607.77"/>
<polygon fill="midnightblue" stroke="midnightblue" points="572.46,-604.81 562.38,-601.52 568.21,-610.37 572.46,-604.81"/>
</g>
<!-- Node33&#45;&gt;Node22 -->
<g id="edge52" class="edge">
<title>Node33&#45;&gt;Node22</title>
<path fill="none" stroke="midnightblue" d="M587.47,-638.48C551.09,-629.49 492.91,-615.13 447.56,-603.93"/>
<polygon fill="midnightblue" stroke="midnightblue" points="448.35,-600.52 437.8,-601.52 446.67,-607.32 448.35,-600.52"/>
</g>
</g>
</svg>
        <g id="navigator" transform="translate(0 0)" fill="#404254">
                <rect fill="#f2f5e9" fill-opacity="0.5" stroke="#606060" stroke-width=".5" x="0" y="0" width="60" height="60"/>
                <use id="zoomplus" xlink:href="#zoomPlus" x="17" y="9" onmousedown="handleZoom(evt,'in')"/>
                <use id="zoomminus" xlink:href="#zoomMin" x="42" y="9" onmousedown="handleZoom(evt,'out')"/>
                <use id="reset" xlink:href="#resetDef" x="30" y="36" onmousedown="handleReset()"/>
                <g id="arrowUp" xlink:href="#dirArrow" transform="translate(30 24)" onmousedown="handlePan(0,-1)">
                  <use xlink:href="#rim" fill="#404040">
                        <set attributeName="fill" to="#808080" begin="arrowUp.mouseover" end="arrowUp.mouseout"/>
                  </use>
                  <path fill="none" stroke="white" stroke-width="1.5" d="M0,-3.0v7 M-2.5,-0.5L0,-3.0L2.5,-0.5"/>
                </g>
                <g id="arrowRight" xlink:href="#dirArrow" transform="rotate(90) translate(36 -43)" onmousedown="handlePan(1,0)">
                  <use xlink:href="#rim" fill="#404040">
                        <set attributeName="fill" to="#808080" begin="arrowRight.mouseover" end="arrowRight.mouseout"/>
                  </use>
                  <path fill="none" stroke="white" stroke-width="1.5" d="M0,-3.0v7 M-2.5,-0.5L0,-3.0L2.5,-0.5"/>
                </g>
                <g id="arrowDown" xlink:href="#dirArrow" transform="rotate(180) translate(-30 -48)" onmousedown="handlePan(0,1)">
                  <use xlink:href="#rim" fill="#404040">
                        <set attributeName="fill" to="#808080" begin="arrowDown.mouseover" end="arrowDown.mouseout"/>
                  </use>
                  <path fill="none" stroke="white" stroke-width="1.5" d="M0,-3.0v7 M-2.5,-0.5L0,-3.0L2.5,-0.5"/>
                </g>
                <g id="arrowLeft" xlink:href="#dirArrow" transform="rotate(270) translate(-36 17)" onmousedown="handlePan(-1,0)">
                  <use xlink:href="#rim" fill="#404040">
                        <set attributeName="fill" to="#808080" begin="arrowLeft.mouseover" end="arrowLeft.mouseout"/>
                  </use>
                  <path fill="none" stroke="white" stroke-width="1.5" d="M0,-3.0v7 M-2.5,-0.5L0,-3.0L2.5,-0.5"/>
                </g>
        </g>
        <svg viewBox="0 0 15 15" width="100%" height="30px" preserveAspectRatio="xMaxYMin meet">
         <g id="arrow_out" transform="scale(0.3 0.3)">
          <a xlink:href="abstract__handler_8cpp__incl_org.svg" target="_base">
           <rect id="button" ry="5" rx="5" y="6" x="6" height="38" width="38"
                fill="#f2f5e9" fill-opacity="0.5" stroke="#606060" stroke-width="1.0"/>
           <path id="arrow"
             d="M 11.500037,31.436501 C 11.940474,20.09759 22.043105,11.32322 32.158766,21.979434 L 37.068811,17.246167 C 37.068811,17.246167 37.088388,32 37.088388,32 L 22.160133,31.978069 C 22.160133,31.978069 26.997745,27.140456 26.997745,27.140456 C 18.528582,18.264221 13.291696,25.230495 11.500037,31.436501 z"
             style="fill:#404040;"/>
          </a>
         </g>
        </svg>
</svg>
