<?xml version="1.0" encoding="UTF-8" standalone="no"?>
<!DOCTYPE svg PUBLIC "-//W3C//DTD SVG 1.1//EN"
 "http://www.w3.org/Graphics/SVG/1.1/DTD/svg11.dtd">
<!-- Generated by graphviz version 2.43.0 (0)
 -->
<!-- Title: /home/alexander/Documents/Seminars/TP/Project/src/server_side/database/accounts_database.hpp Pages: 1 -->
<!--zoomable 395 -->
<svg id="main" version="1.1" xmlns="http://www.w3.org/2000/svg" xmlns:xlink="http://www.w3.org/1999/xlink" xml:space="preserve" onload="init(evt)">
<style type="text/css"><![CDATA[
.edge:hover path { stroke: red; }
.edge:hover polygon { stroke: red; fill: red; }
]]></style>
<script type="text/javascript"><![CDATA[
var edges = document.getElementsByTagName('g');
if (edges && edges.length) {
  for (var i=0;i<edges.length;i++) {
    if (edges[i].id.substr(0,4)=='edge') {
      edges[i].setAttribute('class','edge');
    }
  }
}
]]></script>
        <defs>
                <circle id="rim" cx="0" cy="0" r="7"/>
                <circle id="rim2" cx="0" cy="0" r="3.5"/>
                <g id="zoomPlus">
                        <use xlink:href="#rim" fill="#404040">
                                <set attributeName="fill" to="#808080" begin="zoomplus.mouseover" end="zoomplus.mouseout"/>
                        </use>
                        <path d="M-4,0h8M0,-4v8" fill="none" stroke="white" stroke-width="1.5" pointer-events="none"/>
                </g>
                <g id="zoomMin">
                        <use xlink:href="#rim" fill="#404040">
                                <set attributeName="fill" to="#808080" begin="zoomminus.mouseover" end="zoomminus.mouseout"/>
                        </use>
                        <path d="M-4,0h8" fill="none" stroke="white" stroke-width="1.5" pointer-events="none"/>
                </g>
                <g id="dirArrow">
                        <path fill="none" stroke="white" stroke-width="1.5" d="M0,-3.0v7 M-2.5,-0.5L0,-3.0L2.5,-0.5"/>
                </g>
               <g id="resetDef">
                       <use xlink:href="#rim2" fill="#404040">
                               <set attributeName="fill" to="#808080" begin="reset.mouseover" end="reset.mouseout"/>
                       </use>
               </g>
        </defs>

<script type="text/javascript">
var viewWidth = 741;
var viewHeight = 395;
var sectionId = 'dynsection-1';
</script>
<script xlink:href="svgpan.js"/>
<svg id="graph" class="graph">
<g id="viewport">
<title>/home/alexander/Documents/Seminars/TP/Project/src/server_side/database/accounts_database.hpp</title>
<!-- Node1 -->
<g id="node1" class="node">
<title>Node1</title>
<g id="a_node1"><a xlink:title=" ">
<polygon fill="#bfbfbf" stroke="black" points="216.5,-334.5 216.5,-386.5 386.5,-386.5 386.5,-334.5 216.5,-334.5"/>
<text text-anchor="start" x="224.5" y="-374.5" font-family="Helvetica,sans-Serif" font-size="10.00">/home/alexander/Documents</text>
<text text-anchor="start" x="224.5" y="-363.5" font-family="Helvetica,sans-Serif" font-size="10.00">/Seminars/TP/Project/src</text>
<text text-anchor="start" x="224.5" y="-352.5" font-family="Helvetica,sans-Serif" font-size="10.00">/server_side/database/accounts</text>
<text text-anchor="middle" x="301.5" y="-341.5" font-family="Helvetica,sans-Serif" font-size="10.00">_database.hpp</text>
</a>
</g>
</g>
<!-- Node2 -->
<g id="node2" class="node">
<title>Node2</title>
<g id="a_node2"><a xlink:href="client__connection_8hpp.html" target="_top" xlink:title=" ">
<polygon fill="none" stroke="black" points="125,-78.5 125,-119.5 310,-119.5 310,-78.5 125,-78.5"/>
<text text-anchor="start" x="133" y="-107.5" font-family="Helvetica,sans-Serif" font-size="10.00">/home/alexander/Documents</text>
<text text-anchor="start" x="133" y="-96.5" font-family="Helvetica,sans-Serif" font-size="10.00">/Seminars/TP/Project/src</text>
<text text-anchor="middle" x="217.5" y="-85.5" font-family="Helvetica,sans-Serif" font-size="10.00">/server_side/client_connection.hpp</text>
</a>
</g>
</g>
<!-- Node1&#45;&gt;Node2 -->
<g id="edge1" class="edge">
<title>Node1&#45;&gt;Node2</title>
<path fill="none" stroke="midnightblue" d="M235.41,-328.58C224.2,-320.28 214.07,-310.15 207.5,-298 175.98,-239.72 197.52,-157.13 210.14,-119.75"/>
<polygon fill="midnightblue" stroke="midnightblue" points="233.51,-331.52 243.73,-334.31 237.48,-325.76 233.51,-331.52"/>
</g>
<!-- Node5 -->
<g id="node5" class="node">
<title>Node5</title>
<g id="a_node5"><a xlink:href="accounts__database_8cpp.html" target="_top" xlink:title=" ">
<polygon fill="none" stroke="black" points="216.5,-245.5 216.5,-297.5 386.5,-297.5 386.5,-245.5 216.5,-245.5"/>
<text text-anchor="start" x="224.5" y="-285.5" font-family="Helvetica,sans-Serif" font-size="10.00">/home/alexander/Documents</text>
<text text-anchor="start" x="224.5" y="-274.5" font-family="Helvetica,sans-Serif" font-size="10.00">/Seminars/TP/Project/src</text>
<text text-anchor="start" x="224.5" y="-263.5" font-family="Helvetica,sans-Serif" font-size="10.00">/server_side/database/accounts</text>
<text text-anchor="middle" x="301.5" y="-252.5" font-family="Helvetica,sans-Serif" font-size="10.00">_database.cpp</text>
</a>
</g>
</g>
<!-- Node1&#45;&gt;Node5 -->
<g id="edge4" class="edge">
<title>Node1&#45;&gt;Node5</title>
<path fill="none" stroke="midnightblue" d="M301.5,-324.19C301.5,-315.28 301.5,-305.9 301.5,-297.61"/>
<polygon fill="midnightblue" stroke="midnightblue" points="298,-324.34 301.5,-334.34 305,-324.34 298,-324.34"/>
</g>
<!-- Node6 -->
<g id="node6" class="node">
<title>Node6</title>
<g id="a_node6"><a xlink:href="simple__database_8hpp.html" target="_top" xlink:title=" ">
<polygon fill="none" stroke="black" points="404.5,-245.5 404.5,-297.5 564.5,-297.5 564.5,-245.5 404.5,-245.5"/>
<text text-anchor="start" x="412.5" y="-285.5" font-family="Helvetica,sans-Serif" font-size="10.00">/home/alexander/Documents</text>
<text text-anchor="start" x="412.5" y="-274.5" font-family="Helvetica,sans-Serif" font-size="10.00">/Seminars/TP/Project/src</text>
<text text-anchor="start" x="412.5" y="-263.5" font-family="Helvetica,sans-Serif" font-size="10.00">/server_side/database/simple</text>
<text text-anchor="middle" x="484.5" y="-252.5" font-family="Helvetica,sans-Serif" font-size="10.00">_database.hpp</text>
</a>
</g>
</g>
<!-- Node1&#45;&gt;Node6 -->
<g id="edge5" class="edge">
<title>Node1&#45;&gt;Node6</title>
<path fill="none" stroke="midnightblue" d="M363.73,-329.92C385.82,-319.41 410.46,-307.7 431.69,-297.61"/>
<polygon fill="midnightblue" stroke="midnightblue" points="361.96,-326.88 354.43,-334.34 364.97,-333.2 361.96,-326.88"/>
</g>
<!-- Node3 -->
<g id="node3" class="node">
<title>Node3</title>
<g id="a_node3"><a xlink:href="client__connection_8cpp.html" target="_top" xlink:title=" ">
<polygon fill="none" stroke="black" points="0,-0.5 0,-41.5 185,-41.5 185,-0.5 0,-0.5"/>
<text text-anchor="start" x="8" y="-29.5" font-family="Helvetica,sans-Serif" font-size="10.00">/home/alexander/Documents</text>
<text text-anchor="start" x="8" y="-18.5" font-family="Helvetica,sans-Serif" font-size="10.00">/Seminars/TP/Project/src</text>
<text text-anchor="middle" x="92.5" y="-7.5" font-family="Helvetica,sans-Serif" font-size="10.00">/server_side/client_connection.cpp</text>
</a>
</g>
</g>
<!-- Node2&#45;&gt;Node3 -->
<g id="edge2" class="edge">
<title>Node2&#45;&gt;Node3</title>
<path fill="none" stroke="midnightblue" d="M176.72,-73.2C159.8,-62.92 140.46,-51.16 124.58,-41.51"/>
<polygon fill="midnightblue" stroke="midnightblue" points="174.95,-76.22 185.31,-78.43 178.58,-70.24 174.95,-76.22"/>
</g>
<!-- Node4 -->
<g id="node4" class="node">
<title>Node4</title>
<g id="a_node4"><a xlink:href="server_8cpp.html" target="_top" xlink:title=" ">
<polygon fill="none" stroke="black" points="202.5,-0.5 202.5,-41.5 360.5,-41.5 360.5,-0.5 202.5,-0.5"/>
<text text-anchor="start" x="210.5" y="-29.5" font-family="Helvetica,sans-Serif" font-size="10.00">/home/alexander/Documents</text>
<text text-anchor="start" x="210.5" y="-18.5" font-family="Helvetica,sans-Serif" font-size="10.00">/Seminars/TP/Project/src</text>
<text text-anchor="middle" x="281.5" y="-7.5" font-family="Helvetica,sans-Serif" font-size="10.00">/server_side/server.cpp</text>
</a>
</g>
</g>
<!-- Node2&#45;&gt;Node4 -->
<g id="edge3" class="edge">
<title>Node2&#45;&gt;Node4</title>
<path fill="none" stroke="midnightblue" d="M240.55,-70.63C248.67,-60.99 257.62,-50.36 265.07,-41.51"/>
<polygon fill="midnightblue" stroke="midnightblue" points="237.75,-68.52 233.98,-78.43 243.1,-73.03 237.75,-68.52"/>
</g>
<!-- Node7 -->
<g id="node7" class="node">
<title>Node7</title>
<g id="a_node7"><a xlink:href="simple__database_8cpp.html" target="_top" xlink:title=" ">
<polygon fill="none" stroke="black" points="227.5,-156.5 227.5,-208.5 387.5,-208.5 387.5,-156.5 227.5,-156.5"/>
<text text-anchor="start" x="235.5" y="-196.5" font-family="Helvetica,sans-Serif" font-size="10.00">/home/alexander/Documents</text>
<text text-anchor="start" x="235.5" y="-185.5" font-family="Helvetica,sans-Serif" font-size="10.00">/Seminars/TP/Project/src</text>
<text text-anchor="start" x="235.5" y="-174.5" font-family="Helvetica,sans-Serif" font-size="10.00">/server_side/database/simple</text>
<text text-anchor="middle" x="307.5" y="-163.5" font-family="Helvetica,sans-Serif" font-size="10.00">_database.cpp</text>
</a>
</g>
</g>
<!-- Node6&#45;&gt;Node7 -->
<g id="edge6" class="edge">
<title>Node6&#45;&gt;Node7</title>
<path fill="none" stroke="midnightblue" d="M424.31,-240.92C402.95,-230.41 379.12,-218.7 358.58,-208.61"/>
<polygon fill="midnightblue" stroke="midnightblue" points="422.79,-244.07 433.3,-245.34 425.87,-237.78 422.79,-244.07"/>
</g>
<!-- Node8 -->
<g id="node8" class="node">
<title>Node8</title>
<g id="a_node8"><a xlink:href="server_8hpp.html" target="_top" xlink:title=" ">
<polygon fill="none" stroke="black" points="405.5,-162 405.5,-203 563.5,-203 563.5,-162 405.5,-162"/>
<text text-anchor="start" x="413.5" y="-191" font-family="Helvetica,sans-Serif" font-size="10.00">/home/alexander/Documents</text>
<text text-anchor="start" x="413.5" y="-180" font-family="Helvetica,sans-Serif" font-size="10.00">/Seminars/TP/Project/src</text>
<text text-anchor="middle" x="484.5" y="-169" font-family="Helvetica,sans-Serif" font-size="10.00">/server_side/server.hpp</text>
</a>
</g>
</g>
<!-- Node6&#45;&gt;Node8 -->
<g id="edge7" class="edge">
<title>Node6&#45;&gt;Node8</title>
<path fill="none" stroke="midnightblue" d="M484.5,-235.16C484.5,-224.21 484.5,-212.55 484.5,-203.08"/>
<polygon fill="midnightblue" stroke="midnightblue" points="481,-235.34 484.5,-245.34 488,-235.34 481,-235.34"/>
</g>
<!-- Node8&#45;&gt;Node2 -->
<g id="edge8" class="edge">
<title>Node8&#45;&gt;Node2</title>
<path fill="none" stroke="midnightblue" d="M410.97,-159.05C370.35,-146.66 320.37,-131.4 281.39,-119.5"/>
<polygon fill="midnightblue" stroke="midnightblue" points="409.96,-162.41 420.55,-161.98 412,-155.71 409.96,-162.41"/>
</g>
<!-- Node8&#45;&gt;Node4 -->
<g id="edge13" class="edge">
<title>Node8&#45;&gt;Node4</title>
<path fill="none" stroke="midnightblue" d="M441.01,-156.66C423.56,-146.07 403.58,-133.14 386.5,-120 354.28,-95.22 320.52,-62.26 300.25,-41.59"/>
<polygon fill="midnightblue" stroke="midnightblue" points="439.49,-159.83 449.87,-161.97 443.09,-153.82 439.49,-159.83"/>
</g>
<!-- Node9 -->
<g id="node9" class="node">
<title>Node9</title>
<g id="a_node9"><a xlink:href="server__side_2console__handler_8hpp.html" target="_top" xlink:title=" ">
<polygon fill="none" stroke="black" points="395,-78.5 395,-119.5 574,-119.5 574,-78.5 395,-78.5"/>
<text text-anchor="start" x="403" y="-107.5" font-family="Helvetica,sans-Serif" font-size="10.00">/home/alexander/Documents</text>
<text text-anchor="start" x="403" y="-96.5" font-family="Helvetica,sans-Serif" font-size="10.00">/Seminars/TP/Project/src</text>
<text text-anchor="middle" x="484.5" y="-85.5" font-family="Helvetica,sans-Serif" font-size="10.00">/server_side/console_handler.hpp</text>
</a>
</g>
</g>
<!-- Node8&#45;&gt;Node9 -->
<g id="edge9" class="edge">
<title>Node8&#45;&gt;Node9</title>
<path fill="none" stroke="midnightblue" d="M484.5,-151.56C484.5,-140.88 484.5,-129.13 484.5,-119.55"/>
<polygon fill="midnightblue" stroke="midnightblue" points="481,-151.77 484.5,-161.77 488,-151.77 481,-151.77"/>
</g>
<!-- Node11 -->
<g id="node11" class="node">
<title>Node11</title>
<g id="a_node11"><a xlink:href="server__side_2main_8cpp.html" target="_top" xlink:title=" ">
<polygon fill="none" stroke="black" points="574.5,-0.5 574.5,-41.5 732.5,-41.5 732.5,-0.5 574.5,-0.5"/>
<text text-anchor="start" x="582.5" y="-29.5" font-family="Helvetica,sans-Serif" font-size="10.00">/home/alexander/Documents</text>
<text text-anchor="start" x="582.5" y="-18.5" font-family="Helvetica,sans-Serif" font-size="10.00">/Seminars/TP/Project/src</text>
<text text-anchor="middle" x="653.5" y="-7.5" font-family="Helvetica,sans-Serif" font-size="10.00">/server_side/main.cpp</text>
</a>
</g>
</g>
<!-- Node8&#45;&gt;Node11 -->
<g id="edge12" class="edge">
<title>Node8&#45;&gt;Node11</title>
<path fill="none" stroke="midnightblue" d="M532.44,-156.89C549.6,-146.79 568.42,-134.14 583.5,-120 608.51,-96.55 630.21,-62.92 642.57,-41.79"/>
<polygon fill="midnightblue" stroke="midnightblue" points="530.57,-153.92 523.64,-161.93 534.05,-160 530.57,-153.92"/>
</g>
<!-- Node10 -->
<g id="node10" class="node">
<title>Node10</title>
<g id="a_node10"><a xlink:href="server__side_2console__handler_8cpp.html" target="_top" xlink:title=" ">
<polygon fill="none" stroke="black" points="378.5,-0.5 378.5,-41.5 556.5,-41.5 556.5,-0.5 378.5,-0.5"/>
<text text-anchor="start" x="386.5" y="-29.5" font-family="Helvetica,sans-Serif" font-size="10.00">/home/alexander/Documents</text>
<text text-anchor="start" x="386.5" y="-18.5" font-family="Helvetica,sans-Serif" font-size="10.00">/Seminars/TP/Project/src</text>
<text text-anchor="middle" x="467.5" y="-7.5" font-family="Helvetica,sans-Serif" font-size="10.00">/server_side/console_handler.cpp</text>
</a>
</g>
</g>
<!-- Node9&#45;&gt;Node10 -->
<g id="edge10" class="edge">
<title>Node9&#45;&gt;Node10</title>
<path fill="none" stroke="midnightblue" d="M477.92,-68.59C475.89,-59.51 473.71,-49.74 471.86,-41.51"/>
<polygon fill="midnightblue" stroke="midnightblue" points="474.52,-69.43 480.12,-78.43 481.35,-67.91 474.52,-69.43"/>
</g>
<!-- Node9&#45;&gt;Node11 -->
<g id="edge11" class="edge">
<title>Node9&#45;&gt;Node11</title>
<path fill="none" stroke="midnightblue" d="M537.45,-74.19C560.83,-63.67 587.97,-51.47 610.13,-41.51"/>
<polygon fill="midnightblue" stroke="midnightblue" points="535.71,-71.13 528.02,-78.43 538.58,-77.52 535.71,-71.13"/>
</g>
</g>
</svg>
        <g id="navigator" transform="translate(0 0)" fill="#404254">
                <rect fill="#f2f5e9" fill-opacity="0.5" stroke="#606060" stroke-width=".5" x="0" y="0" width="60" height="60"/>
                <use id="zoomplus" xlink:href="#zoomPlus" x="17" y="9" onmousedown="handleZoom(evt,'in')"/>
                <use id="zoomminus" xlink:href="#zoomMin" x="42" y="9" onmousedown="handleZoom(evt,'out')"/>
                <use id="reset" xlink:href="#resetDef" x="30" y="36" onmousedown="handleReset()"/>
                <g id="arrowUp" xlink:href="#dirArrow" transform="translate(30 24)" onmousedown="handlePan(0,-1)">
                  <use xlink:href="#rim" fill="#404040">
                        <set attributeName="fill" to="#808080" begin="arrowUp.mouseover" end="arrowUp.mouseout"/>
                  </use>
                  <path fill="none" stroke="white" stroke-width="1.5" d="M0,-3.0v7 M-2.5,-0.5L0,-3.0L2.5,-0.5"/>
                </g>
                <g id="arrowRight" xlink:href="#dirArrow" transform="rotate(90) translate(36 -43)" onmousedown="handlePan(1,0)">
                  <use xlink:href="#rim" fill="#404040">
                        <set attributeName="fill" to="#808080" begin="arrowRight.mouseover" end="arrowRight.mouseout"/>
                  </use>
                  <path fill="none" stroke="white" stroke-width="1.5" d="M0,-3.0v7 M-2.5,-0.5L0,-3.0L2.5,-0.5"/>
                </g>
                <g id="arrowDown" xlink:href="#dirArrow" transform="rotate(180) translate(-30 -48)" onmousedown="handlePan(0,1)">
                  <use xlink:href="#rim" fill="#404040">
                        <set attributeName="fill" to="#808080" begin="arrowDown.mouseover" end="arrowDown.mouseout"/>
                  </use>
                  <path fill="none" stroke="white" stroke-width="1.5" d="M0,-3.0v7 M-2.5,-0.5L0,-3.0L2.5,-0.5"/>
                </g>
                <g id="arrowLeft" xlink:href="#dirArrow" transform="rotate(270) translate(-36 17)" onmousedown="handlePan(-1,0)">
                  <use xlink:href="#rim" fill="#404040">
                        <set attributeName="fill" to="#808080" begin="arrowLeft.mouseover" end="arrowLeft.mouseout"/>
                  </use>
                  <path fill="none" stroke="white" stroke-width="1.5" d="M0,-3.0v7 M-2.5,-0.5L0,-3.0L2.5,-0.5"/>
                </g>
        </g>
        <svg viewBox="0 0 15 15" width="100%" height="30px" preserveAspectRatio="xMaxYMin meet">
         <g id="arrow_out" transform="scale(0.3 0.3)">
          <a xlink:href="accounts__database_8hpp__dep__incl_org.svg" target="_base">
           <rect id="button" ry="5" rx="5" y="6" x="6" height="38" width="38"
                fill="#f2f5e9" fill-opacity="0.5" stroke="#606060" stroke-width="1.0"/>
           <path id="arrow"
             d="M 11.500037,31.436501 C 11.940474,20.09759 22.043105,11.32322 32.158766,21.979434 L 37.068811,17.246167 C 37.068811,17.246167 37.088388,32 37.088388,32 L 22.160133,31.978069 C 22.160133,31.978069 26.997745,27.140456 26.997745,27.140456 C 18.528582,18.264221 13.291696,25.230495 11.500037,31.436501 z"
             style="fill:#404040;"/>
          </a>
         </g>
        </svg>
</svg>
