<?xml version="1.0" encoding="UTF-8" standalone="no"?>
<!DOCTYPE svg PUBLIC "-//W3C//DTD SVG 1.1//EN"
 "http://www.w3.org/Graphics/SVG/1.1/DTD/svg11.dtd">
<!-- Generated by graphviz version 2.43.0 (0)
 -->
<!-- Title: /home/alexander/Documents/Seminars/TP/Project/src/general/requests/authorization/authorization_request.cpp Pages: 1 -->
<!--zoomable 755 -->
<svg id="main" version="1.1" xmlns="http://www.w3.org/2000/svg" xmlns:xlink="http://www.w3.org/1999/xlink" xml:space="preserve" onload="init(evt)">
<style type="text/css"><![CDATA[
.edge:hover path { stroke: red; }
.edge:hover polygon { stroke: red; fill: red; }
]]></style>
<script type="text/javascript"><![CDATA[
var edges = document.getElementsByTagName('g');
if (edges && edges.length) {
  for (var i=0;i<edges.length;i++) {
    if (edges[i].id.substr(0,4)=='edge') {
      edges[i].setAttribute('class','edge');
    }
  }
}
]]></script>
        <defs>
                <circle id="rim" cx="0" cy="0" r="7"/>
                <circle id="rim2" cx="0" cy="0" r="3.5"/>
                <g id="zoomPlus">
                        <use xlink:href="#rim" fill="#404040">
                                <set attributeName="fill" to="#808080" begin="zoomplus.mouseover" end="zoomplus.mouseout"/>
                        </use>
                        <path d="M-4,0h8M0,-4v8" fill="none" stroke="white" stroke-width="1.5" pointer-events="none"/>
                </g>
                <g id="zoomMin">
                        <use xlink:href="#rim" fill="#404040">
                                <set attributeName="fill" to="#808080" begin="zoomminus.mouseover" end="zoomminus.mouseout"/>
                        </use>
                        <path d="M-4,0h8" fill="none" stroke="white" stroke-width="1.5" pointer-events="none"/>
                </g>
                <g id="dirArrow">
                        <path fill="none" stroke="white" stroke-width="1.5" d="M0,-3.0v7 M-2.5,-0.5L0,-3.0L2.5,-0.5"/>
                </g>
               <g id="resetDef">
                       <use xlink:href="#rim2" fill="#404040">
                               <set attributeName="fill" to="#808080" begin="reset.mouseover" end="reset.mouseout"/>
                       </use>
               </g>
        </defs>

<script type="text/javascript">
var viewWidth = 902;
var viewHeight = 755;
var sectionId = 'dynsection-0';
</script>
<script xlink:href="svgpan.js"/>
<svg id="graph" class="graph">
<g id="viewport">
<title>/home/alexander/Documents/Seminars/TP/Project/src/general/requests/authorization/authorization_request.cpp</title>
<!-- Node1 -->
<g id="node1" class="node">
<title>Node1</title>
<g id="a_node1"><a xlink:title=" ">
<polygon fill="#bfbfbf" stroke="black" points="650.5,-694.5 650.5,-746.5 819.5,-746.5 819.5,-694.5 650.5,-694.5"/>
<text text-anchor="start" x="658.5" y="-734.5" font-family="Helvetica,sans-Serif" font-size="10.00">/home/alexander/Documents</text>
<text text-anchor="start" x="658.5" y="-723.5" font-family="Helvetica,sans-Serif" font-size="10.00">/Seminars/TP/Project/src</text>
<text text-anchor="start" x="658.5" y="-712.5" font-family="Helvetica,sans-Serif" font-size="10.00">/general/requests/authorization</text>
<text text-anchor="middle" x="735" y="-701.5" font-family="Helvetica,sans-Serif" font-size="10.00">/authorization_request.cpp</text>
</a>
</g>
</g>
<!-- Node2 -->
<g id="node2" class="node">
<title>Node2</title>
<g id="a_node2"><a xlink:href="authorization__request_8hpp.html" target="_top" xlink:title=" ">
<polygon fill="none" stroke="black" points="690,-515.5 690,-534.5 834,-534.5 834,-515.5 690,-515.5"/>
<text text-anchor="middle" x="762" y="-522.5" font-family="Helvetica,sans-Serif" font-size="10.00">authorization_request.hpp</text>
</a>
</g>
</g>
<!-- Node1&#45;&gt;Node2 -->
<g id="edge1" class="edge">
<title>Node1&#45;&gt;Node2</title>
<path fill="none" stroke="midnightblue" d="M765.76,-694.21C789.49,-672.56 820.46,-639.08 834,-602 838.73,-589.06 840.68,-583.05 834,-571 825.91,-556.41 810.9,-545.92 796.66,-538.76"/>
<polygon fill="midnightblue" stroke="midnightblue" points="798.05,-535.55 787.5,-534.53 795.11,-541.9 798.05,-535.55"/>
</g>
<!-- Node19 -->
<g id="node19" class="node">
<title>Node19</title>
<g id="a_node19"><a xlink:href="request__creator_8hpp.html" target="_top" xlink:title=" ">
<polygon fill="none" stroke="black" points="603,-638.5 603,-657.5 761,-657.5 761,-638.5 603,-638.5"/>
<text text-anchor="middle" x="682" y="-645.5" font-family="Helvetica,sans-Serif" font-size="10.00">requests/request_creator.hpp</text>
</a>
</g>
</g>
<!-- Node1&#45;&gt;Node19 -->
<g id="edge26" class="edge">
<title>Node1&#45;&gt;Node19</title>
<path fill="none" stroke="midnightblue" d="M716.16,-694.45C709.01,-684.93 701.04,-674.33 694.6,-665.76"/>
<polygon fill="midnightblue" stroke="midnightblue" points="697.34,-663.59 688.54,-657.7 691.75,-667.79 697.34,-663.59"/>
</g>
<!-- Node3 -->
<g id="node3" class="node">
<title>Node3</title>
<g id="a_node3"><a xlink:href="request_8hpp.html" target="_top" xlink:title=" ">
<polygon fill="none" stroke="black" points="660.5,-291.5 660.5,-310.5 779.5,-310.5 779.5,-291.5 660.5,-291.5"/>
<text text-anchor="middle" x="720" y="-298.5" font-family="Helvetica,sans-Serif" font-size="10.00">requests/request.hpp</text>
</a>
</g>
</g>
<!-- Node2&#45;&gt;Node3 -->
<g id="edge2" class="edge">
<title>Node2&#45;&gt;Node3</title>
<path fill="none" stroke="midnightblue" d="M760.86,-515.46C758.18,-495.63 751.06,-444.97 743,-403 737.42,-373.94 729.51,-340.52 724.57,-320.34"/>
<polygon fill="midnightblue" stroke="midnightblue" points="727.96,-319.47 722.17,-310.6 721.17,-321.15 727.96,-319.47"/>
</g>
<!-- Node4 -->
<g id="node4" class="node">
<title>Node4</title>
<g id="a_node4"><a xlink:title=" ">
<polygon fill="none" stroke="#bfbfbf" points="649,-0.5 649,-19.5 707,-19.5 707,-0.5 649,-0.5"/>
<text text-anchor="middle" x="678" y="-7.5" font-family="Helvetica,sans-Serif" font-size="10.00">memory</text>
</a>
</g>
</g>
<!-- Node3&#45;&gt;Node4 -->
<g id="edge3" class="edge">
<title>Node3&#45;&gt;Node4</title>
<path fill="none" stroke="midnightblue" d="M779.61,-295.71C810.64,-290.48 847.01,-279.18 871,-255 895.77,-230.04 893,-214.16 893,-179 893,-179 893,-179 893,-121 893,-43.12 779.8,-20.34 717.68,-13.71"/>
<polygon fill="midnightblue" stroke="midnightblue" points="717.74,-10.2 707.44,-12.71 717.06,-17.17 717.74,-10.2"/>
</g>
<!-- Node5 -->
<g id="node5" class="node">
<title>Node5</title>
<g id="a_node5"><a xlink:title=" ">
<polygon fill="none" stroke="#bfbfbf" points="525,-56.5 525,-75.5 569,-75.5 569,-56.5 525,-56.5"/>
<text text-anchor="middle" x="547" y="-63.5" font-family="Helvetica,sans-Serif" font-size="10.00">string</text>
</a>
</g>
</g>
<!-- Node3&#45;&gt;Node5 -->
<g id="edge4" class="edge">
<title>Node3&#45;&gt;Node5</title>
<path fill="none" stroke="midnightblue" d="M660.26,-297.44C628.39,-292.79 591.26,-281.49 569,-255 527.81,-205.98 536.58,-122.67 543.11,-85.67"/>
<polygon fill="midnightblue" stroke="midnightblue" points="546.57,-86.24 545.01,-75.76 539.69,-84.92 546.57,-86.24"/>
</g>
<!-- Node6 -->
<g id="node6" class="node">
<title>Node6</title>
<g id="a_node6"><a xlink:href="client__handler_8hpp.html" target="_top" xlink:title=" ">
<polygon fill="none" stroke="black" points="730.5,-224.5 730.5,-254.5 861.5,-254.5 861.5,-224.5 730.5,-224.5"/>
<text text-anchor="start" x="738.5" y="-242.5" font-family="Helvetica,sans-Serif" font-size="10.00">request_handlers/client</text>
<text text-anchor="middle" x="796" y="-231.5" font-family="Helvetica,sans-Serif" font-size="10.00">_handler.hpp</text>
</a>
</g>
</g>
<!-- Node3&#45;&gt;Node6 -->
<g id="edge5" class="edge">
<title>Node3&#45;&gt;Node6</title>
<path fill="none" stroke="midnightblue" d="M730.89,-291.48C741.09,-283.49 756.72,-271.25 770.11,-260.77"/>
<polygon fill="midnightblue" stroke="midnightblue" points="772.37,-263.44 778.09,-254.52 768.06,-257.93 772.37,-263.44"/>
</g>
<!-- Node17 -->
<g id="node17" class="node">
<title>Node17</title>
<g id="a_node17"><a xlink:href="server__handler_8hpp.html" target="_top" xlink:title=" ">
<polygon fill="none" stroke="black" points="578,-224.5 578,-254.5 712,-254.5 712,-224.5 578,-224.5"/>
<text text-anchor="start" x="586" y="-242.5" font-family="Helvetica,sans-Serif" font-size="10.00">request_handlers/server</text>
<text text-anchor="middle" x="645" y="-231.5" font-family="Helvetica,sans-Serif" font-size="10.00">_handler.hpp</text>
</a>
</g>
</g>
<!-- Node3&#45;&gt;Node17 -->
<g id="edge23" class="edge">
<title>Node3&#45;&gt;Node17</title>
<path fill="none" stroke="midnightblue" d="M709.25,-291.48C699.19,-283.49 683.77,-271.25 670.55,-260.77"/>
<polygon fill="midnightblue" stroke="midnightblue" points="672.69,-258 662.68,-254.52 668.33,-263.48 672.69,-258"/>
</g>
<!-- Node7 -->
<g id="node7" class="node">
<title>Node7</title>
<g id="a_node7"><a xlink:href="abstract__handler_8hpp.html" target="_top" xlink:title=" ">
<polygon fill="none" stroke="black" points="682.5,-168.5 682.5,-187.5 801.5,-187.5 801.5,-168.5 682.5,-168.5"/>
<text text-anchor="middle" x="742" y="-175.5" font-family="Helvetica,sans-Serif" font-size="10.00">abstract_handler.hpp</text>
</a>
</g>
</g>
<!-- Node6&#45;&gt;Node7 -->
<g id="edge6" class="edge">
<title>Node6&#45;&gt;Node7</title>
<path fill="none" stroke="midnightblue" d="M783.2,-224.4C775.28,-215.66 765.06,-204.41 756.79,-195.3"/>
<polygon fill="midnightblue" stroke="midnightblue" points="759.17,-192.71 749.86,-187.66 753.99,-197.42 759.17,-192.71"/>
</g>
<!-- Node16 -->
<g id="node16" class="node">
<title>Node16</title>
<g id="a_node16"><a xlink:href="renderer_8hpp.html" target="_top" xlink:title=" ">
<polygon fill="none" stroke="black" points="787,-112.5 787,-131.5 865,-131.5 865,-112.5 787,-112.5"/>
<text text-anchor="middle" x="826" y="-119.5" font-family="Helvetica,sans-Serif" font-size="10.00">renderer.hpp</text>
</a>
</g>
</g>
<!-- Node6&#45;&gt;Node16 -->
<g id="edge21" class="edge">
<title>Node6&#45;&gt;Node16</title>
<path fill="none" stroke="midnightblue" d="M800.44,-224.42C803.56,-214.32 807.74,-200.38 811,-188 815.06,-172.58 819.1,-154.95 821.95,-141.94"/>
<polygon fill="midnightblue" stroke="midnightblue" points="825.44,-142.39 824.13,-131.87 818.6,-140.91 825.44,-142.39"/>
</g>
<!-- Node7&#45;&gt;Node4 -->
<g id="edge7" class="edge">
<title>Node7&#45;&gt;Node4</title>
<path fill="none" stroke="midnightblue" d="M744.31,-168.45C749.41,-147.75 759.69,-93.84 740,-56 732.89,-42.33 719.51,-31.81 707,-24.4"/>
<polygon fill="midnightblue" stroke="midnightblue" points="708.59,-21.28 698.14,-19.55 705.23,-27.42 708.59,-21.28"/>
</g>
<!-- Node8 -->
<g id="node8" class="node">
<title>Node8</title>
<g id="a_node8"><a xlink:href="account_8hpp.html" target="_top" xlink:title=" ">
<polygon fill="none" stroke="black" points="615,-112.5 615,-131.5 691,-131.5 691,-112.5 615,-112.5"/>
<text text-anchor="middle" x="653" y="-119.5" font-family="Helvetica,sans-Serif" font-size="10.00">account.hpp</text>
</a>
</g>
</g>
<!-- Node7&#45;&gt;Node8 -->
<g id="edge8" class="edge">
<title>Node7&#45;&gt;Node8</title>
<path fill="none" stroke="midnightblue" d="M727.7,-168.32C713.82,-159.9 692.51,-146.97 676.2,-137.07"/>
<polygon fill="midnightblue" stroke="midnightblue" points="677.63,-133.85 667.26,-131.65 674,-139.83 677.63,-133.85"/>
</g>
<!-- Node11 -->
<g id="node11" class="node">
<title>Node11</title>
<g id="a_node11"><a xlink:href="socket_8hpp.html" target="_top" xlink:title=" ">
<polygon fill="none" stroke="black" points="401,-112.5 401,-131.5 505,-131.5 505,-112.5 401,-112.5"/>
<text text-anchor="middle" x="453" y="-119.5" font-family="Helvetica,sans-Serif" font-size="10.00">socket/socket.hpp</text>
</a>
</g>
</g>
<!-- Node7&#45;&gt;Node11 -->
<g id="edge13" class="edge">
<title>Node7&#45;&gt;Node11</title>
<path fill="none" stroke="midnightblue" d="M696.21,-168.44C645.26,-158.92 562.97,-143.55 508.43,-133.36"/>
<polygon fill="midnightblue" stroke="midnightblue" points="509.05,-129.91 498.58,-131.52 507.77,-136.79 509.05,-129.91"/>
</g>
<!-- Node8&#45;&gt;Node4 -->
<g id="edge9" class="edge">
<title>Node8&#45;&gt;Node4</title>
<path fill="none" stroke="midnightblue" d="M641.86,-112.31C627.49,-99.97 605.5,-76.59 616,-56 623,-42.27 636.37,-31.75 648.9,-24.35"/>
<polygon fill="midnightblue" stroke="midnightblue" points="650.67,-27.37 657.78,-19.51 647.32,-21.22 650.67,-27.37"/>
</g>
<!-- Node8&#45;&gt;Node5 -->
<g id="edge12" class="edge">
<title>Node8&#45;&gt;Node5</title>
<path fill="none" stroke="midnightblue" d="M635.97,-112.32C618.97,-103.66 592.62,-90.24 573.01,-80.25"/>
<polygon fill="midnightblue" stroke="midnightblue" points="574.49,-77.08 563.99,-75.65 571.31,-83.31 574.49,-77.08"/>
</g>
<!-- Node9 -->
<g id="node9" class="node">
<title>Node9</title>
<g id="a_node9"><a xlink:title=" ">
<polygon fill="none" stroke="#bfbfbf" points="699,-56.5 699,-75.5 731,-75.5 731,-56.5 699,-56.5"/>
<text text-anchor="middle" x="715" y="-63.5" font-family="Helvetica,sans-Serif" font-size="10.00">set</text>
</a>
</g>
</g>
<!-- Node8&#45;&gt;Node9 -->
<g id="edge10" class="edge">
<title>Node8&#45;&gt;Node9</title>
<path fill="none" stroke="midnightblue" d="M662.96,-112.32C672.13,-104.34 685.94,-92.31 697.03,-82.65"/>
<polygon fill="midnightblue" stroke="midnightblue" points="699.62,-85.04 704.86,-75.83 695.02,-79.76 699.62,-85.04"/>
</g>
<!-- Node10 -->
<g id="node10" class="node">
<title>Node10</title>
<g id="a_node10"><a xlink:title=" ">
<polygon fill="none" stroke="#bfbfbf" points="625,-56.5 625,-75.5 681,-75.5 681,-56.5 625,-56.5"/>
<text text-anchor="middle" x="653" y="-63.5" font-family="Helvetica,sans-Serif" font-size="10.00">sstream</text>
</a>
</g>
</g>
<!-- Node8&#45;&gt;Node10 -->
<g id="edge11" class="edge">
<title>Node8&#45;&gt;Node10</title>
<path fill="none" stroke="midnightblue" d="M653,-112.08C653,-105.01 653,-94.86 653,-85.99"/>
<polygon fill="midnightblue" stroke="midnightblue" points="656.5,-85.75 653,-75.75 649.5,-85.75 656.5,-85.75"/>
</g>
<!-- Node11&#45;&gt;Node4 -->
<g id="edge16" class="edge">
<title>Node11&#45;&gt;Node4</title>
<path fill="none" stroke="midnightblue" d="M458.92,-112.43C469,-98.48 490.87,-70.93 516,-56 554.32,-33.24 604.57,-21.62 638.88,-15.95"/>
<polygon fill="midnightblue" stroke="midnightblue" points="639.64,-19.37 648.98,-14.37 638.56,-12.46 639.64,-19.37"/>
</g>
<!-- Node11&#45;&gt;Node5 -->
<g id="edge17" class="edge">
<title>Node11&#45;&gt;Node5</title>
<path fill="none" stroke="midnightblue" d="M468.1,-112.32C482.9,-103.82 505.69,-90.73 522.98,-80.8"/>
<polygon fill="midnightblue" stroke="midnightblue" points="525.01,-83.67 531.93,-75.65 521.52,-77.6 525.01,-83.67"/>
</g>
<!-- Node12 -->
<g id="node12" class="node">
<title>Node12</title>
<g id="a_node12"><a xlink:title=" ">
<polygon fill="none" stroke="#bfbfbf" points="226,-56.5 226,-75.5 314,-75.5 314,-56.5 226,-56.5"/>
<text text-anchor="middle" x="270" y="-63.5" font-family="Helvetica,sans-Serif" font-size="10.00">boost/asio.hpp</text>
</a>
</g>
</g>
<!-- Node11&#45;&gt;Node12 -->
<g id="edge14" class="edge">
<title>Node11&#45;&gt;Node12</title>
<path fill="none" stroke="midnightblue" d="M424,-112.44C392.82,-103.24 343.07,-88.56 308.59,-78.39"/>
<polygon fill="midnightblue" stroke="midnightblue" points="309.44,-74.99 298.86,-75.52 307.46,-81.7 309.44,-74.99"/>
</g>
<!-- Node13 -->
<g id="node13" class="node">
<title>Node13</title>
<g id="a_node13"><a xlink:title=" ">
<polygon fill="none" stroke="#bfbfbf" points="332.5,-56.5 332.5,-75.5 397.5,-75.5 397.5,-56.5 332.5,-56.5"/>
<text text-anchor="middle" x="365" y="-63.5" font-family="Helvetica,sans-Serif" font-size="10.00">functional</text>
</a>
</g>
</g>
<!-- Node11&#45;&gt;Node13 -->
<g id="edge15" class="edge">
<title>Node11&#45;&gt;Node13</title>
<path fill="none" stroke="midnightblue" d="M438.86,-112.32C425.13,-103.9 404.06,-90.97 387.94,-81.07"/>
<polygon fill="midnightblue" stroke="midnightblue" points="389.46,-77.9 379.1,-75.65 385.8,-83.87 389.46,-77.9"/>
</g>
<!-- Node14 -->
<g id="node14" class="node">
<title>Node14</title>
<g id="a_node14"><a xlink:href="general_2socket_2log_8hpp.html" target="_top" xlink:title=" ">
<polygon fill="none" stroke="black" points="415.5,-56.5 415.5,-75.5 468.5,-75.5 468.5,-56.5 415.5,-56.5"/>
<text text-anchor="middle" x="442" y="-63.5" font-family="Helvetica,sans-Serif" font-size="10.00">log.hpp</text>
</a>
</g>
</g>
<!-- Node11&#45;&gt;Node14 -->
<g id="edge18" class="edge">
<title>Node11&#45;&gt;Node14</title>
<path fill="none" stroke="midnightblue" d="M451.18,-112.08C449.73,-104.93 447.63,-94.64 445.81,-85.69"/>
<polygon fill="midnightblue" stroke="midnightblue" points="449.21,-84.85 443.78,-75.75 442.35,-86.25 449.21,-84.85"/>
</g>
<!-- Node14&#45;&gt;Node4 -->
<g id="edge19" class="edge">
<title>Node14&#45;&gt;Node4</title>
<path fill="none" stroke="midnightblue" d="M468.61,-58.91C510.25,-49.38 591.02,-30.9 639.16,-19.89"/>
<polygon fill="midnightblue" stroke="midnightblue" points="639.94,-23.3 648.91,-17.66 638.38,-16.48 639.94,-23.3"/>
</g>
<!-- Node15 -->
<g id="node15" class="node">
<title>Node15</title>
<g id="a_node15"><a xlink:title=" ">
<polygon fill="none" stroke="#bfbfbf" points="413.5,-0.5 413.5,-19.5 470.5,-19.5 470.5,-0.5 413.5,-0.5"/>
<text text-anchor="middle" x="442" y="-7.5" font-family="Helvetica,sans-Serif" font-size="10.00">ostream</text>
</a>
</g>
</g>
<!-- Node14&#45;&gt;Node15 -->
<g id="edge20" class="edge">
<title>Node14&#45;&gt;Node15</title>
<path fill="none" stroke="midnightblue" d="M442,-56.08C442,-49.01 442,-38.86 442,-29.99"/>
<polygon fill="midnightblue" stroke="midnightblue" points="445.5,-29.75 442,-19.75 438.5,-29.75 445.5,-29.75"/>
</g>
<!-- Node16&#45;&gt;Node4 -->
<g id="edge22" class="edge">
<title>Node16&#45;&gt;Node4</title>
<path fill="none" stroke="midnightblue" d="M820.79,-112.39C812.24,-98.87 794.09,-72.52 773,-56 755.02,-41.91 731.91,-30.84 712.98,-23.21"/>
<polygon fill="midnightblue" stroke="midnightblue" points="714.1,-19.89 703.52,-19.53 711.57,-26.41 714.1,-19.89"/>
</g>
<!-- Node17&#45;&gt;Node7 -->
<g id="edge25" class="edge">
<title>Node17&#45;&gt;Node7</title>
<path fill="none" stroke="midnightblue" d="M667.99,-224.4C683.39,-214.95 703.59,-202.56 719,-193.11"/>
<polygon fill="midnightblue" stroke="midnightblue" points="721.19,-195.87 727.89,-187.66 717.53,-189.9 721.19,-195.87"/>
</g>
<!-- Node18 -->
<g id="node18" class="node">
<title>Node18</title>
<g id="a_node18"><a xlink:title=" ">
<polygon fill="none" stroke="#bfbfbf" points="571.5,-168.5 571.5,-187.5 664.5,-187.5 664.5,-168.5 571.5,-168.5"/>
<text text-anchor="middle" x="618" y="-175.5" font-family="Helvetica,sans-Serif" font-size="10.00">unordered_map</text>
</a>
</g>
</g>
<!-- Node17&#45;&gt;Node18 -->
<g id="edge24" class="edge">
<title>Node17&#45;&gt;Node18</title>
<path fill="none" stroke="midnightblue" d="M638.6,-224.4C634.88,-216.2 630.15,-205.78 626.17,-196.99"/>
<polygon fill="midnightblue" stroke="midnightblue" points="629.25,-195.32 621.93,-187.66 622.87,-198.21 629.25,-195.32"/>
</g>
<!-- Node20 -->
<g id="node20" class="node">
<title>Node20</title>
<g id="a_node20"><a xlink:href="sign__in__request_8hpp.html" target="_top" xlink:title=" ">
<polygon fill="none" stroke="black" points="555,-571.5 555,-601.5 681,-601.5 681,-571.5 555,-571.5"/>
<text text-anchor="start" x="563" y="-589.5" font-family="Helvetica,sans-Serif" font-size="10.00">requests/authorization</text>
<text text-anchor="middle" x="618" y="-578.5" font-family="Helvetica,sans-Serif" font-size="10.00">/sign_in_request.hpp</text>
</a>
</g>
</g>
<!-- Node19&#45;&gt;Node20 -->
<g id="edge27" class="edge">
<title>Node19&#45;&gt;Node20</title>
<path fill="none" stroke="midnightblue" d="M672.83,-638.48C664.41,-630.64 651.58,-618.71 640.44,-608.37"/>
<polygon fill="midnightblue" stroke="midnightblue" points="642.79,-605.77 633.08,-601.52 638.02,-610.9 642.79,-605.77"/>
</g>
<!-- Node21 -->
<g id="node21" class="node">
<title>Node21</title>
<g id="a_node21"><a xlink:href="sign__up__request_8hpp.html" target="_top" xlink:title=" ">
<polygon fill="none" stroke="black" points="699,-571.5 699,-601.5 825,-601.5 825,-571.5 699,-571.5"/>
<text text-anchor="start" x="707" y="-589.5" font-family="Helvetica,sans-Serif" font-size="10.00">requests/authorization</text>
<text text-anchor="middle" x="762" y="-578.5" font-family="Helvetica,sans-Serif" font-size="10.00">/sign_up_request.hpp</text>
</a>
</g>
</g>
<!-- Node19&#45;&gt;Node21 -->
<g id="edge29" class="edge">
<title>Node19&#45;&gt;Node21</title>
<path fill="none" stroke="midnightblue" d="M693.46,-638.48C704.2,-630.49 720.65,-618.25 734.75,-607.77"/>
<polygon fill="midnightblue" stroke="midnightblue" points="737.21,-610.3 743.15,-601.52 733.03,-604.68 737.21,-610.3"/>
</g>
<!-- Node22 -->
<g id="node22" class="node">
<title>Node22</title>
<g id="a_node22"><a xlink:href="messages__builder_8hpp.html" target="_top" xlink:title=" ">
<polygon fill="none" stroke="black" points="373,-571.5 373,-601.5 537,-601.5 537,-571.5 373,-571.5"/>
<text text-anchor="start" x="381" y="-589.5" font-family="Helvetica,sans-Serif" font-size="10.00">requests/messages/messages</text>
<text text-anchor="middle" x="455" y="-578.5" font-family="Helvetica,sans-Serif" font-size="10.00">_builder.hpp</text>
</a>
</g>
</g>
<!-- Node19&#45;&gt;Node22 -->
<g id="edge31" class="edge">
<title>Node19&#45;&gt;Node22</title>
<path fill="none" stroke="midnightblue" d="M649.48,-638.48C615.36,-629.53 560.86,-615.25 518.23,-604.07"/>
<polygon fill="midnightblue" stroke="midnightblue" points="519.06,-600.67 508.5,-601.52 517.29,-607.44 519.06,-600.67"/>
</g>
<!-- Node20&#45;&gt;Node2 -->
<g id="edge28" class="edge">
<title>Node20&#45;&gt;Node2</title>
<path fill="none" stroke="midnightblue" d="M652.13,-571.4C676.29,-561.42 708.4,-548.15 731.67,-538.53"/>
<polygon fill="midnightblue" stroke="midnightblue" points="733.14,-541.71 741.05,-534.66 730.47,-535.24 733.14,-541.71"/>
</g>
<!-- Node21&#45;&gt;Node2 -->
<g id="edge30" class="edge">
<title>Node21&#45;&gt;Node2</title>
<path fill="none" stroke="midnightblue" d="M762,-571.4C762,-563.47 762,-553.46 762,-544.86"/>
<polygon fill="midnightblue" stroke="midnightblue" points="765.5,-544.66 762,-534.66 758.5,-544.66 765.5,-544.66"/>
</g>
<!-- Node23 -->
<g id="node23" class="node">
<title>Node23</title>
<g id="a_node23"><a xlink:href="all__messages_8hpp.html" target="_top" xlink:title=" ">
<polygon fill="none" stroke="black" points="403,-515.5 403,-534.5 507,-534.5 507,-515.5 403,-515.5"/>
<text text-anchor="middle" x="455" y="-522.5" font-family="Helvetica,sans-Serif" font-size="10.00">all_messages.hpp</text>
</a>
</g>
</g>
<!-- Node22&#45;&gt;Node23 -->
<g id="edge32" class="edge">
<title>Node22&#45;&gt;Node23</title>
<path fill="none" stroke="midnightblue" d="M455,-571.4C455,-563.47 455,-553.46 455,-544.86"/>
<polygon fill="midnightblue" stroke="midnightblue" points="458.5,-544.66 455,-534.66 451.5,-544.66 458.5,-544.66"/>
</g>
<!-- Node24 -->
<g id="node24" class="node">
<title>Node24</title>
<g id="a_node24"><a xlink:href="base__message_8hpp.html" target="_top" xlink:title=" ">
<polygon fill="none" stroke="black" points="624,-403.5 624,-422.5 734,-422.5 734,-403.5 624,-403.5"/>
<text text-anchor="middle" x="679" y="-410.5" font-family="Helvetica,sans-Serif" font-size="10.00">base_message.hpp</text>
</a>
</g>
</g>
<!-- Node23&#45;&gt;Node24 -->
<g id="edge33" class="edge">
<title>Node23&#45;&gt;Node24</title>
<path fill="none" stroke="midnightblue" d="M507.12,-518.49C560.03,-511.88 637.2,-499.09 659,-479 671.87,-467.14 676.54,-447.22 678.19,-432.56"/>
<polygon fill="midnightblue" stroke="midnightblue" points="681.68,-432.82 678.95,-422.58 674.7,-432.29 681.68,-432.82"/>
</g>
<!-- Node26 -->
<g id="node26" class="node">
<title>Node26</title>
<g id="a_node26"><a xlink:href="private__decorator_8hpp.html" target="_top" xlink:title=" ">
<polygon fill="none" stroke="black" points="398.5,-459.5 398.5,-478.5 521.5,-478.5 521.5,-459.5 398.5,-459.5"/>
<text text-anchor="middle" x="460" y="-466.5" font-family="Helvetica,sans-Serif" font-size="10.00">private_decorator.hpp</text>
</a>
</g>
</g>
<!-- Node23&#45;&gt;Node26 -->
<g id="edge36" class="edge">
<title>Node23&#45;&gt;Node26</title>
<path fill="none" stroke="midnightblue" d="M455.83,-515.08C456.48,-508.01 457.42,-497.86 458.24,-488.99"/>
<polygon fill="midnightblue" stroke="midnightblue" points="461.75,-489.03 459.19,-478.75 454.78,-488.39 461.75,-489.03"/>
</g>
<!-- Node28 -->
<g id="node28" class="node">
<title>Node28</title>
<g id="a_node28"><a xlink:href="room__decorator_8hpp.html" target="_top" xlink:title=" ">
<polygon fill="none" stroke="black" points="0,-459.5 0,-478.5 114,-478.5 114,-459.5 0,-459.5"/>
<text text-anchor="middle" x="57" y="-466.5" font-family="Helvetica,sans-Serif" font-size="10.00">room_decorator.hpp</text>
</a>
</g>
</g>
<!-- Node23&#45;&gt;Node28 -->
<g id="edge39" class="edge">
<title>Node23&#45;&gt;Node28</title>
<path fill="none" stroke="midnightblue" d="M402.96,-516.96C339.63,-508.39 229.17,-493.43 124.36,-479.18"/>
<polygon fill="midnightblue" stroke="midnightblue" points="124.62,-475.69 114.24,-477.81 123.67,-482.62 124.62,-475.69"/>
</g>
<!-- Node29 -->
<g id="node29" class="node">
<title>Node29</title>
<g id="a_node29"><a xlink:href="sender__decorator_8hpp.html" target="_top" xlink:title=" ">
<polygon fill="none" stroke="black" points="132,-459.5 132,-478.5 254,-478.5 254,-459.5 132,-459.5"/>
<text text-anchor="middle" x="193" y="-466.5" font-family="Helvetica,sans-Serif" font-size="10.00">sender_decorator.hpp</text>
</a>
</g>
</g>
<!-- Node23&#45;&gt;Node29 -->
<g id="edge41" class="edge">
<title>Node23&#45;&gt;Node29</title>
<path fill="none" stroke="midnightblue" d="M413.49,-515.44C367.59,-505.98 293.62,-490.74 244.17,-480.55"/>
<polygon fill="midnightblue" stroke="midnightblue" points="244.82,-477.11 234.32,-478.52 243.41,-483.96 244.82,-477.11"/>
</g>
<!-- Node30 -->
<g id="node30" class="node">
<title>Node30</title>
<g id="a_node30"><a xlink:href="text__decorator_8hpp.html" target="_top" xlink:title=" ">
<polygon fill="none" stroke="black" points="272,-459.5 272,-478.5 380,-478.5 380,-459.5 272,-459.5"/>
<text text-anchor="middle" x="326" y="-466.5" font-family="Helvetica,sans-Serif" font-size="10.00">text_decorator.hpp</text>
</a>
</g>
</g>
<!-- Node23&#45;&gt;Node30 -->
<g id="edge43" class="edge">
<title>Node23&#45;&gt;Node30</title>
<path fill="none" stroke="midnightblue" d="M434.56,-515.44C413.33,-506.56 379.9,-492.56 355.75,-482.45"/>
<polygon fill="midnightblue" stroke="midnightblue" points="356.92,-479.15 346.34,-478.52 354.22,-485.61 356.92,-479.15"/>
</g>
<!-- Node31 -->
<g id="node31" class="node">
<title>Node31</title>
<g id="a_node31"><a xlink:href="time__decorator_8hpp.html" target="_top" xlink:title=" ">
<polygon fill="none" stroke="black" points="539.5,-459.5 539.5,-478.5 650.5,-478.5 650.5,-459.5 539.5,-459.5"/>
<text text-anchor="middle" x="595" y="-466.5" font-family="Helvetica,sans-Serif" font-size="10.00">time_decorator.hpp</text>
</a>
</g>
</g>
<!-- Node23&#45;&gt;Node31 -->
<g id="edge45" class="edge">
<title>Node23&#45;&gt;Node31</title>
<path fill="none" stroke="midnightblue" d="M477.18,-515.44C500.43,-506.48 537.15,-492.31 563.42,-482.18"/>
<polygon fill="midnightblue" stroke="midnightblue" points="564.85,-485.38 572.92,-478.52 562.33,-478.85 564.85,-485.38"/>
</g>
<!-- Node25 -->
<g id="node25" class="node">
<title>Node25</title>
<g id="a_node25"><a xlink:href="message_8hpp.html" target="_top" xlink:title=" ">
<polygon fill="none" stroke="black" points="638,-347.5 638,-366.5 720,-366.5 720,-347.5 638,-347.5"/>
<text text-anchor="middle" x="679" y="-354.5" font-family="Helvetica,sans-Serif" font-size="10.00">message.hpp</text>
</a>
</g>
</g>
<!-- Node24&#45;&gt;Node25 -->
<g id="edge34" class="edge">
<title>Node24&#45;&gt;Node25</title>
<path fill="none" stroke="midnightblue" d="M679,-403.08C679,-396.01 679,-385.86 679,-376.99"/>
<polygon fill="midnightblue" stroke="midnightblue" points="682.5,-376.75 679,-366.75 675.5,-376.75 682.5,-376.75"/>
</g>
<!-- Node25&#45;&gt;Node3 -->
<g id="edge35" class="edge">
<title>Node25&#45;&gt;Node3</title>
<path fill="none" stroke="midnightblue" d="M685.77,-347.08C691.56,-339.46 700.06,-328.26 707.14,-318.94"/>
<polygon fill="midnightblue" stroke="midnightblue" points="710.1,-320.83 713.36,-310.75 704.52,-316.6 710.1,-320.83"/>
</g>
<!-- Node27 -->
<g id="node27" class="node">
<title>Node27</title>
<g id="a_node27"><a xlink:href="properties__decorator_8hpp.html" target="_top" xlink:title=" ">
<polygon fill="none" stroke="black" points="324,-403.5 324,-422.5 462,-422.5 462,-403.5 324,-403.5"/>
<text text-anchor="middle" x="393" y="-410.5" font-family="Helvetica,sans-Serif" font-size="10.00">properties_decorator.hpp</text>
</a>
</g>
</g>
<!-- Node26&#45;&gt;Node27 -->
<g id="edge37" class="edge">
<title>Node26&#45;&gt;Node27</title>
<path fill="none" stroke="midnightblue" d="M449.24,-459.32C439.23,-451.26 424.11,-439.08 412.07,-429.37"/>
<polygon fill="midnightblue" stroke="midnightblue" points="413.94,-426.38 403.96,-422.83 409.55,-431.83 413.94,-426.38"/>
</g>
<!-- Node27&#45;&gt;Node25 -->
<g id="edge38" class="edge">
<title>Node27&#45;&gt;Node25</title>
<path fill="none" stroke="midnightblue" d="M438.32,-403.44C489.81,-393.72 573.68,-377.89 627.58,-367.71"/>
<polygon fill="midnightblue" stroke="midnightblue" points="628.43,-371.11 637.61,-365.82 627.13,-364.23 628.43,-371.11"/>
</g>
<!-- Node28&#45;&gt;Node27 -->
<g id="edge40" class="edge">
<title>Node28&#45;&gt;Node27</title>
<path fill="none" stroke="midnightblue" d="M110.24,-459.44C169.96,-449.85 266.74,-434.29 330.13,-424.1"/>
<polygon fill="midnightblue" stroke="midnightblue" points="330.69,-427.56 340.01,-422.52 329.58,-420.65 330.69,-427.56"/>
</g>
<!-- Node29&#45;&gt;Node27 -->
<g id="edge42" class="edge">
<title>Node29&#45;&gt;Node27</title>
<path fill="none" stroke="midnightblue" d="M224.69,-459.44C259.07,-450.16 314.08,-435.31 351.79,-425.13"/>
<polygon fill="midnightblue" stroke="midnightblue" points="352.72,-428.5 361.46,-422.52 350.89,-421.74 352.72,-428.5"/>
</g>
<!-- Node30&#45;&gt;Node27 -->
<g id="edge44" class="edge">
<title>Node30&#45;&gt;Node27</title>
<path fill="none" stroke="midnightblue" d="M336.76,-459.32C346.77,-451.26 361.89,-439.08 373.93,-429.37"/>
<polygon fill="midnightblue" stroke="midnightblue" points="376.45,-431.83 382.04,-422.83 372.06,-426.38 376.45,-431.83"/>
</g>
<!-- Node31&#45;&gt;Node27 -->
<g id="edge46" class="edge">
<title>Node31&#45;&gt;Node27</title>
<path fill="none" stroke="midnightblue" d="M562.99,-459.44C528.27,-450.16 472.71,-435.31 434.62,-425.13"/>
<polygon fill="midnightblue" stroke="midnightblue" points="435.42,-421.72 424.86,-422.52 433.61,-428.48 435.42,-421.72"/>
</g>
<!-- Node32 -->
<g id="node32" class="node">
<title>Node32</title>
<g id="a_node32"><a xlink:title=" ">
<polygon fill="none" stroke="#bfbfbf" points="558,-403.5 558,-422.5 606,-422.5 606,-403.5 558,-403.5"/>
<text text-anchor="middle" x="582" y="-410.5" font-family="Helvetica,sans-Serif" font-size="10.00">time.h</text>
</a>
</g>
</g>
<!-- Node31&#45;&gt;Node32 -->
<g id="edge47" class="edge">
<title>Node31&#45;&gt;Node32</title>
<path fill="none" stroke="midnightblue" d="M592.85,-459.08C591.13,-451.93 588.65,-441.64 586.5,-432.69"/>
<polygon fill="midnightblue" stroke="midnightblue" points="589.85,-431.65 584.11,-422.75 583.04,-433.29 589.85,-431.65"/>
</g>
</g>
</svg>
        <g id="navigator" transform="translate(0 0)" fill="#404254">
                <rect fill="#f2f5e9" fill-opacity="0.5" stroke="#606060" stroke-width=".5" x="0" y="0" width="60" height="60"/>
                <use id="zoomplus" xlink:href="#zoomPlus" x="17" y="9" onmousedown="handleZoom(evt,'in')"/>
                <use id="zoomminus" xlink:href="#zoomMin" x="42" y="9" onmousedown="handleZoom(evt,'out')"/>
                <use id="reset" xlink:href="#resetDef" x="30" y="36" onmousedown="handleReset()"/>
                <g id="arrowUp" xlink:href="#dirArrow" transform="translate(30 24)" onmousedown="handlePan(0,-1)">
                  <use xlink:href="#rim" fill="#404040">
                        <set attributeName="fill" to="#808080" begin="arrowUp.mouseover" end="arrowUp.mouseout"/>
                  </use>
                  <path fill="none" stroke="white" stroke-width="1.5" d="M0,-3.0v7 M-2.5,-0.5L0,-3.0L2.5,-0.5"/>
                </g>
                <g id="arrowRight" xlink:href="#dirArrow" transform="rotate(90) translate(36 -43)" onmousedown="handlePan(1,0)">
                  <use xlink:href="#rim" fill="#404040">
                        <set attributeName="fill" to="#808080" begin="arrowRight.mouseover" end="arrowRight.mouseout"/>
                  </use>
                  <path fill="none" stroke="white" stroke-width="1.5" d="M0,-3.0v7 M-2.5,-0.5L0,-3.0L2.5,-0.5"/>
                </g>
                <g id="arrowDown" xlink:href="#dirArrow" transform="rotate(180) translate(-30 -48)" onmousedown="handlePan(0,1)">
                  <use xlink:href="#rim" fill="#404040">
                        <set attributeName="fill" to="#808080" begin="arrowDown.mouseover" end="arrowDown.mouseout"/>
                  </use>
                  <path fill="none" stroke="white" stroke-width="1.5" d="M0,-3.0v7 M-2.5,-0.5L0,-3.0L2.5,-0.5"/>
                </g>
                <g id="arrowLeft" xlink:href="#dirArrow" transform="rotate(270) translate(-36 17)" onmousedown="handlePan(-1,0)">
                  <use xlink:href="#rim" fill="#404040">
                        <set attributeName="fill" to="#808080" begin="arrowLeft.mouseover" end="arrowLeft.mouseout"/>
                  </use>
                  <path fill="none" stroke="white" stroke-width="1.5" d="M0,-3.0v7 M-2.5,-0.5L0,-3.0L2.5,-0.5"/>
                </g>
        </g>
        <svg viewBox="0 0 15 15" width="100%" height="30px" preserveAspectRatio="xMaxYMin meet">
         <g id="arrow_out" transform="scale(0.3 0.3)">
          <a xlink:href="authorization__request_8cpp__incl_org.svg" target="_base">
           <rect id="button" ry="5" rx="5" y="6" x="6" height="38" width="38"
                fill="#f2f5e9" fill-opacity="0.5" stroke="#606060" stroke-width="1.0"/>
           <path id="arrow"
             d="M 11.500037,31.436501 C 11.940474,20.09759 22.043105,11.32322 32.158766,21.979434 L 37.068811,17.246167 C 37.068811,17.246167 37.088388,32 37.088388,32 L 22.160133,31.978069 C 22.160133,31.978069 26.997745,27.140456 26.997745,27.140456 C 18.528582,18.264221 13.291696,25.230495 11.500037,31.436501 z"
             style="fill:#404040;"/>
          </a>
         </g>
        </svg>
</svg>
