<?xml version="1.0" encoding="UTF-8" standalone="no"?>
<!DOCTYPE svg PUBLIC "-//W3C//DTD SVG 1.1//EN"
 "http://www.w3.org/Graphics/SVG/1.1/DTD/svg11.dtd">
<!-- Generated by graphviz version 2.43.0 (0)
 -->
<!-- Title: /home/alexander/Documents/Seminars/TP/Project/src/general/requests/authorization/authorization_request.hpp Pages: 1 -->
<!--zoomable 562 -->
<svg id="main" version="1.1" xmlns="http://www.w3.org/2000/svg" xmlns:xlink="http://www.w3.org/1999/xlink" xml:space="preserve" onload="init(evt)">
<style type="text/css"><![CDATA[
.edge:hover path { stroke: red; }
.edge:hover polygon { stroke: red; fill: red; }
]]></style>
<script type="text/javascript"><![CDATA[
var edges = document.getElementsByTagName('g');
if (edges && edges.length) {
  for (var i=0;i<edges.length;i++) {
    if (edges[i].id.substr(0,4)=='edge') {
      edges[i].setAttribute('class','edge');
    }
  }
}
]]></script>
        <defs>
                <circle id="rim" cx="0" cy="0" r="7"/>
                <circle id="rim2" cx="0" cy="0" r="3.5"/>
                <g id="zoomPlus">
                        <use xlink:href="#rim" fill="#404040">
                                <set attributeName="fill" to="#808080" begin="zoomplus.mouseover" end="zoomplus.mouseout"/>
                        </use>
                        <path d="M-4,0h8M0,-4v8" fill="none" stroke="white" stroke-width="1.5" pointer-events="none"/>
                </g>
                <g id="zoomMin">
                        <use xlink:href="#rim" fill="#404040">
                                <set attributeName="fill" to="#808080" begin="zoomminus.mouseover" end="zoomminus.mouseout"/>
                        </use>
                        <path d="M-4,0h8" fill="none" stroke="white" stroke-width="1.5" pointer-events="none"/>
                </g>
                <g id="dirArrow">
                        <path fill="none" stroke="white" stroke-width="1.5" d="M0,-3.0v7 M-2.5,-0.5L0,-3.0L2.5,-0.5"/>
                </g>
               <g id="resetDef">
                       <use xlink:href="#rim2" fill="#404040">
                               <set attributeName="fill" to="#808080" begin="reset.mouseover" end="reset.mouseout"/>
                       </use>
               </g>
        </defs>

<script type="text/javascript">
var viewWidth = 1095;
var viewHeight = 562;
var sectionId = 'dynsection-1';
</script>
<script xlink:href="svgpan.js"/>
<svg id="graph" class="graph">
<g id="viewport">
<title>/home/alexander/Documents/Seminars/TP/Project/src/general/requests/authorization/authorization_request.hpp</title>
<!-- Node1 -->
<g id="node1" class="node">
<title>Node1</title>
<g id="a_node1"><a xlink:title=" ">
<polygon fill="#bfbfbf" stroke="black" points="458,-501.5 458,-553.5 627,-553.5 627,-501.5 458,-501.5"/>
<text text-anchor="start" x="466" y="-541.5" font-family="Helvetica,sans-Serif" font-size="10.00">/home/alexander/Documents</text>
<text text-anchor="start" x="466" y="-530.5" font-family="Helvetica,sans-Serif" font-size="10.00">/Seminars/TP/Project/src</text>
<text text-anchor="start" x="466" y="-519.5" font-family="Helvetica,sans-Serif" font-size="10.00">/general/requests/authorization</text>
<text text-anchor="middle" x="542.5" y="-508.5" font-family="Helvetica,sans-Serif" font-size="10.00">/authorization_request.hpp</text>
</a>
</g>
</g>
<!-- Node2 -->
<g id="node2" class="node">
<title>Node2</title>
<g id="a_node2"><a xlink:href="authorization__request_8cpp.html" target="_top" xlink:title=" ">
<polygon fill="none" stroke="black" points="0,-234.5 0,-286.5 169,-286.5 169,-234.5 0,-234.5"/>
<text text-anchor="start" x="8" y="-274.5" font-family="Helvetica,sans-Serif" font-size="10.00">/home/alexander/Documents</text>
<text text-anchor="start" x="8" y="-263.5" font-family="Helvetica,sans-Serif" font-size="10.00">/Seminars/TP/Project/src</text>
<text text-anchor="start" x="8" y="-252.5" font-family="Helvetica,sans-Serif" font-size="10.00">/general/requests/authorization</text>
<text text-anchor="middle" x="84.5" y="-241.5" font-family="Helvetica,sans-Serif" font-size="10.00">/authorization_request.cpp</text>
</a>
</g>
</g>
<!-- Node1&#45;&gt;Node2 -->
<g id="edge1" class="edge">
<title>Node1&#45;&gt;Node2</title>
<path fill="none" stroke="midnightblue" d="M487.72,-496.58C433.14,-466.59 347.09,-418.86 273.5,-376 221.95,-345.98 163.29,-310.18 125.18,-286.7"/>
<polygon fill="midnightblue" stroke="midnightblue" points="486.08,-499.67 496.53,-501.41 489.45,-493.53 486.08,-499.67"/>
</g>
<!-- Node3 -->
<g id="node3" class="node">
<title>Node3</title>
<g id="a_node3"><a xlink:href="sign__in__request_8hpp.html" target="_top" xlink:title=" ">
<polygon fill="none" stroke="black" points="458,-412.5 458,-464.5 627,-464.5 627,-412.5 458,-412.5"/>
<text text-anchor="start" x="466" y="-452.5" font-family="Helvetica,sans-Serif" font-size="10.00">/home/alexander/Documents</text>
<text text-anchor="start" x="466" y="-441.5" font-family="Helvetica,sans-Serif" font-size="10.00">/Seminars/TP/Project/src</text>
<text text-anchor="start" x="466" y="-430.5" font-family="Helvetica,sans-Serif" font-size="10.00">/general/requests/authorization</text>
<text text-anchor="middle" x="542.5" y="-419.5" font-family="Helvetica,sans-Serif" font-size="10.00">/sign_in_request.hpp</text>
</a>
</g>
</g>
<!-- Node1&#45;&gt;Node3 -->
<g id="edge2" class="edge">
<title>Node1&#45;&gt;Node3</title>
<path fill="none" stroke="midnightblue" d="M542.5,-491.19C542.5,-482.28 542.5,-472.9 542.5,-464.61"/>
<polygon fill="midnightblue" stroke="midnightblue" points="539,-491.34 542.5,-501.34 546,-491.34 539,-491.34"/>
</g>
<!-- Node20 -->
<g id="node20" class="node">
<title>Node20</title>
<g id="a_node20"><a xlink:href="sign__up__request_8hpp.html" target="_top" xlink:title=" ">
<polygon fill="none" stroke="black" points="645,-412.5 645,-464.5 814,-464.5 814,-412.5 645,-412.5"/>
<text text-anchor="start" x="653" y="-452.5" font-family="Helvetica,sans-Serif" font-size="10.00">/home/alexander/Documents</text>
<text text-anchor="start" x="653" y="-441.5" font-family="Helvetica,sans-Serif" font-size="10.00">/Seminars/TP/Project/src</text>
<text text-anchor="start" x="653" y="-430.5" font-family="Helvetica,sans-Serif" font-size="10.00">/general/requests/authorization</text>
<text text-anchor="middle" x="729.5" y="-419.5" font-family="Helvetica,sans-Serif" font-size="10.00">/sign_up_request.hpp</text>
</a>
</g>
</g>
<!-- Node1&#45;&gt;Node20 -->
<g id="edge25" class="edge">
<title>Node1&#45;&gt;Node20</title>
<path fill="none" stroke="midnightblue" d="M605.58,-497.15C628.35,-486.56 653.82,-474.71 675.72,-464.52"/>
<polygon fill="midnightblue" stroke="midnightblue" points="603.93,-494.06 596.34,-501.45 606.88,-500.41 603.93,-494.06"/>
</g>
<!-- Node4 -->
<g id="node4" class="node">
<title>Node4</title>
<g id="a_node4"><a xlink:href="sign__in__request_8cpp.html" target="_top" xlink:title=" ">
<polygon fill="none" stroke="black" points="283,-323.5 283,-375.5 452,-375.5 452,-323.5 283,-323.5"/>
<text text-anchor="start" x="291" y="-363.5" font-family="Helvetica,sans-Serif" font-size="10.00">/home/alexander/Documents</text>
<text text-anchor="start" x="291" y="-352.5" font-family="Helvetica,sans-Serif" font-size="10.00">/Seminars/TP/Project/src</text>
<text text-anchor="start" x="291" y="-341.5" font-family="Helvetica,sans-Serif" font-size="10.00">/general/requests/authorization</text>
<text text-anchor="middle" x="367.5" y="-330.5" font-family="Helvetica,sans-Serif" font-size="10.00">/sign_in_request.cpp</text>
</a>
</g>
</g>
<!-- Node3&#45;&gt;Node4 -->
<g id="edge3" class="edge">
<title>Node3&#45;&gt;Node4</title>
<path fill="none" stroke="midnightblue" d="M482.71,-407.78C461.66,-397.31 438.22,-385.66 418,-375.61"/>
<polygon fill="midnightblue" stroke="midnightblue" points="481.37,-411.02 491.88,-412.34 484.49,-404.75 481.37,-411.02"/>
</g>
<!-- Node5 -->
<g id="node5" class="node">
<title>Node5</title>
<g id="a_node5"><a xlink:href="request__creator_8hpp.html" target="_top" xlink:title=" ">
<polygon fill="none" stroke="black" points="469.5,-323.5 469.5,-375.5 627.5,-375.5 627.5,-323.5 469.5,-323.5"/>
<text text-anchor="start" x="477.5" y="-363.5" font-family="Helvetica,sans-Serif" font-size="10.00">/home/alexander/Documents</text>
<text text-anchor="start" x="477.5" y="-352.5" font-family="Helvetica,sans-Serif" font-size="10.00">/Seminars/TP/Project/src</text>
<text text-anchor="start" x="477.5" y="-341.5" font-family="Helvetica,sans-Serif" font-size="10.00">/general/requests/request</text>
<text text-anchor="middle" x="548.5" y="-330.5" font-family="Helvetica,sans-Serif" font-size="10.00">_creator.hpp</text>
</a>
</g>
</g>
<!-- Node3&#45;&gt;Node5 -->
<g id="edge4" class="edge">
<title>Node3&#45;&gt;Node5</title>
<path fill="none" stroke="midnightblue" d="M544.94,-402.19C545.55,-393.28 546.2,-383.9 546.77,-375.61"/>
<polygon fill="midnightblue" stroke="midnightblue" points="541.43,-402.12 544.24,-412.34 548.42,-402.6 541.43,-402.12"/>
</g>
<!-- Node18 -->
<g id="node18" class="node">
<title>Node18</title>
<g id="a_node18"><a xlink:href="request__parser_8hpp.html" target="_top" xlink:title=" ">
<polygon fill="none" stroke="black" points="650.5,-323.5 650.5,-375.5 808.5,-375.5 808.5,-323.5 650.5,-323.5"/>
<text text-anchor="start" x="658.5" y="-363.5" font-family="Helvetica,sans-Serif" font-size="10.00">/home/alexander/Documents</text>
<text text-anchor="start" x="658.5" y="-352.5" font-family="Helvetica,sans-Serif" font-size="10.00">/Seminars/TP/Project/src</text>
<text text-anchor="start" x="658.5" y="-341.5" font-family="Helvetica,sans-Serif" font-size="10.00">/general/requests/request</text>
<text text-anchor="middle" x="729.5" y="-330.5" font-family="Helvetica,sans-Serif" font-size="10.00">_parser.hpp</text>
</a>
</g>
</g>
<!-- Node3&#45;&gt;Node18 -->
<g id="edge22" class="edge">
<title>Node3&#45;&gt;Node18</title>
<path fill="none" stroke="midnightblue" d="M605.58,-408.15C628.35,-397.56 653.82,-385.71 675.72,-375.52"/>
<polygon fill="midnightblue" stroke="midnightblue" points="603.93,-405.06 596.34,-412.45 606.88,-411.41 603.93,-405.06"/>
</g>
<!-- Node5&#45;&gt;Node2 -->
<g id="edge7" class="edge">
<title>Node5&#45;&gt;Node2</title>
<path fill="none" stroke="midnightblue" d="M459.54,-322.95C334.53,-297.99 298.68,-311.2 177.5,-287 174.71,-286.44 171.88,-285.85 169.03,-285.22"/>
<polygon fill="midnightblue" stroke="midnightblue" points="458.99,-326.41 469.49,-324.98 460.39,-319.55 458.99,-326.41"/>
</g>
<!-- Node6 -->
<g id="node6" class="node">
<title>Node6</title>
<g id="a_node6"><a xlink:href="abstract__handler_8cpp.html" target="_top" xlink:title=" ">
<polygon fill="none" stroke="black" points="752.5,-234.5 752.5,-286.5 910.5,-286.5 910.5,-234.5 752.5,-234.5"/>
<text text-anchor="start" x="760.5" y="-274.5" font-family="Helvetica,sans-Serif" font-size="10.00">/home/alexander/Documents</text>
<text text-anchor="start" x="760.5" y="-263.5" font-family="Helvetica,sans-Serif" font-size="10.00">/Seminars/TP/Project/src</text>
<text text-anchor="start" x="760.5" y="-252.5" font-family="Helvetica,sans-Serif" font-size="10.00">/general/request_handlers</text>
<text text-anchor="middle" x="831.5" y="-241.5" font-family="Helvetica,sans-Serif" font-size="10.00">/abstract_handler.cpp</text>
</a>
</g>
</g>
<!-- Node5&#45;&gt;Node6 -->
<g id="edge5" class="edge">
<title>Node5&#45;&gt;Node6</title>
<path fill="none" stroke="midnightblue" d="M637.43,-321.16C674.25,-309.84 716.59,-296.83 752.31,-285.84"/>
<polygon fill="midnightblue" stroke="midnightblue" points="636.24,-317.87 627.71,-324.15 638.29,-324.56 636.24,-317.87"/>
</g>
<!-- Node7 -->
<g id="node7" class="node">
<title>Node7</title>
<g id="a_node7"><a xlink:href="client__handler_8cpp.html" target="_top" xlink:title=" ">
<polygon fill="none" stroke="black" points="576.5,-234.5 576.5,-286.5 734.5,-286.5 734.5,-234.5 576.5,-234.5"/>
<text text-anchor="start" x="584.5" y="-274.5" font-family="Helvetica,sans-Serif" font-size="10.00">/home/alexander/Documents</text>
<text text-anchor="start" x="584.5" y="-263.5" font-family="Helvetica,sans-Serif" font-size="10.00">/Seminars/TP/Project/src</text>
<text text-anchor="start" x="584.5" y="-252.5" font-family="Helvetica,sans-Serif" font-size="10.00">/general/request_handlers</text>
<text text-anchor="middle" x="655.5" y="-241.5" font-family="Helvetica,sans-Serif" font-size="10.00">/client_handler.cpp</text>
</a>
</g>
</g>
<!-- Node5&#45;&gt;Node7 -->
<g id="edge6" class="edge">
<title>Node5&#45;&gt;Node7</title>
<path fill="none" stroke="midnightblue" d="M587.32,-316.93C599.59,-306.96 612.98,-296.07 624.62,-286.61"/>
<polygon fill="midnightblue" stroke="midnightblue" points="585,-314.31 579.45,-323.34 589.42,-319.74 585,-314.31"/>
</g>
<!-- Node8 -->
<g id="node8" class="node">
<title>Node8</title>
<g id="a_node8"><a xlink:href="request__creator_8cpp.html" target="_top" xlink:title=" ">
<polygon fill="none" stroke="black" points="186.5,-234.5 186.5,-286.5 344.5,-286.5 344.5,-234.5 186.5,-234.5"/>
<text text-anchor="start" x="194.5" y="-274.5" font-family="Helvetica,sans-Serif" font-size="10.00">/home/alexander/Documents</text>
<text text-anchor="start" x="194.5" y="-263.5" font-family="Helvetica,sans-Serif" font-size="10.00">/Seminars/TP/Project/src</text>
<text text-anchor="start" x="194.5" y="-252.5" font-family="Helvetica,sans-Serif" font-size="10.00">/general/requests/request</text>
<text text-anchor="middle" x="265.5" y="-241.5" font-family="Helvetica,sans-Serif" font-size="10.00">_creator.cpp</text>
</a>
</g>
</g>
<!-- Node5&#45;&gt;Node8 -->
<g id="edge8" class="edge">
<title>Node5&#45;&gt;Node8</title>
<path fill="none" stroke="midnightblue" d="M459.57,-321.16C422.75,-309.84 380.41,-296.83 344.69,-285.84"/>
<polygon fill="midnightblue" stroke="midnightblue" points="458.71,-324.56 469.29,-324.15 460.76,-317.87 458.71,-324.56"/>
</g>
<!-- Node9 -->
<g id="node9" class="node">
<title>Node9</title>
<g id="a_node9"><a xlink:href="room_8hpp.html" target="_top" xlink:title=" ">
<polygon fill="none" stroke="black" points="362.5,-240 362.5,-281 520.5,-281 520.5,-240 362.5,-240"/>
<text text-anchor="start" x="370.5" y="-269" font-family="Helvetica,sans-Serif" font-size="10.00">/home/alexander/Documents</text>
<text text-anchor="start" x="370.5" y="-258" font-family="Helvetica,sans-Serif" font-size="10.00">/Seminars/TP/Project/src</text>
<text text-anchor="middle" x="441.5" y="-247" font-family="Helvetica,sans-Serif" font-size="10.00">/server_side/room.hpp</text>
</a>
</g>
</g>
<!-- Node5&#45;&gt;Node9 -->
<g id="edge9" class="edge">
<title>Node5&#45;&gt;Node9</title>
<path fill="none" stroke="midnightblue" d="M509.57,-316.85C494.86,-304.88 478.55,-291.62 465.58,-281.08"/>
<polygon fill="midnightblue" stroke="midnightblue" points="507.58,-319.74 517.55,-323.34 512,-314.31 507.58,-319.74"/>
</g>
<!-- Node14 -->
<g id="node14" class="node">
<title>Node14</title>
<g id="a_node14"><a xlink:href="server_8hpp.html" target="_top" xlink:title=" ">
<polygon fill="none" stroke="black" points="469.5,-156.5 469.5,-197.5 627.5,-197.5 627.5,-156.5 469.5,-156.5"/>
<text text-anchor="start" x="477.5" y="-185.5" font-family="Helvetica,sans-Serif" font-size="10.00">/home/alexander/Documents</text>
<text text-anchor="start" x="477.5" y="-174.5" font-family="Helvetica,sans-Serif" font-size="10.00">/Seminars/TP/Project/src</text>
<text text-anchor="middle" x="548.5" y="-163.5" font-family="Helvetica,sans-Serif" font-size="10.00">/server_side/server.hpp</text>
</a>
</g>
</g>
<!-- Node5&#45;&gt;Node14 -->
<g id="edge21" class="edge">
<title>Node5&#45;&gt;Node14</title>
<path fill="none" stroke="midnightblue" d="M548.5,-313.08C548.5,-278.09 548.5,-225.84 548.5,-197.68"/>
<polygon fill="midnightblue" stroke="midnightblue" points="545,-313.34 548.5,-323.34 552,-313.34 545,-313.34"/>
</g>
<!-- Node10 -->
<g id="node10" class="node">
<title>Node10</title>
<g id="a_node10"><a xlink:href="client__connection_8hpp.html" target="_top" xlink:title=" ">
<polygon fill="none" stroke="black" points="336,-78.5 336,-119.5 521,-119.5 521,-78.5 336,-78.5"/>
<text text-anchor="start" x="344" y="-107.5" font-family="Helvetica,sans-Serif" font-size="10.00">/home/alexander/Documents</text>
<text text-anchor="start" x="344" y="-96.5" font-family="Helvetica,sans-Serif" font-size="10.00">/Seminars/TP/Project/src</text>
<text text-anchor="middle" x="428.5" y="-85.5" font-family="Helvetica,sans-Serif" font-size="10.00">/server_side/client_connection.hpp</text>
</a>
</g>
</g>
<!-- Node9&#45;&gt;Node10 -->
<g id="edge10" class="edge">
<title>Node9&#45;&gt;Node10</title>
<path fill="none" stroke="midnightblue" d="M439.08,-229.8C436.46,-197.66 432.36,-147.31 430.11,-119.72"/>
<polygon fill="midnightblue" stroke="midnightblue" points="435.61,-230.26 439.91,-239.94 442.58,-229.69 435.61,-230.26"/>
</g>
<!-- Node13 -->
<g id="node13" class="node">
<title>Node13</title>
<g id="a_node13"><a xlink:href="room_8cpp.html" target="_top" xlink:title=" ">
<polygon fill="none" stroke="black" points="255.5,-156.5 255.5,-197.5 413.5,-197.5 413.5,-156.5 255.5,-156.5"/>
<text text-anchor="start" x="263.5" y="-185.5" font-family="Helvetica,sans-Serif" font-size="10.00">/home/alexander/Documents</text>
<text text-anchor="start" x="263.5" y="-174.5" font-family="Helvetica,sans-Serif" font-size="10.00">/Seminars/TP/Project/src</text>
<text text-anchor="middle" x="334.5" y="-163.5" font-family="Helvetica,sans-Serif" font-size="10.00">/server_side/room.cpp</text>
</a>
</g>
</g>
<!-- Node9&#45;&gt;Node13 -->
<g id="edge13" class="edge">
<title>Node9&#45;&gt;Node13</title>
<path fill="none" stroke="midnightblue" d="M407.65,-233.72C392.33,-222.05 374.51,-208.47 360.29,-197.64"/>
<polygon fill="midnightblue" stroke="midnightblue" points="405.79,-236.7 415.87,-239.98 410.04,-231.14 405.79,-236.7"/>
</g>
<!-- Node9&#45;&gt;Node14 -->
<g id="edge14" class="edge">
<title>Node9&#45;&gt;Node14</title>
<path fill="none" stroke="midnightblue" d="M475.35,-233.72C490.67,-222.05 508.49,-208.47 522.71,-197.64"/>
<polygon fill="midnightblue" stroke="midnightblue" points="472.96,-231.14 467.13,-239.98 477.21,-236.7 472.96,-231.14"/>
</g>
<!-- Node11 -->
<g id="node11" class="node">
<title>Node11</title>
<g id="a_node11"><a xlink:href="client__connection_8cpp.html" target="_top" xlink:title=" ">
<polygon fill="none" stroke="black" points="182,-0.5 182,-41.5 367,-41.5 367,-0.5 182,-0.5"/>
<text text-anchor="start" x="190" y="-29.5" font-family="Helvetica,sans-Serif" font-size="10.00">/home/alexander/Documents</text>
<text text-anchor="start" x="190" y="-18.5" font-family="Helvetica,sans-Serif" font-size="10.00">/Seminars/TP/Project/src</text>
<text text-anchor="middle" x="274.5" y="-7.5" font-family="Helvetica,sans-Serif" font-size="10.00">/server_side/client_connection.cpp</text>
</a>
</g>
</g>
<!-- Node10&#45;&gt;Node11 -->
<g id="edge11" class="edge">
<title>Node10&#45;&gt;Node11</title>
<path fill="none" stroke="midnightblue" d="M379.68,-73.91C358.51,-63.46 334.03,-51.38 314.02,-41.51"/>
<polygon fill="midnightblue" stroke="midnightblue" points="378.32,-77.14 388.84,-78.43 381.42,-70.86 378.32,-77.14"/>
</g>
<!-- Node12 -->
<g id="node12" class="node">
<title>Node12</title>
<g id="a_node12"><a xlink:href="server_8cpp.html" target="_top" xlink:title=" ">
<polygon fill="none" stroke="black" points="384.5,-0.5 384.5,-41.5 542.5,-41.5 542.5,-0.5 384.5,-0.5"/>
<text text-anchor="start" x="392.5" y="-29.5" font-family="Helvetica,sans-Serif" font-size="10.00">/home/alexander/Documents</text>
<text text-anchor="start" x="392.5" y="-18.5" font-family="Helvetica,sans-Serif" font-size="10.00">/Seminars/TP/Project/src</text>
<text text-anchor="middle" x="463.5" y="-7.5" font-family="Helvetica,sans-Serif" font-size="10.00">/server_side/server.cpp</text>
</a>
</g>
</g>
<!-- Node10&#45;&gt;Node12 -->
<g id="edge12" class="edge">
<title>Node10&#45;&gt;Node12</title>
<path fill="none" stroke="midnightblue" d="M441.77,-69.17C446.03,-59.93 450.64,-49.92 454.52,-41.51"/>
<polygon fill="midnightblue" stroke="midnightblue" points="438.52,-67.88 437.51,-78.43 444.88,-70.81 438.52,-67.88"/>
</g>
<!-- Node14&#45;&gt;Node10 -->
<g id="edge15" class="edge">
<title>Node14&#45;&gt;Node10</title>
<path fill="none" stroke="midnightblue" d="M508.9,-150.92C492.77,-140.7 474.4,-129.07 459.3,-119.51"/>
<polygon fill="midnightblue" stroke="midnightblue" points="507.28,-154.03 517.6,-156.43 511.02,-148.12 507.28,-154.03"/>
</g>
<!-- Node14&#45;&gt;Node12 -->
<g id="edge20" class="edge">
<title>Node14&#45;&gt;Node12</title>
<path fill="none" stroke="midnightblue" d="M547.84,-146.24C546.21,-125.82 541.65,-98.76 529.5,-78 521.08,-63.6 507.55,-51.16 494.93,-41.69"/>
<polygon fill="midnightblue" stroke="midnightblue" points="544.35,-146.48 548.45,-156.25 551.33,-146.06 544.35,-146.48"/>
</g>
<!-- Node15 -->
<g id="node15" class="node">
<title>Node15</title>
<g id="a_node15"><a xlink:href="server__side_2console__handler_8hpp.html" target="_top" xlink:title=" ">
<polygon fill="none" stroke="black" points="577,-78.5 577,-119.5 756,-119.5 756,-78.5 577,-78.5"/>
<text text-anchor="start" x="585" y="-107.5" font-family="Helvetica,sans-Serif" font-size="10.00">/home/alexander/Documents</text>
<text text-anchor="start" x="585" y="-96.5" font-family="Helvetica,sans-Serif" font-size="10.00">/Seminars/TP/Project/src</text>
<text text-anchor="middle" x="666.5" y="-85.5" font-family="Helvetica,sans-Serif" font-size="10.00">/server_side/console_handler.hpp</text>
</a>
</g>
</g>
<!-- Node14&#45;&gt;Node15 -->
<g id="edge16" class="edge">
<title>Node14&#45;&gt;Node15</title>
<path fill="none" stroke="midnightblue" d="M587.44,-150.92C603.3,-140.7 621.36,-129.07 636.22,-119.51"/>
<polygon fill="midnightblue" stroke="midnightblue" points="585.4,-148.07 578.89,-156.43 589.19,-153.96 585.4,-148.07"/>
</g>
<!-- Node17 -->
<g id="node17" class="node">
<title>Node17</title>
<g id="a_node17"><a xlink:href="server__side_2main_8cpp.html" target="_top" xlink:title=" ">
<polygon fill="none" stroke="black" points="756.5,-0.5 756.5,-41.5 914.5,-41.5 914.5,-0.5 756.5,-0.5"/>
<text text-anchor="start" x="764.5" y="-29.5" font-family="Helvetica,sans-Serif" font-size="10.00">/home/alexander/Documents</text>
<text text-anchor="start" x="764.5" y="-18.5" font-family="Helvetica,sans-Serif" font-size="10.00">/Seminars/TP/Project/src</text>
<text text-anchor="middle" x="835.5" y="-7.5" font-family="Helvetica,sans-Serif" font-size="10.00">/server_side/main.cpp</text>
</a>
</g>
</g>
<!-- Node14&#45;&gt;Node17 -->
<g id="edge19" class="edge">
<title>Node14&#45;&gt;Node17</title>
<path fill="none" stroke="midnightblue" d="M637.66,-166.92C679.03,-159.35 727.18,-145.47 764.5,-120 793.66,-100.11 815.12,-64.12 826.43,-41.73"/>
<polygon fill="midnightblue" stroke="midnightblue" points="636.84,-163.51 627.58,-168.67 638.03,-170.41 636.84,-163.51"/>
</g>
<!-- Node16 -->
<g id="node16" class="node">
<title>Node16</title>
<g id="a_node16"><a xlink:href="server__side_2console__handler_8cpp.html" target="_top" xlink:title=" ">
<polygon fill="none" stroke="black" points="560.5,-0.5 560.5,-41.5 738.5,-41.5 738.5,-0.5 560.5,-0.5"/>
<text text-anchor="start" x="568.5" y="-29.5" font-family="Helvetica,sans-Serif" font-size="10.00">/home/alexander/Documents</text>
<text text-anchor="start" x="568.5" y="-18.5" font-family="Helvetica,sans-Serif" font-size="10.00">/Seminars/TP/Project/src</text>
<text text-anchor="middle" x="649.5" y="-7.5" font-family="Helvetica,sans-Serif" font-size="10.00">/server_side/console_handler.cpp</text>
</a>
</g>
</g>
<!-- Node15&#45;&gt;Node16 -->
<g id="edge17" class="edge">
<title>Node15&#45;&gt;Node16</title>
<path fill="none" stroke="midnightblue" d="M659.92,-68.59C657.89,-59.51 655.71,-49.74 653.86,-41.51"/>
<polygon fill="midnightblue" stroke="midnightblue" points="656.52,-69.43 662.12,-78.43 663.35,-67.91 656.52,-69.43"/>
</g>
<!-- Node15&#45;&gt;Node17 -->
<g id="edge18" class="edge">
<title>Node15&#45;&gt;Node17</title>
<path fill="none" stroke="midnightblue" d="M719.45,-74.19C742.83,-63.67 769.97,-51.47 792.13,-41.51"/>
<polygon fill="midnightblue" stroke="midnightblue" points="717.71,-71.13 710.02,-78.43 720.58,-77.52 717.71,-71.13"/>
</g>
<!-- Node18&#45;&gt;Node6 -->
<g id="edge23" class="edge">
<title>Node18&#45;&gt;Node6</title>
<path fill="none" stroke="midnightblue" d="M766.84,-316.65C778.45,-306.75 791.08,-295.98 802.06,-286.61"/>
<polygon fill="midnightblue" stroke="midnightblue" points="764.34,-314.18 759,-323.34 768.88,-319.51 764.34,-314.18"/>
</g>
<!-- Node19 -->
<g id="node19" class="node">
<title>Node19</title>
<g id="a_node19"><a xlink:href="request__parser_8cpp.html" target="_top" xlink:title=" ">
<polygon fill="none" stroke="black" points="928.5,-234.5 928.5,-286.5 1086.5,-286.5 1086.5,-234.5 928.5,-234.5"/>
<text text-anchor="start" x="936.5" y="-274.5" font-family="Helvetica,sans-Serif" font-size="10.00">/home/alexander/Documents</text>
<text text-anchor="start" x="936.5" y="-263.5" font-family="Helvetica,sans-Serif" font-size="10.00">/Seminars/TP/Project/src</text>
<text text-anchor="start" x="936.5" y="-252.5" font-family="Helvetica,sans-Serif" font-size="10.00">/general/requests/request</text>
<text text-anchor="middle" x="1007.5" y="-241.5" font-family="Helvetica,sans-Serif" font-size="10.00">_parser.cpp</text>
</a>
</g>
</g>
<!-- Node18&#45;&gt;Node19 -->
<g id="edge24" class="edge">
<title>Node18&#45;&gt;Node19</title>
<path fill="none" stroke="midnightblue" d="M818.58,-320.62C853.78,-309.61 893.91,-297.05 928.1,-286.35"/>
<polygon fill="midnightblue" stroke="midnightblue" points="817.29,-317.36 808.79,-323.69 819.38,-324.04 817.29,-317.36"/>
</g>
<!-- Node20&#45;&gt;Node5 -->
<g id="edge27" class="edge">
<title>Node20&#45;&gt;Node5</title>
<path fill="none" stroke="midnightblue" d="M667.95,-407.92C646.1,-397.41 621.73,-385.7 600.74,-375.61"/>
<polygon fill="midnightblue" stroke="midnightblue" points="666.62,-411.16 677.15,-412.34 669.65,-404.85 666.62,-411.16"/>
</g>
<!-- Node20&#45;&gt;Node18 -->
<g id="edge28" class="edge">
<title>Node20&#45;&gt;Node18</title>
<path fill="none" stroke="midnightblue" d="M729.5,-402.19C729.5,-393.28 729.5,-383.9 729.5,-375.61"/>
<polygon fill="midnightblue" stroke="midnightblue" points="726,-402.34 729.5,-412.34 733,-402.34 726,-402.34"/>
</g>
<!-- Node21 -->
<g id="node21" class="node">
<title>Node21</title>
<g id="a_node21"><a xlink:href="sign__up__request_8cpp.html" target="_top" xlink:title=" ">
<polygon fill="none" stroke="black" points="826,-323.5 826,-375.5 995,-375.5 995,-323.5 826,-323.5"/>
<text text-anchor="start" x="834" y="-363.5" font-family="Helvetica,sans-Serif" font-size="10.00">/home/alexander/Documents</text>
<text text-anchor="start" x="834" y="-352.5" font-family="Helvetica,sans-Serif" font-size="10.00">/Seminars/TP/Project/src</text>
<text text-anchor="start" x="834" y="-341.5" font-family="Helvetica,sans-Serif" font-size="10.00">/general/requests/authorization</text>
<text text-anchor="middle" x="910.5" y="-330.5" font-family="Helvetica,sans-Serif" font-size="10.00">/sign_up_request.cpp</text>
</a>
</g>
</g>
<!-- Node20&#45;&gt;Node21 -->
<g id="edge26" class="edge">
<title>Node20&#45;&gt;Node21</title>
<path fill="none" stroke="midnightblue" d="M791.05,-407.92C812.9,-397.41 837.27,-385.7 858.26,-375.61"/>
<polygon fill="midnightblue" stroke="midnightblue" points="789.35,-404.85 781.85,-412.34 792.38,-411.16 789.35,-404.85"/>
</g>
</g>
</svg>
        <g id="navigator" transform="translate(0 0)" fill="#404254">
                <rect fill="#f2f5e9" fill-opacity="0.5" stroke="#606060" stroke-width=".5" x="0" y="0" width="60" height="60"/>
                <use id="zoomplus" xlink:href="#zoomPlus" x="17" y="9" onmousedown="handleZoom(evt,'in')"/>
                <use id="zoomminus" xlink:href="#zoomMin" x="42" y="9" onmousedown="handleZoom(evt,'out')"/>
                <use id="reset" xlink:href="#resetDef" x="30" y="36" onmousedown="handleReset()"/>
                <g id="arrowUp" xlink:href="#dirArrow" transform="translate(30 24)" onmousedown="handlePan(0,-1)">
                  <use xlink:href="#rim" fill="#404040">
                        <set attributeName="fill" to="#808080" begin="arrowUp.mouseover" end="arrowUp.mouseout"/>
                  </use>
                  <path fill="none" stroke="white" stroke-width="1.5" d="M0,-3.0v7 M-2.5,-0.5L0,-3.0L2.5,-0.5"/>
                </g>
                <g id="arrowRight" xlink:href="#dirArrow" transform="rotate(90) translate(36 -43)" onmousedown="handlePan(1,0)">
                  <use xlink:href="#rim" fill="#404040">
                        <set attributeName="fill" to="#808080" begin="arrowRight.mouseover" end="arrowRight.mouseout"/>
                  </use>
                  <path fill="none" stroke="white" stroke-width="1.5" d="M0,-3.0v7 M-2.5,-0.5L0,-3.0L2.5,-0.5"/>
                </g>
                <g id="arrowDown" xlink:href="#dirArrow" transform="rotate(180) translate(-30 -48)" onmousedown="handlePan(0,1)">
                  <use xlink:href="#rim" fill="#404040">
                        <set attributeName="fill" to="#808080" begin="arrowDown.mouseover" end="arrowDown.mouseout"/>
                  </use>
                  <path fill="none" stroke="white" stroke-width="1.5" d="M0,-3.0v7 M-2.5,-0.5L0,-3.0L2.5,-0.5"/>
                </g>
                <g id="arrowLeft" xlink:href="#dirArrow" transform="rotate(270) translate(-36 17)" onmousedown="handlePan(-1,0)">
                  <use xlink:href="#rim" fill="#404040">
                        <set attributeName="fill" to="#808080" begin="arrowLeft.mouseover" end="arrowLeft.mouseout"/>
                  </use>
                  <path fill="none" stroke="white" stroke-width="1.5" d="M0,-3.0v7 M-2.5,-0.5L0,-3.0L2.5,-0.5"/>
                </g>
        </g>
        <svg viewBox="0 0 15 15" width="100%" height="30px" preserveAspectRatio="xMaxYMin meet">
         <g id="arrow_out" transform="scale(0.3 0.3)">
          <a xlink:href="authorization__request_8hpp__dep__incl_org.svg" target="_base">
           <rect id="button" ry="5" rx="5" y="6" x="6" height="38" width="38"
                fill="#f2f5e9" fill-opacity="0.5" stroke="#606060" stroke-width="1.0"/>
           <path id="arrow"
             d="M 11.500037,31.436501 C 11.940474,20.09759 22.043105,11.32322 32.158766,21.979434 L 37.068811,17.246167 C 37.068811,17.246167 37.088388,32 37.088388,32 L 22.160133,31.978069 C 22.160133,31.978069 26.997745,27.140456 26.997745,27.140456 C 18.528582,18.264221 13.291696,25.230495 11.500037,31.436501 z"
             style="fill:#404040;"/>
          </a>
         </g>
        </svg>
</svg>
