<?xml version="1.0" encoding="UTF-8" standalone="no"?>
<!DOCTYPE svg PUBLIC "-//W3C//DTD SVG 1.1//EN"
 "http://www.w3.org/Graphics/SVG/1.1/DTD/svg11.dtd">
<!-- Generated by graphviz version 2.43.0 (0)
 -->
<!-- Title: ClientsideHandler Pages: 1 -->
<svg width="178pt" height="518pt"
 viewBox="0.00 0.00 178.00 518.00" xmlns="http://www.w3.org/2000/svg" xmlns:xlink="http://www.w3.org/1999/xlink">
<g id="graph0" class="graph" transform="scale(1 1) rotate(0) translate(4 514)">
<title>ClientsideHandler</title>
<!-- Node1 -->
<g id="node1" class="node">
<title>Node1</title>
<g id="a_node1"><a xlink:title=" ">
<polygon fill="#bfbfbf" stroke="black" points="19.5,-0.5 19.5,-200.5 150.5,-200.5 150.5,-0.5 19.5,-0.5"/>
<text text-anchor="middle" x="85" y="-188.5" font-family="Helvetica,sans-Serif" font-size="10.00">ClientsideHandler</text>
<polyline fill="none" stroke="black" points="19.5,-181.5 150.5,-181.5 "/>
<text text-anchor="start" x="27.5" y="-169.5" font-family="Helvetica,sans-Serif" font-size="10.00"># renderer</text>
<polyline fill="none" stroke="black" points="19.5,-162.5 150.5,-162.5 "/>
<text text-anchor="start" x="27.5" y="-150.5" font-family="Helvetica,sans-Serif" font-size="10.00">+ ClientsideHandler()</text>
<text text-anchor="start" x="27.5" y="-139.5" font-family="Helvetica,sans-Serif" font-size="10.00">+ ~ClientsideHandler()</text>
<text text-anchor="start" x="27.5" y="-128.5" font-family="Helvetica,sans-Serif" font-size="10.00">+ receive()</text>
<text text-anchor="start" x="27.5" y="-117.5" font-family="Helvetica,sans-Serif" font-size="10.00">+ signIn()</text>
<text text-anchor="start" x="27.5" y="-106.5" font-family="Helvetica,sans-Serif" font-size="10.00">+ signUp()</text>
<text text-anchor="start" x="27.5" y="-95.5" font-family="Helvetica,sans-Serif" font-size="10.00">+ join()</text>
<text text-anchor="start" x="27.5" y="-84.5" font-family="Helvetica,sans-Serif" font-size="10.00">+ leave()</text>
<text text-anchor="start" x="27.5" y="-73.5" font-family="Helvetica,sans-Serif" font-size="10.00">+ requestUserList()</text>
<text text-anchor="start" x="27.5" y="-62.5" font-family="Helvetica,sans-Serif" font-size="10.00">+ requestHistory()</text>
<text text-anchor="start" x="27.5" y="-51.5" font-family="Helvetica,sans-Serif" font-size="10.00">+ manage()</text>
<text text-anchor="start" x="27.5" y="-40.5" font-family="Helvetica,sans-Serif" font-size="10.00">+ getUsers()</text>
<text text-anchor="start" x="27.5" y="-29.5" font-family="Helvetica,sans-Serif" font-size="10.00">+ getRenderer()</text>
<text text-anchor="start" x="27.5" y="-18.5" font-family="Helvetica,sans-Serif" font-size="10.00">+ send()</text>
<text text-anchor="start" x="27.5" y="-7.5" font-family="Helvetica,sans-Serif" font-size="10.00">+ sendPrivate()</text>
</a>
</g>
</g>
<!-- Node2 -->
<g id="node2" class="node">
<title>Node2</title>
<g id="a_node2"><a xlink:href="class_abstract_handler.html" target="_top" xlink:title=" ">
<polygon fill="none" stroke="black" points="24,-237.5 24,-404.5 146,-404.5 146,-237.5 24,-237.5"/>
<text text-anchor="middle" x="85" y="-392.5" font-family="Helvetica,sans-Serif" font-size="10.00">AbstractHandler</text>
<polyline fill="none" stroke="black" points="24,-385.5 146,-385.5 "/>
<text text-anchor="middle" x="85" y="-373.5" font-family="Helvetica,sans-Serif" font-size="10.00"> </text>
<polyline fill="none" stroke="black" points="24,-366.5 146,-366.5 "/>
<text text-anchor="start" x="32" y="-354.5" font-family="Helvetica,sans-Serif" font-size="10.00">+ AbstractHandler()</text>
<text text-anchor="start" x="32" y="-343.5" font-family="Helvetica,sans-Serif" font-size="10.00">+ ~AbstractHandler()</text>
<text text-anchor="start" x="32" y="-332.5" font-family="Helvetica,sans-Serif" font-size="10.00">+ getCreator()</text>
<text text-anchor="start" x="32" y="-321.5" font-family="Helvetica,sans-Serif" font-size="10.00">+ getAccount()</text>
<text text-anchor="start" x="32" y="-310.5" font-family="Helvetica,sans-Serif" font-size="10.00">+ setAccount()</text>
<text text-anchor="start" x="32" y="-299.5" font-family="Helvetica,sans-Serif" font-size="10.00">+ sendRaw()</text>
<text text-anchor="start" x="32" y="-288.5" font-family="Helvetica,sans-Serif" font-size="10.00">+ sendRequest()</text>
<text text-anchor="start" x="32" y="-277.5" font-family="Helvetica,sans-Serif" font-size="10.00">+ startReceiving()</text>
<text text-anchor="start" x="32" y="-266.5" font-family="Helvetica,sans-Serif" font-size="10.00">+ exit()</text>
<text text-anchor="start" x="32" y="-255.5" font-family="Helvetica,sans-Serif" font-size="10.00">+ receive()</text>
<text text-anchor="start" x="32" y="-244.5" font-family="Helvetica,sans-Serif" font-size="10.00">+ destroy()</text>
</a>
</g>
</g>
<!-- Node2&#45;&gt;Node1 -->
<g id="edge1" class="edge">
<title>Node2&#45;&gt;Node1</title>
<path fill="none" stroke="midnightblue" d="M85,-227.21C85,-218.46 85,-209.57 85,-200.76"/>
<polygon fill="none" stroke="midnightblue" points="81.5,-227.39 85,-237.39 88.5,-227.39 81.5,-227.39"/>
</g>
<!-- Node3 -->
<g id="node3" class="node">
<title>Node3</title>
<g id="a_node3"><a xlink:title=" ">
<polygon fill="none" stroke="black" points="0,-441.5 0,-509.5 170,-509.5 170,-441.5 0,-441.5"/>
<text text-anchor="start" x="8" y="-497.5" font-family="Helvetica,sans-Serif" font-size="10.00">std::enable_shared</text>
<text text-anchor="middle" x="85" y="-486.5" font-family="Helvetica,sans-Serif" font-size="10.00">_from_this&lt; AbstractHandler &gt;</text>
<polyline fill="none" stroke="black" points="0,-479.5 170,-479.5 "/>
<text text-anchor="middle" x="85" y="-467.5" font-family="Helvetica,sans-Serif" font-size="10.00"> </text>
<polyline fill="none" stroke="black" points="0,-460.5 170,-460.5 "/>
<text text-anchor="middle" x="85" y="-448.5" font-family="Helvetica,sans-Serif" font-size="10.00"> </text>
</a>
</g>
</g>
<!-- Node3&#45;&gt;Node2 -->
<g id="edge2" class="edge">
<title>Node3&#45;&gt;Node2</title>
<path fill="none" stroke="midnightblue" d="M85,-431.23C85,-422.88 85,-413.89 85,-404.76"/>
<polygon fill="none" stroke="midnightblue" points="81.5,-431.41 85,-441.41 88.5,-431.41 81.5,-431.41"/>
</g>
</g>
</svg>
