<?xml version="1.0" encoding="UTF-8" standalone="no"?>
<!DOCTYPE svg PUBLIC "-//W3C//DTD SVG 1.1//EN"
 "http://www.w3.org/Graphics/SVG/1.1/DTD/svg11.dtd">
<!-- Generated by graphviz version 2.43.0 (0)
 -->
<!-- Title: BaseMessage Pages: 1 -->
<svg width="139pt" height="469pt"
 viewBox="0.00 0.00 139.00 469.00" xmlns="http://www.w3.org/2000/svg" xmlns:xlink="http://www.w3.org/1999/xlink">
<g id="graph0" class="graph" transform="scale(1 1) rotate(0) translate(4 465)">
<title>BaseMessage</title>
<!-- Node1 -->
<g id="node1" class="node">
<title>Node1</title>
<g id="a_node1"><a xlink:title=" ">
<polygon fill="#bfbfbf" stroke="black" points="10,-0.5 10,-123.5 121,-123.5 121,-0.5 10,-0.5"/>
<text text-anchor="middle" x="65.5" y="-111.5" font-family="Helvetica,sans-Serif" font-size="10.00">BaseMessage</text>
<polyline fill="none" stroke="black" points="10,-104.5 121,-104.5 "/>
<text text-anchor="middle" x="65.5" y="-92.5" font-family="Helvetica,sans-Serif" font-size="10.00"> </text>
<polyline fill="none" stroke="black" points="10,-85.5 121,-85.5 "/>
<text text-anchor="start" x="18" y="-73.5" font-family="Helvetica,sans-Serif" font-size="10.00">+ BaseMessage()</text>
<text text-anchor="start" x="18" y="-62.5" font-family="Helvetica,sans-Serif" font-size="10.00">+ ~BaseMessage()</text>
<text text-anchor="start" x="18" y="-51.5" font-family="Helvetica,sans-Serif" font-size="10.00">+ getRoom()</text>
<text text-anchor="start" x="18" y="-40.5" font-family="Helvetica,sans-Serif" font-size="10.00">+ getType()</text>
<text text-anchor="start" x="18" y="-29.5" font-family="Helvetica,sans-Serif" font-size="10.00">+ getQuery()</text>
<text text-anchor="start" x="18" y="-18.5" font-family="Helvetica,sans-Serif" font-size="10.00">+ handle()</text>
<text text-anchor="start" x="18" y="-7.5" font-family="Helvetica,sans-Serif" font-size="10.00">+ handle()</text>
</a>
</g>
</g>
<!-- Node2 -->
<g id="node2" class="node">
<title>Node2</title>
<g id="a_node2"><a xlink:href="class_message.html" target="_top" xlink:title=" ">
<polygon fill="none" stroke="black" points="22,-160.5 22,-239.5 109,-239.5 109,-160.5 22,-160.5"/>
<text text-anchor="middle" x="65.5" y="-227.5" font-family="Helvetica,sans-Serif" font-size="10.00">Message</text>
<polyline fill="none" stroke="black" points="22,-220.5 109,-220.5 "/>
<text text-anchor="middle" x="65.5" y="-208.5" font-family="Helvetica,sans-Serif" font-size="10.00"> </text>
<polyline fill="none" stroke="black" points="22,-201.5 109,-201.5 "/>
<text text-anchor="start" x="30" y="-189.5" font-family="Helvetica,sans-Serif" font-size="10.00">+ ~Message()</text>
<text text-anchor="start" x="30" y="-178.5" font-family="Helvetica,sans-Serif" font-size="10.00">+ getRoom()</text>
<text text-anchor="start" x="30" y="-167.5" font-family="Helvetica,sans-Serif" font-size="10.00">+ getType()</text>
</a>
</g>
</g>
<!-- Node2&#45;&gt;Node1 -->
<g id="edge1" class="edge">
<title>Node2&#45;&gt;Node1</title>
<path fill="none" stroke="midnightblue" d="M65.5,-150.14C65.5,-141.53 65.5,-132.47 65.5,-123.57"/>
<polygon fill="none" stroke="midnightblue" points="62,-150.39 65.5,-160.39 69,-150.39 62,-150.39"/>
</g>
<!-- Node3 -->
<g id="node3" class="node">
<title>Node3</title>
<g id="a_node3"><a xlink:href="class_request.html" target="_top" xlink:title=" ">
<polygon fill="none" stroke="black" points="25.5,-276.5 25.5,-355.5 105.5,-355.5 105.5,-276.5 25.5,-276.5"/>
<text text-anchor="middle" x="65.5" y="-343.5" font-family="Helvetica,sans-Serif" font-size="10.00">Request</text>
<polyline fill="none" stroke="black" points="25.5,-336.5 105.5,-336.5 "/>
<text text-anchor="start" x="33.5" y="-324.5" font-family="Helvetica,sans-Serif" font-size="10.00">+ separator</text>
<polyline fill="none" stroke="black" points="25.5,-317.5 105.5,-317.5 "/>
<text text-anchor="start" x="33.5" y="-305.5" font-family="Helvetica,sans-Serif" font-size="10.00">+ getQuery()</text>
<text text-anchor="start" x="33.5" y="-294.5" font-family="Helvetica,sans-Serif" font-size="10.00">+ handle()</text>
<text text-anchor="start" x="33.5" y="-283.5" font-family="Helvetica,sans-Serif" font-size="10.00">+ handle()</text>
</a>
</g>
</g>
<!-- Node3&#45;&gt;Node2 -->
<g id="edge2" class="edge">
<title>Node3&#45;&gt;Node2</title>
<path fill="none" stroke="midnightblue" d="M65.5,-266.15C65.5,-257.26 65.5,-248.1 65.5,-239.56"/>
<polygon fill="none" stroke="midnightblue" points="62,-266.4 65.5,-276.4 69,-266.4 62,-266.4"/>
</g>
<!-- Node4 -->
<g id="node4" class="node">
<title>Node4</title>
<g id="a_node4"><a xlink:title=" ">
<polygon fill="none" stroke="black" points="0,-392.5 0,-460.5 131,-460.5 131,-392.5 0,-392.5"/>
<text text-anchor="start" x="8" y="-448.5" font-family="Helvetica,sans-Serif" font-size="10.00">std::enable_shared</text>
<text text-anchor="middle" x="65.5" y="-437.5" font-family="Helvetica,sans-Serif" font-size="10.00">_from_this&lt; Request &gt;</text>
<polyline fill="none" stroke="black" points="0,-430.5 131,-430.5 "/>
<text text-anchor="middle" x="65.5" y="-418.5" font-family="Helvetica,sans-Serif" font-size="10.00"> </text>
<polyline fill="none" stroke="black" points="0,-411.5 131,-411.5 "/>
<text text-anchor="middle" x="65.5" y="-399.5" font-family="Helvetica,sans-Serif" font-size="10.00"> </text>
</a>
</g>
</g>
<!-- Node4&#45;&gt;Node3 -->
<g id="edge3" class="edge">
<title>Node4&#45;&gt;Node3</title>
<path fill="none" stroke="midnightblue" d="M65.5,-382.27C65.5,-373.48 65.5,-364.28 65.5,-355.65"/>
<polygon fill="none" stroke="midnightblue" points="62,-382.36 65.5,-392.36 69,-382.36 62,-382.36"/>
</g>
</g>
</svg>
