<?xml version="1.0" encoding="UTF-8" standalone="no"?>
<!DOCTYPE svg PUBLIC "-//W3C//DTD SVG 1.1//EN"
 "http://www.w3.org/Graphics/SVG/1.1/DTD/svg11.dtd">
<!-- Generated by graphviz version 2.43.0 (0)
 -->
<!-- Title: Logger::log Pages: 1 -->
<svg width="391pt" height="160pt"
 viewBox="0.00 0.00 391.00 160.00" xmlns="http://www.w3.org/2000/svg" xmlns:xlink="http://www.w3.org/1999/xlink">
<g id="graph0" class="graph" transform="scale(1 1) rotate(0) translate(4 156)">
<title>Logger::log</title>
<!-- Node1 -->
<g id="node1" class="node">
<title>Node1</title>
<g id="a_node1"><a xlink:title=" ">
<polygon fill="#bfbfbf" stroke="black" points="312,-66.5 312,-85.5 383,-85.5 383,-66.5 312,-66.5"/>
<text text-anchor="middle" x="347.5" y="-73.5" font-family="Helvetica,sans-Serif" font-size="10.00">Logger::log</text>
</a>
</g>
</g>
<!-- Node2 -->
<g id="node2" class="node">
<title>Node2</title>
<g id="a_node2"><a xlink:href="client__side_2main_8cpp.html#a0ddf1224851353fc92bfbff6f499fa97" target="_top" xlink:title=" ">
<polygon fill="none" stroke="black" points="182.5,-132.5 182.5,-151.5 223.5,-151.5 223.5,-132.5 182.5,-132.5"/>
<text text-anchor="middle" x="203" y="-139.5" font-family="Helvetica,sans-Serif" font-size="10.00">main</text>
</a>
</g>
</g>
<!-- Node1&#45;&gt;Node2 -->
<g id="edge1" class="edge">
<title>Node1&#45;&gt;Node2</title>
<path fill="none" stroke="midnightblue" d="M326.63,-91.85C313.05,-102 294.27,-114.78 276,-123 259.02,-130.64 238.37,-135.7 223.54,-138.66"/>
<polygon fill="midnightblue" stroke="midnightblue" points="328.94,-94.49 334.74,-85.63 324.68,-88.93 328.94,-94.49"/>
</g>
<!-- Node3 -->
<g id="node3" class="node">
<title>Node3</title>
<g id="a_node3"><a xlink:href="class_room.html#a0ea442382e80870f715025a6cf3e3619" target="_top" xlink:title=" ">
<polygon fill="none" stroke="black" points="148,-94.5 148,-113.5 258,-113.5 258,-94.5 148,-94.5"/>
<text text-anchor="middle" x="203" y="-101.5" font-family="Helvetica,sans-Serif" font-size="10.00">Room::sendHistory</text>
</a>
</g>
</g>
<!-- Node1&#45;&gt;Node3 -->
<g id="edge2" class="edge">
<title>Node1&#45;&gt;Node3</title>
<path fill="none" stroke="midnightblue" d="M301.68,-84.81C286.04,-87.88 268.42,-91.34 252.49,-94.47"/>
<polygon fill="midnightblue" stroke="midnightblue" points="302.5,-88.21 311.64,-82.85 301.15,-81.34 302.5,-88.21"/>
</g>
<!-- Node4 -->
<g id="node4" class="node">
<title>Node4</title>
<g id="a_node4"><a xlink:href="class_socket.html#a3ad675f89e6aa76d34ec413c314d8e97" target="_top" xlink:title=" ">
<polygon fill="none" stroke="black" points="130,-38.5 130,-57.5 276,-57.5 276,-38.5 130,-38.5"/>
<text text-anchor="middle" x="203" y="-45.5" font-family="Helvetica,sans-Serif" font-size="10.00">Socket::startCommunicate</text>
</a>
</g>
</g>
<!-- Node1&#45;&gt;Node4 -->
<g id="edge3" class="edge">
<title>Node1&#45;&gt;Node4</title>
<path fill="none" stroke="midnightblue" d="M301.68,-67.19C286.04,-64.12 268.42,-60.66 252.49,-57.53"/>
<polygon fill="midnightblue" stroke="midnightblue" points="301.15,-70.66 311.64,-69.15 302.5,-63.79 301.15,-70.66"/>
</g>
<!-- Node5 -->
<g id="node5" class="node">
<title>Node5</title>
<g id="a_node5"><a xlink:href="class_server.html#a31d9bbeeaa6ced18c7096acd0b52c3ae" target="_top" xlink:title=" ">
<polygon fill="none" stroke="black" points="149.5,-0.5 149.5,-19.5 256.5,-19.5 256.5,-0.5 149.5,-0.5"/>
<text text-anchor="middle" x="203" y="-7.5" font-family="Helvetica,sans-Serif" font-size="10.00">Server::stopServer</text>
</a>
</g>
</g>
<!-- Node1&#45;&gt;Node5 -->
<g id="edge5" class="edge">
<title>Node1&#45;&gt;Node5</title>
<path fill="none" stroke="midnightblue" d="M326.63,-60.15C313.05,-50 294.27,-37.22 276,-29 267.63,-25.23 258.36,-22.09 249.34,-19.52"/>
<polygon fill="midnightblue" stroke="midnightblue" points="324.68,-63.07 334.74,-66.37 328.94,-57.51 324.68,-63.07"/>
</g>
<!-- Node4&#45;&gt;Node4 -->
<g id="edge4" class="edge">
<title>Node4&#45;&gt;Node4</title>
<path fill="none" stroke="midnightblue" d="M229.88,-66.65C228.76,-71.94 219.8,-76 203,-76 177.41,-76 170.01,-66.57 180.81,-57.76"/>
<polygon fill="midnightblue" stroke="midnightblue" points="232.95,-64.97 225.19,-57.76 226.76,-68.24 232.95,-64.97"/>
</g>
<!-- Node6 -->
<g id="node6" class="node">
<title>Node6</title>
<g id="a_node6"><a xlink:href="class_server.html#a4b3aa2579cb1c8cd1d069582c14d0fa6" target="_top" xlink:title=" ">
<polygon fill="none" stroke="black" points="0,-0.5 0,-19.5 94,-19.5 94,-0.5 0,-0.5"/>
<text text-anchor="middle" x="47" y="-7.5" font-family="Helvetica,sans-Serif" font-size="10.00">Server::~Server</text>
</a>
</g>
</g>
<!-- Node5&#45;&gt;Node6 -->
<g id="edge6" class="edge">
<title>Node5&#45;&gt;Node6</title>
<path fill="none" stroke="midnightblue" d="M139.16,-10C124.1,-10 108.29,-10 94.15,-10"/>
<polygon fill="midnightblue" stroke="midnightblue" points="139.43,-13.5 149.43,-10 139.43,-6.5 139.43,-13.5"/>
</g>
</g>
</svg>
