<?xml version="1.0" encoding="UTF-8" standalone="no"?>
<!DOCTYPE svg PUBLIC "-//W3C//DTD SVG 1.1//EN"
 "http://www.w3.org/Graphics/SVG/1.1/DTD/svg11.dtd">
<!-- Generated by graphviz version 2.43.0 (0)
 -->
<!-- Title: AccountsDatabase::getInstance Pages: 1 -->
<svg width="366pt" height="116pt"
 viewBox="0.00 0.00 366.00 115.50" xmlns="http://www.w3.org/2000/svg" xmlns:xlink="http://www.w3.org/1999/xlink">
<g id="graph0" class="graph" transform="scale(1 1) rotate(0) translate(4 111.5)">
<title>AccountsDatabase::getInstance</title>
<!-- Node1 -->
<g id="node1" class="node">
<title>Node1</title>
<g id="a_node1"><a xlink:title=" ">
<polygon fill="#bfbfbf" stroke="black" points="188,-38.5 188,-57.5 358,-57.5 358,-38.5 188,-38.5"/>
<text text-anchor="middle" x="273" y="-45.5" font-family="Helvetica,sans-Serif" font-size="10.00">AccountsDatabase::getInstance</text>
</a>
</g>
</g>
<!-- Node2 -->
<g id="node2" class="node">
<title>Node2</title>
<g id="a_node2"><a xlink:href="class_client_connection.html#a7ade2bca93315ab00a31bdbb9a03dd2f" target="_top" xlink:title=" ">
<polygon fill="none" stroke="black" points="0,-77 0,-107 152,-107 152,-77 0,-77"/>
<text text-anchor="start" x="8" y="-95" font-family="Helvetica,sans-Serif" font-size="10.00">ClientConnection::onPrivate</text>
<text text-anchor="middle" x="76" y="-84" font-family="Helvetica,sans-Serif" font-size="10.00">Message</text>
</a>
</g>
</g>
<!-- Node1&#45;&gt;Node2 -->
<g id="edge1" class="edge">
<title>Node1&#45;&gt;Node2</title>
<path fill="none" stroke="midnightblue" d="M219.65,-59.81C196.32,-65.08 168.57,-71.34 143.77,-76.93"/>
<polygon fill="midnightblue" stroke="midnightblue" points="220.7,-63.16 229.69,-57.55 219.16,-56.33 220.7,-63.16"/>
</g>
<!-- Node3 -->
<g id="node3" class="node">
<title>Node3</title>
<g id="a_node3"><a xlink:href="class_client_connection.html#afe6b1ba83296adf927481639c9d49fa9" target="_top" xlink:title=" ">
<polygon fill="none" stroke="black" points="2,-38.5 2,-57.5 150,-57.5 150,-38.5 2,-38.5"/>
<text text-anchor="middle" x="76" y="-45.5" font-family="Helvetica,sans-Serif" font-size="10.00">ClientConnection::onSignIn</text>
</a>
</g>
</g>
<!-- Node1&#45;&gt;Node3 -->
<g id="edge2" class="edge">
<title>Node1&#45;&gt;Node3</title>
<path fill="none" stroke="midnightblue" d="M177.82,-48C168.51,-48 159.16,-48 150.11,-48"/>
<polygon fill="midnightblue" stroke="midnightblue" points="177.89,-51.5 187.89,-48 177.89,-44.5 177.89,-51.5"/>
</g>
<!-- Node4 -->
<g id="node4" class="node">
<title>Node4</title>
<g id="a_node4"><a xlink:href="class_client_connection.html#afa4df6973901a28f9c8f065a430a7bec" target="_top" xlink:title=" ">
<polygon fill="none" stroke="black" points="0,-0.5 0,-19.5 152,-19.5 152,-0.5 0,-0.5"/>
<text text-anchor="middle" x="76" y="-7.5" font-family="Helvetica,sans-Serif" font-size="10.00">ClientConnection::onSignUp</text>
</a>
</g>
</g>
<!-- Node1&#45;&gt;Node4 -->
<g id="edge3" class="edge">
<title>Node1&#45;&gt;Node4</title>
<path fill="none" stroke="midnightblue" d="M213.04,-36.51C185.22,-31.09 152.4,-24.69 125.98,-19.54"/>
<polygon fill="midnightblue" stroke="midnightblue" points="212.56,-39.98 223.04,-38.46 213.9,-33.11 212.56,-39.98"/>
</g>
</g>
</svg>
