<?xml version="1.0" encoding="UTF-8" standalone="no"?>
<!DOCTYPE svg PUBLIC "-//W3C//DTD SVG 1.1//EN"
 "http://www.w3.org/Graphics/SVG/1.1/DTD/svg11.dtd">
<!-- Generated by graphviz version 2.43.0 (0)
 -->
<!-- Title: Logger::err Pages: 1 -->
<svg width="259pt" height="236pt"
 viewBox="0.00 0.00 259.00 236.00" xmlns="http://www.w3.org/2000/svg" xmlns:xlink="http://www.w3.org/1999/xlink">
<g id="graph0" class="graph" transform="scale(1 1) rotate(0) translate(4 232)">
<title>Logger::err</title>
<!-- Node1 -->
<g id="node1" class="node">
<title>Node1</title>
<g id="a_node1"><a xlink:title=" ">
<polygon fill="#bfbfbf" stroke="black" points="182,-113.5 182,-132.5 251,-132.5 251,-113.5 182,-113.5"/>
<text text-anchor="middle" x="216.5" y="-120.5" font-family="Helvetica,sans-Serif" font-size="10.00">Logger::err</text>
</a>
</g>
</g>
<!-- Node2 -->
<g id="node2" class="node">
<title>Node2</title>
<g id="a_node2"><a xlink:href="class_client_connection.html#a1cafa7ce29551be7ca4bde64ddbe67d6" target="_top" xlink:title=" ">
<polygon fill="none" stroke="black" points="1.5,-208.5 1.5,-227.5 144.5,-227.5 144.5,-208.5 1.5,-208.5"/>
<text text-anchor="middle" x="73" y="-215.5" font-family="Helvetica,sans-Serif" font-size="10.00">ClientConnection::destroy</text>
</a>
</g>
</g>
<!-- Node1&#45;&gt;Node2 -->
<g id="edge1" class="edge">
<title>Node1&#45;&gt;Node2</title>
<path fill="none" stroke="midnightblue" d="M203.52,-141.25C191.14,-158.65 170.27,-184.32 146,-199 139.58,-202.88 132.38,-205.98 125.07,-208.45"/>
<polygon fill="midnightblue" stroke="midnightblue" points="206.71,-142.78 209.48,-132.56 200.94,-138.82 206.71,-142.78"/>
</g>
<!-- Node3 -->
<g id="node3" class="node">
<title>Node3</title>
<g id="a_node3"><a xlink:href="class_server.html#af08eceef93c005f14905b81e59efe0b1" target="_top" xlink:title=" ">
<polygon fill="none" stroke="black" points="5,-170.5 5,-189.5 141,-189.5 141,-170.5 5,-170.5"/>
<text text-anchor="middle" x="73" y="-177.5" font-family="Helvetica,sans-Serif" font-size="10.00">Server::eraseConnection</text>
</a>
</g>
</g>
<!-- Node1&#45;&gt;Node3 -->
<g id="edge2" class="edge">
<title>Node1&#45;&gt;Node3</title>
<path fill="none" stroke="midnightblue" d="M191.73,-137.87C178.62,-145.59 161.83,-154.69 146,-161 136.87,-164.64 126.82,-167.79 117.19,-170.42"/>
<polygon fill="midnightblue" stroke="midnightblue" points="193.8,-140.71 200.56,-132.56 190.19,-134.71 193.8,-140.71"/>
</g>
<!-- Node4 -->
<g id="node4" class="node">
<title>Node4</title>
<g id="a_node4"><a xlink:href="class_request_parser.html#a0a1afa0e99e341b221ec1044929c4ade" target="_top" xlink:title=" ">
<polygon fill="none" stroke="black" points="13.5,-132.5 13.5,-151.5 132.5,-151.5 132.5,-132.5 13.5,-132.5"/>
<text text-anchor="middle" x="73" y="-139.5" font-family="Helvetica,sans-Serif" font-size="10.00">RequestParser::parse</text>
</a>
</g>
</g>
<!-- Node1&#45;&gt;Node4 -->
<g id="edge3" class="edge">
<title>Node1&#45;&gt;Node4</title>
<path fill="none" stroke="midnightblue" d="M171.92,-128.85C159.55,-130.51 145.87,-132.35 132.76,-134.11"/>
<polygon fill="midnightblue" stroke="midnightblue" points="172.52,-132.3 181.97,-127.5 171.59,-125.36 172.52,-132.3"/>
</g>
<!-- Node5 -->
<g id="node5" class="node">
<title>Node5</title>
<g id="a_node5"><a xlink:href="class_server.html#aa81cb4590328c63fe04471b4e5d4009f" target="_top" xlink:title=" ">
<polygon fill="none" stroke="black" points="29,-94.5 29,-113.5 117,-113.5 117,-94.5 29,-94.5"/>
<text text-anchor="middle" x="73" y="-101.5" font-family="Helvetica,sans-Serif" font-size="10.00">Server::relogin</text>
</a>
</g>
</g>
<!-- Node1&#45;&gt;Node5 -->
<g id="edge4" class="edge">
<title>Node1&#45;&gt;Node5</title>
<path fill="none" stroke="midnightblue" d="M172.05,-117.17C154.64,-114.83 134.61,-112.14 117.22,-109.8"/>
<polygon fill="midnightblue" stroke="midnightblue" points="171.59,-120.64 181.97,-118.5 172.52,-113.7 171.59,-120.64"/>
</g>
<!-- Node6 -->
<g id="node6" class="node">
<title>Node6</title>
<g id="a_node6"><a xlink:href="class_socket.html#a1098407a27a85c8ae371f6f4a3973613" target="_top" xlink:title=" ">
<polygon fill="none" stroke="black" points="34,-56.5 34,-75.5 112,-75.5 112,-56.5 34,-56.5"/>
<text text-anchor="middle" x="73" y="-63.5" font-family="Helvetica,sans-Serif" font-size="10.00">Socket::send</text>
</a>
</g>
</g>
<!-- Node1&#45;&gt;Node6 -->
<g id="edge5" class="edge">
<title>Node1&#45;&gt;Node6</title>
<path fill="none" stroke="midnightblue" d="M191.73,-108.13C178.62,-100.41 161.83,-91.31 146,-85 135.31,-80.74 123.35,-77.15 112.3,-74.27"/>
<polygon fill="midnightblue" stroke="midnightblue" points="190.19,-111.29 200.56,-113.44 193.8,-105.29 190.19,-111.29"/>
</g>
<!-- Node7 -->
<g id="node7" class="node">
<title>Node7</title>
<g id="a_node7"><a xlink:href="class_socket.html#a3ad675f89e6aa76d34ec413c314d8e97" target="_top" xlink:title=" ">
<polygon fill="none" stroke="black" points="0,-0.5 0,-19.5 146,-19.5 146,-0.5 0,-0.5"/>
<text text-anchor="middle" x="73" y="-7.5" font-family="Helvetica,sans-Serif" font-size="10.00">Socket::startCommunicate</text>
</a>
</g>
</g>
<!-- Node1&#45;&gt;Node7 -->
<g id="edge6" class="edge">
<title>Node1&#45;&gt;Node7</title>
<path fill="none" stroke="midnightblue" d="M201.93,-104.78C188.92,-88.21 168.06,-63.85 146,-47 131.15,-35.65 112.29,-26.11 97.61,-19.56"/>
<polygon fill="midnightblue" stroke="midnightblue" points="199.44,-107.28 208.3,-113.09 204.99,-103.02 199.44,-107.28"/>
</g>
<!-- Node7&#45;&gt;Node7 -->
<g id="edge7" class="edge">
<title>Node7&#45;&gt;Node7</title>
<path fill="none" stroke="midnightblue" d="M99.51,-28.65C98.4,-33.94 89.56,-38 73,-38 47.76,-38 40.47,-28.57 51.11,-19.76"/>
<polygon fill="midnightblue" stroke="midnightblue" points="102.6,-27.02 94.89,-19.76 96.39,-30.24 102.6,-27.02"/>
</g>
</g>
</svg>
