<?xml version="1.0" encoding="UTF-8" standalone="no"?>
<!DOCTYPE svg PUBLIC "-//W3C//DTD SVG 1.1//EN"
 "http://www.w3.org/Graphics/SVG/1.1/DTD/svg11.dtd">
<!-- Generated by graphviz version 2.43.0 (0)
 -->
<!-- Title: AuthorizationRequest Pages: 1 -->
<svg width="258pt" height="469pt"
 viewBox="0.00 0.00 257.50 469.00" xmlns="http://www.w3.org/2000/svg" xmlns:xlink="http://www.w3.org/1999/xlink">
<g id="graph0" class="graph" transform="scale(1 1) rotate(0) translate(4 465)">
<title>AuthorizationRequest</title>
<!-- Node1 -->
<g id="node1" class="node">
<title>Node1</title>
<g id="a_node1"><a xlink:title=" ">
<polygon fill="#bfbfbf" stroke="black" points="49,-127.5 49,-239.5 198,-239.5 198,-127.5 49,-127.5"/>
<text text-anchor="middle" x="123.5" y="-227.5" font-family="Helvetica,sans-Serif" font-size="10.00">AuthorizationRequest</text>
<polyline fill="none" stroke="black" points="49,-220.5 198,-220.5 "/>
<text text-anchor="middle" x="123.5" y="-208.5" font-family="Helvetica,sans-Serif" font-size="10.00"> </text>
<polyline fill="none" stroke="black" points="49,-201.5 198,-201.5 "/>
<text text-anchor="start" x="57" y="-189.5" font-family="Helvetica,sans-Serif" font-size="10.00">+ AuthorizationRequest()</text>
<text text-anchor="start" x="57" y="-178.5" font-family="Helvetica,sans-Serif" font-size="10.00">+ ~AuthorizationRequest()</text>
<text text-anchor="start" x="57" y="-167.5" font-family="Helvetica,sans-Serif" font-size="10.00">+ getQuery()</text>
<text text-anchor="start" x="57" y="-156.5" font-family="Helvetica,sans-Serif" font-size="10.00">+ handle()</text>
<text text-anchor="start" x="57" y="-145.5" font-family="Helvetica,sans-Serif" font-size="10.00">+ getAccount()</text>
<text text-anchor="start" x="57" y="-134.5" font-family="Helvetica,sans-Serif" font-size="10.00">+ setAccount()</text>
</a>
</g>
</g>
<!-- Node4 -->
<g id="node4" class="node">
<title>Node4</title>
<g id="a_node4"><a xlink:href="class_sign_in_request.html" target="_top" xlink:title=" ">
<polygon fill="none" stroke="black" points="0,-0.5 0,-90.5 113,-90.5 113,-0.5 0,-0.5"/>
<text text-anchor="middle" x="56.5" y="-78.5" font-family="Helvetica,sans-Serif" font-size="10.00">SignInRequest</text>
<polyline fill="none" stroke="black" points="0,-71.5 113,-71.5 "/>
<text text-anchor="middle" x="56.5" y="-59.5" font-family="Helvetica,sans-Serif" font-size="10.00"> </text>
<polyline fill="none" stroke="black" points="0,-52.5 113,-52.5 "/>
<text text-anchor="start" x="8" y="-40.5" font-family="Helvetica,sans-Serif" font-size="10.00">+ SignInRequest()</text>
<text text-anchor="start" x="8" y="-29.5" font-family="Helvetica,sans-Serif" font-size="10.00">+ ~SignInRequest()</text>
<text text-anchor="start" x="8" y="-18.5" font-family="Helvetica,sans-Serif" font-size="10.00">+ getQuery()</text>
<text text-anchor="start" x="8" y="-7.5" font-family="Helvetica,sans-Serif" font-size="10.00">+ handle()</text>
</a>
</g>
</g>
<!-- Node1&#45;&gt;Node4 -->
<g id="edge3" class="edge">
<title>Node1&#45;&gt;Node4</title>
<path fill="none" stroke="midnightblue" d="M91.7,-117.95C87.12,-108.66 82.5,-99.28 78.18,-90.51"/>
<polygon fill="none" stroke="midnightblue" points="88.69,-119.76 96.25,-127.18 94.97,-116.67 88.69,-119.76"/>
</g>
<!-- Node5 -->
<g id="node5" class="node">
<title>Node5</title>
<g id="a_node5"><a xlink:href="class_sign_up_request.html" target="_top" xlink:title=" ">
<polygon fill="none" stroke="black" points="131.5,-0.5 131.5,-90.5 249.5,-90.5 249.5,-0.5 131.5,-0.5"/>
<text text-anchor="middle" x="190.5" y="-78.5" font-family="Helvetica,sans-Serif" font-size="10.00">SignUpRequest</text>
<polyline fill="none" stroke="black" points="131.5,-71.5 249.5,-71.5 "/>
<text text-anchor="middle" x="190.5" y="-59.5" font-family="Helvetica,sans-Serif" font-size="10.00"> </text>
<polyline fill="none" stroke="black" points="131.5,-52.5 249.5,-52.5 "/>
<text text-anchor="start" x="139.5" y="-40.5" font-family="Helvetica,sans-Serif" font-size="10.00">+ SignUpRequest()</text>
<text text-anchor="start" x="139.5" y="-29.5" font-family="Helvetica,sans-Serif" font-size="10.00">+ ~SignUpRequest()</text>
<text text-anchor="start" x="139.5" y="-18.5" font-family="Helvetica,sans-Serif" font-size="10.00">+ getQuery()</text>
<text text-anchor="start" x="139.5" y="-7.5" font-family="Helvetica,sans-Serif" font-size="10.00">+ handle()</text>
</a>
</g>
</g>
<!-- Node1&#45;&gt;Node5 -->
<g id="edge4" class="edge">
<title>Node1&#45;&gt;Node5</title>
<path fill="none" stroke="midnightblue" d="M155.3,-117.95C159.88,-108.66 164.5,-99.28 168.82,-90.51"/>
<polygon fill="none" stroke="midnightblue" points="152.03,-116.67 150.75,-127.18 158.31,-119.76 152.03,-116.67"/>
</g>
<!-- Node2 -->
<g id="node2" class="node">
<title>Node2</title>
<g id="a_node2"><a xlink:href="class_request.html" target="_top" xlink:title=" ">
<polygon fill="none" stroke="black" points="83.5,-276.5 83.5,-355.5 163.5,-355.5 163.5,-276.5 83.5,-276.5"/>
<text text-anchor="middle" x="123.5" y="-343.5" font-family="Helvetica,sans-Serif" font-size="10.00">Request</text>
<polyline fill="none" stroke="black" points="83.5,-336.5 163.5,-336.5 "/>
<text text-anchor="start" x="91.5" y="-324.5" font-family="Helvetica,sans-Serif" font-size="10.00">+ separator</text>
<polyline fill="none" stroke="black" points="83.5,-317.5 163.5,-317.5 "/>
<text text-anchor="start" x="91.5" y="-305.5" font-family="Helvetica,sans-Serif" font-size="10.00">+ getQuery()</text>
<text text-anchor="start" x="91.5" y="-294.5" font-family="Helvetica,sans-Serif" font-size="10.00">+ handle()</text>
<text text-anchor="start" x="91.5" y="-283.5" font-family="Helvetica,sans-Serif" font-size="10.00">+ handle()</text>
</a>
</g>
</g>
<!-- Node2&#45;&gt;Node1 -->
<g id="edge1" class="edge">
<title>Node2&#45;&gt;Node1</title>
<path fill="none" stroke="midnightblue" d="M123.5,-266.01C123.5,-257.46 123.5,-248.52 123.5,-239.81"/>
<polygon fill="none" stroke="midnightblue" points="120,-266.2 123.5,-276.2 127,-266.2 120,-266.2"/>
</g>
<!-- Node3 -->
<g id="node3" class="node">
<title>Node3</title>
<g id="a_node3"><a xlink:title=" ">
<polygon fill="none" stroke="black" points="58,-392.5 58,-460.5 189,-460.5 189,-392.5 58,-392.5"/>
<text text-anchor="start" x="66" y="-448.5" font-family="Helvetica,sans-Serif" font-size="10.00">std::enable_shared</text>
<text text-anchor="middle" x="123.5" y="-437.5" font-family="Helvetica,sans-Serif" font-size="10.00">_from_this&lt; Request &gt;</text>
<polyline fill="none" stroke="black" points="58,-430.5 189,-430.5 "/>
<text text-anchor="middle" x="123.5" y="-418.5" font-family="Helvetica,sans-Serif" font-size="10.00"> </text>
<polyline fill="none" stroke="black" points="58,-411.5 189,-411.5 "/>
<text text-anchor="middle" x="123.5" y="-399.5" font-family="Helvetica,sans-Serif" font-size="10.00"> </text>
</a>
</g>
</g>
<!-- Node3&#45;&gt;Node2 -->
<g id="edge2" class="edge">
<title>Node3&#45;&gt;Node2</title>
<path fill="none" stroke="midnightblue" d="M123.5,-382.27C123.5,-373.48 123.5,-364.28 123.5,-355.65"/>
<polygon fill="none" stroke="midnightblue" points="120,-382.36 123.5,-392.36 127,-382.36 120,-382.36"/>
</g>
</g>
</svg>
