<?xml version="1.0" encoding="UTF-8" standalone="no"?>
<!DOCTYPE svg PUBLIC "-//W3C//DTD SVG 1.1//EN"
 "http://www.w3.org/Graphics/SVG/1.1/DTD/svg11.dtd">
<!-- Generated by graphviz version 2.43.0 (0)
 -->
<!-- Title: ClientConnection::onSignUp Pages: 1 -->
<svg width="366pt" height="104pt"
 viewBox="0.00 0.00 366.00 104.00" xmlns="http://www.w3.org/2000/svg" xmlns:xlink="http://www.w3.org/1999/xlink">
<g id="graph0" class="graph" transform="scale(1 1) rotate(0) translate(4 100)">
<title>ClientConnection::onSignUp</title>
<!-- Node1 -->
<g id="node1" class="node">
<title>Node1</title>
<g id="a_node1"><a xlink:title=" ">
<polygon fill="#bfbfbf" stroke="black" points="0,-38.5 0,-57.5 152,-57.5 152,-38.5 0,-38.5"/>
<text text-anchor="middle" x="76" y="-45.5" font-family="Helvetica,sans-Serif" font-size="10.00">ClientConnection::onSignUp</text>
</a>
</g>
</g>
<!-- Node2 -->
<g id="node2" class="node">
<title>Node2</title>
<g id="a_node2"><a xlink:href="class_accounts_database.html#a75dbfe7e8f9f5b7f534c630d4a25ce3a" target="_top" xlink:title=" ">
<polygon fill="none" stroke="black" points="188,-76.5 188,-95.5 358,-95.5 358,-76.5 188,-76.5"/>
<text text-anchor="middle" x="273" y="-83.5" font-family="Helvetica,sans-Serif" font-size="10.00">AccountsDatabase::getInstance</text>
</a>
</g>
</g>
<!-- Node1&#45;&gt;Node2 -->
<g id="edge1" class="edge">
<title>Node1&#45;&gt;Node2</title>
<path fill="none" stroke="midnightblue" d="M125.96,-57.54C152.38,-62.69 185.19,-69.08 213.02,-74.51"/>
<polygon fill="midnightblue" stroke="midnightblue" points="212.54,-77.98 223.02,-76.46 213.88,-71.11 212.54,-77.98"/>
</g>
<!-- Node3 -->
<g id="node3" class="node">
<title>Node3</title>
<g id="a_node3"><a xlink:href="class_abstract_handler.html#a82f8032708b203d7a34ec50baee76308" target="_top" xlink:title=" ">
<polygon fill="none" stroke="black" points="191,-38.5 191,-57.5 355,-57.5 355,-38.5 191,-38.5"/>
<text text-anchor="middle" x="273" y="-45.5" font-family="Helvetica,sans-Serif" font-size="10.00">AbstractHandler::sendRequest</text>
</a>
</g>
</g>
<!-- Node1&#45;&gt;Node3 -->
<g id="edge2" class="edge">
<title>Node1&#45;&gt;Node3</title>
<path fill="none" stroke="midnightblue" d="M152.11,-48C161.41,-48 170.99,-48 180.5,-48"/>
<polygon fill="midnightblue" stroke="midnightblue" points="180.77,-51.5 190.77,-48 180.77,-44.5 180.77,-51.5"/>
</g>
<!-- Node4 -->
<g id="node4" class="node">
<title>Node4</title>
<g id="a_node4"><a xlink:href="class_abstract_handler.html#a7f60c81f99a9515ceb8f3db7945028d8" target="_top" xlink:title=" ">
<polygon fill="none" stroke="black" points="195.5,-0.5 195.5,-19.5 350.5,-19.5 350.5,-0.5 195.5,-0.5"/>
<text text-anchor="middle" x="273" y="-7.5" font-family="Helvetica,sans-Serif" font-size="10.00">AbstractHandler::setAccount</text>
</a>
</g>
</g>
<!-- Node1&#45;&gt;Node4 -->
<g id="edge3" class="edge">
<title>Node1&#45;&gt;Node4</title>
<path fill="none" stroke="midnightblue" d="M125.96,-38.46C152.38,-33.31 185.19,-26.92 213.02,-21.49"/>
<polygon fill="midnightblue" stroke="midnightblue" points="213.88,-24.89 223.02,-19.54 212.54,-18.02 213.88,-24.89"/>
</g>
</g>
</svg>
