<?xml version="1.0" encoding="UTF-8" standalone="no"?>
<!DOCTYPE svg PUBLIC "-//W3C//DTD SVG 1.1//EN"
 "http://www.w3.org/Graphics/SVG/1.1/DTD/svg11.dtd">
<!-- Generated by graphviz version 2.43.0 (0)
 -->
<!-- Title: PropertiesDecorator::handle Pages: 1 -->
<svg width="296pt" height="180pt"
 viewBox="0.00 0.00 296.00 180.00" xmlns="http://www.w3.org/2000/svg" xmlns:xlink="http://www.w3.org/1999/xlink">
<g id="graph0" class="graph" transform="scale(1 1) rotate(0) translate(4 176)">
<title>PropertiesDecorator::handle</title>
<!-- Node1 -->
<g id="node1" class="node">
<title>Node1</title>
<g id="a_node1"><a xlink:title=" ">
<polygon fill="#bfbfbf" stroke="black" points="174,-71 174,-101 288,-101 288,-71 174,-71"/>
<text text-anchor="start" x="182" y="-89" font-family="Helvetica,sans-Serif" font-size="10.00">PropertiesDecorator</text>
<text text-anchor="middle" x="231" y="-78" font-family="Helvetica,sans-Serif" font-size="10.00">::handle</text>
</a>
</g>
</g>
<!-- Node2 -->
<g id="node2" class="node">
<title>Node2</title>
<g id="a_node2"><a xlink:href="class_private_decorator.html#a366b56bcccfe85224be12e93e8a0c2c6" target="_top" xlink:title=" ">
<polygon fill="none" stroke="black" points="0,-152.5 0,-171.5 138,-171.5 138,-152.5 0,-152.5"/>
<text text-anchor="middle" x="69" y="-159.5" font-family="Helvetica,sans-Serif" font-size="10.00">PrivateDecorator::handle</text>
</a>
</g>
</g>
<!-- Node1&#45;&gt;Node2 -->
<g id="edge1" class="edge">
<title>Node1&#45;&gt;Node2</title>
<path fill="none" stroke="midnightblue" d="M200.76,-107.09C183.23,-118.95 160.12,-133.29 138,-143 129.58,-146.69 120.26,-149.86 111.29,-152.48"/>
<polygon fill="midnightblue" stroke="midnightblue" points="203.13,-109.7 209.38,-101.15 199.16,-103.94 203.13,-109.7"/>
</g>
<!-- Node3 -->
<g id="node3" class="node">
<title>Node3</title>
<g id="a_node3"><a xlink:href="class_room_decorator.html#a1a6abfa13cf69c79292965522f2d0e80" target="_top" xlink:title=" ">
<polygon fill="none" stroke="black" points="3,-114.5 3,-133.5 135,-133.5 135,-114.5 3,-114.5"/>
<text text-anchor="middle" x="69" y="-121.5" font-family="Helvetica,sans-Serif" font-size="10.00">RoomDecorator::handle</text>
</a>
</g>
</g>
<!-- Node1&#45;&gt;Node3 -->
<g id="edge2" class="edge">
<title>Node1&#45;&gt;Node3</title>
<path fill="none" stroke="midnightblue" d="M163.66,-101.76C145.56,-106.06 126.5,-110.58 110.33,-114.42"/>
<polygon fill="midnightblue" stroke="midnightblue" points="164.67,-105.11 173.59,-99.4 163.05,-98.3 164.67,-105.11"/>
</g>
<!-- Node4 -->
<g id="node4" class="node">
<title>Node4</title>
<g id="a_node4"><a xlink:href="class_sender_decorator.html#acc207916fb2b9adbec1b4d90d49eeef5" target="_top" xlink:title=" ">
<polygon fill="none" stroke="black" points="0.5,-76.5 0.5,-95.5 137.5,-95.5 137.5,-76.5 0.5,-76.5"/>
<text text-anchor="middle" x="69" y="-83.5" font-family="Helvetica,sans-Serif" font-size="10.00">SenderDecorator::handle</text>
</a>
</g>
</g>
<!-- Node1&#45;&gt;Node4 -->
<g id="edge3" class="edge">
<title>Node1&#45;&gt;Node4</title>
<path fill="none" stroke="midnightblue" d="M163.37,-86C154.88,-86 146.19,-86 137.69,-86"/>
<polygon fill="midnightblue" stroke="midnightblue" points="163.59,-89.5 173.59,-86 163.59,-82.5 163.59,-89.5"/>
</g>
<!-- Node5 -->
<g id="node5" class="node">
<title>Node5</title>
<g id="a_node5"><a xlink:href="class_text_decorator.html#a7ccdfd3c9a85ed463140fe0b67deb75a" target="_top" xlink:title=" ">
<polygon fill="none" stroke="black" points="7,-38.5 7,-57.5 131,-57.5 131,-38.5 7,-38.5"/>
<text text-anchor="middle" x="69" y="-45.5" font-family="Helvetica,sans-Serif" font-size="10.00">TextDecorator::handle</text>
</a>
</g>
</g>
<!-- Node1&#45;&gt;Node5 -->
<g id="edge4" class="edge">
<title>Node1&#45;&gt;Node5</title>
<path fill="none" stroke="midnightblue" d="M163.66,-70.24C145.56,-65.94 126.5,-61.42 110.33,-57.58"/>
<polygon fill="midnightblue" stroke="midnightblue" points="163.05,-73.7 173.59,-72.6 164.67,-66.89 163.05,-73.7"/>
</g>
<!-- Node6 -->
<g id="node6" class="node">
<title>Node6</title>
<g id="a_node6"><a xlink:href="class_time_decorator.html#aa6f08112571b6f72bb5756a2c7261786" target="_top" xlink:title=" ">
<polygon fill="none" stroke="black" points="5,-0.5 5,-19.5 133,-19.5 133,-0.5 5,-0.5"/>
<text text-anchor="middle" x="69" y="-7.5" font-family="Helvetica,sans-Serif" font-size="10.00">TimeDecorator::handle</text>
</a>
</g>
</g>
<!-- Node1&#45;&gt;Node6 -->
<g id="edge5" class="edge">
<title>Node1&#45;&gt;Node6</title>
<path fill="none" stroke="midnightblue" d="M200.76,-64.91C183.23,-53.05 160.12,-38.71 138,-29 129.58,-25.31 120.26,-22.14 111.29,-19.52"/>
<polygon fill="midnightblue" stroke="midnightblue" points="199.16,-68.06 209.38,-70.85 203.13,-62.3 199.16,-68.06"/>
</g>
</g>
</svg>
