<?xml version="1.0" encoding="UTF-8" standalone="no"?>
<!DOCTYPE svg PUBLIC "-//W3C//DTD SVG 1.1//EN"
 "http://www.w3.org/Graphics/SVG/1.1/DTD/svg11.dtd">
<!-- Generated by graphviz version 2.43.0 (0)
 -->
<!-- Title: RequestCreator::createInfoMessage Pages: 1 -->
<svg width="520pt" height="142pt"
 viewBox="0.00 0.00 520.00 142.00" xmlns="http://www.w3.org/2000/svg" xmlns:xlink="http://www.w3.org/1999/xlink">
<g id="graph0" class="graph" transform="scale(1 1) rotate(0) translate(4 138)">
<title>RequestCreator::createInfoMessage</title>
<!-- Node1 -->
<g id="node1" class="node">
<title>Node1</title>
<g id="a_node1"><a xlink:title=" ">
<polygon fill="#bfbfbf" stroke="black" points="0,-52 0,-82 148,-82 148,-52 0,-52"/>
<text text-anchor="start" x="8" y="-70" font-family="Helvetica,sans-Serif" font-size="10.00">RequestCreator::createInfo</text>
<text text-anchor="middle" x="74" y="-59" font-family="Helvetica,sans-Serif" font-size="10.00">Message</text>
</a>
</g>
</g>
<!-- Node2 -->
<g id="node2" class="node">
<title>Node2</title>
<g id="a_node2"><a xlink:href="class_messages_builder.html#adff7cbe88ae9f3236a64dcaceee96e58" target="_top" xlink:title=" ">
<polygon fill="none" stroke="black" points="192.5,-114.5 192.5,-133.5 336.5,-133.5 336.5,-114.5 192.5,-114.5"/>
<text text-anchor="middle" x="264.5" y="-121.5" font-family="Helvetica,sans-Serif" font-size="10.00">MessagesBuilder::addText</text>
</a>
</g>
</g>
<!-- Node1&#45;&gt;Node2 -->
<g id="edge1" class="edge">
<title>Node1&#45;&gt;Node2</title>
<path fill="none" stroke="midnightblue" d="M115.06,-82.05C135.53,-89.47 160.92,-98.24 184,-105 192.41,-107.46 201.39,-109.85 210.17,-112.04"/>
<polygon fill="midnightblue" stroke="midnightblue" points="209.42,-115.46 219.97,-114.43 211.08,-108.66 209.42,-115.46"/>
</g>
<!-- Node3 -->
<g id="node3" class="node">
<title>Node3</title>
<g id="a_node3"><a xlink:href="class_messages_builder.html#a1b5f9a7c81a89eb059d80baf47abec67" target="_top" xlink:title=" ">
<polygon fill="none" stroke="black" points="190,-76.5 190,-95.5 339,-95.5 339,-76.5 190,-76.5"/>
<text text-anchor="middle" x="264.5" y="-83.5" font-family="Helvetica,sans-Serif" font-size="10.00">MessagesBuilder::addTime</text>
</a>
</g>
</g>
<!-- Node1&#45;&gt;Node3 -->
<g id="edge2" class="edge">
<title>Node1&#45;&gt;Node3</title>
<path fill="none" stroke="midnightblue" d="M148.15,-74.37C158.5,-75.42 169.21,-76.5 179.74,-77.56"/>
<polygon fill="midnightblue" stroke="midnightblue" points="179.47,-81.05 189.77,-78.57 180.17,-74.08 179.47,-81.05"/>
</g>
<!-- Node4 -->
<g id="node4" class="node">
<title>Node4</title>
<g id="a_node4"><a xlink:href="class_messages_builder.html#a065b4cd61b4cc1b5c8022f3220d82e82" target="_top" xlink:title=" ">
<polygon fill="none" stroke="black" points="184,-38.5 184,-57.5 345,-57.5 345,-38.5 184,-38.5"/>
<text text-anchor="middle" x="264.5" y="-45.5" font-family="Helvetica,sans-Serif" font-size="10.00">MessagesBuilder::createBase</text>
</a>
</g>
</g>
<!-- Node1&#45;&gt;Node4 -->
<g id="edge3" class="edge">
<title>Node1&#45;&gt;Node4</title>
<path fill="none" stroke="midnightblue" d="M148.15,-59.63C156.55,-58.78 165.2,-57.91 173.79,-57.04"/>
<polygon fill="midnightblue" stroke="midnightblue" points="174.23,-60.52 183.83,-56.03 173.53,-53.55 174.23,-60.52"/>
</g>
<!-- Node5 -->
<g id="node5" class="node">
<title>Node5</title>
<g id="a_node5"><a xlink:href="class_messages_builder.html#a29c0637d98e0cd5c7b7f0a969fda5415" target="_top" xlink:title=" ">
<polygon fill="none" stroke="black" points="188.5,-0.5 188.5,-19.5 340.5,-19.5 340.5,-0.5 188.5,-0.5"/>
<text text-anchor="middle" x="264.5" y="-7.5" font-family="Helvetica,sans-Serif" font-size="10.00">MessagesBuilder::getResult</text>
</a>
</g>
</g>
<!-- Node1&#45;&gt;Node5 -->
<g id="edge4" class="edge">
<title>Node1&#45;&gt;Node5</title>
<path fill="none" stroke="midnightblue" d="M115.06,-51.95C135.53,-44.53 160.92,-35.76 184,-29 192.41,-26.54 201.39,-24.15 210.17,-21.96"/>
<polygon fill="midnightblue" stroke="midnightblue" points="211.08,-25.34 219.97,-19.57 209.42,-18.54 211.08,-25.34"/>
</g>
<!-- Node6 -->
<g id="node6" class="node">
<title>Node6</title>
<g id="a_node6"><a xlink:href="class_messages_builder.html#a2d739aa30b5c0109d8ac4acae3c85ce1" target="_top" xlink:title=" ">
<polygon fill="none" stroke="black" points="381,-0.5 381,-19.5 512,-19.5 512,-0.5 381,-0.5"/>
<text text-anchor="middle" x="446.5" y="-7.5" font-family="Helvetica,sans-Serif" font-size="10.00">MessagesBuilder::reset</text>
</a>
</g>
</g>
<!-- Node5&#45;&gt;Node6 -->
<g id="edge5" class="edge">
<title>Node5&#45;&gt;Node6</title>
<path fill="none" stroke="midnightblue" d="M340.53,-10C350.48,-10 360.69,-10 370.64,-10"/>
<polygon fill="midnightblue" stroke="midnightblue" points="370.89,-13.5 380.89,-10 370.89,-6.5 370.89,-13.5"/>
</g>
</g>
</svg>
