<?xml version="1.0" encoding="UTF-8" standalone="no"?>
<!DOCTYPE svg PUBLIC "-//W3C//DTD SVG 1.1//EN"
 "http://www.w3.org/Graphics/SVG/1.1/DTD/svg11.dtd">
<!-- Generated by graphviz version 2.43.0 (0)
 -->
<!-- Title: MessagesBuilder::addRoom Pages: 1 -->
<svg width="364pt" height="284pt"
 viewBox="0.00 0.00 364.00 284.00" xmlns="http://www.w3.org/2000/svg" xmlns:xlink="http://www.w3.org/1999/xlink">
<g id="graph0" class="graph" transform="scale(1 1) rotate(0) translate(4 280)">
<title>MessagesBuilder::addRoom</title>
<!-- Node1 -->
<g id="node1" class="node">
<title>Node1</title>
<g id="a_node1"><a xlink:title=" ">
<polygon fill="#bfbfbf" stroke="black" points="204,-128 204,-147 356,-147 356,-128 204,-128"/>
<text text-anchor="middle" x="280" y="-135" font-family="Helvetica,sans-Serif" font-size="10.00">MessagesBuilder::addRoom</text>
</a>
</g>
</g>
<!-- Node2 -->
<g id="node2" class="node">
<title>Node2</title>
<g id="a_node2"><a xlink:href="class_request_creator.html#ab1e286d57e3bbb67d952397e832dfe35" target="_top" xlink:title=" ">
<polygon fill="none" stroke="black" points="8,-245.5 8,-275.5 160,-275.5 160,-245.5 8,-245.5"/>
<text text-anchor="start" x="16" y="-263.5" font-family="Helvetica,sans-Serif" font-size="10.00">RequestCreator::createChat</text>
<text text-anchor="middle" x="84" y="-252.5" font-family="Helvetica,sans-Serif" font-size="10.00">Message</text>
</a>
</g>
</g>
<!-- Node1&#45;&gt;Node2 -->
<g id="edge1" class="edge">
<title>Node1&#45;&gt;Node2</title>
<path fill="none" stroke="midnightblue" d="M264.16,-154.85C244.38,-176.93 207.28,-214.79 168,-236.5 161.83,-239.91 155.13,-242.88 148.3,-245.45"/>
<polygon fill="midnightblue" stroke="midnightblue" points="266.89,-157.05 270.87,-147.23 261.63,-152.43 266.89,-157.05"/>
</g>
<!-- Node3 -->
<g id="node3" class="node">
<title>Node3</title>
<g id="a_node3"><a xlink:href="class_request_creator.html#ab5e561064fa3343725110f627ad6fad6" target="_top" xlink:title=" ">
<polygon fill="none" stroke="black" points="2,-196.5 2,-226.5 166,-226.5 166,-196.5 2,-196.5"/>
<text text-anchor="start" x="10" y="-214.5" font-family="Helvetica,sans-Serif" font-size="10.00">RequestCreator::createHistory</text>
<text text-anchor="middle" x="84" y="-203.5" font-family="Helvetica,sans-Serif" font-size="10.00">Message</text>
</a>
</g>
</g>
<!-- Node1&#45;&gt;Node3 -->
<g id="edge2" class="edge">
<title>Node1&#45;&gt;Node3</title>
<path fill="none" stroke="midnightblue" d="M250.93,-151.48C228.76,-162.19 196.86,-176.89 168,-187.5 159.41,-190.66 150.2,-193.67 141.16,-196.44"/>
<polygon fill="midnightblue" stroke="midnightblue" points="252.64,-154.54 260.09,-147.01 249.57,-148.25 252.64,-154.54"/>
</g>
<!-- Node4 -->
<g id="node4" class="node">
<title>Node4</title>
<g id="a_node4"><a xlink:href="class_request_creator.html#ac003f7f8344e8c6ca62440b0a3af490e" target="_top" xlink:title=" ">
<polygon fill="none" stroke="black" points="10.5,-147.5 10.5,-177.5 157.5,-177.5 157.5,-147.5 10.5,-147.5"/>
<text text-anchor="start" x="18.5" y="-165.5" font-family="Helvetica,sans-Serif" font-size="10.00">RequestCreator::createJoin</text>
<text text-anchor="middle" x="84" y="-154.5" font-family="Helvetica,sans-Serif" font-size="10.00">Message</text>
</a>
</g>
</g>
<!-- Node1&#45;&gt;Node4 -->
<g id="edge3" class="edge">
<title>Node1&#45;&gt;Node4</title>
<path fill="none" stroke="midnightblue" d="M195.18,-148.3C182.71,-149.91 169.95,-151.55 157.73,-153.13"/>
<polygon fill="midnightblue" stroke="midnightblue" points="195.63,-151.77 205.1,-147.02 194.74,-144.83 195.63,-151.77"/>
</g>
<!-- Node5 -->
<g id="node5" class="node">
<title>Node5</title>
<g id="a_node5"><a xlink:href="class_request_creator.html#a925f578838354af5563c1585403dce4d" target="_top" xlink:title=" ">
<polygon fill="none" stroke="black" points="5,-98.5 5,-128.5 163,-128.5 163,-98.5 5,-98.5"/>
<text text-anchor="start" x="13" y="-116.5" font-family="Helvetica,sans-Serif" font-size="10.00">RequestCreator::createLeave</text>
<text text-anchor="middle" x="84" y="-105.5" font-family="Helvetica,sans-Serif" font-size="10.00">Message</text>
</a>
</g>
</g>
<!-- Node1&#45;&gt;Node5 -->
<g id="edge4" class="edge">
<title>Node1&#45;&gt;Node5</title>
<path fill="none" stroke="midnightblue" d="M193.82,-126.96C183.58,-125.7 173.15,-124.41 163.01,-123.15"/>
<polygon fill="midnightblue" stroke="midnightblue" points="193.64,-130.47 203.99,-128.22 194.5,-123.52 193.64,-130.47"/>
</g>
<!-- Node6 -->
<g id="node6" class="node">
<title>Node6</title>
<g id="a_node6"><a xlink:href="class_request_creator.html#a4800733c4f35f5bec150468c78979a58" target="_top" xlink:title=" ">
<polygon fill="none" stroke="black" points="0,-49.5 0,-79.5 168,-79.5 168,-49.5 0,-49.5"/>
<text text-anchor="start" x="8" y="-67.5" font-family="Helvetica,sans-Serif" font-size="10.00">RequestCreator::createManage</text>
<text text-anchor="middle" x="84" y="-56.5" font-family="Helvetica,sans-Serif" font-size="10.00">Message</text>
</a>
</g>
</g>
<!-- Node1&#45;&gt;Node6 -->
<g id="edge5" class="edge">
<title>Node1&#45;&gt;Node6</title>
<path fill="none" stroke="midnightblue" d="M249.63,-123.69C227.47,-113.55 196.17,-99.79 168,-89.5 158.53,-86.04 148.33,-82.68 138.43,-79.6"/>
<polygon fill="midnightblue" stroke="midnightblue" points="248.28,-126.93 258.83,-127.94 251.21,-120.57 248.28,-126.93"/>
</g>
<!-- Node7 -->
<g id="node7" class="node">
<title>Node7</title>
<g id="a_node7"><a xlink:href="class_request_creator.html#a45363fa936dc76946bbcc3095c8562d3" target="_top" xlink:title=" ">
<polygon fill="none" stroke="black" points="8,-0.5 8,-30.5 160,-30.5 160,-0.5 8,-0.5"/>
<text text-anchor="start" x="16" y="-18.5" font-family="Helvetica,sans-Serif" font-size="10.00">RequestCreator::createUser</text>
<text text-anchor="middle" x="84" y="-7.5" font-family="Helvetica,sans-Serif" font-size="10.00">ListMessage</text>
</a>
</g>
</g>
<!-- Node1&#45;&gt;Node7 -->
<g id="edge6" class="edge">
<title>Node1&#45;&gt;Node7</title>
<path fill="none" stroke="midnightblue" d="M263.75,-120.25C243.77,-98.66 206.72,-61.92 168,-40.5 161.15,-36.71 153.66,-33.43 146.07,-30.61"/>
<polygon fill="midnightblue" stroke="midnightblue" points="261.22,-122.67 270.53,-127.72 266.4,-117.96 261.22,-122.67"/>
</g>
</g>
</svg>
