<?xml version="1.0" encoding="UTF-8" standalone="no"?>
<!DOCTYPE svg PUBLIC "-//W3C//DTD SVG 1.1//EN"
 "http://www.w3.org/Graphics/SVG/1.1/DTD/svg11.dtd">
<!-- Generated by graphviz version 2.43.0 (0)
 -->
<!-- Title: AbstractHandler::AbstractHandler Pages: 1 -->
<svg width="324pt" height="66pt"
 viewBox="0.00 0.00 324.00 66.00" xmlns="http://www.w3.org/2000/svg" xmlns:xlink="http://www.w3.org/1999/xlink">
<g id="graph0" class="graph" transform="scale(1 1) rotate(0) translate(4 62)">
<title>AbstractHandler::AbstractHandler</title>
<!-- Node1 -->
<g id="node1" class="node">
<title>Node1</title>
<g id="a_node1"><a xlink:title=" ">
<polygon fill="#bfbfbf" stroke="black" points="0,-14 0,-44 142,-44 142,-14 0,-14"/>
<text text-anchor="start" x="8" y="-32" font-family="Helvetica,sans-Serif" font-size="10.00">AbstractHandler::Abstract</text>
<text text-anchor="middle" x="71" y="-21" font-family="Helvetica,sans-Serif" font-size="10.00">Handler</text>
</a>
</g>
</g>
<!-- Node2 -->
<g id="node2" class="node">
<title>Node2</title>
<g id="a_node2"><a xlink:href="class_abstract_handler.html#aabbac3610a7ce5381d636f3245e6c23f" target="_top" xlink:title=" ">
<polygon fill="none" stroke="black" points="178,-38.5 178,-57.5 316,-57.5 316,-38.5 178,-38.5"/>
<text text-anchor="middle" x="247" y="-45.5" font-family="Helvetica,sans-Serif" font-size="10.00">AbstractHandler::destroy</text>
</a>
</g>
</g>
<!-- Node1&#45;&gt;Node2 -->
<g id="edge1" class="edge">
<title>Node1&#45;&gt;Node2</title>
<path fill="none" stroke="midnightblue" d="M142.02,-36.65C150.5,-37.57 159.21,-38.52 167.81,-39.46"/>
<polygon fill="midnightblue" stroke="midnightblue" points="167.5,-42.95 177.82,-40.55 168.26,-35.99 167.5,-42.95"/>
</g>
<!-- Node3 -->
<g id="node3" class="node">
<title>Node3</title>
<g id="a_node3"><a xlink:href="class_abstract_handler.html#a7b413fcadb6191294aa9d872b84f69ba" target="_top" xlink:title=" ">
<polygon fill="none" stroke="black" points="178.5,-0.5 178.5,-19.5 315.5,-19.5 315.5,-0.5 178.5,-0.5"/>
<text text-anchor="middle" x="247" y="-7.5" font-family="Helvetica,sans-Serif" font-size="10.00">AbstractHandler::receive</text>
</a>
</g>
</g>
<!-- Node1&#45;&gt;Node3 -->
<g id="edge2" class="edge">
<title>Node1&#45;&gt;Node3</title>
<path fill="none" stroke="midnightblue" d="M142.02,-21.35C150.64,-20.41 159.49,-19.45 168.22,-18.49"/>
<polygon fill="midnightblue" stroke="midnightblue" points="168.82,-21.95 178.38,-17.38 168.06,-14.99 168.82,-21.95"/>
</g>
</g>
</svg>
