<?xml version="1.0" encoding="UTF-8" standalone="no"?>
<!DOCTYPE svg PUBLIC "-//W3C//DTD SVG 1.1//EN"
 "http://www.w3.org/Graphics/SVG/1.1/DTD/svg11.dtd">
<!-- Generated by graphviz version 2.43.0 (0)
 -->
<!-- Title: AbstractHandler::getAccount Pages: 1 -->
<svg width="352pt" height="253pt"
 viewBox="0.00 0.00 352.00 252.50" xmlns="http://www.w3.org/2000/svg" xmlns:xlink="http://www.w3.org/1999/xlink">
<g id="graph0" class="graph" transform="scale(1 1) rotate(0) translate(4 248.5)">
<title>AbstractHandler::getAccount</title>
<!-- Node1 -->
<g id="node1" class="node">
<title>Node1</title>
<g id="a_node1"><a xlink:title=" ">
<polygon fill="#bfbfbf" stroke="black" points="188,-118 188,-137 344,-137 344,-118 188,-118"/>
<text text-anchor="middle" x="266" y="-125" font-family="Helvetica,sans-Serif" font-size="10.00">AbstractHandler::getAccount</text>
</a>
</g>
</g>
<!-- Node2 -->
<g id="node2" class="node">
<title>Node2</title>
<g id="a_node2"><a xlink:href="class_client_connection.html#a1cafa7ce29551be7ca4bde64ddbe67d6" target="_top" xlink:title=" ">
<polygon fill="none" stroke="black" points="4.5,-225 4.5,-244 147.5,-244 147.5,-225 4.5,-225"/>
<text text-anchor="middle" x="76" y="-232" font-family="Helvetica,sans-Serif" font-size="10.00">ClientConnection::destroy</text>
</a>
</g>
</g>
<!-- Node1&#45;&gt;Node2 -->
<g id="edge1" class="edge">
<title>Node1&#45;&gt;Node2</title>
<path fill="none" stroke="midnightblue" d="M248.31,-144.2C227.51,-164.07 190.06,-196.89 152,-215.5 144.16,-219.34 135.46,-222.45 126.85,-224.96"/>
<polygon fill="midnightblue" stroke="midnightblue" points="250.94,-146.52 255.67,-137.03 246.06,-141.5 250.94,-146.52"/>
</g>
<!-- Node3 -->
<g id="node3" class="node">
<title>Node3</title>
<g id="a_node3"><a xlink:href="class_clientside_handler.html#a5bdd771922c7f2468879c50a522bea5c" target="_top" xlink:title=" ">
<polygon fill="none" stroke="black" points="12,-187 12,-206 140,-206 140,-187 12,-187"/>
<text text-anchor="middle" x="76" y="-194" font-family="Helvetica,sans-Serif" font-size="10.00">ClientsideHandler::join</text>
</a>
</g>
</g>
<!-- Node1&#45;&gt;Node3 -->
<g id="edge2" class="edge">
<title>Node1&#45;&gt;Node3</title>
<path fill="none" stroke="midnightblue" d="M236.8,-141.57C214.25,-152.43 181.63,-167.27 152,-177.5 141.72,-181.05 130.43,-184.26 119.81,-186.98"/>
<polygon fill="midnightblue" stroke="midnightblue" points="238.34,-144.71 245.8,-137.19 235.28,-138.42 238.34,-144.71"/>
</g>
<!-- Node4 -->
<g id="node4" class="node">
<title>Node4</title>
<g id="a_node4"><a xlink:href="class_clientside_handler.html#af686e1838be32e7e98587449972df357" target="_top" xlink:title=" ">
<polygon fill="none" stroke="black" points="21,-137.5 21,-167.5 131,-167.5 131,-137.5 21,-137.5"/>
<text text-anchor="start" x="29" y="-155.5" font-family="Helvetica,sans-Serif" font-size="10.00">ClientsideHandler::</text>
<text text-anchor="middle" x="76" y="-144.5" font-family="Helvetica,sans-Serif" font-size="10.00">leave</text>
</a>
</g>
</g>
<!-- Node1&#45;&gt;Node4 -->
<g id="edge3" class="edge">
<title>Node1&#45;&gt;Node4</title>
<path fill="none" stroke="midnightblue" d="M183.12,-138.39C165.54,-140.73 147.38,-143.14 131.16,-145.3"/>
<polygon fill="midnightblue" stroke="midnightblue" points="183.94,-141.81 193.39,-137.02 183.01,-134.87 183.94,-141.81"/>
</g>
<!-- Node5 -->
<g id="node5" class="node">
<title>Node5</title>
<g id="a_node5"><a xlink:href="class_client_connection.html#a7ade2bca93315ab00a31bdbb9a03dd2f" target="_top" xlink:title=" ">
<polygon fill="none" stroke="black" points="0,-88.5 0,-118.5 152,-118.5 152,-88.5 0,-88.5"/>
<text text-anchor="start" x="8" y="-106.5" font-family="Helvetica,sans-Serif" font-size="10.00">ClientConnection::onPrivate</text>
<text text-anchor="middle" x="76" y="-95.5" font-family="Helvetica,sans-Serif" font-size="10.00">Message</text>
</a>
</g>
</g>
<!-- Node1&#45;&gt;Node5 -->
<g id="edge4" class="edge">
<title>Node1&#45;&gt;Node5</title>
<path fill="none" stroke="midnightblue" d="M180.29,-116.69C170.89,-115.49 161.37,-114.27 152.1,-113.09"/>
<polygon fill="midnightblue" stroke="midnightblue" points="180.06,-120.19 190.43,-117.98 180.95,-113.24 180.06,-120.19"/>
</g>
<!-- Node6 -->
<g id="node6" class="node">
<title>Node6</title>
<g id="a_node6"><a xlink:href="class_clientside_handler.html#ab6c9e09358e282f84043e708e9f6303d" target="_top" xlink:title=" ">
<polygon fill="none" stroke="black" points="9.5,-50 9.5,-69 142.5,-69 142.5,-50 9.5,-50"/>
<text text-anchor="middle" x="76" y="-57" font-family="Helvetica,sans-Serif" font-size="10.00">ClientsideHandler::send</text>
</a>
</g>
</g>
<!-- Node1&#45;&gt;Node6 -->
<g id="edge5" class="edge">
<title>Node1&#45;&gt;Node6</title>
<path fill="none" stroke="midnightblue" d="M235.58,-113.65C213.03,-103.37 180.97,-89.46 152,-79.5 140.79,-75.64 128.42,-72.08 117.02,-69.05"/>
<polygon fill="midnightblue" stroke="midnightblue" points="234.38,-116.95 244.92,-117.95 237.3,-110.59 234.38,-116.95"/>
</g>
<!-- Node7 -->
<g id="node7" class="node">
<title>Node7</title>
<g id="a_node7"><a xlink:href="class_clientside_handler.html#a2f98f88cd7ce79ddea8f3bc995981487" target="_top" xlink:title=" ">
<polygon fill="none" stroke="black" points="21,-0.5 21,-30.5 131,-30.5 131,-0.5 21,-0.5"/>
<text text-anchor="start" x="29" y="-18.5" font-family="Helvetica,sans-Serif" font-size="10.00">ClientsideHandler::</text>
<text text-anchor="middle" x="76" y="-7.5" font-family="Helvetica,sans-Serif" font-size="10.00">sendPrivate</text>
</a>
</g>
</g>
<!-- Node1&#45;&gt;Node7 -->
<g id="edge6" class="edge">
<title>Node1&#45;&gt;Node7</title>
<path fill="none" stroke="midnightblue" d="M247.37,-110.86C226.18,-91.63 188.86,-60.11 152,-40.5 144.97,-36.76 137.28,-33.43 129.58,-30.52"/>
<polygon fill="midnightblue" stroke="midnightblue" points="245.19,-113.62 254.92,-117.82 249.94,-108.47 245.19,-113.62"/>
</g>
</g>
</svg>
