<?xml version="1.0" encoding="UTF-8" standalone="no"?>
<!DOCTYPE svg PUBLIC "-//W3C//DTD SVG 1.1//EN"
 "http://www.w3.org/Graphics/SVG/1.1/DTD/svg11.dtd">
<!-- Generated by graphviz version 2.43.0 (0)
 -->
<!-- Title: Logger Pages: 1 -->
<svg width="246pt" height="237pt"
 viewBox="0.00 0.00 246.00 237.00" xmlns="http://www.w3.org/2000/svg" xmlns:xlink="http://www.w3.org/1999/xlink">
<g id="graph0" class="graph" transform="scale(1 1) rotate(0) translate(4 233)">
<title>Logger</title>
<!-- Node1 -->
<g id="node1" class="node">
<title>Node1</title>
<g id="a_node1"><a xlink:title=" ">
<polygon fill="#bfbfbf" stroke="black" points="64,-127.5 64,-228.5 174,-228.5 174,-127.5 64,-127.5"/>
<text text-anchor="middle" x="119" y="-216.5" font-family="Helvetica,sans-Serif" font-size="10.00">Logger</text>
<polyline fill="none" stroke="black" points="64,-209.5 174,-209.5 "/>
<text text-anchor="start" x="72" y="-197.5" font-family="Helvetica,sans-Serif" font-size="10.00"># instance</text>
<polyline fill="none" stroke="black" points="64,-190.5 174,-190.5 "/>
<text text-anchor="start" x="72" y="-178.5" font-family="Helvetica,sans-Serif" font-size="10.00">+ ~Logger()</text>
<text text-anchor="start" x="72" y="-167.5" font-family="Helvetica,sans-Serif" font-size="10.00">+ log()</text>
<text text-anchor="start" x="72" y="-156.5" font-family="Helvetica,sans-Serif" font-size="10.00">+ err()</text>
<text text-anchor="start" x="72" y="-145.5" font-family="Helvetica,sans-Serif" font-size="10.00"># getLogStream()</text>
<text text-anchor="start" x="72" y="-134.5" font-family="Helvetica,sans-Serif" font-size="10.00"># getErrorStream()</text>
</a>
</g>
</g>
<!-- Node2 -->
<g id="node2" class="node">
<title>Node2</title>
<g id="a_node2"><a xlink:href="class_debug_logger.html" target="_top" xlink:title=" ">
<polygon fill="none" stroke="black" points="0,-0.5 0,-90.5 110,-90.5 110,-0.5 0,-0.5"/>
<text text-anchor="middle" x="55" y="-78.5" font-family="Helvetica,sans-Serif" font-size="10.00">DebugLogger</text>
<polyline fill="none" stroke="black" points="0,-71.5 110,-71.5 "/>
<text text-anchor="middle" x="55" y="-59.5" font-family="Helvetica,sans-Serif" font-size="10.00"> </text>
<polyline fill="none" stroke="black" points="0,-52.5 110,-52.5 "/>
<text text-anchor="start" x="8" y="-40.5" font-family="Helvetica,sans-Serif" font-size="10.00">+ ~DebugLogger()</text>
<text text-anchor="start" x="8" y="-29.5" font-family="Helvetica,sans-Serif" font-size="10.00">+ initialize()</text>
<text text-anchor="start" x="8" y="-18.5" font-family="Helvetica,sans-Serif" font-size="10.00"># getLogStream()</text>
<text text-anchor="start" x="8" y="-7.5" font-family="Helvetica,sans-Serif" font-size="10.00"># getErrorStream()</text>
</a>
</g>
</g>
<!-- Node1&#45;&gt;Node2 -->
<g id="edge1" class="edge">
<title>Node1&#45;&gt;Node2</title>
<path fill="none" stroke="midnightblue" d="M90.11,-118.1C85.57,-108.83 80.93,-99.38 76.59,-90.52"/>
<polygon fill="none" stroke="midnightblue" points="87.08,-119.85 94.62,-127.29 93.36,-116.77 87.08,-119.85"/>
</g>
<!-- Node3 -->
<g id="node3" class="node">
<title>Node3</title>
<g id="a_node3"><a xlink:href="class_server_logger.html" target="_top" xlink:title=" ">
<polygon fill="none" stroke="black" points="128,-0.5 128,-90.5 238,-90.5 238,-0.5 128,-0.5"/>
<text text-anchor="middle" x="183" y="-78.5" font-family="Helvetica,sans-Serif" font-size="10.00">ServerLogger</text>
<polyline fill="none" stroke="black" points="128,-71.5 238,-71.5 "/>
<text text-anchor="middle" x="183" y="-59.5" font-family="Helvetica,sans-Serif" font-size="10.00"> </text>
<polyline fill="none" stroke="black" points="128,-52.5 238,-52.5 "/>
<text text-anchor="start" x="136" y="-40.5" font-family="Helvetica,sans-Serif" font-size="10.00">+ ~ServerLogger()</text>
<text text-anchor="start" x="136" y="-29.5" font-family="Helvetica,sans-Serif" font-size="10.00">+ initialize()</text>
<text text-anchor="start" x="136" y="-18.5" font-family="Helvetica,sans-Serif" font-size="10.00"># getLogStream()</text>
<text text-anchor="start" x="136" y="-7.5" font-family="Helvetica,sans-Serif" font-size="10.00"># getErrorStream()</text>
</a>
</g>
</g>
<!-- Node1&#45;&gt;Node3 -->
<g id="edge2" class="edge">
<title>Node1&#45;&gt;Node3</title>
<path fill="none" stroke="midnightblue" d="M147.89,-118.1C152.43,-108.83 157.07,-99.38 161.41,-90.52"/>
<polygon fill="none" stroke="midnightblue" points="144.64,-116.77 143.38,-127.29 150.92,-119.85 144.64,-116.77"/>
</g>
</g>
</svg>
