<?xml version="1.0" encoding="UTF-8" standalone="no"?>
<!DOCTYPE svg PUBLIC "-//W3C//DTD SVG 1.1//EN"
 "http://www.w3.org/Graphics/SVG/1.1/DTD/svg11.dtd">
<!-- Generated by graphviz version 2.43.0 (0)
 -->
<!-- Title: ClientConnection::onSignIn Pages: 1 -->
<svg width="362pt" height="154pt"
 viewBox="0.00 0.00 362.00 153.50" xmlns="http://www.w3.org/2000/svg" xmlns:xlink="http://www.w3.org/1999/xlink">
<g id="graph0" class="graph" transform="scale(1 1) rotate(0) translate(4 149.5)">
<title>ClientConnection::onSignIn</title>
<!-- Node1 -->
<g id="node1" class="node">
<title>Node1</title>
<g id="a_node1"><a xlink:title=" ">
<polygon fill="#bfbfbf" stroke="black" points="0,-69 0,-88 148,-88 148,-69 0,-69"/>
<text text-anchor="middle" x="74" y="-76" font-family="Helvetica,sans-Serif" font-size="10.00">ClientConnection::onSignIn</text>
</a>
</g>
</g>
<!-- Node2 -->
<g id="node2" class="node">
<title>Node2</title>
<g id="a_node2"><a xlink:href="class_accounts_database.html#a75dbfe7e8f9f5b7f534c630d4a25ce3a" target="_top" xlink:title=" ">
<polygon fill="none" stroke="black" points="184,-126 184,-145 354,-145 354,-126 184,-126"/>
<text text-anchor="middle" x="269" y="-133" font-family="Helvetica,sans-Serif" font-size="10.00">AccountsDatabase::getInstance</text>
</a>
</g>
</g>
<!-- Node1&#45;&gt;Node2 -->
<g id="edge1" class="edge">
<title>Node1&#45;&gt;Node2</title>
<path fill="none" stroke="midnightblue" d="M99.85,-88.07C121.78,-96.29 154.72,-108.11 184,-116.5 192.87,-119.04 202.34,-121.46 211.61,-123.67"/>
<polygon fill="midnightblue" stroke="midnightblue" points="211.02,-127.12 221.55,-125.98 212.6,-120.3 211.02,-127.12"/>
</g>
<!-- Node3 -->
<g id="node3" class="node">
<title>Node3</title>
<g id="a_node3"><a xlink:href="class_abstract_handler.html#a82f8032708b203d7a34ec50baee76308" target="_top" xlink:title=" ">
<polygon fill="none" stroke="black" points="187,-88 187,-107 351,-107 351,-88 187,-88"/>
<text text-anchor="middle" x="269" y="-95" font-family="Helvetica,sans-Serif" font-size="10.00">AbstractHandler::sendRequest</text>
</a>
</g>
</g>
<!-- Node1&#45;&gt;Node3 -->
<g id="edge2" class="edge">
<title>Node1&#45;&gt;Node3</title>
<path fill="none" stroke="midnightblue" d="M148.24,-85.71C157.48,-86.62 167.02,-87.56 176.5,-88.49"/>
<polygon fill="midnightblue" stroke="midnightblue" points="176.45,-92 186.75,-89.5 177.14,-85.04 176.45,-92"/>
</g>
<!-- Node4 -->
<g id="node4" class="node">
<title>Node4</title>
<g id="a_node4"><a xlink:href="class_abstract_handler.html#a7f60c81f99a9515ceb8f3db7945028d8" target="_top" xlink:title=" ">
<polygon fill="none" stroke="black" points="191.5,-50 191.5,-69 346.5,-69 346.5,-50 191.5,-50"/>
<text text-anchor="middle" x="269" y="-57" font-family="Helvetica,sans-Serif" font-size="10.00">AbstractHandler::setAccount</text>
</a>
</g>
</g>
<!-- Node1&#45;&gt;Node4 -->
<g id="edge3" class="edge">
<title>Node1&#45;&gt;Node4</title>
<path fill="none" stroke="midnightblue" d="M148.24,-71.29C159.02,-70.23 170.21,-69.13 181.22,-68.04"/>
<polygon fill="midnightblue" stroke="midnightblue" points="181.67,-71.52 191.28,-67.05 180.98,-64.55 181.67,-71.52"/>
</g>
<!-- Node5 -->
<g id="node5" class="node">
<title>Node5</title>
<g id="a_node5"><a xlink:href="class_serverside_handler.html#a53474158bff753a23042fec48b1c498a" target="_top" xlink:title=" ">
<polygon fill="none" stroke="black" points="212.5,-0.5 212.5,-30.5 325.5,-30.5 325.5,-0.5 212.5,-0.5"/>
<text text-anchor="start" x="220.5" y="-18.5" font-family="Helvetica,sans-Serif" font-size="10.00">ServersideHandler::</text>
<text text-anchor="middle" x="269" y="-7.5" font-family="Helvetica,sans-Serif" font-size="10.00">sharedFromThis</text>
</a>
</g>
</g>
<!-- Node1&#45;&gt;Node5 -->
<g id="edge4" class="edge">
<title>Node1&#45;&gt;Node5</title>
<path fill="none" stroke="midnightblue" d="M101.32,-68.94C123.32,-61.04 155.58,-49.68 184,-40.5 191.15,-38.19 198.66,-35.84 206.14,-33.56"/>
<polygon fill="midnightblue" stroke="midnightblue" points="207.35,-36.85 215.91,-30.6 205.32,-30.15 207.35,-36.85"/>
</g>
</g>
</svg>
