<?xml version="1.0" encoding="UTF-8" standalone="no"?>
<!DOCTYPE svg PUBLIC "-//W3C//DTD SVG 1.1//EN"
 "http://www.w3.org/Graphics/SVG/1.1/DTD/svg11.dtd">
<!-- Generated by graphviz version 2.43.0 (0)
 -->
<!-- Title: MessagesBuilder::createBase Pages: 1 -->
<svg width="373pt" height="382pt"
 viewBox="0.00 0.00 373.00 382.00" xmlns="http://www.w3.org/2000/svg" xmlns:xlink="http://www.w3.org/1999/xlink">
<g id="graph0" class="graph" transform="scale(1 1) rotate(0) translate(4 378)">
<title>MessagesBuilder::createBase</title>
<!-- Node1 -->
<g id="node1" class="node">
<title>Node1</title>
<g id="a_node1"><a xlink:title=" ">
<polygon fill="#bfbfbf" stroke="black" points="204,-177 204,-196 365,-196 365,-177 204,-177"/>
<text text-anchor="middle" x="284.5" y="-184" font-family="Helvetica,sans-Serif" font-size="10.00">MessagesBuilder::createBase</text>
</a>
</g>
</g>
<!-- Node2 -->
<g id="node2" class="node">
<title>Node2</title>
<g id="a_node2"><a xlink:href="class_request_creator.html#ab1e286d57e3bbb67d952397e832dfe35" target="_top" xlink:title=" ">
<polygon fill="none" stroke="black" points="8,-343.5 8,-373.5 160,-373.5 160,-343.5 8,-343.5"/>
<text text-anchor="start" x="16" y="-361.5" font-family="Helvetica,sans-Serif" font-size="10.00">RequestCreator::createChat</text>
<text text-anchor="middle" x="84" y="-350.5" font-family="Helvetica,sans-Serif" font-size="10.00">Message</text>
</a>
</g>
</g>
<!-- Node1&#45;&gt;Node2 -->
<g id="edge1" class="edge">
<title>Node1&#45;&gt;Node2</title>
<path fill="none" stroke="midnightblue" d="M274.04,-205.17C257.12,-236.65 218.67,-300.22 168,-334.5 162.91,-337.95 157.32,-340.9 151.52,-343.44"/>
<polygon fill="midnightblue" stroke="midnightblue" points="277.22,-206.63 278.76,-196.15 271.02,-203.39 277.22,-206.63"/>
</g>
<!-- Node3 -->
<g id="node3" class="node">
<title>Node3</title>
<g id="a_node3"><a xlink:href="class_request_creator.html#a8e3a2c9b3071c84deec963576f116d1d" target="_top" xlink:title=" ">
<polygon fill="none" stroke="black" points="8,-294.5 8,-324.5 160,-324.5 160,-294.5 8,-294.5"/>
<text text-anchor="start" x="16" y="-312.5" font-family="Helvetica,sans-Serif" font-size="10.00">RequestCreator::createError</text>
<text text-anchor="middle" x="84" y="-301.5" font-family="Helvetica,sans-Serif" font-size="10.00">Message</text>
</a>
</g>
</g>
<!-- Node1&#45;&gt;Node3 -->
<g id="edge2" class="edge">
<title>Node1&#45;&gt;Node3</title>
<path fill="none" stroke="midnightblue" d="M267.91,-203.82C247.17,-225.87 208.39,-263.69 168,-285.5 161.66,-288.92 154.79,-291.9 147.79,-294.49"/>
<polygon fill="midnightblue" stroke="midnightblue" points="270.73,-205.93 274.95,-196.21 265.59,-201.18 270.73,-205.93"/>
</g>
<!-- Node4 -->
<g id="node4" class="node">
<title>Node4</title>
<g id="a_node4"><a xlink:href="class_request_creator.html#ab5e561064fa3343725110f627ad6fad6" target="_top" xlink:title=" ">
<polygon fill="none" stroke="black" points="2,-245.5 2,-275.5 166,-275.5 166,-245.5 2,-245.5"/>
<text text-anchor="start" x="10" y="-263.5" font-family="Helvetica,sans-Serif" font-size="10.00">RequestCreator::createHistory</text>
<text text-anchor="middle" x="84" y="-252.5" font-family="Helvetica,sans-Serif" font-size="10.00">Message</text>
</a>
</g>
</g>
<!-- Node1&#45;&gt;Node4 -->
<g id="edge3" class="edge">
<title>Node1&#45;&gt;Node4</title>
<path fill="none" stroke="midnightblue" d="M254.12,-200.45C231.02,-211.12 197.87,-225.77 168,-236.5 159.25,-239.65 149.87,-242.67 140.67,-245.46"/>
<polygon fill="midnightblue" stroke="midnightblue" points="255.78,-203.54 263.37,-196.15 252.82,-197.19 255.78,-203.54"/>
</g>
<!-- Node5 -->
<g id="node5" class="node">
<title>Node5</title>
<g id="a_node5"><a xlink:href="class_request_creator.html#ad97ab51d248f013bc6e92d5695afe307" target="_top" xlink:title=" ">
<polygon fill="none" stroke="black" points="10,-196.5 10,-226.5 158,-226.5 158,-196.5 10,-196.5"/>
<text text-anchor="start" x="18" y="-214.5" font-family="Helvetica,sans-Serif" font-size="10.00">RequestCreator::createInfo</text>
<text text-anchor="middle" x="84" y="-203.5" font-family="Helvetica,sans-Serif" font-size="10.00">Message</text>
</a>
</g>
</g>
<!-- Node1&#45;&gt;Node5 -->
<g id="edge4" class="edge">
<title>Node1&#45;&gt;Node5</title>
<path fill="none" stroke="midnightblue" d="M197.85,-197.29C184.61,-198.96 171.04,-200.66 158.11,-202.29"/>
<polygon fill="midnightblue" stroke="midnightblue" points="198.41,-200.74 207.89,-196.02 197.53,-193.8 198.41,-200.74"/>
</g>
<!-- Node6 -->
<g id="node6" class="node">
<title>Node6</title>
<g id="a_node6"><a xlink:href="class_request_creator.html#ac003f7f8344e8c6ca62440b0a3af490e" target="_top" xlink:title=" ">
<polygon fill="none" stroke="black" points="10.5,-147.5 10.5,-177.5 157.5,-177.5 157.5,-147.5 10.5,-147.5"/>
<text text-anchor="start" x="18.5" y="-165.5" font-family="Helvetica,sans-Serif" font-size="10.00">RequestCreator::createJoin</text>
<text text-anchor="middle" x="84" y="-154.5" font-family="Helvetica,sans-Serif" font-size="10.00">Message</text>
</a>
</g>
</g>
<!-- Node1&#45;&gt;Node6 -->
<g id="edge5" class="edge">
<title>Node1&#45;&gt;Node6</title>
<path fill="none" stroke="midnightblue" d="M194.82,-175.78C182.34,-174.27 169.64,-172.73 157.51,-171.27"/>
<polygon fill="midnightblue" stroke="midnightblue" points="194.41,-179.25 204.76,-176.98 195.25,-172.3 194.41,-179.25"/>
</g>
<!-- Node7 -->
<g id="node7" class="node">
<title>Node7</title>
<g id="a_node7"><a xlink:href="class_request_creator.html#a925f578838354af5563c1585403dce4d" target="_top" xlink:title=" ">
<polygon fill="none" stroke="black" points="5,-98.5 5,-128.5 163,-128.5 163,-98.5 5,-98.5"/>
<text text-anchor="start" x="13" y="-116.5" font-family="Helvetica,sans-Serif" font-size="10.00">RequestCreator::createLeave</text>
<text text-anchor="middle" x="84" y="-105.5" font-family="Helvetica,sans-Serif" font-size="10.00">Message</text>
</a>
</g>
</g>
<!-- Node1&#45;&gt;Node7 -->
<g id="edge6" class="edge">
<title>Node1&#45;&gt;Node7</title>
<path fill="none" stroke="midnightblue" d="M252.76,-172.73C229.68,-162.63 197.16,-148.92 168,-138.5 158.36,-135.06 147.99,-131.68 137.95,-128.57"/>
<polygon fill="midnightblue" stroke="midnightblue" points="251.48,-175.99 262.04,-176.81 254.3,-169.58 251.48,-175.99"/>
</g>
<!-- Node8 -->
<g id="node8" class="node">
<title>Node8</title>
<g id="a_node8"><a xlink:href="class_request_creator.html#a4800733c4f35f5bec150468c78979a58" target="_top" xlink:title=" ">
<polygon fill="none" stroke="black" points="0,-49.5 0,-79.5 168,-79.5 168,-49.5 0,-49.5"/>
<text text-anchor="start" x="8" y="-67.5" font-family="Helvetica,sans-Serif" font-size="10.00">RequestCreator::createManage</text>
<text text-anchor="middle" x="84" y="-56.5" font-family="Helvetica,sans-Serif" font-size="10.00">Message</text>
</a>
</g>
</g>
<!-- Node1&#45;&gt;Node8 -->
<g id="edge7" class="edge">
<title>Node1&#45;&gt;Node8</title>
<path fill="none" stroke="midnightblue" d="M267.48,-169.28C246.55,-147.73 207.83,-111.03 168,-89.5 160.98,-85.71 153.31,-82.41 145.56,-79.57"/>
<polygon fill="midnightblue" stroke="midnightblue" points="265.17,-171.92 274.6,-176.74 270.23,-167.09 265.17,-171.92"/>
</g>
<!-- Node9 -->
<g id="node9" class="node">
<title>Node9</title>
<g id="a_node9"><a xlink:href="class_request_creator.html#a45363fa936dc76946bbcc3095c8562d3" target="_top" xlink:title=" ">
<polygon fill="none" stroke="black" points="8,-0.5 8,-30.5 160,-30.5 160,-0.5 8,-0.5"/>
<text text-anchor="start" x="16" y="-18.5" font-family="Helvetica,sans-Serif" font-size="10.00">RequestCreator::createUser</text>
<text text-anchor="middle" x="84" y="-7.5" font-family="Helvetica,sans-Serif" font-size="10.00">ListMessage</text>
</a>
</g>
</g>
<!-- Node1&#45;&gt;Node9 -->
<g id="edge8" class="edge">
<title>Node1&#45;&gt;Node9</title>
<path fill="none" stroke="midnightblue" d="M273.68,-167.7C256.48,-136.58 217.93,-74.44 168,-40.5 162.27,-36.61 155.93,-33.31 149.37,-30.51"/>
<polygon fill="midnightblue" stroke="midnightblue" points="270.68,-169.5 278.51,-176.63 276.84,-166.17 270.68,-169.5"/>
</g>
</g>
</svg>
