<?xml version="1.0" encoding="UTF-8" standalone="no"?>
<!DOCTYPE svg PUBLIC "-//W3C//DTD SVG 1.1//EN"
 "http://www.w3.org/Graphics/SVG/1.1/DTD/svg11.dtd">
<!-- Generated by graphviz version 2.43.0 (0)
 -->
<!-- Title: TextDecorator Pages: 1 -->
<svg width="149pt" height="607pt"
 viewBox="0.00 0.00 149.00 607.00" xmlns="http://www.w3.org/2000/svg" xmlns:xlink="http://www.w3.org/1999/xlink">
<g id="graph0" class="graph" transform="scale(1 1) rotate(0) translate(4 603)">
<title>TextDecorator</title>
<!-- Node1 -->
<g id="node1" class="node">
<title>Node1</title>
<g id="a_node1"><a xlink:title=" ">
<polygon fill="#bfbfbf" stroke="black" points="14.5,-0.5 14.5,-101.5 126.5,-101.5 126.5,-0.5 14.5,-0.5"/>
<text text-anchor="middle" x="70.5" y="-89.5" font-family="Helvetica,sans-Serif" font-size="10.00">TextDecorator</text>
<polyline fill="none" stroke="black" points="14.5,-82.5 126.5,-82.5 "/>
<text text-anchor="middle" x="70.5" y="-70.5" font-family="Helvetica,sans-Serif" font-size="10.00"> </text>
<polyline fill="none" stroke="black" points="14.5,-63.5 126.5,-63.5 "/>
<text text-anchor="start" x="22.5" y="-51.5" font-family="Helvetica,sans-Serif" font-size="10.00">+ TextDecorator()</text>
<text text-anchor="start" x="22.5" y="-40.5" font-family="Helvetica,sans-Serif" font-size="10.00">+ ~TextDecorator()</text>
<text text-anchor="start" x="22.5" y="-29.5" font-family="Helvetica,sans-Serif" font-size="10.00">+ getQuery()</text>
<text text-anchor="start" x="22.5" y="-18.5" font-family="Helvetica,sans-Serif" font-size="10.00">+ handle()</text>
<text text-anchor="start" x="22.5" y="-7.5" font-family="Helvetica,sans-Serif" font-size="10.00">+ getText()</text>
</a>
</g>
</g>
<!-- Node2 -->
<g id="node2" class="node">
<title>Node2</title>
<g id="a_node2"><a xlink:href="class_properties_decorator.html" target="_top" xlink:title=" ">
<polygon fill="none" stroke="black" points="0,-138.5 0,-261.5 141,-261.5 141,-138.5 0,-138.5"/>
<text text-anchor="middle" x="70.5" y="-249.5" font-family="Helvetica,sans-Serif" font-size="10.00">PropertiesDecorator</text>
<polyline fill="none" stroke="black" points="0,-242.5 141,-242.5 "/>
<text text-anchor="start" x="8" y="-230.5" font-family="Helvetica,sans-Serif" font-size="10.00"># wrapper</text>
<polyline fill="none" stroke="black" points="0,-223.5 141,-223.5 "/>
<text text-anchor="start" x="8" y="-211.5" font-family="Helvetica,sans-Serif" font-size="10.00">+ PropertiesDecorator()</text>
<text text-anchor="start" x="8" y="-200.5" font-family="Helvetica,sans-Serif" font-size="10.00">+ ~PropertiesDecorator()</text>
<text text-anchor="start" x="8" y="-189.5" font-family="Helvetica,sans-Serif" font-size="10.00">+ getRoom()</text>
<text text-anchor="start" x="8" y="-178.5" font-family="Helvetica,sans-Serif" font-size="10.00">+ getType()</text>
<text text-anchor="start" x="8" y="-167.5" font-family="Helvetica,sans-Serif" font-size="10.00">+ getQuery()</text>
<text text-anchor="start" x="8" y="-156.5" font-family="Helvetica,sans-Serif" font-size="10.00">+ handle()</text>
<text text-anchor="start" x="8" y="-145.5" font-family="Helvetica,sans-Serif" font-size="10.00">+ handle()</text>
</a>
</g>
</g>
<!-- Node2&#45;&gt;Node1 -->
<g id="edge1" class="edge">
<title>Node2&#45;&gt;Node1</title>
<path fill="none" stroke="midnightblue" d="M70.5,-128.29C70.5,-119.32 70.5,-110.3 70.5,-101.76"/>
<polygon fill="none" stroke="midnightblue" points="67,-128.36 70.5,-138.36 74,-128.36 67,-128.36"/>
</g>
<!-- Node3 -->
<g id="node3" class="node">
<title>Node3</title>
<g id="a_node3"><a xlink:href="class_message.html" target="_top" xlink:title=" ">
<polygon fill="none" stroke="black" points="27,-298.5 27,-377.5 114,-377.5 114,-298.5 27,-298.5"/>
<text text-anchor="middle" x="70.5" y="-365.5" font-family="Helvetica,sans-Serif" font-size="10.00">Message</text>
<polyline fill="none" stroke="black" points="27,-358.5 114,-358.5 "/>
<text text-anchor="middle" x="70.5" y="-346.5" font-family="Helvetica,sans-Serif" font-size="10.00"> </text>
<polyline fill="none" stroke="black" points="27,-339.5 114,-339.5 "/>
<text text-anchor="start" x="35" y="-327.5" font-family="Helvetica,sans-Serif" font-size="10.00">+ ~Message()</text>
<text text-anchor="start" x="35" y="-316.5" font-family="Helvetica,sans-Serif" font-size="10.00">+ getRoom()</text>
<text text-anchor="start" x="35" y="-305.5" font-family="Helvetica,sans-Serif" font-size="10.00">+ getType()</text>
</a>
</g>
</g>
<!-- Node3&#45;&gt;Node2 -->
<g id="edge2" class="edge">
<title>Node3&#45;&gt;Node2</title>
<path fill="none" stroke="midnightblue" d="M70.5,-288.14C70.5,-279.53 70.5,-270.47 70.5,-261.57"/>
<polygon fill="none" stroke="midnightblue" points="67,-288.39 70.5,-298.39 74,-288.39 67,-288.39"/>
</g>
<!-- Node4 -->
<g id="node4" class="node">
<title>Node4</title>
<g id="a_node4"><a xlink:href="class_request.html" target="_top" xlink:title=" ">
<polygon fill="none" stroke="black" points="30.5,-414.5 30.5,-493.5 110.5,-493.5 110.5,-414.5 30.5,-414.5"/>
<text text-anchor="middle" x="70.5" y="-481.5" font-family="Helvetica,sans-Serif" font-size="10.00">Request</text>
<polyline fill="none" stroke="black" points="30.5,-474.5 110.5,-474.5 "/>
<text text-anchor="start" x="38.5" y="-462.5" font-family="Helvetica,sans-Serif" font-size="10.00">+ separator</text>
<polyline fill="none" stroke="black" points="30.5,-455.5 110.5,-455.5 "/>
<text text-anchor="start" x="38.5" y="-443.5" font-family="Helvetica,sans-Serif" font-size="10.00">+ getQuery()</text>
<text text-anchor="start" x="38.5" y="-432.5" font-family="Helvetica,sans-Serif" font-size="10.00">+ handle()</text>
<text text-anchor="start" x="38.5" y="-421.5" font-family="Helvetica,sans-Serif" font-size="10.00">+ handle()</text>
</a>
</g>
</g>
<!-- Node4&#45;&gt;Node3 -->
<g id="edge3" class="edge">
<title>Node4&#45;&gt;Node3</title>
<path fill="none" stroke="midnightblue" d="M70.5,-404.15C70.5,-395.26 70.5,-386.1 70.5,-377.56"/>
<polygon fill="none" stroke="midnightblue" points="67,-404.4 70.5,-414.4 74,-404.4 67,-404.4"/>
</g>
<!-- Node5 -->
<g id="node5" class="node">
<title>Node5</title>
<g id="a_node5"><a xlink:title=" ">
<polygon fill="none" stroke="black" points="5,-530.5 5,-598.5 136,-598.5 136,-530.5 5,-530.5"/>
<text text-anchor="start" x="13" y="-586.5" font-family="Helvetica,sans-Serif" font-size="10.00">std::enable_shared</text>
<text text-anchor="middle" x="70.5" y="-575.5" font-family="Helvetica,sans-Serif" font-size="10.00">_from_this&lt; Request &gt;</text>
<polyline fill="none" stroke="black" points="5,-568.5 136,-568.5 "/>
<text text-anchor="middle" x="70.5" y="-556.5" font-family="Helvetica,sans-Serif" font-size="10.00"> </text>
<polyline fill="none" stroke="black" points="5,-549.5 136,-549.5 "/>
<text text-anchor="middle" x="70.5" y="-537.5" font-family="Helvetica,sans-Serif" font-size="10.00"> </text>
</a>
</g>
</g>
<!-- Node5&#45;&gt;Node4 -->
<g id="edge4" class="edge">
<title>Node5&#45;&gt;Node4</title>
<path fill="none" stroke="midnightblue" d="M70.5,-520.27C70.5,-511.48 70.5,-502.28 70.5,-493.65"/>
<polygon fill="none" stroke="midnightblue" points="67,-520.36 70.5,-530.36 74,-520.36 67,-520.36"/>
</g>
</g>
</svg>
