<?xml version="1.0" encoding="UTF-8" standalone="no"?>
<!DOCTYPE svg PUBLIC "-//W3C//DTD SVG 1.1//EN"
 "http://www.w3.org/Graphics/SVG/1.1/DTD/svg11.dtd">
<!-- Generated by graphviz version 2.43.0 (0)
 -->
<!-- Title: RequestCreator::createJoinMessage Pages: 1 -->
<svg width="519pt" height="180pt"
 viewBox="0.00 0.00 519.00 180.00" xmlns="http://www.w3.org/2000/svg" xmlns:xlink="http://www.w3.org/1999/xlink">
<g id="graph0" class="graph" transform="scale(1 1) rotate(0) translate(4 176)">
<title>RequestCreator::createJoinMessage</title>
<!-- Node1 -->
<g id="node1" class="node">
<title>Node1</title>
<g id="a_node1"><a xlink:title=" ">
<polygon fill="#bfbfbf" stroke="black" points="0,-71 0,-101 147,-101 147,-71 0,-71"/>
<text text-anchor="start" x="8" y="-89" font-family="Helvetica,sans-Serif" font-size="10.00">RequestCreator::createJoin</text>
<text text-anchor="middle" x="73.5" y="-78" font-family="Helvetica,sans-Serif" font-size="10.00">Message</text>
</a>
</g>
</g>
<!-- Node2 -->
<g id="node2" class="node">
<title>Node2</title>
<g id="a_node2"><a xlink:href="class_messages_builder.html#a69979c6d037ca2e726c4efe773a39838" target="_top" xlink:title=" ">
<polygon fill="none" stroke="black" points="187.5,-152.5 187.5,-171.5 339.5,-171.5 339.5,-152.5 187.5,-152.5"/>
<text text-anchor="middle" x="263.5" y="-159.5" font-family="Helvetica,sans-Serif" font-size="10.00">MessagesBuilder::addRoom</text>
</a>
</g>
</g>
<!-- Node1&#45;&gt;Node2 -->
<g id="edge1" class="edge">
<title>Node1&#45;&gt;Node2</title>
<path fill="none" stroke="midnightblue" d="M99.1,-101.2C120.58,-113.9 152.92,-131.71 183,-143 189.76,-145.54 196.97,-147.82 204.19,-149.84"/>
<polygon fill="midnightblue" stroke="midnightblue" points="203.43,-153.26 213.99,-152.44 205.23,-146.49 203.43,-153.26"/>
</g>
<!-- Node3 -->
<g id="node3" class="node">
<title>Node3</title>
<g id="a_node3"><a xlink:href="class_messages_builder.html#add29ccacfe77798ccba4874d453e2866" target="_top" xlink:title=" ">
<polygon fill="none" stroke="black" points="184.5,-114.5 184.5,-133.5 342.5,-133.5 342.5,-114.5 184.5,-114.5"/>
<text text-anchor="middle" x="263.5" y="-121.5" font-family="Helvetica,sans-Serif" font-size="10.00">MessagesBuilder::addSender</text>
</a>
</g>
</g>
<!-- Node1&#45;&gt;Node3 -->
<g id="edge2" class="edge">
<title>Node1&#45;&gt;Node3</title>
<path fill="none" stroke="midnightblue" d="M147.19,-100.69C166.45,-104.59 186.98,-108.74 205.3,-112.44"/>
<polygon fill="midnightblue" stroke="midnightblue" points="204.73,-115.89 215.22,-114.44 206.11,-109.03 204.73,-115.89"/>
</g>
<!-- Node4 -->
<g id="node4" class="node">
<title>Node4</title>
<g id="a_node4"><a xlink:href="class_messages_builder.html#a1b5f9a7c81a89eb059d80baf47abec67" target="_top" xlink:title=" ">
<polygon fill="none" stroke="black" points="189,-76.5 189,-95.5 338,-95.5 338,-76.5 189,-76.5"/>
<text text-anchor="middle" x="263.5" y="-83.5" font-family="Helvetica,sans-Serif" font-size="10.00">MessagesBuilder::addTime</text>
</a>
</g>
</g>
<!-- Node1&#45;&gt;Node4 -->
<g id="edge3" class="edge">
<title>Node1&#45;&gt;Node4</title>
<path fill="none" stroke="midnightblue" d="M147.19,-86C157.52,-86 168.22,-86 178.75,-86"/>
<polygon fill="midnightblue" stroke="midnightblue" points="178.77,-89.5 188.77,-86 178.77,-82.5 178.77,-89.5"/>
</g>
<!-- Node5 -->
<g id="node5" class="node">
<title>Node5</title>
<g id="a_node5"><a xlink:href="class_messages_builder.html#a065b4cd61b4cc1b5c8022f3220d82e82" target="_top" xlink:title=" ">
<polygon fill="none" stroke="black" points="183,-38.5 183,-57.5 344,-57.5 344,-38.5 183,-38.5"/>
<text text-anchor="middle" x="263.5" y="-45.5" font-family="Helvetica,sans-Serif" font-size="10.00">MessagesBuilder::createBase</text>
</a>
</g>
</g>
<!-- Node1&#45;&gt;Node5 -->
<g id="edge4" class="edge">
<title>Node1&#45;&gt;Node5</title>
<path fill="none" stroke="midnightblue" d="M147.19,-71.31C166.45,-67.41 186.98,-63.26 205.3,-59.56"/>
<polygon fill="midnightblue" stroke="midnightblue" points="206.11,-62.97 215.22,-57.56 204.73,-56.11 206.11,-62.97"/>
</g>
<!-- Node6 -->
<g id="node6" class="node">
<title>Node6</title>
<g id="a_node6"><a xlink:href="class_messages_builder.html#a29c0637d98e0cd5c7b7f0a969fda5415" target="_top" xlink:title=" ">
<polygon fill="none" stroke="black" points="187.5,-0.5 187.5,-19.5 339.5,-19.5 339.5,-0.5 187.5,-0.5"/>
<text text-anchor="middle" x="263.5" y="-7.5" font-family="Helvetica,sans-Serif" font-size="10.00">MessagesBuilder::getResult</text>
</a>
</g>
</g>
<!-- Node1&#45;&gt;Node6 -->
<g id="edge5" class="edge">
<title>Node1&#45;&gt;Node6</title>
<path fill="none" stroke="midnightblue" d="M99.1,-70.8C120.58,-58.1 152.92,-40.29 183,-29 189.76,-26.46 196.97,-24.18 204.19,-22.16"/>
<polygon fill="midnightblue" stroke="midnightblue" points="205.23,-25.51 213.99,-19.56 203.43,-18.74 205.23,-25.51"/>
</g>
<!-- Node7 -->
<g id="node7" class="node">
<title>Node7</title>
<g id="a_node7"><a xlink:href="class_messages_builder.html#a2d739aa30b5c0109d8ac4acae3c85ce1" target="_top" xlink:title=" ">
<polygon fill="none" stroke="black" points="380,-0.5 380,-19.5 511,-19.5 511,-0.5 380,-0.5"/>
<text text-anchor="middle" x="445.5" y="-7.5" font-family="Helvetica,sans-Serif" font-size="10.00">MessagesBuilder::reset</text>
</a>
</g>
</g>
<!-- Node6&#45;&gt;Node7 -->
<g id="edge6" class="edge">
<title>Node6&#45;&gt;Node7</title>
<path fill="none" stroke="midnightblue" d="M339.53,-10C349.48,-10 359.69,-10 369.64,-10"/>
<polygon fill="midnightblue" stroke="midnightblue" points="369.89,-13.5 379.89,-10 369.89,-6.5 369.89,-13.5"/>
</g>
</g>
</svg>
