<?xml version="1.0" encoding="UTF-8" standalone="no"?>
<!DOCTYPE svg PUBLIC "-//W3C//DTD SVG 1.1//EN"
 "http://www.w3.org/Graphics/SVG/1.1/DTD/svg11.dtd">
<!-- Generated by graphviz version 2.43.0 (0)
 -->
<!-- Title: ClientConnection::onPrivateMessage Pages: 1 -->
<svg width="366pt" height="142pt"
 viewBox="0.00 0.00 366.00 142.00" xmlns="http://www.w3.org/2000/svg" xmlns:xlink="http://www.w3.org/1999/xlink">
<g id="graph0" class="graph" transform="scale(1 1) rotate(0) translate(4 138)">
<title>ClientConnection::onPrivateMessage</title>
<!-- Node1 -->
<g id="node1" class="node">
<title>Node1</title>
<g id="a_node1"><a xlink:title=" ">
<polygon fill="#bfbfbf" stroke="black" points="0,-52 0,-82 152,-82 152,-52 0,-52"/>
<text text-anchor="start" x="8" y="-70" font-family="Helvetica,sans-Serif" font-size="10.00">ClientConnection::onPrivate</text>
<text text-anchor="middle" x="76" y="-59" font-family="Helvetica,sans-Serif" font-size="10.00">Message</text>
</a>
</g>
</g>
<!-- Node2 -->
<g id="node2" class="node">
<title>Node2</title>
<g id="a_node2"><a xlink:href="class_abstract_handler.html#a6f2dfd10db9c49e2ce25163868593994" target="_top" xlink:title=" ">
<polygon fill="none" stroke="black" points="195,-114.5 195,-133.5 351,-133.5 351,-114.5 195,-114.5"/>
<text text-anchor="middle" x="273" y="-121.5" font-family="Helvetica,sans-Serif" font-size="10.00">AbstractHandler::getAccount</text>
</a>
</g>
</g>
<!-- Node1&#45;&gt;Node2 -->
<g id="edge1" class="edge">
<title>Node1&#45;&gt;Node2</title>
<path fill="none" stroke="midnightblue" d="M117.53,-82.04C138.41,-89.5 164.39,-98.31 188,-105 196.87,-107.51 206.35,-109.92 215.62,-112.12"/>
<polygon fill="midnightblue" stroke="midnightblue" points="215.03,-115.58 225.56,-114.43 216.61,-108.76 215.03,-115.58"/>
</g>
<!-- Node3 -->
<g id="node3" class="node">
<title>Node3</title>
<g id="a_node3"><a xlink:href="class_permissions_bank.html#a6c24fa8d2d766281d3be51f6ec79c0cd" target="_top" xlink:title=" ">
<polygon fill="none" stroke="black" points="191,-76.5 191,-95.5 355,-95.5 355,-76.5 191,-76.5"/>
<text text-anchor="middle" x="273" y="-83.5" font-family="Helvetica,sans-Serif" font-size="10.00">PermissionsBank::getInstance</text>
</a>
</g>
</g>
<!-- Node1&#45;&gt;Node3 -->
<g id="edge2" class="edge">
<title>Node1&#45;&gt;Node3</title>
<path fill="none" stroke="midnightblue" d="M152.11,-74.32C161.51,-75.23 171.2,-76.18 180.81,-77.11"/>
<polygon fill="midnightblue" stroke="midnightblue" points="180.48,-80.6 190.77,-78.09 181.16,-73.63 180.48,-80.6"/>
</g>
<!-- Node4 -->
<g id="node4" class="node">
<title>Node4</title>
<g id="a_node4"><a xlink:href="class_accounts_database.html#a75dbfe7e8f9f5b7f534c630d4a25ce3a" target="_top" xlink:title=" ">
<polygon fill="none" stroke="black" points="188,-38.5 188,-57.5 358,-57.5 358,-38.5 188,-38.5"/>
<text text-anchor="middle" x="273" y="-45.5" font-family="Helvetica,sans-Serif" font-size="10.00">AccountsDatabase::getInstance</text>
</a>
</g>
</g>
<!-- Node1&#45;&gt;Node4 -->
<g id="edge3" class="edge">
<title>Node1&#45;&gt;Node4</title>
<path fill="none" stroke="midnightblue" d="M152.11,-59.68C160.52,-58.86 169.16,-58.02 177.76,-57.18"/>
<polygon fill="midnightblue" stroke="midnightblue" points="178.22,-60.65 187.84,-56.2 177.54,-53.69 178.22,-60.65"/>
</g>
<!-- Node5 -->
<g id="node5" class="node">
<title>Node5</title>
<g id="a_node5"><a xlink:href="class_abstract_handler.html#a82f8032708b203d7a34ec50baee76308" target="_top" xlink:title=" ">
<polygon fill="none" stroke="black" points="191,-0.5 191,-19.5 355,-19.5 355,-0.5 191,-0.5"/>
<text text-anchor="middle" x="273" y="-7.5" font-family="Helvetica,sans-Serif" font-size="10.00">AbstractHandler::sendRequest</text>
</a>
</g>
</g>
<!-- Node1&#45;&gt;Node5 -->
<g id="edge4" class="edge">
<title>Node1&#45;&gt;Node5</title>
<path fill="none" stroke="midnightblue" d="M117.53,-51.96C138.41,-44.5 164.39,-35.69 188,-29 196.87,-26.49 206.35,-24.08 215.62,-21.88"/>
<polygon fill="midnightblue" stroke="midnightblue" points="216.61,-25.24 225.56,-19.57 215.03,-18.42 216.61,-25.24"/>
</g>
</g>
</svg>
