<?xml version="1.0" encoding="UTF-8" standalone="no"?>
<!DOCTYPE svg PUBLIC "-//W3C//DTD SVG 1.1//EN"
 "http://www.w3.org/Graphics/SVG/1.1/DTD/svg11.dtd">
<!-- Generated by graphviz version 2.43.0 (0)
 -->
<!-- Title: Server::~Server Pages: 1 -->
<svg width="352pt" height="28pt"
 viewBox="0.00 0.00 352.00 28.00" xmlns="http://www.w3.org/2000/svg" xmlns:xlink="http://www.w3.org/1999/xlink">
<g id="graph0" class="graph" transform="scale(1 1) rotate(0) translate(4 24)">
<title>Server::~Server</title>
<!-- Node1 -->
<g id="node1" class="node">
<title>Node1</title>
<g id="a_node1"><a xlink:title=" ">
<polygon fill="#bfbfbf" stroke="black" points="0,-0.5 0,-19.5 94,-19.5 94,-0.5 0,-0.5"/>
<text text-anchor="middle" x="47" y="-7.5" font-family="Helvetica,sans-Serif" font-size="10.00">Server::~Server</text>
</a>
</g>
</g>
<!-- Node2 -->
<g id="node2" class="node">
<title>Node2</title>
<g id="a_node2"><a xlink:href="class_server.html#a31d9bbeeaa6ced18c7096acd0b52c3ae" target="_top" xlink:title=" ">
<polygon fill="none" stroke="black" points="130,-0.5 130,-19.5 237,-19.5 237,-0.5 130,-0.5"/>
<text text-anchor="middle" x="183.5" y="-7.5" font-family="Helvetica,sans-Serif" font-size="10.00">Server::stopServer</text>
</a>
</g>
</g>
<!-- Node1&#45;&gt;Node2 -->
<g id="edge1" class="edge">
<title>Node1&#45;&gt;Node2</title>
<path fill="none" stroke="midnightblue" d="M94.29,-10C102.39,-10 110.95,-10 119.41,-10"/>
<polygon fill="midnightblue" stroke="midnightblue" points="119.66,-13.5 129.66,-10 119.66,-6.5 119.66,-13.5"/>
</g>
<!-- Node3 -->
<g id="node3" class="node">
<title>Node3</title>
<g id="a_node3"><a xlink:href="class_logger.html#acbb274646e574604da4b7ddea476bae9" target="_top" xlink:title=" ">
<polygon fill="none" stroke="black" points="273,-0.5 273,-19.5 344,-19.5 344,-0.5 273,-0.5"/>
<text text-anchor="middle" x="308.5" y="-7.5" font-family="Helvetica,sans-Serif" font-size="10.00">Logger::log</text>
</a>
</g>
</g>
<!-- Node2&#45;&gt;Node3 -->
<g id="edge2" class="edge">
<title>Node2&#45;&gt;Node3</title>
<path fill="none" stroke="midnightblue" d="M237.02,-10C245.56,-10 254.33,-10 262.67,-10"/>
<polygon fill="midnightblue" stroke="midnightblue" points="262.94,-13.5 272.94,-10 262.94,-6.5 262.94,-13.5"/>
</g>
</g>
</svg>
