<?xml version="1.0" encoding="UTF-8" standalone="no"?>
<!DOCTYPE svg PUBLIC "-//W3C//DTD SVG 1.1//EN"
 "http://www.w3.org/Graphics/SVG/1.1/DTD/svg11.dtd">
<!-- Generated by graphviz version 2.43.0 (0)
 -->
<!-- Title: ClientConnection Pages: 1 -->
<svg width="178pt" height="612pt"
 viewBox="0.00 0.00 178.00 612.00" xmlns="http://www.w3.org/2000/svg" xmlns:xlink="http://www.w3.org/1999/xlink">
<g id="graph0" class="graph" transform="scale(1 1) rotate(0) translate(4 608)">
<title>ClientConnection</title>
<!-- Node1 -->
<g id="node1" class="node">
<title>Node1</title>
<g id="a_node1"><a xlink:title=" ">
<polygon fill="#bfbfbf" stroke="black" points="21.5,-0.5 21.5,-123.5 148.5,-123.5 148.5,-0.5 21.5,-0.5"/>
<text text-anchor="middle" x="85" y="-111.5" font-family="Helvetica,sans-Serif" font-size="10.00">ClientConnection</text>
<polyline fill="none" stroke="black" points="21.5,-104.5 148.5,-104.5 "/>
<text text-anchor="middle" x="85" y="-92.5" font-family="Helvetica,sans-Serif" font-size="10.00"> </text>
<polyline fill="none" stroke="black" points="21.5,-85.5 148.5,-85.5 "/>
<text text-anchor="start" x="29.5" y="-73.5" font-family="Helvetica,sans-Serif" font-size="10.00">+ ClientConnection()</text>
<text text-anchor="start" x="29.5" y="-62.5" font-family="Helvetica,sans-Serif" font-size="10.00">+ ~ClientConnection()</text>
<text text-anchor="start" x="29.5" y="-51.5" font-family="Helvetica,sans-Serif" font-size="10.00">+ destroy()</text>
<text text-anchor="start" x="29.5" y="-40.5" font-family="Helvetica,sans-Serif" font-size="10.00">+ onSignUp()</text>
<text text-anchor="start" x="29.5" y="-29.5" font-family="Helvetica,sans-Serif" font-size="10.00">+ onSignIn()</text>
<text text-anchor="start" x="29.5" y="-18.5" font-family="Helvetica,sans-Serif" font-size="10.00">+ onMessage()</text>
<text text-anchor="start" x="29.5" y="-7.5" font-family="Helvetica,sans-Serif" font-size="10.00">+ onPrivateMessage()</text>
</a>
</g>
</g>
<!-- Node2 -->
<g id="node2" class="node">
<title>Node2</title>
<g id="a_node2"><a xlink:href="class_serverside_handler.html" target="_top" xlink:title=" ">
<polygon fill="none" stroke="black" points="18,-160.5 18,-294.5 152,-294.5 152,-160.5 18,-160.5"/>
<text text-anchor="middle" x="85" y="-282.5" font-family="Helvetica,sans-Serif" font-size="10.00">ServersideHandler</text>
<polyline fill="none" stroke="black" points="18,-275.5 152,-275.5 "/>
<text text-anchor="middle" x="85" y="-263.5" font-family="Helvetica,sans-Serif" font-size="10.00"> </text>
<polyline fill="none" stroke="black" points="18,-256.5 152,-256.5 "/>
<text text-anchor="start" x="26" y="-244.5" font-family="Helvetica,sans-Serif" font-size="10.00">+ ServersideHandler()</text>
<text text-anchor="start" x="26" y="-233.5" font-family="Helvetica,sans-Serif" font-size="10.00">+ ~ServersideHandler()</text>
<text text-anchor="start" x="26" y="-222.5" font-family="Helvetica,sans-Serif" font-size="10.00">+ receive()</text>
<text text-anchor="start" x="26" y="-211.5" font-family="Helvetica,sans-Serif" font-size="10.00">+ onSignUp()</text>
<text text-anchor="start" x="26" y="-200.5" font-family="Helvetica,sans-Serif" font-size="10.00">+ onSignIn()</text>
<text text-anchor="start" x="26" y="-189.5" font-family="Helvetica,sans-Serif" font-size="10.00">+ onMessage()</text>
<text text-anchor="start" x="26" y="-178.5" font-family="Helvetica,sans-Serif" font-size="10.00">+ onPrivateMessage()</text>
<text text-anchor="start" x="26" y="-167.5" font-family="Helvetica,sans-Serif" font-size="10.00"># sharedFromThis()</text>
</a>
</g>
</g>
<!-- Node2&#45;&gt;Node1 -->
<g id="edge1" class="edge">
<title>Node2&#45;&gt;Node1</title>
<path fill="none" stroke="midnightblue" d="M85,-150.42C85,-141.47 85,-132.43 85,-123.73"/>
<polygon fill="none" stroke="midnightblue" points="81.5,-150.47 85,-160.47 88.5,-150.47 81.5,-150.47"/>
</g>
<!-- Node3 -->
<g id="node3" class="node">
<title>Node3</title>
<g id="a_node3"><a xlink:href="class_abstract_handler.html" target="_top" xlink:title=" ">
<polygon fill="none" stroke="black" points="24,-331.5 24,-498.5 146,-498.5 146,-331.5 24,-331.5"/>
<text text-anchor="middle" x="85" y="-486.5" font-family="Helvetica,sans-Serif" font-size="10.00">AbstractHandler</text>
<polyline fill="none" stroke="black" points="24,-479.5 146,-479.5 "/>
<text text-anchor="middle" x="85" y="-467.5" font-family="Helvetica,sans-Serif" font-size="10.00"> </text>
<polyline fill="none" stroke="black" points="24,-460.5 146,-460.5 "/>
<text text-anchor="start" x="32" y="-448.5" font-family="Helvetica,sans-Serif" font-size="10.00">+ AbstractHandler()</text>
<text text-anchor="start" x="32" y="-437.5" font-family="Helvetica,sans-Serif" font-size="10.00">+ ~AbstractHandler()</text>
<text text-anchor="start" x="32" y="-426.5" font-family="Helvetica,sans-Serif" font-size="10.00">+ getCreator()</text>
<text text-anchor="start" x="32" y="-415.5" font-family="Helvetica,sans-Serif" font-size="10.00">+ getAccount()</text>
<text text-anchor="start" x="32" y="-404.5" font-family="Helvetica,sans-Serif" font-size="10.00">+ setAccount()</text>
<text text-anchor="start" x="32" y="-393.5" font-family="Helvetica,sans-Serif" font-size="10.00">+ sendRaw()</text>
<text text-anchor="start" x="32" y="-382.5" font-family="Helvetica,sans-Serif" font-size="10.00">+ sendRequest()</text>
<text text-anchor="start" x="32" y="-371.5" font-family="Helvetica,sans-Serif" font-size="10.00">+ startReceiving()</text>
<text text-anchor="start" x="32" y="-360.5" font-family="Helvetica,sans-Serif" font-size="10.00">+ exit()</text>
<text text-anchor="start" x="32" y="-349.5" font-family="Helvetica,sans-Serif" font-size="10.00">+ receive()</text>
<text text-anchor="start" x="32" y="-338.5" font-family="Helvetica,sans-Serif" font-size="10.00">+ destroy()</text>
</a>
</g>
</g>
<!-- Node3&#45;&gt;Node2 -->
<g id="edge2" class="edge">
<title>Node3&#45;&gt;Node2</title>
<path fill="none" stroke="midnightblue" d="M85,-321.19C85,-312.22 85,-303.26 85,-294.64"/>
<polygon fill="none" stroke="midnightblue" points="81.5,-321.29 85,-331.29 88.5,-321.29 81.5,-321.29"/>
</g>
<!-- Node4 -->
<g id="node4" class="node">
<title>Node4</title>
<g id="a_node4"><a xlink:title=" ">
<polygon fill="none" stroke="black" points="0,-535.5 0,-603.5 170,-603.5 170,-535.5 0,-535.5"/>
<text text-anchor="start" x="8" y="-591.5" font-family="Helvetica,sans-Serif" font-size="10.00">std::enable_shared</text>
<text text-anchor="middle" x="85" y="-580.5" font-family="Helvetica,sans-Serif" font-size="10.00">_from_this&lt; AbstractHandler &gt;</text>
<polyline fill="none" stroke="black" points="0,-573.5 170,-573.5 "/>
<text text-anchor="middle" x="85" y="-561.5" font-family="Helvetica,sans-Serif" font-size="10.00"> </text>
<polyline fill="none" stroke="black" points="0,-554.5 170,-554.5 "/>
<text text-anchor="middle" x="85" y="-542.5" font-family="Helvetica,sans-Serif" font-size="10.00"> </text>
</a>
</g>
</g>
<!-- Node4&#45;&gt;Node3 -->
<g id="edge3" class="edge">
<title>Node4&#45;&gt;Node3</title>
<path fill="none" stroke="midnightblue" d="M85,-525.23C85,-516.88 85,-507.89 85,-498.76"/>
<polygon fill="none" stroke="midnightblue" points="81.5,-525.41 85,-535.41 88.5,-525.41 81.5,-525.41"/>
</g>
</g>
</svg>
