<?xml version="1.0" encoding="UTF-8" standalone="no"?>
<!DOCTYPE svg PUBLIC "-//W3C//DTD SVG 1.1//EN"
 "http://www.w3.org/Graphics/SVG/1.1/DTD/svg11.dtd">
<!-- Generated by graphviz version 2.43.0 (0)
 -->
<!-- Title: AbstractHandler Pages: 1 -->
<!--zoomable 678 -->
<svg id="main" version="1.1" xmlns="http://www.w3.org/2000/svg" xmlns:xlink="http://www.w3.org/1999/xlink" xml:space="preserve" onload="init(evt)">
<style type="text/css"><![CDATA[
.edge:hover path { stroke: red; }
.edge:hover polygon { stroke: red; fill: red; }
]]></style>
<script type="text/javascript"><![CDATA[
var edges = document.getElementsByTagName('g');
if (edges && edges.length) {
  for (var i=0;i<edges.length;i++) {
    if (edges[i].id.substr(0,4)=='edge') {
      edges[i].setAttribute('class','edge');
    }
  }
}
]]></script>
        <defs>
                <circle id="rim" cx="0" cy="0" r="7"/>
                <circle id="rim2" cx="0" cy="0" r="3.5"/>
                <g id="zoomPlus">
                        <use xlink:href="#rim" fill="#404040">
                                <set attributeName="fill" to="#808080" begin="zoomplus.mouseover" end="zoomplus.mouseout"/>
                        </use>
                        <path d="M-4,0h8M0,-4v8" fill="none" stroke="white" stroke-width="1.5" pointer-events="none"/>
                </g>
                <g id="zoomMin">
                        <use xlink:href="#rim" fill="#404040">
                                <set attributeName="fill" to="#808080" begin="zoomminus.mouseover" end="zoomminus.mouseout"/>
                        </use>
                        <path d="M-4,0h8" fill="none" stroke="white" stroke-width="1.5" pointer-events="none"/>
                </g>
                <g id="dirArrow">
                        <path fill="none" stroke="white" stroke-width="1.5" d="M0,-3.0v7 M-2.5,-0.5L0,-3.0L2.5,-0.5"/>
                </g>
               <g id="resetDef">
                       <use xlink:href="#rim2" fill="#404040">
                               <set attributeName="fill" to="#808080" begin="reset.mouseover" end="reset.mouseout"/>
                       </use>
               </g>
        </defs>

<script type="text/javascript">
var viewWidth = 292;
var viewHeight = 678;
var sectionId = 'dynsection-0';
</script>
<script xlink:href="svgpan.js"/>
<svg id="graph" class="graph">
<g id="viewport">
<title>AbstractHandler</title>
<!-- Node1 -->
<g id="node1" class="node">
<title>Node1</title>
<g id="a_node1"><a xlink:title=" ">
<polygon fill="#bfbfbf" stroke="black" points="79.5,-397.5 79.5,-564.5 201.5,-564.5 201.5,-397.5 79.5,-397.5"/>
<text text-anchor="middle" x="140.5" y="-552.5" font-family="Helvetica,sans-Serif" font-size="10.00">AbstractHandler</text>
<polyline fill="none" stroke="black" points="79.5,-545.5 201.5,-545.5 "/>
<text text-anchor="middle" x="140.5" y="-533.5" font-family="Helvetica,sans-Serif" font-size="10.00"> </text>
<polyline fill="none" stroke="black" points="79.5,-526.5 201.5,-526.5 "/>
<text text-anchor="start" x="87.5" y="-514.5" font-family="Helvetica,sans-Serif" font-size="10.00">+ AbstractHandler()</text>
<text text-anchor="start" x="87.5" y="-503.5" font-family="Helvetica,sans-Serif" font-size="10.00">+ ~AbstractHandler()</text>
<text text-anchor="start" x="87.5" y="-492.5" font-family="Helvetica,sans-Serif" font-size="10.00">+ getCreator()</text>
<text text-anchor="start" x="87.5" y="-481.5" font-family="Helvetica,sans-Serif" font-size="10.00">+ getAccount()</text>
<text text-anchor="start" x="87.5" y="-470.5" font-family="Helvetica,sans-Serif" font-size="10.00">+ setAccount()</text>
<text text-anchor="start" x="87.5" y="-459.5" font-family="Helvetica,sans-Serif" font-size="10.00">+ sendRaw()</text>
<text text-anchor="start" x="87.5" y="-448.5" font-family="Helvetica,sans-Serif" font-size="10.00">+ sendRequest()</text>
<text text-anchor="start" x="87.5" y="-437.5" font-family="Helvetica,sans-Serif" font-size="10.00">+ startReceiving()</text>
<text text-anchor="start" x="87.5" y="-426.5" font-family="Helvetica,sans-Serif" font-size="10.00">+ exit()</text>
<text text-anchor="start" x="87.5" y="-415.5" font-family="Helvetica,sans-Serif" font-size="10.00">+ receive()</text>
<text text-anchor="start" x="87.5" y="-404.5" font-family="Helvetica,sans-Serif" font-size="10.00">+ destroy()</text>
</a>
</g>
</g>
<!-- Node3 -->
<g id="node3" class="node">
<title>Node3</title>
<g id="a_node3"><a xlink:href="class_clientside_handler.html" target="_top" xlink:title=" ">
<polygon fill="none" stroke="black" points="0,-160.5 0,-360.5 131,-360.5 131,-160.5 0,-160.5"/>
<text text-anchor="middle" x="65.5" y="-348.5" font-family="Helvetica,sans-Serif" font-size="10.00">ClientsideHandler</text>
<polyline fill="none" stroke="black" points="0,-341.5 131,-341.5 "/>
<text text-anchor="start" x="8" y="-329.5" font-family="Helvetica,sans-Serif" font-size="10.00"># renderer</text>
<polyline fill="none" stroke="black" points="0,-322.5 131,-322.5 "/>
<text text-anchor="start" x="8" y="-310.5" font-family="Helvetica,sans-Serif" font-size="10.00">+ ClientsideHandler()</text>
<text text-anchor="start" x="8" y="-299.5" font-family="Helvetica,sans-Serif" font-size="10.00">+ ~ClientsideHandler()</text>
<text text-anchor="start" x="8" y="-288.5" font-family="Helvetica,sans-Serif" font-size="10.00">+ receive()</text>
<text text-anchor="start" x="8" y="-277.5" font-family="Helvetica,sans-Serif" font-size="10.00">+ signIn()</text>
<text text-anchor="start" x="8" y="-266.5" font-family="Helvetica,sans-Serif" font-size="10.00">+ signUp()</text>
<text text-anchor="start" x="8" y="-255.5" font-family="Helvetica,sans-Serif" font-size="10.00">+ join()</text>
<text text-anchor="start" x="8" y="-244.5" font-family="Helvetica,sans-Serif" font-size="10.00">+ leave()</text>
<text text-anchor="start" x="8" y="-233.5" font-family="Helvetica,sans-Serif" font-size="10.00">+ requestUserList()</text>
<text text-anchor="start" x="8" y="-222.5" font-family="Helvetica,sans-Serif" font-size="10.00">+ requestHistory()</text>
<text text-anchor="start" x="8" y="-211.5" font-family="Helvetica,sans-Serif" font-size="10.00">+ manage()</text>
<text text-anchor="start" x="8" y="-200.5" font-family="Helvetica,sans-Serif" font-size="10.00">+ getUsers()</text>
<text text-anchor="start" x="8" y="-189.5" font-family="Helvetica,sans-Serif" font-size="10.00">+ getRenderer()</text>
<text text-anchor="start" x="8" y="-178.5" font-family="Helvetica,sans-Serif" font-size="10.00">+ send()</text>
<text text-anchor="start" x="8" y="-167.5" font-family="Helvetica,sans-Serif" font-size="10.00">+ sendPrivate()</text>
</a>
</g>
</g>
<!-- Node1&#45;&gt;Node3 -->
<g id="edge2" class="edge">
<title>Node1&#45;&gt;Node3</title>
<path fill="none" stroke="midnightblue" d="M108.84,-387.78C105.78,-378.85 102.66,-369.76 99.57,-360.76"/>
<polygon fill="none" stroke="midnightblue" points="105.59,-389.07 112.15,-397.39 112.21,-386.8 105.59,-389.07"/>
</g>
<!-- Node4 -->
<g id="node4" class="node">
<title>Node4</title>
<g id="a_node4"><a xlink:href="class_serverside_handler.html" target="_top" xlink:title=" ">
<polygon fill="none" stroke="black" points="149.5,-193.5 149.5,-327.5 283.5,-327.5 283.5,-193.5 149.5,-193.5"/>
<text text-anchor="middle" x="216.5" y="-315.5" font-family="Helvetica,sans-Serif" font-size="10.00">ServersideHandler</text>
<polyline fill="none" stroke="black" points="149.5,-308.5 283.5,-308.5 "/>
<text text-anchor="middle" x="216.5" y="-296.5" font-family="Helvetica,sans-Serif" font-size="10.00"> </text>
<polyline fill="none" stroke="black" points="149.5,-289.5 283.5,-289.5 "/>
<text text-anchor="start" x="157.5" y="-277.5" font-family="Helvetica,sans-Serif" font-size="10.00">+ ServersideHandler()</text>
<text text-anchor="start" x="157.5" y="-266.5" font-family="Helvetica,sans-Serif" font-size="10.00">+ ~ServersideHandler()</text>
<text text-anchor="start" x="157.5" y="-255.5" font-family="Helvetica,sans-Serif" font-size="10.00">+ receive()</text>
<text text-anchor="start" x="157.5" y="-244.5" font-family="Helvetica,sans-Serif" font-size="10.00">+ onSignUp()</text>
<text text-anchor="start" x="157.5" y="-233.5" font-family="Helvetica,sans-Serif" font-size="10.00">+ onSignIn()</text>
<text text-anchor="start" x="157.5" y="-222.5" font-family="Helvetica,sans-Serif" font-size="10.00">+ onMessage()</text>
<text text-anchor="start" x="157.5" y="-211.5" font-family="Helvetica,sans-Serif" font-size="10.00">+ onPrivateMessage()</text>
<text text-anchor="start" x="157.5" y="-200.5" font-family="Helvetica,sans-Serif" font-size="10.00"># sharedFromThis()</text>
</a>
</g>
</g>
<!-- Node1&#45;&gt;Node4 -->
<g id="edge3" class="edge">
<title>Node1&#45;&gt;Node4</title>
<path fill="none" stroke="midnightblue" d="M172.55,-387.84C179.6,-367.59 186.92,-346.53 193.53,-327.55"/>
<polygon fill="none" stroke="midnightblue" points="169.21,-386.8 169.23,-397.39 175.82,-389.1 169.21,-386.8"/>
</g>
<!-- Node2 -->
<g id="node2" class="node">
<title>Node2</title>
<g id="a_node2"><a xlink:title=" ">
<polygon fill="none" stroke="black" points="55.5,-601.5 55.5,-669.5 225.5,-669.5 225.5,-601.5 55.5,-601.5"/>
<text text-anchor="start" x="63.5" y="-657.5" font-family="Helvetica,sans-Serif" font-size="10.00">std::enable_shared</text>
<text text-anchor="middle" x="140.5" y="-646.5" font-family="Helvetica,sans-Serif" font-size="10.00">_from_this&lt; AbstractHandler &gt;</text>
<polyline fill="none" stroke="black" points="55.5,-639.5 225.5,-639.5 "/>
<text text-anchor="middle" x="140.5" y="-627.5" font-family="Helvetica,sans-Serif" font-size="10.00"> </text>
<polyline fill="none" stroke="black" points="55.5,-620.5 225.5,-620.5 "/>
<text text-anchor="middle" x="140.5" y="-608.5" font-family="Helvetica,sans-Serif" font-size="10.00"> </text>
</a>
</g>
</g>
<!-- Node2&#45;&gt;Node1 -->
<g id="edge1" class="edge">
<title>Node2&#45;&gt;Node1</title>
<path fill="none" stroke="midnightblue" d="M140.5,-591.23C140.5,-582.88 140.5,-573.89 140.5,-564.76"/>
<polygon fill="none" stroke="midnightblue" points="137,-591.41 140.5,-601.41 144,-591.41 137,-591.41"/>
</g>
<!-- Node5 -->
<g id="node5" class="node">
<title>Node5</title>
<g id="a_node5"><a xlink:href="class_client_connection.html" target="_top" xlink:title=" ">
<polygon fill="none" stroke="black" points="153,-0.5 153,-123.5 280,-123.5 280,-0.5 153,-0.5"/>
<text text-anchor="middle" x="216.5" y="-111.5" font-family="Helvetica,sans-Serif" font-size="10.00">ClientConnection</text>
<polyline fill="none" stroke="black" points="153,-104.5 280,-104.5 "/>
<text text-anchor="middle" x="216.5" y="-92.5" font-family="Helvetica,sans-Serif" font-size="10.00"> </text>
<polyline fill="none" stroke="black" points="153,-85.5 280,-85.5 "/>
<text text-anchor="start" x="161" y="-73.5" font-family="Helvetica,sans-Serif" font-size="10.00">+ ClientConnection()</text>
<text text-anchor="start" x="161" y="-62.5" font-family="Helvetica,sans-Serif" font-size="10.00">+ ~ClientConnection()</text>
<text text-anchor="start" x="161" y="-51.5" font-family="Helvetica,sans-Serif" font-size="10.00">+ destroy()</text>
<text text-anchor="start" x="161" y="-40.5" font-family="Helvetica,sans-Serif" font-size="10.00">+ onSignUp()</text>
<text text-anchor="start" x="161" y="-29.5" font-family="Helvetica,sans-Serif" font-size="10.00">+ onSignIn()</text>
<text text-anchor="start" x="161" y="-18.5" font-family="Helvetica,sans-Serif" font-size="10.00">+ onMessage()</text>
<text text-anchor="start" x="161" y="-7.5" font-family="Helvetica,sans-Serif" font-size="10.00">+ onPrivateMessage()</text>
</a>
</g>
</g>
<!-- Node4&#45;&gt;Node5 -->
<g id="edge4" class="edge">
<title>Node4&#45;&gt;Node5</title>
<path fill="none" stroke="midnightblue" d="M216.5,-183.08C216.5,-163.38 216.5,-142.45 216.5,-123.67"/>
<polygon fill="none" stroke="midnightblue" points="213,-183.25 216.5,-193.25 220,-183.25 213,-183.25"/>
</g>
</g>
</svg>
        <g id="navigator" transform="translate(0 0)" fill="#404254">
                <rect fill="#f2f5e9" fill-opacity="0.5" stroke="#606060" stroke-width=".5" x="0" y="0" width="60" height="60"/>
                <use id="zoomplus" xlink:href="#zoomPlus" x="17" y="9" onmousedown="handleZoom(evt,'in')"/>
                <use id="zoomminus" xlink:href="#zoomMin" x="42" y="9" onmousedown="handleZoom(evt,'out')"/>
                <use id="reset" xlink:href="#resetDef" x="30" y="36" onmousedown="handleReset()"/>
                <g id="arrowUp" xlink:href="#dirArrow" transform="translate(30 24)" onmousedown="handlePan(0,-1)">
                  <use xlink:href="#rim" fill="#404040">
                        <set attributeName="fill" to="#808080" begin="arrowUp.mouseover" end="arrowUp.mouseout"/>
                  </use>
                  <path fill="none" stroke="white" stroke-width="1.5" d="M0,-3.0v7 M-2.5,-0.5L0,-3.0L2.5,-0.5"/>
                </g>
                <g id="arrowRight" xlink:href="#dirArrow" transform="rotate(90) translate(36 -43)" onmousedown="handlePan(1,0)">
                  <use xlink:href="#rim" fill="#404040">
                        <set attributeName="fill" to="#808080" begin="arrowRight.mouseover" end="arrowRight.mouseout"/>
                  </use>
                  <path fill="none" stroke="white" stroke-width="1.5" d="M0,-3.0v7 M-2.5,-0.5L0,-3.0L2.5,-0.5"/>
                </g>
                <g id="arrowDown" xlink:href="#dirArrow" transform="rotate(180) translate(-30 -48)" onmousedown="handlePan(0,1)">
                  <use xlink:href="#rim" fill="#404040">
                        <set attributeName="fill" to="#808080" begin="arrowDown.mouseover" end="arrowDown.mouseout"/>
                  </use>
                  <path fill="none" stroke="white" stroke-width="1.5" d="M0,-3.0v7 M-2.5,-0.5L0,-3.0L2.5,-0.5"/>
                </g>
                <g id="arrowLeft" xlink:href="#dirArrow" transform="rotate(270) translate(-36 17)" onmousedown="handlePan(-1,0)">
                  <use xlink:href="#rim" fill="#404040">
                        <set attributeName="fill" to="#808080" begin="arrowLeft.mouseover" end="arrowLeft.mouseout"/>
                  </use>
                  <path fill="none" stroke="white" stroke-width="1.5" d="M0,-3.0v7 M-2.5,-0.5L0,-3.0L2.5,-0.5"/>
                </g>
        </g>
        <svg viewBox="0 0 15 15" width="100%" height="30px" preserveAspectRatio="xMaxYMin meet">
         <g id="arrow_out" transform="scale(0.3 0.3)">
          <a xlink:href="class_abstract_handler__inherit__graph_org.svg" target="_base">
           <rect id="button" ry="5" rx="5" y="6" x="6" height="38" width="38"
                fill="#f2f5e9" fill-opacity="0.5" stroke="#606060" stroke-width="1.0"/>
           <path id="arrow"
             d="M 11.500037,31.436501 C 11.940474,20.09759 22.043105,11.32322 32.158766,21.979434 L 37.068811,17.246167 C 37.068811,17.246167 37.088388,32 37.088388,32 L 22.160133,31.978069 C 22.160133,31.978069 26.997745,27.140456 26.997745,27.140456 C 18.528582,18.264221 13.291696,25.230495 11.500037,31.436501 z"
             style="fill:#404040;"/>
          </a>
         </g>
        </svg>
</svg>
