<?xml version="1.0" encoding="UTF-8" standalone="no"?>
<!DOCTYPE svg PUBLIC "-//W3C//DTD SVG 1.1//EN"
 "http://www.w3.org/Graphics/SVG/1.1/DTD/svg11.dtd">
<!-- Generated by graphviz version 2.43.0 (0)
 -->
<!-- Title: AbstractHandler::sendRequest Pages: 1 -->
<svg width="360pt" height="537pt"
 viewBox="0.00 0.00 360.00 536.50" xmlns="http://www.w3.org/2000/svg" xmlns:xlink="http://www.w3.org/1999/xlink">
<g id="graph0" class="graph" transform="scale(1 1) rotate(0) translate(4 532.5)">
<title>AbstractHandler::sendRequest</title>
<!-- Node1 -->
<g id="node1" class="node">
<title>Node1</title>
<g id="a_node1"><a xlink:title=" ">
<polygon fill="#bfbfbf" stroke="black" points="188,-263 188,-282 352,-282 352,-263 188,-263"/>
<text text-anchor="middle" x="270" y="-270" font-family="Helvetica,sans-Serif" font-size="10.00">AbstractHandler::sendRequest</text>
</a>
</g>
</g>
<!-- Node2 -->
<g id="node2" class="node">
<title>Node2</title>
<g id="a_node2"><a xlink:href="class_clientside_handler.html#a5bdd771922c7f2468879c50a522bea5c" target="_top" xlink:title=" ">
<polygon fill="none" stroke="black" points="12,-509 12,-528 140,-528 140,-509 12,-509"/>
<text text-anchor="middle" x="76" y="-516" font-family="Helvetica,sans-Serif" font-size="10.00">ClientsideHandler::join</text>
</a>
</g>
</g>
<!-- Node1&#45;&gt;Node2 -->
<g id="edge1" class="edge">
<title>Node1&#45;&gt;Node2</title>
<path fill="none" stroke="midnightblue" d="M264.71,-292.05C253.96,-336.23 221.61,-444.18 152,-499.5 147.16,-503.34 141.64,-506.42 135.84,-508.88"/>
<polygon fill="midnightblue" stroke="midnightblue" points="268.18,-292.58 267.03,-282.05 261.36,-290.99 268.18,-292.58"/>
</g>
<!-- Node3 -->
<g id="node3" class="node">
<title>Node3</title>
<g id="a_node3"><a xlink:href="class_clientside_handler.html#af686e1838be32e7e98587449972df357" target="_top" xlink:title=" ">
<polygon fill="none" stroke="black" points="21,-459.5 21,-489.5 131,-489.5 131,-459.5 21,-459.5"/>
<text text-anchor="start" x="29" y="-477.5" font-family="Helvetica,sans-Serif" font-size="10.00">ClientsideHandler::</text>
<text text-anchor="middle" x="76" y="-466.5" font-family="Helvetica,sans-Serif" font-size="10.00">leave</text>
</a>
</g>
</g>
<!-- Node1&#45;&gt;Node3 -->
<g id="edge2" class="edge">
<title>Node1&#45;&gt;Node3</title>
<path fill="none" stroke="midnightblue" d="M261.55,-291.72C246.46,-328.12 208.83,-407.34 152,-450.5 145.79,-455.21 138.63,-459.02 131.25,-462.08"/>
<polygon fill="midnightblue" stroke="midnightblue" points="264.86,-292.85 265.35,-282.27 258.37,-290.23 264.86,-292.85"/>
</g>
<!-- Node4 -->
<g id="node4" class="node">
<title>Node4</title>
<g id="a_node4"><a xlink:href="class_clientside_handler.html#a511e8c889b911ede54260d59fe3bc1fa" target="_top" xlink:title=" ">
<polygon fill="none" stroke="black" points="21,-410.5 21,-440.5 131,-440.5 131,-410.5 21,-410.5"/>
<text text-anchor="start" x="29" y="-428.5" font-family="Helvetica,sans-Serif" font-size="10.00">ClientsideHandler::</text>
<text text-anchor="middle" x="76" y="-417.5" font-family="Helvetica,sans-Serif" font-size="10.00">manage</text>
</a>
</g>
</g>
<!-- Node1&#45;&gt;Node4 -->
<g id="edge3" class="edge">
<title>Node1&#45;&gt;Node4</title>
<path fill="none" stroke="midnightblue" d="M257.32,-290.55C238.44,-318.34 198.6,-371.51 152,-401.5 145.56,-405.64 138.35,-409.12 131.02,-412.03"/>
<polygon fill="midnightblue" stroke="midnightblue" points="260.27,-292.44 262.9,-282.17 254.44,-288.56 260.27,-292.44"/>
</g>
<!-- Node5 -->
<g id="node5" class="node">
<title>Node5</title>
<g id="a_node5"><a xlink:href="class_client_connection.html#a7ade2bca93315ab00a31bdbb9a03dd2f" target="_top" xlink:title=" ">
<polygon fill="none" stroke="black" points="0,-361.5 0,-391.5 152,-391.5 152,-361.5 0,-361.5"/>
<text text-anchor="start" x="8" y="-379.5" font-family="Helvetica,sans-Serif" font-size="10.00">ClientConnection::onPrivate</text>
<text text-anchor="middle" x="76" y="-368.5" font-family="Helvetica,sans-Serif" font-size="10.00">Message</text>
</a>
</g>
</g>
<!-- Node1&#45;&gt;Node5 -->
<g id="edge4" class="edge">
<title>Node1&#45;&gt;Node5</title>
<path fill="none" stroke="midnightblue" d="M248.95,-288.55C226.43,-305.95 188.29,-333.62 152,-351.5 144.61,-355.14 136.57,-358.45 128.58,-361.38"/>
<polygon fill="midnightblue" stroke="midnightblue" points="251.33,-291.13 257.04,-282.21 247.01,-285.62 251.33,-291.13"/>
</g>
<!-- Node6 -->
<g id="node6" class="node">
<title>Node6</title>
<g id="a_node6"><a xlink:href="class_client_connection.html#afe6b1ba83296adf927481639c9d49fa9" target="_top" xlink:title=" ">
<polygon fill="none" stroke="black" points="2,-323 2,-342 150,-342 150,-323 2,-323"/>
<text text-anchor="middle" x="76" y="-330" font-family="Helvetica,sans-Serif" font-size="10.00">ClientConnection::onSignIn</text>
</a>
</g>
</g>
<!-- Node1&#45;&gt;Node6 -->
<g id="edge5" class="edge">
<title>Node1&#45;&gt;Node6</title>
<path fill="none" stroke="midnightblue" d="M234.26,-285.59C211.12,-294.07 179.95,-305.08 152,-313.5 140.81,-316.87 128.56,-320.14 117.27,-323"/>
<polygon fill="midnightblue" stroke="midnightblue" points="235.48,-288.86 243.65,-282.12 233.06,-282.3 235.48,-288.86"/>
</g>
<!-- Node7 -->
<g id="node7" class="node">
<title>Node7</title>
<g id="a_node7"><a xlink:href="class_client_connection.html#afa4df6973901a28f9c8f065a430a7bec" target="_top" xlink:title=" ">
<polygon fill="none" stroke="black" points="0,-285 0,-304 152,-304 152,-285 0,-285"/>
<text text-anchor="middle" x="76" y="-292" font-family="Helvetica,sans-Serif" font-size="10.00">ClientConnection::onSignUp</text>
</a>
</g>
</g>
<!-- Node1&#45;&gt;Node7 -->
<g id="edge6" class="edge">
<title>Node1&#45;&gt;Node7</title>
<path fill="none" stroke="midnightblue" d="M177.78,-282.95C169.16,-283.94 160.5,-284.93 152.05,-285.9"/>
<polygon fill="midnightblue" stroke="midnightblue" points="178.32,-286.41 187.85,-281.8 177.52,-279.46 178.32,-286.41"/>
</g>
<!-- Node8 -->
<g id="node8" class="node">
<title>Node8</title>
<g id="a_node8"><a xlink:href="class_clientside_handler.html#aaff08227a75a5ce1eccc9dd2cc856dfe" target="_top" xlink:title=" ">
<polygon fill="none" stroke="black" points="21,-235.5 21,-265.5 131,-265.5 131,-235.5 21,-235.5"/>
<text text-anchor="start" x="29" y="-253.5" font-family="Helvetica,sans-Serif" font-size="10.00">ClientsideHandler::</text>
<text text-anchor="middle" x="76" y="-242.5" font-family="Helvetica,sans-Serif" font-size="10.00">requestHistory</text>
</a>
</g>
</g>
<!-- Node1&#45;&gt;Node8 -->
<g id="edge7" class="edge">
<title>Node1&#45;&gt;Node8</title>
<path fill="none" stroke="midnightblue" d="M177.48,-262.01C161.62,-260.2 145.6,-258.36 131.16,-256.71"/>
<polygon fill="midnightblue" stroke="midnightblue" points="177.52,-265.54 187.85,-263.2 178.32,-258.59 177.52,-265.54"/>
</g>
<!-- Node9 -->
<g id="node9" class="node">
<title>Node9</title>
<g id="a_node9"><a xlink:href="class_clientside_handler.html#a3722b2ff63fc872ba7c9f86a2fadddda" target="_top" xlink:title=" ">
<polygon fill="none" stroke="black" points="21,-186.5 21,-216.5 131,-216.5 131,-186.5 21,-186.5"/>
<text text-anchor="start" x="29" y="-204.5" font-family="Helvetica,sans-Serif" font-size="10.00">ClientsideHandler::</text>
<text text-anchor="middle" x="76" y="-193.5" font-family="Helvetica,sans-Serif" font-size="10.00">requestUserList</text>
</a>
</g>
</g>
<!-- Node1&#45;&gt;Node9 -->
<g id="edge8" class="edge">
<title>Node1&#45;&gt;Node9</title>
<path fill="none" stroke="midnightblue" d="M236.39,-259.15C213.02,-249.71 180.72,-236.93 152,-226.5 142.84,-223.18 132.99,-219.77 123.54,-216.59"/>
<polygon fill="midnightblue" stroke="midnightblue" points="235.25,-262.46 245.83,-262.97 237.88,-255.97 235.25,-262.46"/>
</g>
<!-- Node10 -->
<g id="node10" class="node">
<title>Node10</title>
<g id="a_node10"><a xlink:href="class_clientside_handler.html#ab6c9e09358e282f84043e708e9f6303d" target="_top" xlink:title=" ">
<polygon fill="none" stroke="black" points="9.5,-148 9.5,-167 142.5,-167 142.5,-148 9.5,-148"/>
<text text-anchor="middle" x="76" y="-155" font-family="Helvetica,sans-Serif" font-size="10.00">ClientsideHandler::send</text>
</a>
</g>
</g>
<!-- Node1&#45;&gt;Node10 -->
<g id="edge9" class="edge">
<title>Node1&#45;&gt;Node10</title>
<path fill="none" stroke="midnightblue" d="M252.76,-255.47C231.54,-234.17 192.31,-198.04 152,-177.5 143.6,-173.22 134.18,-169.78 124.93,-167.05"/>
<polygon fill="midnightblue" stroke="midnightblue" points="250.48,-258.14 259.98,-262.83 255.48,-253.24 250.48,-258.14"/>
</g>
<!-- Node11 -->
<g id="node11" class="node">
<title>Node11</title>
<g id="a_node11"><a xlink:href="class_clientside_handler.html#a2f98f88cd7ce79ddea8f3bc995981487" target="_top" xlink:title=" ">
<polygon fill="none" stroke="black" points="21,-98.5 21,-128.5 131,-128.5 131,-98.5 21,-98.5"/>
<text text-anchor="start" x="29" y="-116.5" font-family="Helvetica,sans-Serif" font-size="10.00">ClientsideHandler::</text>
<text text-anchor="middle" x="76" y="-105.5" font-family="Helvetica,sans-Serif" font-size="10.00">sendPrivate</text>
</a>
</g>
</g>
<!-- Node1&#45;&gt;Node11 -->
<g id="edge10" class="edge">
<title>Node1&#45;&gt;Node11</title>
<path fill="none" stroke="midnightblue" d="M257.72,-254.22C239.13,-225.55 199.35,-170.02 152,-138.5 145.6,-134.24 138.41,-130.65 131.09,-127.64"/>
<polygon fill="midnightblue" stroke="midnightblue" points="254.88,-256.28 263.19,-262.84 260.79,-252.52 254.88,-256.28"/>
</g>
<!-- Node12 -->
<g id="node12" class="node">
<title>Node12</title>
<g id="a_node12"><a xlink:href="class_clientside_handler.html#a57d85a1503ca17fb1f273a932b7f7fd3" target="_top" xlink:title=" ">
<polygon fill="none" stroke="black" points="21,-49.5 21,-79.5 131,-79.5 131,-49.5 21,-49.5"/>
<text text-anchor="start" x="29" y="-67.5" font-family="Helvetica,sans-Serif" font-size="10.00">ClientsideHandler::</text>
<text text-anchor="middle" x="76" y="-56.5" font-family="Helvetica,sans-Serif" font-size="10.00">signIn</text>
</a>
</g>
</g>
<!-- Node1&#45;&gt;Node12 -->
<g id="edge11" class="edge">
<title>Node1&#45;&gt;Node12</title>
<path fill="none" stroke="midnightblue" d="M261.86,-253.33C247.09,-216.26 209.67,-134.43 152,-89.5 145.83,-84.69 138.69,-80.79 131.31,-77.62"/>
<polygon fill="midnightblue" stroke="midnightblue" points="258.7,-254.86 265.57,-262.92 265.23,-252.33 258.7,-254.86"/>
</g>
<!-- Node13 -->
<g id="node13" class="node">
<title>Node13</title>
<g id="a_node13"><a xlink:href="class_clientside_handler.html#a56644997ac50e5e045c754b6cebc65d2" target="_top" xlink:title=" ">
<polygon fill="none" stroke="black" points="21,-0.5 21,-30.5 131,-30.5 131,-0.5 21,-0.5"/>
<text text-anchor="start" x="29" y="-18.5" font-family="Helvetica,sans-Serif" font-size="10.00">ClientsideHandler::</text>
<text text-anchor="middle" x="76" y="-7.5" font-family="Helvetica,sans-Serif" font-size="10.00">signUp</text>
</a>
</g>
</g>
<!-- Node1&#45;&gt;Node13 -->
<g id="edge12" class="edge">
<title>Node1&#45;&gt;Node13</title>
<path fill="none" stroke="midnightblue" d="M264.61,-253.16C253.59,-208.96 220.59,-99.78 152,-40.5 145.87,-35.2 138.59,-31.02 131,-27.72"/>
<polygon fill="midnightblue" stroke="midnightblue" points="261.22,-254.02 266.95,-262.93 268.03,-252.39 261.22,-254.02"/>
</g>
</g>
</svg>
