<?xml version="1.0" encoding="UTF-8" standalone="no"?>
<!DOCTYPE svg PUBLIC "-//W3C//DTD SVG 1.1//EN"
 "http://www.w3.org/Graphics/SVG/1.1/DTD/svg11.dtd">
<!-- Generated by graphviz version 2.43.0 (0)
 -->
<!-- Title: ServersideHandler::sharedFromThis Pages: 1 -->
<svg width="305pt" height="116pt"
 viewBox="0.00 0.00 305.00 115.50" xmlns="http://www.w3.org/2000/svg" xmlns:xlink="http://www.w3.org/1999/xlink">
<g id="graph0" class="graph" transform="scale(1 1) rotate(0) translate(4 111.5)">
<title>ServersideHandler::sharedFromThis</title>
<!-- Node1 -->
<g id="node1" class="node">
<title>Node1</title>
<g id="a_node1"><a xlink:title=" ">
<polygon fill="#bfbfbf" stroke="black" points="184,-44.5 184,-74.5 297,-74.5 297,-44.5 184,-44.5"/>
<text text-anchor="start" x="192" y="-62.5" font-family="Helvetica,sans-Serif" font-size="10.00">ServersideHandler::</text>
<text text-anchor="middle" x="240.5" y="-51.5" font-family="Helvetica,sans-Serif" font-size="10.00">sharedFromThis</text>
</a>
</g>
</g>
<!-- Node2 -->
<g id="node2" class="node">
<title>Node2</title>
<g id="a_node2"><a xlink:href="class_client_connection.html#a1cafa7ce29551be7ca4bde64ddbe67d6" target="_top" xlink:title=" ">
<polygon fill="none" stroke="black" points="2.5,-88 2.5,-107 145.5,-107 145.5,-88 2.5,-88"/>
<text text-anchor="middle" x="74" y="-95" font-family="Helvetica,sans-Serif" font-size="10.00">ClientConnection::destroy</text>
</a>
</g>
</g>
<!-- Node1&#45;&gt;Node2 -->
<g id="edge1" class="edge">
<title>Node1&#45;&gt;Node2</title>
<path fill="none" stroke="midnightblue" d="M173.81,-74.68C154.41,-79.16 133.73,-83.93 116.33,-87.95"/>
<polygon fill="midnightblue" stroke="midnightblue" points="174.85,-78.03 183.81,-72.37 173.28,-71.21 174.85,-78.03"/>
</g>
<!-- Node3 -->
<g id="node3" class="node">
<title>Node3</title>
<g id="a_node3"><a xlink:href="class_client_connection.html#afe6b1ba83296adf927481639c9d49fa9" target="_top" xlink:title=" ">
<polygon fill="none" stroke="black" points="0,-50 0,-69 148,-69 148,-50 0,-50"/>
<text text-anchor="middle" x="74" y="-57" font-family="Helvetica,sans-Serif" font-size="10.00">ClientConnection::onSignIn</text>
</a>
</g>
</g>
<!-- Node1&#45;&gt;Node3 -->
<g id="edge2" class="edge">
<title>Node1&#45;&gt;Node3</title>
<path fill="none" stroke="midnightblue" d="M173.7,-59.5C165.29,-59.5 156.65,-59.5 148.13,-59.5"/>
<polygon fill="midnightblue" stroke="midnightblue" points="173.81,-63 183.81,-59.5 173.81,-56 173.81,-63"/>
</g>
<!-- Node4 -->
<g id="node4" class="node">
<title>Node4</title>
<g id="a_node4"><a xlink:href="class_serverside_handler.html#a23934e9bf9b31867870c7c64958b0a9f" target="_top" xlink:title=" ">
<polygon fill="none" stroke="black" points="17.5,-0.5 17.5,-30.5 130.5,-30.5 130.5,-0.5 17.5,-0.5"/>
<text text-anchor="start" x="25.5" y="-18.5" font-family="Helvetica,sans-Serif" font-size="10.00">ServersideHandler::</text>
<text text-anchor="middle" x="74" y="-7.5" font-family="Helvetica,sans-Serif" font-size="10.00">receive</text>
</a>
</g>
</g>
<!-- Node1&#45;&gt;Node4 -->
<g id="edge3" class="edge">
<title>Node1&#45;&gt;Node4</title>
<path fill="none" stroke="midnightblue" d="M174,-41.98C159.64,-38.14 144.57,-34.11 130.63,-30.38"/>
<polygon fill="midnightblue" stroke="midnightblue" points="173.24,-45.4 183.81,-44.6 175.05,-38.64 173.24,-45.4"/>
</g>
</g>
</svg>
