<?xml version="1.0" encoding="UTF-8" standalone="no"?>
<!DOCTYPE svg PUBLIC "-//W3C//DTD SVG 1.1//EN"
 "http://www.w3.org/Graphics/SVG/1.1/DTD/svg11.dtd">
<!-- Generated by graphviz version 2.43.0 (0)
 -->
<!-- Title: MessagesBuilder::reset Pages: 1 -->
<svg width="531pt" height="382pt"
 viewBox="0.00 0.00 531.00 382.00" xmlns="http://www.w3.org/2000/svg" xmlns:xlink="http://www.w3.org/1999/xlink">
<g id="graph0" class="graph" transform="scale(1 1) rotate(0) translate(4 378)">
<title>MessagesBuilder::reset</title>
<!-- Node1 -->
<g id="node1" class="node">
<title>Node1</title>
<g id="a_node1"><a xlink:title=" ">
<polygon fill="#bfbfbf" stroke="black" points="392,-177 392,-196 523,-196 523,-177 392,-177"/>
<text text-anchor="middle" x="457.5" y="-184" font-family="Helvetica,sans-Serif" font-size="10.00">MessagesBuilder::reset</text>
</a>
</g>
</g>
<!-- Node2 -->
<g id="node2" class="node">
<title>Node2</title>
<g id="a_node2"><a xlink:href="class_messages_builder.html#a29c0637d98e0cd5c7b7f0a969fda5415" target="_top" xlink:title=" ">
<polygon fill="none" stroke="black" points="204,-177 204,-196 356,-196 356,-177 204,-177"/>
<text text-anchor="middle" x="280" y="-184" font-family="Helvetica,sans-Serif" font-size="10.00">MessagesBuilder::getResult</text>
</a>
</g>
</g>
<!-- Node1&#45;&gt;Node2 -->
<g id="edge1" class="edge">
<title>Node1&#45;&gt;Node2</title>
<path fill="none" stroke="midnightblue" d="M381.54,-186.5C373.16,-186.5 364.63,-186.5 356.26,-186.5"/>
<polygon fill="midnightblue" stroke="midnightblue" points="381.65,-190 391.65,-186.5 381.65,-183 381.65,-190"/>
</g>
<!-- Node3 -->
<g id="node3" class="node">
<title>Node3</title>
<g id="a_node3"><a xlink:href="class_request_creator.html#ab1e286d57e3bbb67d952397e832dfe35" target="_top" xlink:title=" ">
<polygon fill="none" stroke="black" points="8,-343.5 8,-373.5 160,-373.5 160,-343.5 8,-343.5"/>
<text text-anchor="start" x="16" y="-361.5" font-family="Helvetica,sans-Serif" font-size="10.00">RequestCreator::createChat</text>
<text text-anchor="middle" x="84" y="-350.5" font-family="Helvetica,sans-Serif" font-size="10.00">Message</text>
</a>
</g>
</g>
<!-- Node2&#45;&gt;Node3 -->
<g id="edge2" class="edge">
<title>Node2&#45;&gt;Node3</title>
<path fill="none" stroke="midnightblue" d="M270.1,-205.17C254.14,-236.67 217.6,-300.24 168,-334.5 163.06,-337.91 157.64,-340.84 152.01,-343.36"/>
<polygon fill="midnightblue" stroke="midnightblue" points="273.27,-206.67 274.55,-196.15 266.99,-203.57 273.27,-206.67"/>
</g>
<!-- Node4 -->
<g id="node4" class="node">
<title>Node4</title>
<g id="a_node4"><a xlink:href="class_request_creator.html#a8e3a2c9b3071c84deec963576f116d1d" target="_top" xlink:title=" ">
<polygon fill="none" stroke="black" points="8,-294.5 8,-324.5 160,-324.5 160,-294.5 8,-294.5"/>
<text text-anchor="start" x="16" y="-312.5" font-family="Helvetica,sans-Serif" font-size="10.00">RequestCreator::createError</text>
<text text-anchor="middle" x="84" y="-301.5" font-family="Helvetica,sans-Serif" font-size="10.00">Message</text>
</a>
</g>
</g>
<!-- Node2&#45;&gt;Node4 -->
<g id="edge3" class="edge">
<title>Node2&#45;&gt;Node4</title>
<path fill="none" stroke="midnightblue" d="M264.16,-203.85C244.38,-225.93 207.28,-263.79 168,-285.5 161.83,-288.91 155.13,-291.88 148.3,-294.45"/>
<polygon fill="midnightblue" stroke="midnightblue" points="266.89,-206.05 270.87,-196.23 261.63,-201.43 266.89,-206.05"/>
</g>
<!-- Node5 -->
<g id="node5" class="node">
<title>Node5</title>
<g id="a_node5"><a xlink:href="class_request_creator.html#ab5e561064fa3343725110f627ad6fad6" target="_top" xlink:title=" ">
<polygon fill="none" stroke="black" points="2,-245.5 2,-275.5 166,-275.5 166,-245.5 2,-245.5"/>
<text text-anchor="start" x="10" y="-263.5" font-family="Helvetica,sans-Serif" font-size="10.00">RequestCreator::createHistory</text>
<text text-anchor="middle" x="84" y="-252.5" font-family="Helvetica,sans-Serif" font-size="10.00">Message</text>
</a>
</g>
</g>
<!-- Node2&#45;&gt;Node5 -->
<g id="edge4" class="edge">
<title>Node2&#45;&gt;Node5</title>
<path fill="none" stroke="midnightblue" d="M250.93,-200.48C228.76,-211.19 196.86,-225.89 168,-236.5 159.41,-239.66 150.2,-242.67 141.16,-245.44"/>
<polygon fill="midnightblue" stroke="midnightblue" points="252.64,-203.54 260.09,-196.01 249.57,-197.25 252.64,-203.54"/>
</g>
<!-- Node6 -->
<g id="node6" class="node">
<title>Node6</title>
<g id="a_node6"><a xlink:href="class_request_creator.html#ad97ab51d248f013bc6e92d5695afe307" target="_top" xlink:title=" ">
<polygon fill="none" stroke="black" points="10,-196.5 10,-226.5 158,-226.5 158,-196.5 10,-196.5"/>
<text text-anchor="start" x="18" y="-214.5" font-family="Helvetica,sans-Serif" font-size="10.00">RequestCreator::createInfo</text>
<text text-anchor="middle" x="84" y="-203.5" font-family="Helvetica,sans-Serif" font-size="10.00">Message</text>
</a>
</g>
</g>
<!-- Node2&#45;&gt;Node6 -->
<g id="edge5" class="edge">
<title>Node2&#45;&gt;Node6</title>
<path fill="none" stroke="midnightblue" d="M194.88,-197.34C182.62,-198.92 170.07,-200.54 158.05,-202.09"/>
<polygon fill="midnightblue" stroke="midnightblue" points="195.63,-200.77 205.1,-196.02 194.74,-193.83 195.63,-200.77"/>
</g>
<!-- Node7 -->
<g id="node7" class="node">
<title>Node7</title>
<g id="a_node7"><a xlink:href="class_request_creator.html#ac003f7f8344e8c6ca62440b0a3af490e" target="_top" xlink:title=" ">
<polygon fill="none" stroke="black" points="10.5,-147.5 10.5,-177.5 157.5,-177.5 157.5,-147.5 10.5,-147.5"/>
<text text-anchor="start" x="18.5" y="-165.5" font-family="Helvetica,sans-Serif" font-size="10.00">RequestCreator::createJoin</text>
<text text-anchor="middle" x="84" y="-154.5" font-family="Helvetica,sans-Serif" font-size="10.00">Message</text>
</a>
</g>
</g>
<!-- Node2&#45;&gt;Node7 -->
<g id="edge6" class="edge">
<title>Node2&#45;&gt;Node7</title>
<path fill="none" stroke="midnightblue" d="M193.9,-175.97C181.78,-174.47 169.42,-172.94 157.57,-171.48"/>
<polygon fill="midnightblue" stroke="midnightblue" points="193.64,-179.47 203.99,-177.22 194.5,-172.52 193.64,-179.47"/>
</g>
<!-- Node8 -->
<g id="node8" class="node">
<title>Node8</title>
<g id="a_node8"><a xlink:href="class_request_creator.html#a925f578838354af5563c1585403dce4d" target="_top" xlink:title=" ">
<polygon fill="none" stroke="black" points="5,-98.5 5,-128.5 163,-128.5 163,-98.5 5,-98.5"/>
<text text-anchor="start" x="13" y="-116.5" font-family="Helvetica,sans-Serif" font-size="10.00">RequestCreator::createLeave</text>
<text text-anchor="middle" x="84" y="-105.5" font-family="Helvetica,sans-Serif" font-size="10.00">Message</text>
</a>
</g>
</g>
<!-- Node2&#45;&gt;Node8 -->
<g id="edge7" class="edge">
<title>Node2&#45;&gt;Node8</title>
<path fill="none" stroke="midnightblue" d="M249.63,-172.69C227.47,-162.55 196.17,-148.79 168,-138.5 158.53,-135.04 148.33,-131.68 138.43,-128.6"/>
<polygon fill="midnightblue" stroke="midnightblue" points="248.28,-175.93 258.83,-176.94 251.21,-169.57 248.28,-175.93"/>
</g>
<!-- Node9 -->
<g id="node9" class="node">
<title>Node9</title>
<g id="a_node9"><a xlink:href="class_request_creator.html#a4800733c4f35f5bec150468c78979a58" target="_top" xlink:title=" ">
<polygon fill="none" stroke="black" points="0,-49.5 0,-79.5 168,-79.5 168,-49.5 0,-49.5"/>
<text text-anchor="start" x="8" y="-67.5" font-family="Helvetica,sans-Serif" font-size="10.00">RequestCreator::createManage</text>
<text text-anchor="middle" x="84" y="-56.5" font-family="Helvetica,sans-Serif" font-size="10.00">Message</text>
</a>
</g>
</g>
<!-- Node2&#45;&gt;Node9 -->
<g id="edge8" class="edge">
<title>Node2&#45;&gt;Node9</title>
<path fill="none" stroke="midnightblue" d="M263.75,-169.25C243.77,-147.66 206.72,-110.92 168,-89.5 161.15,-85.71 153.66,-82.43 146.07,-79.61"/>
<polygon fill="midnightblue" stroke="midnightblue" points="261.22,-171.67 270.53,-176.72 266.4,-166.96 261.22,-171.67"/>
</g>
<!-- Node10 -->
<g id="node10" class="node">
<title>Node10</title>
<g id="a_node10"><a xlink:href="class_request_creator.html#a45363fa936dc76946bbcc3095c8562d3" target="_top" xlink:title=" ">
<polygon fill="none" stroke="black" points="8,-0.5 8,-30.5 160,-30.5 160,-0.5 8,-0.5"/>
<text text-anchor="start" x="16" y="-18.5" font-family="Helvetica,sans-Serif" font-size="10.00">RequestCreator::createUser</text>
<text text-anchor="middle" x="84" y="-7.5" font-family="Helvetica,sans-Serif" font-size="10.00">ListMessage</text>
</a>
</g>
</g>
<!-- Node2&#45;&gt;Node10 -->
<g id="edge9" class="edge">
<title>Node2&#45;&gt;Node10</title>
<path fill="none" stroke="midnightblue" d="M269.76,-167.69C253.51,-136.56 216.86,-74.41 168,-40.5 162.44,-36.64 156.26,-33.36 149.87,-30.59"/>
<polygon fill="midnightblue" stroke="midnightblue" points="266.66,-169.3 274.31,-176.63 272.89,-166.13 266.66,-169.3"/>
</g>
</g>
</svg>
