<?xml version="1.0" encoding="UTF-8" standalone="no"?>
<!DOCTYPE svg PUBLIC "-//W3C//DTD SVG 1.1//EN"
 "http://www.w3.org/Graphics/SVG/1.1/DTD/svg11.dtd">
<!-- Generated by graphviz version 2.43.0 (0)
 -->
<!-- Title: AbstractHandler::setAccount Pages: 1 -->
<svg width="351pt" height="66pt"
 viewBox="0.00 0.00 351.00 66.00" xmlns="http://www.w3.org/2000/svg" xmlns:xlink="http://www.w3.org/1999/xlink">
<g id="graph0" class="graph" transform="scale(1 1) rotate(0) translate(4 62)">
<title>AbstractHandler::setAccount</title>
<!-- Node1 -->
<g id="node1" class="node">
<title>Node1</title>
<g id="a_node1"><a xlink:title=" ">
<polygon fill="#bfbfbf" stroke="black" points="188,-19.5 188,-38.5 343,-38.5 343,-19.5 188,-19.5"/>
<text text-anchor="middle" x="265.5" y="-26.5" font-family="Helvetica,sans-Serif" font-size="10.00">AbstractHandler::setAccount</text>
</a>
</g>
</g>
<!-- Node2 -->
<g id="node2" class="node">
<title>Node2</title>
<g id="a_node2"><a xlink:href="class_client_connection.html#afe6b1ba83296adf927481639c9d49fa9" target="_top" xlink:title=" ">
<polygon fill="none" stroke="black" points="2,-38.5 2,-57.5 150,-57.5 150,-38.5 2,-38.5"/>
<text text-anchor="middle" x="76" y="-45.5" font-family="Helvetica,sans-Serif" font-size="10.00">ClientConnection::onSignIn</text>
</a>
</g>
</g>
<!-- Node1&#45;&gt;Node2 -->
<g id="edge1" class="edge">
<title>Node1&#45;&gt;Node2</title>
<path fill="none" stroke="midnightblue" d="M177.97,-37.77C168.71,-38.71 159.35,-39.66 150.26,-40.58"/>
<polygon fill="midnightblue" stroke="midnightblue" points="178.37,-41.25 187.97,-36.76 177.66,-34.28 178.37,-41.25"/>
</g>
<!-- Node3 -->
<g id="node3" class="node">
<title>Node3</title>
<g id="a_node3"><a xlink:href="class_client_connection.html#afa4df6973901a28f9c8f065a430a7bec" target="_top" xlink:title=" ">
<polygon fill="none" stroke="black" points="0,-0.5 0,-19.5 152,-19.5 152,-0.5 0,-0.5"/>
<text text-anchor="middle" x="76" y="-7.5" font-family="Helvetica,sans-Serif" font-size="10.00">ClientConnection::onSignUp</text>
</a>
</g>
</g>
<!-- Node1&#45;&gt;Node3 -->
<g id="edge2" class="edge">
<title>Node1&#45;&gt;Node3</title>
<path fill="none" stroke="midnightblue" d="M177.9,-20.22C169.27,-19.35 160.57,-18.47 152.08,-17.61"/>
<polygon fill="midnightblue" stroke="midnightblue" points="177.66,-23.72 187.97,-21.24 178.37,-16.75 177.66,-23.72"/>
</g>
</g>
</svg>
