<?xml version="1.0" encoding="UTF-8" standalone="no"?>
<!DOCTYPE svg PUBLIC "-//W3C//DTD SVG 1.1//EN"
 "http://www.w3.org/Graphics/SVG/1.1/DTD/svg11.dtd">
<!-- Generated by graphviz version 2.43.0 (0)
 -->
<!-- Title: MessagesBuilder::addSender Pages: 1 -->
<svg width="360pt" height="137pt"
 viewBox="0.00 0.00 360.00 137.00" xmlns="http://www.w3.org/2000/svg" xmlns:xlink="http://www.w3.org/1999/xlink">
<g id="graph0" class="graph" transform="scale(1 1) rotate(0) translate(4 133)">
<title>MessagesBuilder::addSender</title>
<!-- Node1 -->
<g id="node1" class="node">
<title>Node1</title>
<g id="a_node1"><a xlink:title=" ">
<polygon fill="#bfbfbf" stroke="black" points="194,-55 194,-74 352,-74 352,-55 194,-55"/>
<text text-anchor="middle" x="273" y="-62" font-family="Helvetica,sans-Serif" font-size="10.00">MessagesBuilder::addSender</text>
</a>
</g>
</g>
<!-- Node2 -->
<g id="node2" class="node">
<title>Node2</title>
<g id="a_node2"><a xlink:href="class_request_creator.html#ab1e286d57e3bbb67d952397e832dfe35" target="_top" xlink:title=" ">
<polygon fill="none" stroke="black" points="3,-98.5 3,-128.5 155,-128.5 155,-98.5 3,-98.5"/>
<text text-anchor="start" x="11" y="-116.5" font-family="Helvetica,sans-Serif" font-size="10.00">RequestCreator::createChat</text>
<text text-anchor="middle" x="79" y="-105.5" font-family="Helvetica,sans-Serif" font-size="10.00">Message</text>
</a>
</g>
</g>
<!-- Node1&#45;&gt;Node2 -->
<g id="edge1" class="edge">
<title>Node1&#45;&gt;Node2</title>
<path fill="none" stroke="midnightblue" d="M224.58,-76.6C198.7,-83.21 166.41,-91.45 138.92,-98.46"/>
<polygon fill="midnightblue" stroke="midnightblue" points="225.7,-79.93 234.52,-74.06 223.97,-73.15 225.7,-79.93"/>
</g>
<!-- Node3 -->
<g id="node3" class="node">
<title>Node3</title>
<g id="a_node3"><a xlink:href="class_request_creator.html#ac003f7f8344e8c6ca62440b0a3af490e" target="_top" xlink:title=" ">
<polygon fill="none" stroke="black" points="5.5,-49.5 5.5,-79.5 152.5,-79.5 152.5,-49.5 5.5,-49.5"/>
<text text-anchor="start" x="13.5" y="-67.5" font-family="Helvetica,sans-Serif" font-size="10.00">RequestCreator::createJoin</text>
<text text-anchor="middle" x="79" y="-56.5" font-family="Helvetica,sans-Serif" font-size="10.00">Message</text>
</a>
</g>
</g>
<!-- Node1&#45;&gt;Node3 -->
<g id="edge2" class="edge">
<title>Node1&#45;&gt;Node3</title>
<path fill="none" stroke="midnightblue" d="M183.63,-64.5C173.3,-64.5 162.85,-64.5 152.76,-64.5"/>
<polygon fill="midnightblue" stroke="midnightblue" points="183.91,-68 193.91,-64.5 183.91,-61 183.91,-68"/>
</g>
<!-- Node4 -->
<g id="node4" class="node">
<title>Node4</title>
<g id="a_node4"><a xlink:href="class_request_creator.html#a925f578838354af5563c1585403dce4d" target="_top" xlink:title=" ">
<polygon fill="none" stroke="black" points="0,-0.5 0,-30.5 158,-30.5 158,-0.5 0,-0.5"/>
<text text-anchor="start" x="8" y="-18.5" font-family="Helvetica,sans-Serif" font-size="10.00">RequestCreator::createLeave</text>
<text text-anchor="middle" x="79" y="-7.5" font-family="Helvetica,sans-Serif" font-size="10.00">Message</text>
</a>
</g>
</g>
<!-- Node1&#45;&gt;Node4 -->
<g id="edge3" class="edge">
<title>Node1&#45;&gt;Node4</title>
<path fill="none" stroke="midnightblue" d="M224.58,-52.4C198.7,-45.79 166.41,-37.55 138.92,-30.54"/>
<polygon fill="midnightblue" stroke="midnightblue" points="223.97,-55.85 234.52,-54.94 225.7,-49.07 223.97,-55.85"/>
</g>
</g>
</svg>
