<?xml version="1.0" encoding="UTF-8" standalone="no"?>
<!DOCTYPE svg PUBLIC "-//W3C//DTD SVG 1.1//EN"
 "http://www.w3.org/Graphics/SVG/1.1/DTD/svg11.dtd">
<!-- Generated by graphviz version 2.43.0 (0)
 -->
<!-- Title: PropertiesDecorator Pages: 1 -->
<!--zoomable 618 -->
<svg id="main" version="1.1" xmlns="http://www.w3.org/2000/svg" xmlns:xlink="http://www.w3.org/1999/xlink" xml:space="preserve" onload="init(evt)">
<style type="text/css"><![CDATA[
.edge:hover path { stroke: red; }
.edge:hover polygon { stroke: red; fill: red; }
]]></style>
<script type="text/javascript"><![CDATA[
var edges = document.getElementsByTagName('g');
if (edges && edges.length) {
  for (var i=0;i<edges.length;i++) {
    if (edges[i].id.substr(0,4)=='edge') {
      edges[i].setAttribute('class','edge');
    }
  }
}
]]></script>
        <defs>
                <circle id="rim" cx="0" cy="0" r="7"/>
                <circle id="rim2" cx="0" cy="0" r="3.5"/>
                <g id="zoomPlus">
                        <use xlink:href="#rim" fill="#404040">
                                <set attributeName="fill" to="#808080" begin="zoomplus.mouseover" end="zoomplus.mouseout"/>
                        </use>
                        <path d="M-4,0h8M0,-4v8" fill="none" stroke="white" stroke-width="1.5" pointer-events="none"/>
                </g>
                <g id="zoomMin">
                        <use xlink:href="#rim" fill="#404040">
                                <set attributeName="fill" to="#808080" begin="zoomminus.mouseover" end="zoomminus.mouseout"/>
                        </use>
                        <path d="M-4,0h8" fill="none" stroke="white" stroke-width="1.5" pointer-events="none"/>
                </g>
                <g id="dirArrow">
                        <path fill="none" stroke="white" stroke-width="1.5" d="M0,-3.0v7 M-2.5,-0.5L0,-3.0L2.5,-0.5"/>
                </g>
               <g id="resetDef">
                       <use xlink:href="#rim2" fill="#404040">
                               <set attributeName="fill" to="#808080" begin="reset.mouseover" end="reset.mouseout"/>
                       </use>
               </g>
        </defs>

<script type="text/javascript">
var viewWidth = 680;
var viewHeight = 618;
var sectionId = 'dynsection-0';
</script>
<script xlink:href="svgpan.js"/>
<svg id="graph" class="graph">
<g id="viewport">
<title>PropertiesDecorator</title>
<!-- Node1 -->
<g id="node1" class="node">
<title>Node1</title>
<g id="a_node1"><a xlink:title=" ">
<polygon fill="#bfbfbf" stroke="black" points="274.5,-149.5 274.5,-272.5 415.5,-272.5 415.5,-149.5 274.5,-149.5"/>
<text text-anchor="middle" x="345" y="-260.5" font-family="Helvetica,sans-Serif" font-size="10.00">PropertiesDecorator</text>
<polyline fill="none" stroke="black" points="274.5,-253.5 415.5,-253.5 "/>
<text text-anchor="start" x="282.5" y="-241.5" font-family="Helvetica,sans-Serif" font-size="10.00"># wrapper</text>
<polyline fill="none" stroke="black" points="274.5,-234.5 415.5,-234.5 "/>
<text text-anchor="start" x="282.5" y="-222.5" font-family="Helvetica,sans-Serif" font-size="10.00">+ PropertiesDecorator()</text>
<text text-anchor="start" x="282.5" y="-211.5" font-family="Helvetica,sans-Serif" font-size="10.00">+ ~PropertiesDecorator()</text>
<text text-anchor="start" x="282.5" y="-200.5" font-family="Helvetica,sans-Serif" font-size="10.00">+ getRoom()</text>
<text text-anchor="start" x="282.5" y="-189.5" font-family="Helvetica,sans-Serif" font-size="10.00">+ getType()</text>
<text text-anchor="start" x="282.5" y="-178.5" font-family="Helvetica,sans-Serif" font-size="10.00">+ getQuery()</text>
<text text-anchor="start" x="282.5" y="-167.5" font-family="Helvetica,sans-Serif" font-size="10.00">+ handle()</text>
<text text-anchor="start" x="282.5" y="-156.5" font-family="Helvetica,sans-Serif" font-size="10.00">+ handle()</text>
</a>
</g>
</g>
<!-- Node5 -->
<g id="node5" class="node">
<title>Node5</title>
<g id="a_node5"><a xlink:href="class_private_decorator.html" target="_top" xlink:title=" ">
<polygon fill="none" stroke="black" points="0,-0.5 0,-112.5 126,-112.5 126,-0.5 0,-0.5"/>
<text text-anchor="middle" x="63" y="-100.5" font-family="Helvetica,sans-Serif" font-size="10.00">PrivateDecorator</text>
<polyline fill="none" stroke="black" points="0,-93.5 126,-93.5 "/>
<text text-anchor="middle" x="63" y="-81.5" font-family="Helvetica,sans-Serif" font-size="10.00"> </text>
<polyline fill="none" stroke="black" points="0,-74.5 126,-74.5 "/>
<text text-anchor="start" x="8" y="-62.5" font-family="Helvetica,sans-Serif" font-size="10.00">+ PrivateDecorator()</text>
<text text-anchor="start" x="8" y="-51.5" font-family="Helvetica,sans-Serif" font-size="10.00">+ ~PrivateDecorator()</text>
<text text-anchor="start" x="8" y="-40.5" font-family="Helvetica,sans-Serif" font-size="10.00">+ getQuery()</text>
<text text-anchor="start" x="8" y="-29.5" font-family="Helvetica,sans-Serif" font-size="10.00">+ handle()</text>
<text text-anchor="start" x="8" y="-18.5" font-family="Helvetica,sans-Serif" font-size="10.00">+ handle()</text>
<text text-anchor="start" x="8" y="-7.5" font-family="Helvetica,sans-Serif" font-size="10.00">+ getAddressee()</text>
</a>
</g>
</g>
<!-- Node1&#45;&gt;Node5 -->
<g id="edge4" class="edge">
<title>Node1&#45;&gt;Node5</title>
<path fill="none" stroke="midnightblue" d="M265.21,-178.16C225.05,-160.9 176.27,-138 135,-113 132.03,-111.2 129.04,-109.3 126.05,-107.33"/>
<polygon fill="none" stroke="midnightblue" points="263.86,-181.39 274.43,-182.09 266.6,-174.95 263.86,-181.39"/>
</g>
<!-- Node6 -->
<g id="node6" class="node">
<title>Node6</title>
<g id="a_node6"><a xlink:href="class_room_decorator.html" target="_top" xlink:title=" ">
<polygon fill="none" stroke="black" points="144,-6 144,-107 264,-107 264,-6 144,-6"/>
<text text-anchor="middle" x="204" y="-95" font-family="Helvetica,sans-Serif" font-size="10.00">RoomDecorator</text>
<polyline fill="none" stroke="black" points="144,-88 264,-88 "/>
<text text-anchor="middle" x="204" y="-76" font-family="Helvetica,sans-Serif" font-size="10.00"> </text>
<polyline fill="none" stroke="black" points="144,-69 264,-69 "/>
<text text-anchor="start" x="152" y="-57" font-family="Helvetica,sans-Serif" font-size="10.00">+ RoomDecorator()</text>
<text text-anchor="start" x="152" y="-46" font-family="Helvetica,sans-Serif" font-size="10.00">+ ~RoomDecorator()</text>
<text text-anchor="start" x="152" y="-35" font-family="Helvetica,sans-Serif" font-size="10.00">+ getRoom()</text>
<text text-anchor="start" x="152" y="-24" font-family="Helvetica,sans-Serif" font-size="10.00">+ getQuery()</text>
<text text-anchor="start" x="152" y="-13" font-family="Helvetica,sans-Serif" font-size="10.00">+ handle()</text>
</a>
</g>
</g>
<!-- Node1&#45;&gt;Node6 -->
<g id="edge5" class="edge">
<title>Node1&#45;&gt;Node6</title>
<path fill="none" stroke="midnightblue" d="M281.86,-141.71C271.13,-130.1 260.16,-118.24 249.98,-107.23"/>
<polygon fill="none" stroke="midnightblue" points="279.51,-144.32 288.87,-149.29 284.65,-139.57 279.51,-144.32"/>
</g>
<!-- Node7 -->
<g id="node7" class="node">
<title>Node7</title>
<g id="a_node7"><a xlink:href="class_sender_decorator.html" target="_top" xlink:title=" ">
<polygon fill="none" stroke="black" points="282.5,-6 282.5,-107 407.5,-107 407.5,-6 282.5,-6"/>
<text text-anchor="middle" x="345" y="-95" font-family="Helvetica,sans-Serif" font-size="10.00">SenderDecorator</text>
<polyline fill="none" stroke="black" points="282.5,-88 407.5,-88 "/>
<text text-anchor="middle" x="345" y="-76" font-family="Helvetica,sans-Serif" font-size="10.00"> </text>
<polyline fill="none" stroke="black" points="282.5,-69 407.5,-69 "/>
<text text-anchor="start" x="290.5" y="-57" font-family="Helvetica,sans-Serif" font-size="10.00">+ SenderDecorator()</text>
<text text-anchor="start" x="290.5" y="-46" font-family="Helvetica,sans-Serif" font-size="10.00">+ ~SenderDecorator()</text>
<text text-anchor="start" x="290.5" y="-35" font-family="Helvetica,sans-Serif" font-size="10.00">+ getQuery()</text>
<text text-anchor="start" x="290.5" y="-24" font-family="Helvetica,sans-Serif" font-size="10.00">+ handle()</text>
<text text-anchor="start" x="290.5" y="-13" font-family="Helvetica,sans-Serif" font-size="10.00">+ getSender()</text>
</a>
</g>
</g>
<!-- Node1&#45;&gt;Node7 -->
<g id="edge6" class="edge">
<title>Node1&#45;&gt;Node7</title>
<path fill="none" stroke="midnightblue" d="M345,-139.05C345,-128.3 345,-117.4 345,-107.23"/>
<polygon fill="none" stroke="midnightblue" points="341.5,-139.29 345,-149.29 348.5,-139.29 341.5,-139.29"/>
</g>
<!-- Node8 -->
<g id="node8" class="node">
<title>Node8</title>
<g id="a_node8"><a xlink:href="class_text_decorator.html" target="_top" xlink:title=" ">
<polygon fill="none" stroke="black" points="426,-6 426,-107 538,-107 538,-6 426,-6"/>
<text text-anchor="middle" x="482" y="-95" font-family="Helvetica,sans-Serif" font-size="10.00">TextDecorator</text>
<polyline fill="none" stroke="black" points="426,-88 538,-88 "/>
<text text-anchor="middle" x="482" y="-76" font-family="Helvetica,sans-Serif" font-size="10.00"> </text>
<polyline fill="none" stroke="black" points="426,-69 538,-69 "/>
<text text-anchor="start" x="434" y="-57" font-family="Helvetica,sans-Serif" font-size="10.00">+ TextDecorator()</text>
<text text-anchor="start" x="434" y="-46" font-family="Helvetica,sans-Serif" font-size="10.00">+ ~TextDecorator()</text>
<text text-anchor="start" x="434" y="-35" font-family="Helvetica,sans-Serif" font-size="10.00">+ getQuery()</text>
<text text-anchor="start" x="434" y="-24" font-family="Helvetica,sans-Serif" font-size="10.00">+ handle()</text>
<text text-anchor="start" x="434" y="-13" font-family="Helvetica,sans-Serif" font-size="10.00">+ getText()</text>
</a>
</g>
</g>
<!-- Node1&#45;&gt;Node8 -->
<g id="edge7" class="edge">
<title>Node1&#45;&gt;Node8</title>
<path fill="none" stroke="midnightblue" d="M406.35,-141.71C416.78,-130.1 427.43,-118.24 437.32,-107.23"/>
<polygon fill="none" stroke="midnightblue" points="403.62,-139.51 399.54,-149.29 408.83,-144.19 403.62,-139.51"/>
</g>
<!-- Node9 -->
<g id="node9" class="node">
<title>Node9</title>
<g id="a_node9"><a xlink:href="class_time_decorator.html" target="_top" xlink:title=" ">
<polygon fill="none" stroke="black" points="556,-0.5 556,-112.5 672,-112.5 672,-0.5 556,-0.5"/>
<text text-anchor="middle" x="614" y="-100.5" font-family="Helvetica,sans-Serif" font-size="10.00">TimeDecorator</text>
<polyline fill="none" stroke="black" points="556,-93.5 672,-93.5 "/>
<text text-anchor="middle" x="614" y="-81.5" font-family="Helvetica,sans-Serif" font-size="10.00"> </text>
<polyline fill="none" stroke="black" points="556,-74.5 672,-74.5 "/>
<text text-anchor="start" x="564" y="-62.5" font-family="Helvetica,sans-Serif" font-size="10.00">+ TimeDecorator()</text>
<text text-anchor="start" x="564" y="-51.5" font-family="Helvetica,sans-Serif" font-size="10.00">+ TimeDecorator()</text>
<text text-anchor="start" x="564" y="-40.5" font-family="Helvetica,sans-Serif" font-size="10.00">+ ~TimeDecorator()</text>
<text text-anchor="start" x="564" y="-29.5" font-family="Helvetica,sans-Serif" font-size="10.00">+ getQuery()</text>
<text text-anchor="start" x="564" y="-18.5" font-family="Helvetica,sans-Serif" font-size="10.00">+ handle()</text>
<text text-anchor="start" x="564" y="-7.5" font-family="Helvetica,sans-Serif" font-size="10.00">+ getTimestamp()</text>
</a>
</g>
</g>
<!-- Node1&#45;&gt;Node9 -->
<g id="edge8" class="edge">
<title>Node1&#45;&gt;Node9</title>
<path fill="none" stroke="midnightblue" d="M425.46,-176.81C463.48,-159.78 508.8,-137.47 547,-113 549.93,-111.13 552.87,-109.14 555.8,-107.08"/>
<polygon fill="none" stroke="midnightblue" points="423.68,-173.77 415.96,-181.03 426.52,-180.17 423.68,-173.77"/>
</g>
<!-- Node2 -->
<g id="node2" class="node">
<title>Node2</title>
<g id="a_node2"><a xlink:href="class_message.html" target="_top" xlink:title=" ">
<polygon fill="none" stroke="black" points="301.5,-309.5 301.5,-388.5 388.5,-388.5 388.5,-309.5 301.5,-309.5"/>
<text text-anchor="middle" x="345" y="-376.5" font-family="Helvetica,sans-Serif" font-size="10.00">Message</text>
<polyline fill="none" stroke="black" points="301.5,-369.5 388.5,-369.5 "/>
<text text-anchor="middle" x="345" y="-357.5" font-family="Helvetica,sans-Serif" font-size="10.00"> </text>
<polyline fill="none" stroke="black" points="301.5,-350.5 388.5,-350.5 "/>
<text text-anchor="start" x="309.5" y="-338.5" font-family="Helvetica,sans-Serif" font-size="10.00">+ ~Message()</text>
<text text-anchor="start" x="309.5" y="-327.5" font-family="Helvetica,sans-Serif" font-size="10.00">+ getRoom()</text>
<text text-anchor="start" x="309.5" y="-316.5" font-family="Helvetica,sans-Serif" font-size="10.00">+ getType()</text>
</a>
</g>
</g>
<!-- Node2&#45;&gt;Node1 -->
<g id="edge1" class="edge">
<title>Node2&#45;&gt;Node1</title>
<path fill="none" stroke="midnightblue" d="M345,-299.14C345,-290.53 345,-281.47 345,-272.57"/>
<polygon fill="none" stroke="midnightblue" points="341.5,-299.39 345,-309.39 348.5,-299.39 341.5,-299.39"/>
</g>
<!-- Node3 -->
<g id="node3" class="node">
<title>Node3</title>
<g id="a_node3"><a xlink:href="class_request.html" target="_top" xlink:title=" ">
<polygon fill="none" stroke="black" points="305,-425.5 305,-504.5 385,-504.5 385,-425.5 305,-425.5"/>
<text text-anchor="middle" x="345" y="-492.5" font-family="Helvetica,sans-Serif" font-size="10.00">Request</text>
<polyline fill="none" stroke="black" points="305,-485.5 385,-485.5 "/>
<text text-anchor="start" x="313" y="-473.5" font-family="Helvetica,sans-Serif" font-size="10.00">+ separator</text>
<polyline fill="none" stroke="black" points="305,-466.5 385,-466.5 "/>
<text text-anchor="start" x="313" y="-454.5" font-family="Helvetica,sans-Serif" font-size="10.00">+ getQuery()</text>
<text text-anchor="start" x="313" y="-443.5" font-family="Helvetica,sans-Serif" font-size="10.00">+ handle()</text>
<text text-anchor="start" x="313" y="-432.5" font-family="Helvetica,sans-Serif" font-size="10.00">+ handle()</text>
</a>
</g>
</g>
<!-- Node3&#45;&gt;Node2 -->
<g id="edge2" class="edge">
<title>Node3&#45;&gt;Node2</title>
<path fill="none" stroke="midnightblue" d="M345,-415.15C345,-406.26 345,-397.1 345,-388.56"/>
<polygon fill="none" stroke="midnightblue" points="341.5,-415.4 345,-425.4 348.5,-415.4 341.5,-415.4"/>
</g>
<!-- Node4 -->
<g id="node4" class="node">
<title>Node4</title>
<g id="a_node4"><a xlink:title=" ">
<polygon fill="none" stroke="black" points="279.5,-541.5 279.5,-609.5 410.5,-609.5 410.5,-541.5 279.5,-541.5"/>
<text text-anchor="start" x="287.5" y="-597.5" font-family="Helvetica,sans-Serif" font-size="10.00">std::enable_shared</text>
<text text-anchor="middle" x="345" y="-586.5" font-family="Helvetica,sans-Serif" font-size="10.00">_from_this&lt; Request &gt;</text>
<polyline fill="none" stroke="black" points="279.5,-579.5 410.5,-579.5 "/>
<text text-anchor="middle" x="345" y="-567.5" font-family="Helvetica,sans-Serif" font-size="10.00"> </text>
<polyline fill="none" stroke="black" points="279.5,-560.5 410.5,-560.5 "/>
<text text-anchor="middle" x="345" y="-548.5" font-family="Helvetica,sans-Serif" font-size="10.00"> </text>
</a>
</g>
</g>
<!-- Node4&#45;&gt;Node3 -->
<g id="edge3" class="edge">
<title>Node4&#45;&gt;Node3</title>
<path fill="none" stroke="midnightblue" d="M345,-531.27C345,-522.48 345,-513.28 345,-504.65"/>
<polygon fill="none" stroke="midnightblue" points="341.5,-531.36 345,-541.36 348.5,-531.36 341.5,-531.36"/>
</g>
</g>
</svg>
        <g id="navigator" transform="translate(0 0)" fill="#404254">
                <rect fill="#f2f5e9" fill-opacity="0.5" stroke="#606060" stroke-width=".5" x="0" y="0" width="60" height="60"/>
                <use id="zoomplus" xlink:href="#zoomPlus" x="17" y="9" onmousedown="handleZoom(evt,'in')"/>
                <use id="zoomminus" xlink:href="#zoomMin" x="42" y="9" onmousedown="handleZoom(evt,'out')"/>
                <use id="reset" xlink:href="#resetDef" x="30" y="36" onmousedown="handleReset()"/>
                <g id="arrowUp" xlink:href="#dirArrow" transform="translate(30 24)" onmousedown="handlePan(0,-1)">
                  <use xlink:href="#rim" fill="#404040">
                        <set attributeName="fill" to="#808080" begin="arrowUp.mouseover" end="arrowUp.mouseout"/>
                  </use>
                  <path fill="none" stroke="white" stroke-width="1.5" d="M0,-3.0v7 M-2.5,-0.5L0,-3.0L2.5,-0.5"/>
                </g>
                <g id="arrowRight" xlink:href="#dirArrow" transform="rotate(90) translate(36 -43)" onmousedown="handlePan(1,0)">
                  <use xlink:href="#rim" fill="#404040">
                        <set attributeName="fill" to="#808080" begin="arrowRight.mouseover" end="arrowRight.mouseout"/>
                  </use>
                  <path fill="none" stroke="white" stroke-width="1.5" d="M0,-3.0v7 M-2.5,-0.5L0,-3.0L2.5,-0.5"/>
                </g>
                <g id="arrowDown" xlink:href="#dirArrow" transform="rotate(180) translate(-30 -48)" onmousedown="handlePan(0,1)">
                  <use xlink:href="#rim" fill="#404040">
                        <set attributeName="fill" to="#808080" begin="arrowDown.mouseover" end="arrowDown.mouseout"/>
                  </use>
                  <path fill="none" stroke="white" stroke-width="1.5" d="M0,-3.0v7 M-2.5,-0.5L0,-3.0L2.5,-0.5"/>
                </g>
                <g id="arrowLeft" xlink:href="#dirArrow" transform="rotate(270) translate(-36 17)" onmousedown="handlePan(-1,0)">
                  <use xlink:href="#rim" fill="#404040">
                        <set attributeName="fill" to="#808080" begin="arrowLeft.mouseover" end="arrowLeft.mouseout"/>
                  </use>
                  <path fill="none" stroke="white" stroke-width="1.5" d="M0,-3.0v7 M-2.5,-0.5L0,-3.0L2.5,-0.5"/>
                </g>
        </g>
        <svg viewBox="0 0 15 15" width="100%" height="30px" preserveAspectRatio="xMaxYMin meet">
         <g id="arrow_out" transform="scale(0.3 0.3)">
          <a xlink:href="class_properties_decorator__inherit__graph_org.svg" target="_base">
           <rect id="button" ry="5" rx="5" y="6" x="6" height="38" width="38"
                fill="#f2f5e9" fill-opacity="0.5" stroke="#606060" stroke-width="1.0"/>
           <path id="arrow"
             d="M 11.500037,31.436501 C 11.940474,20.09759 22.043105,11.32322 32.158766,21.979434 L 37.068811,17.246167 C 37.068811,17.246167 37.088388,32 37.088388,32 L 22.160133,31.978069 C 22.160133,31.978069 26.997745,27.140456 26.997745,27.140456 C 18.528582,18.264221 13.291696,25.230495 11.500037,31.436501 z"
             style="fill:#404040;"/>
          </a>
         </g>
        </svg>
</svg>
