<?xml version="1.0" encoding="UTF-8" standalone="no"?>
<!DOCTYPE svg PUBLIC "-//W3C//DTD SVG 1.1//EN"
 "http://www.w3.org/Graphics/SVG/1.1/DTD/svg11.dtd">
<!-- Generated by graphviz version 2.43.0 (0)
 -->
<!-- Title: ClientConnection::destroy Pages: 1 -->
<svg width="343pt" height="154pt"
 viewBox="0.00 0.00 343.00 153.50" xmlns="http://www.w3.org/2000/svg" xmlns:xlink="http://www.w3.org/1999/xlink">
<g id="graph0" class="graph" transform="scale(1 1) rotate(0) translate(4 149.5)">
<title>ClientConnection::destroy</title>
<!-- Node1 -->
<g id="node1" class="node">
<title>Node1</title>
<g id="a_node1"><a xlink:title=" ">
<polygon fill="#bfbfbf" stroke="black" points="0,-69 0,-88 143,-88 143,-69 0,-69"/>
<text text-anchor="middle" x="71.5" y="-76" font-family="Helvetica,sans-Serif" font-size="10.00">ClientConnection::destroy</text>
</a>
</g>
</g>
<!-- Node2 -->
<g id="node2" class="node">
<title>Node2</title>
<g id="a_node2"><a xlink:href="class_logger.html#a6ffa810e2e020603bbdeaf0c19a832aa" target="_top" xlink:title=" ">
<polygon fill="none" stroke="black" points="222.5,-126 222.5,-145 291.5,-145 291.5,-126 222.5,-126"/>
<text text-anchor="middle" x="257" y="-133" font-family="Helvetica,sans-Serif" font-size="10.00">Logger::err</text>
</a>
</g>
</g>
<!-- Node1&#45;&gt;Node2 -->
<g id="edge1" class="edge">
<title>Node1&#45;&gt;Node2</title>
<path fill="none" stroke="midnightblue" d="M97.23,-88.12C118.66,-96.27 150.61,-107.96 179,-116.5 189.8,-119.75 201.57,-122.87 212.59,-125.6"/>
<polygon fill="midnightblue" stroke="midnightblue" points="211.9,-129.04 222.45,-128 213.56,-122.23 211.9,-129.04"/>
</g>
<!-- Node3 -->
<g id="node3" class="node">
<title>Node3</title>
<g id="a_node3"><a xlink:href="class_abstract_handler.html#a6f2dfd10db9c49e2ce25163868593994" target="_top" xlink:title=" ">
<polygon fill="none" stroke="black" points="179,-88 179,-107 335,-107 335,-88 179,-88"/>
<text text-anchor="middle" x="257" y="-95" font-family="Helvetica,sans-Serif" font-size="10.00">AbstractHandler::getAccount</text>
</a>
</g>
</g>
<!-- Node1&#45;&gt;Node3 -->
<g id="edge2" class="edge">
<title>Node1&#45;&gt;Node3</title>
<path fill="none" stroke="midnightblue" d="M143.18,-85.82C151.6,-86.69 160.27,-87.59 168.88,-88.48"/>
<polygon fill="midnightblue" stroke="midnightblue" points="168.64,-91.97 178.95,-89.52 169.36,-85.01 168.64,-91.97"/>
</g>
<!-- Node4 -->
<g id="node4" class="node">
<title>Node4</title>
<g id="a_node4"><a xlink:href="class_abstract_handler.html#a4a02099ffa64ea88b5a58e39536d6b2a" target="_top" xlink:title=" ">
<polygon fill="none" stroke="black" points="180.5,-50 180.5,-69 333.5,-69 333.5,-50 180.5,-50"/>
<text text-anchor="middle" x="257" y="-57" font-family="Helvetica,sans-Serif" font-size="10.00">AbstractHandler::getCreator</text>
</a>
</g>
</g>
<!-- Node1&#45;&gt;Node4 -->
<g id="edge3" class="edge">
<title>Node1&#45;&gt;Node4</title>
<path fill="none" stroke="midnightblue" d="M143.18,-71.18C152.06,-70.26 161.21,-69.31 170.29,-68.37"/>
<polygon fill="midnightblue" stroke="midnightblue" points="170.9,-71.83 180.48,-67.32 170.17,-64.87 170.9,-71.83"/>
</g>
<!-- Node5 -->
<g id="node5" class="node">
<title>Node5</title>
<g id="a_node5"><a xlink:href="class_serverside_handler.html#a53474158bff753a23042fec48b1c498a" target="_top" xlink:title=" ">
<polygon fill="none" stroke="black" points="200.5,-0.5 200.5,-30.5 313.5,-30.5 313.5,-0.5 200.5,-0.5"/>
<text text-anchor="start" x="208.5" y="-18.5" font-family="Helvetica,sans-Serif" font-size="10.00">ServersideHandler::</text>
<text text-anchor="middle" x="257" y="-7.5" font-family="Helvetica,sans-Serif" font-size="10.00">sharedFromThis</text>
</a>
</g>
</g>
<!-- Node1&#45;&gt;Node5 -->
<g id="edge4" class="edge">
<title>Node1&#45;&gt;Node5</title>
<path fill="none" stroke="midnightblue" d="M98.69,-68.92C120.2,-61.11 151.5,-49.87 179,-40.5 185.44,-38.31 192.19,-36.05 198.91,-33.83"/>
<polygon fill="midnightblue" stroke="midnightblue" points="200.28,-37.07 208.69,-30.62 198.1,-30.42 200.28,-37.07"/>
</g>
</g>
</svg>
