<?xml version="1.0" encoding="UTF-8" standalone="no"?>
<!DOCTYPE svg PUBLIC "-//W3C//DTD SVG 1.1//EN"
 "http://www.w3.org/Graphics/SVG/1.1/DTD/svg11.dtd">
<!-- Generated by graphviz version 2.43.0 (0)
 -->
<!-- Title: ServersideHandler Pages: 1 -->
<svg width="178pt" height="452pt"
 viewBox="0.00 0.00 178.00 452.00" xmlns="http://www.w3.org/2000/svg" xmlns:xlink="http://www.w3.org/1999/xlink">
<g id="graph0" class="graph" transform="scale(1 1) rotate(0) translate(4 448)">
<title>ServersideHandler</title>
<!-- Node1 -->
<g id="node1" class="node">
<title>Node1</title>
<g id="a_node1"><a xlink:title=" ">
<polygon fill="#bfbfbf" stroke="black" points="18,-0.5 18,-134.5 152,-134.5 152,-0.5 18,-0.5"/>
<text text-anchor="middle" x="85" y="-122.5" font-family="Helvetica,sans-Serif" font-size="10.00">ServersideHandler</text>
<polyline fill="none" stroke="black" points="18,-115.5 152,-115.5 "/>
<text text-anchor="middle" x="85" y="-103.5" font-family="Helvetica,sans-Serif" font-size="10.00"> </text>
<polyline fill="none" stroke="black" points="18,-96.5 152,-96.5 "/>
<text text-anchor="start" x="26" y="-84.5" font-family="Helvetica,sans-Serif" font-size="10.00">+ ServersideHandler()</text>
<text text-anchor="start" x="26" y="-73.5" font-family="Helvetica,sans-Serif" font-size="10.00">+ ~ServersideHandler()</text>
<text text-anchor="start" x="26" y="-62.5" font-family="Helvetica,sans-Serif" font-size="10.00">+ receive()</text>
<text text-anchor="start" x="26" y="-51.5" font-family="Helvetica,sans-Serif" font-size="10.00">+ onSignUp()</text>
<text text-anchor="start" x="26" y="-40.5" font-family="Helvetica,sans-Serif" font-size="10.00">+ onSignIn()</text>
<text text-anchor="start" x="26" y="-29.5" font-family="Helvetica,sans-Serif" font-size="10.00">+ onMessage()</text>
<text text-anchor="start" x="26" y="-18.5" font-family="Helvetica,sans-Serif" font-size="10.00">+ onPrivateMessage()</text>
<text text-anchor="start" x="26" y="-7.5" font-family="Helvetica,sans-Serif" font-size="10.00"># sharedFromThis()</text>
</a>
</g>
</g>
<!-- Node2 -->
<g id="node2" class="node">
<title>Node2</title>
<g id="a_node2"><a xlink:href="class_abstract_handler.html" target="_top" xlink:title=" ">
<polygon fill="none" stroke="black" points="24,-171.5 24,-338.5 146,-338.5 146,-171.5 24,-171.5"/>
<text text-anchor="middle" x="85" y="-326.5" font-family="Helvetica,sans-Serif" font-size="10.00">AbstractHandler</text>
<polyline fill="none" stroke="black" points="24,-319.5 146,-319.5 "/>
<text text-anchor="middle" x="85" y="-307.5" font-family="Helvetica,sans-Serif" font-size="10.00"> </text>
<polyline fill="none" stroke="black" points="24,-300.5 146,-300.5 "/>
<text text-anchor="start" x="32" y="-288.5" font-family="Helvetica,sans-Serif" font-size="10.00">+ AbstractHandler()</text>
<text text-anchor="start" x="32" y="-277.5" font-family="Helvetica,sans-Serif" font-size="10.00">+ ~AbstractHandler()</text>
<text text-anchor="start" x="32" y="-266.5" font-family="Helvetica,sans-Serif" font-size="10.00">+ getCreator()</text>
<text text-anchor="start" x="32" y="-255.5" font-family="Helvetica,sans-Serif" font-size="10.00">+ getAccount()</text>
<text text-anchor="start" x="32" y="-244.5" font-family="Helvetica,sans-Serif" font-size="10.00">+ setAccount()</text>
<text text-anchor="start" x="32" y="-233.5" font-family="Helvetica,sans-Serif" font-size="10.00">+ sendRaw()</text>
<text text-anchor="start" x="32" y="-222.5" font-family="Helvetica,sans-Serif" font-size="10.00">+ sendRequest()</text>
<text text-anchor="start" x="32" y="-211.5" font-family="Helvetica,sans-Serif" font-size="10.00">+ startReceiving()</text>
<text text-anchor="start" x="32" y="-200.5" font-family="Helvetica,sans-Serif" font-size="10.00">+ exit()</text>
<text text-anchor="start" x="32" y="-189.5" font-family="Helvetica,sans-Serif" font-size="10.00">+ receive()</text>
<text text-anchor="start" x="32" y="-178.5" font-family="Helvetica,sans-Serif" font-size="10.00">+ destroy()</text>
</a>
</g>
</g>
<!-- Node2&#45;&gt;Node1 -->
<g id="edge1" class="edge">
<title>Node2&#45;&gt;Node1</title>
<path fill="none" stroke="midnightblue" d="M85,-161.19C85,-152.22 85,-143.26 85,-134.64"/>
<polygon fill="none" stroke="midnightblue" points="81.5,-161.29 85,-171.29 88.5,-161.29 81.5,-161.29"/>
</g>
<!-- Node3 -->
<g id="node3" class="node">
<title>Node3</title>
<g id="a_node3"><a xlink:title=" ">
<polygon fill="none" stroke="black" points="0,-375.5 0,-443.5 170,-443.5 170,-375.5 0,-375.5"/>
<text text-anchor="start" x="8" y="-431.5" font-family="Helvetica,sans-Serif" font-size="10.00">std::enable_shared</text>
<text text-anchor="middle" x="85" y="-420.5" font-family="Helvetica,sans-Serif" font-size="10.00">_from_this&lt; AbstractHandler &gt;</text>
<polyline fill="none" stroke="black" points="0,-413.5 170,-413.5 "/>
<text text-anchor="middle" x="85" y="-401.5" font-family="Helvetica,sans-Serif" font-size="10.00"> </text>
<polyline fill="none" stroke="black" points="0,-394.5 170,-394.5 "/>
<text text-anchor="middle" x="85" y="-382.5" font-family="Helvetica,sans-Serif" font-size="10.00"> </text>
</a>
</g>
</g>
<!-- Node3&#45;&gt;Node2 -->
<g id="edge2" class="edge">
<title>Node3&#45;&gt;Node2</title>
<path fill="none" stroke="midnightblue" d="M85,-365.23C85,-356.88 85,-347.89 85,-338.76"/>
<polygon fill="none" stroke="midnightblue" points="81.5,-365.41 85,-375.41 88.5,-365.41 81.5,-365.41"/>
</g>
</g>
</svg>
