<?xml version="1.0" encoding="UTF-8" standalone="no"?>
<!DOCTYPE svg PUBLIC "-//W3C//DTD SVG 1.1//EN"
 "http://www.w3.org/Graphics/SVG/1.1/DTD/svg11.dtd">
<!-- Generated by graphviz version 2.43.0 (0)
 -->
<!-- Title: RequestCreator::createManageMessage Pages: 1 -->
<svg width="540pt" height="142pt"
 viewBox="0.00 0.00 540.00 142.00" xmlns="http://www.w3.org/2000/svg" xmlns:xlink="http://www.w3.org/1999/xlink">
<g id="graph0" class="graph" transform="scale(1 1) rotate(0) translate(4 138)">
<title>RequestCreator::createManageMessage</title>
<!-- Node1 -->
<g id="node1" class="node">
<title>Node1</title>
<g id="a_node1"><a xlink:title=" ">
<polygon fill="#bfbfbf" stroke="black" points="0,-52 0,-82 168,-82 168,-52 0,-52"/>
<text text-anchor="start" x="8" y="-70" font-family="Helvetica,sans-Serif" font-size="10.00">RequestCreator::createManage</text>
<text text-anchor="middle" x="84" y="-59" font-family="Helvetica,sans-Serif" font-size="10.00">Message</text>
</a>
</g>
</g>
<!-- Node2 -->
<g id="node2" class="node">
<title>Node2</title>
<g id="a_node2"><a xlink:href="class_messages_builder.html#a69979c6d037ca2e726c4efe773a39838" target="_top" xlink:title=" ">
<polygon fill="none" stroke="black" points="208.5,-114.5 208.5,-133.5 360.5,-133.5 360.5,-114.5 208.5,-114.5"/>
<text text-anchor="middle" x="284.5" y="-121.5" font-family="Helvetica,sans-Serif" font-size="10.00">MessagesBuilder::addRoom</text>
</a>
</g>
</g>
<!-- Node1&#45;&gt;Node2 -->
<g id="edge1" class="edge">
<title>Node1&#45;&gt;Node2</title>
<path fill="none" stroke="midnightblue" d="M129.41,-82.05C151.68,-89.37 179.14,-98.07 204,-105 212.64,-107.41 221.86,-109.79 230.85,-112"/>
<polygon fill="midnightblue" stroke="midnightblue" points="230.31,-115.47 240.85,-114.43 231.96,-108.67 230.31,-115.47"/>
</g>
<!-- Node3 -->
<g id="node3" class="node">
<title>Node3</title>
<g id="a_node3"><a xlink:href="class_messages_builder.html#adff7cbe88ae9f3236a64dcaceee96e58" target="_top" xlink:title=" ">
<polygon fill="none" stroke="black" points="212.5,-76.5 212.5,-95.5 356.5,-95.5 356.5,-76.5 212.5,-76.5"/>
<text text-anchor="middle" x="284.5" y="-83.5" font-family="Helvetica,sans-Serif" font-size="10.00">MessagesBuilder::addText</text>
</a>
</g>
</g>
<!-- Node1&#45;&gt;Node3 -->
<g id="edge2" class="edge">
<title>Node1&#45;&gt;Node3</title>
<path fill="none" stroke="midnightblue" d="M168.03,-74.95C179.34,-76.03 190.93,-77.14 202.21,-78.22"/>
<polygon fill="midnightblue" stroke="midnightblue" points="202.17,-81.73 212.45,-79.2 202.83,-74.76 202.17,-81.73"/>
</g>
<!-- Node4 -->
<g id="node4" class="node">
<title>Node4</title>
<g id="a_node4"><a xlink:href="class_messages_builder.html#a065b4cd61b4cc1b5c8022f3220d82e82" target="_top" xlink:title=" ">
<polygon fill="none" stroke="black" points="204,-38.5 204,-57.5 365,-57.5 365,-38.5 204,-38.5"/>
<text text-anchor="middle" x="284.5" y="-45.5" font-family="Helvetica,sans-Serif" font-size="10.00">MessagesBuilder::createBase</text>
</a>
</g>
</g>
<!-- Node1&#45;&gt;Node4 -->
<g id="edge3" class="edge">
<title>Node1&#45;&gt;Node4</title>
<path fill="none" stroke="midnightblue" d="M168.03,-59.05C176.58,-58.23 185.3,-57.4 193.92,-56.57"/>
<polygon fill="midnightblue" stroke="midnightblue" points="194.36,-60.05 203.98,-55.61 193.69,-53.08 194.36,-60.05"/>
</g>
<!-- Node5 -->
<g id="node5" class="node">
<title>Node5</title>
<g id="a_node5"><a xlink:href="class_messages_builder.html#a29c0637d98e0cd5c7b7f0a969fda5415" target="_top" xlink:title=" ">
<polygon fill="none" stroke="black" points="208.5,-0.5 208.5,-19.5 360.5,-19.5 360.5,-0.5 208.5,-0.5"/>
<text text-anchor="middle" x="284.5" y="-7.5" font-family="Helvetica,sans-Serif" font-size="10.00">MessagesBuilder::getResult</text>
</a>
</g>
</g>
<!-- Node1&#45;&gt;Node5 -->
<g id="edge4" class="edge">
<title>Node1&#45;&gt;Node5</title>
<path fill="none" stroke="midnightblue" d="M129.41,-51.95C151.68,-44.63 179.14,-35.93 204,-29 212.64,-26.59 221.86,-24.21 230.85,-22"/>
<polygon fill="midnightblue" stroke="midnightblue" points="231.96,-25.33 240.85,-19.57 230.31,-18.53 231.96,-25.33"/>
</g>
<!-- Node6 -->
<g id="node6" class="node">
<title>Node6</title>
<g id="a_node6"><a xlink:href="class_messages_builder.html#a2d739aa30b5c0109d8ac4acae3c85ce1" target="_top" xlink:title=" ">
<polygon fill="none" stroke="black" points="401,-0.5 401,-19.5 532,-19.5 532,-0.5 401,-0.5"/>
<text text-anchor="middle" x="466.5" y="-7.5" font-family="Helvetica,sans-Serif" font-size="10.00">MessagesBuilder::reset</text>
</a>
</g>
</g>
<!-- Node5&#45;&gt;Node6 -->
<g id="edge5" class="edge">
<title>Node5&#45;&gt;Node6</title>
<path fill="none" stroke="midnightblue" d="M360.53,-10C370.48,-10 380.69,-10 390.64,-10"/>
<polygon fill="midnightblue" stroke="midnightblue" points="390.89,-13.5 400.89,-10 390.89,-6.5 390.89,-13.5"/>
</g>
</g>
</svg>
