<?xml version="1.0" encoding="UTF-8" standalone="no"?>
<!DOCTYPE svg PUBLIC "-//W3C//DTD SVG 1.1//EN"
 "http://www.w3.org/Graphics/SVG/1.1/DTD/svg11.dtd">
<!-- Generated by graphviz version 2.43.0 (0)
 -->
<!-- Title: MessagesBuilder::addText Pages: 1 -->
<svg width="356pt" height="235pt"
 viewBox="0.00 0.00 356.00 235.00" xmlns="http://www.w3.org/2000/svg" xmlns:xlink="http://www.w3.org/1999/xlink">
<g id="graph0" class="graph" transform="scale(1 1) rotate(0) translate(4 231)">
<title>MessagesBuilder::addText</title>
<!-- Node1 -->
<g id="node1" class="node">
<title>Node1</title>
<g id="a_node1"><a xlink:title=" ">
<polygon fill="#bfbfbf" stroke="black" points="204,-104 204,-123 348,-123 348,-104 204,-104"/>
<text text-anchor="middle" x="276" y="-111" font-family="Helvetica,sans-Serif" font-size="10.00">MessagesBuilder::addText</text>
</a>
</g>
</g>
<!-- Node2 -->
<g id="node2" class="node">
<title>Node2</title>
<g id="a_node2"><a xlink:href="class_request_creator.html#ab1e286d57e3bbb67d952397e832dfe35" target="_top" xlink:title=" ">
<polygon fill="none" stroke="black" points="8,-196.5 8,-226.5 160,-226.5 160,-196.5 8,-196.5"/>
<text text-anchor="start" x="16" y="-214.5" font-family="Helvetica,sans-Serif" font-size="10.00">RequestCreator::createChat</text>
<text text-anchor="middle" x="84" y="-203.5" font-family="Helvetica,sans-Serif" font-size="10.00">Message</text>
</a>
</g>
</g>
<!-- Node1&#45;&gt;Node2 -->
<g id="edge1" class="edge">
<title>Node1&#45;&gt;Node2</title>
<path fill="none" stroke="midnightblue" d="M255.97,-129.53C235.44,-146.11 201.21,-171.73 168,-187.5 160.95,-190.85 153.35,-193.82 145.69,-196.44"/>
<polygon fill="midnightblue" stroke="midnightblue" points="258.38,-132.08 263.89,-123.03 253.94,-126.67 258.38,-132.08"/>
</g>
<!-- Node3 -->
<g id="node3" class="node">
<title>Node3</title>
<g id="a_node3"><a xlink:href="class_request_creator.html#a8e3a2c9b3071c84deec963576f116d1d" target="_top" xlink:title=" ">
<polygon fill="none" stroke="black" points="8,-147.5 8,-177.5 160,-177.5 160,-147.5 8,-147.5"/>
<text text-anchor="start" x="16" y="-165.5" font-family="Helvetica,sans-Serif" font-size="10.00">RequestCreator::createError</text>
<text text-anchor="middle" x="84" y="-154.5" font-family="Helvetica,sans-Serif" font-size="10.00">Message</text>
</a>
</g>
</g>
<!-- Node1&#45;&gt;Node3 -->
<g id="edge2" class="edge">
<title>Node1&#45;&gt;Node3</title>
<path fill="none" stroke="midnightblue" d="M228.07,-125.6C202.46,-132.21 170.51,-140.45 143.31,-147.46"/>
<polygon fill="midnightblue" stroke="midnightblue" points="229.11,-128.95 237.92,-123.06 227.36,-122.17 229.11,-128.95"/>
</g>
<!-- Node4 -->
<g id="node4" class="node">
<title>Node4</title>
<g id="a_node4"><a xlink:href="class_request_creator.html#ad97ab51d248f013bc6e92d5695afe307" target="_top" xlink:title=" ">
<polygon fill="none" stroke="black" points="10,-98.5 10,-128.5 158,-128.5 158,-98.5 10,-98.5"/>
<text text-anchor="start" x="18" y="-116.5" font-family="Helvetica,sans-Serif" font-size="10.00">RequestCreator::createInfo</text>
<text text-anchor="middle" x="84" y="-105.5" font-family="Helvetica,sans-Serif" font-size="10.00">Message</text>
</a>
</g>
</g>
<!-- Node1&#45;&gt;Node4 -->
<g id="edge3" class="edge">
<title>Node1&#45;&gt;Node4</title>
<path fill="none" stroke="midnightblue" d="M193.7,-113.5C181.89,-113.5 169.79,-113.5 158.15,-113.5"/>
<polygon fill="midnightblue" stroke="midnightblue" points="193.98,-117 203.98,-113.5 193.98,-110 193.98,-117"/>
</g>
<!-- Node5 -->
<g id="node5" class="node">
<title>Node5</title>
<g id="a_node5"><a xlink:href="class_request_creator.html#a4800733c4f35f5bec150468c78979a58" target="_top" xlink:title=" ">
<polygon fill="none" stroke="black" points="0,-49.5 0,-79.5 168,-79.5 168,-49.5 0,-49.5"/>
<text text-anchor="start" x="8" y="-67.5" font-family="Helvetica,sans-Serif" font-size="10.00">RequestCreator::createManage</text>
<text text-anchor="middle" x="84" y="-56.5" font-family="Helvetica,sans-Serif" font-size="10.00">Message</text>
</a>
</g>
</g>
<!-- Node1&#45;&gt;Node5 -->
<g id="edge4" class="edge">
<title>Node1&#45;&gt;Node5</title>
<path fill="none" stroke="midnightblue" d="M228.07,-101.4C202.46,-94.79 170.51,-86.55 143.31,-79.54"/>
<polygon fill="midnightblue" stroke="midnightblue" points="227.36,-104.83 237.92,-103.94 229.11,-98.05 227.36,-104.83"/>
</g>
<!-- Node6 -->
<g id="node6" class="node">
<title>Node6</title>
<g id="a_node6"><a xlink:href="class_request_creator.html#a45363fa936dc76946bbcc3095c8562d3" target="_top" xlink:title=" ">
<polygon fill="none" stroke="black" points="8,-0.5 8,-30.5 160,-30.5 160,-0.5 8,-0.5"/>
<text text-anchor="start" x="16" y="-18.5" font-family="Helvetica,sans-Serif" font-size="10.00">RequestCreator::createUser</text>
<text text-anchor="middle" x="84" y="-7.5" font-family="Helvetica,sans-Serif" font-size="10.00">ListMessage</text>
</a>
</g>
</g>
<!-- Node1&#45;&gt;Node6 -->
<g id="edge5" class="edge">
<title>Node1&#45;&gt;Node6</title>
<path fill="none" stroke="midnightblue" d="M255.56,-97.51C234.94,-81.23 200.85,-56.19 168,-40.5 160.26,-36.8 151.85,-33.51 143.46,-30.63"/>
<polygon fill="midnightblue" stroke="midnightblue" points="253.55,-100.38 263.54,-103.91 257.92,-94.92 253.55,-100.38"/>
</g>
</g>
</svg>
