<?xml version="1.0" encoding="UTF-8" standalone="no"?>
<!DOCTYPE svg PUBLIC "-//W3C//DTD SVG 1.1//EN"
 "http://www.w3.org/Graphics/SVG/1.1/DTD/svg11.dtd">
<!-- Generated by graphviz version 2.43.0 (0)
 -->
<!-- Title: AuthorizationRequest::getQuery Pages: 1 -->
<svg width="308pt" height="66pt"
 viewBox="0.00 0.00 308.00 66.00" xmlns="http://www.w3.org/2000/svg" xmlns:xlink="http://www.w3.org/1999/xlink">
<g id="graph0" class="graph" transform="scale(1 1) rotate(0) translate(4 62)">
<title>AuthorizationRequest::getQuery</title>
<!-- Node1 -->
<g id="node1" class="node">
<title>Node1</title>
<g id="a_node1"><a xlink:title=" ">
<polygon fill="#bfbfbf" stroke="black" points="178,-14 178,-44 300,-44 300,-14 178,-14"/>
<text text-anchor="start" x="186" y="-32" font-family="Helvetica,sans-Serif" font-size="10.00">AuthorizationRequest</text>
<text text-anchor="middle" x="239" y="-21" font-family="Helvetica,sans-Serif" font-size="10.00">::getQuery</text>
</a>
</g>
</g>
<!-- Node2 -->
<g id="node2" class="node">
<title>Node2</title>
<g id="a_node2"><a xlink:href="class_sign_in_request.html#a657f82f0f565be014137a0eba01c3f34" target="_top" xlink:title=" ">
<polygon fill="none" stroke="black" points="2.5,-38.5 2.5,-57.5 139.5,-57.5 139.5,-38.5 2.5,-38.5"/>
<text text-anchor="middle" x="71" y="-45.5" font-family="Helvetica,sans-Serif" font-size="10.00">SignInRequest::getQuery</text>
</a>
</g>
</g>
<!-- Node1&#45;&gt;Node2 -->
<g id="edge1" class="edge">
<title>Node1&#45;&gt;Node2</title>
<path fill="none" stroke="midnightblue" d="M167.65,-37.05C158.37,-38.11 148.88,-39.2 139.66,-40.26"/>
<polygon fill="midnightblue" stroke="midnightblue" points="168.06,-40.53 177.6,-35.91 167.27,-33.57 168.06,-40.53"/>
</g>
<!-- Node3 -->
<g id="node3" class="node">
<title>Node3</title>
<g id="a_node3"><a xlink:href="class_sign_up_request.html#a5ee9845bcc373f9ddb43f64b54aefe6b" target="_top" xlink:title=" ">
<polygon fill="none" stroke="black" points="0,-0.5 0,-19.5 142,-19.5 142,-0.5 0,-0.5"/>
<text text-anchor="middle" x="71" y="-7.5" font-family="Helvetica,sans-Serif" font-size="10.00">SignUpRequest::getQuery</text>
</a>
</g>
</g>
<!-- Node1&#45;&gt;Node3 -->
<g id="edge2" class="edge">
<title>Node1&#45;&gt;Node3</title>
<path fill="none" stroke="midnightblue" d="M167.5,-20.93C159.13,-19.97 150.58,-18.99 142.21,-18.04"/>
<polygon fill="midnightblue" stroke="midnightblue" points="167.27,-24.43 177.6,-22.09 168.06,-17.47 167.27,-24.43"/>
</g>
</g>
</svg>
