<?xml version="1.0" encoding="UTF-8" standalone="no"?>
<!DOCTYPE svg PUBLIC "-//W3C//DTD SVG 1.1//EN"
 "http://www.w3.org/Graphics/SVG/1.1/DTD/svg11.dtd">
<!-- Generated by graphviz version 2.43.0 (0)
 -->
<!-- Title: Request Pages: 1 -->
<svg width="804pt" height="651pt"
 viewBox="0.00 0.00 803.50 651.00" xmlns="http://www.w3.org/2000/svg" xmlns:xlink="http://www.w3.org/1999/xlink">
<g id="graph0" class="graph" transform="scale(1 1) rotate(0) translate(4 647)">
<title>Request</title>
<!-- Node1 -->
<g id="node1" class="node">
<title>Node1</title>
<g id="a_node1"><a xlink:title=" ">
<polygon fill="#bfbfbf" stroke="black" points="217.5,-458.5 217.5,-537.5 297.5,-537.5 297.5,-458.5 217.5,-458.5"/>
<text text-anchor="middle" x="257.5" y="-525.5" font-family="Helvetica,sans-Serif" font-size="10.00">Request</text>
<polyline fill="none" stroke="black" points="217.5,-518.5 297.5,-518.5 "/>
<text text-anchor="start" x="225.5" y="-506.5" font-family="Helvetica,sans-Serif" font-size="10.00">+ separator</text>
<polyline fill="none" stroke="black" points="217.5,-499.5 297.5,-499.5 "/>
<text text-anchor="start" x="225.5" y="-487.5" font-family="Helvetica,sans-Serif" font-size="10.00">+ getQuery()</text>
<text text-anchor="start" x="225.5" y="-476.5" font-family="Helvetica,sans-Serif" font-size="10.00">+ handle()</text>
<text text-anchor="start" x="225.5" y="-465.5" font-family="Helvetica,sans-Serif" font-size="10.00">+ handle()</text>
</a>
</g>
</g>
<!-- Node3 -->
<g id="node3" class="node">
<title>Node3</title>
<g id="a_node3"><a xlink:href="class_authorization_request.html" target="_top" xlink:title=" ">
<polygon fill="none" stroke="black" points="115,-309.5 115,-421.5 264,-421.5 264,-309.5 115,-309.5"/>
<text text-anchor="middle" x="189.5" y="-409.5" font-family="Helvetica,sans-Serif" font-size="10.00">AuthorizationRequest</text>
<polyline fill="none" stroke="black" points="115,-402.5 264,-402.5 "/>
<text text-anchor="middle" x="189.5" y="-390.5" font-family="Helvetica,sans-Serif" font-size="10.00"> </text>
<polyline fill="none" stroke="black" points="115,-383.5 264,-383.5 "/>
<text text-anchor="start" x="123" y="-371.5" font-family="Helvetica,sans-Serif" font-size="10.00">+ AuthorizationRequest()</text>
<text text-anchor="start" x="123" y="-360.5" font-family="Helvetica,sans-Serif" font-size="10.00">+ ~AuthorizationRequest()</text>
<text text-anchor="start" x="123" y="-349.5" font-family="Helvetica,sans-Serif" font-size="10.00">+ getQuery()</text>
<text text-anchor="start" x="123" y="-338.5" font-family="Helvetica,sans-Serif" font-size="10.00">+ handle()</text>
<text text-anchor="start" x="123" y="-327.5" font-family="Helvetica,sans-Serif" font-size="10.00">+ getAccount()</text>
<text text-anchor="start" x="123" y="-316.5" font-family="Helvetica,sans-Serif" font-size="10.00">+ setAccount()</text>
</a>
</g>
</g>
<!-- Node1&#45;&gt;Node3 -->
<g id="edge2" class="edge">
<title>Node1&#45;&gt;Node3</title>
<path fill="none" stroke="midnightblue" d="M232.56,-449.14C227.93,-440.25 223.06,-430.9 218.32,-421.81"/>
<polygon fill="none" stroke="midnightblue" points="229.56,-450.95 237.28,-458.2 235.76,-447.71 229.56,-450.95"/>
</g>
<!-- Node6 -->
<g id="node6" class="node">
<title>Node6</title>
<g id="a_node6"><a xlink:href="class_message.html" target="_top" xlink:title=" ">
<polygon fill="none" stroke="black" points="282,-326 282,-405 369,-405 369,-326 282,-326"/>
<text text-anchor="middle" x="325.5" y="-393" font-family="Helvetica,sans-Serif" font-size="10.00">Message</text>
<polyline fill="none" stroke="black" points="282,-386 369,-386 "/>
<text text-anchor="middle" x="325.5" y="-374" font-family="Helvetica,sans-Serif" font-size="10.00"> </text>
<polyline fill="none" stroke="black" points="282,-367 369,-367 "/>
<text text-anchor="start" x="290" y="-355" font-family="Helvetica,sans-Serif" font-size="10.00">+ ~Message()</text>
<text text-anchor="start" x="290" y="-344" font-family="Helvetica,sans-Serif" font-size="10.00">+ getRoom()</text>
<text text-anchor="start" x="290" y="-333" font-family="Helvetica,sans-Serif" font-size="10.00">+ getType()</text>
</a>
</g>
</g>
<!-- Node1&#45;&gt;Node6 -->
<g id="edge5" class="edge">
<title>Node1&#45;&gt;Node6</title>
<path fill="none" stroke="midnightblue" d="M282.53,-448.97C290.01,-434.62 298.11,-419.07 305.24,-405.38"/>
<polygon fill="none" stroke="midnightblue" points="279.24,-447.71 277.72,-458.2 285.44,-450.95 279.24,-447.71"/>
</g>
<!-- Node2 -->
<g id="node2" class="node">
<title>Node2</title>
<g id="a_node2"><a xlink:title=" ">
<polygon fill="none" stroke="black" points="192,-574.5 192,-642.5 323,-642.5 323,-574.5 192,-574.5"/>
<text text-anchor="start" x="200" y="-630.5" font-family="Helvetica,sans-Serif" font-size="10.00">std::enable_shared</text>
<text text-anchor="middle" x="257.5" y="-619.5" font-family="Helvetica,sans-Serif" font-size="10.00">_from_this&lt; Request &gt;</text>
<polyline fill="none" stroke="black" points="192,-612.5 323,-612.5 "/>
<text text-anchor="middle" x="257.5" y="-600.5" font-family="Helvetica,sans-Serif" font-size="10.00"> </text>
<polyline fill="none" stroke="black" points="192,-593.5 323,-593.5 "/>
<text text-anchor="middle" x="257.5" y="-581.5" font-family="Helvetica,sans-Serif" font-size="10.00"> </text>
</a>
</g>
</g>
<!-- Node2&#45;&gt;Node1 -->
<g id="edge1" class="edge">
<title>Node2&#45;&gt;Node1</title>
<path fill="none" stroke="midnightblue" d="M257.5,-564.27C257.5,-555.48 257.5,-546.28 257.5,-537.65"/>
<polygon fill="none" stroke="midnightblue" points="254,-564.36 257.5,-574.36 261,-564.36 254,-564.36"/>
</g>
<!-- Node4 -->
<g id="node4" class="node">
<title>Node4</title>
<g id="a_node4"><a xlink:href="class_sign_in_request.html" target="_top" xlink:title=" ">
<polygon fill="none" stroke="black" points="0,-166 0,-256 113,-256 113,-166 0,-166"/>
<text text-anchor="middle" x="56.5" y="-244" font-family="Helvetica,sans-Serif" font-size="10.00">SignInRequest</text>
<polyline fill="none" stroke="black" points="0,-237 113,-237 "/>
<text text-anchor="middle" x="56.5" y="-225" font-family="Helvetica,sans-Serif" font-size="10.00"> </text>
<polyline fill="none" stroke="black" points="0,-218 113,-218 "/>
<text text-anchor="start" x="8" y="-206" font-family="Helvetica,sans-Serif" font-size="10.00">+ SignInRequest()</text>
<text text-anchor="start" x="8" y="-195" font-family="Helvetica,sans-Serif" font-size="10.00">+ ~SignInRequest()</text>
<text text-anchor="start" x="8" y="-184" font-family="Helvetica,sans-Serif" font-size="10.00">+ getQuery()</text>
<text text-anchor="start" x="8" y="-173" font-family="Helvetica,sans-Serif" font-size="10.00">+ handle()</text>
</a>
</g>
</g>
<!-- Node3&#45;&gt;Node4 -->
<g id="edge3" class="edge">
<title>Node3&#45;&gt;Node4</title>
<path fill="none" stroke="midnightblue" d="M134.64,-301.6C121.43,-286.45 107.59,-270.58 95.28,-256.47"/>
<polygon fill="none" stroke="midnightblue" points="132.27,-304.21 141.48,-309.44 137.55,-299.61 132.27,-304.21"/>
</g>
<!-- Node5 -->
<g id="node5" class="node">
<title>Node5</title>
<g id="a_node5"><a xlink:href="class_sign_up_request.html" target="_top" xlink:title=" ">
<polygon fill="none" stroke="black" points="131.5,-166 131.5,-256 249.5,-256 249.5,-166 131.5,-166"/>
<text text-anchor="middle" x="190.5" y="-244" font-family="Helvetica,sans-Serif" font-size="10.00">SignUpRequest</text>
<polyline fill="none" stroke="black" points="131.5,-237 249.5,-237 "/>
<text text-anchor="middle" x="190.5" y="-225" font-family="Helvetica,sans-Serif" font-size="10.00"> </text>
<polyline fill="none" stroke="black" points="131.5,-218 249.5,-218 "/>
<text text-anchor="start" x="139.5" y="-206" font-family="Helvetica,sans-Serif" font-size="10.00">+ SignUpRequest()</text>
<text text-anchor="start" x="139.5" y="-195" font-family="Helvetica,sans-Serif" font-size="10.00">+ ~SignUpRequest()</text>
<text text-anchor="start" x="139.5" y="-184" font-family="Helvetica,sans-Serif" font-size="10.00">+ getQuery()</text>
<text text-anchor="start" x="139.5" y="-173" font-family="Helvetica,sans-Serif" font-size="10.00">+ handle()</text>
</a>
</g>
</g>
<!-- Node3&#45;&gt;Node5 -->
<g id="edge4" class="edge">
<title>Node3&#45;&gt;Node5</title>
<path fill="none" stroke="midnightblue" d="M189.93,-299.09C190.02,-284.71 190.12,-269.8 190.21,-256.47"/>
<polygon fill="none" stroke="midnightblue" points="186.43,-299.42 189.86,-309.44 193.43,-299.47 186.43,-299.42"/>
</g>
<!-- Node7 -->
<g id="node7" class="node">
<title>Node7</title>
<g id="a_node7"><a xlink:href="class_base_message.html" target="_top" xlink:title=" ">
<polygon fill="none" stroke="black" points="269,-149.5 269,-272.5 380,-272.5 380,-149.5 269,-149.5"/>
<text text-anchor="middle" x="324.5" y="-260.5" font-family="Helvetica,sans-Serif" font-size="10.00">BaseMessage</text>
<polyline fill="none" stroke="black" points="269,-253.5 380,-253.5 "/>
<text text-anchor="middle" x="324.5" y="-241.5" font-family="Helvetica,sans-Serif" font-size="10.00"> </text>
<polyline fill="none" stroke="black" points="269,-234.5 380,-234.5 "/>
<text text-anchor="start" x="277" y="-222.5" font-family="Helvetica,sans-Serif" font-size="10.00">+ BaseMessage()</text>
<text text-anchor="start" x="277" y="-211.5" font-family="Helvetica,sans-Serif" font-size="10.00">+ ~BaseMessage()</text>
<text text-anchor="start" x="277" y="-200.5" font-family="Helvetica,sans-Serif" font-size="10.00">+ getRoom()</text>
<text text-anchor="start" x="277" y="-189.5" font-family="Helvetica,sans-Serif" font-size="10.00">+ getType()</text>
<text text-anchor="start" x="277" y="-178.5" font-family="Helvetica,sans-Serif" font-size="10.00">+ getQuery()</text>
<text text-anchor="start" x="277" y="-167.5" font-family="Helvetica,sans-Serif" font-size="10.00">+ handle()</text>
<text text-anchor="start" x="277" y="-156.5" font-family="Helvetica,sans-Serif" font-size="10.00">+ handle()</text>
</a>
</g>
</g>
<!-- Node6&#45;&gt;Node7 -->
<g id="edge6" class="edge">
<title>Node6&#45;&gt;Node7</title>
<path fill="none" stroke="midnightblue" d="M325.18,-315.51C325.09,-301.89 324.99,-286.94 324.9,-272.74"/>
<polygon fill="none" stroke="midnightblue" points="321.68,-315.65 325.25,-325.62 328.68,-315.6 321.68,-315.65"/>
</g>
<!-- Node8 -->
<g id="node8" class="node">
<title>Node8</title>
<g id="a_node8"><a xlink:href="class_properties_decorator.html" target="_top" xlink:title=" ">
<polygon fill="none" stroke="black" points="398,-149.5 398,-272.5 539,-272.5 539,-149.5 398,-149.5"/>
<text text-anchor="middle" x="468.5" y="-260.5" font-family="Helvetica,sans-Serif" font-size="10.00">PropertiesDecorator</text>
<polyline fill="none" stroke="black" points="398,-253.5 539,-253.5 "/>
<text text-anchor="start" x="406" y="-241.5" font-family="Helvetica,sans-Serif" font-size="10.00"># wrapper</text>
<polyline fill="none" stroke="black" points="398,-234.5 539,-234.5 "/>
<text text-anchor="start" x="406" y="-222.5" font-family="Helvetica,sans-Serif" font-size="10.00">+ PropertiesDecorator()</text>
<text text-anchor="start" x="406" y="-211.5" font-family="Helvetica,sans-Serif" font-size="10.00">+ ~PropertiesDecorator()</text>
<text text-anchor="start" x="406" y="-200.5" font-family="Helvetica,sans-Serif" font-size="10.00">+ getRoom()</text>
<text text-anchor="start" x="406" y="-189.5" font-family="Helvetica,sans-Serif" font-size="10.00">+ getType()</text>
<text text-anchor="start" x="406" y="-178.5" font-family="Helvetica,sans-Serif" font-size="10.00">+ getQuery()</text>
<text text-anchor="start" x="406" y="-167.5" font-family="Helvetica,sans-Serif" font-size="10.00">+ handle()</text>
<text text-anchor="start" x="406" y="-156.5" font-family="Helvetica,sans-Serif" font-size="10.00">+ handle()</text>
</a>
</g>
</g>
<!-- Node6&#45;&gt;Node8 -->
<g id="edge7" class="edge">
<title>Node6&#45;&gt;Node8</title>
<path fill="none" stroke="midnightblue" d="M368.83,-318.29C382.28,-303.95 397.31,-287.92 411.54,-272.74"/>
<polygon fill="none" stroke="midnightblue" points="366.24,-315.93 361.95,-325.62 371.35,-320.72 366.24,-315.93"/>
</g>
<!-- Node9 -->
<g id="node9" class="node">
<title>Node9</title>
<g id="a_node9"><a xlink:href="class_private_decorator.html" target="_top" xlink:title=" ">
<polygon fill="none" stroke="black" points="123.5,-0.5 123.5,-112.5 249.5,-112.5 249.5,-0.5 123.5,-0.5"/>
<text text-anchor="middle" x="186.5" y="-100.5" font-family="Helvetica,sans-Serif" font-size="10.00">PrivateDecorator</text>
<polyline fill="none" stroke="black" points="123.5,-93.5 249.5,-93.5 "/>
<text text-anchor="middle" x="186.5" y="-81.5" font-family="Helvetica,sans-Serif" font-size="10.00"> </text>
<polyline fill="none" stroke="black" points="123.5,-74.5 249.5,-74.5 "/>
<text text-anchor="start" x="131.5" y="-62.5" font-family="Helvetica,sans-Serif" font-size="10.00">+ PrivateDecorator()</text>
<text text-anchor="start" x="131.5" y="-51.5" font-family="Helvetica,sans-Serif" font-size="10.00">+ ~PrivateDecorator()</text>
<text text-anchor="start" x="131.5" y="-40.5" font-family="Helvetica,sans-Serif" font-size="10.00">+ getQuery()</text>
<text text-anchor="start" x="131.5" y="-29.5" font-family="Helvetica,sans-Serif" font-size="10.00">+ handle()</text>
<text text-anchor="start" x="131.5" y="-18.5" font-family="Helvetica,sans-Serif" font-size="10.00">+ handle()</text>
<text text-anchor="start" x="131.5" y="-7.5" font-family="Helvetica,sans-Serif" font-size="10.00">+ getAddressee()</text>
</a>
</g>
</g>
<!-- Node8&#45;&gt;Node9 -->
<g id="edge8" class="edge">
<title>Node8&#45;&gt;Node9</title>
<path fill="none" stroke="midnightblue" d="M388.79,-149.15C388.7,-149.1 388.6,-149.05 388.5,-149 334.8,-122.34 312.13,-139.8 258.5,-113 255.54,-111.52 252.57,-109.91 249.63,-108.2"/>
<polygon fill="none" stroke="midnightblue" points="387.4,-152.37 397.87,-154.02 390.71,-146.2 387.4,-152.37"/>
</g>
<!-- Node10 -->
<g id="node10" class="node">
<title>Node10</title>
<g id="a_node10"><a xlink:href="class_room_decorator.html" target="_top" xlink:title=" ">
<polygon fill="none" stroke="black" points="267.5,-6 267.5,-107 387.5,-107 387.5,-6 267.5,-6"/>
<text text-anchor="middle" x="327.5" y="-95" font-family="Helvetica,sans-Serif" font-size="10.00">RoomDecorator</text>
<polyline fill="none" stroke="black" points="267.5,-88 387.5,-88 "/>
<text text-anchor="middle" x="327.5" y="-76" font-family="Helvetica,sans-Serif" font-size="10.00"> </text>
<polyline fill="none" stroke="black" points="267.5,-69 387.5,-69 "/>
<text text-anchor="start" x="275.5" y="-57" font-family="Helvetica,sans-Serif" font-size="10.00">+ RoomDecorator()</text>
<text text-anchor="start" x="275.5" y="-46" font-family="Helvetica,sans-Serif" font-size="10.00">+ ~RoomDecorator()</text>
<text text-anchor="start" x="275.5" y="-35" font-family="Helvetica,sans-Serif" font-size="10.00">+ getRoom()</text>
<text text-anchor="start" x="275.5" y="-24" font-family="Helvetica,sans-Serif" font-size="10.00">+ getQuery()</text>
<text text-anchor="start" x="275.5" y="-13" font-family="Helvetica,sans-Serif" font-size="10.00">+ handle()</text>
</a>
</g>
</g>
<!-- Node8&#45;&gt;Node10 -->
<g id="edge9" class="edge">
<title>Node8&#45;&gt;Node10</title>
<path fill="none" stroke="midnightblue" d="M405.36,-141.71C394.63,-130.1 383.66,-118.24 373.48,-107.23"/>
<polygon fill="none" stroke="midnightblue" points="403.01,-144.32 412.37,-149.29 408.15,-139.57 403.01,-144.32"/>
</g>
<!-- Node11 -->
<g id="node11" class="node">
<title>Node11</title>
<g id="a_node11"><a xlink:href="class_sender_decorator.html" target="_top" xlink:title=" ">
<polygon fill="none" stroke="black" points="406,-6 406,-107 531,-107 531,-6 406,-6"/>
<text text-anchor="middle" x="468.5" y="-95" font-family="Helvetica,sans-Serif" font-size="10.00">SenderDecorator</text>
<polyline fill="none" stroke="black" points="406,-88 531,-88 "/>
<text text-anchor="middle" x="468.5" y="-76" font-family="Helvetica,sans-Serif" font-size="10.00"> </text>
<polyline fill="none" stroke="black" points="406,-69 531,-69 "/>
<text text-anchor="start" x="414" y="-57" font-family="Helvetica,sans-Serif" font-size="10.00">+ SenderDecorator()</text>
<text text-anchor="start" x="414" y="-46" font-family="Helvetica,sans-Serif" font-size="10.00">+ ~SenderDecorator()</text>
<text text-anchor="start" x="414" y="-35" font-family="Helvetica,sans-Serif" font-size="10.00">+ getQuery()</text>
<text text-anchor="start" x="414" y="-24" font-family="Helvetica,sans-Serif" font-size="10.00">+ handle()</text>
<text text-anchor="start" x="414" y="-13" font-family="Helvetica,sans-Serif" font-size="10.00">+ getSender()</text>
</a>
</g>
</g>
<!-- Node8&#45;&gt;Node11 -->
<g id="edge10" class="edge">
<title>Node8&#45;&gt;Node11</title>
<path fill="none" stroke="midnightblue" d="M468.5,-139.05C468.5,-128.3 468.5,-117.4 468.5,-107.23"/>
<polygon fill="none" stroke="midnightblue" points="465,-139.29 468.5,-149.29 472,-139.29 465,-139.29"/>
</g>
<!-- Node12 -->
<g id="node12" class="node">
<title>Node12</title>
<g id="a_node12"><a xlink:href="class_text_decorator.html" target="_top" xlink:title=" ">
<polygon fill="none" stroke="black" points="549.5,-6 549.5,-107 661.5,-107 661.5,-6 549.5,-6"/>
<text text-anchor="middle" x="605.5" y="-95" font-family="Helvetica,sans-Serif" font-size="10.00">TextDecorator</text>
<polyline fill="none" stroke="black" points="549.5,-88 661.5,-88 "/>
<text text-anchor="middle" x="605.5" y="-76" font-family="Helvetica,sans-Serif" font-size="10.00"> </text>
<polyline fill="none" stroke="black" points="549.5,-69 661.5,-69 "/>
<text text-anchor="start" x="557.5" y="-57" font-family="Helvetica,sans-Serif" font-size="10.00">+ TextDecorator()</text>
<text text-anchor="start" x="557.5" y="-46" font-family="Helvetica,sans-Serif" font-size="10.00">+ ~TextDecorator()</text>
<text text-anchor="start" x="557.5" y="-35" font-family="Helvetica,sans-Serif" font-size="10.00">+ getQuery()</text>
<text text-anchor="start" x="557.5" y="-24" font-family="Helvetica,sans-Serif" font-size="10.00">+ handle()</text>
<text text-anchor="start" x="557.5" y="-13" font-family="Helvetica,sans-Serif" font-size="10.00">+ getText()</text>
</a>
</g>
</g>
<!-- Node8&#45;&gt;Node12 -->
<g id="edge11" class="edge">
<title>Node8&#45;&gt;Node12</title>
<path fill="none" stroke="midnightblue" d="M529.85,-141.71C540.28,-130.1 550.93,-118.24 560.82,-107.23"/>
<polygon fill="none" stroke="midnightblue" points="527.12,-139.51 523.04,-149.29 532.33,-144.19 527.12,-139.51"/>
</g>
<!-- Node13 -->
<g id="node13" class="node">
<title>Node13</title>
<g id="a_node13"><a xlink:href="class_time_decorator.html" target="_top" xlink:title=" ">
<polygon fill="none" stroke="black" points="679.5,-0.5 679.5,-112.5 795.5,-112.5 795.5,-0.5 679.5,-0.5"/>
<text text-anchor="middle" x="737.5" y="-100.5" font-family="Helvetica,sans-Serif" font-size="10.00">TimeDecorator</text>
<polyline fill="none" stroke="black" points="679.5,-93.5 795.5,-93.5 "/>
<text text-anchor="middle" x="737.5" y="-81.5" font-family="Helvetica,sans-Serif" font-size="10.00"> </text>
<polyline fill="none" stroke="black" points="679.5,-74.5 795.5,-74.5 "/>
<text text-anchor="start" x="687.5" y="-62.5" font-family="Helvetica,sans-Serif" font-size="10.00">+ TimeDecorator()</text>
<text text-anchor="start" x="687.5" y="-51.5" font-family="Helvetica,sans-Serif" font-size="10.00">+ TimeDecorator()</text>
<text text-anchor="start" x="687.5" y="-40.5" font-family="Helvetica,sans-Serif" font-size="10.00">+ ~TimeDecorator()</text>
<text text-anchor="start" x="687.5" y="-29.5" font-family="Helvetica,sans-Serif" font-size="10.00">+ getQuery()</text>
<text text-anchor="start" x="687.5" y="-18.5" font-family="Helvetica,sans-Serif" font-size="10.00">+ handle()</text>
<text text-anchor="start" x="687.5" y="-7.5" font-family="Helvetica,sans-Serif" font-size="10.00">+ getTimestamp()</text>
</a>
</g>
</g>
<!-- Node8&#45;&gt;Node13 -->
<g id="edge12" class="edge">
<title>Node8&#45;&gt;Node13</title>
<path fill="none" stroke="midnightblue" d="M548.96,-176.81C586.98,-159.78 632.3,-137.47 670.5,-113 673.43,-111.13 676.37,-109.14 679.3,-107.08"/>
<polygon fill="none" stroke="midnightblue" points="547.18,-173.77 539.46,-181.03 550.02,-180.17 547.18,-173.77"/>
</g>
</g>
</svg>
