<?xml version="1.0" encoding="UTF-8" standalone="no"?>
<!DOCTYPE svg PUBLIC "-//W3C//DTD SVG 1.1//EN"
 "http://www.w3.org/Graphics/SVG/1.1/DTD/svg11.dtd">
<!-- Generated by graphviz version 2.43.0 (0)
 -->
<!-- Title: TimeDecorator Pages: 1 -->
<svg width="149pt" height="618pt"
 viewBox="0.00 0.00 149.00 618.00" xmlns="http://www.w3.org/2000/svg" xmlns:xlink="http://www.w3.org/1999/xlink">
<g id="graph0" class="graph" transform="scale(1 1) rotate(0) translate(4 614)">
<title>TimeDecorator</title>
<!-- Node1 -->
<g id="node1" class="node">
<title>Node1</title>
<g id="a_node1"><a xlink:title=" ">
<polygon fill="#bfbfbf" stroke="black" points="12.5,-0.5 12.5,-112.5 128.5,-112.5 128.5,-0.5 12.5,-0.5"/>
<text text-anchor="middle" x="70.5" y="-100.5" font-family="Helvetica,sans-Serif" font-size="10.00">TimeDecorator</text>
<polyline fill="none" stroke="black" points="12.5,-93.5 128.5,-93.5 "/>
<text text-anchor="middle" x="70.5" y="-81.5" font-family="Helvetica,sans-Serif" font-size="10.00"> </text>
<polyline fill="none" stroke="black" points="12.5,-74.5 128.5,-74.5 "/>
<text text-anchor="start" x="20.5" y="-62.5" font-family="Helvetica,sans-Serif" font-size="10.00">+ TimeDecorator()</text>
<text text-anchor="start" x="20.5" y="-51.5" font-family="Helvetica,sans-Serif" font-size="10.00">+ TimeDecorator()</text>
<text text-anchor="start" x="20.5" y="-40.5" font-family="Helvetica,sans-Serif" font-size="10.00">+ ~TimeDecorator()</text>
<text text-anchor="start" x="20.5" y="-29.5" font-family="Helvetica,sans-Serif" font-size="10.00">+ getQuery()</text>
<text text-anchor="start" x="20.5" y="-18.5" font-family="Helvetica,sans-Serif" font-size="10.00">+ handle()</text>
<text text-anchor="start" x="20.5" y="-7.5" font-family="Helvetica,sans-Serif" font-size="10.00">+ getTimestamp()</text>
</a>
</g>
</g>
<!-- Node2 -->
<g id="node2" class="node">
<title>Node2</title>
<g id="a_node2"><a xlink:href="class_properties_decorator.html" target="_top" xlink:title=" ">
<polygon fill="none" stroke="black" points="0,-149.5 0,-272.5 141,-272.5 141,-149.5 0,-149.5"/>
<text text-anchor="middle" x="70.5" y="-260.5" font-family="Helvetica,sans-Serif" font-size="10.00">PropertiesDecorator</text>
<polyline fill="none" stroke="black" points="0,-253.5 141,-253.5 "/>
<text text-anchor="start" x="8" y="-241.5" font-family="Helvetica,sans-Serif" font-size="10.00"># wrapper</text>
<polyline fill="none" stroke="black" points="0,-234.5 141,-234.5 "/>
<text text-anchor="start" x="8" y="-222.5" font-family="Helvetica,sans-Serif" font-size="10.00">+ PropertiesDecorator()</text>
<text text-anchor="start" x="8" y="-211.5" font-family="Helvetica,sans-Serif" font-size="10.00">+ ~PropertiesDecorator()</text>
<text text-anchor="start" x="8" y="-200.5" font-family="Helvetica,sans-Serif" font-size="10.00">+ getRoom()</text>
<text text-anchor="start" x="8" y="-189.5" font-family="Helvetica,sans-Serif" font-size="10.00">+ getType()</text>
<text text-anchor="start" x="8" y="-178.5" font-family="Helvetica,sans-Serif" font-size="10.00">+ getQuery()</text>
<text text-anchor="start" x="8" y="-167.5" font-family="Helvetica,sans-Serif" font-size="10.00">+ handle()</text>
<text text-anchor="start" x="8" y="-156.5" font-family="Helvetica,sans-Serif" font-size="10.00">+ handle()</text>
</a>
</g>
</g>
<!-- Node2&#45;&gt;Node1 -->
<g id="edge1" class="edge">
<title>Node2&#45;&gt;Node1</title>
<path fill="none" stroke="midnightblue" d="M70.5,-139.25C70.5,-130.29 70.5,-121.23 70.5,-112.56"/>
<polygon fill="none" stroke="midnightblue" points="67,-139.29 70.5,-149.29 74,-139.29 67,-139.29"/>
</g>
<!-- Node3 -->
<g id="node3" class="node">
<title>Node3</title>
<g id="a_node3"><a xlink:href="class_message.html" target="_top" xlink:title=" ">
<polygon fill="none" stroke="black" points="27,-309.5 27,-388.5 114,-388.5 114,-309.5 27,-309.5"/>
<text text-anchor="middle" x="70.5" y="-376.5" font-family="Helvetica,sans-Serif" font-size="10.00">Message</text>
<polyline fill="none" stroke="black" points="27,-369.5 114,-369.5 "/>
<text text-anchor="middle" x="70.5" y="-357.5" font-family="Helvetica,sans-Serif" font-size="10.00"> </text>
<polyline fill="none" stroke="black" points="27,-350.5 114,-350.5 "/>
<text text-anchor="start" x="35" y="-338.5" font-family="Helvetica,sans-Serif" font-size="10.00">+ ~Message()</text>
<text text-anchor="start" x="35" y="-327.5" font-family="Helvetica,sans-Serif" font-size="10.00">+ getRoom()</text>
<text text-anchor="start" x="35" y="-316.5" font-family="Helvetica,sans-Serif" font-size="10.00">+ getType()</text>
</a>
</g>
</g>
<!-- Node3&#45;&gt;Node2 -->
<g id="edge2" class="edge">
<title>Node3&#45;&gt;Node2</title>
<path fill="none" stroke="midnightblue" d="M70.5,-299.14C70.5,-290.53 70.5,-281.47 70.5,-272.57"/>
<polygon fill="none" stroke="midnightblue" points="67,-299.39 70.5,-309.39 74,-299.39 67,-299.39"/>
</g>
<!-- Node4 -->
<g id="node4" class="node">
<title>Node4</title>
<g id="a_node4"><a xlink:href="class_request.html" target="_top" xlink:title=" ">
<polygon fill="none" stroke="black" points="30.5,-425.5 30.5,-504.5 110.5,-504.5 110.5,-425.5 30.5,-425.5"/>
<text text-anchor="middle" x="70.5" y="-492.5" font-family="Helvetica,sans-Serif" font-size="10.00">Request</text>
<polyline fill="none" stroke="black" points="30.5,-485.5 110.5,-485.5 "/>
<text text-anchor="start" x="38.5" y="-473.5" font-family="Helvetica,sans-Serif" font-size="10.00">+ separator</text>
<polyline fill="none" stroke="black" points="30.5,-466.5 110.5,-466.5 "/>
<text text-anchor="start" x="38.5" y="-454.5" font-family="Helvetica,sans-Serif" font-size="10.00">+ getQuery()</text>
<text text-anchor="start" x="38.5" y="-443.5" font-family="Helvetica,sans-Serif" font-size="10.00">+ handle()</text>
<text text-anchor="start" x="38.5" y="-432.5" font-family="Helvetica,sans-Serif" font-size="10.00">+ handle()</text>
</a>
</g>
</g>
<!-- Node4&#45;&gt;Node3 -->
<g id="edge3" class="edge">
<title>Node4&#45;&gt;Node3</title>
<path fill="none" stroke="midnightblue" d="M70.5,-415.15C70.5,-406.26 70.5,-397.1 70.5,-388.56"/>
<polygon fill="none" stroke="midnightblue" points="67,-415.4 70.5,-425.4 74,-415.4 67,-415.4"/>
</g>
<!-- Node5 -->
<g id="node5" class="node">
<title>Node5</title>
<g id="a_node5"><a xlink:title=" ">
<polygon fill="none" stroke="black" points="5,-541.5 5,-609.5 136,-609.5 136,-541.5 5,-541.5"/>
<text text-anchor="start" x="13" y="-597.5" font-family="Helvetica,sans-Serif" font-size="10.00">std::enable_shared</text>
<text text-anchor="middle" x="70.5" y="-586.5" font-family="Helvetica,sans-Serif" font-size="10.00">_from_this&lt; Request &gt;</text>
<polyline fill="none" stroke="black" points="5,-579.5 136,-579.5 "/>
<text text-anchor="middle" x="70.5" y="-567.5" font-family="Helvetica,sans-Serif" font-size="10.00"> </text>
<polyline fill="none" stroke="black" points="5,-560.5 136,-560.5 "/>
<text text-anchor="middle" x="70.5" y="-548.5" font-family="Helvetica,sans-Serif" font-size="10.00"> </text>
</a>
</g>
</g>
<!-- Node5&#45;&gt;Node4 -->
<g id="edge4" class="edge">
<title>Node5&#45;&gt;Node4</title>
<path fill="none" stroke="midnightblue" d="M70.5,-531.27C70.5,-522.48 70.5,-513.28 70.5,-504.65"/>
<polygon fill="none" stroke="midnightblue" points="67,-531.36 70.5,-541.36 74,-531.36 67,-531.36"/>
</g>
</g>
</svg>
