<?xml version="1.0" encoding="UTF-8" standalone="no"?>
<!DOCTYPE svg PUBLIC "-//W3C//DTD SVG 1.1//EN"
 "http://www.w3.org/Graphics/SVG/1.1/DTD/svg11.dtd">
<!-- Generated by graphviz version 2.43.0 (0)
 -->
<!-- Title: AbstractHandler::getCreator Pages: 1 -->
<svg width="340pt" height="351pt"
 viewBox="0.00 0.00 340.00 350.50" xmlns="http://www.w3.org/2000/svg" xmlns:xlink="http://www.w3.org/1999/xlink">
<g id="graph0" class="graph" transform="scale(1 1) rotate(0) translate(4 346.5)">
<title>AbstractHandler::getCreator</title>
<!-- Node1 -->
<g id="node1" class="node">
<title>Node1</title>
<g id="a_node1"><a xlink:title=" ">
<polygon fill="#bfbfbf" stroke="black" points="179,-167 179,-186 332,-186 332,-167 179,-167"/>
<text text-anchor="middle" x="255.5" y="-174" font-family="Helvetica,sans-Serif" font-size="10.00">AbstractHandler::getCreator</text>
</a>
</g>
</g>
<!-- Node2 -->
<g id="node2" class="node">
<title>Node2</title>
<g id="a_node2"><a xlink:href="class_client_connection.html#a1cafa7ce29551be7ca4bde64ddbe67d6" target="_top" xlink:title=" ">
<polygon fill="none" stroke="black" points="0,-323 0,-342 143,-342 143,-323 0,-323"/>
<text text-anchor="middle" x="71.5" y="-330" font-family="Helvetica,sans-Serif" font-size="10.00">ClientConnection::destroy</text>
</a>
</g>
</g>
<!-- Node1&#45;&gt;Node2 -->
<g id="edge1" class="edge">
<title>Node1&#45;&gt;Node2</title>
<path fill="none" stroke="midnightblue" d="M244.53,-195.11C227.66,-224.78 190.62,-282.61 143,-313.5 137.04,-317.36 130.32,-320.45 123.45,-322.9"/>
<polygon fill="midnightblue" stroke="midnightblue" points="247.68,-196.65 249.47,-186.2 241.56,-193.25 247.68,-196.65"/>
</g>
<!-- Node3 -->
<g id="node3" class="node">
<title>Node3</title>
<g id="a_node3"><a xlink:href="class_clientside_handler.html#a5bdd771922c7f2468879c50a522bea5c" target="_top" xlink:title=" ">
<polygon fill="none" stroke="black" points="7.5,-285 7.5,-304 135.5,-304 135.5,-285 7.5,-285"/>
<text text-anchor="middle" x="71.5" y="-292" font-family="Helvetica,sans-Serif" font-size="10.00">ClientsideHandler::join</text>
</a>
</g>
</g>
<!-- Node1&#45;&gt;Node3 -->
<g id="edge2" class="edge">
<title>Node1&#45;&gt;Node3</title>
<path fill="none" stroke="midnightblue" d="M239.64,-193.96C219.82,-216.15 182.6,-254.14 143,-275.5 135.86,-279.35 127.88,-282.46 119.94,-284.97"/>
<polygon fill="midnightblue" stroke="midnightblue" points="242.4,-196.12 246.36,-186.3 237.13,-191.51 242.4,-196.12"/>
</g>
<!-- Node4 -->
<g id="node4" class="node">
<title>Node4</title>
<g id="a_node4"><a xlink:href="class_clientside_handler.html#af686e1838be32e7e98587449972df357" target="_top" xlink:title=" ">
<polygon fill="none" stroke="black" points="16.5,-235.5 16.5,-265.5 126.5,-265.5 126.5,-235.5 16.5,-235.5"/>
<text text-anchor="start" x="24.5" y="-253.5" font-family="Helvetica,sans-Serif" font-size="10.00">ClientsideHandler::</text>
<text text-anchor="middle" x="71.5" y="-242.5" font-family="Helvetica,sans-Serif" font-size="10.00">leave</text>
</a>
</g>
</g>
<!-- Node1&#45;&gt;Node4 -->
<g id="edge3" class="edge">
<title>Node1&#45;&gt;Node4</title>
<path fill="none" stroke="midnightblue" d="M225.35,-190.47C203.04,-200.95 171.38,-215.34 143,-226.5 135.18,-229.58 126.79,-232.64 118.61,-235.49"/>
<polygon fill="midnightblue" stroke="midnightblue" points="227.05,-193.54 234.6,-186.1 224.06,-187.21 227.05,-193.54"/>
</g>
<!-- Node5 -->
<g id="node5" class="node">
<title>Node5</title>
<g id="a_node5"><a xlink:href="class_clientside_handler.html#a511e8c889b911ede54260d59fe3bc1fa" target="_top" xlink:title=" ">
<polygon fill="none" stroke="black" points="16.5,-186.5 16.5,-216.5 126.5,-216.5 126.5,-186.5 16.5,-186.5"/>
<text text-anchor="start" x="24.5" y="-204.5" font-family="Helvetica,sans-Serif" font-size="10.00">ClientsideHandler::</text>
<text text-anchor="middle" x="71.5" y="-193.5" font-family="Helvetica,sans-Serif" font-size="10.00">manage</text>
</a>
</g>
</g>
<!-- Node1&#45;&gt;Node5 -->
<g id="edge4" class="edge">
<title>Node1&#45;&gt;Node5</title>
<path fill="none" stroke="midnightblue" d="M175.07,-187.41C158.71,-189.66 141.85,-191.97 126.64,-194.06"/>
<polygon fill="midnightblue" stroke="midnightblue" points="175.74,-190.85 185.17,-186.02 174.79,-183.92 175.74,-190.85"/>
</g>
<!-- Node6 -->
<g id="node6" class="node">
<title>Node6</title>
<g id="a_node6"><a xlink:href="class_clientside_handler.html#aaff08227a75a5ce1eccc9dd2cc856dfe" target="_top" xlink:title=" ">
<polygon fill="none" stroke="black" points="16.5,-137.5 16.5,-167.5 126.5,-167.5 126.5,-137.5 16.5,-137.5"/>
<text text-anchor="start" x="24.5" y="-155.5" font-family="Helvetica,sans-Serif" font-size="10.00">ClientsideHandler::</text>
<text text-anchor="middle" x="71.5" y="-144.5" font-family="Helvetica,sans-Serif" font-size="10.00">requestHistory</text>
</a>
</g>
</g>
<!-- Node1&#45;&gt;Node6 -->
<g id="edge5" class="edge">
<title>Node1&#45;&gt;Node6</title>
<path fill="none" stroke="midnightblue" d="M172.22,-165.65C156.76,-163.61 140.96,-161.53 126.63,-159.64"/>
<polygon fill="midnightblue" stroke="midnightblue" points="171.94,-169.14 182.31,-166.98 172.85,-162.2 171.94,-169.14"/>
</g>
<!-- Node7 -->
<g id="node7" class="node">
<title>Node7</title>
<g id="a_node7"><a xlink:href="class_clientside_handler.html#a3722b2ff63fc872ba7c9f86a2fadddda" target="_top" xlink:title=" ">
<polygon fill="none" stroke="black" points="16.5,-88.5 16.5,-118.5 126.5,-118.5 126.5,-88.5 16.5,-88.5"/>
<text text-anchor="start" x="24.5" y="-106.5" font-family="Helvetica,sans-Serif" font-size="10.00">ClientsideHandler::</text>
<text text-anchor="middle" x="71.5" y="-95.5" font-family="Helvetica,sans-Serif" font-size="10.00">requestUserList</text>
</a>
</g>
</g>
<!-- Node1&#45;&gt;Node7 -->
<g id="edge6" class="edge">
<title>Node1&#45;&gt;Node7</title>
<path fill="none" stroke="midnightblue" d="M224.02,-162.73C201.73,-152.83 170.69,-139.36 143,-128.5 134.42,-125.13 125.17,-121.71 116.29,-118.52"/>
<polygon fill="midnightblue" stroke="midnightblue" points="222.74,-166 233.3,-166.88 225.59,-159.61 222.74,-166"/>
</g>
<!-- Node8 -->
<g id="node8" class="node">
<title>Node8</title>
<g id="a_node8"><a xlink:href="class_clientside_handler.html#ab6c9e09358e282f84043e708e9f6303d" target="_top" xlink:title=" ">
<polygon fill="none" stroke="black" points="5,-50 5,-69 138,-69 138,-50 5,-50"/>
<text text-anchor="middle" x="71.5" y="-57" font-family="Helvetica,sans-Serif" font-size="10.00">ClientsideHandler::send</text>
</a>
</g>
</g>
<!-- Node1&#45;&gt;Node8 -->
<g id="edge7" class="edge">
<title>Node1&#45;&gt;Node8</title>
<path fill="none" stroke="midnightblue" d="M239.52,-159.49C219.57,-137.84 182.21,-100.73 143,-79.5 135.06,-75.2 126.1,-71.75 117.29,-69"/>
<polygon fill="midnightblue" stroke="midnightblue" points="236.98,-161.89 246.28,-166.96 242.17,-157.19 236.98,-161.89"/>
</g>
<!-- Node9 -->
<g id="node9" class="node">
<title>Node9</title>
<g id="a_node9"><a xlink:href="class_clientside_handler.html#a2f98f88cd7ce79ddea8f3bc995981487" target="_top" xlink:title=" ">
<polygon fill="none" stroke="black" points="16.5,-0.5 16.5,-30.5 126.5,-30.5 126.5,-0.5 16.5,-0.5"/>
<text text-anchor="start" x="24.5" y="-18.5" font-family="Helvetica,sans-Serif" font-size="10.00">ClientsideHandler::</text>
<text text-anchor="middle" x="71.5" y="-7.5" font-family="Helvetica,sans-Serif" font-size="10.00">sendPrivate</text>
</a>
</g>
</g>
<!-- Node1&#45;&gt;Node9 -->
<g id="edge8" class="edge">
<title>Node1&#45;&gt;Node9</title>
<path fill="none" stroke="midnightblue" d="M243.96,-158.03C226.53,-129.03 189.01,-72.83 143,-40.5 137.58,-36.69 131.52,-33.41 125.3,-30.59"/>
<polygon fill="midnightblue" stroke="midnightblue" points="241,-159.9 249.09,-166.74 247.03,-156.35 241,-159.9"/>
</g>
</g>
</svg>
