<?xml version="1.0" encoding="UTF-8" standalone="no"?>
<!DOCTYPE svg PUBLIC "-//W3C//DTD SVG 1.1//EN"
 "http://www.w3.org/Graphics/SVG/1.1/DTD/svg11.dtd">
<!-- Generated by graphviz version 2.43.0 (0)
 -->
<!-- Title: ClientConnection Pages: 1 -->
<!--zoomable 612 -->
<svg id="main" version="1.1" xmlns="http://www.w3.org/2000/svg" xmlns:xlink="http://www.w3.org/1999/xlink" xml:space="preserve" onload="init(evt)">
<style type="text/css"><![CDATA[
.edge:hover path { stroke: red; }
.edge:hover polygon { stroke: red; fill: red; }
]]></style>
<script type="text/javascript"><![CDATA[
var edges = document.getElementsByTagName('g');
if (edges && edges.length) {
  for (var i=0;i<edges.length;i++) {
    if (edges[i].id.substr(0,4)=='edge') {
      edges[i].setAttribute('class','edge');
    }
  }
}
]]></script>
        <defs>
                <circle id="rim" cx="0" cy="0" r="7"/>
                <circle id="rim2" cx="0" cy="0" r="3.5"/>
                <g id="zoomPlus">
                        <use xlink:href="#rim" fill="#404040">
                                <set attributeName="fill" to="#808080" begin="zoomplus.mouseover" end="zoomplus.mouseout"/>
                        </use>
                        <path d="M-4,0h8M0,-4v8" fill="none" stroke="white" stroke-width="1.5" pointer-events="none"/>
                </g>
                <g id="zoomMin">
                        <use xlink:href="#rim" fill="#404040">
                                <set attributeName="fill" to="#808080" begin="zoomminus.mouseover" end="zoomminus.mouseout"/>
                        </use>
                        <path d="M-4,0h8" fill="none" stroke="white" stroke-width="1.5" pointer-events="none"/>
                </g>
                <g id="dirArrow">
                        <path fill="none" stroke="white" stroke-width="1.5" d="M0,-3.0v7 M-2.5,-0.5L0,-3.0L2.5,-0.5"/>
                </g>
               <g id="resetDef">
                       <use xlink:href="#rim2" fill="#404040">
                               <set attributeName="fill" to="#808080" begin="reset.mouseover" end="reset.mouseout"/>
                       </use>
               </g>
        </defs>

<script type="text/javascript">
var viewWidth = 178;
var viewHeight = 612;
var sectionId = 'dynsection-0';
</script>
<script xlink:href="svgpan.js"/>
<svg id="graph" class="graph">
<g id="viewport">
<title>ClientConnection</title>
<!-- Node1 -->
<g id="node1" class="node">
<title>Node1</title>
<g id="a_node1"><a xlink:title=" ">
<polygon fill="#bfbfbf" stroke="black" points="21.5,-0.5 21.5,-123.5 148.5,-123.5 148.5,-0.5 21.5,-0.5"/>
<text text-anchor="middle" x="85" y="-111.5" font-family="Helvetica,sans-Serif" font-size="10.00">ClientConnection</text>
<polyline fill="none" stroke="black" points="21.5,-104.5 148.5,-104.5 "/>
<text text-anchor="middle" x="85" y="-92.5" font-family="Helvetica,sans-Serif" font-size="10.00"> </text>
<polyline fill="none" stroke="black" points="21.5,-85.5 148.5,-85.5 "/>
<text text-anchor="start" x="29.5" y="-73.5" font-family="Helvetica,sans-Serif" font-size="10.00">+ ClientConnection()</text>
<text text-anchor="start" x="29.5" y="-62.5" font-family="Helvetica,sans-Serif" font-size="10.00">+ ~ClientConnection()</text>
<text text-anchor="start" x="29.5" y="-51.5" font-family="Helvetica,sans-Serif" font-size="10.00">+ destroy()</text>
<text text-anchor="start" x="29.5" y="-40.5" font-family="Helvetica,sans-Serif" font-size="10.00">+ onSignUp()</text>
<text text-anchor="start" x="29.5" y="-29.5" font-family="Helvetica,sans-Serif" font-size="10.00">+ onSignIn()</text>
<text text-anchor="start" x="29.5" y="-18.5" font-family="Helvetica,sans-Serif" font-size="10.00">+ onMessage()</text>
<text text-anchor="start" x="29.5" y="-7.5" font-family="Helvetica,sans-Serif" font-size="10.00">+ onPrivateMessage()</text>
</a>
</g>
</g>
<!-- Node2 -->
<g id="node2" class="node">
<title>Node2</title>
<g id="a_node2"><a xlink:href="class_serverside_handler.html" target="_top" xlink:title=" ">
<polygon fill="none" stroke="black" points="18,-160.5 18,-294.5 152,-294.5 152,-160.5 18,-160.5"/>
<text text-anchor="middle" x="85" y="-282.5" font-family="Helvetica,sans-Serif" font-size="10.00">ServersideHandler</text>
<polyline fill="none" stroke="black" points="18,-275.5 152,-275.5 "/>
<text text-anchor="middle" x="85" y="-263.5" font-family="Helvetica,sans-Serif" font-size="10.00"> </text>
<polyline fill="none" stroke="black" points="18,-256.5 152,-256.5 "/>
<text text-anchor="start" x="26" y="-244.5" font-family="Helvetica,sans-Serif" font-size="10.00">+ ServersideHandler()</text>
<text text-anchor="start" x="26" y="-233.5" font-family="Helvetica,sans-Serif" font-size="10.00">+ ~ServersideHandler()</text>
<text text-anchor="start" x="26" y="-222.5" font-family="Helvetica,sans-Serif" font-size="10.00">+ receive()</text>
<text text-anchor="start" x="26" y="-211.5" font-family="Helvetica,sans-Serif" font-size="10.00">+ onSignUp()</text>
<text text-anchor="start" x="26" y="-200.5" font-family="Helvetica,sans-Serif" font-size="10.00">+ onSignIn()</text>
<text text-anchor="start" x="26" y="-189.5" font-family="Helvetica,sans-Serif" font-size="10.00">+ onMessage()</text>
<text text-anchor="start" x="26" y="-178.5" font-family="Helvetica,sans-Serif" font-size="10.00">+ onPrivateMessage()</text>
<text text-anchor="start" x="26" y="-167.5" font-family="Helvetica,sans-Serif" font-size="10.00"># sharedFromThis()</text>
</a>
</g>
</g>
<!-- Node2&#45;&gt;Node1 -->
<g id="edge1" class="edge">
<title>Node2&#45;&gt;Node1</title>
<path fill="none" stroke="midnightblue" d="M85,-150.42C85,-141.47 85,-132.43 85,-123.73"/>
<polygon fill="none" stroke="midnightblue" points="81.5,-150.47 85,-160.47 88.5,-150.47 81.5,-150.47"/>
</g>
<!-- Node3 -->
<g id="node3" class="node">
<title>Node3</title>
<g id="a_node3"><a xlink:href="class_abstract_handler.html" target="_top" xlink:title=" ">
<polygon fill="none" stroke="black" points="24,-331.5 24,-498.5 146,-498.5 146,-331.5 24,-331.5"/>
<text text-anchor="middle" x="85" y="-486.5" font-family="Helvetica,sans-Serif" font-size="10.00">AbstractHandler</text>
<polyline fill="none" stroke="black" points="24,-479.5 146,-479.5 "/>
<text text-anchor="middle" x="85" y="-467.5" font-family="Helvetica,sans-Serif" font-size="10.00"> </text>
<polyline fill="none" stroke="black" points="24,-460.5 146,-460.5 "/>
<text text-anchor="start" x="32" y="-448.5" font-family="Helvetica,sans-Serif" font-size="10.00">+ AbstractHandler()</text>
<text text-anchor="start" x="32" y="-437.5" font-family="Helvetica,sans-Serif" font-size="10.00">+ ~AbstractHandler()</text>
<text text-anchor="start" x="32" y="-426.5" font-family="Helvetica,sans-Serif" font-size="10.00">+ getCreator()</text>
<text text-anchor="start" x="32" y="-415.5" font-family="Helvetica,sans-Serif" font-size="10.00">+ getAccount()</text>
<text text-anchor="start" x="32" y="-404.5" font-family="Helvetica,sans-Serif" font-size="10.00">+ setAccount()</text>
<text text-anchor="start" x="32" y="-393.5" font-family="Helvetica,sans-Serif" font-size="10.00">+ sendRaw()</text>
<text text-anchor="start" x="32" y="-382.5" font-family="Helvetica,sans-Serif" font-size="10.00">+ sendRequest()</text>
<text text-anchor="start" x="32" y="-371.5" font-family="Helvetica,sans-Serif" font-size="10.00">+ startReceiving()</text>
<text text-anchor="start" x="32" y="-360.5" font-family="Helvetica,sans-Serif" font-size="10.00">+ exit()</text>
<text text-anchor="start" x="32" y="-349.5" font-family="Helvetica,sans-Serif" font-size="10.00">+ receive()</text>
<text text-anchor="start" x="32" y="-338.5" font-family="Helvetica,sans-Serif" font-size="10.00">+ destroy()</text>
</a>
</g>
</g>
<!-- Node3&#45;&gt;Node2 -->
<g id="edge2" class="edge">
<title>Node3&#45;&gt;Node2</title>
<path fill="none" stroke="midnightblue" d="M85,-321.19C85,-312.22 85,-303.26 85,-294.64"/>
<polygon fill="none" stroke="midnightblue" points="81.5,-321.29 85,-331.29 88.5,-321.29 81.5,-321.29"/>
</g>
<!-- Node4 -->
<g id="node4" class="node">
<title>Node4</title>
<g id="a_node4"><a xlink:title=" ">
<polygon fill="none" stroke="black" points="0,-535.5 0,-603.5 170,-603.5 170,-535.5 0,-535.5"/>
<text text-anchor="start" x="8" y="-591.5" font-family="Helvetica,sans-Serif" font-size="10.00">std::enable_shared</text>
<text text-anchor="middle" x="85" y="-580.5" font-family="Helvetica,sans-Serif" font-size="10.00">_from_this&lt; AbstractHandler &gt;</text>
<polyline fill="none" stroke="black" points="0,-573.5 170,-573.5 "/>
<text text-anchor="middle" x="85" y="-561.5" font-family="Helvetica,sans-Serif" font-size="10.00"> </text>
<polyline fill="none" stroke="black" points="0,-554.5 170,-554.5 "/>
<text text-anchor="middle" x="85" y="-542.5" font-family="Helvetica,sans-Serif" font-size="10.00"> </text>
</a>
</g>
</g>
<!-- Node4&#45;&gt;Node3 -->
<g id="edge3" class="edge">
<title>Node4&#45;&gt;Node3</title>
<path fill="none" stroke="midnightblue" d="M85,-525.23C85,-516.88 85,-507.89 85,-498.76"/>
<polygon fill="none" stroke="midnightblue" points="81.5,-525.41 85,-535.41 88.5,-525.41 81.5,-525.41"/>
</g>
</g>
</svg>
        <g id="navigator" transform="translate(0 0)" fill="#404254">
                <rect fill="#f2f5e9" fill-opacity="0.5" stroke="#606060" stroke-width=".5" x="0" y="0" width="60" height="60"/>
                <use id="zoomplus" xlink:href="#zoomPlus" x="17" y="9" onmousedown="handleZoom(evt,'in')"/>
                <use id="zoomminus" xlink:href="#zoomMin" x="42" y="9" onmousedown="handleZoom(evt,'out')"/>
                <use id="reset" xlink:href="#resetDef" x="30" y="36" onmousedown="handleReset()"/>
                <g id="arrowUp" xlink:href="#dirArrow" transform="translate(30 24)" onmousedown="handlePan(0,-1)">
                  <use xlink:href="#rim" fill="#404040">
                        <set attributeName="fill" to="#808080" begin="arrowUp.mouseover" end="arrowUp.mouseout"/>
                  </use>
                  <path fill="none" stroke="white" stroke-width="1.5" d="M0,-3.0v7 M-2.5,-0.5L0,-3.0L2.5,-0.5"/>
                </g>
                <g id="arrowRight" xlink:href="#dirArrow" transform="rotate(90) translate(36 -43)" onmousedown="handlePan(1,0)">
                  <use xlink:href="#rim" fill="#404040">
                        <set attributeName="fill" to="#808080" begin="arrowRight.mouseover" end="arrowRight.mouseout"/>
                  </use>
                  <path fill="none" stroke="white" stroke-width="1.5" d="M0,-3.0v7 M-2.5,-0.5L0,-3.0L2.5,-0.5"/>
                </g>
                <g id="arrowDown" xlink:href="#dirArrow" transform="rotate(180) translate(-30 -48)" onmousedown="handlePan(0,1)">
                  <use xlink:href="#rim" fill="#404040">
                        <set attributeName="fill" to="#808080" begin="arrowDown.mouseover" end="arrowDown.mouseout"/>
                  </use>
                  <path fill="none" stroke="white" stroke-width="1.5" d="M0,-3.0v7 M-2.5,-0.5L0,-3.0L2.5,-0.5"/>
                </g>
                <g id="arrowLeft" xlink:href="#dirArrow" transform="rotate(270) translate(-36 17)" onmousedown="handlePan(-1,0)">
                  <use xlink:href="#rim" fill="#404040">
                        <set attributeName="fill" to="#808080" begin="arrowLeft.mouseover" end="arrowLeft.mouseout"/>
                  </use>
                  <path fill="none" stroke="white" stroke-width="1.5" d="M0,-3.0v7 M-2.5,-0.5L0,-3.0L2.5,-0.5"/>
                </g>
        </g>
        <svg viewBox="0 0 15 15" width="100%" height="30px" preserveAspectRatio="xMaxYMin meet">
         <g id="arrow_out" transform="scale(0.3 0.3)">
          <a xlink:href="class_client_connection__inherit__graph_org.svg" target="_base">
           <rect id="button" ry="5" rx="5" y="6" x="6" height="38" width="38"
                fill="#f2f5e9" fill-opacity="0.5" stroke="#606060" stroke-width="1.0"/>
           <path id="arrow"
             d="M 11.500037,31.436501 C 11.940474,20.09759 22.043105,11.32322 32.158766,21.979434 L 37.068811,17.246167 C 37.068811,17.246167 37.088388,32 37.088388,32 L 22.160133,31.978069 C 22.160133,31.978069 26.997745,27.140456 26.997745,27.140456 C 18.528582,18.264221 13.291696,25.230495 11.500037,31.436501 z"
             style="fill:#404040;"/>
          </a>
         </g>
        </svg>
</svg>
