<?xml version="1.0" encoding="UTF-8" standalone="no"?>
<!DOCTYPE svg PUBLIC "-//W3C//DTD SVG 1.1//EN"
 "http://www.w3.org/Graphics/SVG/1.1/DTD/svg11.dtd">
<!-- Generated by graphviz version 2.43.0 (0)
 -->
<!-- Title: Message Pages: 1 -->
<svg width="680pt" height="618pt"
 viewBox="0.00 0.00 680.00 618.00" xmlns="http://www.w3.org/2000/svg" xmlns:xlink="http://www.w3.org/1999/xlink">
<g id="graph0" class="graph" transform="scale(1 1) rotate(0) translate(4 614)">
<title>Message</title>
<!-- Node1 -->
<g id="node1" class="node">
<title>Node1</title>
<g id="a_node1"><a xlink:title=" ">
<polygon fill="#bfbfbf" stroke="black" points="229.5,-309.5 229.5,-388.5 316.5,-388.5 316.5,-309.5 229.5,-309.5"/>
<text text-anchor="middle" x="273" y="-376.5" font-family="Helvetica,sans-Serif" font-size="10.00">Message</text>
<polyline fill="none" stroke="black" points="229.5,-369.5 316.5,-369.5 "/>
<text text-anchor="middle" x="273" y="-357.5" font-family="Helvetica,sans-Serif" font-size="10.00"> </text>
<polyline fill="none" stroke="black" points="229.5,-350.5 316.5,-350.5 "/>
<text text-anchor="start" x="237.5" y="-338.5" font-family="Helvetica,sans-Serif" font-size="10.00">+ ~Message()</text>
<text text-anchor="start" x="237.5" y="-327.5" font-family="Helvetica,sans-Serif" font-size="10.00">+ getRoom()</text>
<text text-anchor="start" x="237.5" y="-316.5" font-family="Helvetica,sans-Serif" font-size="10.00">+ getType()</text>
</a>
</g>
</g>
<!-- Node4 -->
<g id="node4" class="node">
<title>Node4</title>
<g id="a_node4"><a xlink:href="class_base_message.html" target="_top" xlink:title=" ">
<polygon fill="none" stroke="black" points="145.5,-149.5 145.5,-272.5 256.5,-272.5 256.5,-149.5 145.5,-149.5"/>
<text text-anchor="middle" x="201" y="-260.5" font-family="Helvetica,sans-Serif" font-size="10.00">BaseMessage</text>
<polyline fill="none" stroke="black" points="145.5,-253.5 256.5,-253.5 "/>
<text text-anchor="middle" x="201" y="-241.5" font-family="Helvetica,sans-Serif" font-size="10.00"> </text>
<polyline fill="none" stroke="black" points="145.5,-234.5 256.5,-234.5 "/>
<text text-anchor="start" x="153.5" y="-222.5" font-family="Helvetica,sans-Serif" font-size="10.00">+ BaseMessage()</text>
<text text-anchor="start" x="153.5" y="-211.5" font-family="Helvetica,sans-Serif" font-size="10.00">+ ~BaseMessage()</text>
<text text-anchor="start" x="153.5" y="-200.5" font-family="Helvetica,sans-Serif" font-size="10.00">+ getRoom()</text>
<text text-anchor="start" x="153.5" y="-189.5" font-family="Helvetica,sans-Serif" font-size="10.00">+ getType()</text>
<text text-anchor="start" x="153.5" y="-178.5" font-family="Helvetica,sans-Serif" font-size="10.00">+ getQuery()</text>
<text text-anchor="start" x="153.5" y="-167.5" font-family="Helvetica,sans-Serif" font-size="10.00">+ handle()</text>
<text text-anchor="start" x="153.5" y="-156.5" font-family="Helvetica,sans-Serif" font-size="10.00">+ handle()</text>
</a>
</g>
</g>
<!-- Node1&#45;&gt;Node4 -->
<g id="edge3" class="edge">
<title>Node1&#45;&gt;Node4</title>
<path fill="none" stroke="midnightblue" d="M247.74,-300.28C243,-291.33 237.98,-281.86 233.07,-272.57"/>
<polygon fill="none" stroke="midnightblue" points="244.79,-302.19 252.56,-309.39 250.97,-298.92 244.79,-302.19"/>
</g>
<!-- Node5 -->
<g id="node5" class="node">
<title>Node5</title>
<g id="a_node5"><a xlink:href="class_properties_decorator.html" target="_top" xlink:title=" ">
<polygon fill="none" stroke="black" points="274.5,-149.5 274.5,-272.5 415.5,-272.5 415.5,-149.5 274.5,-149.5"/>
<text text-anchor="middle" x="345" y="-260.5" font-family="Helvetica,sans-Serif" font-size="10.00">PropertiesDecorator</text>
<polyline fill="none" stroke="black" points="274.5,-253.5 415.5,-253.5 "/>
<text text-anchor="start" x="282.5" y="-241.5" font-family="Helvetica,sans-Serif" font-size="10.00"># wrapper</text>
<polyline fill="none" stroke="black" points="274.5,-234.5 415.5,-234.5 "/>
<text text-anchor="start" x="282.5" y="-222.5" font-family="Helvetica,sans-Serif" font-size="10.00">+ PropertiesDecorator()</text>
<text text-anchor="start" x="282.5" y="-211.5" font-family="Helvetica,sans-Serif" font-size="10.00">+ ~PropertiesDecorator()</text>
<text text-anchor="start" x="282.5" y="-200.5" font-family="Helvetica,sans-Serif" font-size="10.00">+ getRoom()</text>
<text text-anchor="start" x="282.5" y="-189.5" font-family="Helvetica,sans-Serif" font-size="10.00">+ getType()</text>
<text text-anchor="start" x="282.5" y="-178.5" font-family="Helvetica,sans-Serif" font-size="10.00">+ getQuery()</text>
<text text-anchor="start" x="282.5" y="-167.5" font-family="Helvetica,sans-Serif" font-size="10.00">+ handle()</text>
<text text-anchor="start" x="282.5" y="-156.5" font-family="Helvetica,sans-Serif" font-size="10.00">+ handle()</text>
</a>
</g>
</g>
<!-- Node1&#45;&gt;Node5 -->
<g id="edge4" class="edge">
<title>Node1&#45;&gt;Node5</title>
<path fill="none" stroke="midnightblue" d="M298.26,-300.28C303,-291.33 308.02,-281.86 312.93,-272.57"/>
<polygon fill="none" stroke="midnightblue" points="295.03,-298.92 293.44,-309.39 301.21,-302.19 295.03,-298.92"/>
</g>
<!-- Node2 -->
<g id="node2" class="node">
<title>Node2</title>
<g id="a_node2"><a xlink:href="class_request.html" target="_top" xlink:title=" ">
<polygon fill="none" stroke="black" points="233,-425.5 233,-504.5 313,-504.5 313,-425.5 233,-425.5"/>
<text text-anchor="middle" x="273" y="-492.5" font-family="Helvetica,sans-Serif" font-size="10.00">Request</text>
<polyline fill="none" stroke="black" points="233,-485.5 313,-485.5 "/>
<text text-anchor="start" x="241" y="-473.5" font-family="Helvetica,sans-Serif" font-size="10.00">+ separator</text>
<polyline fill="none" stroke="black" points="233,-466.5 313,-466.5 "/>
<text text-anchor="start" x="241" y="-454.5" font-family="Helvetica,sans-Serif" font-size="10.00">+ getQuery()</text>
<text text-anchor="start" x="241" y="-443.5" font-family="Helvetica,sans-Serif" font-size="10.00">+ handle()</text>
<text text-anchor="start" x="241" y="-432.5" font-family="Helvetica,sans-Serif" font-size="10.00">+ handle()</text>
</a>
</g>
</g>
<!-- Node2&#45;&gt;Node1 -->
<g id="edge1" class="edge">
<title>Node2&#45;&gt;Node1</title>
<path fill="none" stroke="midnightblue" d="M273,-415.15C273,-406.26 273,-397.1 273,-388.56"/>
<polygon fill="none" stroke="midnightblue" points="269.5,-415.4 273,-425.4 276.5,-415.4 269.5,-415.4"/>
</g>
<!-- Node3 -->
<g id="node3" class="node">
<title>Node3</title>
<g id="a_node3"><a xlink:title=" ">
<polygon fill="none" stroke="black" points="207.5,-541.5 207.5,-609.5 338.5,-609.5 338.5,-541.5 207.5,-541.5"/>
<text text-anchor="start" x="215.5" y="-597.5" font-family="Helvetica,sans-Serif" font-size="10.00">std::enable_shared</text>
<text text-anchor="middle" x="273" y="-586.5" font-family="Helvetica,sans-Serif" font-size="10.00">_from_this&lt; Request &gt;</text>
<polyline fill="none" stroke="black" points="207.5,-579.5 338.5,-579.5 "/>
<text text-anchor="middle" x="273" y="-567.5" font-family="Helvetica,sans-Serif" font-size="10.00"> </text>
<polyline fill="none" stroke="black" points="207.5,-560.5 338.5,-560.5 "/>
<text text-anchor="middle" x="273" y="-548.5" font-family="Helvetica,sans-Serif" font-size="10.00"> </text>
</a>
</g>
</g>
<!-- Node3&#45;&gt;Node2 -->
<g id="edge2" class="edge">
<title>Node3&#45;&gt;Node2</title>
<path fill="none" stroke="midnightblue" d="M273,-531.27C273,-522.48 273,-513.28 273,-504.65"/>
<polygon fill="none" stroke="midnightblue" points="269.5,-531.36 273,-541.36 276.5,-531.36 269.5,-531.36"/>
</g>
<!-- Node6 -->
<g id="node6" class="node">
<title>Node6</title>
<g id="a_node6"><a xlink:href="class_private_decorator.html" target="_top" xlink:title=" ">
<polygon fill="none" stroke="black" points="0,-0.5 0,-112.5 126,-112.5 126,-0.5 0,-0.5"/>
<text text-anchor="middle" x="63" y="-100.5" font-family="Helvetica,sans-Serif" font-size="10.00">PrivateDecorator</text>
<polyline fill="none" stroke="black" points="0,-93.5 126,-93.5 "/>
<text text-anchor="middle" x="63" y="-81.5" font-family="Helvetica,sans-Serif" font-size="10.00"> </text>
<polyline fill="none" stroke="black" points="0,-74.5 126,-74.5 "/>
<text text-anchor="start" x="8" y="-62.5" font-family="Helvetica,sans-Serif" font-size="10.00">+ PrivateDecorator()</text>
<text text-anchor="start" x="8" y="-51.5" font-family="Helvetica,sans-Serif" font-size="10.00">+ ~PrivateDecorator()</text>
<text text-anchor="start" x="8" y="-40.5" font-family="Helvetica,sans-Serif" font-size="10.00">+ getQuery()</text>
<text text-anchor="start" x="8" y="-29.5" font-family="Helvetica,sans-Serif" font-size="10.00">+ handle()</text>
<text text-anchor="start" x="8" y="-18.5" font-family="Helvetica,sans-Serif" font-size="10.00">+ handle()</text>
<text text-anchor="start" x="8" y="-7.5" font-family="Helvetica,sans-Serif" font-size="10.00">+ getAddressee()</text>
</a>
</g>
</g>
<!-- Node5&#45;&gt;Node6 -->
<g id="edge5" class="edge">
<title>Node5&#45;&gt;Node6</title>
<path fill="none" stroke="midnightblue" d="M265.29,-149.15C265.2,-149.1 265.1,-149.05 265,-149 211.3,-122.34 188.63,-139.8 135,-113 132.04,-111.52 129.07,-109.91 126.13,-108.2"/>
<polygon fill="none" stroke="midnightblue" points="263.9,-152.37 274.37,-154.02 267.21,-146.2 263.9,-152.37"/>
</g>
<!-- Node7 -->
<g id="node7" class="node">
<title>Node7</title>
<g id="a_node7"><a xlink:href="class_room_decorator.html" target="_top" xlink:title=" ">
<polygon fill="none" stroke="black" points="144,-6 144,-107 264,-107 264,-6 144,-6"/>
<text text-anchor="middle" x="204" y="-95" font-family="Helvetica,sans-Serif" font-size="10.00">RoomDecorator</text>
<polyline fill="none" stroke="black" points="144,-88 264,-88 "/>
<text text-anchor="middle" x="204" y="-76" font-family="Helvetica,sans-Serif" font-size="10.00"> </text>
<polyline fill="none" stroke="black" points="144,-69 264,-69 "/>
<text text-anchor="start" x="152" y="-57" font-family="Helvetica,sans-Serif" font-size="10.00">+ RoomDecorator()</text>
<text text-anchor="start" x="152" y="-46" font-family="Helvetica,sans-Serif" font-size="10.00">+ ~RoomDecorator()</text>
<text text-anchor="start" x="152" y="-35" font-family="Helvetica,sans-Serif" font-size="10.00">+ getRoom()</text>
<text text-anchor="start" x="152" y="-24" font-family="Helvetica,sans-Serif" font-size="10.00">+ getQuery()</text>
<text text-anchor="start" x="152" y="-13" font-family="Helvetica,sans-Serif" font-size="10.00">+ handle()</text>
</a>
</g>
</g>
<!-- Node5&#45;&gt;Node7 -->
<g id="edge6" class="edge">
<title>Node5&#45;&gt;Node7</title>
<path fill="none" stroke="midnightblue" d="M281.86,-141.71C271.13,-130.1 260.16,-118.24 249.98,-107.23"/>
<polygon fill="none" stroke="midnightblue" points="279.51,-144.32 288.87,-149.29 284.65,-139.57 279.51,-144.32"/>
</g>
<!-- Node8 -->
<g id="node8" class="node">
<title>Node8</title>
<g id="a_node8"><a xlink:href="class_sender_decorator.html" target="_top" xlink:title=" ">
<polygon fill="none" stroke="black" points="282.5,-6 282.5,-107 407.5,-107 407.5,-6 282.5,-6"/>
<text text-anchor="middle" x="345" y="-95" font-family="Helvetica,sans-Serif" font-size="10.00">SenderDecorator</text>
<polyline fill="none" stroke="black" points="282.5,-88 407.5,-88 "/>
<text text-anchor="middle" x="345" y="-76" font-family="Helvetica,sans-Serif" font-size="10.00"> </text>
<polyline fill="none" stroke="black" points="282.5,-69 407.5,-69 "/>
<text text-anchor="start" x="290.5" y="-57" font-family="Helvetica,sans-Serif" font-size="10.00">+ SenderDecorator()</text>
<text text-anchor="start" x="290.5" y="-46" font-family="Helvetica,sans-Serif" font-size="10.00">+ ~SenderDecorator()</text>
<text text-anchor="start" x="290.5" y="-35" font-family="Helvetica,sans-Serif" font-size="10.00">+ getQuery()</text>
<text text-anchor="start" x="290.5" y="-24" font-family="Helvetica,sans-Serif" font-size="10.00">+ handle()</text>
<text text-anchor="start" x="290.5" y="-13" font-family="Helvetica,sans-Serif" font-size="10.00">+ getSender()</text>
</a>
</g>
</g>
<!-- Node5&#45;&gt;Node8 -->
<g id="edge7" class="edge">
<title>Node5&#45;&gt;Node8</title>
<path fill="none" stroke="midnightblue" d="M345,-139.05C345,-128.3 345,-117.4 345,-107.23"/>
<polygon fill="none" stroke="midnightblue" points="341.5,-139.29 345,-149.29 348.5,-139.29 341.5,-139.29"/>
</g>
<!-- Node9 -->
<g id="node9" class="node">
<title>Node9</title>
<g id="a_node9"><a xlink:href="class_text_decorator.html" target="_top" xlink:title=" ">
<polygon fill="none" stroke="black" points="426,-6 426,-107 538,-107 538,-6 426,-6"/>
<text text-anchor="middle" x="482" y="-95" font-family="Helvetica,sans-Serif" font-size="10.00">TextDecorator</text>
<polyline fill="none" stroke="black" points="426,-88 538,-88 "/>
<text text-anchor="middle" x="482" y="-76" font-family="Helvetica,sans-Serif" font-size="10.00"> </text>
<polyline fill="none" stroke="black" points="426,-69 538,-69 "/>
<text text-anchor="start" x="434" y="-57" font-family="Helvetica,sans-Serif" font-size="10.00">+ TextDecorator()</text>
<text text-anchor="start" x="434" y="-46" font-family="Helvetica,sans-Serif" font-size="10.00">+ ~TextDecorator()</text>
<text text-anchor="start" x="434" y="-35" font-family="Helvetica,sans-Serif" font-size="10.00">+ getQuery()</text>
<text text-anchor="start" x="434" y="-24" font-family="Helvetica,sans-Serif" font-size="10.00">+ handle()</text>
<text text-anchor="start" x="434" y="-13" font-family="Helvetica,sans-Serif" font-size="10.00">+ getText()</text>
</a>
</g>
</g>
<!-- Node5&#45;&gt;Node9 -->
<g id="edge8" class="edge">
<title>Node5&#45;&gt;Node9</title>
<path fill="none" stroke="midnightblue" d="M406.35,-141.71C416.78,-130.1 427.43,-118.24 437.32,-107.23"/>
<polygon fill="none" stroke="midnightblue" points="403.62,-139.51 399.54,-149.29 408.83,-144.19 403.62,-139.51"/>
</g>
<!-- Node10 -->
<g id="node10" class="node">
<title>Node10</title>
<g id="a_node10"><a xlink:href="class_time_decorator.html" target="_top" xlink:title=" ">
<polygon fill="none" stroke="black" points="556,-0.5 556,-112.5 672,-112.5 672,-0.5 556,-0.5"/>
<text text-anchor="middle" x="614" y="-100.5" font-family="Helvetica,sans-Serif" font-size="10.00">TimeDecorator</text>
<polyline fill="none" stroke="black" points="556,-93.5 672,-93.5 "/>
<text text-anchor="middle" x="614" y="-81.5" font-family="Helvetica,sans-Serif" font-size="10.00"> </text>
<polyline fill="none" stroke="black" points="556,-74.5 672,-74.5 "/>
<text text-anchor="start" x="564" y="-62.5" font-family="Helvetica,sans-Serif" font-size="10.00">+ TimeDecorator()</text>
<text text-anchor="start" x="564" y="-51.5" font-family="Helvetica,sans-Serif" font-size="10.00">+ TimeDecorator()</text>
<text text-anchor="start" x="564" y="-40.5" font-family="Helvetica,sans-Serif" font-size="10.00">+ ~TimeDecorator()</text>
<text text-anchor="start" x="564" y="-29.5" font-family="Helvetica,sans-Serif" font-size="10.00">+ getQuery()</text>
<text text-anchor="start" x="564" y="-18.5" font-family="Helvetica,sans-Serif" font-size="10.00">+ handle()</text>
<text text-anchor="start" x="564" y="-7.5" font-family="Helvetica,sans-Serif" font-size="10.00">+ getTimestamp()</text>
</a>
</g>
</g>
<!-- Node5&#45;&gt;Node10 -->
<g id="edge9" class="edge">
<title>Node5&#45;&gt;Node10</title>
<path fill="none" stroke="midnightblue" d="M425.46,-176.81C463.48,-159.78 508.8,-137.47 547,-113 549.93,-111.13 552.87,-109.14 555.8,-107.08"/>
<polygon fill="none" stroke="midnightblue" points="423.68,-173.77 415.96,-181.03 426.52,-180.17 423.68,-173.77"/>
</g>
</g>
</svg>
