<?xml version="1.0" encoding="UTF-8" standalone="no"?>
<!DOCTYPE svg PUBLIC "-//W3C//DTD SVG 1.1//EN"
 "http://www.w3.org/Graphics/SVG/1.1/DTD/svg11.dtd">
<!-- Generated by graphviz version 2.43.0 (0)
 -->
<!-- Title: /home/alexander/Documents/Seminars/TP/Project/src/general/request_handlers/client_handler.cpp Pages: 1 -->
<svg width="922pt" height="755pt"
 viewBox="0.00 0.00 922.00 755.00" xmlns="http://www.w3.org/2000/svg" xmlns:xlink="http://www.w3.org/1999/xlink">
<g id="graph0" class="graph" transform="scale(1 1) rotate(0) translate(4 751)">
<title>/home/alexander/Documents/Seminars/TP/Project/src/general/request_handlers/client_handler.cpp</title>
<!-- Node1 -->
<g id="node1" class="node">
<title>Node1</title>
<g id="a_node1"><a xlink:title=" ">
<polygon fill="#bfbfbf" stroke="black" points="27,-694.5 27,-746.5 185,-746.5 185,-694.5 27,-694.5"/>
<text text-anchor="start" x="35" y="-734.5" font-family="Helvetica,sans-Serif" font-size="10.00">/home/alexander/Documents</text>
<text text-anchor="start" x="35" y="-723.5" font-family="Helvetica,sans-Serif" font-size="10.00">/Seminars/TP/Project/src</text>
<text text-anchor="start" x="35" y="-712.5" font-family="Helvetica,sans-Serif" font-size="10.00">/general/request_handlers</text>
<text text-anchor="middle" x="106" y="-701.5" font-family="Helvetica,sans-Serif" font-size="10.00">/client_handler.cpp</text>
</a>
</g>
</g>
<!-- Node2 -->
<g id="node2" class="node">
<title>Node2</title>
<g id="a_node2"><a xlink:href="client__handler_8hpp.html" target="_top" xlink:title=" ">
<polygon fill="none" stroke="black" points="0,-230 0,-249 106,-249 106,-230 0,-230"/>
<text text-anchor="middle" x="53" y="-237" font-family="Helvetica,sans-Serif" font-size="10.00">client_handler.hpp</text>
</a>
</g>
</g>
<!-- Node1&#45;&gt;Node2 -->
<g id="edge1" class="edge">
<title>Node1&#45;&gt;Node2</title>
<path fill="none" stroke="midnightblue" d="M89.23,-694.4C73.7,-668.7 53,-627.01 53,-587.5 53,-587.5 53,-587.5 53,-356 53,-321.86 53,-282.05 53,-259.21"/>
<polygon fill="midnightblue" stroke="midnightblue" points="56.5,-259.19 53,-249.19 49.5,-259.19 56.5,-259.19"/>
</g>
<!-- Node15 -->
<g id="node15" class="node">
<title>Node15</title>
<g id="a_node15"><a xlink:href="request__creator_8hpp.html" target="_top" xlink:title=" ">
<polygon fill="none" stroke="black" points="145,-638.5 145,-657.5 303,-657.5 303,-638.5 145,-638.5"/>
<text text-anchor="middle" x="224" y="-645.5" font-family="Helvetica,sans-Serif" font-size="10.00">requests/request_creator.hpp</text>
</a>
</g>
</g>
<!-- Node1&#45;&gt;Node15 -->
<g id="edge19" class="edge">
<title>Node1&#45;&gt;Node15</title>
<path fill="none" stroke="midnightblue" d="M147.93,-694.45C165.82,-683.76 185.99,-671.71 201.07,-662.7"/>
<polygon fill="midnightblue" stroke="midnightblue" points="202.94,-665.66 209.73,-657.53 199.35,-659.65 202.94,-665.66"/>
</g>
<!-- Node3 -->
<g id="node3" class="node">
<title>Node3</title>
<g id="a_node3"><a xlink:href="abstract__handler_8hpp.html" target="_top" xlink:title=" ">
<polygon fill="none" stroke="black" points="162.5,-168.5 162.5,-187.5 281.5,-187.5 281.5,-168.5 162.5,-168.5"/>
<text text-anchor="middle" x="222" y="-175.5" font-family="Helvetica,sans-Serif" font-size="10.00">abstract_handler.hpp</text>
</a>
</g>
</g>
<!-- Node2&#45;&gt;Node3 -->
<g id="edge2" class="edge">
<title>Node2&#45;&gt;Node3</title>
<path fill="none" stroke="midnightblue" d="M77.21,-229.98C106.33,-219.72 155.37,-202.46 188.2,-190.9"/>
<polygon fill="midnightblue" stroke="midnightblue" points="189.56,-194.13 197.83,-187.51 187.24,-187.53 189.56,-194.13"/>
</g>
<!-- Node14 -->
<g id="node14" class="node">
<title>Node14</title>
<g id="a_node14"><a xlink:href="renderer_8hpp.html" target="_top" xlink:title=" ">
<polygon fill="none" stroke="black" points="25,-112.5 25,-131.5 103,-131.5 103,-112.5 25,-112.5"/>
<text text-anchor="middle" x="64" y="-119.5" font-family="Helvetica,sans-Serif" font-size="10.00">renderer.hpp</text>
</a>
</g>
</g>
<!-- Node2&#45;&gt;Node14 -->
<g id="edge17" class="edge">
<title>Node2&#45;&gt;Node14</title>
<path fill="none" stroke="midnightblue" d="M53.83,-229.82C55.59,-211.26 59.78,-167.34 62.19,-141.97"/>
<polygon fill="midnightblue" stroke="midnightblue" points="65.7,-142.07 63.16,-131.78 58.73,-141.41 65.7,-142.07"/>
</g>
<!-- Node4 -->
<g id="node4" class="node">
<title>Node4</title>
<g id="a_node4"><a xlink:title=" ">
<polygon fill="none" stroke="#bfbfbf" points="162,-0.5 162,-19.5 220,-19.5 220,-0.5 162,-0.5"/>
<text text-anchor="middle" x="191" y="-7.5" font-family="Helvetica,sans-Serif" font-size="10.00">memory</text>
</a>
</g>
</g>
<!-- Node3&#45;&gt;Node4 -->
<g id="edge3" class="edge">
<title>Node3&#45;&gt;Node4</title>
<path fill="none" stroke="midnightblue" d="M220.33,-168.08C215.45,-141.95 201.12,-65.21 194.47,-29.58"/>
<polygon fill="midnightblue" stroke="midnightblue" points="197.88,-28.76 192.6,-19.57 191,-30.04 197.88,-28.76"/>
</g>
<!-- Node5 -->
<g id="node5" class="node">
<title>Node5</title>
<g id="a_node5"><a xlink:href="account_8hpp.html" target="_top" xlink:title=" ">
<polygon fill="none" stroke="black" points="228,-112.5 228,-131.5 304,-131.5 304,-112.5 228,-112.5"/>
<text text-anchor="middle" x="266" y="-119.5" font-family="Helvetica,sans-Serif" font-size="10.00">account.hpp</text>
</a>
</g>
</g>
<!-- Node3&#45;&gt;Node5 -->
<g id="edge4" class="edge">
<title>Node3&#45;&gt;Node5</title>
<path fill="none" stroke="midnightblue" d="M229.27,-168.08C235.54,-160.38 244.79,-149.03 252.43,-139.65"/>
<polygon fill="midnightblue" stroke="midnightblue" points="255.27,-141.71 258.87,-131.75 249.84,-137.29 255.27,-141.71"/>
</g>
<!-- Node9 -->
<g id="node9" class="node">
<title>Node9</title>
<g id="a_node9"><a xlink:href="socket_8hpp.html" target="_top" xlink:title=" ">
<polygon fill="none" stroke="black" points="451,-112.5 451,-131.5 555,-131.5 555,-112.5 451,-112.5"/>
<text text-anchor="middle" x="503" y="-119.5" font-family="Helvetica,sans-Serif" font-size="10.00">socket/socket.hpp</text>
</a>
</g>
</g>
<!-- Node3&#45;&gt;Node9 -->
<g id="edge9" class="edge">
<title>Node3&#45;&gt;Node9</title>
<path fill="none" stroke="midnightblue" d="M266.53,-168.44C315.96,-158.94 395.75,-143.61 448.78,-133.42"/>
<polygon fill="midnightblue" stroke="midnightblue" points="449.52,-136.84 458.68,-131.52 448.2,-129.97 449.52,-136.84"/>
</g>
<!-- Node5&#45;&gt;Node4 -->
<g id="edge5" class="edge">
<title>Node5&#45;&gt;Node4</title>
<path fill="none" stroke="midnightblue" d="M258.2,-112.36C250.39,-103.54 238.25,-89.28 229,-76 218.28,-60.62 207.64,-42.07 200.36,-28.73"/>
<polygon fill="midnightblue" stroke="midnightblue" points="203.32,-26.83 195.5,-19.68 197.15,-30.15 203.32,-26.83"/>
</g>
<!-- Node6 -->
<g id="node6" class="node">
<title>Node6</title>
<g id="a_node6"><a xlink:title=" ">
<polygon fill="none" stroke="#bfbfbf" points="312,-56.5 312,-75.5 344,-75.5 344,-56.5 312,-56.5"/>
<text text-anchor="middle" x="328" y="-63.5" font-family="Helvetica,sans-Serif" font-size="10.00">set</text>
</a>
</g>
</g>
<!-- Node5&#45;&gt;Node6 -->
<g id="edge6" class="edge">
<title>Node5&#45;&gt;Node6</title>
<path fill="none" stroke="midnightblue" d="M275.96,-112.32C285.13,-104.34 298.94,-92.31 310.03,-82.65"/>
<polygon fill="midnightblue" stroke="midnightblue" points="312.62,-85.04 317.86,-75.83 308.02,-79.76 312.62,-85.04"/>
</g>
<!-- Node7 -->
<g id="node7" class="node">
<title>Node7</title>
<g id="a_node7"><a xlink:title=" ">
<polygon fill="none" stroke="#bfbfbf" points="238,-56.5 238,-75.5 294,-75.5 294,-56.5 238,-56.5"/>
<text text-anchor="middle" x="266" y="-63.5" font-family="Helvetica,sans-Serif" font-size="10.00">sstream</text>
</a>
</g>
</g>
<!-- Node5&#45;&gt;Node7 -->
<g id="edge7" class="edge">
<title>Node5&#45;&gt;Node7</title>
<path fill="none" stroke="midnightblue" d="M266,-112.08C266,-105.01 266,-94.86 266,-85.99"/>
<polygon fill="midnightblue" stroke="midnightblue" points="269.5,-85.75 266,-75.75 262.5,-85.75 269.5,-85.75"/>
</g>
<!-- Node8 -->
<g id="node8" class="node">
<title>Node8</title>
<g id="a_node8"><a xlink:title=" ">
<polygon fill="none" stroke="#bfbfbf" points="362,-56.5 362,-75.5 406,-75.5 406,-56.5 362,-56.5"/>
<text text-anchor="middle" x="384" y="-63.5" font-family="Helvetica,sans-Serif" font-size="10.00">string</text>
</a>
</g>
</g>
<!-- Node5&#45;&gt;Node8 -->
<g id="edge8" class="edge">
<title>Node5&#45;&gt;Node8</title>
<path fill="none" stroke="midnightblue" d="M284.7,-112.44C303.94,-103.64 334.15,-89.81 356.2,-79.72"/>
<polygon fill="midnightblue" stroke="midnightblue" points="357.75,-82.86 365.39,-75.52 354.84,-76.5 357.75,-82.86"/>
</g>
<!-- Node9&#45;&gt;Node4 -->
<g id="edge12" class="edge">
<title>Node9&#45;&gt;Node4</title>
<path fill="none" stroke="midnightblue" d="M494.1,-112.29C479.12,-98.14 447.3,-70.32 415,-56 353.94,-28.93 276.29,-18.01 230.3,-13.69"/>
<polygon fill="midnightblue" stroke="midnightblue" points="230.42,-10.19 220.15,-12.8 229.8,-17.16 230.42,-10.19"/>
</g>
<!-- Node9&#45;&gt;Node8 -->
<g id="edge13" class="edge">
<title>Node9&#45;&gt;Node8</title>
<path fill="none" stroke="midnightblue" d="M484.14,-112.44C464.73,-103.64 434.27,-89.81 412.04,-79.72"/>
<polygon fill="midnightblue" stroke="midnightblue" points="413.32,-76.46 402.77,-75.52 410.43,-82.84 413.32,-76.46"/>
</g>
<!-- Node10 -->
<g id="node10" class="node">
<title>Node10</title>
<g id="a_node10"><a xlink:title=" ">
<polygon fill="none" stroke="#bfbfbf" points="462,-56.5 462,-75.5 550,-75.5 550,-56.5 462,-56.5"/>
<text text-anchor="middle" x="506" y="-63.5" font-family="Helvetica,sans-Serif" font-size="10.00">boost/asio.hpp</text>
</a>
</g>
</g>
<!-- Node9&#45;&gt;Node10 -->
<g id="edge10" class="edge">
<title>Node9&#45;&gt;Node10</title>
<path fill="none" stroke="midnightblue" d="M503.5,-112.08C503.89,-105.01 504.45,-94.86 504.95,-85.99"/>
<polygon fill="midnightblue" stroke="midnightblue" points="508.45,-85.93 505.51,-75.75 501.46,-85.54 508.45,-85.93"/>
</g>
<!-- Node11 -->
<g id="node11" class="node">
<title>Node11</title>
<g id="a_node11"><a xlink:title=" ">
<polygon fill="none" stroke="#bfbfbf" points="568.5,-56.5 568.5,-75.5 633.5,-75.5 633.5,-56.5 568.5,-56.5"/>
<text text-anchor="middle" x="601" y="-63.5" font-family="Helvetica,sans-Serif" font-size="10.00">functional</text>
</a>
</g>
</g>
<!-- Node9&#45;&gt;Node11 -->
<g id="edge11" class="edge">
<title>Node9&#45;&gt;Node11</title>
<path fill="none" stroke="midnightblue" d="M518.75,-112.32C534.32,-103.74 558.38,-90.49 576.46,-80.52"/>
<polygon fill="midnightblue" stroke="midnightblue" points="578.22,-83.55 585.29,-75.65 574.85,-77.42 578.22,-83.55"/>
</g>
<!-- Node12 -->
<g id="node12" class="node">
<title>Node12</title>
<g id="a_node12"><a xlink:href="general_2socket_2log_8hpp.html" target="_top" xlink:title=" ">
<polygon fill="none" stroke="black" points="651.5,-56.5 651.5,-75.5 704.5,-75.5 704.5,-56.5 651.5,-56.5"/>
<text text-anchor="middle" x="678" y="-63.5" font-family="Helvetica,sans-Serif" font-size="10.00">log.hpp</text>
</a>
</g>
</g>
<!-- Node9&#45;&gt;Node12 -->
<g id="edge14" class="edge">
<title>Node9&#45;&gt;Node12</title>
<path fill="none" stroke="midnightblue" d="M530.73,-112.44C560.69,-103.2 608.55,-88.43 641.54,-78.25"/>
<polygon fill="midnightblue" stroke="midnightblue" points="642.74,-81.54 651.26,-75.25 640.67,-74.85 642.74,-81.54"/>
</g>
<!-- Node12&#45;&gt;Node4 -->
<g id="edge15" class="edge">
<title>Node12&#45;&gt;Node4</title>
<path fill="none" stroke="midnightblue" d="M651.34,-57.7C648.54,-57.06 645.72,-56.48 643,-56 491.9,-29.21 309.34,-17.15 230.46,-12.9"/>
<polygon fill="midnightblue" stroke="midnightblue" points="230.2,-9.38 220.03,-12.35 229.83,-16.37 230.2,-9.38"/>
</g>
<!-- Node13 -->
<g id="node13" class="node">
<title>Node13</title>
<g id="a_node13"><a xlink:title=" ">
<polygon fill="none" stroke="#bfbfbf" points="649.5,-0.5 649.5,-19.5 706.5,-19.5 706.5,-0.5 649.5,-0.5"/>
<text text-anchor="middle" x="678" y="-7.5" font-family="Helvetica,sans-Serif" font-size="10.00">ostream</text>
</a>
</g>
</g>
<!-- Node12&#45;&gt;Node13 -->
<g id="edge16" class="edge">
<title>Node12&#45;&gt;Node13</title>
<path fill="none" stroke="midnightblue" d="M678,-56.08C678,-49.01 678,-38.86 678,-29.99"/>
<polygon fill="midnightblue" stroke="midnightblue" points="681.5,-29.75 678,-19.75 674.5,-29.75 681.5,-29.75"/>
</g>
<!-- Node14&#45;&gt;Node4 -->
<g id="edge18" class="edge">
<title>Node14&#45;&gt;Node4</title>
<path fill="none" stroke="midnightblue" d="M70.19,-112.29C79.83,-99.1 99.48,-73.72 120,-56 134.04,-43.87 151.65,-32.69 165.82,-24.51"/>
<polygon fill="midnightblue" stroke="midnightblue" points="167.57,-27.54 174.56,-19.58 164.13,-21.44 167.57,-27.54"/>
</g>
<!-- Node16 -->
<g id="node16" class="node">
<title>Node16</title>
<g id="a_node16"><a xlink:href="sign__in__request_8hpp.html" target="_top" xlink:title=" ">
<polygon fill="none" stroke="black" points="83,-571.5 83,-601.5 209,-601.5 209,-571.5 83,-571.5"/>
<text text-anchor="start" x="91" y="-589.5" font-family="Helvetica,sans-Serif" font-size="10.00">requests/authorization</text>
<text text-anchor="middle" x="146" y="-578.5" font-family="Helvetica,sans-Serif" font-size="10.00">/sign_in_request.hpp</text>
</a>
</g>
</g>
<!-- Node15&#45;&gt;Node16 -->
<g id="edge20" class="edge">
<title>Node15&#45;&gt;Node16</title>
<path fill="none" stroke="midnightblue" d="M212.82,-638.48C202.36,-630.49 186.32,-618.25 172.57,-607.77"/>
<polygon fill="midnightblue" stroke="midnightblue" points="174.46,-604.81 164.38,-601.52 170.21,-610.37 174.46,-604.81"/>
</g>
<!-- Node21 -->
<g id="node21" class="node">
<title>Node21</title>
<g id="a_node21"><a xlink:href="sign__up__request_8hpp.html" target="_top" xlink:title=" ">
<polygon fill="none" stroke="black" points="227,-571.5 227,-601.5 353,-601.5 353,-571.5 227,-571.5"/>
<text text-anchor="start" x="235" y="-589.5" font-family="Helvetica,sans-Serif" font-size="10.00">requests/authorization</text>
<text text-anchor="middle" x="290" y="-578.5" font-family="Helvetica,sans-Serif" font-size="10.00">/sign_up_request.hpp</text>
</a>
</g>
</g>
<!-- Node15&#45;&gt;Node21 -->
<g id="edge29" class="edge">
<title>Node15&#45;&gt;Node21</title>
<path fill="none" stroke="midnightblue" d="M233.46,-638.48C242.14,-630.64 255.38,-618.71 266.86,-608.37"/>
<polygon fill="midnightblue" stroke="midnightblue" points="269.36,-610.82 274.45,-601.52 264.67,-605.62 269.36,-610.82"/>
</g>
<!-- Node22 -->
<g id="node22" class="node">
<title>Node22</title>
<g id="a_node22"><a xlink:href="messages__builder_8hpp.html" target="_top" xlink:title=" ">
<polygon fill="none" stroke="black" points="372,-571.5 372,-601.5 536,-601.5 536,-571.5 372,-571.5"/>
<text text-anchor="start" x="380" y="-589.5" font-family="Helvetica,sans-Serif" font-size="10.00">requests/messages/messages</text>
<text text-anchor="middle" x="454" y="-578.5" font-family="Helvetica,sans-Serif" font-size="10.00">_builder.hpp</text>
</a>
</g>
</g>
<!-- Node15&#45;&gt;Node22 -->
<g id="edge31" class="edge">
<title>Node15&#45;&gt;Node22</title>
<path fill="none" stroke="midnightblue" d="M256.95,-638.48C291.52,-629.53 346.74,-615.25 389.93,-604.07"/>
<polygon fill="midnightblue" stroke="midnightblue" points="390.99,-607.42 399.79,-601.52 389.24,-600.64 390.99,-607.42"/>
</g>
<!-- Node17 -->
<g id="node17" class="node">
<title>Node17</title>
<g id="a_node17"><a xlink:href="authorization__request_8hpp.html" target="_top" xlink:title=" ">
<polygon fill="none" stroke="black" points="81,-515.5 81,-534.5 225,-534.5 225,-515.5 81,-515.5"/>
<text text-anchor="middle" x="153" y="-522.5" font-family="Helvetica,sans-Serif" font-size="10.00">authorization_request.hpp</text>
</a>
</g>
</g>
<!-- Node16&#45;&gt;Node17 -->
<g id="edge21" class="edge">
<title>Node16&#45;&gt;Node17</title>
<path fill="none" stroke="midnightblue" d="M147.66,-571.4C148.59,-563.47 149.77,-553.46 150.78,-544.86"/>
<polygon fill="midnightblue" stroke="midnightblue" points="154.29,-545 151.98,-534.66 147.34,-544.18 154.29,-545"/>
</g>
<!-- Node18 -->
<g id="node18" class="node">
<title>Node18</title>
<g id="a_node18"><a xlink:href="request_8hpp.html" target="_top" xlink:title=" ">
<polygon fill="none" stroke="black" points="130.5,-291.5 130.5,-310.5 249.5,-310.5 249.5,-291.5 130.5,-291.5"/>
<text text-anchor="middle" x="190" y="-298.5" font-family="Helvetica,sans-Serif" font-size="10.00">requests/request.hpp</text>
</a>
</g>
</g>
<!-- Node17&#45;&gt;Node18 -->
<g id="edge22" class="edge">
<title>Node17&#45;&gt;Node18</title>
<path fill="none" stroke="midnightblue" d="M154.15,-515.47C156.86,-495.68 163.91,-445.1 171,-403 175.85,-374.19 182.27,-340.9 186.27,-320.66"/>
<polygon fill="midnightblue" stroke="midnightblue" points="189.75,-321.12 188.26,-310.63 182.88,-319.75 189.75,-321.12"/>
</g>
<!-- Node18&#45;&gt;Node2 -->
<g id="edge25" class="edge">
<title>Node18&#45;&gt;Node2</title>
<path fill="none" stroke="midnightblue" d="M170.37,-291.48C147.18,-281.4 108.38,-264.55 81.79,-253"/>
<polygon fill="midnightblue" stroke="midnightblue" points="83.16,-249.78 72.59,-249.01 80.37,-256.2 83.16,-249.78"/>
</g>
<!-- Node18&#45;&gt;Node4 -->
<g id="edge23" class="edge">
<title>Node18&#45;&gt;Node4</title>
<path fill="none" stroke="midnightblue" d="M180.72,-291.22C172.28,-282.72 160.1,-269.09 153,-255 137.34,-223.9 134,-213.82 134,-179 134,-179 134,-179 134,-121 134,-84.3 159.32,-47.66 176.21,-27.3"/>
<polygon fill="midnightblue" stroke="midnightblue" points="178.95,-29.48 182.83,-19.62 173.65,-24.9 178.95,-29.48"/>
</g>
<!-- Node18&#45;&gt;Node8 -->
<g id="edge24" class="edge">
<title>Node18&#45;&gt;Node8</title>
<path fill="none" stroke="midnightblue" d="M235.95,-291.46C287.88,-278.98 369.41,-250.11 402,-188 419.53,-154.59 404.07,-109.29 392.96,-84.69"/>
<polygon fill="midnightblue" stroke="midnightblue" points="396.04,-83.02 388.57,-75.5 389.72,-86.03 396.04,-83.02"/>
</g>
<!-- Node19 -->
<g id="node19" class="node">
<title>Node19</title>
<g id="a_node19"><a xlink:href="server__handler_8hpp.html" target="_top" xlink:title=" ">
<polygon fill="none" stroke="black" points="162,-224.5 162,-254.5 296,-254.5 296,-224.5 162,-224.5"/>
<text text-anchor="start" x="170" y="-242.5" font-family="Helvetica,sans-Serif" font-size="10.00">request_handlers/server</text>
<text text-anchor="middle" x="229" y="-231.5" font-family="Helvetica,sans-Serif" font-size="10.00">_handler.hpp</text>
</a>
</g>
</g>
<!-- Node18&#45;&gt;Node19 -->
<g id="edge26" class="edge">
<title>Node18&#45;&gt;Node19</title>
<path fill="none" stroke="midnightblue" d="M195.59,-291.48C200.43,-284.09 207.65,-273.08 214.14,-263.17"/>
<polygon fill="midnightblue" stroke="midnightblue" points="217.25,-264.81 219.81,-254.52 211.4,-260.97 217.25,-264.81"/>
</g>
<!-- Node19&#45;&gt;Node3 -->
<g id="edge28" class="edge">
<title>Node19&#45;&gt;Node3</title>
<path fill="none" stroke="midnightblue" d="M227.34,-224.4C226.41,-216.47 225.23,-206.46 224.22,-197.86"/>
<polygon fill="midnightblue" stroke="midnightblue" points="227.66,-197.18 223.02,-187.66 220.71,-198 227.66,-197.18"/>
</g>
<!-- Node20 -->
<g id="node20" class="node">
<title>Node20</title>
<g id="a_node20"><a xlink:title=" ">
<polygon fill="none" stroke="#bfbfbf" points="299.5,-168.5 299.5,-187.5 392.5,-187.5 392.5,-168.5 299.5,-168.5"/>
<text text-anchor="middle" x="346" y="-175.5" font-family="Helvetica,sans-Serif" font-size="10.00">unordered_map</text>
</a>
</g>
</g>
<!-- Node19&#45;&gt;Node20 -->
<g id="edge27" class="edge">
<title>Node19&#45;&gt;Node20</title>
<path fill="none" stroke="midnightblue" d="M256.73,-224.4C275.83,-214.68 301.06,-201.86 319.82,-192.31"/>
<polygon fill="midnightblue" stroke="midnightblue" points="321.65,-195.31 328.98,-187.66 318.48,-189.07 321.65,-195.31"/>
</g>
<!-- Node21&#45;&gt;Node17 -->
<g id="edge30" class="edge">
<title>Node21&#45;&gt;Node17</title>
<path fill="none" stroke="midnightblue" d="M257.53,-571.4C234.65,-561.46 204.27,-548.26 182.16,-538.66"/>
<polygon fill="midnightblue" stroke="midnightblue" points="183.5,-535.43 172.93,-534.66 180.71,-541.85 183.5,-535.43"/>
</g>
<!-- Node23 -->
<g id="node23" class="node">
<title>Node23</title>
<g id="a_node23"><a xlink:href="all__messages_8hpp.html" target="_top" xlink:title=" ">
<polygon fill="none" stroke="black" points="402,-515.5 402,-534.5 506,-534.5 506,-515.5 402,-515.5"/>
<text text-anchor="middle" x="454" y="-522.5" font-family="Helvetica,sans-Serif" font-size="10.00">all_messages.hpp</text>
</a>
</g>
</g>
<!-- Node22&#45;&gt;Node23 -->
<g id="edge32" class="edge">
<title>Node22&#45;&gt;Node23</title>
<path fill="none" stroke="midnightblue" d="M454,-571.4C454,-563.47 454,-553.46 454,-544.86"/>
<polygon fill="midnightblue" stroke="midnightblue" points="457.5,-544.66 454,-534.66 450.5,-544.66 457.5,-544.66"/>
</g>
<!-- Node24 -->
<g id="node24" class="node">
<title>Node24</title>
<g id="a_node24"><a xlink:href="base__message_8hpp.html" target="_top" xlink:title=" ">
<polygon fill="none" stroke="black" points="180,-403.5 180,-422.5 290,-422.5 290,-403.5 180,-403.5"/>
<text text-anchor="middle" x="235" y="-410.5" font-family="Helvetica,sans-Serif" font-size="10.00">base_message.hpp</text>
</a>
</g>
</g>
<!-- Node23&#45;&gt;Node24 -->
<g id="edge33" class="edge">
<title>Node23&#45;&gt;Node24</title>
<path fill="none" stroke="midnightblue" d="M401.72,-518.14C350.14,-511.34 276.04,-498.5 255,-479 242.29,-467.22 237.58,-447.58 235.87,-432.97"/>
<polygon fill="midnightblue" stroke="midnightblue" points="239.33,-432.27 235.06,-422.57 232.35,-432.82 239.33,-432.27"/>
</g>
<!-- Node26 -->
<g id="node26" class="node">
<title>Node26</title>
<g id="a_node26"><a xlink:href="private__decorator_8hpp.html" target="_top" xlink:title=" ">
<polygon fill="none" stroke="black" points="392.5,-459.5 392.5,-478.5 515.5,-478.5 515.5,-459.5 392.5,-459.5"/>
<text text-anchor="middle" x="454" y="-466.5" font-family="Helvetica,sans-Serif" font-size="10.00">private_decorator.hpp</text>
</a>
</g>
</g>
<!-- Node23&#45;&gt;Node26 -->
<g id="edge36" class="edge">
<title>Node23&#45;&gt;Node26</title>
<path fill="none" stroke="midnightblue" d="M454,-515.08C454,-508.01 454,-497.86 454,-488.99"/>
<polygon fill="midnightblue" stroke="midnightblue" points="457.5,-488.75 454,-478.75 450.5,-488.75 457.5,-488.75"/>
</g>
<!-- Node28 -->
<g id="node28" class="node">
<title>Node28</title>
<g id="a_node28"><a xlink:href="room__decorator_8hpp.html" target="_top" xlink:title=" ">
<polygon fill="none" stroke="black" points="534,-459.5 534,-478.5 648,-478.5 648,-459.5 534,-459.5"/>
<text text-anchor="middle" x="591" y="-466.5" font-family="Helvetica,sans-Serif" font-size="10.00">room_decorator.hpp</text>
</a>
</g>
</g>
<!-- Node23&#45;&gt;Node28 -->
<g id="edge39" class="edge">
<title>Node23&#45;&gt;Node28</title>
<path fill="none" stroke="midnightblue" d="M475.71,-515.44C498.35,-506.52 534.07,-492.44 559.75,-482.32"/>
<polygon fill="midnightblue" stroke="midnightblue" points="561.37,-485.44 569.39,-478.52 558.81,-478.93 561.37,-485.44"/>
</g>
<!-- Node29 -->
<g id="node29" class="node">
<title>Node29</title>
<g id="a_node29"><a xlink:href="sender__decorator_8hpp.html" target="_top" xlink:title=" ">
<polygon fill="none" stroke="black" points="666,-459.5 666,-478.5 788,-478.5 788,-459.5 666,-459.5"/>
<text text-anchor="middle" x="727" y="-466.5" font-family="Helvetica,sans-Serif" font-size="10.00">sender_decorator.hpp</text>
</a>
</g>
</g>
<!-- Node23&#45;&gt;Node29 -->
<g id="edge41" class="edge">
<title>Node23&#45;&gt;Node29</title>
<path fill="none" stroke="midnightblue" d="M497.26,-515.44C545.18,-505.96 622.48,-490.67 674,-480.48"/>
<polygon fill="midnightblue" stroke="midnightblue" points="674.81,-483.89 683.94,-478.52 673.46,-477.02 674.81,-483.89"/>
</g>
<!-- Node30 -->
<g id="node30" class="node">
<title>Node30</title>
<g id="a_node30"><a xlink:href="text__decorator_8hpp.html" target="_top" xlink:title=" ">
<polygon fill="none" stroke="black" points="806,-459.5 806,-478.5 914,-478.5 914,-459.5 806,-459.5"/>
<text text-anchor="middle" x="860" y="-466.5" font-family="Helvetica,sans-Serif" font-size="10.00">text_decorator.hpp</text>
</a>
</g>
</g>
<!-- Node23&#45;&gt;Node30 -->
<g id="edge43" class="edge">
<title>Node23&#45;&gt;Node30</title>
<path fill="none" stroke="midnightblue" d="M506.03,-517.36C571.23,-509 686.66,-494.06 795.53,-479.19"/>
<polygon fill="midnightblue" stroke="midnightblue" points="796.28,-482.62 805.71,-477.8 795.33,-475.68 796.28,-482.62"/>
</g>
<!-- Node31 -->
<g id="node31" class="node">
<title>Node31</title>
<g id="a_node31"><a xlink:href="time__decorator_8hpp.html" target="_top" xlink:title=" ">
<polygon fill="none" stroke="black" points="263.5,-459.5 263.5,-478.5 374.5,-478.5 374.5,-459.5 263.5,-459.5"/>
<text text-anchor="middle" x="319" y="-466.5" font-family="Helvetica,sans-Serif" font-size="10.00">time_decorator.hpp</text>
</a>
</g>
</g>
<!-- Node23&#45;&gt;Node31 -->
<g id="edge45" class="edge">
<title>Node23&#45;&gt;Node31</title>
<path fill="none" stroke="midnightblue" d="M432.61,-515.44C410.29,-506.52 375.1,-492.44 349.79,-482.32"/>
<polygon fill="midnightblue" stroke="midnightblue" points="350.88,-478.98 340.29,-478.52 348.28,-485.48 350.88,-478.98"/>
</g>
<!-- Node25 -->
<g id="node25" class="node">
<title>Node25</title>
<g id="a_node25"><a xlink:href="message_8hpp.html" target="_top" xlink:title=" ">
<polygon fill="none" stroke="black" points="194,-347.5 194,-366.5 276,-366.5 276,-347.5 194,-347.5"/>
<text text-anchor="middle" x="235" y="-354.5" font-family="Helvetica,sans-Serif" font-size="10.00">message.hpp</text>
</a>
</g>
</g>
<!-- Node24&#45;&gt;Node25 -->
<g id="edge34" class="edge">
<title>Node24&#45;&gt;Node25</title>
<path fill="none" stroke="midnightblue" d="M235,-403.08C235,-396.01 235,-385.86 235,-376.99"/>
<polygon fill="midnightblue" stroke="midnightblue" points="238.5,-376.75 235,-366.75 231.5,-376.75 238.5,-376.75"/>
</g>
<!-- Node25&#45;&gt;Node18 -->
<g id="edge35" class="edge">
<title>Node25&#45;&gt;Node18</title>
<path fill="none" stroke="midnightblue" d="M227.57,-347.08C221.15,-339.38 211.69,-328.03 203.88,-318.65"/>
<polygon fill="midnightblue" stroke="midnightblue" points="206.38,-316.19 197.29,-310.75 201.01,-320.67 206.38,-316.19"/>
</g>
<!-- Node27 -->
<g id="node27" class="node">
<title>Node27</title>
<g id="a_node27"><a xlink:href="properties__decorator_8hpp.html" target="_top" xlink:title=" ">
<polygon fill="none" stroke="black" points="453,-403.5 453,-422.5 591,-422.5 591,-403.5 453,-403.5"/>
<text text-anchor="middle" x="522" y="-410.5" font-family="Helvetica,sans-Serif" font-size="10.00">properties_decorator.hpp</text>
</a>
</g>
</g>
<!-- Node26&#45;&gt;Node27 -->
<g id="edge37" class="edge">
<title>Node26&#45;&gt;Node27</title>
<path fill="none" stroke="midnightblue" d="M464.93,-459.32C475.17,-451.18 490.72,-438.84 503,-429.09"/>
<polygon fill="midnightblue" stroke="midnightblue" points="505.22,-431.79 510.88,-422.83 500.87,-426.31 505.22,-431.79"/>
</g>
<!-- Node27&#45;&gt;Node25 -->
<g id="edge38" class="edge">
<title>Node27&#45;&gt;Node25</title>
<path fill="none" stroke="midnightblue" d="M476.52,-403.44C424.7,-393.69 340.21,-377.8 286.14,-367.62"/>
<polygon fill="midnightblue" stroke="midnightblue" points="286.55,-364.14 276.08,-365.73 285.26,-371.02 286.55,-364.14"/>
</g>
<!-- Node28&#45;&gt;Node27 -->
<g id="edge40" class="edge">
<title>Node28&#45;&gt;Node27</title>
<path fill="none" stroke="midnightblue" d="M579.91,-459.32C569.51,-451.18 553.74,-438.84 541.28,-429.09"/>
<polygon fill="midnightblue" stroke="midnightblue" points="543.32,-426.24 533.29,-422.83 539.01,-431.75 543.32,-426.24"/>
</g>
<!-- Node29&#45;&gt;Node27 -->
<g id="edge42" class="edge">
<title>Node29&#45;&gt;Node27</title>
<path fill="none" stroke="midnightblue" d="M694.52,-459.44C659.28,-450.16 602.9,-435.31 564.24,-425.13"/>
<polygon fill="midnightblue" stroke="midnightblue" points="564.89,-421.68 554.33,-422.52 563.11,-428.45 564.89,-421.68"/>
</g>
<!-- Node30&#45;&gt;Node27 -->
<g id="edge44" class="edge">
<title>Node30&#45;&gt;Node27</title>
<path fill="none" stroke="midnightblue" d="M806.44,-459.44C746.37,-449.85 649.01,-434.29 585.24,-424.1"/>
<polygon fill="midnightblue" stroke="midnightblue" points="585.73,-420.64 575.31,-422.52 584.63,-427.55 585.73,-420.64"/>
</g>
<!-- Node31&#45;&gt;Node27 -->
<g id="edge46" class="edge">
<title>Node31&#45;&gt;Node27</title>
<path fill="none" stroke="midnightblue" d="M351.17,-459.44C386.06,-450.16 441.89,-435.31 480.17,-425.13"/>
<polygon fill="midnightblue" stroke="midnightblue" points="481.22,-428.47 489.98,-422.52 479.42,-421.7 481.22,-428.47"/>
</g>
<!-- Node32 -->
<g id="node32" class="node">
<title>Node32</title>
<g id="a_node32"><a xlink:title=" ">
<polygon fill="none" stroke="#bfbfbf" points="308,-403.5 308,-422.5 356,-422.5 356,-403.5 308,-403.5"/>
<text text-anchor="middle" x="332" y="-410.5" font-family="Helvetica,sans-Serif" font-size="10.00">time.h</text>
</a>
</g>
</g>
<!-- Node31&#45;&gt;Node32 -->
<g id="edge47" class="edge">
<title>Node31&#45;&gt;Node32</title>
<path fill="none" stroke="midnightblue" d="M321.15,-459.08C322.87,-451.93 325.35,-441.64 327.5,-432.69"/>
<polygon fill="midnightblue" stroke="midnightblue" points="330.96,-433.29 329.89,-422.75 324.15,-431.65 330.96,-433.29"/>
</g>
</g>
</svg>
