<?xml version="1.0" encoding="UTF-8" standalone="no"?>
<!DOCTYPE svg PUBLIC "-//W3C//DTD SVG 1.1//EN"
 "http://www.w3.org/Graphics/SVG/1.1/DTD/svg11.dtd">
<!-- Generated by graphviz version 2.43.0 (0)
 -->
<!-- Title: /home/alexander/Documents/Seminars/TP/Project/src/client_side/main.cpp Pages: 1 -->
<svg width="1059pt" height="688pt"
 viewBox="0.00 0.00 1059.00 688.00" xmlns="http://www.w3.org/2000/svg" xmlns:xlink="http://www.w3.org/1999/xlink">
<g id="graph0" class="graph" transform="scale(1 1) rotate(0) translate(4 684)">
<title>/home/alexander/Documents/Seminars/TP/Project/src/client_side/main.cpp</title>
<!-- Node1 -->
<g id="node1" class="node">
<title>Node1</title>
<g id="a_node1"><a xlink:title=" ">
<polygon fill="#bfbfbf" stroke="black" points="91.5,-638.5 91.5,-679.5 249.5,-679.5 249.5,-638.5 91.5,-638.5"/>
<text text-anchor="start" x="99.5" y="-667.5" font-family="Helvetica,sans-Serif" font-size="10.00">/home/alexander/Documents</text>
<text text-anchor="start" x="99.5" y="-656.5" font-family="Helvetica,sans-Serif" font-size="10.00">/Seminars/TP/Project/src</text>
<text text-anchor="middle" x="170.5" y="-645.5" font-family="Helvetica,sans-Serif" font-size="10.00">/client_side/main.cpp</text>
</a>
</g>
</g>
<!-- Node2 -->
<g id="node2" class="node">
<title>Node2</title>
<g id="a_node2"><a xlink:title=" ">
<polygon fill="none" stroke="#bfbfbf" points="32,-582.5 32,-601.5 79,-601.5 79,-582.5 32,-582.5"/>
<text text-anchor="middle" x="55.5" y="-589.5" font-family="Helvetica,sans-Serif" font-size="10.00">vector</text>
</a>
</g>
</g>
<!-- Node1&#45;&gt;Node2 -->
<g id="edge1" class="edge">
<title>Node1&#45;&gt;Node2</title>
<path fill="none" stroke="midnightblue" d="M136,-638.5C117.86,-628.24 96.06,-615.93 79.73,-606.69"/>
<polygon fill="midnightblue" stroke="midnightblue" points="81.24,-603.53 70.81,-601.65 77.79,-609.62 81.24,-603.53"/>
</g>
<!-- Node3 -->
<g id="node3" class="node">
<title>Node3</title>
<g id="a_node3"><a xlink:href="client__side_2console__handler_8hpp.html" target="_top" xlink:title=" ">
<polygon fill="none" stroke="black" points="1.5,-291.5 1.5,-310.5 117.5,-310.5 117.5,-291.5 1.5,-291.5"/>
<text text-anchor="middle" x="59.5" y="-298.5" font-family="Helvetica,sans-Serif" font-size="10.00">console_handler.hpp</text>
</a>
</g>
</g>
<!-- Node1&#45;&gt;Node3 -->
<g id="edge2" class="edge">
<title>Node1&#45;&gt;Node3</title>
<path fill="none" stroke="midnightblue" d="M153.62,-638.47C134.96,-614.81 107.5,-572.96 107.5,-531.5 107.5,-531.5 107.5,-531.5 107.5,-412 107.5,-376.58 86.34,-339.71 72.12,-318.92"/>
<polygon fill="midnightblue" stroke="midnightblue" points="74.82,-316.68 66.17,-310.56 69.12,-320.74 74.82,-316.68"/>
</g>
<!-- Node20 -->
<g id="node20" class="node">
<title>Node20</title>
<g id="a_node20"><a xlink:href="console__renderer_8hpp.html" target="_top" xlink:title=" ">
<polygon fill="none" stroke="black" points="173,-582.5 173,-601.5 294,-601.5 294,-582.5 173,-582.5"/>
<text text-anchor="middle" x="233.5" y="-589.5" font-family="Helvetica,sans-Serif" font-size="10.00">console_renderer.hpp</text>
</a>
</g>
</g>
<!-- Node1&#45;&gt;Node20 -->
<g id="edge25" class="edge">
<title>Node1&#45;&gt;Node20</title>
<path fill="none" stroke="midnightblue" d="M189.4,-638.5C198.5,-629.11 209.29,-617.98 217.91,-609.08"/>
<polygon fill="midnightblue" stroke="midnightblue" points="220.67,-611.27 225.11,-601.65 215.64,-606.4 220.67,-611.27"/>
</g>
<!-- Node35 -->
<g id="node35" class="node">
<title>Node35</title>
<g id="a_node35"><a xlink:href="client__side_2log_8hpp.html" target="_top" xlink:title=" ">
<polygon fill="none" stroke="black" points="941,-582.5 941,-601.5 994,-601.5 994,-582.5 941,-582.5"/>
<text text-anchor="middle" x="967.5" y="-589.5" font-family="Helvetica,sans-Serif" font-size="10.00">log.hpp</text>
</a>
</g>
</g>
<!-- Node1&#45;&gt;Node35 -->
<g id="edge53" class="edge">
<title>Node1&#45;&gt;Node35</title>
<path fill="none" stroke="midnightblue" d="M249.83,-651.53C418.77,-637.75 808.54,-605.96 930.4,-596.03"/>
<polygon fill="midnightblue" stroke="midnightblue" points="931,-599.49 940.68,-595.19 930.43,-592.51 931,-599.49"/>
</g>
<!-- Node4 -->
<g id="node4" class="node">
<title>Node4</title>
<g id="a_node4"><a xlink:title=" ">
<polygon fill="none" stroke="#bfbfbf" points="115.5,-230 115.5,-249 175.5,-249 175.5,-230 115.5,-230"/>
<text text-anchor="middle" x="145.5" y="-237" font-family="Helvetica,sans-Serif" font-size="10.00">iostream</text>
</a>
</g>
</g>
<!-- Node3&#45;&gt;Node4 -->
<g id="edge3" class="edge">
<title>Node3&#45;&gt;Node4</title>
<path fill="none" stroke="midnightblue" d="M71.82,-291.48C85.62,-281.93 108.2,-266.31 124.73,-254.87"/>
<polygon fill="midnightblue" stroke="midnightblue" points="126.97,-257.58 133.2,-249.01 122.99,-251.82 126.97,-257.58"/>
</g>
<!-- Node5 -->
<g id="node5" class="node">
<title>Node5</title>
<g id="a_node5"><a xlink:href="permissions_8hpp.html" target="_top" xlink:title=" ">
<polygon fill="none" stroke="black" points="0,-230 0,-249 97,-249 97,-230 0,-230"/>
<text text-anchor="middle" x="48.5" y="-237" font-family="Helvetica,sans-Serif" font-size="10.00">permissions.hpp</text>
</a>
</g>
</g>
<!-- Node3&#45;&gt;Node5 -->
<g id="edge4" class="edge">
<title>Node3&#45;&gt;Node5</title>
<path fill="none" stroke="midnightblue" d="M57.92,-291.48C56.37,-283.08 53.95,-269.98 51.95,-259.16"/>
<polygon fill="midnightblue" stroke="midnightblue" points="55.33,-258.21 50.07,-249.01 48.45,-259.48 55.33,-258.21"/>
</g>
<!-- Node8 -->
<g id="node8" class="node">
<title>Node8</title>
<g id="a_node8"><a xlink:href="client__handler_8hpp.html" target="_top" xlink:title=" ">
<polygon fill="none" stroke="black" points="194,-224.5 194,-254.5 325,-254.5 325,-224.5 194,-224.5"/>
<text text-anchor="start" x="202" y="-242.5" font-family="Helvetica,sans-Serif" font-size="10.00">request_handlers/client</text>
<text text-anchor="middle" x="259.5" y="-231.5" font-family="Helvetica,sans-Serif" font-size="10.00">_handler.hpp</text>
</a>
</g>
</g>
<!-- Node3&#45;&gt;Node8 -->
<g id="edge7" class="edge">
<title>Node3&#45;&gt;Node8</title>
<path fill="none" stroke="midnightblue" d="M88.16,-291.48C117.9,-282.63 165.22,-268.55 202.6,-257.43"/>
<polygon fill="midnightblue" stroke="midnightblue" points="203.78,-260.73 212.36,-254.52 201.78,-254.02 203.78,-260.73"/>
</g>
<!-- Node6 -->
<g id="node6" class="node">
<title>Node6</title>
<g id="a_node6"><a xlink:title=" ">
<polygon fill="none" stroke="#bfbfbf" points="584.5,-0.5 584.5,-19.5 642.5,-19.5 642.5,-0.5 584.5,-0.5"/>
<text text-anchor="middle" x="613.5" y="-7.5" font-family="Helvetica,sans-Serif" font-size="10.00">memory</text>
</a>
</g>
</g>
<!-- Node5&#45;&gt;Node6 -->
<g id="edge5" class="edge">
<title>Node5&#45;&gt;Node6</title>
<path fill="none" stroke="midnightblue" d="M59.68,-229.83C77.59,-216.09 113.99,-188.75 146.5,-168 232.05,-113.39 249.8,-89.8 345.5,-56 423.7,-28.38 520.86,-17.48 574.08,-13.35"/>
<polygon fill="midnightblue" stroke="midnightblue" points="574.4,-16.84 584.12,-12.61 573.89,-9.86 574.4,-16.84"/>
</g>
<!-- Node7 -->
<g id="node7" class="node">
<title>Node7</title>
<g id="a_node7"><a xlink:title=" ">
<polygon fill="none" stroke="#bfbfbf" points="156,-168.5 156,-187.5 249,-187.5 249,-168.5 156,-168.5"/>
<text text-anchor="middle" x="202.5" y="-175.5" font-family="Helvetica,sans-Serif" font-size="10.00">unordered_map</text>
</a>
</g>
</g>
<!-- Node5&#45;&gt;Node7 -->
<g id="edge6" class="edge">
<title>Node5&#45;&gt;Node7</title>
<path fill="none" stroke="midnightblue" d="M70.56,-229.98C96.87,-219.81 141.01,-202.76 170.92,-191.2"/>
<polygon fill="midnightblue" stroke="midnightblue" points="172.41,-194.38 180.48,-187.51 169.89,-187.85 172.41,-194.38"/>
</g>
<!-- Node9 -->
<g id="node9" class="node">
<title>Node9</title>
<g id="a_node9"><a xlink:href="abstract__handler_8hpp.html" target="_top" xlink:title=" ">
<polygon fill="none" stroke="black" points="512,-168.5 512,-187.5 631,-187.5 631,-168.5 512,-168.5"/>
<text text-anchor="middle" x="571.5" y="-175.5" font-family="Helvetica,sans-Serif" font-size="10.00">abstract_handler.hpp</text>
</a>
</g>
</g>
<!-- Node8&#45;&gt;Node9 -->
<g id="edge8" class="edge">
<title>Node8&#45;&gt;Node9</title>
<path fill="none" stroke="midnightblue" d="M325.35,-225.76C328.44,-225.16 331.5,-224.57 334.5,-224 396.71,-212.08 468.13,-198.54 516.17,-189.45"/>
<polygon fill="midnightblue" stroke="midnightblue" points="516.88,-192.88 526.06,-187.58 515.58,-186 516.88,-192.88"/>
</g>
<!-- Node19 -->
<g id="node19" class="node">
<title>Node19</title>
<g id="a_node19"><a xlink:href="renderer_8hpp.html" target="_top" xlink:title=" ">
<polygon fill="none" stroke="black" points="284.5,-112.5 284.5,-131.5 362.5,-131.5 362.5,-112.5 284.5,-112.5"/>
<text text-anchor="middle" x="323.5" y="-119.5" font-family="Helvetica,sans-Serif" font-size="10.00">renderer.hpp</text>
</a>
</g>
</g>
<!-- Node8&#45;&gt;Node19 -->
<g id="edge23" class="edge">
<title>Node8&#45;&gt;Node19</title>
<path fill="none" stroke="midnightblue" d="M267.35,-224.34C279.04,-203.24 301,-163.6 313.72,-140.65"/>
<polygon fill="midnightblue" stroke="midnightblue" points="316.91,-142.11 318.7,-131.67 310.79,-138.72 316.91,-142.11"/>
</g>
<!-- Node9&#45;&gt;Node6 -->
<g id="edge9" class="edge">
<title>Node9&#45;&gt;Node6</title>
<path fill="none" stroke="midnightblue" d="M591.41,-168.41C605.72,-161.04 623.96,-148.92 632.5,-132 649.44,-98.45 633.93,-53.55 622.71,-28.96"/>
<polygon fill="midnightblue" stroke="midnightblue" points="625.76,-27.25 618.26,-19.76 619.46,-30.29 625.76,-27.25"/>
</g>
<!-- Node10 -->
<g id="node10" class="node">
<title>Node10</title>
<g id="a_node10"><a xlink:href="account_8hpp.html" target="_top" xlink:title=" ">
<polygon fill="none" stroke="black" points="717.5,-112.5 717.5,-131.5 793.5,-131.5 793.5,-112.5 717.5,-112.5"/>
<text text-anchor="middle" x="755.5" y="-119.5" font-family="Helvetica,sans-Serif" font-size="10.00">account.hpp</text>
</a>
</g>
</g>
<!-- Node9&#45;&gt;Node10 -->
<g id="edge10" class="edge">
<title>Node9&#45;&gt;Node10</title>
<path fill="none" stroke="midnightblue" d="M600.66,-168.44C632.01,-159.24 682.03,-144.56 716.7,-134.39"/>
<polygon fill="midnightblue" stroke="midnightblue" points="717.87,-137.69 726.48,-131.52 715.9,-130.97 717.87,-137.69"/>
</g>
<!-- Node14 -->
<g id="node14" class="node">
<title>Node14</title>
<g id="a_node14"><a xlink:href="socket_8hpp.html" target="_top" xlink:title=" ">
<polygon fill="none" stroke="black" points="519.5,-112.5 519.5,-131.5 623.5,-131.5 623.5,-112.5 519.5,-112.5"/>
<text text-anchor="middle" x="571.5" y="-119.5" font-family="Helvetica,sans-Serif" font-size="10.00">socket/socket.hpp</text>
</a>
</g>
</g>
<!-- Node9&#45;&gt;Node14 -->
<g id="edge15" class="edge">
<title>Node9&#45;&gt;Node14</title>
<path fill="none" stroke="midnightblue" d="M571.5,-168.08C571.5,-161.01 571.5,-150.86 571.5,-141.99"/>
<polygon fill="midnightblue" stroke="midnightblue" points="575,-141.75 571.5,-131.75 568,-141.75 575,-141.75"/>
</g>
<!-- Node10&#45;&gt;Node6 -->
<g id="edge11" class="edge">
<title>Node10&#45;&gt;Node6</title>
<path fill="none" stroke="midnightblue" d="M754.72,-112.2C753.05,-98.43 747.91,-71.74 732.5,-56 711.22,-34.26 678.4,-22.89 652.61,-17.02"/>
<polygon fill="midnightblue" stroke="midnightblue" points="653.26,-13.58 642.75,-14.96 651.83,-20.43 653.26,-13.58"/>
</g>
<!-- Node11 -->
<g id="node11" class="node">
<title>Node11</title>
<g id="a_node11"><a xlink:title=" ">
<polygon fill="none" stroke="#bfbfbf" points="779.5,-56.5 779.5,-75.5 811.5,-75.5 811.5,-56.5 779.5,-56.5"/>
<text text-anchor="middle" x="795.5" y="-63.5" font-family="Helvetica,sans-Serif" font-size="10.00">set</text>
</a>
</g>
</g>
<!-- Node10&#45;&gt;Node11 -->
<g id="edge12" class="edge">
<title>Node10&#45;&gt;Node11</title>
<path fill="none" stroke="midnightblue" d="M762.11,-112.08C767.76,-104.46 776.04,-93.26 782.95,-83.94"/>
<polygon fill="midnightblue" stroke="midnightblue" points="785.88,-85.87 789.02,-75.75 780.25,-81.7 785.88,-85.87"/>
</g>
<!-- Node12 -->
<g id="node12" class="node">
<title>Node12</title>
<g id="a_node12"><a xlink:title=" ">
<polygon fill="none" stroke="#bfbfbf" points="901.5,-56.5 901.5,-75.5 957.5,-75.5 957.5,-56.5 901.5,-56.5"/>
<text text-anchor="middle" x="929.5" y="-63.5" font-family="Helvetica,sans-Serif" font-size="10.00">sstream</text>
</a>
</g>
</g>
<!-- Node10&#45;&gt;Node12 -->
<g id="edge13" class="edge">
<title>Node10&#45;&gt;Node12</title>
<path fill="none" stroke="midnightblue" d="M783.07,-112.44C812.6,-103.28 859.62,-88.69 892.38,-78.52"/>
<polygon fill="midnightblue" stroke="midnightblue" points="893.54,-81.82 902.06,-75.52 891.47,-75.14 893.54,-81.82"/>
</g>
<!-- Node13 -->
<g id="node13" class="node">
<title>Node13</title>
<g id="a_node13"><a xlink:title=" ">
<polygon fill="none" stroke="#bfbfbf" points="679.5,-56.5 679.5,-75.5 723.5,-75.5 723.5,-56.5 679.5,-56.5"/>
<text text-anchor="middle" x="701.5" y="-63.5" font-family="Helvetica,sans-Serif" font-size="10.00">string</text>
</a>
</g>
</g>
<!-- Node10&#45;&gt;Node13 -->
<g id="edge14" class="edge">
<title>Node10&#45;&gt;Node13</title>
<path fill="none" stroke="midnightblue" d="M746.58,-112.08C738.72,-104.22 727.07,-92.57 717.58,-83.08"/>
<polygon fill="midnightblue" stroke="midnightblue" points="719.8,-80.35 710.25,-75.75 714.85,-85.3 719.8,-80.35"/>
</g>
<!-- Node14&#45;&gt;Node6 -->
<g id="edge18" class="edge">
<title>Node14&#45;&gt;Node6</title>
<path fill="none" stroke="midnightblue" d="M576.59,-112.26C581.63,-103.36 589.31,-89.04 594.5,-76 600.61,-60.64 605.74,-42.54 609.12,-29.35"/>
<polygon fill="midnightblue" stroke="midnightblue" points="612.53,-30.13 611.54,-19.59 605.74,-28.45 612.53,-30.13"/>
</g>
<!-- Node14&#45;&gt;Node13 -->
<g id="edge19" class="edge">
<title>Node14&#45;&gt;Node13</title>
<path fill="none" stroke="midnightblue" d="M592.1,-112.44C613.49,-103.56 647.18,-89.56 671.52,-79.45"/>
<polygon fill="midnightblue" stroke="midnightblue" points="673.11,-82.58 681,-75.52 670.42,-76.12 673.11,-82.58"/>
</g>
<!-- Node15 -->
<g id="node15" class="node">
<title>Node15</title>
<g id="a_node15"><a xlink:title=" ">
<polygon fill="none" stroke="#bfbfbf" points="413.5,-56.5 413.5,-75.5 501.5,-75.5 501.5,-56.5 413.5,-56.5"/>
<text text-anchor="middle" x="457.5" y="-63.5" font-family="Helvetica,sans-Serif" font-size="10.00">boost/asio.hpp</text>
</a>
</g>
</g>
<!-- Node14&#45;&gt;Node15 -->
<g id="edge16" class="edge">
<title>Node14&#45;&gt;Node15</title>
<path fill="none" stroke="midnightblue" d="M553.44,-112.44C534.93,-103.68 505.92,-89.94 484.64,-79.86"/>
<polygon fill="midnightblue" stroke="midnightblue" points="486.01,-76.63 475.48,-75.52 483.02,-82.96 486.01,-76.63"/>
</g>
<!-- Node16 -->
<g id="node16" class="node">
<title>Node16</title>
<g id="a_node16"><a xlink:title=" ">
<polygon fill="none" stroke="#bfbfbf" points="520,-56.5 520,-75.5 585,-75.5 585,-56.5 520,-56.5"/>
<text text-anchor="middle" x="552.5" y="-63.5" font-family="Helvetica,sans-Serif" font-size="10.00">functional</text>
</a>
</g>
</g>
<!-- Node14&#45;&gt;Node16 -->
<g id="edge17" class="edge">
<title>Node14&#45;&gt;Node16</title>
<path fill="none" stroke="midnightblue" d="M568.36,-112.08C565.82,-104.85 562.14,-94.41 558.97,-85.4"/>
<polygon fill="midnightblue" stroke="midnightblue" points="562.2,-84.02 555.58,-75.75 555.6,-86.35 562.2,-84.02"/>
</g>
<!-- Node17 -->
<g id="node17" class="node">
<title>Node17</title>
<g id="a_node17"><a xlink:href="general_2socket_2log_8hpp.html" target="_top" xlink:title=" ">
<polygon fill="none" stroke="black" points="830,-56.5 830,-75.5 883,-75.5 883,-56.5 830,-56.5"/>
<text text-anchor="middle" x="856.5" y="-63.5" font-family="Helvetica,sans-Serif" font-size="10.00">log.hpp</text>
</a>
</g>
</g>
<!-- Node14&#45;&gt;Node17 -->
<g id="edge20" class="edge">
<title>Node14&#45;&gt;Node17</title>
<path fill="none" stroke="midnightblue" d="M623.68,-112.6C672.03,-104.59 746.15,-91.72 819.88,-76.01"/>
<polygon fill="midnightblue" stroke="midnightblue" points="820.77,-79.4 829.81,-73.88 819.3,-72.56 820.77,-79.4"/>
</g>
<!-- Node17&#45;&gt;Node6 -->
<g id="edge21" class="edge">
<title>Node17&#45;&gt;Node6</title>
<path fill="none" stroke="midnightblue" d="M829.79,-58.22C826.66,-57.46 823.51,-56.7 820.5,-56 762.23,-42.39 694.41,-27.9 652.72,-19.15"/>
<polygon fill="midnightblue" stroke="midnightblue" points="653.21,-15.68 642.7,-17.05 651.77,-22.53 653.21,-15.68"/>
</g>
<!-- Node18 -->
<g id="node18" class="node">
<title>Node18</title>
<g id="a_node18"><a xlink:title=" ">
<polygon fill="none" stroke="#bfbfbf" points="828,-0.5 828,-19.5 885,-19.5 885,-0.5 828,-0.5"/>
<text text-anchor="middle" x="856.5" y="-7.5" font-family="Helvetica,sans-Serif" font-size="10.00">ostream</text>
</a>
</g>
</g>
<!-- Node17&#45;&gt;Node18 -->
<g id="edge22" class="edge">
<title>Node17&#45;&gt;Node18</title>
<path fill="none" stroke="midnightblue" d="M856.5,-56.08C856.5,-49.01 856.5,-38.86 856.5,-29.99"/>
<polygon fill="midnightblue" stroke="midnightblue" points="860,-29.75 856.5,-19.75 853,-29.75 860,-29.75"/>
</g>
<!-- Node19&#45;&gt;Node6 -->
<g id="edge24" class="edge">
<title>Node19&#45;&gt;Node6</title>
<path fill="none" stroke="midnightblue" d="M327.34,-112.18C334.07,-97.88 349.38,-69.84 371.5,-56 404.73,-35.2 514.64,-21.1 574.25,-14.78"/>
<polygon fill="midnightblue" stroke="midnightblue" points="574.82,-18.24 584.41,-13.73 574.1,-11.28 574.82,-18.24"/>
</g>
<!-- Node20&#45;&gt;Node4 -->
<g id="edge28" class="edge">
<title>Node20&#45;&gt;Node4</title>
<path fill="none" stroke="midnightblue" d="M220.89,-582.29C196.56,-564.34 145.5,-520.65 145.5,-470 145.5,-470 145.5,-470 145.5,-356 145.5,-321.86 145.5,-282.05 145.5,-259.21"/>
<polygon fill="midnightblue" stroke="midnightblue" points="149,-259.19 145.5,-249.19 142,-259.19 149,-259.19"/>
</g>
<!-- Node20&#45;&gt;Node8 -->
<g id="edge30" class="edge">
<title>Node20&#45;&gt;Node8</title>
<path fill="none" stroke="midnightblue" d="M226.06,-582.27C219.03,-573.6 208.67,-559.66 202.5,-546 188.17,-514.27 183.5,-504.82 183.5,-470 183.5,-470 183.5,-470 183.5,-356 183.5,-317.99 212.57,-282.82 234.75,-261.51"/>
<polygon fill="midnightblue" stroke="midnightblue" points="237.29,-263.93 242.25,-254.57 232.54,-258.79 237.29,-263.93"/>
</g>
<!-- Node20&#45;&gt;Node12 -->
<g id="edge29" class="edge">
<title>Node20&#45;&gt;Node12</title>
<path fill="none" stroke="midnightblue" d="M294.05,-586.83C463.38,-574.37 929.5,-534.24 929.5,-470 929.5,-470 929.5,-470 929.5,-177 929.5,-144.95 929.5,-107.64 929.5,-85.75"/>
<polygon fill="midnightblue" stroke="midnightblue" points="933,-85.56 929.5,-75.56 926,-85.56 933,-85.56"/>
</g>
<!-- Node21 -->
<g id="node21" class="node">
<title>Node21</title>
<g id="a_node21"><a xlink:title=" ">
<polygon fill="none" stroke="#bfbfbf" points="211.5,-521 211.5,-540 255.5,-540 255.5,-521 211.5,-521"/>
<text text-anchor="middle" x="233.5" y="-528" font-family="Helvetica,sans-Serif" font-size="10.00">ctime</text>
</a>
</g>
</g>
<!-- Node20&#45;&gt;Node21 -->
<g id="edge26" class="edge">
<title>Node20&#45;&gt;Node21</title>
<path fill="none" stroke="midnightblue" d="M233.5,-582.48C233.5,-574.08 233.5,-560.98 233.5,-550.16"/>
<polygon fill="midnightblue" stroke="midnightblue" points="237,-550.01 233.5,-540.01 230,-550.01 237,-550.01"/>
</g>
<!-- Node22 -->
<g id="node22" class="node">
<title>Node22</title>
<g id="a_node22"><a xlink:title=" ">
<polygon fill="none" stroke="#bfbfbf" points="273.5,-521 273.5,-540 329.5,-540 329.5,-521 273.5,-521"/>
<text text-anchor="middle" x="301.5" y="-528" font-family="Helvetica,sans-Serif" font-size="10.00">iomanip</text>
</a>
</g>
</g>
<!-- Node20&#45;&gt;Node22 -->
<g id="edge27" class="edge">
<title>Node20&#45;&gt;Node22</title>
<path fill="none" stroke="midnightblue" d="M243.24,-582.48C253.85,-573.2 271.02,-558.17 283.98,-546.83"/>
<polygon fill="midnightblue" stroke="midnightblue" points="286.55,-549.23 291.78,-540.01 281.94,-543.96 286.55,-549.23"/>
</g>
<!-- Node23 -->
<g id="node23" class="node">
<title>Node23</title>
<g id="a_node23"><a xlink:href="all__messages_8hpp.html" target="_top" xlink:title=" ">
<polygon fill="none" stroke="black" points="483.5,-515.5 483.5,-545.5 609.5,-545.5 609.5,-515.5 483.5,-515.5"/>
<text text-anchor="start" x="491.5" y="-533.5" font-family="Helvetica,sans-Serif" font-size="10.00">requests/messages/all</text>
<text text-anchor="middle" x="546.5" y="-522.5" font-family="Helvetica,sans-Serif" font-size="10.00">_messages.hpp</text>
</a>
</g>
</g>
<!-- Node20&#45;&gt;Node23 -->
<g id="edge31" class="edge">
<title>Node20&#45;&gt;Node23</title>
<path fill="none" stroke="midnightblue" d="M278.35,-582.48C329.26,-572.8 413.09,-556.86 473.47,-545.38"/>
<polygon fill="midnightblue" stroke="midnightblue" points="474.16,-548.81 483.33,-543.51 472.85,-541.94 474.16,-548.81"/>
</g>
<!-- Node24 -->
<g id="node24" class="node">
<title>Node24</title>
<g id="a_node24"><a xlink:href="base__message_8hpp.html" target="_top" xlink:title=" ">
<polygon fill="none" stroke="black" points="791.5,-403.5 791.5,-422.5 901.5,-422.5 901.5,-403.5 791.5,-403.5"/>
<text text-anchor="middle" x="846.5" y="-410.5" font-family="Helvetica,sans-Serif" font-size="10.00">base_message.hpp</text>
</a>
</g>
</g>
<!-- Node23&#45;&gt;Node24 -->
<g id="edge32" class="edge">
<title>Node23&#45;&gt;Node24</title>
<path fill="none" stroke="midnightblue" d="M609.61,-529.07C694.68,-527 839.33,-517.7 872.5,-479 884.55,-464.94 873.05,-444.59 861.76,-430.42"/>
<polygon fill="midnightblue" stroke="midnightblue" points="864.13,-427.81 854.97,-422.5 858.82,-432.37 864.13,-427.81"/>
</g>
<!-- Node28 -->
<g id="node28" class="node">
<title>Node28</title>
<g id="a_node28"><a xlink:href="private__decorator_8hpp.html" target="_top" xlink:title=" ">
<polygon fill="none" stroke="black" points="212,-459.5 212,-478.5 335,-478.5 335,-459.5 212,-459.5"/>
<text text-anchor="middle" x="273.5" y="-466.5" font-family="Helvetica,sans-Serif" font-size="10.00">private_decorator.hpp</text>
</a>
</g>
</g>
<!-- Node23&#45;&gt;Node28 -->
<g id="edge41" class="edge">
<title>Node23&#45;&gt;Node28</title>
<path fill="none" stroke="midnightblue" d="M483.18,-515.7C434.27,-505.04 367.56,-490.5 322.64,-480.71"/>
<polygon fill="midnightblue" stroke="midnightblue" points="323.35,-477.28 312.83,-478.57 321.86,-484.12 323.35,-477.28"/>
</g>
<!-- Node30 -->
<g id="node30" class="node">
<title>Node30</title>
<g id="a_node30"><a xlink:href="room__decorator_8hpp.html" target="_top" xlink:title=" ">
<polygon fill="none" stroke="black" points="353.5,-459.5 353.5,-478.5 467.5,-478.5 467.5,-459.5 353.5,-459.5"/>
<text text-anchor="middle" x="410.5" y="-466.5" font-family="Helvetica,sans-Serif" font-size="10.00">room_decorator.hpp</text>
</a>
</g>
</g>
<!-- Node23&#45;&gt;Node30 -->
<g id="edge44" class="edge">
<title>Node23&#45;&gt;Node30</title>
<path fill="none" stroke="midnightblue" d="M514.27,-515.4C491.66,-505.51 461.66,-492.38 439.74,-482.79"/>
<polygon fill="midnightblue" stroke="midnightblue" points="440.85,-479.46 430.29,-478.66 438.05,-485.87 440.85,-479.46"/>
</g>
<!-- Node31 -->
<g id="node31" class="node">
<title>Node31</title>
<g id="a_node31"><a xlink:href="sender__decorator_8hpp.html" target="_top" xlink:title=" ">
<polygon fill="none" stroke="black" points="485.5,-459.5 485.5,-478.5 607.5,-478.5 607.5,-459.5 485.5,-459.5"/>
<text text-anchor="middle" x="546.5" y="-466.5" font-family="Helvetica,sans-Serif" font-size="10.00">sender_decorator.hpp</text>
</a>
</g>
</g>
<!-- Node23&#45;&gt;Node31 -->
<g id="edge46" class="edge">
<title>Node23&#45;&gt;Node31</title>
<path fill="none" stroke="midnightblue" d="M546.5,-515.4C546.5,-507.47 546.5,-497.46 546.5,-488.86"/>
<polygon fill="midnightblue" stroke="midnightblue" points="550,-488.66 546.5,-478.66 543,-488.66 550,-488.66"/>
</g>
<!-- Node32 -->
<g id="node32" class="node">
<title>Node32</title>
<g id="a_node32"><a xlink:href="text__decorator_8hpp.html" target="_top" xlink:title=" ">
<polygon fill="none" stroke="black" points="625.5,-459.5 625.5,-478.5 733.5,-478.5 733.5,-459.5 625.5,-459.5"/>
<text text-anchor="middle" x="679.5" y="-466.5" font-family="Helvetica,sans-Serif" font-size="10.00">text_decorator.hpp</text>
</a>
</g>
</g>
<!-- Node23&#45;&gt;Node32 -->
<g id="edge48" class="edge">
<title>Node23&#45;&gt;Node32</title>
<path fill="none" stroke="midnightblue" d="M578.02,-515.4C600.14,-505.51 629.47,-492.38 650.91,-482.79"/>
<polygon fill="midnightblue" stroke="midnightblue" points="652.45,-485.94 660.15,-478.66 649.59,-479.55 652.45,-485.94"/>
</g>
<!-- Node33 -->
<g id="node33" class="node">
<title>Node33</title>
<g id="a_node33"><a xlink:href="time__decorator_8hpp.html" target="_top" xlink:title=" ">
<polygon fill="none" stroke="black" points="752,-459.5 752,-478.5 863,-478.5 863,-459.5 752,-459.5"/>
<text text-anchor="middle" x="807.5" y="-466.5" font-family="Helvetica,sans-Serif" font-size="10.00">time_decorator.hpp</text>
</a>
</g>
</g>
<!-- Node23&#45;&gt;Node33 -->
<g id="edge50" class="edge">
<title>Node23&#45;&gt;Node33</title>
<path fill="none" stroke="midnightblue" d="M608.02,-515.47C654.62,-504.85 717.69,-490.47 760.34,-480.75"/>
<polygon fill="midnightblue" stroke="midnightblue" points="761.21,-484.14 770.19,-478.51 759.66,-477.32 761.21,-484.14"/>
</g>
<!-- Node25 -->
<g id="node25" class="node">
<title>Node25</title>
<g id="a_node25"><a xlink:href="message_8hpp.html" target="_top" xlink:title=" ">
<polygon fill="none" stroke="black" points="505.5,-347.5 505.5,-366.5 587.5,-366.5 587.5,-347.5 505.5,-347.5"/>
<text text-anchor="middle" x="546.5" y="-354.5" font-family="Helvetica,sans-Serif" font-size="10.00">message.hpp</text>
</a>
</g>
</g>
<!-- Node24&#45;&gt;Node25 -->
<g id="edge33" class="edge">
<title>Node24&#45;&gt;Node25</title>
<path fill="none" stroke="midnightblue" d="M798.96,-403.44C744.06,-393.56 654.07,-377.36 597.67,-367.21"/>
<polygon fill="midnightblue" stroke="midnightblue" points="598.01,-363.72 587.55,-365.39 596.77,-370.6 598.01,-363.72"/>
</g>
<!-- Node26 -->
<g id="node26" class="node">
<title>Node26</title>
<g id="a_node26"><a xlink:href="request_8hpp.html" target="_top" xlink:title=" ">
<polygon fill="none" stroke="black" points="446,-291.5 446,-310.5 565,-310.5 565,-291.5 446,-291.5"/>
<text text-anchor="middle" x="505.5" y="-298.5" font-family="Helvetica,sans-Serif" font-size="10.00">requests/request.hpp</text>
</a>
</g>
</g>
<!-- Node25&#45;&gt;Node26 -->
<g id="edge34" class="edge">
<title>Node25&#45;&gt;Node26</title>
<path fill="none" stroke="midnightblue" d="M539.73,-347.08C533.94,-339.46 525.44,-328.26 518.36,-318.94"/>
<polygon fill="midnightblue" stroke="midnightblue" points="520.98,-316.6 512.14,-310.75 515.4,-320.83 520.98,-316.6"/>
</g>
<!-- Node26&#45;&gt;Node6 -->
<g id="edge35" class="edge">
<title>Node26&#45;&gt;Node6</title>
<path fill="none" stroke="midnightblue" d="M504.1,-291.34C501.6,-276.99 495.78,-247.53 486.5,-224 456.03,-146.7 352.3,-120.64 404.5,-56 425.42,-30.09 519.69,-18.4 574.21,-13.72"/>
<polygon fill="midnightblue" stroke="midnightblue" points="574.55,-17.2 584.23,-12.9 573.98,-10.22 574.55,-17.2"/>
</g>
<!-- Node26&#45;&gt;Node8 -->
<g id="edge37" class="edge">
<title>Node26&#45;&gt;Node8</title>
<path fill="none" stroke="midnightblue" d="M470.25,-291.48C433.12,-282.49 373.73,-268.13 327.44,-256.93"/>
<polygon fill="midnightblue" stroke="midnightblue" points="328.02,-253.47 317.48,-254.52 326.37,-260.28 328.02,-253.47"/>
</g>
<!-- Node26&#45;&gt;Node13 -->
<g id="edge36" class="edge">
<title>Node26&#45;&gt;Node13</title>
<path fill="none" stroke="midnightblue" d="M519.35,-291.34C545.75,-274.29 603.88,-233.97 640.5,-188 666.42,-155.46 685.64,-110.14 695.04,-85.22"/>
<polygon fill="midnightblue" stroke="midnightblue" points="698.41,-86.2 698.56,-75.61 691.84,-83.79 698.41,-86.2"/>
</g>
<!-- Node27 -->
<g id="node27" class="node">
<title>Node27</title>
<g id="a_node27"><a xlink:href="server__handler_8hpp.html" target="_top" xlink:title=" ">
<polygon fill="none" stroke="black" points="343.5,-224.5 343.5,-254.5 477.5,-254.5 477.5,-224.5 343.5,-224.5"/>
<text text-anchor="start" x="351.5" y="-242.5" font-family="Helvetica,sans-Serif" font-size="10.00">request_handlers/server</text>
<text text-anchor="middle" x="410.5" y="-231.5" font-family="Helvetica,sans-Serif" font-size="10.00">_handler.hpp</text>
</a>
</g>
</g>
<!-- Node26&#45;&gt;Node27 -->
<g id="edge38" class="edge">
<title>Node26&#45;&gt;Node27</title>
<path fill="none" stroke="midnightblue" d="M491.89,-291.48C478.78,-283.27 458.49,-270.56 441.45,-259.88"/>
<polygon fill="midnightblue" stroke="midnightblue" points="443.22,-256.86 432.89,-254.52 439.51,-262.8 443.22,-256.86"/>
</g>
<!-- Node27&#45;&gt;Node7 -->
<g id="edge39" class="edge">
<title>Node27&#45;&gt;Node7</title>
<path fill="none" stroke="midnightblue" d="M361.47,-224.47C325.12,-214.08 276.19,-200.08 242.25,-190.37"/>
<polygon fill="midnightblue" stroke="midnightblue" points="242.81,-186.89 232.24,-187.51 240.89,-193.62 242.81,-186.89"/>
</g>
<!-- Node27&#45;&gt;Node9 -->
<g id="edge40" class="edge">
<title>Node27&#45;&gt;Node9</title>
<path fill="none" stroke="midnightblue" d="M448.65,-224.4C476.03,-214.28 512.54,-200.79 538.63,-191.15"/>
<polygon fill="midnightblue" stroke="midnightblue" points="539.91,-194.41 548.07,-187.66 537.48,-187.84 539.91,-194.41"/>
</g>
<!-- Node29 -->
<g id="node29" class="node">
<title>Node29</title>
<g id="a_node29"><a xlink:href="properties__decorator_8hpp.html" target="_top" xlink:title=" ">
<polygon fill="none" stroke="black" points="477.5,-403.5 477.5,-422.5 615.5,-422.5 615.5,-403.5 477.5,-403.5"/>
<text text-anchor="middle" x="546.5" y="-410.5" font-family="Helvetica,sans-Serif" font-size="10.00">properties_decorator.hpp</text>
</a>
</g>
</g>
<!-- Node28&#45;&gt;Node29 -->
<g id="edge42" class="edge">
<title>Node28&#45;&gt;Node29</title>
<path fill="none" stroke="midnightblue" d="M316.76,-459.44C364.68,-449.96 441.98,-434.67 493.5,-424.48"/>
<polygon fill="midnightblue" stroke="midnightblue" points="494.31,-427.89 503.44,-422.52 492.96,-421.02 494.31,-427.89"/>
</g>
<!-- Node29&#45;&gt;Node25 -->
<g id="edge43" class="edge">
<title>Node29&#45;&gt;Node25</title>
<path fill="none" stroke="midnightblue" d="M546.5,-403.08C546.5,-396.01 546.5,-385.86 546.5,-376.99"/>
<polygon fill="midnightblue" stroke="midnightblue" points="550,-376.75 546.5,-366.75 543,-376.75 550,-376.75"/>
</g>
<!-- Node30&#45;&gt;Node29 -->
<g id="edge45" class="edge">
<title>Node30&#45;&gt;Node29</title>
<path fill="none" stroke="midnightblue" d="M432.05,-459.44C454.53,-450.52 489.99,-436.44 515.48,-426.32"/>
<polygon fill="midnightblue" stroke="midnightblue" points="517.05,-429.46 525.05,-422.52 514.47,-422.95 517.05,-429.46"/>
</g>
<!-- Node31&#45;&gt;Node29 -->
<g id="edge47" class="edge">
<title>Node31&#45;&gt;Node29</title>
<path fill="none" stroke="midnightblue" d="M546.5,-459.08C546.5,-452.01 546.5,-441.86 546.5,-432.99"/>
<polygon fill="midnightblue" stroke="midnightblue" points="550,-432.75 546.5,-422.75 543,-432.75 550,-432.75"/>
</g>
<!-- Node32&#45;&gt;Node29 -->
<g id="edge49" class="edge">
<title>Node32&#45;&gt;Node29</title>
<path fill="none" stroke="midnightblue" d="M658.43,-459.44C636.44,-450.52 601.77,-436.44 576.84,-426.32"/>
<polygon fill="midnightblue" stroke="midnightblue" points="578.06,-423.04 567.48,-422.52 575.42,-429.52 578.06,-423.04"/>
</g>
<!-- Node33&#45;&gt;Node29 -->
<g id="edge51" class="edge">
<title>Node33&#45;&gt;Node29</title>
<path fill="none" stroke="midnightblue" d="M766.14,-459.44C720.42,-449.98 646.74,-434.74 597.48,-424.55"/>
<polygon fill="midnightblue" stroke="midnightblue" points="598.16,-421.12 587.66,-422.52 596.75,-427.97 598.16,-421.12"/>
</g>
<!-- Node34 -->
<g id="node34" class="node">
<title>Node34</title>
<g id="a_node34"><a xlink:title=" ">
<polygon fill="none" stroke="#bfbfbf" points="725.5,-403.5 725.5,-422.5 773.5,-422.5 773.5,-403.5 725.5,-403.5"/>
<text text-anchor="middle" x="749.5" y="-410.5" font-family="Helvetica,sans-Serif" font-size="10.00">time.h</text>
</a>
</g>
</g>
<!-- Node33&#45;&gt;Node34 -->
<g id="edge52" class="edge">
<title>Node33&#45;&gt;Node34</title>
<path fill="none" stroke="midnightblue" d="M798.18,-459.32C789.61,-451.34 776.69,-439.31 766.31,-429.65"/>
<polygon fill="midnightblue" stroke="midnightblue" points="768.69,-427.09 758.99,-422.83 763.92,-432.21 768.69,-427.09"/>
</g>
<!-- Node35&#45;&gt;Node17 -->
<g id="edge55" class="edge">
<title>Node35&#45;&gt;Node17</title>
<path fill="none" stroke="midnightblue" d="M967.5,-582.49C967.5,-562.74 967.5,-512.22 967.5,-470 967.5,-470 967.5,-470 967.5,-238.5 967.5,-171.43 906.93,-109.87 875.28,-82.27"/>
<polygon fill="midnightblue" stroke="midnightblue" points="877.44,-79.51 867.55,-75.71 872.91,-84.85 877.44,-79.51"/>
</g>
<!-- Node36 -->
<g id="node36" class="node">
<title>Node36</title>
<g id="a_node36"><a xlink:title=" ">
<polygon fill="none" stroke="#bfbfbf" points="996,-521 996,-540 1051,-540 1051,-521 996,-521"/>
<text text-anchor="middle" x="1023.5" y="-528" font-family="Helvetica,sans-Serif" font-size="10.00">fstream</text>
</a>
</g>
</g>
<!-- Node35&#45;&gt;Node36 -->
<g id="edge54" class="edge">
<title>Node35&#45;&gt;Node36</title>
<path fill="none" stroke="midnightblue" d="M975.52,-582.48C984.09,-573.37 997.86,-558.74 1008.46,-547.48"/>
<polygon fill="midnightblue" stroke="midnightblue" points="1011.19,-549.69 1015.49,-540.01 1006.09,-544.89 1011.19,-549.69"/>
</g>
</g>
</svg>
