<?xml version="1.0" encoding="UTF-8" standalone="no"?>
<!DOCTYPE svg PUBLIC "-//W3C//DTD SVG 1.1//EN"
 "http://www.w3.org/Graphics/SVG/1.1/DTD/svg11.dtd">
<!-- Generated by graphviz version 2.43.0 (0)
 -->
<!-- Title: /home/alexander/Documents/Seminars/TP/Project/src/server_side/client_connection.cpp Pages: 1 -->
<svg width="1164pt" height="912pt"
 viewBox="0.00 0.00 1164.00 912.00" xmlns="http://www.w3.org/2000/svg" xmlns:xlink="http://www.w3.org/1999/xlink">
<g id="graph0" class="graph" transform="scale(1 1) rotate(0) translate(4 908)">
<title>/home/alexander/Documents/Seminars/TP/Project/src/server_side/client_connection.cpp</title>
<!-- Node1 -->
<g id="node1" class="node">
<title>Node1</title>
<g id="a_node1"><a xlink:title=" ">
<polygon fill="#bfbfbf" stroke="black" points="214,-862.5 214,-903.5 399,-903.5 399,-862.5 214,-862.5"/>
<text text-anchor="start" x="222" y="-891.5" font-family="Helvetica,sans-Serif" font-size="10.00">/home/alexander/Documents</text>
<text text-anchor="start" x="222" y="-880.5" font-family="Helvetica,sans-Serif" font-size="10.00">/Seminars/TP/Project/src</text>
<text text-anchor="middle" x="306.5" y="-869.5" font-family="Helvetica,sans-Serif" font-size="10.00">/server_side/client_connection.cpp</text>
</a>
</g>
</g>
<!-- Node2 -->
<g id="node2" class="node">
<title>Node2</title>
<g id="a_node2"><a xlink:href="client__connection_8hpp.html" target="_top" xlink:title=" ">
<polygon fill="none" stroke="black" points="245,-806.5 245,-825.5 368,-825.5 368,-806.5 245,-806.5"/>
<text text-anchor="middle" x="306.5" y="-813.5" font-family="Helvetica,sans-Serif" font-size="10.00">client_connection.hpp</text>
</a>
</g>
</g>
<!-- Node1&#45;&gt;Node2 -->
<g id="edge1" class="edge">
<title>Node1&#45;&gt;Node2</title>
<path fill="none" stroke="midnightblue" d="M306.5,-862.5C306.5,-854.07 306.5,-844.24 306.5,-835.87"/>
<polygon fill="midnightblue" stroke="midnightblue" points="310,-835.65 306.5,-825.65 303,-835.65 310,-835.65"/>
</g>
<!-- Node3 -->
<g id="node3" class="node">
<title>Node3</title>
<g id="a_node3"><a xlink:href="accounts__database_8hpp.html" target="_top" xlink:title=" ">
<polygon fill="none" stroke="black" points="977,-638.5 977,-657.5 1156,-657.5 1156,-638.5 977,-638.5"/>
<text text-anchor="middle" x="1066.5" y="-645.5" font-family="Helvetica,sans-Serif" font-size="10.00">database/accounts_database.hpp</text>
</a>
</g>
</g>
<!-- Node2&#45;&gt;Node3 -->
<g id="edge2" class="edge">
<title>Node2&#45;&gt;Node3</title>
<path fill="none" stroke="midnightblue" d="M345.5,-806.48C472.85,-778.67 876.42,-690.52 1017.35,-659.73"/>
<polygon fill="midnightblue" stroke="midnightblue" points="1018.41,-663.09 1027.43,-657.53 1016.92,-656.25 1018.41,-663.09"/>
</g>
<!-- Node9 -->
<g id="node9" class="node">
<title>Node9</title>
<g id="a_node9"><a xlink:href="permissions_8hpp.html" target="_top" xlink:title=" ">
<polygon fill="none" stroke="black" points="0,-230 0,-249 97,-249 97,-230 0,-230"/>
<text text-anchor="middle" x="48.5" y="-237" font-family="Helvetica,sans-Serif" font-size="10.00">permissions.hpp</text>
</a>
</g>
</g>
<!-- Node2&#45;&gt;Node9 -->
<g id="edge8" class="edge">
<title>Node2&#45;&gt;Node9</title>
<path fill="none" stroke="midnightblue" d="M244.7,-814.49C168.38,-810.21 48.5,-789.97 48.5,-705 48.5,-705 48.5,-705 48.5,-356 48.5,-321.86 48.5,-282.05 48.5,-259.21"/>
<polygon fill="midnightblue" stroke="midnightblue" points="52,-259.19 48.5,-249.19 45,-259.19 52,-259.19"/>
</g>
<!-- Node11 -->
<g id="node11" class="node">
<title>Node11</title>
<g id="a_node11"><a xlink:href="server__handler_8hpp.html" target="_top" xlink:title=" ">
<polygon fill="none" stroke="black" points="190.5,-224.5 190.5,-254.5 324.5,-254.5 324.5,-224.5 190.5,-224.5"/>
<text text-anchor="start" x="198.5" y="-242.5" font-family="Helvetica,sans-Serif" font-size="10.00">request_handlers/server</text>
<text text-anchor="middle" x="257.5" y="-231.5" font-family="Helvetica,sans-Serif" font-size="10.00">_handler.hpp</text>
</a>
</g>
</g>
<!-- Node2&#45;&gt;Node11 -->
<g id="edge11" class="edge">
<title>Node2&#45;&gt;Node11</title>
<path fill="none" stroke="midnightblue" d="M244.93,-810.18C179.84,-801.32 86.5,-776.21 86.5,-705 86.5,-705 86.5,-705 86.5,-356 86.5,-304.39 140.66,-274.28 188.02,-257.83"/>
<polygon fill="midnightblue" stroke="midnightblue" points="189.3,-261.09 197.69,-254.62 187.1,-254.45 189.3,-261.09"/>
</g>
<!-- Node18 -->
<g id="node18" class="node">
<title>Node18</title>
<g id="a_node18"><a xlink:href="room_8hpp.html" target="_top" xlink:title=" ">
<polygon fill="none" stroke="black" points="276,-694.5 276,-713.5 339,-713.5 339,-694.5 276,-694.5"/>
<text text-anchor="middle" x="307.5" y="-701.5" font-family="Helvetica,sans-Serif" font-size="10.00">room.hpp</text>
</a>
</g>
</g>
<!-- Node2&#45;&gt;Node18 -->
<g id="edge24" class="edge">
<title>Node2&#45;&gt;Node18</title>
<path fill="none" stroke="midnightblue" d="M306.58,-806.37C306.74,-788.62 307.11,-747.67 307.33,-723.6"/>
<polygon fill="midnightblue" stroke="midnightblue" points="310.83,-723.62 307.42,-713.59 303.83,-723.56 310.83,-723.62"/>
</g>
<!-- Node39 -->
<g id="node39" class="node">
<title>Node39</title>
<g id="a_node39"><a xlink:href="server_8hpp.html" target="_top" xlink:title=" ">
<polygon fill="none" stroke="black" points="334.5,-750.5 334.5,-769.5 402.5,-769.5 402.5,-750.5 334.5,-750.5"/>
<text text-anchor="middle" x="368.5" y="-757.5" font-family="Helvetica,sans-Serif" font-size="10.00">server.hpp</text>
</a>
</g>
</g>
<!-- Node2&#45;&gt;Node39 -->
<g id="edge59" class="edge">
<title>Node2&#45;&gt;Node39</title>
<path fill="none" stroke="midnightblue" d="M316.46,-806.32C325.63,-798.34 339.44,-786.31 350.53,-776.65"/>
<polygon fill="midnightblue" stroke="midnightblue" points="353.12,-779.04 358.36,-769.83 348.52,-773.76 353.12,-779.04"/>
</g>
<!-- Node4 -->
<g id="node4" class="node">
<title>Node4</title>
<g id="a_node4"><a xlink:href="account_8hpp.html" target="_top" xlink:title=" ">
<polygon fill="none" stroke="black" points="568.5,-112.5 568.5,-131.5 644.5,-131.5 644.5,-112.5 568.5,-112.5"/>
<text text-anchor="middle" x="606.5" y="-119.5" font-family="Helvetica,sans-Serif" font-size="10.00">account.hpp</text>
</a>
</g>
</g>
<!-- Node3&#45;&gt;Node4 -->
<g id="edge3" class="edge">
<title>Node3&#45;&gt;Node4</title>
<path fill="none" stroke="midnightblue" d="M1065.91,-638.5C1064.58,-618.75 1061.5,-568.26 1061.5,-526 1061.5,-526 1061.5,-526 1061.5,-238.5 1061.5,-155.24 771.63,-131.31 654.62,-125.04"/>
<polygon fill="midnightblue" stroke="midnightblue" points="654.68,-121.54 644.51,-124.52 654.32,-128.53 654.68,-121.54"/>
</g>
<!-- Node5 -->
<g id="node5" class="node">
<title>Node5</title>
<g id="a_node5"><a xlink:title=" ">
<polygon fill="none" stroke="#bfbfbf" points="415.5,-0.5 415.5,-19.5 473.5,-19.5 473.5,-0.5 415.5,-0.5"/>
<text text-anchor="middle" x="444.5" y="-7.5" font-family="Helvetica,sans-Serif" font-size="10.00">memory</text>
</a>
</g>
</g>
<!-- Node4&#45;&gt;Node5 -->
<g id="edge4" class="edge">
<title>Node4&#45;&gt;Node5</title>
<path fill="none" stroke="midnightblue" d="M601.1,-112.29C592.25,-98.63 573.42,-72.1 551.5,-56 531.03,-40.97 504.78,-29.83 483.4,-22.39"/>
<polygon fill="midnightblue" stroke="midnightblue" points="484.25,-18.99 473.65,-19.14 482.03,-25.63 484.25,-18.99"/>
</g>
<!-- Node6 -->
<g id="node6" class="node">
<title>Node6</title>
<g id="a_node6"><a xlink:title=" ">
<polygon fill="none" stroke="#bfbfbf" points="510.5,-56.5 510.5,-75.5 542.5,-75.5 542.5,-56.5 510.5,-56.5"/>
<text text-anchor="middle" x="526.5" y="-63.5" font-family="Helvetica,sans-Serif" font-size="10.00">set</text>
</a>
</g>
</g>
<!-- Node4&#45;&gt;Node6 -->
<g id="edge5" class="edge">
<title>Node4&#45;&gt;Node6</title>
<path fill="none" stroke="midnightblue" d="M593.65,-112.32C581.28,-103.98 562.37,-91.21 547.76,-81.35"/>
<polygon fill="midnightblue" stroke="midnightblue" points="549.57,-78.35 539.32,-75.65 545.65,-84.15 549.57,-78.35"/>
</g>
<!-- Node7 -->
<g id="node7" class="node">
<title>Node7</title>
<g id="a_node7"><a xlink:title=" ">
<polygon fill="none" stroke="#bfbfbf" points="598.5,-56.5 598.5,-75.5 654.5,-75.5 654.5,-56.5 598.5,-56.5"/>
<text text-anchor="middle" x="626.5" y="-63.5" font-family="Helvetica,sans-Serif" font-size="10.00">sstream</text>
</a>
</g>
</g>
<!-- Node4&#45;&gt;Node7 -->
<g id="edge6" class="edge">
<title>Node4&#45;&gt;Node7</title>
<path fill="none" stroke="midnightblue" d="M609.8,-112.08C612.48,-104.85 616.35,-94.41 619.69,-85.4"/>
<polygon fill="midnightblue" stroke="midnightblue" points="623.07,-86.34 623.26,-75.75 616.5,-83.91 623.07,-86.34"/>
</g>
<!-- Node8 -->
<g id="node8" class="node">
<title>Node8</title>
<g id="a_node8"><a xlink:title=" ">
<polygon fill="none" stroke="#bfbfbf" points="372.5,-56.5 372.5,-75.5 416.5,-75.5 416.5,-56.5 372.5,-56.5"/>
<text text-anchor="middle" x="394.5" y="-63.5" font-family="Helvetica,sans-Serif" font-size="10.00">string</text>
</a>
</g>
</g>
<!-- Node4&#45;&gt;Node8 -->
<g id="edge7" class="edge">
<title>Node4&#45;&gt;Node8</title>
<path fill="none" stroke="midnightblue" d="M572.91,-112.44C532.72,-102.21 465.92,-85.19 426.47,-75.14"/>
<polygon fill="midnightblue" stroke="midnightblue" points="427.14,-71.7 416.58,-72.62 425.41,-78.48 427.14,-71.7"/>
</g>
<!-- Node9&#45;&gt;Node5 -->
<g id="edge9" class="edge">
<title>Node9&#45;&gt;Node5</title>
<path fill="none" stroke="midnightblue" d="M45.94,-229.73C37.96,-200.45 16.89,-105.08 64.5,-56 87.97,-31.81 313.01,-17.69 405.3,-12.88"/>
<polygon fill="midnightblue" stroke="midnightblue" points="405.56,-16.37 415.36,-12.37 405.2,-9.38 405.56,-16.37"/>
</g>
<!-- Node10 -->
<g id="node10" class="node">
<title>Node10</title>
<g id="a_node10"><a xlink:title=" ">
<polygon fill="none" stroke="#bfbfbf" points="116,-168.5 116,-187.5 209,-187.5 209,-168.5 116,-168.5"/>
<text text-anchor="middle" x="162.5" y="-175.5" font-family="Helvetica,sans-Serif" font-size="10.00">unordered_map</text>
</a>
</g>
</g>
<!-- Node9&#45;&gt;Node10 -->
<g id="edge10" class="edge">
<title>Node9&#45;&gt;Node10</title>
<path fill="none" stroke="midnightblue" d="M64.83,-229.98C83.71,-220.12 115.01,-203.79 137.08,-192.27"/>
<polygon fill="midnightblue" stroke="midnightblue" points="138.95,-195.24 146.2,-187.51 135.71,-189.03 138.95,-195.24"/>
</g>
<!-- Node11&#45;&gt;Node10 -->
<g id="edge12" class="edge">
<title>Node11&#45;&gt;Node10</title>
<path fill="none" stroke="midnightblue" d="M234.99,-224.4C219.9,-214.95 200.11,-202.56 185.03,-193.11"/>
<polygon fill="midnightblue" stroke="midnightblue" points="186.66,-190 176.32,-187.66 182.94,-195.93 186.66,-190"/>
</g>
<!-- Node12 -->
<g id="node12" class="node">
<title>Node12</title>
<g id="a_node12"><a xlink:href="abstract__handler_8hpp.html" target="_top" xlink:title=" ">
<polygon fill="none" stroke="black" points="385,-168.5 385,-187.5 504,-187.5 504,-168.5 385,-168.5"/>
<text text-anchor="middle" x="444.5" y="-175.5" font-family="Helvetica,sans-Serif" font-size="10.00">abstract_handler.hpp</text>
</a>
</g>
</g>
<!-- Node11&#45;&gt;Node12 -->
<g id="edge13" class="edge">
<title>Node11&#45;&gt;Node12</title>
<path fill="none" stroke="midnightblue" d="M301.82,-224.4C334.13,-214.12 377.4,-200.35 407.79,-190.68"/>
<polygon fill="midnightblue" stroke="midnightblue" points="409.09,-193.94 417.56,-187.57 406.97,-187.27 409.09,-193.94"/>
</g>
<!-- Node12&#45;&gt;Node4 -->
<g id="edge15" class="edge">
<title>Node12&#45;&gt;Node4</title>
<path fill="none" stroke="midnightblue" d="M470.17,-168.44C497.42,-159.36 540.68,-144.94 571.15,-134.78"/>
<polygon fill="midnightblue" stroke="midnightblue" points="572.57,-138 580.95,-131.52 570.36,-131.36 572.57,-138"/>
</g>
<!-- Node12&#45;&gt;Node5 -->
<g id="edge14" class="edge">
<title>Node12&#45;&gt;Node5</title>
<path fill="none" stroke="midnightblue" d="M444.5,-168.08C444.5,-141.95 444.5,-65.21 444.5,-29.58"/>
<polygon fill="midnightblue" stroke="midnightblue" points="448,-29.57 444.5,-19.57 441,-29.57 448,-29.57"/>
</g>
<!-- Node13 -->
<g id="node13" class="node">
<title>Node13</title>
<g id="a_node13"><a xlink:href="socket_8hpp.html" target="_top" xlink:title=" ">
<polygon fill="none" stroke="black" points="224.5,-112.5 224.5,-131.5 328.5,-131.5 328.5,-112.5 224.5,-112.5"/>
<text text-anchor="middle" x="276.5" y="-119.5" font-family="Helvetica,sans-Serif" font-size="10.00">socket/socket.hpp</text>
</a>
</g>
</g>
<!-- Node12&#45;&gt;Node13 -->
<g id="edge16" class="edge">
<title>Node12&#45;&gt;Node13</title>
<path fill="none" stroke="midnightblue" d="M417.88,-168.44C389.49,-159.32 344.36,-144.81 312.75,-134.65"/>
<polygon fill="midnightblue" stroke="midnightblue" points="313.59,-131.24 303,-131.52 311.44,-137.91 313.59,-131.24"/>
</g>
<!-- Node13&#45;&gt;Node5 -->
<g id="edge19" class="edge">
<title>Node13&#45;&gt;Node5</title>
<path fill="none" stroke="midnightblue" d="M287.15,-112.31C303.22,-99.36 334.85,-74.54 363.5,-56 381.45,-44.38 402.6,-32.7 418.78,-24.15"/>
<polygon fill="midnightblue" stroke="midnightblue" points="420.43,-27.23 427.67,-19.5 417.19,-21.03 420.43,-27.23"/>
</g>
<!-- Node13&#45;&gt;Node8 -->
<g id="edge20" class="edge">
<title>Node13&#45;&gt;Node8</title>
<path fill="none" stroke="midnightblue" d="M295.2,-112.44C314.44,-103.64 344.65,-89.81 366.7,-79.72"/>
<polygon fill="midnightblue" stroke="midnightblue" points="368.25,-82.86 375.89,-75.52 365.34,-76.5 368.25,-82.86"/>
</g>
<!-- Node14 -->
<g id="node14" class="node">
<title>Node14</title>
<g id="a_node14"><a xlink:title=" ">
<polygon fill="none" stroke="#bfbfbf" points="144.5,-56.5 144.5,-75.5 232.5,-75.5 232.5,-56.5 144.5,-56.5"/>
<text text-anchor="middle" x="188.5" y="-63.5" font-family="Helvetica,sans-Serif" font-size="10.00">boost/asio.hpp</text>
</a>
</g>
</g>
<!-- Node13&#45;&gt;Node14 -->
<g id="edge17" class="edge">
<title>Node13&#45;&gt;Node14</title>
<path fill="none" stroke="midnightblue" d="M262.36,-112.32C248.63,-103.9 227.56,-90.97 211.44,-81.07"/>
<polygon fill="midnightblue" stroke="midnightblue" points="212.96,-77.9 202.6,-75.65 209.3,-83.87 212.96,-77.9"/>
</g>
<!-- Node15 -->
<g id="node15" class="node">
<title>Node15</title>
<g id="a_node15"><a xlink:title=" ">
<polygon fill="none" stroke="#bfbfbf" points="251,-56.5 251,-75.5 316,-75.5 316,-56.5 251,-56.5"/>
<text text-anchor="middle" x="283.5" y="-63.5" font-family="Helvetica,sans-Serif" font-size="10.00">functional</text>
</a>
</g>
</g>
<!-- Node13&#45;&gt;Node15 -->
<g id="edge18" class="edge">
<title>Node13&#45;&gt;Node15</title>
<path fill="none" stroke="midnightblue" d="M277.66,-112.08C278.58,-104.93 279.92,-94.64 281.08,-85.69"/>
<polygon fill="midnightblue" stroke="midnightblue" points="284.55,-86.12 282.37,-75.75 277.61,-85.22 284.55,-86.12"/>
</g>
<!-- Node16 -->
<g id="node16" class="node">
<title>Node16</title>
<g id="a_node16"><a xlink:href="general_2socket_2log_8hpp.html" target="_top" xlink:title=" ">
<polygon fill="none" stroke="black" points="73,-56.5 73,-75.5 126,-75.5 126,-56.5 73,-56.5"/>
<text text-anchor="middle" x="99.5" y="-63.5" font-family="Helvetica,sans-Serif" font-size="10.00">log.hpp</text>
</a>
</g>
</g>
<!-- Node13&#45;&gt;Node16 -->
<g id="edge21" class="edge">
<title>Node13&#45;&gt;Node16</title>
<path fill="none" stroke="midnightblue" d="M248.45,-112.44C218.06,-103.17 169.46,-88.34 136.09,-78.16"/>
<polygon fill="midnightblue" stroke="midnightblue" points="136.84,-74.73 126.26,-75.16 134.8,-81.43 136.84,-74.73"/>
</g>
<!-- Node16&#45;&gt;Node5 -->
<g id="edge22" class="edge">
<title>Node16&#45;&gt;Node5</title>
<path fill="none" stroke="midnightblue" d="M126.17,-58.02C129.3,-57.29 132.47,-56.6 135.5,-56 231.83,-36.99 346.53,-22.36 405.39,-15.42"/>
<polygon fill="midnightblue" stroke="midnightblue" points="405.84,-18.89 415.37,-14.25 405.03,-11.94 405.84,-18.89"/>
</g>
<!-- Node17 -->
<g id="node17" class="node">
<title>Node17</title>
<g id="a_node17"><a xlink:title=" ">
<polygon fill="none" stroke="#bfbfbf" points="71,-0.5 71,-19.5 128,-19.5 128,-0.5 71,-0.5"/>
<text text-anchor="middle" x="99.5" y="-7.5" font-family="Helvetica,sans-Serif" font-size="10.00">ostream</text>
</a>
</g>
</g>
<!-- Node16&#45;&gt;Node17 -->
<g id="edge23" class="edge">
<title>Node16&#45;&gt;Node17</title>
<path fill="none" stroke="midnightblue" d="M99.5,-56.08C99.5,-49.01 99.5,-38.86 99.5,-29.99"/>
<polygon fill="midnightblue" stroke="midnightblue" points="103,-29.75 99.5,-19.75 96,-29.75 103,-29.75"/>
</g>
<!-- Node18&#45;&gt;Node10 -->
<g id="edge27" class="edge">
<title>Node18&#45;&gt;Node10</title>
<path fill="none" stroke="midnightblue" d="M275.59,-695.2C253.08,-688.4 223.34,-676.64 202.5,-658 175.65,-633.98 162.5,-623.53 162.5,-587.5 162.5,-587.5 162.5,-587.5 162.5,-300 162.5,-263.71 162.5,-221.31 162.5,-197.56"/>
<polygon fill="midnightblue" stroke="midnightblue" points="166,-197.51 162.5,-187.51 159,-197.51 166,-197.51"/>
</g>
<!-- Node18&#45;&gt;Node11 -->
<g id="edge28" class="edge">
<title>Node18&#45;&gt;Node11</title>
<path fill="none" stroke="midnightblue" d="M276.88,-694.41C257.75,-687.53 234.08,-676 219.5,-658 199.08,-632.78 200.5,-619.95 200.5,-587.5 200.5,-587.5 200.5,-587.5 200.5,-356 200.5,-320.66 222.22,-284.94 238.84,-262.78"/>
<polygon fill="midnightblue" stroke="midnightblue" points="241.75,-264.74 245.13,-254.7 236.23,-260.44 241.75,-264.74"/>
</g>
<!-- Node19 -->
<g id="node19" class="node">
<title>Node19</title>
<g id="a_node19"><a xlink:title=" ">
<polygon fill="none" stroke="#bfbfbf" points="404.5,-638.5 404.5,-657.5 472.5,-657.5 472.5,-638.5 404.5,-638.5"/>
<text text-anchor="middle" x="438.5" y="-645.5" font-family="Helvetica,sans-Serif" font-size="10.00">filesystem</text>
</a>
</g>
</g>
<!-- Node18&#45;&gt;Node19 -->
<g id="edge25" class="edge">
<title>Node18&#45;&gt;Node19</title>
<path fill="none" stroke="midnightblue" d="M328.26,-694.44C349.82,-685.56 383.76,-671.56 408.29,-661.45"/>
<polygon fill="midnightblue" stroke="midnightblue" points="409.93,-664.56 417.84,-657.52 407.26,-658.09 409.93,-664.56"/>
</g>
<!-- Node20 -->
<g id="node20" class="node">
<title>Node20</title>
<g id="a_node20"><a xlink:title=" ">
<polygon fill="none" stroke="#bfbfbf" points="491,-638.5 491,-657.5 546,-657.5 546,-638.5 491,-638.5"/>
<text text-anchor="middle" x="518.5" y="-645.5" font-family="Helvetica,sans-Serif" font-size="10.00">fstream</text>
</a>
</g>
</g>
<!-- Node18&#45;&gt;Node20 -->
<g id="edge26" class="edge">
<title>Node18&#45;&gt;Node20</title>
<path fill="none" stroke="midnightblue" d="M339.09,-694.92C377.03,-685.21 440.6,-668.94 481,-658.6"/>
<polygon fill="midnightblue" stroke="midnightblue" points="481.92,-661.97 490.74,-656.1 480.19,-655.19 481.92,-661.97"/>
</g>
<!-- Node21 -->
<g id="node21" class="node">
<title>Node21</title>
<g id="a_node21"><a xlink:href="request__creator_8hpp.html" target="_top" xlink:title=" ">
<polygon fill="none" stroke="black" points="228.5,-638.5 228.5,-657.5 386.5,-657.5 386.5,-638.5 228.5,-638.5"/>
<text text-anchor="middle" x="307.5" y="-645.5" font-family="Helvetica,sans-Serif" font-size="10.00">requests/request_creator.hpp</text>
</a>
</g>
</g>
<!-- Node18&#45;&gt;Node21 -->
<g id="edge29" class="edge">
<title>Node18&#45;&gt;Node21</title>
<path fill="none" stroke="midnightblue" d="M307.5,-694.08C307.5,-687.01 307.5,-676.86 307.5,-667.99"/>
<polygon fill="midnightblue" stroke="midnightblue" points="311,-667.75 307.5,-657.75 304,-667.75 311,-667.75"/>
</g>
<!-- Node22 -->
<g id="node22" class="node">
<title>Node22</title>
<g id="a_node22"><a xlink:href="sign__in__request_8hpp.html" target="_top" xlink:title=" ">
<polygon fill="none" stroke="black" points="228.5,-571.5 228.5,-601.5 354.5,-601.5 354.5,-571.5 228.5,-571.5"/>
<text text-anchor="start" x="236.5" y="-589.5" font-family="Helvetica,sans-Serif" font-size="10.00">requests/authorization</text>
<text text-anchor="middle" x="291.5" y="-578.5" font-family="Helvetica,sans-Serif" font-size="10.00">/sign_in_request.hpp</text>
</a>
</g>
</g>
<!-- Node21&#45;&gt;Node22 -->
<g id="edge30" class="edge">
<title>Node21&#45;&gt;Node22</title>
<path fill="none" stroke="midnightblue" d="M305.21,-638.48C303.3,-631.4 300.5,-620.97 297.92,-611.39"/>
<polygon fill="midnightblue" stroke="midnightblue" points="301.25,-610.27 295.27,-601.52 294.49,-612.09 301.25,-610.27"/>
</g>
<!-- Node27 -->
<g id="node27" class="node">
<title>Node27</title>
<g id="a_node27"><a xlink:href="sign__up__request_8hpp.html" target="_top" xlink:title=" ">
<polygon fill="none" stroke="black" points="372.5,-571.5 372.5,-601.5 498.5,-601.5 498.5,-571.5 372.5,-571.5"/>
<text text-anchor="start" x="380.5" y="-589.5" font-family="Helvetica,sans-Serif" font-size="10.00">requests/authorization</text>
<text text-anchor="middle" x="435.5" y="-578.5" font-family="Helvetica,sans-Serif" font-size="10.00">/sign_up_request.hpp</text>
</a>
</g>
</g>
<!-- Node21&#45;&gt;Node27 -->
<g id="edge40" class="edge">
<title>Node21&#45;&gt;Node27</title>
<path fill="none" stroke="midnightblue" d="M325.84,-638.48C344.07,-630 372.6,-616.74 396,-605.86"/>
<polygon fill="midnightblue" stroke="midnightblue" points="397.74,-608.91 405.33,-601.52 394.79,-602.56 397.74,-608.91"/>
</g>
<!-- Node28 -->
<g id="node28" class="node">
<title>Node28</title>
<g id="a_node28"><a xlink:href="messages__builder_8hpp.html" target="_top" xlink:title=" ">
<polygon fill="none" stroke="black" points="516.5,-571.5 516.5,-601.5 680.5,-601.5 680.5,-571.5 516.5,-571.5"/>
<text text-anchor="start" x="524.5" y="-589.5" font-family="Helvetica,sans-Serif" font-size="10.00">requests/messages/messages</text>
<text text-anchor="middle" x="598.5" y="-578.5" font-family="Helvetica,sans-Serif" font-size="10.00">_builder.hpp</text>
</a>
</g>
</g>
<!-- Node21&#45;&gt;Node28 -->
<g id="edge42" class="edge">
<title>Node21&#45;&gt;Node28</title>
<path fill="none" stroke="midnightblue" d="M349.19,-638.48C393.58,-629.4 464.85,-614.83 519.85,-603.58"/>
<polygon fill="midnightblue" stroke="midnightblue" points="520.82,-606.96 529.92,-601.52 519.42,-600.1 520.82,-606.96"/>
</g>
<!-- Node23 -->
<g id="node23" class="node">
<title>Node23</title>
<g id="a_node23"><a xlink:href="authorization__request_8hpp.html" target="_top" xlink:title=" ">
<polygon fill="none" stroke="black" points="228.5,-515.5 228.5,-534.5 372.5,-534.5 372.5,-515.5 228.5,-515.5"/>
<text text-anchor="middle" x="300.5" y="-522.5" font-family="Helvetica,sans-Serif" font-size="10.00">authorization_request.hpp</text>
</a>
</g>
</g>
<!-- Node22&#45;&gt;Node23 -->
<g id="edge31" class="edge">
<title>Node22&#45;&gt;Node23</title>
<path fill="none" stroke="midnightblue" d="M293.63,-571.4C294.85,-563.38 296.38,-553.23 297.69,-544.57"/>
<polygon fill="midnightblue" stroke="midnightblue" points="301.16,-545.07 299.19,-534.66 294.23,-544.02 301.16,-545.07"/>
</g>
<!-- Node24 -->
<g id="node24" class="node">
<title>Node24</title>
<g id="a_node24"><a xlink:href="request_8hpp.html" target="_top" xlink:title=" ">
<polygon fill="none" stroke="black" points="297,-291.5 297,-310.5 416,-310.5 416,-291.5 297,-291.5"/>
<text text-anchor="middle" x="356.5" y="-298.5" font-family="Helvetica,sans-Serif" font-size="10.00">requests/request.hpp</text>
</a>
</g>
</g>
<!-- Node23&#45;&gt;Node24 -->
<g id="edge32" class="edge">
<title>Node23&#45;&gt;Node24</title>
<path fill="none" stroke="midnightblue" d="M293.22,-515.45C277.24,-495.62 241.74,-444.95 257.5,-403 271.88,-364.72 309.45,-333.5 333.95,-316.36"/>
<polygon fill="midnightblue" stroke="midnightblue" points="336,-319.19 342.32,-310.69 332.08,-313.4 336,-319.19"/>
</g>
<!-- Node24&#45;&gt;Node5 -->
<g id="edge33" class="edge">
<title>Node24&#45;&gt;Node5</title>
<path fill="none" stroke="midnightblue" d="M410.33,-291.46C502.93,-275.22 682.5,-236.35 682.5,-179 682.5,-179 682.5,-179 682.5,-121 682.5,-90.9 685.63,-76.4 663.5,-56 637.76,-32.28 539.57,-19.64 483.8,-14.25"/>
<polygon fill="midnightblue" stroke="midnightblue" points="483.86,-10.74 473.58,-13.3 483.21,-17.71 483.86,-10.74"/>
</g>
<!-- Node24&#45;&gt;Node8 -->
<g id="edge34" class="edge">
<title>Node24&#45;&gt;Node8</title>
<path fill="none" stroke="midnightblue" d="M357.73,-291.34C360.76,-270.22 368.85,-214.43 376.5,-168 381.24,-139.22 387.28,-105.93 391.02,-85.68"/>
<polygon fill="midnightblue" stroke="midnightblue" points="394.5,-86.1 392.88,-75.63 387.62,-84.83 394.5,-86.1"/>
</g>
<!-- Node24&#45;&gt;Node11 -->
<g id="edge39" class="edge">
<title>Node24&#45;&gt;Node11</title>
<path fill="none" stroke="midnightblue" d="M342.32,-291.48C328.66,-283.27 307.51,-270.56 289.75,-259.88"/>
<polygon fill="midnightblue" stroke="midnightblue" points="291.21,-256.67 280.83,-254.52 287.6,-262.67 291.21,-256.67"/>
</g>
<!-- Node25 -->
<g id="node25" class="node">
<title>Node25</title>
<g id="a_node25"><a xlink:href="client__handler_8hpp.html" target="_top" xlink:title=" ">
<polygon fill="none" stroke="black" points="385,-224.5 385,-254.5 516,-254.5 516,-224.5 385,-224.5"/>
<text text-anchor="start" x="393" y="-242.5" font-family="Helvetica,sans-Serif" font-size="10.00">request_handlers/client</text>
<text text-anchor="middle" x="450.5" y="-231.5" font-family="Helvetica,sans-Serif" font-size="10.00">_handler.hpp</text>
</a>
</g>
</g>
<!-- Node24&#45;&gt;Node25 -->
<g id="edge35" class="edge">
<title>Node24&#45;&gt;Node25</title>
<path fill="none" stroke="midnightblue" d="M369.97,-291.48C382.94,-283.27 403.01,-270.56 419.88,-259.88"/>
<polygon fill="midnightblue" stroke="midnightblue" points="421.77,-262.83 428.35,-254.52 418.02,-256.91 421.77,-262.83"/>
</g>
<!-- Node25&#45;&gt;Node12 -->
<g id="edge36" class="edge">
<title>Node25&#45;&gt;Node12</title>
<path fill="none" stroke="midnightblue" d="M449.08,-224.4C448.28,-216.47 447.27,-206.46 446.4,-197.86"/>
<polygon fill="midnightblue" stroke="midnightblue" points="449.86,-197.26 445.37,-187.66 442.89,-197.96 449.86,-197.26"/>
</g>
<!-- Node26 -->
<g id="node26" class="node">
<title>Node26</title>
<g id="a_node26"><a xlink:href="renderer_8hpp.html" target="_top" xlink:title=" ">
<polygon fill="none" stroke="black" points="472.5,-112.5 472.5,-131.5 550.5,-131.5 550.5,-112.5 472.5,-112.5"/>
<text text-anchor="middle" x="511.5" y="-119.5" font-family="Helvetica,sans-Serif" font-size="10.00">renderer.hpp</text>
</a>
</g>
</g>
<!-- Node25&#45;&gt;Node26 -->
<g id="edge37" class="edge">
<title>Node25&#45;&gt;Node26</title>
<path fill="none" stroke="midnightblue" d="M477.8,-224.36C491.2,-215.81 506.04,-203.54 513.5,-188 520.45,-173.53 519.06,-155.08 516.45,-141.54"/>
<polygon fill="midnightblue" stroke="midnightblue" points="519.8,-140.46 514.13,-131.51 512.98,-142.04 519.8,-140.46"/>
</g>
<!-- Node26&#45;&gt;Node5 -->
<g id="edge38" class="edge">
<title>Node26&#45;&gt;Node5</title>
<path fill="none" stroke="midnightblue" d="M506.24,-112.37C495.23,-94.3 469.58,-52.18 455.04,-28.31"/>
<polygon fill="midnightblue" stroke="midnightblue" points="457.92,-26.31 449.73,-19.59 451.95,-29.95 457.92,-26.31"/>
</g>
<!-- Node27&#45;&gt;Node23 -->
<g id="edge41" class="edge">
<title>Node27&#45;&gt;Node23</title>
<path fill="none" stroke="midnightblue" d="M403.51,-571.4C381.06,-561.51 351.29,-548.38 329.52,-538.79"/>
<polygon fill="midnightblue" stroke="midnightblue" points="330.71,-535.49 320.14,-534.66 327.88,-541.89 330.71,-535.49"/>
</g>
<!-- Node29 -->
<g id="node29" class="node">
<title>Node29</title>
<g id="a_node29"><a xlink:href="all__messages_8hpp.html" target="_top" xlink:title=" ">
<polygon fill="none" stroke="black" points="546.5,-515.5 546.5,-534.5 650.5,-534.5 650.5,-515.5 546.5,-515.5"/>
<text text-anchor="middle" x="598.5" y="-522.5" font-family="Helvetica,sans-Serif" font-size="10.00">all_messages.hpp</text>
</a>
</g>
</g>
<!-- Node28&#45;&gt;Node29 -->
<g id="edge43" class="edge">
<title>Node28&#45;&gt;Node29</title>
<path fill="none" stroke="midnightblue" d="M598.5,-571.4C598.5,-563.47 598.5,-553.46 598.5,-544.86"/>
<polygon fill="midnightblue" stroke="midnightblue" points="602,-544.66 598.5,-534.66 595,-544.66 602,-544.66"/>
</g>
<!-- Node30 -->
<g id="node30" class="node">
<title>Node30</title>
<g id="a_node30"><a xlink:href="base__message_8hpp.html" target="_top" xlink:title=" ">
<polygon fill="none" stroke="black" points="266.5,-403.5 266.5,-422.5 376.5,-422.5 376.5,-403.5 266.5,-403.5"/>
<text text-anchor="middle" x="321.5" y="-410.5" font-family="Helvetica,sans-Serif" font-size="10.00">base_message.hpp</text>
</a>
</g>
</g>
<!-- Node29&#45;&gt;Node30 -->
<g id="edge44" class="edge">
<title>Node29&#45;&gt;Node30</title>
<path fill="none" stroke="midnightblue" d="M546.24,-524.07C468.5,-522.93 328.13,-515.69 296.5,-479 284.47,-465.05 295.62,-444.67 306.61,-430.47"/>
<polygon fill="midnightblue" stroke="midnightblue" points="309.52,-432.46 313.23,-422.53 304.14,-427.97 309.52,-432.46"/>
</g>
<!-- Node32 -->
<g id="node32" class="node">
<title>Node32</title>
<g id="a_node32"><a xlink:href="private__decorator_8hpp.html" target="_top" xlink:title=" ">
<polygon fill="none" stroke="black" points="434,-459.5 434,-478.5 557,-478.5 557,-459.5 434,-459.5"/>
<text text-anchor="middle" x="495.5" y="-466.5" font-family="Helvetica,sans-Serif" font-size="10.00">private_decorator.hpp</text>
</a>
</g>
</g>
<!-- Node29&#45;&gt;Node32 -->
<g id="edge47" class="edge">
<title>Node29&#45;&gt;Node32</title>
<path fill="none" stroke="midnightblue" d="M581.95,-515.32C565.51,-506.7 540.07,-493.36 521.03,-483.39"/>
<polygon fill="midnightblue" stroke="midnightblue" points="522.49,-480.2 512.01,-478.65 519.24,-486.4 522.49,-480.2"/>
</g>
<!-- Node34 -->
<g id="node34" class="node">
<title>Node34</title>
<g id="a_node34"><a xlink:href="room__decorator_8hpp.html" target="_top" xlink:title=" ">
<polygon fill="none" stroke="black" points="575.5,-459.5 575.5,-478.5 689.5,-478.5 689.5,-459.5 575.5,-459.5"/>
<text text-anchor="middle" x="632.5" y="-466.5" font-family="Helvetica,sans-Serif" font-size="10.00">room_decorator.hpp</text>
</a>
</g>
</g>
<!-- Node29&#45;&gt;Node34 -->
<g id="edge50" class="edge">
<title>Node29&#45;&gt;Node34</title>
<path fill="none" stroke="midnightblue" d="M604.11,-515.08C608.87,-507.53 615.82,-496.49 621.65,-487.23"/>
<polygon fill="midnightblue" stroke="midnightblue" points="624.62,-489.08 626.99,-478.75 618.7,-485.35 624.62,-489.08"/>
</g>
<!-- Node35 -->
<g id="node35" class="node">
<title>Node35</title>
<g id="a_node35"><a xlink:href="sender__decorator_8hpp.html" target="_top" xlink:title=" ">
<polygon fill="none" stroke="black" points="707.5,-459.5 707.5,-478.5 829.5,-478.5 829.5,-459.5 707.5,-459.5"/>
<text text-anchor="middle" x="768.5" y="-466.5" font-family="Helvetica,sans-Serif" font-size="10.00">sender_decorator.hpp</text>
</a>
</g>
</g>
<!-- Node29&#45;&gt;Node35 -->
<g id="edge52" class="edge">
<title>Node29&#45;&gt;Node35</title>
<path fill="none" stroke="midnightblue" d="M625.44,-515.44C654.16,-506.32 699.83,-491.81 731.82,-481.65"/>
<polygon fill="midnightblue" stroke="midnightblue" points="733.22,-484.88 741.69,-478.52 731.1,-478.21 733.22,-484.88"/>
</g>
<!-- Node36 -->
<g id="node36" class="node">
<title>Node36</title>
<g id="a_node36"><a xlink:href="text__decorator_8hpp.html" target="_top" xlink:title=" ">
<polygon fill="none" stroke="black" points="847.5,-459.5 847.5,-478.5 955.5,-478.5 955.5,-459.5 847.5,-459.5"/>
<text text-anchor="middle" x="901.5" y="-466.5" font-family="Helvetica,sans-Serif" font-size="10.00">text_decorator.hpp</text>
</a>
</g>
</g>
<!-- Node29&#45;&gt;Node36 -->
<g id="edge54" class="edge">
<title>Node29&#45;&gt;Node36</title>
<path fill="none" stroke="midnightblue" d="M646.51,-515.44C700.03,-505.9 786.57,-490.48 843.74,-480.29"/>
<polygon fill="midnightblue" stroke="midnightblue" points="844.48,-483.72 853.71,-478.52 843.25,-476.83 844.48,-483.72"/>
</g>
<!-- Node37 -->
<g id="node37" class="node">
<title>Node37</title>
<g id="a_node37"><a xlink:href="time__decorator_8hpp.html" target="_top" xlink:title=" ">
<polygon fill="none" stroke="black" points="305,-459.5 305,-478.5 416,-478.5 416,-459.5 305,-459.5"/>
<text text-anchor="middle" x="360.5" y="-466.5" font-family="Helvetica,sans-Serif" font-size="10.00">time_decorator.hpp</text>
</a>
</g>
</g>
<!-- Node29&#45;&gt;Node37 -->
<g id="edge56" class="edge">
<title>Node29&#45;&gt;Node37</title>
<path fill="none" stroke="midnightblue" d="M560.79,-515.44C519.36,-506.04 452.74,-490.93 407.83,-480.74"/>
<polygon fill="midnightblue" stroke="midnightblue" points="408.56,-477.32 398.04,-478.52 407.01,-484.14 408.56,-477.32"/>
</g>
<!-- Node31 -->
<g id="node31" class="node">
<title>Node31</title>
<g id="a_node31"><a xlink:href="message_8hpp.html" target="_top" xlink:title=" ">
<polygon fill="none" stroke="black" points="315.5,-347.5 315.5,-366.5 397.5,-366.5 397.5,-347.5 315.5,-347.5"/>
<text text-anchor="middle" x="356.5" y="-354.5" font-family="Helvetica,sans-Serif" font-size="10.00">message.hpp</text>
</a>
</g>
</g>
<!-- Node30&#45;&gt;Node31 -->
<g id="edge45" class="edge">
<title>Node30&#45;&gt;Node31</title>
<path fill="none" stroke="midnightblue" d="M327.28,-403.08C332.17,-395.53 339.33,-384.49 345.33,-375.23"/>
<polygon fill="midnightblue" stroke="midnightblue" points="348.33,-377.05 350.83,-366.75 342.45,-373.24 348.33,-377.05"/>
</g>
<!-- Node31&#45;&gt;Node24 -->
<g id="edge46" class="edge">
<title>Node31&#45;&gt;Node24</title>
<path fill="none" stroke="midnightblue" d="M356.5,-347.08C356.5,-340.01 356.5,-329.86 356.5,-320.99"/>
<polygon fill="midnightblue" stroke="midnightblue" points="360,-320.75 356.5,-310.75 353,-320.75 360,-320.75"/>
</g>
<!-- Node33 -->
<g id="node33" class="node">
<title>Node33</title>
<g id="a_node33"><a xlink:href="properties__decorator_8hpp.html" target="_top" xlink:title=" ">
<polygon fill="none" stroke="black" points="511.5,-403.5 511.5,-422.5 649.5,-422.5 649.5,-403.5 511.5,-403.5"/>
<text text-anchor="middle" x="580.5" y="-410.5" font-family="Helvetica,sans-Serif" font-size="10.00">properties_decorator.hpp</text>
</a>
</g>
</g>
<!-- Node32&#45;&gt;Node33 -->
<g id="edge48" class="edge">
<title>Node32&#45;&gt;Node33</title>
<path fill="none" stroke="midnightblue" d="M509.16,-459.32C522.42,-450.9 542.77,-437.97 558.35,-428.07"/>
<polygon fill="midnightblue" stroke="midnightblue" points="560.31,-430.97 566.88,-422.65 556.56,-425.06 560.31,-430.97"/>
</g>
<!-- Node33&#45;&gt;Node31 -->
<g id="edge49" class="edge">
<title>Node33&#45;&gt;Node31</title>
<path fill="none" stroke="midnightblue" d="M545.01,-403.44C506.18,-394.08 443.84,-379.06 401.58,-368.87"/>
<polygon fill="midnightblue" stroke="midnightblue" points="402.37,-365.46 391.83,-366.52 400.73,-372.26 402.37,-365.46"/>
</g>
<!-- Node34&#45;&gt;Node33 -->
<g id="edge51" class="edge">
<title>Node34&#45;&gt;Node33</title>
<path fill="none" stroke="midnightblue" d="M623.91,-459.08C616.34,-451.22 605.12,-439.57 595.99,-430.08"/>
<polygon fill="midnightblue" stroke="midnightblue" points="598.38,-427.53 588.93,-422.75 593.34,-432.38 598.38,-427.53"/>
</g>
<!-- Node35&#45;&gt;Node33 -->
<g id="edge53" class="edge">
<title>Node35&#45;&gt;Node33</title>
<path fill="none" stroke="midnightblue" d="M738.71,-459.44C706.67,-450.24 655.57,-435.56 620.15,-425.39"/>
<polygon fill="midnightblue" stroke="midnightblue" points="620.73,-421.91 610.15,-422.52 618.79,-428.64 620.73,-421.91"/>
</g>
<!-- Node36&#45;&gt;Node33 -->
<g id="edge55" class="edge">
<title>Node36&#45;&gt;Node33</title>
<path fill="none" stroke="midnightblue" d="M850.64,-459.44C793.82,-449.89 701.88,-434.42 641.31,-424.23"/>
<polygon fill="midnightblue" stroke="midnightblue" points="641.57,-420.72 631.13,-422.52 640.41,-427.63 641.57,-420.72"/>
</g>
<!-- Node37&#45;&gt;Node33 -->
<g id="edge57" class="edge">
<title>Node37&#45;&gt;Node33</title>
<path fill="none" stroke="midnightblue" d="M395.36,-459.44C433.42,-450.1 494.46,-435.12 535.96,-424.93"/>
<polygon fill="midnightblue" stroke="midnightblue" points="536.93,-428.3 545.8,-422.52 535.26,-421.5 536.93,-428.3"/>
</g>
<!-- Node38 -->
<g id="node38" class="node">
<title>Node38</title>
<g id="a_node38"><a xlink:title=" ">
<polygon fill="none" stroke="#bfbfbf" points="394.5,-403.5 394.5,-422.5 442.5,-422.5 442.5,-403.5 394.5,-403.5"/>
<text text-anchor="middle" x="418.5" y="-410.5" font-family="Helvetica,sans-Serif" font-size="10.00">time.h</text>
</a>
</g>
</g>
<!-- Node37&#45;&gt;Node38 -->
<g id="edge58" class="edge">
<title>Node37&#45;&gt;Node38</title>
<path fill="none" stroke="midnightblue" d="M369.82,-459.32C378.39,-451.34 391.31,-439.31 401.69,-429.65"/>
<polygon fill="midnightblue" stroke="midnightblue" points="404.08,-432.21 409.01,-422.83 399.31,-427.09 404.08,-432.21"/>
</g>
<!-- Node39&#45;&gt;Node11 -->
<g id="edge68" class="edge">
<title>Node39&#45;&gt;Node11</title>
<path fill="none" stroke="midnightblue" d="M334.32,-758.7C267.16,-756.13 124.5,-739.96 124.5,-649 124.5,-649 124.5,-649 124.5,-356 124.5,-309.34 171.74,-277.27 209.91,-258.98"/>
<polygon fill="midnightblue" stroke="midnightblue" points="211.76,-261.98 219.39,-254.62 208.84,-255.62 211.76,-261.98"/>
</g>
<!-- Node39&#45;&gt;Node18 -->
<g id="edge70" class="edge">
<title>Node39&#45;&gt;Node18</title>
<path fill="none" stroke="midnightblue" d="M358.7,-750.32C349.68,-742.34 336.09,-730.31 325.18,-720.65"/>
<polygon fill="midnightblue" stroke="midnightblue" points="327.29,-717.84 317.48,-713.83 322.65,-723.08 327.29,-717.84"/>
</g>
<!-- Node39&#45;&gt;Node19 -->
<g id="edge60" class="edge">
<title>Node39&#45;&gt;Node19</title>
<path fill="none" stroke="midnightblue" d="M373.99,-750.37C385.49,-732.3 412.3,-690.18 427.49,-666.31"/>
<polygon fill="midnightblue" stroke="midnightblue" points="430.62,-667.91 433.03,-657.59 424.71,-664.15 430.62,-667.91"/>
</g>
<!-- Node39&#45;&gt;Node21 -->
<g id="edge69" class="edge">
<title>Node39&#45;&gt;Node21</title>
<path fill="none" stroke="midnightblue" d="M367.04,-750.1C364.64,-737.09 359.04,-712.46 348.5,-694 342.37,-683.26 333.28,-672.94 325.21,-664.9"/>
<polygon fill="midnightblue" stroke="midnightblue" points="327.29,-662.04 317.64,-657.68 322.47,-667.11 327.29,-662.04"/>
</g>
<!-- Node40 -->
<g id="node40" class="node">
<title>Node40</title>
<g id="a_node40"><a xlink:title=" ">
<polygon fill="none" stroke="#bfbfbf" points="620.5,-694.5 620.5,-713.5 652.5,-713.5 652.5,-694.5 620.5,-694.5"/>
<text text-anchor="middle" x="636.5" y="-701.5" font-family="Helvetica,sans-Serif" font-size="10.00">list</text>
</a>
</g>
</g>
<!-- Node39&#45;&gt;Node40 -->
<g id="edge61" class="edge">
<title>Node39&#45;&gt;Node40</title>
<path fill="none" stroke="midnightblue" d="M402.88,-754.61C448.56,-748.36 531.84,-735.49 610.32,-714.26"/>
<polygon fill="midnightblue" stroke="midnightblue" points="611.65,-717.53 620.36,-711.49 609.79,-710.78 611.65,-717.53"/>
</g>
<!-- Node41 -->
<g id="node41" class="node">
<title>Node41</title>
<g id="a_node41"><a xlink:href="simple__database_8hpp.html" target="_top" xlink:title=" ">
<polygon fill="none" stroke="black" points="434,-694.5 434,-713.5 603,-713.5 603,-694.5 434,-694.5"/>
<text text-anchor="middle" x="518.5" y="-701.5" font-family="Helvetica,sans-Serif" font-size="10.00">database/simple_database.hpp</text>
</a>
</g>
</g>
<!-- Node39&#45;&gt;Node41 -->
<g id="edge62" class="edge">
<title>Node39&#45;&gt;Node41</title>
<path fill="none" stroke="midnightblue" d="M392.27,-750.44C417.39,-741.4 457.21,-727.06 485.4,-716.92"/>
<polygon fill="midnightblue" stroke="midnightblue" points="486.62,-720.2 494.84,-713.52 484.25,-713.61 486.62,-720.2"/>
</g>
<!-- Node41&#45;&gt;Node3 -->
<g id="edge67" class="edge">
<title>Node41&#45;&gt;Node3</title>
<path fill="none" stroke="midnightblue" d="M603.22,-694.65C702.22,-684.9 865.69,-668.79 969.64,-658.54"/>
<polygon fill="midnightblue" stroke="midnightblue" points="970.21,-662.01 979.82,-657.54 969.52,-655.04 970.21,-662.01"/>
</g>
<!-- Node41&#45;&gt;Node7 -->
<g id="edge66" class="edge">
<title>Node41&#45;&gt;Node7</title>
<path fill="none" stroke="midnightblue" d="M577.86,-694.45C703.22,-672.69 983.5,-602.91 983.5,-414 983.5,-414 983.5,-414 983.5,-177 983.5,-110.81 756.51,-80.24 664.53,-70.56"/>
<polygon fill="midnightblue" stroke="midnightblue" points="664.82,-67.08 654.51,-69.54 664.1,-74.04 664.82,-67.08"/>
</g>
<!-- Node41&#45;&gt;Node19 -->
<g id="edge64" class="edge">
<title>Node41&#45;&gt;Node19</title>
<path fill="none" stroke="midnightblue" d="M505.65,-694.32C493.28,-685.98 474.37,-673.21 459.76,-663.35"/>
<polygon fill="midnightblue" stroke="midnightblue" points="461.57,-660.35 451.32,-657.65 457.65,-666.15 461.57,-660.35"/>
</g>
<!-- Node41&#45;&gt;Node20 -->
<g id="edge65" class="edge">
<title>Node41&#45;&gt;Node20</title>
<path fill="none" stroke="midnightblue" d="M518.5,-694.08C518.5,-687.01 518.5,-676.86 518.5,-667.99"/>
<polygon fill="midnightblue" stroke="midnightblue" points="522,-667.75 518.5,-657.75 515,-667.75 522,-667.75"/>
</g>
<!-- Node42 -->
<g id="node42" class="node">
<title>Node42</title>
<g id="a_node42"><a xlink:title=" ">
<polygon fill="none" stroke="#bfbfbf" points="564,-638.5 564,-657.5 611,-657.5 611,-638.5 564,-638.5"/>
<text text-anchor="middle" x="587.5" y="-645.5" font-family="Helvetica,sans-Serif" font-size="10.00">deque</text>
</a>
</g>
</g>
<!-- Node41&#45;&gt;Node42 -->
<g id="edge63" class="edge">
<title>Node41&#45;&gt;Node42</title>
<path fill="none" stroke="midnightblue" d="M529.59,-694.32C539.99,-686.18 555.76,-673.84 568.22,-664.09"/>
<polygon fill="midnightblue" stroke="midnightblue" points="570.49,-666.75 576.21,-657.83 566.18,-661.24 570.49,-666.75"/>
</g>
</g>
</svg>
