<?xml version="1.0" encoding="UTF-8" standalone="no"?>
<!DOCTYPE svg PUBLIC "-//W3C//DTD SVG 1.1//EN"
 "http://www.w3.org/Graphics/SVG/1.1/DTD/svg11.dtd">
<!-- Generated by graphviz version 2.43.0 (0)
 -->
<!-- Title: /home/alexander/Documents/Seminars/TP/Project/src/general/request_handlers/client_handler.hpp Pages: 1 -->
<!--zoomable 285 -->
<svg id="main" version="1.1" xmlns="http://www.w3.org/2000/svg" xmlns:xlink="http://www.w3.org/1999/xlink" xml:space="preserve" onload="init(evt)">
<style type="text/css"><![CDATA[
.edge:hover path { stroke: red; }
.edge:hover polygon { stroke: red; fill: red; }
]]></style>
<script type="text/javascript"><![CDATA[
var edges = document.getElementsByTagName('g');
if (edges && edges.length) {
  for (var i=0;i<edges.length;i++) {
    if (edges[i].id.substr(0,4)=='edge') {
      edges[i].setAttribute('class','edge');
    }
  }
}
]]></script>
        <defs>
                <circle id="rim" cx="0" cy="0" r="7"/>
                <circle id="rim2" cx="0" cy="0" r="3.5"/>
                <g id="zoomPlus">
                        <use xlink:href="#rim" fill="#404040">
                                <set attributeName="fill" to="#808080" begin="zoomplus.mouseover" end="zoomplus.mouseout"/>
                        </use>
                        <path d="M-4,0h8M0,-4v8" fill="none" stroke="white" stroke-width="1.5" pointer-events="none"/>
                </g>
                <g id="zoomMin">
                        <use xlink:href="#rim" fill="#404040">
                                <set attributeName="fill" to="#808080" begin="zoomminus.mouseover" end="zoomminus.mouseout"/>
                        </use>
                        <path d="M-4,0h8" fill="none" stroke="white" stroke-width="1.5" pointer-events="none"/>
                </g>
                <g id="dirArrow">
                        <path fill="none" stroke="white" stroke-width="1.5" d="M0,-3.0v7 M-2.5,-0.5L0,-3.0L2.5,-0.5"/>
                </g>
               <g id="resetDef">
                       <use xlink:href="#rim2" fill="#404040">
                               <set attributeName="fill" to="#808080" begin="reset.mouseover" end="reset.mouseout"/>
                       </use>
               </g>
        </defs>

<script type="text/javascript">
var viewWidth = 573;
var viewHeight = 285;
var sectionId = 'dynsection-0';
</script>
<script xlink:href="svgpan.js"/>
<svg id="graph" class="graph">
<g id="viewport">
<title>/home/alexander/Documents/Seminars/TP/Project/src/general/request_handlers/client_handler.hpp</title>
<!-- Node1 -->
<g id="node1" class="node">
<title>Node1</title>
<g id="a_node1"><a xlink:title=" ">
<polygon fill="#bfbfbf" stroke="black" points="186.73,-224.5 186.73,-276.5 344.73,-276.5 344.73,-224.5 186.73,-224.5"/>
<text text-anchor="start" x="194.73" y="-264.5" font-family="Helvetica,sans-Serif" font-size="10.00">/home/alexander/Documents</text>
<text text-anchor="start" x="194.73" y="-253.5" font-family="Helvetica,sans-Serif" font-size="10.00">/Seminars/TP/Project/src</text>
<text text-anchor="start" x="194.73" y="-242.5" font-family="Helvetica,sans-Serif" font-size="10.00">/general/request_handlers</text>
<text text-anchor="middle" x="265.73" y="-231.5" font-family="Helvetica,sans-Serif" font-size="10.00">/client_handler.hpp</text>
</a>
</g>
</g>
<!-- Node2 -->
<g id="node2" class="node">
<title>Node2</title>
<g id="a_node2"><a xlink:href="abstract__handler_8hpp.html" target="_top" xlink:title=" ">
<polygon fill="none" stroke="black" points="148.23,-168.5 148.23,-187.5 267.23,-187.5 267.23,-168.5 148.23,-168.5"/>
<text text-anchor="middle" x="207.73" y="-175.5" font-family="Helvetica,sans-Serif" font-size="10.00">abstract_handler.hpp</text>
</a>
</g>
</g>
<!-- Node1&#45;&gt;Node2 -->
<g id="edge1" class="edge">
<title>Node1&#45;&gt;Node2</title>
<path fill="none" stroke="midnightblue" d="M245.12,-224.45C237.21,-214.83 228.39,-204.1 221.3,-195.49"/>
<polygon fill="midnightblue" stroke="midnightblue" points="223.94,-193.19 214.89,-187.7 218.54,-197.64 223.94,-193.19"/>
</g>
<!-- Node13 -->
<g id="node13" class="node">
<title>Node13</title>
<g id="a_node13"><a xlink:href="renderer_8hpp.html" target="_top" xlink:title=" ">
<polygon fill="none" stroke="black" points="363.73,-168.5 363.73,-187.5 441.73,-187.5 441.73,-168.5 363.73,-168.5"/>
<text text-anchor="middle" x="402.73" y="-175.5" font-family="Helvetica,sans-Serif" font-size="10.00">renderer.hpp</text>
</a>
</g>
</g>
<!-- Node1&#45;&gt;Node13 -->
<g id="edge16" class="edge">
<title>Node1&#45;&gt;Node13</title>
<path fill="none" stroke="midnightblue" d="M314.42,-224.45C335.57,-213.56 359.49,-201.25 377.09,-192.2"/>
<polygon fill="midnightblue" stroke="midnightblue" points="378.87,-195.21 386.16,-187.53 375.67,-188.99 378.87,-195.21"/>
</g>
<!-- Node3 -->
<g id="node3" class="node">
<title>Node3</title>
<g id="a_node3"><a xlink:title=" ">
<polygon fill="none" stroke="#bfbfbf" points="224.73,-0.5 224.73,-19.5 282.73,-19.5 282.73,-0.5 224.73,-0.5"/>
<text text-anchor="middle" x="253.73" y="-7.5" font-family="Helvetica,sans-Serif" font-size="10.00">memory</text>
</a>
</g>
</g>
<!-- Node2&#45;&gt;Node3 -->
<g id="edge2" class="edge">
<title>Node2&#45;&gt;Node3</title>
<path fill="none" stroke="midnightblue" d="M164.35,-168.46C92.72,-152.48 -37.78,-114.32 10.73,-56 36.15,-25.44 152.06,-15.55 214.17,-12.41"/>
<polygon fill="midnightblue" stroke="midnightblue" points="214.55,-15.9 224.38,-11.93 214.22,-8.9 214.55,-15.9"/>
</g>
<!-- Node4 -->
<g id="node4" class="node">
<title>Node4</title>
<g id="a_node4"><a xlink:href="account_8hpp.html" target="_top" xlink:title=" ">
<polygon fill="none" stroke="black" points="115.73,-112.5 115.73,-131.5 191.73,-131.5 191.73,-112.5 115.73,-112.5"/>
<text text-anchor="middle" x="153.73" y="-119.5" font-family="Helvetica,sans-Serif" font-size="10.00">account.hpp</text>
</a>
</g>
</g>
<!-- Node2&#45;&gt;Node4 -->
<g id="edge3" class="edge">
<title>Node2&#45;&gt;Node4</title>
<path fill="none" stroke="midnightblue" d="M198.82,-168.08C190.95,-160.22 179.3,-148.57 169.81,-139.08"/>
<polygon fill="midnightblue" stroke="midnightblue" points="172.03,-136.35 162.48,-131.75 167.08,-141.3 172.03,-136.35"/>
</g>
<!-- Node8 -->
<g id="node8" class="node">
<title>Node8</title>
<g id="a_node8"><a xlink:href="socket_8hpp.html" target="_top" xlink:title=" ">
<polygon fill="none" stroke="black" points="241.73,-112.5 241.73,-131.5 345.73,-131.5 345.73,-112.5 241.73,-112.5"/>
<text text-anchor="middle" x="293.73" y="-119.5" font-family="Helvetica,sans-Serif" font-size="10.00">socket/socket.hpp</text>
</a>
</g>
</g>
<!-- Node2&#45;&gt;Node8 -->
<g id="edge8" class="edge">
<title>Node2&#45;&gt;Node8</title>
<path fill="none" stroke="midnightblue" d="M221.55,-168.32C234.97,-159.9 255.56,-146.97 271.32,-137.07"/>
<polygon fill="midnightblue" stroke="midnightblue" points="273.34,-139.94 279.95,-131.65 269.62,-134.01 273.34,-139.94"/>
</g>
<!-- Node4&#45;&gt;Node3 -->
<g id="edge4" class="edge">
<title>Node4&#45;&gt;Node3</title>
<path fill="none" stroke="midnightblue" d="M154.19,-112.48C155.32,-99.09 159.23,-72.9 172.73,-56 184.37,-41.43 202.08,-30.83 217.98,-23.59"/>
<polygon fill="midnightblue" stroke="midnightblue" points="219.74,-26.64 227.57,-19.51 217,-20.2 219.74,-26.64"/>
</g>
<!-- Node5 -->
<g id="node5" class="node">
<title>Node5</title>
<g id="a_node5"><a xlink:title=" ">
<polygon fill="none" stroke="#bfbfbf" points="93.73,-56.5 93.73,-75.5 125.73,-75.5 125.73,-56.5 93.73,-56.5"/>
<text text-anchor="middle" x="109.73" y="-63.5" font-family="Helvetica,sans-Serif" font-size="10.00">set</text>
</a>
</g>
</g>
<!-- Node4&#45;&gt;Node5 -->
<g id="edge5" class="edge">
<title>Node4&#45;&gt;Node5</title>
<path fill="none" stroke="midnightblue" d="M146.47,-112.08C140.19,-104.38 130.95,-93.03 123.3,-83.65"/>
<polygon fill="midnightblue" stroke="midnightblue" points="125.89,-81.29 116.86,-75.75 120.47,-85.71 125.89,-81.29"/>
</g>
<!-- Node6 -->
<g id="node6" class="node">
<title>Node6</title>
<g id="a_node6"><a xlink:title=" ">
<polygon fill="none" stroke="#bfbfbf" points="19.73,-56.5 19.73,-75.5 75.73,-75.5 75.73,-56.5 19.73,-56.5"/>
<text text-anchor="middle" x="47.73" y="-63.5" font-family="Helvetica,sans-Serif" font-size="10.00">sstream</text>
</a>
</g>
</g>
<!-- Node4&#45;&gt;Node6 -->
<g id="edge6" class="edge">
<title>Node4&#45;&gt;Node6</title>
<path fill="none" stroke="midnightblue" d="M136.7,-112.32C119.7,-103.66 93.36,-90.24 73.74,-80.25"/>
<polygon fill="midnightblue" stroke="midnightblue" points="75.22,-77.08 64.72,-75.65 72.04,-83.31 75.22,-77.08"/>
</g>
<!-- Node7 -->
<g id="node7" class="node">
<title>Node7</title>
<g id="a_node7"><a xlink:title=" ">
<polygon fill="none" stroke="#bfbfbf" points="181.73,-56.5 181.73,-75.5 225.73,-75.5 225.73,-56.5 181.73,-56.5"/>
<text text-anchor="middle" x="203.73" y="-63.5" font-family="Helvetica,sans-Serif" font-size="10.00">string</text>
</a>
</g>
</g>
<!-- Node4&#45;&gt;Node7 -->
<g id="edge7" class="edge">
<title>Node4&#45;&gt;Node7</title>
<path fill="none" stroke="midnightblue" d="M161.99,-112.08C169.2,-104.3 179.84,-92.8 188.58,-83.37"/>
<polygon fill="midnightblue" stroke="midnightblue" points="191.4,-85.47 195.63,-75.75 186.27,-80.71 191.4,-85.47"/>
</g>
<!-- Node8&#45;&gt;Node3 -->
<g id="edge11" class="edge">
<title>Node8&#45;&gt;Node3</title>
<path fill="none" stroke="midnightblue" d="M289.14,-112.21C284.59,-103.26 277.6,-88.91 272.73,-76 266.9,-60.53 261.74,-42.44 258.28,-29.28"/>
<polygon fill="midnightblue" stroke="midnightblue" points="261.66,-28.37 255.79,-19.55 254.88,-30.1 261.66,-28.37"/>
</g>
<!-- Node8&#45;&gt;Node7 -->
<g id="edge12" class="edge">
<title>Node8&#45;&gt;Node7</title>
<path fill="none" stroke="midnightblue" d="M279.27,-112.32C265.23,-103.9 243.68,-90.97 227.19,-81.07"/>
<polygon fill="midnightblue" stroke="midnightblue" points="228.53,-77.8 218.16,-75.65 224.93,-83.8 228.53,-77.8"/>
</g>
<!-- Node9 -->
<g id="node9" class="node">
<title>Node9</title>
<g id="a_node9"><a xlink:title=" ">
<polygon fill="none" stroke="#bfbfbf" points="281.73,-56.5 281.73,-75.5 369.73,-75.5 369.73,-56.5 281.73,-56.5"/>
<text text-anchor="middle" x="325.73" y="-63.5" font-family="Helvetica,sans-Serif" font-size="10.00">boost/asio.hpp</text>
</a>
</g>
</g>
<!-- Node8&#45;&gt;Node9 -->
<g id="edge9" class="edge">
<title>Node8&#45;&gt;Node9</title>
<path fill="none" stroke="midnightblue" d="M299.02,-112.08C303.44,-104.61 309.9,-93.72 315.35,-84.52"/>
<polygon fill="midnightblue" stroke="midnightblue" points="318.46,-86.14 320.55,-75.75 312.44,-82.57 318.46,-86.14"/>
</g>
<!-- Node10 -->
<g id="node10" class="node">
<title>Node10</title>
<g id="a_node10"><a xlink:title=" ">
<polygon fill="none" stroke="#bfbfbf" points="388.23,-56.5 388.23,-75.5 453.23,-75.5 453.23,-56.5 388.23,-56.5"/>
<text text-anchor="middle" x="420.73" y="-63.5" font-family="Helvetica,sans-Serif" font-size="10.00">functional</text>
</a>
</g>
</g>
<!-- Node8&#45;&gt;Node10 -->
<g id="edge10" class="edge">
<title>Node8&#45;&gt;Node10</title>
<path fill="none" stroke="midnightblue" d="M313.86,-112.44C334.76,-103.56 367.67,-89.56 391.45,-79.45"/>
<polygon fill="midnightblue" stroke="midnightblue" points="392.87,-82.65 400.7,-75.52 390.13,-76.21 392.87,-82.65"/>
</g>
<!-- Node11 -->
<g id="node11" class="node">
<title>Node11</title>
<g id="a_node11"><a xlink:href="general_2socket_2log_8hpp.html" target="_top" xlink:title=" ">
<polygon fill="none" stroke="black" points="510.23,-56.5 510.23,-75.5 563.23,-75.5 563.23,-56.5 510.23,-56.5"/>
<text text-anchor="middle" x="536.73" y="-63.5" font-family="Helvetica,sans-Serif" font-size="10.00">log.hpp</text>
</a>
</g>
</g>
<!-- Node8&#45;&gt;Node11 -->
<g id="edge13" class="edge">
<title>Node8&#45;&gt;Node11</title>
<path fill="none" stroke="midnightblue" d="M332.24,-112.44C378.3,-102.21 454.85,-85.2 500.07,-75.15"/>
<polygon fill="midnightblue" stroke="midnightblue" points="501.04,-78.52 510.04,-72.93 499.52,-71.68 501.04,-78.52"/>
</g>
<!-- Node11&#45;&gt;Node3 -->
<g id="edge14" class="edge">
<title>Node11&#45;&gt;Node3</title>
<path fill="none" stroke="midnightblue" d="M509.85,-58.97C505.15,-57.95 500.3,-56.93 495.73,-56 424.33,-41.53 340.7,-26.37 292.8,-17.86"/>
<polygon fill="midnightblue" stroke="midnightblue" points="293.3,-14.4 282.85,-16.1 292.08,-21.29 293.3,-14.4"/>
</g>
<!-- Node12 -->
<g id="node12" class="node">
<title>Node12</title>
<g id="a_node12"><a xlink:title=" ">
<polygon fill="none" stroke="#bfbfbf" points="508.23,-0.5 508.23,-19.5 565.23,-19.5 565.23,-0.5 508.23,-0.5"/>
<text text-anchor="middle" x="536.73" y="-7.5" font-family="Helvetica,sans-Serif" font-size="10.00">ostream</text>
</a>
</g>
</g>
<!-- Node11&#45;&gt;Node12 -->
<g id="edge15" class="edge">
<title>Node11&#45;&gt;Node12</title>
<path fill="none" stroke="midnightblue" d="M536.73,-56.08C536.73,-49.01 536.73,-38.86 536.73,-29.99"/>
<polygon fill="midnightblue" stroke="midnightblue" points="540.23,-29.75 536.73,-19.75 533.23,-29.75 540.23,-29.75"/>
</g>
<!-- Node13&#45;&gt;Node3 -->
<g id="edge17" class="edge">
<title>Node13&#45;&gt;Node3</title>
<path fill="none" stroke="midnightblue" d="M413.1,-168.34C436.97,-147.37 491.52,-92.92 461.73,-56 440.92,-30.2 347.09,-18.46 292.83,-13.74"/>
<polygon fill="midnightblue" stroke="midnightblue" points="293.12,-10.26 282.87,-12.92 292.54,-17.23 293.12,-10.26"/>
</g>
</g>
</svg>
        <g id="navigator" transform="translate(0 0)" fill="#404254">
                <rect fill="#f2f5e9" fill-opacity="0.5" stroke="#606060" stroke-width=".5" x="0" y="0" width="60" height="60"/>
                <use id="zoomplus" xlink:href="#zoomPlus" x="17" y="9" onmousedown="handleZoom(evt,'in')"/>
                <use id="zoomminus" xlink:href="#zoomMin" x="42" y="9" onmousedown="handleZoom(evt,'out')"/>
                <use id="reset" xlink:href="#resetDef" x="30" y="36" onmousedown="handleReset()"/>
                <g id="arrowUp" xlink:href="#dirArrow" transform="translate(30 24)" onmousedown="handlePan(0,-1)">
                  <use xlink:href="#rim" fill="#404040">
                        <set attributeName="fill" to="#808080" begin="arrowUp.mouseover" end="arrowUp.mouseout"/>
                  </use>
                  <path fill="none" stroke="white" stroke-width="1.5" d="M0,-3.0v7 M-2.5,-0.5L0,-3.0L2.5,-0.5"/>
                </g>
                <g id="arrowRight" xlink:href="#dirArrow" transform="rotate(90) translate(36 -43)" onmousedown="handlePan(1,0)">
                  <use xlink:href="#rim" fill="#404040">
                        <set attributeName="fill" to="#808080" begin="arrowRight.mouseover" end="arrowRight.mouseout"/>
                  </use>
                  <path fill="none" stroke="white" stroke-width="1.5" d="M0,-3.0v7 M-2.5,-0.5L0,-3.0L2.5,-0.5"/>
                </g>
                <g id="arrowDown" xlink:href="#dirArrow" transform="rotate(180) translate(-30 -48)" onmousedown="handlePan(0,1)">
                  <use xlink:href="#rim" fill="#404040">
                        <set attributeName="fill" to="#808080" begin="arrowDown.mouseover" end="arrowDown.mouseout"/>
                  </use>
                  <path fill="none" stroke="white" stroke-width="1.5" d="M0,-3.0v7 M-2.5,-0.5L0,-3.0L2.5,-0.5"/>
                </g>
                <g id="arrowLeft" xlink:href="#dirArrow" transform="rotate(270) translate(-36 17)" onmousedown="handlePan(-1,0)">
                  <use xlink:href="#rim" fill="#404040">
                        <set attributeName="fill" to="#808080" begin="arrowLeft.mouseover" end="arrowLeft.mouseout"/>
                  </use>
                  <path fill="none" stroke="white" stroke-width="1.5" d="M0,-3.0v7 M-2.5,-0.5L0,-3.0L2.5,-0.5"/>
                </g>
        </g>
        <svg viewBox="0 0 15 15" width="100%" height="30px" preserveAspectRatio="xMaxYMin meet">
         <g id="arrow_out" transform="scale(0.3 0.3)">
          <a xlink:href="client__handler_8hpp__incl_org.svg" target="_base">
           <rect id="button" ry="5" rx="5" y="6" x="6" height="38" width="38"
                fill="#f2f5e9" fill-opacity="0.5" stroke="#606060" stroke-width="1.0"/>
           <path id="arrow"
             d="M 11.500037,31.436501 C 11.940474,20.09759 22.043105,11.32322 32.158766,21.979434 L 37.068811,17.246167 C 37.068811,17.246167 37.088388,32 37.088388,32 L 22.160133,31.978069 C 22.160133,31.978069 26.997745,27.140456 26.997745,27.140456 C 18.528582,18.264221 13.291696,25.230495 11.500037,31.436501 z"
             style="fill:#404040;"/>
          </a>
         </g>
        </svg>
</svg>
