<?xml version="1.0" encoding="UTF-8" standalone="no"?>
<!DOCTYPE svg PUBLIC "-//W3C//DTD SVG 1.1//EN"
 "http://www.w3.org/Graphics/SVG/1.1/DTD/svg11.dtd">
<!-- Generated by graphviz version 2.43.0 (0)
 -->
<!-- Title: /home/alexander/Documents/Seminars/TP/Project/src/client_side/log.cpp Pages: 1 -->
<svg width="199pt" height="218pt"
 viewBox="0.00 0.00 198.50 218.00" xmlns="http://www.w3.org/2000/svg" xmlns:xlink="http://www.w3.org/1999/xlink">
<g id="graph0" class="graph" transform="scale(1 1) rotate(0) translate(4 214)">
<title>/home/alexander/Documents/Seminars/TP/Project/src/client_side/log.cpp</title>
<!-- Node1 -->
<g id="node1" class="node">
<title>Node1</title>
<g id="a_node1"><a xlink:title=" ">
<polygon fill="#bfbfbf" stroke="black" points="0,-168.5 0,-209.5 158,-209.5 158,-168.5 0,-168.5"/>
<text text-anchor="start" x="8" y="-197.5" font-family="Helvetica,sans-Serif" font-size="10.00">/home/alexander/Documents</text>
<text text-anchor="start" x="8" y="-186.5" font-family="Helvetica,sans-Serif" font-size="10.00">/Seminars/TP/Project/src</text>
<text text-anchor="middle" x="79" y="-175.5" font-family="Helvetica,sans-Serif" font-size="10.00">/client_side/log.cpp</text>
</a>
</g>
</g>
<!-- Node2 -->
<g id="node2" class="node">
<title>Node2</title>
<g id="a_node2"><a xlink:href="client__side_2log_8hpp.html" target="_top" xlink:title=" ">
<polygon fill="none" stroke="black" points="52.5,-112.5 52.5,-131.5 105.5,-131.5 105.5,-112.5 52.5,-112.5"/>
<text text-anchor="middle" x="79" y="-119.5" font-family="Helvetica,sans-Serif" font-size="10.00">log.hpp</text>
</a>
</g>
</g>
<!-- Node1&#45;&gt;Node2 -->
<g id="edge1" class="edge">
<title>Node1&#45;&gt;Node2</title>
<path fill="none" stroke="midnightblue" d="M79,-168.5C79,-160.07 79,-150.24 79,-141.87"/>
<polygon fill="midnightblue" stroke="midnightblue" points="82.5,-141.65 79,-131.65 75.5,-141.65 82.5,-141.65"/>
</g>
<!-- Node3 -->
<g id="node3" class="node">
<title>Node3</title>
<g id="a_node3"><a xlink:title=" ">
<polygon fill="none" stroke="#bfbfbf" points="7.5,-56.5 7.5,-75.5 62.5,-75.5 62.5,-56.5 7.5,-56.5"/>
<text text-anchor="middle" x="35" y="-63.5" font-family="Helvetica,sans-Serif" font-size="10.00">fstream</text>
</a>
</g>
</g>
<!-- Node2&#45;&gt;Node3 -->
<g id="edge2" class="edge">
<title>Node2&#45;&gt;Node3</title>
<path fill="none" stroke="midnightblue" d="M71.73,-112.08C65.46,-104.38 56.21,-93.03 48.57,-83.65"/>
<polygon fill="midnightblue" stroke="midnightblue" points="51.16,-81.29 42.13,-75.75 45.73,-85.71 51.16,-81.29"/>
</g>
<!-- Node4 -->
<g id="node4" class="node">
<title>Node4</title>
<g id="a_node4"><a xlink:href="general_2socket_2log_8hpp.html" target="_top" xlink:title=" ">
<polygon fill="none" stroke="black" points="80.5,-56.5 80.5,-75.5 167.5,-75.5 167.5,-56.5 80.5,-56.5"/>
<text text-anchor="middle" x="124" y="-63.5" font-family="Helvetica,sans-Serif" font-size="10.00">socket/log.hpp</text>
</a>
</g>
</g>
<!-- Node2&#45;&gt;Node4 -->
<g id="edge3" class="edge">
<title>Node2&#45;&gt;Node4</title>
<path fill="none" stroke="midnightblue" d="M86.43,-112.08C92.85,-104.38 102.31,-93.03 110.12,-83.65"/>
<polygon fill="midnightblue" stroke="midnightblue" points="112.99,-85.67 116.71,-75.75 107.62,-81.19 112.99,-85.67"/>
</g>
<!-- Node5 -->
<g id="node5" class="node">
<title>Node5</title>
<g id="a_node5"><a xlink:title=" ">
<polygon fill="none" stroke="#bfbfbf" points="57,-0.5 57,-19.5 115,-19.5 115,-0.5 57,-0.5"/>
<text text-anchor="middle" x="86" y="-7.5" font-family="Helvetica,sans-Serif" font-size="10.00">memory</text>
</a>
</g>
</g>
<!-- Node4&#45;&gt;Node5 -->
<g id="edge4" class="edge">
<title>Node4&#45;&gt;Node5</title>
<path fill="none" stroke="midnightblue" d="M117.73,-56.08C112.36,-48.46 104.48,-37.26 97.92,-27.94"/>
<polygon fill="midnightblue" stroke="midnightblue" points="100.78,-25.91 92.16,-19.75 95.05,-29.94 100.78,-25.91"/>
</g>
<!-- Node6 -->
<g id="node6" class="node">
<title>Node6</title>
<g id="a_node6"><a xlink:title=" ">
<polygon fill="none" stroke="#bfbfbf" points="133.5,-0.5 133.5,-19.5 190.5,-19.5 190.5,-0.5 133.5,-0.5"/>
<text text-anchor="middle" x="162" y="-7.5" font-family="Helvetica,sans-Serif" font-size="10.00">ostream</text>
</a>
</g>
</g>
<!-- Node4&#45;&gt;Node6 -->
<g id="edge5" class="edge">
<title>Node4&#45;&gt;Node6</title>
<path fill="none" stroke="midnightblue" d="M130.27,-56.08C135.64,-48.46 143.52,-37.26 150.08,-27.94"/>
<polygon fill="midnightblue" stroke="midnightblue" points="152.95,-29.94 155.84,-19.75 147.22,-25.91 152.95,-29.94"/>
</g>
</g>
</svg>
