<?xml version="1.0" encoding="UTF-8" standalone="no"?>
<!DOCTYPE svg PUBLIC "-//W3C//DTD SVG 1.1//EN"
 "http://www.w3.org/Graphics/SVG/1.1/DTD/svg11.dtd">
<!-- Generated by graphviz version 2.43.0 (0)
 -->
<!-- Title: /home/alexander/Documents/Seminars/TP/Project/src/client_side/console_renderer.cpp Pages: 1 -->
<!--zoomable 688 -->
<svg id="main" version="1.1" xmlns="http://www.w3.org/2000/svg" xmlns:xlink="http://www.w3.org/1999/xlink" xml:space="preserve" onload="init(evt)">
<style type="text/css"><![CDATA[
.edge:hover path { stroke: red; }
.edge:hover polygon { stroke: red; fill: red; }
]]></style>
<script type="text/javascript"><![CDATA[
var edges = document.getElementsByTagName('g');
if (edges && edges.length) {
  for (var i=0;i<edges.length;i++) {
    if (edges[i].id.substr(0,4)=='edge') {
      edges[i].setAttribute('class','edge');
    }
  }
}
]]></script>
        <defs>
                <circle id="rim" cx="0" cy="0" r="7"/>
                <circle id="rim2" cx="0" cy="0" r="3.5"/>
                <g id="zoomPlus">
                        <use xlink:href="#rim" fill="#404040">
                                <set attributeName="fill" to="#808080" begin="zoomplus.mouseover" end="zoomplus.mouseout"/>
                        </use>
                        <path d="M-4,0h8M0,-4v8" fill="none" stroke="white" stroke-width="1.5" pointer-events="none"/>
                </g>
                <g id="zoomMin">
                        <use xlink:href="#rim" fill="#404040">
                                <set attributeName="fill" to="#808080" begin="zoomminus.mouseover" end="zoomminus.mouseout"/>
                        </use>
                        <path d="M-4,0h8" fill="none" stroke="white" stroke-width="1.5" pointer-events="none"/>
                </g>
                <g id="dirArrow">
                        <path fill="none" stroke="white" stroke-width="1.5" d="M0,-3.0v7 M-2.5,-0.5L0,-3.0L2.5,-0.5"/>
                </g>
               <g id="resetDef">
                       <use xlink:href="#rim2" fill="#404040">
                               <set attributeName="fill" to="#808080" begin="reset.mouseover" end="reset.mouseout"/>
                       </use>
               </g>
        </defs>

<script type="text/javascript">
var viewWidth = 1007;
var viewHeight = 688;
var sectionId = 'dynsection-0';
</script>
<script xlink:href="svgpan.js"/>
<svg id="graph" class="graph">
<g id="viewport">
<title>/home/alexander/Documents/Seminars/TP/Project/src/client_side/console_renderer.cpp</title>
<!-- Node1 -->
<g id="node1" class="node">
<title>Node1</title>
<g id="a_node1"><a xlink:title=" ">
<polygon fill="#bfbfbf" stroke="black" points="105.5,-638.5 105.5,-679.5 284.5,-679.5 284.5,-638.5 105.5,-638.5"/>
<text text-anchor="start" x="113.5" y="-667.5" font-family="Helvetica,sans-Serif" font-size="10.00">/home/alexander/Documents</text>
<text text-anchor="start" x="113.5" y="-656.5" font-family="Helvetica,sans-Serif" font-size="10.00">/Seminars/TP/Project/src</text>
<text text-anchor="middle" x="195" y="-645.5" font-family="Helvetica,sans-Serif" font-size="10.00">/client_side/console_renderer.cpp</text>
</a>
</g>
</g>
<!-- Node2 -->
<g id="node2" class="node">
<title>Node2</title>
<g id="a_node2"><a xlink:href="console__renderer_8hpp.html" target="_top" xlink:title=" ">
<polygon fill="none" stroke="black" points="134.5,-582.5 134.5,-601.5 255.5,-601.5 255.5,-582.5 134.5,-582.5"/>
<text text-anchor="middle" x="195" y="-589.5" font-family="Helvetica,sans-Serif" font-size="10.00">console_renderer.hpp</text>
</a>
</g>
</g>
<!-- Node1&#45;&gt;Node2 -->
<g id="edge1" class="edge">
<title>Node1&#45;&gt;Node2</title>
<path fill="none" stroke="midnightblue" d="M195,-638.5C195,-630.07 195,-620.24 195,-611.87"/>
<polygon fill="midnightblue" stroke="midnightblue" points="198.5,-611.65 195,-601.65 191.5,-611.65 198.5,-611.65"/>
</g>
<!-- Node3 -->
<g id="node3" class="node">
<title>Node3</title>
<g id="a_node3"><a xlink:title=" ">
<polygon fill="none" stroke="#bfbfbf" points="0,-521 0,-540 44,-540 44,-521 0,-521"/>
<text text-anchor="middle" x="22" y="-528" font-family="Helvetica,sans-Serif" font-size="10.00">ctime</text>
</a>
</g>
</g>
<!-- Node2&#45;&gt;Node3 -->
<g id="edge2" class="edge">
<title>Node2&#45;&gt;Node3</title>
<path fill="none" stroke="midnightblue" d="M164.13,-582.48C135.09,-574.17 90.58,-560.67 53,-546 51.58,-545.45 50.14,-544.86 48.68,-544.25"/>
<polygon fill="midnightblue" stroke="midnightblue" points="49.77,-540.9 39.21,-540.03 46.92,-547.29 49.77,-540.9"/>
</g>
<!-- Node4 -->
<g id="node4" class="node">
<title>Node4</title>
<g id="a_node4"><a xlink:title=" ">
<polygon fill="none" stroke="#bfbfbf" points="62,-521 62,-540 118,-540 118,-521 62,-521"/>
<text text-anchor="middle" x="90" y="-528" font-family="Helvetica,sans-Serif" font-size="10.00">iomanip</text>
</a>
</g>
</g>
<!-- Node2&#45;&gt;Node4 -->
<g id="edge3" class="edge">
<title>Node2&#45;&gt;Node4</title>
<path fill="none" stroke="midnightblue" d="M179.96,-582.48C162.72,-572.71 134.26,-556.58 113.97,-545.08"/>
<polygon fill="midnightblue" stroke="midnightblue" points="115.44,-541.89 105.02,-540.01 111.99,-547.98 115.44,-541.89"/>
</g>
<!-- Node5 -->
<g id="node5" class="node">
<title>Node5</title>
<g id="a_node5"><a xlink:title=" ">
<polygon fill="none" stroke="#bfbfbf" points="136,-521 136,-540 196,-540 196,-521 136,-521"/>
<text text-anchor="middle" x="166" y="-528" font-family="Helvetica,sans-Serif" font-size="10.00">iostream</text>
</a>
</g>
</g>
<!-- Node2&#45;&gt;Node5 -->
<g id="edge4" class="edge">
<title>Node2&#45;&gt;Node5</title>
<path fill="none" stroke="midnightblue" d="M190.85,-582.48C186.62,-573.82 179.96,-560.15 174.6,-549.15"/>
<polygon fill="midnightblue" stroke="midnightblue" points="177.67,-547.46 170.15,-540.01 171.38,-550.53 177.67,-547.46"/>
</g>
<!-- Node6 -->
<g id="node6" class="node">
<title>Node6</title>
<g id="a_node6"><a xlink:title=" ">
<polygon fill="none" stroke="#bfbfbf" points="219,-56.5 219,-75.5 275,-75.5 275,-56.5 219,-56.5"/>
<text text-anchor="middle" x="247" y="-63.5" font-family="Helvetica,sans-Serif" font-size="10.00">sstream</text>
</a>
</g>
</g>
<!-- Node2&#45;&gt;Node6 -->
<g id="edge5" class="edge">
<title>Node2&#45;&gt;Node6</title>
<path fill="none" stroke="midnightblue" d="M198.56,-582.37C206.3,-562.75 224,-513.2 224,-470 224,-470 224,-470 224,-177 224,-144.12 233.97,-106.86 240.78,-85.24"/>
<polygon fill="midnightblue" stroke="midnightblue" points="244.11,-86.3 243.9,-75.71 237.46,-84.12 244.11,-86.3"/>
</g>
<!-- Node7 -->
<g id="node7" class="node">
<title>Node7</title>
<g id="a_node7"><a xlink:href="client__handler_8hpp.html" target="_top" xlink:title=" ">
<polygon fill="none" stroke="black" points="259.5,-224.5 259.5,-254.5 390.5,-254.5 390.5,-224.5 259.5,-224.5"/>
<text text-anchor="start" x="267.5" y="-242.5" font-family="Helvetica,sans-Serif" font-size="10.00">request_handlers/client</text>
<text text-anchor="middle" x="325" y="-231.5" font-family="Helvetica,sans-Serif" font-size="10.00">_handler.hpp</text>
</a>
</g>
</g>
<!-- Node2&#45;&gt;Node7 -->
<g id="edge6" class="edge">
<title>Node2&#45;&gt;Node7</title>
<path fill="none" stroke="midnightblue" d="M205.63,-582.41C215.33,-574.04 229.42,-560.51 238,-546 256.04,-515.51 262,-505.42 262,-470 262,-470 262,-470 262,-356 262,-319.95 285.95,-284.45 304.31,-262.52"/>
<polygon fill="midnightblue" stroke="midnightblue" points="307.1,-264.65 311.02,-254.81 301.82,-260.06 307.1,-264.65"/>
</g>
<!-- Node19 -->
<g id="node19" class="node">
<title>Node19</title>
<g id="a_node19"><a xlink:href="all__messages_8hpp.html" target="_top" xlink:title=" ">
<polygon fill="none" stroke="black" points="471,-515.5 471,-545.5 597,-545.5 597,-515.5 471,-515.5"/>
<text text-anchor="start" x="479" y="-533.5" font-family="Helvetica,sans-Serif" font-size="10.00">requests/messages/all</text>
<text text-anchor="middle" x="534" y="-522.5" font-family="Helvetica,sans-Serif" font-size="10.00">_messages.hpp</text>
</a>
</g>
</g>
<!-- Node2&#45;&gt;Node19 -->
<g id="edge24" class="edge">
<title>Node2&#45;&gt;Node19</title>
<path fill="none" stroke="midnightblue" d="M243.57,-582.48C300.43,-572.5 395.16,-555.87 460.91,-544.33"/>
<polygon fill="midnightblue" stroke="midnightblue" points="461.55,-547.77 470.79,-542.59 460.34,-540.88 461.55,-547.77"/>
</g>
<!-- Node8 -->
<g id="node8" class="node">
<title>Node8</title>
<g id="a_node8"><a xlink:href="abstract__handler_8hpp.html" target="_top" xlink:title=" ">
<polygon fill="none" stroke="black" points="319.5,-168.5 319.5,-187.5 438.5,-187.5 438.5,-168.5 319.5,-168.5"/>
<text text-anchor="middle" x="379" y="-175.5" font-family="Helvetica,sans-Serif" font-size="10.00">abstract_handler.hpp</text>
</a>
</g>
</g>
<!-- Node7&#45;&gt;Node8 -->
<g id="edge7" class="edge">
<title>Node7&#45;&gt;Node8</title>
<path fill="none" stroke="midnightblue" d="M337.8,-224.4C345.72,-215.66 355.94,-204.41 364.21,-195.3"/>
<polygon fill="midnightblue" stroke="midnightblue" points="367.01,-197.42 371.14,-187.66 361.83,-192.71 367.01,-197.42"/>
</g>
<!-- Node18 -->
<g id="node18" class="node">
<title>Node18</title>
<g id="a_node18"><a xlink:href="renderer_8hpp.html" target="_top" xlink:title=" ">
<polygon fill="none" stroke="black" points="252,-112.5 252,-131.5 330,-131.5 330,-112.5 252,-112.5"/>
<text text-anchor="middle" x="291" y="-119.5" font-family="Helvetica,sans-Serif" font-size="10.00">renderer.hpp</text>
</a>
</g>
</g>
<!-- Node7&#45;&gt;Node18 -->
<g id="edge22" class="edge">
<title>Node7&#45;&gt;Node18</title>
<path fill="none" stroke="midnightblue" d="M320.78,-224.36C317.77,-214.23 313.62,-200.28 310,-188 305.38,-172.32 300.17,-154.49 296.38,-141.48"/>
<polygon fill="midnightblue" stroke="midnightblue" points="299.73,-140.46 293.57,-131.83 293.01,-142.41 299.73,-140.46"/>
</g>
<!-- Node9 -->
<g id="node9" class="node">
<title>Node9</title>
<g id="a_node9"><a xlink:title=" ">
<polygon fill="none" stroke="#bfbfbf" points="473,-0.5 473,-19.5 531,-19.5 531,-0.5 473,-0.5"/>
<text text-anchor="middle" x="502" y="-7.5" font-family="Helvetica,sans-Serif" font-size="10.00">memory</text>
</a>
</g>
</g>
<!-- Node8&#45;&gt;Node9 -->
<g id="edge8" class="edge">
<title>Node8&#45;&gt;Node9</title>
<path fill="none" stroke="midnightblue" d="M392.33,-168.28C404.16,-160.02 421.33,-146.73 433,-132 456.45,-102.4 451.8,-88.52 471,-56 476.67,-46.4 483.66,-36.13 489.57,-27.83"/>
<polygon fill="midnightblue" stroke="midnightblue" points="492.42,-29.88 495.45,-19.72 486.75,-25.77 492.42,-29.88"/>
</g>
<!-- Node10 -->
<g id="node10" class="node">
<title>Node10</title>
<g id="a_node10"><a xlink:href="account_8hpp.html" target="_top" xlink:title=" ">
<polygon fill="none" stroke="black" points="348,-112.5 348,-131.5 424,-131.5 424,-112.5 348,-112.5"/>
<text text-anchor="middle" x="386" y="-119.5" font-family="Helvetica,sans-Serif" font-size="10.00">account.hpp</text>
</a>
</g>
</g>
<!-- Node8&#45;&gt;Node10 -->
<g id="edge9" class="edge">
<title>Node8&#45;&gt;Node10</title>
<path fill="none" stroke="midnightblue" d="M380.16,-168.08C381.08,-160.93 382.42,-150.64 383.58,-141.69"/>
<polygon fill="midnightblue" stroke="midnightblue" points="387.05,-142.12 384.87,-131.75 380.11,-141.22 387.05,-142.12"/>
</g>
<!-- Node13 -->
<g id="node13" class="node">
<title>Node13</title>
<g id="a_node13"><a xlink:href="socket_8hpp.html" target="_top" xlink:title=" ">
<polygon fill="none" stroke="black" points="606,-112.5 606,-131.5 710,-131.5 710,-112.5 606,-112.5"/>
<text text-anchor="middle" x="658" y="-119.5" font-family="Helvetica,sans-Serif" font-size="10.00">socket/socket.hpp</text>
</a>
</g>
</g>
<!-- Node8&#45;&gt;Node13 -->
<g id="edge14" class="edge">
<title>Node8&#45;&gt;Node13</title>
<path fill="none" stroke="midnightblue" d="M423.21,-168.44C472.29,-158.94 551.51,-143.61 604.16,-133.42"/>
<polygon fill="midnightblue" stroke="midnightblue" points="604.85,-136.85 614,-131.52 603.52,-129.98 604.85,-136.85"/>
</g>
<!-- Node10&#45;&gt;Node6 -->
<g id="edge12" class="edge">
<title>Node10&#45;&gt;Node6</title>
<path fill="none" stroke="midnightblue" d="M363.98,-112.44C340.9,-103.48 304.44,-89.31 278.36,-79.18"/>
<polygon fill="midnightblue" stroke="midnightblue" points="279.51,-75.88 268.92,-75.52 276.98,-82.4 279.51,-75.88"/>
</g>
<!-- Node10&#45;&gt;Node9 -->
<g id="edge10" class="edge">
<title>Node10&#45;&gt;Node9</title>
<path fill="none" stroke="midnightblue" d="M382.46,-112.09C377.76,-98.63 371.31,-72.91 383,-56 400.81,-30.22 435.43,-19.19 462.76,-14.48"/>
<polygon fill="midnightblue" stroke="midnightblue" points="463.45,-17.92 472.82,-12.97 462.41,-11 463.45,-17.92"/>
</g>
<!-- Node11 -->
<g id="node11" class="node">
<title>Node11</title>
<g id="a_node11"><a xlink:title=" ">
<polygon fill="none" stroke="#bfbfbf" points="392,-56.5 392,-75.5 424,-75.5 424,-56.5 392,-56.5"/>
<text text-anchor="middle" x="408" y="-63.5" font-family="Helvetica,sans-Serif" font-size="10.00">set</text>
</a>
</g>
</g>
<!-- Node10&#45;&gt;Node11 -->
<g id="edge11" class="edge">
<title>Node10&#45;&gt;Node11</title>
<path fill="none" stroke="midnightblue" d="M389.63,-112.08C392.61,-104.77 396.93,-94.18 400.62,-85.1"/>
<polygon fill="midnightblue" stroke="midnightblue" points="403.9,-86.33 404.43,-75.75 397.42,-83.69 403.9,-86.33"/>
</g>
<!-- Node12 -->
<g id="node12" class="node">
<title>Node12</title>
<g id="a_node12"><a xlink:title=" ">
<polygon fill="none" stroke="#bfbfbf" points="480,-56.5 480,-75.5 524,-75.5 524,-56.5 480,-56.5"/>
<text text-anchor="middle" x="502" y="-63.5" font-family="Helvetica,sans-Serif" font-size="10.00">string</text>
</a>
</g>
</g>
<!-- Node10&#45;&gt;Node12 -->
<g id="edge13" class="edge">
<title>Node10&#45;&gt;Node12</title>
<path fill="none" stroke="midnightblue" d="M404.38,-112.44C423.22,-103.68 452.73,-89.94 474.38,-79.86"/>
<polygon fill="midnightblue" stroke="midnightblue" points="476.12,-82.91 483.71,-75.52 473.16,-76.56 476.12,-82.91"/>
</g>
<!-- Node13&#45;&gt;Node9 -->
<g id="edge17" class="edge">
<title>Node13&#45;&gt;Node9</title>
<path fill="none" stroke="midnightblue" d="M637.75,-112.47C619.51,-104.35 592.37,-91.14 571,-76 550.57,-61.52 530.05,-41.3 516.77,-27.27"/>
<polygon fill="midnightblue" stroke="midnightblue" points="519.21,-24.75 509.84,-19.81 514.08,-29.52 519.21,-24.75"/>
</g>
<!-- Node13&#45;&gt;Node12 -->
<g id="edge18" class="edge">
<title>Node13&#45;&gt;Node12</title>
<path fill="none" stroke="midnightblue" d="M633.28,-112.44C606.38,-103.13 563.29,-88.22 533.87,-78.03"/>
<polygon fill="midnightblue" stroke="midnightblue" points="534.68,-74.61 524.08,-74.64 532.39,-81.22 534.68,-74.61"/>
</g>
<!-- Node14 -->
<g id="node14" class="node">
<title>Node14</title>
<g id="a_node14"><a xlink:title=" ">
<polygon fill="none" stroke="#bfbfbf" points="580,-56.5 580,-75.5 668,-75.5 668,-56.5 580,-56.5"/>
<text text-anchor="middle" x="624" y="-63.5" font-family="Helvetica,sans-Serif" font-size="10.00">boost/asio.hpp</text>
</a>
</g>
</g>
<!-- Node13&#45;&gt;Node14 -->
<g id="edge15" class="edge">
<title>Node13&#45;&gt;Node14</title>
<path fill="none" stroke="midnightblue" d="M652.39,-112.08C647.63,-104.53 640.68,-93.49 634.85,-84.23"/>
<polygon fill="midnightblue" stroke="midnightblue" points="637.8,-82.35 629.51,-75.75 631.88,-86.08 637.8,-82.35"/>
</g>
<!-- Node15 -->
<g id="node15" class="node">
<title>Node15</title>
<g id="a_node15"><a xlink:title=" ">
<polygon fill="none" stroke="#bfbfbf" points="686.5,-56.5 686.5,-75.5 751.5,-75.5 751.5,-56.5 686.5,-56.5"/>
<text text-anchor="middle" x="719" y="-63.5" font-family="Helvetica,sans-Serif" font-size="10.00">functional</text>
</a>
</g>
</g>
<!-- Node13&#45;&gt;Node15 -->
<g id="edge16" class="edge">
<title>Node13&#45;&gt;Node15</title>
<path fill="none" stroke="midnightblue" d="M667.8,-112.32C676.82,-104.34 690.41,-92.31 701.32,-82.65"/>
<polygon fill="midnightblue" stroke="midnightblue" points="703.85,-85.08 709.02,-75.83 699.21,-79.84 703.85,-85.08"/>
</g>
<!-- Node16 -->
<g id="node16" class="node">
<title>Node16</title>
<g id="a_node16"><a xlink:href="general_2socket_2log_8hpp.html" target="_top" xlink:title=" ">
<polygon fill="none" stroke="black" points="769.5,-56.5 769.5,-75.5 822.5,-75.5 822.5,-56.5 769.5,-56.5"/>
<text text-anchor="middle" x="796" y="-63.5" font-family="Helvetica,sans-Serif" font-size="10.00">log.hpp</text>
</a>
</g>
</g>
<!-- Node13&#45;&gt;Node16 -->
<g id="edge19" class="edge">
<title>Node13&#45;&gt;Node16</title>
<path fill="none" stroke="midnightblue" d="M679.87,-112.44C702.78,-103.48 738.98,-89.31 764.87,-79.18"/>
<polygon fill="midnightblue" stroke="midnightblue" points="766.2,-82.42 774.24,-75.52 763.65,-75.9 766.2,-82.42"/>
</g>
<!-- Node16&#45;&gt;Node9 -->
<g id="edge20" class="edge">
<title>Node16&#45;&gt;Node9</title>
<path fill="none" stroke="midnightblue" d="M769.3,-57.9C766.5,-57.23 763.7,-56.58 761,-56 683.57,-39.35 592.09,-24.59 541.2,-16.81"/>
<polygon fill="midnightblue" stroke="midnightblue" points="541.69,-13.35 531.28,-15.31 540.64,-20.27 541.69,-13.35"/>
</g>
<!-- Node17 -->
<g id="node17" class="node">
<title>Node17</title>
<g id="a_node17"><a xlink:title=" ">
<polygon fill="none" stroke="#bfbfbf" points="767.5,-0.5 767.5,-19.5 824.5,-19.5 824.5,-0.5 767.5,-0.5"/>
<text text-anchor="middle" x="796" y="-7.5" font-family="Helvetica,sans-Serif" font-size="10.00">ostream</text>
</a>
</g>
</g>
<!-- Node16&#45;&gt;Node17 -->
<g id="edge21" class="edge">
<title>Node16&#45;&gt;Node17</title>
<path fill="none" stroke="midnightblue" d="M796,-56.08C796,-49.01 796,-38.86 796,-29.99"/>
<polygon fill="midnightblue" stroke="midnightblue" points="799.5,-29.75 796,-19.75 792.5,-29.75 799.5,-29.75"/>
</g>
<!-- Node18&#45;&gt;Node9 -->
<g id="edge23" class="edge">
<title>Node18&#45;&gt;Node9</title>
<path fill="none" stroke="midnightblue" d="M299.86,-112.29C314.16,-98.64 343.71,-72.11 373,-56 401.66,-40.24 436.87,-28.4 463.26,-20.83"/>
<polygon fill="midnightblue" stroke="midnightblue" points="464.21,-24.2 472.91,-18.14 462.34,-17.45 464.21,-24.2"/>
</g>
<!-- Node20 -->
<g id="node20" class="node">
<title>Node20</title>
<g id="a_node20"><a xlink:href="base__message_8hpp.html" target="_top" xlink:title=" ">
<polygon fill="none" stroke="black" points="290,-403.5 290,-422.5 400,-422.5 400,-403.5 290,-403.5"/>
<text text-anchor="middle" x="345" y="-410.5" font-family="Helvetica,sans-Serif" font-size="10.00">base_message.hpp</text>
</a>
</g>
</g>
<!-- Node19&#45;&gt;Node20 -->
<g id="edge25" class="edge">
<title>Node19&#45;&gt;Node20</title>
<path fill="none" stroke="midnightblue" d="M470.84,-521.64C419.96,-513.86 354.31,-500.04 338,-479 327.81,-465.85 331.59,-446.44 336.68,-432.25"/>
<polygon fill="midnightblue" stroke="midnightblue" points="340.07,-433.2 340.61,-422.62 333.59,-430.55 340.07,-433.2"/>
</g>
<!-- Node25 -->
<g id="node25" class="node">
<title>Node25</title>
<g id="a_node25"><a xlink:href="private__decorator_8hpp.html" target="_top" xlink:title=" ">
<polygon fill="none" stroke="black" points="875.5,-459.5 875.5,-478.5 998.5,-478.5 998.5,-459.5 875.5,-459.5"/>
<text text-anchor="middle" x="937" y="-466.5" font-family="Helvetica,sans-Serif" font-size="10.00">private_decorator.hpp</text>
</a>
</g>
</g>
<!-- Node19&#45;&gt;Node25 -->
<g id="edge34" class="edge">
<title>Node19&#45;&gt;Node25</title>
<path fill="none" stroke="midnightblue" d="M597.41,-520.14C671.45,-509.21 793.4,-491.2 869.25,-480"/>
<polygon fill="midnightblue" stroke="midnightblue" points="869.8,-483.46 879.18,-478.54 868.78,-476.53 869.8,-483.46"/>
</g>
<!-- Node27 -->
<g id="node27" class="node">
<title>Node27</title>
<g id="a_node27"><a xlink:href="room__decorator_8hpp.html" target="_top" xlink:title=" ">
<polygon fill="none" stroke="black" points="477,-459.5 477,-478.5 591,-478.5 591,-459.5 477,-459.5"/>
<text text-anchor="middle" x="534" y="-466.5" font-family="Helvetica,sans-Serif" font-size="10.00">room_decorator.hpp</text>
</a>
</g>
</g>
<!-- Node19&#45;&gt;Node27 -->
<g id="edge37" class="edge">
<title>Node19&#45;&gt;Node27</title>
<path fill="none" stroke="midnightblue" d="M534,-515.4C534,-507.47 534,-497.46 534,-488.86"/>
<polygon fill="midnightblue" stroke="midnightblue" points="537.5,-488.66 534,-478.66 530.5,-488.66 537.5,-488.66"/>
</g>
<!-- Node28 -->
<g id="node28" class="node">
<title>Node28</title>
<g id="a_node28"><a xlink:href="sender__decorator_8hpp.html" target="_top" xlink:title=" ">
<polygon fill="none" stroke="black" points="609,-459.5 609,-478.5 731,-478.5 731,-459.5 609,-459.5"/>
<text text-anchor="middle" x="670" y="-466.5" font-family="Helvetica,sans-Serif" font-size="10.00">sender_decorator.hpp</text>
</a>
</g>
</g>
<!-- Node19&#45;&gt;Node28 -->
<g id="edge39" class="edge">
<title>Node19&#45;&gt;Node28</title>
<path fill="none" stroke="midnightblue" d="M566.23,-515.4C588.84,-505.51 618.84,-492.38 640.76,-482.79"/>
<polygon fill="midnightblue" stroke="midnightblue" points="642.45,-485.87 650.21,-478.66 639.65,-479.46 642.45,-485.87"/>
</g>
<!-- Node29 -->
<g id="node29" class="node">
<title>Node29</title>
<g id="a_node29"><a xlink:href="text__decorator_8hpp.html" target="_top" xlink:title=" ">
<polygon fill="none" stroke="black" points="749,-459.5 749,-478.5 857,-478.5 857,-459.5 749,-459.5"/>
<text text-anchor="middle" x="803" y="-466.5" font-family="Helvetica,sans-Serif" font-size="10.00">text_decorator.hpp</text>
</a>
</g>
</g>
<!-- Node19&#45;&gt;Node29 -->
<g id="edge41" class="edge">
<title>Node19&#45;&gt;Node29</title>
<path fill="none" stroke="midnightblue" d="M597.07,-515.55C645.19,-504.91 710.49,-490.46 754.55,-480.72"/>
<polygon fill="midnightblue" stroke="midnightblue" points="755.44,-484.11 764.44,-478.53 753.92,-477.27 755.44,-484.11"/>
</g>
<!-- Node30 -->
<g id="node30" class="node">
<title>Node30</title>
<g id="a_node30"><a xlink:href="time__decorator_8hpp.html" target="_top" xlink:title=" ">
<polygon fill="none" stroke="black" points="347.5,-459.5 347.5,-478.5 458.5,-478.5 458.5,-459.5 347.5,-459.5"/>
<text text-anchor="middle" x="403" y="-466.5" font-family="Helvetica,sans-Serif" font-size="10.00">time_decorator.hpp</text>
</a>
</g>
</g>
<!-- Node19&#45;&gt;Node30 -->
<g id="edge43" class="edge">
<title>Node19&#45;&gt;Node30</title>
<path fill="none" stroke="midnightblue" d="M502.95,-515.4C481.27,-505.55 452.54,-492.5 431.45,-482.92"/>
<polygon fill="midnightblue" stroke="midnightblue" points="432.61,-479.61 422.06,-478.66 429.72,-485.98 432.61,-479.61"/>
</g>
<!-- Node21 -->
<g id="node21" class="node">
<title>Node21</title>
<g id="a_node21"><a xlink:href="message_8hpp.html" target="_top" xlink:title=" ">
<polygon fill="none" stroke="black" points="489,-347.5 489,-366.5 571,-366.5 571,-347.5 489,-347.5"/>
<text text-anchor="middle" x="530" y="-354.5" font-family="Helvetica,sans-Serif" font-size="10.00">message.hpp</text>
</a>
</g>
</g>
<!-- Node20&#45;&gt;Node21 -->
<g id="edge26" class="edge">
<title>Node20&#45;&gt;Node21</title>
<path fill="none" stroke="midnightblue" d="M374.31,-403.44C405.84,-394.24 456.13,-379.56 490.99,-369.39"/>
<polygon fill="midnightblue" stroke="midnightblue" points="492.2,-372.68 500.82,-366.52 490.24,-365.96 492.2,-372.68"/>
</g>
<!-- Node22 -->
<g id="node22" class="node">
<title>Node22</title>
<g id="a_node22"><a xlink:href="request_8hpp.html" target="_top" xlink:title=" ">
<polygon fill="none" stroke="black" points="470.5,-291.5 470.5,-310.5 589.5,-310.5 589.5,-291.5 470.5,-291.5"/>
<text text-anchor="middle" x="530" y="-298.5" font-family="Helvetica,sans-Serif" font-size="10.00">requests/request.hpp</text>
</a>
</g>
</g>
<!-- Node21&#45;&gt;Node22 -->
<g id="edge27" class="edge">
<title>Node21&#45;&gt;Node22</title>
<path fill="none" stroke="midnightblue" d="M530,-347.08C530,-340.01 530,-329.86 530,-320.99"/>
<polygon fill="midnightblue" stroke="midnightblue" points="533.5,-320.75 530,-310.75 526.5,-320.75 533.5,-320.75"/>
</g>
<!-- Node22&#45;&gt;Node7 -->
<g id="edge30" class="edge">
<title>Node22&#45;&gt;Node7</title>
<path fill="none" stroke="midnightblue" d="M500.63,-291.48C470.14,-282.63 421.64,-268.55 383.32,-257.43"/>
<polygon fill="midnightblue" stroke="midnightblue" points="383.89,-253.95 373.31,-254.52 381.94,-260.67 383.89,-253.95"/>
</g>
<!-- Node22&#45;&gt;Node9 -->
<g id="edge28" class="edge">
<title>Node22&#45;&gt;Node9</title>
<path fill="none" stroke="midnightblue" d="M581.93,-291.5C672.78,-275.14 851,-235.8 851,-179 851,-179 851,-179 851,-121 851,-90.9 854.81,-75.64 832,-56 789.21,-19.15 619.63,-12.34 541.63,-11.18"/>
<polygon fill="midnightblue" stroke="midnightblue" points="541.3,-7.67 531.25,-11.05 541.21,-14.67 541.3,-7.67"/>
</g>
<!-- Node22&#45;&gt;Node12 -->
<g id="edge29" class="edge">
<title>Node22&#45;&gt;Node12</title>
<path fill="none" stroke="midnightblue" d="M537.67,-291.46C544.78,-282.93 554.85,-269.09 559,-255 561.88,-245.21 561.63,-181.52 558,-168 549.38,-135.88 528.43,-102.99 514.74,-83.8"/>
<polygon fill="midnightblue" stroke="midnightblue" points="517.42,-81.54 508.68,-75.55 511.77,-85.68 517.42,-81.54"/>
</g>
<!-- Node23 -->
<g id="node23" class="node">
<title>Node23</title>
<g id="a_node23"><a xlink:href="server__handler_8hpp.html" target="_top" xlink:title=" ">
<polygon fill="none" stroke="black" points="416,-224.5 416,-254.5 550,-254.5 550,-224.5 416,-224.5"/>
<text text-anchor="start" x="424" y="-242.5" font-family="Helvetica,sans-Serif" font-size="10.00">request_handlers/server</text>
<text text-anchor="middle" x="483" y="-231.5" font-family="Helvetica,sans-Serif" font-size="10.00">_handler.hpp</text>
</a>
</g>
</g>
<!-- Node22&#45;&gt;Node23 -->
<g id="edge31" class="edge">
<title>Node22&#45;&gt;Node23</title>
<path fill="none" stroke="midnightblue" d="M523.27,-291.48C517.32,-283.94 508.38,-272.63 500.43,-262.57"/>
<polygon fill="midnightblue" stroke="midnightblue" points="503.02,-260.2 494.08,-254.52 497.53,-264.54 503.02,-260.2"/>
</g>
<!-- Node23&#45;&gt;Node8 -->
<g id="edge33" class="edge">
<title>Node23&#45;&gt;Node8</title>
<path fill="none" stroke="midnightblue" d="M458.35,-224.4C441.68,-214.86 419.77,-202.32 403.19,-192.84"/>
<polygon fill="midnightblue" stroke="midnightblue" points="404.55,-189.59 394.13,-187.66 401.07,-195.66 404.55,-189.59"/>
</g>
<!-- Node24 -->
<g id="node24" class="node">
<title>Node24</title>
<g id="a_node24"><a xlink:title=" ">
<polygon fill="none" stroke="#bfbfbf" points="456.5,-168.5 456.5,-187.5 549.5,-187.5 549.5,-168.5 456.5,-168.5"/>
<text text-anchor="middle" x="503" y="-175.5" font-family="Helvetica,sans-Serif" font-size="10.00">unordered_map</text>
</a>
</g>
</g>
<!-- Node23&#45;&gt;Node24 -->
<g id="edge32" class="edge">
<title>Node23&#45;&gt;Node24</title>
<path fill="none" stroke="midnightblue" d="M487.74,-224.4C490.47,-216.29 493.92,-206.01 496.86,-197.28"/>
<polygon fill="midnightblue" stroke="midnightblue" points="500.22,-198.25 500.09,-187.66 493.59,-196.02 500.22,-198.25"/>
</g>
<!-- Node26 -->
<g id="node26" class="node">
<title>Node26</title>
<g id="a_node26"><a xlink:href="properties__decorator_8hpp.html" target="_top" xlink:title=" ">
<polygon fill="none" stroke="black" points="542,-403.5 542,-422.5 680,-422.5 680,-403.5 542,-403.5"/>
<text text-anchor="middle" x="611" y="-410.5" font-family="Helvetica,sans-Serif" font-size="10.00">properties_decorator.hpp</text>
</a>
</g>
</g>
<!-- Node25&#45;&gt;Node26 -->
<g id="edge35" class="edge">
<title>Node25&#45;&gt;Node26</title>
<path fill="none" stroke="midnightblue" d="M885.34,-459.44C827.52,-449.87 733.89,-434.36 672.38,-424.17"/>
<polygon fill="midnightblue" stroke="midnightblue" points="672.85,-420.7 662.41,-422.52 671.71,-427.6 672.85,-420.7"/>
</g>
<!-- Node26&#45;&gt;Node21 -->
<g id="edge36" class="edge">
<title>Node26&#45;&gt;Node21</title>
<path fill="none" stroke="midnightblue" d="M597.99,-403.32C585.47,-394.98 566.32,-382.21 551.53,-372.35"/>
<polygon fill="midnightblue" stroke="midnightblue" points="553.24,-369.29 542.98,-366.65 549.36,-375.11 553.24,-369.29"/>
</g>
<!-- Node27&#45;&gt;Node26 -->
<g id="edge38" class="edge">
<title>Node27&#45;&gt;Node26</title>
<path fill="none" stroke="midnightblue" d="M546.37,-459.32C558.16,-451.06 576.13,-438.45 590.14,-428.63"/>
<polygon fill="midnightblue" stroke="midnightblue" points="592.48,-431.26 598.66,-422.65 588.46,-425.53 592.48,-431.26"/>
</g>
<!-- Node28&#45;&gt;Node26 -->
<g id="edge40" class="edge">
<title>Node28&#45;&gt;Node26</title>
<path fill="none" stroke="midnightblue" d="M660.52,-459.32C651.8,-451.34 638.66,-439.31 628.1,-429.65"/>
<polygon fill="midnightblue" stroke="midnightblue" points="630.39,-427 620.65,-422.83 625.67,-432.17 630.39,-427"/>
</g>
<!-- Node29&#45;&gt;Node26 -->
<g id="edge42" class="edge">
<title>Node29&#45;&gt;Node26</title>
<path fill="none" stroke="midnightblue" d="M772.58,-459.44C739.72,-450.2 687.22,-435.44 651.03,-425.26"/>
<polygon fill="midnightblue" stroke="midnightblue" points="651.85,-421.85 641.28,-422.52 649.96,-428.59 651.85,-421.85"/>
</g>
<!-- Node30&#45;&gt;Node26 -->
<g id="edge44" class="edge">
<title>Node30&#45;&gt;Node26</title>
<path fill="none" stroke="midnightblue" d="M435.96,-459.44C471.79,-450.14 529.16,-435.25 568.39,-425.06"/>
<polygon fill="midnightblue" stroke="midnightblue" points="569.4,-428.42 578.2,-422.52 567.64,-421.64 569.4,-428.42"/>
</g>
<!-- Node31 -->
<g id="node31" class="node">
<title>Node31</title>
<g id="a_node31"><a xlink:title=" ">
<polygon fill="none" stroke="#bfbfbf" points="418,-403.5 418,-422.5 466,-422.5 466,-403.5 418,-403.5"/>
<text text-anchor="middle" x="442" y="-410.5" font-family="Helvetica,sans-Serif" font-size="10.00">time.h</text>
</a>
</g>
</g>
<!-- Node30&#45;&gt;Node31 -->
<g id="edge45" class="edge">
<title>Node30&#45;&gt;Node31</title>
<path fill="none" stroke="midnightblue" d="M409.44,-459.08C414.95,-451.46 423.03,-440.26 429.76,-430.94"/>
<polygon fill="midnightblue" stroke="midnightblue" points="432.66,-432.91 435.68,-422.75 426.99,-428.81 432.66,-432.91"/>
</g>
</g>
</svg>
        <g id="navigator" transform="translate(0 0)" fill="#404254">
                <rect fill="#f2f5e9" fill-opacity="0.5" stroke="#606060" stroke-width=".5" x="0" y="0" width="60" height="60"/>
                <use id="zoomplus" xlink:href="#zoomPlus" x="17" y="9" onmousedown="handleZoom(evt,'in')"/>
                <use id="zoomminus" xlink:href="#zoomMin" x="42" y="9" onmousedown="handleZoom(evt,'out')"/>
                <use id="reset" xlink:href="#resetDef" x="30" y="36" onmousedown="handleReset()"/>
                <g id="arrowUp" xlink:href="#dirArrow" transform="translate(30 24)" onmousedown="handlePan(0,-1)">
                  <use xlink:href="#rim" fill="#404040">
                        <set attributeName="fill" to="#808080" begin="arrowUp.mouseover" end="arrowUp.mouseout"/>
                  </use>
                  <path fill="none" stroke="white" stroke-width="1.5" d="M0,-3.0v7 M-2.5,-0.5L0,-3.0L2.5,-0.5"/>
                </g>
                <g id="arrowRight" xlink:href="#dirArrow" transform="rotate(90) translate(36 -43)" onmousedown="handlePan(1,0)">
                  <use xlink:href="#rim" fill="#404040">
                        <set attributeName="fill" to="#808080" begin="arrowRight.mouseover" end="arrowRight.mouseout"/>
                  </use>
                  <path fill="none" stroke="white" stroke-width="1.5" d="M0,-3.0v7 M-2.5,-0.5L0,-3.0L2.5,-0.5"/>
                </g>
                <g id="arrowDown" xlink:href="#dirArrow" transform="rotate(180) translate(-30 -48)" onmousedown="handlePan(0,1)">
                  <use xlink:href="#rim" fill="#404040">
                        <set attributeName="fill" to="#808080" begin="arrowDown.mouseover" end="arrowDown.mouseout"/>
                  </use>
                  <path fill="none" stroke="white" stroke-width="1.5" d="M0,-3.0v7 M-2.5,-0.5L0,-3.0L2.5,-0.5"/>
                </g>
                <g id="arrowLeft" xlink:href="#dirArrow" transform="rotate(270) translate(-36 17)" onmousedown="handlePan(-1,0)">
                  <use xlink:href="#rim" fill="#404040">
                        <set attributeName="fill" to="#808080" begin="arrowLeft.mouseover" end="arrowLeft.mouseout"/>
                  </use>
                  <path fill="none" stroke="white" stroke-width="1.5" d="M0,-3.0v7 M-2.5,-0.5L0,-3.0L2.5,-0.5"/>
                </g>
        </g>
        <svg viewBox="0 0 15 15" width="100%" height="30px" preserveAspectRatio="xMaxYMin meet">
         <g id="arrow_out" transform="scale(0.3 0.3)">
          <a xlink:href="console__renderer_8cpp__incl_org.svg" target="_base">
           <rect id="button" ry="5" rx="5" y="6" x="6" height="38" width="38"
                fill="#f2f5e9" fill-opacity="0.5" stroke="#606060" stroke-width="1.0"/>
           <path id="arrow"
             d="M 11.500037,31.436501 C 11.940474,20.09759 22.043105,11.32322 32.158766,21.979434 L 37.068811,17.246167 C 37.068811,17.246167 37.088388,32 37.088388,32 L 22.160133,31.978069 C 22.160133,31.978069 26.997745,27.140456 26.997745,27.140456 C 18.528582,18.264221 13.291696,25.230495 11.500037,31.436501 z"
             style="fill:#404040;"/>
          </a>
         </g>
        </svg>
</svg>
