<?xml version="1.0" encoding="UTF-8" standalone="no"?>
<!DOCTYPE svg PUBLIC "-//W3C//DTD SVG 1.1//EN"
 "http://www.w3.org/Graphics/SVG/1.1/DTD/svg11.dtd">
<!-- Generated by graphviz version 2.43.0 (0)
 -->
<!-- Title: /home/alexander/Documents/Seminars/TP/Project/src/general Pages: 1 -->
<svg width="230pt" height="183pt"
 viewBox="0.00 0.00 230.00 183.00" xmlns="http://www.w3.org/2000/svg" xmlns:xlink="http://www.w3.org/1999/xlink">
<g id="graph0" class="graph" transform="scale(1 1) rotate(0) translate(4 179)">
<title>/home/alexander/Documents/Seminars/TP/Project/src/general</title>
<g id="clust1" class="cluster">
<title>clusterdir_68267d1309a1af8e8297ef4c3efbcdba</title>
<g id="a_clust1"><a xlink:href="dir_68267d1309a1af8e8297ef4c3efbcdba.html" target="_top" xlink:title="src">
<polygon fill="#edf0f7" stroke="#404040" stroke-dasharray="5,2" points="8,-8 8,-167 214,-167 214,-8 8,-8"/>
<text text-anchor="middle" x="111" y="-155" font-family="Helvetica,sans-Serif" font-size="10.00">src</text>
</a>
</g>
</g>
<g id="clust2" class="cluster">
<title>clusterdir_0ef45b72fea5c9869a86802e135ecac6</title>
<g id="a_clust2"><a xlink:href="dir_0ef45b72fea5c9869a86802e135ecac6.html" target="_top">
<polygon fill="#edf0f7" stroke="#404040" stroke-width="2" points="16,-16 16,-140 206,-140 206,-16 16,-16"/>
</a>
</g>
</g>
<!-- dir_0ef45b72fea5c9869a86802e135ecac6 -->
<g id="node1" class="node">
<title>dir_0ef45b72fea5c9869a86802e135ecac6</title>
<text text-anchor="middle" x="171" y="-111.5" font-family="Helvetica,sans-Serif" font-size="10.00">general</text>
</g>
<!-- dir_4d0cf7945fbcb2cde7b187cbbae5ab72 -->
<g id="node4" class="node">
<title>dir_4d0cf7945fbcb2cde7b187cbbae5ab72</title>
<g id="a_node4"><a xlink:href="dir_4d0cf7945fbcb2cde7b187cbbae5ab72.html" target="_top" xlink:title="socket">
<polygon fill="#a2b4d6" stroke="#404040" points="187,-60 133,-60 133,-24 187,-24 187,-60"/>
<text text-anchor="middle" x="160" y="-39.5" font-family="Helvetica,sans-Serif" font-size="10.00">socket</text>
</a>
</g>
</g>
<!-- dir_0ef45b72fea5c9869a86802e135ecac6&#45;&gt;dir_4d0cf7945fbcb2cde7b187cbbae5ab72 -->
<g id="edge1" class="edge">
<title>dir_0ef45b72fea5c9869a86802e135ecac6&#45;&gt;dir_4d0cf7945fbcb2cde7b187cbbae5ab72</title>
<path fill="none" stroke="black" d="M168.28,-95.7C167.07,-87.98 165.61,-78.71 164.26,-70.11"/>
<polygon fill="black" stroke="black" points="167.7,-69.44 162.69,-60.1 160.78,-70.53 167.7,-69.44"/>
<g id="a_edge1&#45;headlabel"><a xlink:href="dir_000003_000008.html" target="_top" xlink:title="2">
<text text-anchor="middle" x="171.06" y="-70.05" font-family="Helvetica,sans-Serif" font-size="10.00">2</text>
</a>
</g>
</g>
<!-- dir_12e26c479e2eeacc529df39e6065feeb -->
<g id="node2" class="node">
<title>dir_12e26c479e2eeacc529df39e6065feeb</title>
<g id="a_node2"><a xlink:href="dir_12e26c479e2eeacc529df39e6065feeb.html" target="_top" xlink:title="request_handlers">
<polygon fill="#a2b4d6" stroke="#404040" points="125.5,-132 24.5,-132 24.5,-96 125.5,-96 125.5,-132"/>
<text text-anchor="middle" x="75" y="-111.5" font-family="Helvetica,sans-Serif" font-size="10.00">request_handlers</text>
</a>
</g>
</g>
<!-- dir_9766d8ba9bf281fc315762ed46d990e1 -->
<g id="node3" class="node">
<title>dir_9766d8ba9bf281fc315762ed46d990e1</title>
<g id="a_node3"><a xlink:href="dir_9766d8ba9bf281fc315762ed46d990e1.html" target="_top" xlink:title="requests">
<polygon fill="#a2b4d6" stroke="#404040" points="104.5,-60 45.5,-60 45.5,-24 104.5,-24 104.5,-60"/>
<text text-anchor="middle" x="75" y="-39.5" font-family="Helvetica,sans-Serif" font-size="10.00">requests</text>
</a>
</g>
</g>
<!-- dir_12e26c479e2eeacc529df39e6065feeb&#45;&gt;dir_9766d8ba9bf281fc315762ed46d990e1 -->
<g id="edge3" class="edge">
<title>dir_12e26c479e2eeacc529df39e6065feeb&#45;&gt;dir_9766d8ba9bf281fc315762ed46d990e1</title>
<path fill="none" stroke="black" d="M69.08,-95.7C68.29,-87.98 68.06,-78.71 68.4,-70.11"/>
<polygon fill="black" stroke="black" points="71.9,-70.32 69.1,-60.1 64.92,-69.84 71.9,-70.32"/>
<g id="a_edge3&#45;headlabel"><a xlink:href="dir_000005_000006.html" target="_top" xlink:title="4">
<text text-anchor="middle" x="74.48" y="-71.61" font-family="Helvetica,sans-Serif" font-size="10.00">4</text>
</a>
</g>
</g>
<!-- dir_12e26c479e2eeacc529df39e6065feeb&#45;&gt;dir_4d0cf7945fbcb2cde7b187cbbae5ab72 -->
<g id="edge2" class="edge">
<title>dir_12e26c479e2eeacc529df39e6065feeb&#45;&gt;dir_4d0cf7945fbcb2cde7b187cbbae5ab72</title>
<path fill="none" stroke="black" d="M96.01,-95.7C106.72,-86.88 119.89,-76.03 131.5,-66.47"/>
<polygon fill="black" stroke="black" points="133.74,-69.16 139.23,-60.1 129.29,-63.76 133.74,-69.16"/>
<g id="a_edge2&#45;headlabel"><a xlink:href="dir_000005_000008.html" target="_top" xlink:title="1">
<text text-anchor="middle" x="132.77" y="-71.14" font-family="Helvetica,sans-Serif" font-size="10.00">1</text>
</a>
</g>
</g>
<!-- dir_9766d8ba9bf281fc315762ed46d990e1&#45;&gt;dir_12e26c479e2eeacc529df39e6065feeb -->
<g id="edge4" class="edge">
<title>dir_9766d8ba9bf281fc315762ed46d990e1&#45;&gt;dir_12e26c479e2eeacc529df39e6065feeb</title>
<path fill="none" stroke="black" d="M80.9,-60.1C81.7,-67.79 81.94,-77.05 81.6,-85.67"/>
<polygon fill="black" stroke="black" points="78.11,-85.48 80.92,-95.7 85.09,-85.96 78.11,-85.48"/>
<g id="a_edge4&#45;headlabel"><a xlink:href="dir_000006_000005.html" target="_top" xlink:title="2">
<text text-anchor="middle" x="75.52" y="-79.2" font-family="Helvetica,sans-Serif" font-size="10.00">2</text>
</a>
</g>
</g>
</g>
</svg>
