<?xml version="1.0" encoding="UTF-8" standalone="no"?>
<!DOCTYPE svg PUBLIC "-//W3C//DTD SVG 1.1//EN"
 "http://www.w3.org/Graphics/SVG/1.1/DTD/svg11.dtd">
<!-- Generated by graphviz version 2.43.0 (0)
 -->
<!-- Title: /home/alexander/Documents/Seminars/TP/Project/src/server_side Pages: 1 -->
<svg width="130pt" height="247pt"
 viewBox="0.00 0.00 130.00 247.00" xmlns="http://www.w3.org/2000/svg" xmlns:xlink="http://www.w3.org/1999/xlink">
<g id="graph0" class="graph" transform="scale(1 1) rotate(0) translate(4 243)">
<title>/home/alexander/Documents/Seminars/TP/Project/src/server_side</title>
<g id="clust1" class="cluster">
<title>clusterdir_68267d1309a1af8e8297ef4c3efbcdba</title>
<g id="a_clust1"><a xlink:href="dir_68267d1309a1af8e8297ef4c3efbcdba.html" target="_top" xlink:title="src">
<polygon fill="#edf0f7" stroke="#404040" stroke-dasharray="5,2" points="8,-8 8,-231 114,-231 114,-8 8,-8"/>
<text text-anchor="middle" x="61" y="-219" font-family="Helvetica,sans-Serif" font-size="10.00">src</text>
</a>
</g>
</g>
<g id="clust2" class="cluster">
<title>clusterdir_d3779e66e71f58a7db45b96b5b5f9894</title>
<g id="a_clust2"><a xlink:href="dir_d3779e66e71f58a7db45b96b5b5f9894.html" target="_top">
<polygon fill="#edf0f7" stroke="#404040" stroke-width="2" points="16,-80 16,-204 106,-204 106,-80 16,-80"/>
</a>
</g>
</g>
<!-- dir_0ef45b72fea5c9869a86802e135ecac6 -->
<g id="node1" class="node">
<title>dir_0ef45b72fea5c9869a86802e135ecac6</title>
<g id="a_node1"><a xlink:href="dir_0ef45b72fea5c9869a86802e135ecac6.html" target="_top" xlink:title="general">
<polygon fill="#a2b4d6" stroke="red" points="94,-52 40,-52 40,-16 94,-16 94,-52"/>
<text text-anchor="middle" x="67" y="-31.5" font-family="Helvetica,sans-Serif" font-size="10.00">general</text>
</a>
</g>
</g>
<!-- dir_d3779e66e71f58a7db45b96b5b5f9894 -->
<g id="node2" class="node">
<title>dir_d3779e66e71f58a7db45b96b5b5f9894</title>
<text text-anchor="middle" x="61" y="-175.5" font-family="Helvetica,sans-Serif" font-size="10.00">server_side</text>
</g>
<!-- dir_d3779e66e71f58a7db45b96b5b5f9894&#45;&gt;dir_0ef45b72fea5c9869a86802e135ecac6 -->
<g id="edge1" class="edge">
<title>dir_d3779e66e71f58a7db45b96b5b5f9894&#45;&gt;dir_0ef45b72fea5c9869a86802e135ecac6</title>
<path fill="none" stroke="black" d="M75.75,-159.63C83.09,-149.85 91.19,-137.01 95,-124 100.5,-105.23 100.37,-98.8 95,-80 93.14,-73.5 90.04,-67.02 86.57,-61.09"/>
<polygon fill="black" stroke="black" points="89.27,-58.82 80.92,-52.29 83.38,-62.6 89.27,-58.82"/>
<g id="a_edge1&#45;headlabel"><a xlink:href="dir_000007_000003.html" target="_top" xlink:title="10">
<text text-anchor="middle" x="93.6" y="-57.81" font-family="Helvetica,sans-Serif" font-size="10.00">10</text>
</a>
</g>
</g>
<!-- dir_51f5f8717dbbd35ad7d51a184454b881 -->
<g id="node3" class="node">
<title>dir_51f5f8717dbbd35ad7d51a184454b881</title>
<g id="a_node3"><a xlink:href="dir_51f5f8717dbbd35ad7d51a184454b881.html" target="_top" xlink:title="database">
<polygon fill="#a2b4d6" stroke="#404040" points="86,-124 24,-124 24,-88 86,-88 86,-124"/>
<text text-anchor="middle" x="55" y="-103.5" font-family="Helvetica,sans-Serif" font-size="10.00">database</text>
</a>
</g>
</g>
<!-- dir_d3779e66e71f58a7db45b96b5b5f9894&#45;&gt;dir_51f5f8717dbbd35ad7d51a184454b881 -->
<g id="edge2" class="edge">
<title>dir_d3779e66e71f58a7db45b96b5b5f9894&#45;&gt;dir_51f5f8717dbbd35ad7d51a184454b881</title>
<path fill="none" stroke="black" d="M59.52,-159.7C58.86,-151.98 58.06,-142.71 57.32,-134.11"/>
<polygon fill="black" stroke="black" points="60.81,-133.77 56.47,-124.1 53.83,-134.37 60.81,-133.77"/>
<g id="a_edge2&#45;headlabel"><a xlink:href="dir_000007_000002.html" target="_top" xlink:title="2">
<text text-anchor="middle" x="63.94" y="-134.61" font-family="Helvetica,sans-Serif" font-size="10.00">2</text>
</a>
</g>
</g>
<!-- dir_51f5f8717dbbd35ad7d51a184454b881&#45;&gt;dir_0ef45b72fea5c9869a86802e135ecac6 -->
<g id="edge3" class="edge">
<title>dir_51f5f8717dbbd35ad7d51a184454b881&#45;&gt;dir_0ef45b72fea5c9869a86802e135ecac6</title>
<path fill="none" stroke="black" d="M57.97,-87.7C59.29,-79.98 60.88,-70.71 62.35,-62.11"/>
<polygon fill="black" stroke="black" points="65.83,-62.55 64.07,-52.1 58.93,-61.37 65.83,-62.55"/>
<g id="a_edge3&#45;headlabel"><a xlink:href="dir_000002_000003.html" target="_top" xlink:title="1">
<text text-anchor="middle" x="68.02" y="-64.07" font-family="Helvetica,sans-Serif" font-size="10.00">1</text>
</a>
</g>
</g>
</g>
</svg>
