<?xml version="1.0" encoding="UTF-8" standalone="no"?>
<!DOCTYPE svg PUBLIC "-//W3C//DTD SVG 1.1//EN"
 "http://www.w3.org/Graphics/SVG/1.1/DTD/svg11.dtd">
<!-- Generated by graphviz version 2.43.0 (0)
 -->
<!-- Title: Graphical Class Hierarchy Pages: 1 -->
<svg width="691pt" height="284pt"
 viewBox="0.00 0.00 691.00 284.00" xmlns="http://www.w3.org/2000/svg" xmlns:xlink="http://www.w3.org/1999/xlink">
<g id="graph0" class="graph" transform="scale(1 1) rotate(0) translate(4 280)">
<title>Graphical Class Hierarchy</title>
<!-- Node0 -->
<g id="node1" class="node">
<title>Node0</title>
<g id="a_node1"><a xlink:title=" ">
<polygon fill="none" stroke="#bfbfbf" points="0,-166 0,-196 109,-196 109,-166 0,-166"/>
<text text-anchor="start" x="8" y="-184" font-family="Helvetica,sans-Serif" font-size="10.00">std::enable_shared</text>
<text text-anchor="middle" x="54.5" y="-173" font-family="Helvetica,sans-Serif" font-size="10.00">_from_this</text>
</a>
</g>
</g>
<!-- Node1 -->
<g id="node2" class="node">
<title>Node1</title>
<g id="a_node2"><a xlink:href="class_abstract_handler.html" target="_top" xlink:title=" ">
<polygon fill="none" stroke="black" points="145,-218.5 145,-237.5 240,-237.5 240,-218.5 145,-218.5"/>
<text text-anchor="middle" x="192.5" y="-225.5" font-family="Helvetica,sans-Serif" font-size="10.00">AbstractHandler</text>
</a>
</g>
</g>
<!-- Node0&#45;&gt;Node1 -->
<g id="edge1" class="edge">
<title>Node0&#45;&gt;Node1</title>
<path fill="none" stroke="midnightblue" d="M108.6,-199.35C127.49,-205.88 148,-212.97 163.88,-218.46"/>
<polygon fill="midnightblue" stroke="midnightblue" points="109.5,-195.96 98.91,-196 107.21,-202.57 109.5,-195.96"/>
</g>
<!-- Node5 -->
<g id="node6" class="node">
<title>Node5</title>
<g id="a_node6"><a xlink:href="class_request.html" target="_top" xlink:title=" ">
<polygon fill="none" stroke="black" points="164.5,-171.5 164.5,-190.5 220.5,-190.5 220.5,-171.5 164.5,-171.5"/>
<text text-anchor="middle" x="192.5" y="-178.5" font-family="Helvetica,sans-Serif" font-size="10.00">Request</text>
</a>
</g>
</g>
<!-- Node0&#45;&gt;Node5 -->
<g id="edge5" class="edge">
<title>Node0&#45;&gt;Node5</title>
<path fill="none" stroke="midnightblue" d="M119.53,-181C135.29,-181 151.33,-181 164.26,-181"/>
<polygon fill="midnightblue" stroke="midnightblue" points="119.25,-177.5 109.25,-181 119.25,-184.5 119.25,-177.5"/>
</g>
<!-- Node17 -->
<g id="node18" class="node">
<title>Node17</title>
<g id="a_node18"><a xlink:href="class_server.html" target="_top" xlink:title=" ">
<polygon fill="none" stroke="black" points="168.5,-133.5 168.5,-152.5 216.5,-152.5 216.5,-133.5 168.5,-133.5"/>
<text text-anchor="middle" x="192.5" y="-140.5" font-family="Helvetica,sans-Serif" font-size="10.00">Server</text>
</a>
</g>
</g>
<!-- Node0&#45;&gt;Node17 -->
<g id="edge17" class="edge">
<title>Node0&#45;&gt;Node17</title>
<path fill="none" stroke="midnightblue" d="M118.96,-163.27C136.56,-158.35 154.57,-153.32 168.25,-149.5"/>
<polygon fill="midnightblue" stroke="midnightblue" points="117.94,-159.92 109.25,-165.98 119.82,-166.66 117.94,-159.92"/>
</g>
<!-- Node2 -->
<g id="node3" class="node">
<title>Node2</title>
<g id="a_node3"><a xlink:href="class_clientside_handler.html" target="_top" xlink:title=" ">
<polygon fill="none" stroke="black" points="285,-256.5 285,-275.5 389,-275.5 389,-256.5 285,-256.5"/>
<text text-anchor="middle" x="337" y="-263.5" font-family="Helvetica,sans-Serif" font-size="10.00">ClientsideHandler</text>
</a>
</g>
</g>
<!-- Node1&#45;&gt;Node2 -->
<g id="edge2" class="edge">
<title>Node1&#45;&gt;Node2</title>
<path fill="none" stroke="midnightblue" d="M239.15,-240.17C258.86,-245.43 281.57,-251.49 300.05,-256.41"/>
<polygon fill="midnightblue" stroke="midnightblue" points="240.02,-236.78 229.46,-237.59 238.22,-243.55 240.02,-236.78"/>
</g>
<!-- Node3 -->
<g id="node4" class="node">
<title>Node3</title>
<g id="a_node4"><a xlink:href="class_serverside_handler.html" target="_top" xlink:title=" ">
<polygon fill="none" stroke="black" points="283.5,-218.5 283.5,-237.5 390.5,-237.5 390.5,-218.5 283.5,-218.5"/>
<text text-anchor="middle" x="337" y="-225.5" font-family="Helvetica,sans-Serif" font-size="10.00">ServersideHandler</text>
</a>
</g>
</g>
<!-- Node1&#45;&gt;Node3 -->
<g id="edge3" class="edge">
<title>Node1&#45;&gt;Node3</title>
<path fill="none" stroke="midnightblue" d="M250.4,-228C261.26,-228 272.59,-228 283.31,-228"/>
<polygon fill="midnightblue" stroke="midnightblue" points="250.16,-224.5 240.16,-228 250.16,-231.5 250.16,-224.5"/>
</g>
<!-- Node4 -->
<g id="node5" class="node">
<title>Node4</title>
<g id="a_node5"><a xlink:href="class_client_connection.html" target="_top" xlink:title=" ">
<polygon fill="none" stroke="black" points="441,-228.5 441,-247.5 541,-247.5 541,-228.5 441,-228.5"/>
<text text-anchor="middle" x="491" y="-235.5" font-family="Helvetica,sans-Serif" font-size="10.00">ClientConnection</text>
</a>
</g>
</g>
<!-- Node3&#45;&gt;Node4 -->
<g id="edge4" class="edge">
<title>Node3&#45;&gt;Node4</title>
<path fill="none" stroke="midnightblue" d="M400.83,-232.13C414.21,-233.01 428.15,-233.93 440.93,-234.77"/>
<polygon fill="midnightblue" stroke="midnightblue" points="400.94,-228.63 390.74,-231.47 400.48,-235.62 400.94,-228.63"/>
</g>
<!-- Node6 -->
<g id="node7" class="node">
<title>Node6</title>
<g id="a_node7"><a xlink:href="class_authorization_request.html" target="_top" xlink:title=" ">
<polygon fill="none" stroke="black" points="276,-171.5 276,-190.5 398,-190.5 398,-171.5 276,-171.5"/>
<text text-anchor="middle" x="337" y="-178.5" font-family="Helvetica,sans-Serif" font-size="10.00">AuthorizationRequest</text>
</a>
</g>
</g>
<!-- Node5&#45;&gt;Node6 -->
<g id="edge6" class="edge">
<title>Node5&#45;&gt;Node6</title>
<path fill="none" stroke="midnightblue" d="M230.72,-181C244.53,-181 260.57,-181 275.9,-181"/>
<polygon fill="midnightblue" stroke="midnightblue" points="230.64,-177.5 220.64,-181 230.64,-184.5 230.64,-177.5"/>
</g>
<!-- Node9 -->
<g id="node10" class="node">
<title>Node9</title>
<g id="a_node10"><a xlink:href="class_message.html" target="_top" xlink:title=" ">
<polygon fill="none" stroke="black" points="307,-114.5 307,-133.5 367,-133.5 367,-114.5 307,-114.5"/>
<text text-anchor="middle" x="337" y="-121.5" font-family="Helvetica,sans-Serif" font-size="10.00">Message</text>
</a>
</g>
</g>
<!-- Node5&#45;&gt;Node9 -->
<g id="edge9" class="edge">
<title>Node5&#45;&gt;Node9</title>
<path fill="none" stroke="midnightblue" d="M226.85,-167.66C252.99,-157.2 288.72,-142.91 312.07,-133.57"/>
<polygon fill="midnightblue" stroke="midnightblue" points="225.34,-164.5 217.35,-171.46 227.94,-171 225.34,-164.5"/>
</g>
<!-- Node7 -->
<g id="node8" class="node">
<title>Node7</title>
<g id="a_node8"><a xlink:href="class_sign_in_request.html" target="_top" xlink:title=" ">
<polygon fill="none" stroke="black" points="448,-190.5 448,-209.5 534,-209.5 534,-190.5 448,-190.5"/>
<text text-anchor="middle" x="491" y="-197.5" font-family="Helvetica,sans-Serif" font-size="10.00">SignInRequest</text>
</a>
</g>
</g>
<!-- Node6&#45;&gt;Node7 -->
<g id="edge7" class="edge">
<title>Node6&#45;&gt;Node7</title>
<path fill="none" stroke="midnightblue" d="M408.29,-189.79C421.75,-191.47 435.45,-193.18 447.68,-194.71"/>
<polygon fill="midnightblue" stroke="midnightblue" points="408.43,-186.28 398.07,-188.51 407.56,-193.22 408.43,-186.28"/>
</g>
<!-- Node8 -->
<g id="node9" class="node">
<title>Node8</title>
<g id="a_node9"><a xlink:href="class_sign_up_request.html" target="_top" xlink:title=" ">
<polygon fill="none" stroke="black" points="445.5,-152.5 445.5,-171.5 536.5,-171.5 536.5,-152.5 445.5,-152.5"/>
<text text-anchor="middle" x="491" y="-159.5" font-family="Helvetica,sans-Serif" font-size="10.00">SignUpRequest</text>
</a>
</g>
</g>
<!-- Node6&#45;&gt;Node8 -->
<g id="edge8" class="edge">
<title>Node6&#45;&gt;Node8</title>
<path fill="none" stroke="midnightblue" d="M408.15,-172.23C420.81,-170.65 433.69,-169.04 445.36,-167.58"/>
<polygon fill="midnightblue" stroke="midnightblue" points="407.56,-168.78 398.07,-173.49 408.43,-175.72 407.56,-168.78"/>
</g>
<!-- Node10 -->
<g id="node11" class="node">
<title>Node10</title>
<g id="a_node11"><a xlink:href="class_base_message.html" target="_top" xlink:title=" ">
<polygon fill="none" stroke="black" points="449,-114.5 449,-133.5 533,-133.5 533,-114.5 449,-114.5"/>
<text text-anchor="middle" x="491" y="-121.5" font-family="Helvetica,sans-Serif" font-size="10.00">BaseMessage</text>
</a>
</g>
</g>
<!-- Node9&#45;&gt;Node10 -->
<g id="edge10" class="edge">
<title>Node9&#45;&gt;Node10</title>
<path fill="none" stroke="midnightblue" d="M377.57,-124C399.44,-124 426.58,-124 448.72,-124"/>
<polygon fill="midnightblue" stroke="midnightblue" points="377.31,-120.5 367.31,-124 377.31,-127.5 377.31,-120.5"/>
</g>
<!-- Node11 -->
<g id="node12" class="node">
<title>Node11</title>
<g id="a_node12"><a xlink:href="class_properties_decorator.html" target="_top" xlink:title=" ">
<polygon fill="none" stroke="black" points="434,-76.5 434,-95.5 548,-95.5 548,-76.5 434,-76.5"/>
<text text-anchor="middle" x="491" y="-83.5" font-family="Helvetica,sans-Serif" font-size="10.00">PropertiesDecorator</text>
</a>
</g>
</g>
<!-- Node9&#45;&gt;Node11 -->
<g id="edge11" class="edge">
<title>Node9&#45;&gt;Node11</title>
<path fill="none" stroke="midnightblue" d="M377.08,-114.23C400.08,-108.48 429.02,-101.24 451.85,-95.54"/>
<polygon fill="midnightblue" stroke="midnightblue" points="376.16,-110.85 367.31,-116.67 377.86,-117.64 376.16,-110.85"/>
</g>
<!-- Node12 -->
<g id="node13" class="node">
<title>Node12</title>
<g id="a_node13"><a xlink:href="class_private_decorator.html" target="_top" xlink:title=" ">
<polygon fill="none" stroke="black" points="584,-152.5 584,-171.5 683,-171.5 683,-152.5 584,-152.5"/>
<text text-anchor="middle" x="633.5" y="-159.5" font-family="Helvetica,sans-Serif" font-size="10.00">PrivateDecorator</text>
</a>
</g>
</g>
<!-- Node11&#45;&gt;Node12 -->
<g id="edge12" class="edge">
<title>Node11&#45;&gt;Node12</title>
<path fill="none" stroke="midnightblue" d="M538.06,-99.54C541.52,-101.19 544.88,-103 548,-105 567.59,-117.55 564.71,-130 584,-143 589.47,-146.69 595.77,-149.82 601.97,-152.41"/>
<polygon fill="midnightblue" stroke="midnightblue" points="539.31,-96.27 528.73,-95.6 536.58,-102.72 539.31,-96.27"/>
</g>
<!-- Node13 -->
<g id="node14" class="node">
<title>Node13</title>
<g id="a_node14"><a xlink:href="class_room_decorator.html" target="_top" xlink:title=" ">
<polygon fill="none" stroke="black" points="587,-114.5 587,-133.5 680,-133.5 680,-114.5 587,-114.5"/>
<text text-anchor="middle" x="633.5" y="-121.5" font-family="Helvetica,sans-Serif" font-size="10.00">RoomDecorator</text>
</a>
</g>
</g>
<!-- Node11&#45;&gt;Node13 -->
<g id="edge13" class="edge">
<title>Node11&#45;&gt;Node13</title>
<path fill="none" stroke="midnightblue" d="M537.28,-98.25C556.64,-103.48 578.92,-109.51 597.06,-114.41"/>
<polygon fill="midnightblue" stroke="midnightblue" points="538.02,-94.82 527.45,-95.59 536.19,-101.58 538.02,-94.82"/>
</g>
<!-- Node14 -->
<g id="node15" class="node">
<title>Node14</title>
<g id="a_node15"><a xlink:href="class_sender_decorator.html" target="_top" xlink:title=" ">
<polygon fill="none" stroke="black" points="584.5,-76.5 584.5,-95.5 682.5,-95.5 682.5,-76.5 584.5,-76.5"/>
<text text-anchor="middle" x="633.5" y="-83.5" font-family="Helvetica,sans-Serif" font-size="10.00">SenderDecorator</text>
</a>
</g>
</g>
<!-- Node11&#45;&gt;Node14 -->
<g id="edge14" class="edge">
<title>Node11&#45;&gt;Node14</title>
<path fill="none" stroke="midnightblue" d="M558.49,-86C567.19,-86 575.97,-86 584.29,-86"/>
<polygon fill="midnightblue" stroke="midnightblue" points="558.34,-82.5 548.34,-86 558.34,-89.5 558.34,-82.5"/>
</g>
<!-- Node15 -->
<g id="node16" class="node">
<title>Node15</title>
<g id="a_node16"><a xlink:href="class_text_decorator.html" target="_top" xlink:title=" ">
<polygon fill="none" stroke="black" points="591,-38.5 591,-57.5 676,-57.5 676,-38.5 591,-38.5"/>
<text text-anchor="middle" x="633.5" y="-45.5" font-family="Helvetica,sans-Serif" font-size="10.00">TextDecorator</text>
</a>
</g>
</g>
<!-- Node11&#45;&gt;Node15 -->
<g id="edge15" class="edge">
<title>Node11&#45;&gt;Node15</title>
<path fill="none" stroke="midnightblue" d="M537.28,-73.75C556.64,-68.52 578.92,-62.49 597.06,-57.59"/>
<polygon fill="midnightblue" stroke="midnightblue" points="536.19,-70.42 527.45,-76.41 538.02,-77.18 536.19,-70.42"/>
</g>
<!-- Node16 -->
<g id="node17" class="node">
<title>Node16</title>
<g id="a_node17"><a xlink:href="class_time_decorator.html" target="_top" xlink:title=" ">
<polygon fill="none" stroke="black" points="589,-0.5 589,-19.5 678,-19.5 678,-0.5 589,-0.5"/>
<text text-anchor="middle" x="633.5" y="-7.5" font-family="Helvetica,sans-Serif" font-size="10.00">TimeDecorator</text>
</a>
</g>
</g>
<!-- Node11&#45;&gt;Node16 -->
<g id="edge16" class="edge">
<title>Node11&#45;&gt;Node16</title>
<path fill="none" stroke="midnightblue" d="M514.28,-70.6C532.52,-58.4 559.25,-41.39 584,-29 590.87,-25.56 598.53,-22.31 605.69,-19.5"/>
<polygon fill="midnightblue" stroke="midnightblue" points="511.89,-67.99 505.57,-76.5 515.82,-73.79 511.89,-67.99"/>
</g>
</g>
</svg>
