<?xml version="1.0" encoding="UTF-8" standalone="no"?>
<!DOCTYPE svg PUBLIC "-//W3C//DTD SVG 1.1//EN"
 "http://www.w3.org/Graphics/SVG/1.1/DTD/svg11.dtd">
<!-- Generated by graphviz version 2.43.0 (0)
 -->
<!-- Title: /home/alexander/Documents/Seminars/TP/Project/src/general/requests/messages/message.hpp Pages: 1 -->
<svg width="1783pt" height="829pt"
 viewBox="0.00 0.00 1782.50 829.00" xmlns="http://www.w3.org/2000/svg" xmlns:xlink="http://www.w3.org/1999/xlink">
<g id="graph0" class="graph" transform="scale(1 1) rotate(0) translate(4 825)">
<title>/home/alexander/Documents/Seminars/TP/Project/src/general/requests/messages/message.hpp</title>
<!-- Node1 -->
<g id="node1" class="node">
<title>Node1</title>
<g id="a_node1"><a xlink:title=" ">
<polygon fill="#bfbfbf" stroke="black" points="424,-768.5 424,-820.5 582,-820.5 582,-768.5 424,-768.5"/>
<text text-anchor="start" x="432" y="-808.5" font-family="Helvetica,sans-Serif" font-size="10.00">/home/alexander/Documents</text>
<text text-anchor="start" x="432" y="-797.5" font-family="Helvetica,sans-Serif" font-size="10.00">/Seminars/TP/Project/src</text>
<text text-anchor="start" x="432" y="-786.5" font-family="Helvetica,sans-Serif" font-size="10.00">/general/requests/messages</text>
<text text-anchor="middle" x="503" y="-775.5" font-family="Helvetica,sans-Serif" font-size="10.00">/message.hpp</text>
</a>
</g>
</g>
<!-- Node2 -->
<g id="node2" class="node">
<title>Node2</title>
<g id="a_node2"><a xlink:href="base__message_8hpp.html" target="_top" xlink:title=" ">
<polygon fill="none" stroke="black" points="283,-679.5 283,-731.5 441,-731.5 441,-679.5 283,-679.5"/>
<text text-anchor="start" x="291" y="-719.5" font-family="Helvetica,sans-Serif" font-size="10.00">/home/alexander/Documents</text>
<text text-anchor="start" x="291" y="-708.5" font-family="Helvetica,sans-Serif" font-size="10.00">/Seminars/TP/Project/src</text>
<text text-anchor="start" x="291" y="-697.5" font-family="Helvetica,sans-Serif" font-size="10.00">/general/requests/messages</text>
<text text-anchor="middle" x="362" y="-686.5" font-family="Helvetica,sans-Serif" font-size="10.00">/base_message.hpp</text>
</a>
</g>
</g>
<!-- Node1&#45;&gt;Node2 -->
<g id="edge1" class="edge">
<title>Node1&#45;&gt;Node2</title>
<path fill="none" stroke="midnightblue" d="M453.68,-763.07C437.02,-752.79 418.61,-741.43 402.69,-731.61"/>
<polygon fill="midnightblue" stroke="midnightblue" points="451.87,-766.06 462.22,-768.34 455.54,-760.11 451.87,-766.06"/>
</g>
<!-- Node26 -->
<g id="node26" class="node">
<title>Node26</title>
<g id="a_node26"><a xlink:href="properties__decorator_8hpp.html" target="_top" xlink:title=" ">
<polygon fill="none" stroke="black" points="566,-679.5 566,-731.5 724,-731.5 724,-679.5 566,-679.5"/>
<text text-anchor="start" x="574" y="-719.5" font-family="Helvetica,sans-Serif" font-size="10.00">/home/alexander/Documents</text>
<text text-anchor="start" x="574" y="-708.5" font-family="Helvetica,sans-Serif" font-size="10.00">/Seminars/TP/Project/src</text>
<text text-anchor="start" x="574" y="-697.5" font-family="Helvetica,sans-Serif" font-size="10.00">/general/requests/messages</text>
<text text-anchor="middle" x="645" y="-686.5" font-family="Helvetica,sans-Serif" font-size="10.00">/properties_decorator.hpp</text>
</a>
</g>
</g>
<!-- Node1&#45;&gt;Node26 -->
<g id="edge30" class="edge">
<title>Node1&#45;&gt;Node26</title>
<path fill="none" stroke="midnightblue" d="M552.67,-763.07C569.45,-752.79 587.99,-741.43 604.02,-731.61"/>
<polygon fill="midnightblue" stroke="midnightblue" points="550.77,-760.13 544.07,-768.34 554.43,-766.1 550.77,-760.13"/>
</g>
<!-- Node3 -->
<g id="node3" class="node">
<title>Node3</title>
<g id="a_node3"><a xlink:href="all__messages_8hpp.html" target="_top" xlink:title=" ">
<polygon fill="none" stroke="black" points="566,-501.5 566,-553.5 724,-553.5 724,-501.5 566,-501.5"/>
<text text-anchor="start" x="574" y="-541.5" font-family="Helvetica,sans-Serif" font-size="10.00">/home/alexander/Documents</text>
<text text-anchor="start" x="574" y="-530.5" font-family="Helvetica,sans-Serif" font-size="10.00">/Seminars/TP/Project/src</text>
<text text-anchor="start" x="574" y="-519.5" font-family="Helvetica,sans-Serif" font-size="10.00">/general/requests/messages</text>
<text text-anchor="middle" x="645" y="-508.5" font-family="Helvetica,sans-Serif" font-size="10.00">/all_messages.hpp</text>
</a>
</g>
</g>
<!-- Node2&#45;&gt;Node3 -->
<g id="edge2" class="edge">
<title>Node2&#45;&gt;Node3</title>
<path fill="none" stroke="midnightblue" d="M358.13,-668.73C357.49,-643.47 361.18,-610.57 381,-590 436.39,-532.5 479.48,-573.13 557,-554 559.93,-553.28 562.92,-552.52 565.93,-551.74"/>
<polygon fill="midnightblue" stroke="midnightblue" points="354.65,-669.22 358.64,-679.03 361.65,-668.87 354.65,-669.22"/>
</g>
<!-- Node25 -->
<g id="node25" class="node">
<title>Node25</title>
<g id="a_node25"><a xlink:href="base__message_8cpp.html" target="_top" xlink:title=" ">
<polygon fill="none" stroke="black" points="0,-590.5 0,-642.5 158,-642.5 158,-590.5 0,-590.5"/>
<text text-anchor="start" x="8" y="-630.5" font-family="Helvetica,sans-Serif" font-size="10.00">/home/alexander/Documents</text>
<text text-anchor="start" x="8" y="-619.5" font-family="Helvetica,sans-Serif" font-size="10.00">/Seminars/TP/Project/src</text>
<text text-anchor="start" x="8" y="-608.5" font-family="Helvetica,sans-Serif" font-size="10.00">/general/requests/messages</text>
<text text-anchor="middle" x="79" y="-597.5" font-family="Helvetica,sans-Serif" font-size="10.00">/base_message.cpp</text>
</a>
</g>
</g>
<!-- Node2&#45;&gt;Node25 -->
<g id="edge29" class="edge">
<title>Node2&#45;&gt;Node25</title>
<path fill="none" stroke="midnightblue" d="M273.07,-677.16C236.25,-665.84 193.91,-652.83 158.19,-641.84"/>
<polygon fill="midnightblue" stroke="midnightblue" points="272.21,-680.56 282.79,-680.15 274.26,-673.87 272.21,-680.56"/>
</g>
<!-- Node4 -->
<g id="node4" class="node">
<title>Node4</title>
<g id="a_node4"><a xlink:href="console__renderer_8hpp.html" target="_top" xlink:title=" ">
<polygon fill="none" stroke="black" points="373.5,-418 373.5,-459 552.5,-459 552.5,-418 373.5,-418"/>
<text text-anchor="start" x="381.5" y="-447" font-family="Helvetica,sans-Serif" font-size="10.00">/home/alexander/Documents</text>
<text text-anchor="start" x="381.5" y="-436" font-family="Helvetica,sans-Serif" font-size="10.00">/Seminars/TP/Project/src</text>
<text text-anchor="middle" x="463" y="-425" font-family="Helvetica,sans-Serif" font-size="10.00">/client_side/console_renderer.hpp</text>
</a>
</g>
</g>
<!-- Node3&#45;&gt;Node4 -->
<g id="edge3" class="edge">
<title>Node3&#45;&gt;Node4</title>
<path fill="none" stroke="midnightblue" d="M583.27,-496.99C557.11,-484.49 527.34,-470.26 503.96,-459.08"/>
<polygon fill="midnightblue" stroke="midnightblue" points="581.83,-500.18 592.36,-501.34 584.85,-493.87 581.83,-500.18"/>
</g>
<!-- Node7 -->
<g id="node7" class="node">
<title>Node7</title>
<g id="a_node7"><a xlink:href="messages__builder_8hpp.html" target="_top" xlink:title=" ">
<polygon fill="none" stroke="black" points="659,-412.5 659,-464.5 817,-464.5 817,-412.5 659,-412.5"/>
<text text-anchor="start" x="667" y="-452.5" font-family="Helvetica,sans-Serif" font-size="10.00">/home/alexander/Documents</text>
<text text-anchor="start" x="667" y="-441.5" font-family="Helvetica,sans-Serif" font-size="10.00">/Seminars/TP/Project/src</text>
<text text-anchor="start" x="667" y="-430.5" font-family="Helvetica,sans-Serif" font-size="10.00">/general/requests/messages</text>
<text text-anchor="middle" x="738" y="-419.5" font-family="Helvetica,sans-Serif" font-size="10.00">/messages_builder.hpp</text>
</a>
</g>
</g>
<!-- Node3&#45;&gt;Node7 -->
<g id="edge6" class="edge">
<title>Node3&#45;&gt;Node7</title>
<path fill="none" stroke="midnightblue" d="M679.35,-494.36C689.85,-484.54 701.24,-473.89 711.16,-464.61"/>
<polygon fill="midnightblue" stroke="midnightblue" points="676.81,-491.95 671.9,-501.34 681.59,-497.06 676.81,-491.95"/>
</g>
<!-- Node5 -->
<g id="node5" class="node">
<title>Node5</title>
<g id="a_node5"><a xlink:href="console__renderer_8cpp.html" target="_top" xlink:title=" ">
<polygon fill="none" stroke="black" points="373.5,-329 373.5,-370 552.5,-370 552.5,-329 373.5,-329"/>
<text text-anchor="start" x="381.5" y="-358" font-family="Helvetica,sans-Serif" font-size="10.00">/home/alexander/Documents</text>
<text text-anchor="start" x="381.5" y="-347" font-family="Helvetica,sans-Serif" font-size="10.00">/Seminars/TP/Project/src</text>
<text text-anchor="middle" x="463" y="-336" font-family="Helvetica,sans-Serif" font-size="10.00">/client_side/console_renderer.cpp</text>
</a>
</g>
</g>
<!-- Node4&#45;&gt;Node5 -->
<g id="edge4" class="edge">
<title>Node4&#45;&gt;Node5</title>
<path fill="none" stroke="midnightblue" d="M463,-407.44C463,-395.1 463,-381.16 463,-370.16"/>
<polygon fill="midnightblue" stroke="midnightblue" points="459.5,-407.76 463,-417.76 466.5,-407.76 459.5,-407.76"/>
</g>
<!-- Node6 -->
<g id="node6" class="node">
<title>Node6</title>
<g id="a_node6"><a xlink:href="client__side_2main_8cpp.html" target="_top" xlink:title=" ">
<polygon fill="none" stroke="black" points="197,-329 197,-370 355,-370 355,-329 197,-329"/>
<text text-anchor="start" x="205" y="-358" font-family="Helvetica,sans-Serif" font-size="10.00">/home/alexander/Documents</text>
<text text-anchor="start" x="205" y="-347" font-family="Helvetica,sans-Serif" font-size="10.00">/Seminars/TP/Project/src</text>
<text text-anchor="middle" x="276" y="-336" font-family="Helvetica,sans-Serif" font-size="10.00">/client_side/main.cpp</text>
</a>
</g>
</g>
<!-- Node4&#45;&gt;Node6 -->
<g id="edge5" class="edge">
<title>Node4&#45;&gt;Node6</title>
<path fill="none" stroke="midnightblue" d="M411.75,-413.66C382.35,-399.98 345.88,-383.01 318.15,-370.11"/>
<polygon fill="midnightblue" stroke="midnightblue" points="410.49,-416.93 421.03,-417.98 413.44,-410.58 410.49,-416.93"/>
</g>
<!-- Node8 -->
<g id="node8" class="node">
<title>Node8</title>
<g id="a_node8"><a xlink:href="messages__builder_8cpp.html" target="_top" xlink:title=" ">
<polygon fill="none" stroke="black" points="571,-323.5 571,-375.5 729,-375.5 729,-323.5 571,-323.5"/>
<text text-anchor="start" x="579" y="-363.5" font-family="Helvetica,sans-Serif" font-size="10.00">/home/alexander/Documents</text>
<text text-anchor="start" x="579" y="-352.5" font-family="Helvetica,sans-Serif" font-size="10.00">/Seminars/TP/Project/src</text>
<text text-anchor="start" x="579" y="-341.5" font-family="Helvetica,sans-Serif" font-size="10.00">/general/requests/messages</text>
<text text-anchor="middle" x="650" y="-330.5" font-family="Helvetica,sans-Serif" font-size="10.00">/messages_builder.cpp</text>
</a>
</g>
</g>
<!-- Node7&#45;&gt;Node8 -->
<g id="edge7" class="edge">
<title>Node7&#45;&gt;Node8</title>
<path fill="none" stroke="midnightblue" d="M705.2,-405.08C695.35,-395.34 684.69,-384.8 675.4,-375.61"/>
<polygon fill="midnightblue" stroke="midnightblue" points="702.97,-407.79 712.55,-412.34 707.9,-402.82 702.97,-407.79"/>
</g>
<!-- Node9 -->
<g id="node9" class="node">
<title>Node9</title>
<g id="a_node9"><a xlink:href="request__creator_8hpp.html" target="_top" xlink:title=" ">
<polygon fill="none" stroke="black" points="961,-323.5 961,-375.5 1119,-375.5 1119,-323.5 961,-323.5"/>
<text text-anchor="start" x="969" y="-363.5" font-family="Helvetica,sans-Serif" font-size="10.00">/home/alexander/Documents</text>
<text text-anchor="start" x="969" y="-352.5" font-family="Helvetica,sans-Serif" font-size="10.00">/Seminars/TP/Project/src</text>
<text text-anchor="start" x="969" y="-341.5" font-family="Helvetica,sans-Serif" font-size="10.00">/general/requests/request</text>
<text text-anchor="middle" x="1040" y="-330.5" font-family="Helvetica,sans-Serif" font-size="10.00">_creator.hpp</text>
</a>
</g>
</g>
<!-- Node7&#45;&gt;Node9 -->
<g id="edge8" class="edge">
<title>Node7&#45;&gt;Node9</title>
<path fill="none" stroke="midnightblue" d="M827.11,-411.83C869.54,-399.6 919.86,-385.11 960.92,-373.28"/>
<polygon fill="midnightblue" stroke="midnightblue" points="825.99,-408.51 817.35,-414.64 827.93,-415.24 825.99,-408.51"/>
</g>
<!-- Node23 -->
<g id="node23" class="node">
<title>Node23</title>
<g id="a_node23"><a xlink:href="request__parser_8hpp.html" target="_top" xlink:title=" ">
<polygon fill="none" stroke="black" points="747,-323.5 747,-375.5 905,-375.5 905,-323.5 747,-323.5"/>
<text text-anchor="start" x="755" y="-363.5" font-family="Helvetica,sans-Serif" font-size="10.00">/home/alexander/Documents</text>
<text text-anchor="start" x="755" y="-352.5" font-family="Helvetica,sans-Serif" font-size="10.00">/Seminars/TP/Project/src</text>
<text text-anchor="start" x="755" y="-341.5" font-family="Helvetica,sans-Serif" font-size="10.00">/general/requests/request</text>
<text text-anchor="middle" x="826" y="-330.5" font-family="Helvetica,sans-Serif" font-size="10.00">_parser.hpp</text>
</a>
</g>
</g>
<!-- Node7&#45;&gt;Node23 -->
<g id="edge26" class="edge">
<title>Node7&#45;&gt;Node23</title>
<path fill="none" stroke="midnightblue" d="M770.8,-405.08C780.65,-395.34 791.31,-384.8 800.6,-375.61"/>
<polygon fill="midnightblue" stroke="midnightblue" points="768.1,-402.82 763.45,-412.34 773.03,-407.79 768.1,-402.82"/>
</g>
<!-- Node10 -->
<g id="node10" class="node">
<title>Node10</title>
<g id="a_node10"><a xlink:href="abstract__handler_8cpp.html" target="_top" xlink:title=" ">
<polygon fill="none" stroke="black" points="747,-234.5 747,-286.5 905,-286.5 905,-234.5 747,-234.5"/>
<text text-anchor="start" x="755" y="-274.5" font-family="Helvetica,sans-Serif" font-size="10.00">/home/alexander/Documents</text>
<text text-anchor="start" x="755" y="-263.5" font-family="Helvetica,sans-Serif" font-size="10.00">/Seminars/TP/Project/src</text>
<text text-anchor="start" x="755" y="-252.5" font-family="Helvetica,sans-Serif" font-size="10.00">/general/request_handlers</text>
<text text-anchor="middle" x="826" y="-241.5" font-family="Helvetica,sans-Serif" font-size="10.00">/abstract_handler.cpp</text>
</a>
</g>
</g>
<!-- Node9&#45;&gt;Node10 -->
<g id="edge9" class="edge">
<title>Node9&#45;&gt;Node10</title>
<path fill="none" stroke="midnightblue" d="M968.85,-319.58C942.53,-308.88 912.94,-296.85 887.55,-286.52"/>
<polygon fill="midnightblue" stroke="midnightblue" points="967.81,-322.93 978.39,-323.45 970.44,-316.44 967.81,-322.93"/>
</g>
<!-- Node11 -->
<g id="node11" class="node">
<title>Node11</title>
<g id="a_node11"><a xlink:href="client__handler_8cpp.html" target="_top" xlink:title=" ">
<polygon fill="none" stroke="black" points="961,-234.5 961,-286.5 1119,-286.5 1119,-234.5 961,-234.5"/>
<text text-anchor="start" x="969" y="-274.5" font-family="Helvetica,sans-Serif" font-size="10.00">/home/alexander/Documents</text>
<text text-anchor="start" x="969" y="-263.5" font-family="Helvetica,sans-Serif" font-size="10.00">/Seminars/TP/Project/src</text>
<text text-anchor="start" x="969" y="-252.5" font-family="Helvetica,sans-Serif" font-size="10.00">/general/request_handlers</text>
<text text-anchor="middle" x="1040" y="-241.5" font-family="Helvetica,sans-Serif" font-size="10.00">/client_handler.cpp</text>
</a>
</g>
</g>
<!-- Node9&#45;&gt;Node11 -->
<g id="edge10" class="edge">
<title>Node9&#45;&gt;Node11</title>
<path fill="none" stroke="midnightblue" d="M1040,-313.19C1040,-304.28 1040,-294.9 1040,-286.61"/>
<polygon fill="midnightblue" stroke="midnightblue" points="1036.5,-313.34 1040,-323.34 1043.5,-313.34 1036.5,-313.34"/>
</g>
<!-- Node12 -->
<g id="node12" class="node">
<title>Node12</title>
<g id="a_node12"><a xlink:href="authorization__request_8cpp.html" target="_top" xlink:title=" ">
<polygon fill="none" stroke="black" points="1136.5,-234.5 1136.5,-286.5 1305.5,-286.5 1305.5,-234.5 1136.5,-234.5"/>
<text text-anchor="start" x="1144.5" y="-274.5" font-family="Helvetica,sans-Serif" font-size="10.00">/home/alexander/Documents</text>
<text text-anchor="start" x="1144.5" y="-263.5" font-family="Helvetica,sans-Serif" font-size="10.00">/Seminars/TP/Project/src</text>
<text text-anchor="start" x="1144.5" y="-252.5" font-family="Helvetica,sans-Serif" font-size="10.00">/general/requests/authorization</text>
<text text-anchor="middle" x="1221" y="-241.5" font-family="Helvetica,sans-Serif" font-size="10.00">/authorization_request.cpp</text>
</a>
</g>
</g>
<!-- Node9&#45;&gt;Node12 -->
<g id="edge11" class="edge">
<title>Node9&#45;&gt;Node12</title>
<path fill="none" stroke="midnightblue" d="M1101.55,-318.92C1123.4,-308.41 1147.77,-296.7 1168.76,-286.61"/>
<polygon fill="midnightblue" stroke="midnightblue" points="1099.85,-315.85 1092.35,-323.34 1102.88,-322.16 1099.85,-315.85"/>
</g>
<!-- Node13 -->
<g id="node13" class="node">
<title>Node13</title>
<g id="a_node13"><a xlink:href="request__creator_8cpp.html" target="_top" xlink:title=" ">
<polygon fill="none" stroke="black" points="1323,-234.5 1323,-286.5 1481,-286.5 1481,-234.5 1323,-234.5"/>
<text text-anchor="start" x="1331" y="-274.5" font-family="Helvetica,sans-Serif" font-size="10.00">/home/alexander/Documents</text>
<text text-anchor="start" x="1331" y="-263.5" font-family="Helvetica,sans-Serif" font-size="10.00">/Seminars/TP/Project/src</text>
<text text-anchor="start" x="1331" y="-252.5" font-family="Helvetica,sans-Serif" font-size="10.00">/general/requests/request</text>
<text text-anchor="middle" x="1402" y="-241.5" font-family="Helvetica,sans-Serif" font-size="10.00">_creator.cpp</text>
</a>
</g>
</g>
<!-- Node9&#45;&gt;Node13 -->
<g id="edge12" class="edge">
<title>Node9&#45;&gt;Node13</title>
<path fill="none" stroke="midnightblue" d="M1129.05,-330.12C1183.05,-318.6 1253.24,-302.94 1315,-287 1317.59,-286.33 1320.22,-285.64 1322.87,-284.93"/>
<polygon fill="midnightblue" stroke="midnightblue" points="1128.21,-326.72 1119.15,-332.23 1129.66,-333.57 1128.21,-326.72"/>
</g>
<!-- Node14 -->
<g id="node14" class="node">
<title>Node14</title>
<g id="a_node14"><a xlink:href="room_8hpp.html" target="_top" xlink:title=" ">
<polygon fill="none" stroke="black" points="1499,-240 1499,-281 1657,-281 1657,-240 1499,-240"/>
<text text-anchor="start" x="1507" y="-269" font-family="Helvetica,sans-Serif" font-size="10.00">/home/alexander/Documents</text>
<text text-anchor="start" x="1507" y="-258" font-family="Helvetica,sans-Serif" font-size="10.00">/Seminars/TP/Project/src</text>
<text text-anchor="middle" x="1578" y="-247" font-family="Helvetica,sans-Serif" font-size="10.00">/server_side/room.hpp</text>
</a>
</g>
</g>
<!-- Node9&#45;&gt;Node14 -->
<g id="edge13" class="edge">
<title>Node9&#45;&gt;Node14</title>
<path fill="none" stroke="midnightblue" d="M1129.08,-340.21C1220.34,-330.81 1366.02,-313.29 1490,-287 1498.09,-285.28 1506.53,-283.21 1514.83,-281"/>
<polygon fill="midnightblue" stroke="midnightblue" points="1128.64,-336.73 1119.05,-341.23 1129.35,-343.7 1128.64,-336.73"/>
</g>
<!-- Node19 -->
<g id="node19" class="node">
<title>Node19</title>
<g id="a_node19"><a xlink:href="server_8hpp.html" target="_top" xlink:title=" ">
<polygon fill="none" stroke="black" points="1269,-156.5 1269,-197.5 1427,-197.5 1427,-156.5 1269,-156.5"/>
<text text-anchor="start" x="1277" y="-185.5" font-family="Helvetica,sans-Serif" font-size="10.00">/home/alexander/Documents</text>
<text text-anchor="start" x="1277" y="-174.5" font-family="Helvetica,sans-Serif" font-size="10.00">/Seminars/TP/Project/src</text>
<text text-anchor="middle" x="1348" y="-163.5" font-family="Helvetica,sans-Serif" font-size="10.00">/server_side/server.hpp</text>
</a>
</g>
</g>
<!-- Node9&#45;&gt;Node19 -->
<g id="edge25" class="edge">
<title>Node9&#45;&gt;Node19</title>
<path fill="none" stroke="midnightblue" d="M978.45,-317.2C967.8,-308.89 958.18,-298.85 952,-287 941.11,-266.11 936.55,-251.78 952,-234 992.18,-187.74 1165.19,-178.65 1268.77,-177.46"/>
<polygon fill="midnightblue" stroke="midnightblue" points="976.61,-320.19 986.76,-323.22 980.72,-314.52 976.61,-320.19"/>
</g>
<!-- Node15 -->
<g id="node15" class="node">
<title>Node15</title>
<g id="a_node15"><a xlink:href="client__connection_8hpp.html" target="_top" xlink:title=" ">
<polygon fill="none" stroke="black" points="1453.5,-78.5 1453.5,-119.5 1638.5,-119.5 1638.5,-78.5 1453.5,-78.5"/>
<text text-anchor="start" x="1461.5" y="-107.5" font-family="Helvetica,sans-Serif" font-size="10.00">/home/alexander/Documents</text>
<text text-anchor="start" x="1461.5" y="-96.5" font-family="Helvetica,sans-Serif" font-size="10.00">/Seminars/TP/Project/src</text>
<text text-anchor="middle" x="1546" y="-85.5" font-family="Helvetica,sans-Serif" font-size="10.00">/server_side/client_connection.hpp</text>
</a>
</g>
</g>
<!-- Node14&#45;&gt;Node15 -->
<g id="edge14" class="edge">
<title>Node14&#45;&gt;Node15</title>
<path fill="none" stroke="midnightblue" d="M1598.53,-231.37C1611.34,-210.17 1623.4,-180.63 1612,-156 1605.18,-141.27 1592.37,-129 1579.83,-119.74"/>
<polygon fill="midnightblue" stroke="midnightblue" points="1595.51,-229.6 1593.07,-239.91 1601.41,-233.38 1595.51,-229.6"/>
</g>
<!-- Node18 -->
<g id="node18" class="node">
<title>Node18</title>
<g id="a_node18"><a xlink:href="room_8cpp.html" target="_top" xlink:title=" ">
<polygon fill="none" stroke="black" points="1445,-156.5 1445,-197.5 1603,-197.5 1603,-156.5 1445,-156.5"/>
<text text-anchor="start" x="1453" y="-185.5" font-family="Helvetica,sans-Serif" font-size="10.00">/home/alexander/Documents</text>
<text text-anchor="start" x="1453" y="-174.5" font-family="Helvetica,sans-Serif" font-size="10.00">/Seminars/TP/Project/src</text>
<text text-anchor="middle" x="1524" y="-163.5" font-family="Helvetica,sans-Serif" font-size="10.00">/server_side/room.cpp</text>
</a>
</g>
</g>
<!-- Node14&#45;&gt;Node18 -->
<g id="edge17" class="edge">
<title>Node14&#45;&gt;Node18</title>
<path fill="none" stroke="midnightblue" d="M1559.27,-231.22C1551.9,-220.11 1543.63,-207.63 1536.95,-197.55"/>
<polygon fill="midnightblue" stroke="midnightblue" points="1556.49,-233.37 1564.93,-239.77 1562.32,-229.5 1556.49,-233.37"/>
</g>
<!-- Node14&#45;&gt;Node19 -->
<g id="edge18" class="edge">
<title>Node14&#45;&gt;Node19</title>
<path fill="none" stroke="midnightblue" d="M1513.33,-236.58C1478.58,-224.27 1436.19,-209.25 1403.04,-197.5"/>
<polygon fill="midnightblue" stroke="midnightblue" points="1512.31,-239.94 1522.91,-239.98 1514.65,-233.34 1512.31,-239.94"/>
</g>
<!-- Node16 -->
<g id="node16" class="node">
<title>Node16</title>
<g id="a_node16"><a xlink:href="client__connection_8cpp.html" target="_top" xlink:title=" ">
<polygon fill="none" stroke="black" points="1589.5,-0.5 1589.5,-41.5 1774.5,-41.5 1774.5,-0.5 1589.5,-0.5"/>
<text text-anchor="start" x="1597.5" y="-29.5" font-family="Helvetica,sans-Serif" font-size="10.00">/home/alexander/Documents</text>
<text text-anchor="start" x="1597.5" y="-18.5" font-family="Helvetica,sans-Serif" font-size="10.00">/Seminars/TP/Project/src</text>
<text text-anchor="middle" x="1682" y="-7.5" font-family="Helvetica,sans-Serif" font-size="10.00">/server_side/client_connection.cpp</text>
</a>
</g>
</g>
<!-- Node15&#45;&gt;Node16 -->
<g id="edge15" class="edge">
<title>Node15&#45;&gt;Node16</title>
<path fill="none" stroke="midnightblue" d="M1589.87,-73.49C1608.39,-63.13 1629.66,-51.25 1647.1,-41.51"/>
<polygon fill="midnightblue" stroke="midnightblue" points="1588.05,-70.49 1581.02,-78.43 1591.46,-76.61 1588.05,-70.49"/>
</g>
<!-- Node17 -->
<g id="node17" class="node">
<title>Node17</title>
<g id="a_node17"><a xlink:href="server_8cpp.html" target="_top" xlink:title=" ">
<polygon fill="none" stroke="black" points="1414,-0.5 1414,-41.5 1572,-41.5 1572,-0.5 1414,-0.5"/>
<text text-anchor="start" x="1422" y="-29.5" font-family="Helvetica,sans-Serif" font-size="10.00">/home/alexander/Documents</text>
<text text-anchor="start" x="1422" y="-18.5" font-family="Helvetica,sans-Serif" font-size="10.00">/Seminars/TP/Project/src</text>
<text text-anchor="middle" x="1493" y="-7.5" font-family="Helvetica,sans-Serif" font-size="10.00">/server_side/server.cpp</text>
</a>
</g>
</g>
<!-- Node15&#45;&gt;Node17 -->
<g id="edge16" class="edge">
<title>Node15&#45;&gt;Node17</title>
<path fill="none" stroke="midnightblue" d="M1526.51,-70.05C1519.89,-60.57 1512.66,-50.18 1506.6,-41.51"/>
<polygon fill="midnightblue" stroke="midnightblue" points="1523.76,-72.23 1532.35,-78.43 1529.5,-68.22 1523.76,-72.23"/>
</g>
<!-- Node19&#45;&gt;Node15 -->
<g id="edge19" class="edge">
<title>Node19&#45;&gt;Node15</title>
<path fill="none" stroke="midnightblue" d="M1408.58,-152.75C1436.29,-142.11 1468.76,-129.65 1495.18,-119.51"/>
<polygon fill="midnightblue" stroke="midnightblue" points="1407.07,-149.58 1398.99,-156.43 1409.58,-156.11 1407.07,-149.58"/>
</g>
<!-- Node19&#45;&gt;Node17 -->
<g id="edge24" class="edge">
<title>Node19&#45;&gt;Node17</title>
<path fill="none" stroke="midnightblue" d="M1373.29,-149.14C1402.13,-118.51 1448.59,-69.17 1474.33,-41.83"/>
<polygon fill="midnightblue" stroke="midnightblue" points="1370.67,-146.82 1366.36,-156.5 1375.77,-151.61 1370.67,-146.82"/>
</g>
<!-- Node20 -->
<g id="node20" class="node">
<title>Node20</title>
<g id="a_node20"><a xlink:href="server__side_2console__handler_8hpp.html" target="_top" xlink:title=" ">
<polygon fill="none" stroke="black" points="1140.5,-78.5 1140.5,-119.5 1319.5,-119.5 1319.5,-78.5 1140.5,-78.5"/>
<text text-anchor="start" x="1148.5" y="-107.5" font-family="Helvetica,sans-Serif" font-size="10.00">/home/alexander/Documents</text>
<text text-anchor="start" x="1148.5" y="-96.5" font-family="Helvetica,sans-Serif" font-size="10.00">/Seminars/TP/Project/src</text>
<text text-anchor="middle" x="1230" y="-85.5" font-family="Helvetica,sans-Serif" font-size="10.00">/server_side/console_handler.hpp</text>
</a>
</g>
</g>
<!-- Node19&#45;&gt;Node20 -->
<g id="edge20" class="edge">
<title>Node19&#45;&gt;Node20</title>
<path fill="none" stroke="midnightblue" d="M1309.06,-150.92C1293.2,-140.7 1275.14,-129.07 1260.28,-119.51"/>
<polygon fill="midnightblue" stroke="midnightblue" points="1307.31,-153.96 1317.61,-156.43 1311.1,-148.07 1307.31,-153.96"/>
</g>
<!-- Node22 -->
<g id="node22" class="node">
<title>Node22</title>
<g id="a_node22"><a xlink:href="server__side_2main_8cpp.html" target="_top" xlink:title=" ">
<polygon fill="none" stroke="black" points="1238,-0.5 1238,-41.5 1396,-41.5 1396,-0.5 1238,-0.5"/>
<text text-anchor="start" x="1246" y="-29.5" font-family="Helvetica,sans-Serif" font-size="10.00">/home/alexander/Documents</text>
<text text-anchor="start" x="1246" y="-18.5" font-family="Helvetica,sans-Serif" font-size="10.00">/Seminars/TP/Project/src</text>
<text text-anchor="middle" x="1317" y="-7.5" font-family="Helvetica,sans-Serif" font-size="10.00">/server_side/main.cpp</text>
</a>
</g>
</g>
<!-- Node19&#45;&gt;Node22 -->
<g id="edge23" class="edge">
<title>Node19&#45;&gt;Node22</title>
<path fill="none" stroke="midnightblue" d="M1342.41,-146.38C1338.71,-126.92 1333.68,-100.92 1329,-78 1326.53,-65.92 1323.64,-52.4 1321.31,-41.68"/>
<polygon fill="midnightblue" stroke="midnightblue" points="1339.02,-147.28 1344.33,-156.45 1345.9,-145.98 1339.02,-147.28"/>
</g>
<!-- Node21 -->
<g id="node21" class="node">
<title>Node21</title>
<g id="a_node21"><a xlink:href="server__side_2console__handler_8cpp.html" target="_top" xlink:title=" ">
<polygon fill="none" stroke="black" points="1042,-0.5 1042,-41.5 1220,-41.5 1220,-0.5 1042,-0.5"/>
<text text-anchor="start" x="1050" y="-29.5" font-family="Helvetica,sans-Serif" font-size="10.00">/home/alexander/Documents</text>
<text text-anchor="start" x="1050" y="-18.5" font-family="Helvetica,sans-Serif" font-size="10.00">/Seminars/TP/Project/src</text>
<text text-anchor="middle" x="1131" y="-7.5" font-family="Helvetica,sans-Serif" font-size="10.00">/server_side/console_handler.cpp</text>
</a>
</g>
</g>
<!-- Node20&#45;&gt;Node21 -->
<g id="edge21" class="edge">
<title>Node20&#45;&gt;Node21</title>
<path fill="none" stroke="midnightblue" d="M1196.22,-72.06C1183.18,-62.06 1168.52,-50.8 1156.41,-41.51"/>
<polygon fill="midnightblue" stroke="midnightblue" points="1194.44,-75.11 1204.51,-78.43 1198.7,-69.56 1194.44,-75.11"/>
</g>
<!-- Node20&#45;&gt;Node22 -->
<g id="edge22" class="edge">
<title>Node20&#45;&gt;Node22</title>
<path fill="none" stroke="midnightblue" d="M1260.02,-71.78C1271.39,-61.84 1284.13,-50.72 1294.67,-41.51"/>
<polygon fill="midnightblue" stroke="midnightblue" points="1257.63,-69.21 1252.4,-78.43 1262.24,-74.49 1257.63,-69.21"/>
</g>
<!-- Node23&#45;&gt;Node10 -->
<g id="edge27" class="edge">
<title>Node23&#45;&gt;Node10</title>
<path fill="none" stroke="midnightblue" d="M826,-313.19C826,-304.28 826,-294.9 826,-286.61"/>
<polygon fill="midnightblue" stroke="midnightblue" points="822.5,-313.34 826,-323.34 829.5,-313.34 822.5,-313.34"/>
</g>
<!-- Node24 -->
<g id="node24" class="node">
<title>Node24</title>
<g id="a_node24"><a xlink:href="request__parser_8cpp.html" target="_top" xlink:title=" ">
<polygon fill="none" stroke="black" points="571,-234.5 571,-286.5 729,-286.5 729,-234.5 571,-234.5"/>
<text text-anchor="start" x="579" y="-274.5" font-family="Helvetica,sans-Serif" font-size="10.00">/home/alexander/Documents</text>
<text text-anchor="start" x="579" y="-263.5" font-family="Helvetica,sans-Serif" font-size="10.00">/Seminars/TP/Project/src</text>
<text text-anchor="start" x="579" y="-252.5" font-family="Helvetica,sans-Serif" font-size="10.00">/general/requests/request</text>
<text text-anchor="middle" x="650" y="-241.5" font-family="Helvetica,sans-Serif" font-size="10.00">_parser.cpp</text>
</a>
</g>
</g>
<!-- Node23&#45;&gt;Node24 -->
<g id="edge28" class="edge">
<title>Node23&#45;&gt;Node24</title>
<path fill="none" stroke="midnightblue" d="M765.87,-318.78C744.69,-308.31 721.12,-296.66 700.79,-286.61"/>
<polygon fill="midnightblue" stroke="midnightblue" points="764.58,-322.04 775.09,-323.34 767.68,-315.77 764.58,-322.04"/>
</g>
<!-- Node27 -->
<g id="node27" class="node">
<title>Node27</title>
<g id="a_node27"><a xlink:href="private__decorator_8hpp.html" target="_top" xlink:title=" ">
<polygon fill="none" stroke="black" points="1094,-590.5 1094,-642.5 1252,-642.5 1252,-590.5 1094,-590.5"/>
<text text-anchor="start" x="1102" y="-630.5" font-family="Helvetica,sans-Serif" font-size="10.00">/home/alexander/Documents</text>
<text text-anchor="start" x="1102" y="-619.5" font-family="Helvetica,sans-Serif" font-size="10.00">/Seminars/TP/Project/src</text>
<text text-anchor="start" x="1102" y="-608.5" font-family="Helvetica,sans-Serif" font-size="10.00">/general/requests/messages</text>
<text text-anchor="middle" x="1173" y="-597.5" font-family="Helvetica,sans-Serif" font-size="10.00">/private_decorator.hpp</text>
</a>
</g>
</g>
<!-- Node26&#45;&gt;Node27 -->
<g id="edge31" class="edge">
<title>Node26&#45;&gt;Node27</title>
<path fill="none" stroke="midnightblue" d="M734.38,-695.8C823.75,-686.22 964.8,-668.68 1085,-643 1087.96,-642.37 1090.96,-641.69 1093.98,-640.98"/>
<polygon fill="midnightblue" stroke="midnightblue" points="733.86,-692.34 724.28,-696.87 734.6,-699.3 733.86,-692.34"/>
</g>
<!-- Node29 -->
<g id="node29" class="node">
<title>Node29</title>
<g id="a_node29"><a xlink:href="properties__decorator_8cpp.html" target="_top" xlink:title=" ">
<polygon fill="none" stroke="black" points="566,-590.5 566,-642.5 724,-642.5 724,-590.5 566,-590.5"/>
<text text-anchor="start" x="574" y="-630.5" font-family="Helvetica,sans-Serif" font-size="10.00">/home/alexander/Documents</text>
<text text-anchor="start" x="574" y="-619.5" font-family="Helvetica,sans-Serif" font-size="10.00">/Seminars/TP/Project/src</text>
<text text-anchor="start" x="574" y="-608.5" font-family="Helvetica,sans-Serif" font-size="10.00">/general/requests/messages</text>
<text text-anchor="middle" x="645" y="-597.5" font-family="Helvetica,sans-Serif" font-size="10.00">/properties_decorator.cpp</text>
</a>
</g>
</g>
<!-- Node26&#45;&gt;Node29 -->
<g id="edge34" class="edge">
<title>Node26&#45;&gt;Node29</title>
<path fill="none" stroke="midnightblue" d="M645,-669.19C645,-660.28 645,-650.9 645,-642.61"/>
<polygon fill="midnightblue" stroke="midnightblue" points="641.5,-669.34 645,-679.34 648.5,-669.34 641.5,-669.34"/>
</g>
<!-- Node30 -->
<g id="node30" class="node">
<title>Node30</title>
<g id="a_node30"><a xlink:href="room__decorator_8hpp.html" target="_top" xlink:title=" ">
<polygon fill="none" stroke="black" points="176,-590.5 176,-642.5 334,-642.5 334,-590.5 176,-590.5"/>
<text text-anchor="start" x="184" y="-630.5" font-family="Helvetica,sans-Serif" font-size="10.00">/home/alexander/Documents</text>
<text text-anchor="start" x="184" y="-619.5" font-family="Helvetica,sans-Serif" font-size="10.00">/Seminars/TP/Project/src</text>
<text text-anchor="start" x="184" y="-608.5" font-family="Helvetica,sans-Serif" font-size="10.00">/general/requests/messages</text>
<text text-anchor="middle" x="255" y="-597.5" font-family="Helvetica,sans-Serif" font-size="10.00">/room_decorator.hpp</text>
</a>
</g>
</g>
<!-- Node26&#45;&gt;Node30 -->
<g id="edge35" class="edge">
<title>Node26&#45;&gt;Node30</title>
<path fill="none" stroke="midnightblue" d="M555.52,-684.54C488.78,-669.65 398.44,-649.5 334.28,-635.19"/>
<polygon fill="midnightblue" stroke="midnightblue" points="555.09,-688.03 565.61,-686.79 556.61,-681.2 555.09,-688.03"/>
</g>
<!-- Node32 -->
<g id="node32" class="node">
<title>Node32</title>
<g id="a_node32"><a xlink:href="sender__decorator_8hpp.html" target="_top" xlink:title=" ">
<polygon fill="none" stroke="black" points="390,-590.5 390,-642.5 548,-642.5 548,-590.5 390,-590.5"/>
<text text-anchor="start" x="398" y="-630.5" font-family="Helvetica,sans-Serif" font-size="10.00">/home/alexander/Documents</text>
<text text-anchor="start" x="398" y="-619.5" font-family="Helvetica,sans-Serif" font-size="10.00">/Seminars/TP/Project/src</text>
<text text-anchor="start" x="398" y="-608.5" font-family="Helvetica,sans-Serif" font-size="10.00">/general/requests/messages</text>
<text text-anchor="middle" x="469" y="-597.5" font-family="Helvetica,sans-Serif" font-size="10.00">/sender_decorator.hpp</text>
</a>
</g>
</g>
<!-- Node26&#45;&gt;Node32 -->
<g id="edge38" class="edge">
<title>Node26&#45;&gt;Node32</title>
<path fill="none" stroke="midnightblue" d="M584.87,-674.78C563.69,-664.31 540.12,-652.66 519.79,-642.61"/>
<polygon fill="midnightblue" stroke="midnightblue" points="583.58,-678.04 594.09,-679.34 586.68,-671.77 583.58,-678.04"/>
</g>
<!-- Node34 -->
<g id="node34" class="node">
<title>Node34</title>
<g id="a_node34"><a xlink:href="text__decorator_8hpp.html" target="_top" xlink:title=" ">
<polygon fill="none" stroke="black" points="742,-590.5 742,-642.5 900,-642.5 900,-590.5 742,-590.5"/>
<text text-anchor="start" x="750" y="-630.5" font-family="Helvetica,sans-Serif" font-size="10.00">/home/alexander/Documents</text>
<text text-anchor="start" x="750" y="-619.5" font-family="Helvetica,sans-Serif" font-size="10.00">/Seminars/TP/Project/src</text>
<text text-anchor="start" x="750" y="-608.5" font-family="Helvetica,sans-Serif" font-size="10.00">/general/requests/messages</text>
<text text-anchor="middle" x="821" y="-597.5" font-family="Helvetica,sans-Serif" font-size="10.00">/text_decorator.hpp</text>
</a>
</g>
</g>
<!-- Node26&#45;&gt;Node34 -->
<g id="edge41" class="edge">
<title>Node26&#45;&gt;Node34</title>
<path fill="none" stroke="midnightblue" d="M705.13,-674.78C726.31,-664.31 749.88,-652.66 770.21,-642.61"/>
<polygon fill="midnightblue" stroke="midnightblue" points="703.32,-671.77 695.91,-679.34 706.42,-678.04 703.32,-671.77"/>
</g>
<!-- Node36 -->
<g id="node36" class="node">
<title>Node36</title>
<g id="a_node36"><a xlink:href="time__decorator_8hpp.html" target="_top" xlink:title=" ">
<polygon fill="none" stroke="black" points="918,-590.5 918,-642.5 1076,-642.5 1076,-590.5 918,-590.5"/>
<text text-anchor="start" x="926" y="-630.5" font-family="Helvetica,sans-Serif" font-size="10.00">/home/alexander/Documents</text>
<text text-anchor="start" x="926" y="-619.5" font-family="Helvetica,sans-Serif" font-size="10.00">/Seminars/TP/Project/src</text>
<text text-anchor="start" x="926" y="-608.5" font-family="Helvetica,sans-Serif" font-size="10.00">/general/requests/messages</text>
<text text-anchor="middle" x="997" y="-597.5" font-family="Helvetica,sans-Serif" font-size="10.00">/time_decorator.hpp</text>
</a>
</g>
</g>
<!-- Node26&#45;&gt;Node36 -->
<g id="edge44" class="edge">
<title>Node26&#45;&gt;Node36</title>
<path fill="none" stroke="midnightblue" d="M734.17,-684.97C785.47,-673.42 851.05,-658.13 909,-643 911.92,-642.24 914.9,-641.45 917.9,-640.64"/>
<polygon fill="midnightblue" stroke="midnightblue" points="733.1,-681.62 724.11,-687.22 734.64,-688.45 733.1,-681.62"/>
</g>
<!-- Node27&#45;&gt;Node3 -->
<g id="edge32" class="edge">
<title>Node27&#45;&gt;Node3</title>
<path fill="none" stroke="midnightblue" d="M1083.66,-589.89C928.81,-560.96 884.21,-583.39 733,-554 730.19,-553.45 727.34,-552.86 724.47,-552.22"/>
<polygon fill="midnightblue" stroke="midnightblue" points="1083.05,-593.34 1093.53,-591.78 1084.37,-586.46 1083.05,-593.34"/>
</g>
<!-- Node28 -->
<g id="node28" class="node">
<title>Node28</title>
<g id="a_node28"><a xlink:href="private__decorator_8cpp.html" target="_top" xlink:title=" ">
<polygon fill="none" stroke="black" points="1094,-501.5 1094,-553.5 1252,-553.5 1252,-501.5 1094,-501.5"/>
<text text-anchor="start" x="1102" y="-541.5" font-family="Helvetica,sans-Serif" font-size="10.00">/home/alexander/Documents</text>
<text text-anchor="start" x="1102" y="-530.5" font-family="Helvetica,sans-Serif" font-size="10.00">/Seminars/TP/Project/src</text>
<text text-anchor="start" x="1102" y="-519.5" font-family="Helvetica,sans-Serif" font-size="10.00">/general/requests/messages</text>
<text text-anchor="middle" x="1173" y="-508.5" font-family="Helvetica,sans-Serif" font-size="10.00">/private_decorator.cpp</text>
</a>
</g>
</g>
<!-- Node27&#45;&gt;Node28 -->
<g id="edge33" class="edge">
<title>Node27&#45;&gt;Node28</title>
<path fill="none" stroke="midnightblue" d="M1173,-580.19C1173,-571.28 1173,-561.9 1173,-553.61"/>
<polygon fill="midnightblue" stroke="midnightblue" points="1169.5,-580.34 1173,-590.34 1176.5,-580.34 1169.5,-580.34"/>
</g>
<!-- Node30&#45;&gt;Node3 -->
<g id="edge36" class="edge">
<title>Node30&#45;&gt;Node3</title>
<path fill="none" stroke="midnightblue" d="M344.11,-590.88C345.42,-590.58 346.71,-590.29 348,-590 440,-569.51 465.15,-575.15 557,-554 559.95,-553.32 562.94,-552.6 565.95,-551.86"/>
<polygon fill="midnightblue" stroke="midnightblue" points="342.94,-587.56 334.02,-593.27 344.56,-594.37 342.94,-587.56"/>
</g>
<!-- Node31 -->
<g id="node31" class="node">
<title>Node31</title>
<g id="a_node31"><a xlink:href="room__decorator_8cpp.html" target="_top" xlink:title=" ">
<polygon fill="none" stroke="black" points="176,-501.5 176,-553.5 334,-553.5 334,-501.5 176,-501.5"/>
<text text-anchor="start" x="184" y="-541.5" font-family="Helvetica,sans-Serif" font-size="10.00">/home/alexander/Documents</text>
<text text-anchor="start" x="184" y="-530.5" font-family="Helvetica,sans-Serif" font-size="10.00">/Seminars/TP/Project/src</text>
<text text-anchor="start" x="184" y="-519.5" font-family="Helvetica,sans-Serif" font-size="10.00">/general/requests/messages</text>
<text text-anchor="middle" x="255" y="-508.5" font-family="Helvetica,sans-Serif" font-size="10.00">/room_decorator.cpp</text>
</a>
</g>
</g>
<!-- Node30&#45;&gt;Node31 -->
<g id="edge37" class="edge">
<title>Node30&#45;&gt;Node31</title>
<path fill="none" stroke="midnightblue" d="M255,-580.19C255,-571.28 255,-561.9 255,-553.61"/>
<polygon fill="midnightblue" stroke="midnightblue" points="251.5,-580.34 255,-590.34 258.5,-580.34 251.5,-580.34"/>
</g>
<!-- Node32&#45;&gt;Node3 -->
<g id="edge39" class="edge">
<title>Node32&#45;&gt;Node3</title>
<path fill="none" stroke="midnightblue" d="M529.13,-585.78C550.31,-575.31 573.88,-563.66 594.21,-553.61"/>
<polygon fill="midnightblue" stroke="midnightblue" points="527.32,-582.77 519.91,-590.34 530.42,-589.04 527.32,-582.77"/>
</g>
<!-- Node33 -->
<g id="node33" class="node">
<title>Node33</title>
<g id="a_node33"><a xlink:href="sender__decorator_8cpp.html" target="_top" xlink:title=" ">
<polygon fill="none" stroke="black" points="390,-501.5 390,-553.5 548,-553.5 548,-501.5 390,-501.5"/>
<text text-anchor="start" x="398" y="-541.5" font-family="Helvetica,sans-Serif" font-size="10.00">/home/alexander/Documents</text>
<text text-anchor="start" x="398" y="-530.5" font-family="Helvetica,sans-Serif" font-size="10.00">/Seminars/TP/Project/src</text>
<text text-anchor="start" x="398" y="-519.5" font-family="Helvetica,sans-Serif" font-size="10.00">/general/requests/messages</text>
<text text-anchor="middle" x="469" y="-508.5" font-family="Helvetica,sans-Serif" font-size="10.00">/sender_decorator.cpp</text>
</a>
</g>
</g>
<!-- Node32&#45;&gt;Node33 -->
<g id="edge40" class="edge">
<title>Node32&#45;&gt;Node33</title>
<path fill="none" stroke="midnightblue" d="M469,-580.19C469,-571.28 469,-561.9 469,-553.61"/>
<polygon fill="midnightblue" stroke="midnightblue" points="465.5,-580.34 469,-590.34 472.5,-580.34 465.5,-580.34"/>
</g>
<!-- Node34&#45;&gt;Node3 -->
<g id="edge42" class="edge">
<title>Node34&#45;&gt;Node3</title>
<path fill="none" stroke="midnightblue" d="M760.87,-585.78C739.69,-575.31 716.12,-563.66 695.79,-553.61"/>
<polygon fill="midnightblue" stroke="midnightblue" points="759.58,-589.04 770.09,-590.34 762.68,-582.77 759.58,-589.04"/>
</g>
<!-- Node35 -->
<g id="node35" class="node">
<title>Node35</title>
<g id="a_node35"><a xlink:href="text__decorator_8cpp.html" target="_top" xlink:title=" ">
<polygon fill="none" stroke="black" points="742,-501.5 742,-553.5 900,-553.5 900,-501.5 742,-501.5"/>
<text text-anchor="start" x="750" y="-541.5" font-family="Helvetica,sans-Serif" font-size="10.00">/home/alexander/Documents</text>
<text text-anchor="start" x="750" y="-530.5" font-family="Helvetica,sans-Serif" font-size="10.00">/Seminars/TP/Project/src</text>
<text text-anchor="start" x="750" y="-519.5" font-family="Helvetica,sans-Serif" font-size="10.00">/general/requests/messages</text>
<text text-anchor="middle" x="821" y="-508.5" font-family="Helvetica,sans-Serif" font-size="10.00">/text_decorator.cpp</text>
</a>
</g>
</g>
<!-- Node34&#45;&gt;Node35 -->
<g id="edge43" class="edge">
<title>Node34&#45;&gt;Node35</title>
<path fill="none" stroke="midnightblue" d="M821,-580.19C821,-571.28 821,-561.9 821,-553.61"/>
<polygon fill="midnightblue" stroke="midnightblue" points="817.5,-580.34 821,-590.34 824.5,-580.34 817.5,-580.34"/>
</g>
<!-- Node36&#45;&gt;Node3 -->
<g id="edge45" class="edge">
<title>Node36&#45;&gt;Node3</title>
<path fill="none" stroke="midnightblue" d="M908.09,-589.86C829.76,-571.02 807.49,-572.38 733,-554 730.07,-553.28 727.08,-552.52 724.07,-551.74"/>
<polygon fill="midnightblue" stroke="midnightblue" points="907.38,-593.29 917.93,-592.26 909.04,-586.49 907.38,-593.29"/>
</g>
<!-- Node37 -->
<g id="node37" class="node">
<title>Node37</title>
<g id="a_node37"><a xlink:href="time__decorator_8cpp.html" target="_top" xlink:title=" ">
<polygon fill="none" stroke="black" points="918,-501.5 918,-553.5 1076,-553.5 1076,-501.5 918,-501.5"/>
<text text-anchor="start" x="926" y="-541.5" font-family="Helvetica,sans-Serif" font-size="10.00">/home/alexander/Documents</text>
<text text-anchor="start" x="926" y="-530.5" font-family="Helvetica,sans-Serif" font-size="10.00">/Seminars/TP/Project/src</text>
<text text-anchor="start" x="926" y="-519.5" font-family="Helvetica,sans-Serif" font-size="10.00">/general/requests/messages</text>
<text text-anchor="middle" x="997" y="-508.5" font-family="Helvetica,sans-Serif" font-size="10.00">/time_decorator.cpp</text>
</a>
</g>
</g>
<!-- Node36&#45;&gt;Node37 -->
<g id="edge46" class="edge">
<title>Node36&#45;&gt;Node37</title>
<path fill="none" stroke="midnightblue" d="M997,-580.19C997,-571.28 997,-561.9 997,-553.61"/>
<polygon fill="midnightblue" stroke="midnightblue" points="993.5,-580.34 997,-590.34 1000.5,-580.34 993.5,-580.34"/>
</g>
</g>
</svg>
