<?xml version="1.0" encoding="UTF-8" standalone="no"?>
<!DOCTYPE svg PUBLIC "-//W3C//DTD SVG 1.1//EN"
 "http://www.w3.org/Graphics/SVG/1.1/DTD/svg11.dtd">
<!-- Generated by graphviz version 2.43.0 (0)
 -->
<!-- Title: /home/alexander/Documents/Seminars/TP/Project/src/general/requests/messages/messages_builder.cpp Pages: 1 -->
<svg width="1077pt" height="688pt"
 viewBox="0.00 0.00 1077.00 688.00" xmlns="http://www.w3.org/2000/svg" xmlns:xlink="http://www.w3.org/1999/xlink">
<g id="graph0" class="graph" transform="scale(1 1) rotate(0) translate(4 684)">
<title>/home/alexander/Documents/Seminars/TP/Project/src/general/requests/messages/messages_builder.cpp</title>
<!-- Node1 -->
<g id="node1" class="node">
<title>Node1</title>
<g id="a_node1"><a xlink:title=" ">
<polygon fill="#bfbfbf" stroke="black" points="593.5,-627.5 593.5,-679.5 751.5,-679.5 751.5,-627.5 593.5,-627.5"/>
<text text-anchor="start" x="601.5" y="-667.5" font-family="Helvetica,sans-Serif" font-size="10.00">/home/alexander/Documents</text>
<text text-anchor="start" x="601.5" y="-656.5" font-family="Helvetica,sans-Serif" font-size="10.00">/Seminars/TP/Project/src</text>
<text text-anchor="start" x="601.5" y="-645.5" font-family="Helvetica,sans-Serif" font-size="10.00">/general/requests/messages</text>
<text text-anchor="middle" x="672.5" y="-634.5" font-family="Helvetica,sans-Serif" font-size="10.00">/messages_builder.cpp</text>
</a>
</g>
</g>
<!-- Node2 -->
<g id="node2" class="node">
<title>Node2</title>
<g id="a_node2"><a xlink:href="messages__builder_8hpp.html" target="_top" xlink:title=" ">
<polygon fill="none" stroke="black" points="610,-571.5 610,-590.5 735,-590.5 735,-571.5 610,-571.5"/>
<text text-anchor="middle" x="672.5" y="-578.5" font-family="Helvetica,sans-Serif" font-size="10.00">messages_builder.hpp</text>
</a>
</g>
</g>
<!-- Node1&#45;&gt;Node2 -->
<g id="edge1" class="edge">
<title>Node1&#45;&gt;Node2</title>
<path fill="none" stroke="midnightblue" d="M672.5,-627.45C672.5,-618.73 672.5,-609.1 672.5,-600.96"/>
<polygon fill="midnightblue" stroke="midnightblue" points="676,-600.7 672.5,-590.7 669,-600.7 676,-600.7"/>
</g>
<!-- Node3 -->
<g id="node3" class="node">
<title>Node3</title>
<g id="a_node3"><a xlink:href="all__messages_8hpp.html" target="_top" xlink:title=" ">
<polygon fill="none" stroke="black" points="620.5,-515.5 620.5,-534.5 724.5,-534.5 724.5,-515.5 620.5,-515.5"/>
<text text-anchor="middle" x="672.5" y="-522.5" font-family="Helvetica,sans-Serif" font-size="10.00">all_messages.hpp</text>
</a>
</g>
</g>
<!-- Node2&#45;&gt;Node3 -->
<g id="edge2" class="edge">
<title>Node2&#45;&gt;Node3</title>
<path fill="none" stroke="midnightblue" d="M672.5,-571.08C672.5,-564.01 672.5,-553.86 672.5,-544.99"/>
<polygon fill="midnightblue" stroke="midnightblue" points="676,-544.75 672.5,-534.75 669,-544.75 676,-544.75"/>
</g>
<!-- Node4 -->
<g id="node4" class="node">
<title>Node4</title>
<g id="a_node4"><a xlink:href="base__message_8hpp.html" target="_top" xlink:title=" ">
<polygon fill="none" stroke="black" points="334.5,-403.5 334.5,-422.5 444.5,-422.5 444.5,-403.5 334.5,-403.5"/>
<text text-anchor="middle" x="389.5" y="-410.5" font-family="Helvetica,sans-Serif" font-size="10.00">base_message.hpp</text>
</a>
</g>
</g>
<!-- Node3&#45;&gt;Node4 -->
<g id="edge3" class="edge">
<title>Node3&#45;&gt;Node4</title>
<path fill="none" stroke="midnightblue" d="M620.47,-521.45C552.95,-517.09 440.12,-505.91 409.5,-479 396.35,-467.45 391.73,-447.48 390.16,-432.72"/>
<polygon fill="midnightblue" stroke="midnightblue" points="393.65,-432.41 389.47,-422.67 386.66,-432.89 393.65,-432.41"/>
</g>
<!-- Node22 -->
<g id="node22" class="node">
<title>Node22</title>
<g id="a_node22"><a xlink:href="private__decorator_8hpp.html" target="_top" xlink:title=" ">
<polygon fill="none" stroke="black" points="946,-459.5 946,-478.5 1069,-478.5 1069,-459.5 946,-459.5"/>
<text text-anchor="middle" x="1007.5" y="-466.5" font-family="Helvetica,sans-Serif" font-size="10.00">private_decorator.hpp</text>
</a>
</g>
</g>
<!-- Node3&#45;&gt;Node22 -->
<g id="edge29" class="edge">
<title>Node3&#45;&gt;Node22</title>
<path fill="none" stroke="midnightblue" d="M724.84,-515.56C784.32,-505.98 881.34,-490.34 944.81,-480.11"/>
<polygon fill="midnightblue" stroke="midnightblue" points="945.38,-483.56 954.7,-478.51 944.27,-476.65 945.38,-483.56"/>
</g>
<!-- Node24 -->
<g id="node24" class="node">
<title>Node24</title>
<g id="a_node24"><a xlink:href="room__decorator_8hpp.html" target="_top" xlink:title=" ">
<polygon fill="none" stroke="black" points="547.5,-459.5 547.5,-478.5 661.5,-478.5 661.5,-459.5 547.5,-459.5"/>
<text text-anchor="middle" x="604.5" y="-466.5" font-family="Helvetica,sans-Serif" font-size="10.00">room_decorator.hpp</text>
</a>
</g>
</g>
<!-- Node3&#45;&gt;Node24 -->
<g id="edge32" class="edge">
<title>Node3&#45;&gt;Node24</title>
<path fill="none" stroke="midnightblue" d="M661.57,-515.32C651.33,-507.18 635.78,-494.84 623.5,-485.09"/>
<polygon fill="midnightblue" stroke="midnightblue" points="625.63,-482.31 615.62,-478.83 621.28,-487.79 625.63,-482.31"/>
</g>
<!-- Node25 -->
<g id="node25" class="node">
<title>Node25</title>
<g id="a_node25"><a xlink:href="sender__decorator_8hpp.html" target="_top" xlink:title=" ">
<polygon fill="none" stroke="black" points="679.5,-459.5 679.5,-478.5 801.5,-478.5 801.5,-459.5 679.5,-459.5"/>
<text text-anchor="middle" x="740.5" y="-466.5" font-family="Helvetica,sans-Serif" font-size="10.00">sender_decorator.hpp</text>
</a>
</g>
</g>
<!-- Node3&#45;&gt;Node25 -->
<g id="edge34" class="edge">
<title>Node3&#45;&gt;Node25</title>
<path fill="none" stroke="midnightblue" d="M683.43,-515.32C693.67,-507.18 709.22,-494.84 721.5,-485.09"/>
<polygon fill="midnightblue" stroke="midnightblue" points="723.72,-487.79 729.38,-478.83 719.37,-482.31 723.72,-487.79"/>
</g>
<!-- Node26 -->
<g id="node26" class="node">
<title>Node26</title>
<g id="a_node26"><a xlink:href="text__decorator_8hpp.html" target="_top" xlink:title=" ">
<polygon fill="none" stroke="black" points="819.5,-459.5 819.5,-478.5 927.5,-478.5 927.5,-459.5 819.5,-459.5"/>
<text text-anchor="middle" x="873.5" y="-466.5" font-family="Helvetica,sans-Serif" font-size="10.00">text_decorator.hpp</text>
</a>
</g>
</g>
<!-- Node3&#45;&gt;Node26 -->
<g id="edge36" class="edge">
<title>Node3&#45;&gt;Node26</title>
<path fill="none" stroke="midnightblue" d="M704.35,-515.44C738.9,-506.16 794.18,-491.31 832.08,-481.13"/>
<polygon fill="midnightblue" stroke="midnightblue" points="833.05,-484.49 841.8,-478.52 831.23,-477.73 833.05,-484.49"/>
</g>
<!-- Node27 -->
<g id="node27" class="node">
<title>Node27</title>
<g id="a_node27"><a xlink:href="time__decorator_8hpp.html" target="_top" xlink:title=" ">
<polygon fill="none" stroke="black" points="418,-459.5 418,-478.5 529,-478.5 529,-459.5 418,-459.5"/>
<text text-anchor="middle" x="473.5" y="-466.5" font-family="Helvetica,sans-Serif" font-size="10.00">time_decorator.hpp</text>
</a>
</g>
</g>
<!-- Node3&#45;&gt;Node27 -->
<g id="edge38" class="edge">
<title>Node3&#45;&gt;Node27</title>
<path fill="none" stroke="midnightblue" d="M640.97,-515.44C606.91,-506.2 552.49,-491.44 514.98,-481.26"/>
<polygon fill="midnightblue" stroke="midnightblue" points="515.45,-477.76 504.88,-478.52 513.62,-484.51 515.45,-477.76"/>
</g>
<!-- Node5 -->
<g id="node5" class="node">
<title>Node5</title>
<g id="a_node5"><a xlink:href="message_8hpp.html" target="_top" xlink:title=" ">
<polygon fill="none" stroke="black" points="455.5,-347.5 455.5,-366.5 537.5,-366.5 537.5,-347.5 455.5,-347.5"/>
<text text-anchor="middle" x="496.5" y="-354.5" font-family="Helvetica,sans-Serif" font-size="10.00">message.hpp</text>
</a>
</g>
</g>
<!-- Node4&#45;&gt;Node5 -->
<g id="edge4" class="edge">
<title>Node4&#45;&gt;Node5</title>
<path fill="none" stroke="midnightblue" d="M406.69,-403.32C423.85,-394.66 450.45,-381.24 470.25,-371.25"/>
<polygon fill="midnightblue" stroke="midnightblue" points="472,-374.28 479.35,-366.65 468.85,-368.04 472,-374.28"/>
</g>
<!-- Node6 -->
<g id="node6" class="node">
<title>Node6</title>
<g id="a_node6"><a xlink:href="request_8hpp.html" target="_top" xlink:title=" ">
<polygon fill="none" stroke="black" points="437,-291.5 437,-310.5 556,-310.5 556,-291.5 437,-291.5"/>
<text text-anchor="middle" x="496.5" y="-298.5" font-family="Helvetica,sans-Serif" font-size="10.00">requests/request.hpp</text>
</a>
</g>
</g>
<!-- Node5&#45;&gt;Node6 -->
<g id="edge5" class="edge">
<title>Node5&#45;&gt;Node6</title>
<path fill="none" stroke="midnightblue" d="M496.5,-347.08C496.5,-340.01 496.5,-329.86 496.5,-320.99"/>
<polygon fill="midnightblue" stroke="midnightblue" points="500,-320.75 496.5,-310.75 493,-320.75 500,-320.75"/>
</g>
<!-- Node7 -->
<g id="node7" class="node">
<title>Node7</title>
<g id="a_node7"><a xlink:title=" ">
<polygon fill="none" stroke="#bfbfbf" points="425.5,-0.5 425.5,-19.5 483.5,-19.5 483.5,-0.5 425.5,-0.5"/>
<text text-anchor="middle" x="454.5" y="-7.5" font-family="Helvetica,sans-Serif" font-size="10.00">memory</text>
</a>
</g>
</g>
<!-- Node6&#45;&gt;Node7 -->
<g id="edge6" class="edge">
<title>Node6&#45;&gt;Node7</title>
<path fill="none" stroke="midnightblue" d="M556.11,-295.71C587.14,-290.48 623.51,-279.18 647.5,-255 672.27,-230.04 669.5,-214.16 669.5,-179 669.5,-179 669.5,-179 669.5,-121 669.5,-43.12 556.3,-20.34 494.18,-13.71"/>
<polygon fill="midnightblue" stroke="midnightblue" points="494.24,-10.2 483.94,-12.71 493.56,-17.17 494.24,-10.2"/>
</g>
<!-- Node8 -->
<g id="node8" class="node">
<title>Node8</title>
<g id="a_node8"><a xlink:title=" ">
<polygon fill="none" stroke="#bfbfbf" points="301.5,-56.5 301.5,-75.5 345.5,-75.5 345.5,-56.5 301.5,-56.5"/>
<text text-anchor="middle" x="323.5" y="-63.5" font-family="Helvetica,sans-Serif" font-size="10.00">string</text>
</a>
</g>
</g>
<!-- Node6&#45;&gt;Node8 -->
<g id="edge7" class="edge">
<title>Node6&#45;&gt;Node8</title>
<path fill="none" stroke="midnightblue" d="M436.76,-297.44C404.89,-292.79 367.76,-281.49 345.5,-255 304.31,-205.98 313.08,-122.67 319.61,-85.67"/>
<polygon fill="midnightblue" stroke="midnightblue" points="323.07,-86.24 321.51,-75.76 316.19,-84.92 323.07,-86.24"/>
</g>
<!-- Node9 -->
<g id="node9" class="node">
<title>Node9</title>
<g id="a_node9"><a xlink:href="client__handler_8hpp.html" target="_top" xlink:title=" ">
<polygon fill="none" stroke="black" points="507,-224.5 507,-254.5 638,-254.5 638,-224.5 507,-224.5"/>
<text text-anchor="start" x="515" y="-242.5" font-family="Helvetica,sans-Serif" font-size="10.00">request_handlers/client</text>
<text text-anchor="middle" x="572.5" y="-231.5" font-family="Helvetica,sans-Serif" font-size="10.00">_handler.hpp</text>
</a>
</g>
</g>
<!-- Node6&#45;&gt;Node9 -->
<g id="edge8" class="edge">
<title>Node6&#45;&gt;Node9</title>
<path fill="none" stroke="midnightblue" d="M507.39,-291.48C517.59,-283.49 533.22,-271.25 546.61,-260.77"/>
<polygon fill="midnightblue" stroke="midnightblue" points="548.87,-263.44 554.59,-254.52 544.56,-257.93 548.87,-263.44"/>
</g>
<!-- Node20 -->
<g id="node20" class="node">
<title>Node20</title>
<g id="a_node20"><a xlink:href="server__handler_8hpp.html" target="_top" xlink:title=" ">
<polygon fill="none" stroke="black" points="354.5,-224.5 354.5,-254.5 488.5,-254.5 488.5,-224.5 354.5,-224.5"/>
<text text-anchor="start" x="362.5" y="-242.5" font-family="Helvetica,sans-Serif" font-size="10.00">request_handlers/server</text>
<text text-anchor="middle" x="421.5" y="-231.5" font-family="Helvetica,sans-Serif" font-size="10.00">_handler.hpp</text>
</a>
</g>
</g>
<!-- Node6&#45;&gt;Node20 -->
<g id="edge26" class="edge">
<title>Node6&#45;&gt;Node20</title>
<path fill="none" stroke="midnightblue" d="M485.75,-291.48C475.69,-283.49 460.27,-271.25 447.05,-260.77"/>
<polygon fill="midnightblue" stroke="midnightblue" points="449.19,-258 439.18,-254.52 444.83,-263.48 449.19,-258"/>
</g>
<!-- Node10 -->
<g id="node10" class="node">
<title>Node10</title>
<g id="a_node10"><a xlink:href="abstract__handler_8hpp.html" target="_top" xlink:title=" ">
<polygon fill="none" stroke="black" points="459,-168.5 459,-187.5 578,-187.5 578,-168.5 459,-168.5"/>
<text text-anchor="middle" x="518.5" y="-175.5" font-family="Helvetica,sans-Serif" font-size="10.00">abstract_handler.hpp</text>
</a>
</g>
</g>
<!-- Node9&#45;&gt;Node10 -->
<g id="edge9" class="edge">
<title>Node9&#45;&gt;Node10</title>
<path fill="none" stroke="midnightblue" d="M559.7,-224.4C551.78,-215.66 541.56,-204.41 533.29,-195.3"/>
<polygon fill="midnightblue" stroke="midnightblue" points="535.67,-192.71 526.36,-187.66 530.49,-197.42 535.67,-192.71"/>
</g>
<!-- Node19 -->
<g id="node19" class="node">
<title>Node19</title>
<g id="a_node19"><a xlink:href="renderer_8hpp.html" target="_top" xlink:title=" ">
<polygon fill="none" stroke="black" points="563.5,-112.5 563.5,-131.5 641.5,-131.5 641.5,-112.5 563.5,-112.5"/>
<text text-anchor="middle" x="602.5" y="-119.5" font-family="Helvetica,sans-Serif" font-size="10.00">renderer.hpp</text>
</a>
</g>
</g>
<!-- Node9&#45;&gt;Node19 -->
<g id="edge24" class="edge">
<title>Node9&#45;&gt;Node19</title>
<path fill="none" stroke="midnightblue" d="M576.94,-224.42C580.06,-214.32 584.24,-200.38 587.5,-188 591.56,-172.58 595.6,-154.95 598.45,-141.94"/>
<polygon fill="midnightblue" stroke="midnightblue" points="601.94,-142.39 600.63,-131.87 595.1,-140.91 601.94,-142.39"/>
</g>
<!-- Node10&#45;&gt;Node7 -->
<g id="edge10" class="edge">
<title>Node10&#45;&gt;Node7</title>
<path fill="none" stroke="midnightblue" d="M520.81,-168.45C525.91,-147.75 536.19,-93.84 516.5,-56 509.39,-42.33 496.01,-31.81 483.5,-24.4"/>
<polygon fill="midnightblue" stroke="midnightblue" points="485.09,-21.28 474.64,-19.55 481.73,-27.42 485.09,-21.28"/>
</g>
<!-- Node11 -->
<g id="node11" class="node">
<title>Node11</title>
<g id="a_node11"><a xlink:href="account_8hpp.html" target="_top" xlink:title=" ">
<polygon fill="none" stroke="black" points="379.5,-112.5 379.5,-131.5 455.5,-131.5 455.5,-112.5 379.5,-112.5"/>
<text text-anchor="middle" x="417.5" y="-119.5" font-family="Helvetica,sans-Serif" font-size="10.00">account.hpp</text>
</a>
</g>
</g>
<!-- Node10&#45;&gt;Node11 -->
<g id="edge11" class="edge">
<title>Node10&#45;&gt;Node11</title>
<path fill="none" stroke="midnightblue" d="M502.27,-168.32C486.15,-159.7 461.2,-146.36 442.54,-136.39"/>
<polygon fill="midnightblue" stroke="midnightblue" points="444.16,-133.28 433.69,-131.65 440.86,-139.46 444.16,-133.28"/>
</g>
<!-- Node14 -->
<g id="node14" class="node">
<title>Node14</title>
<g id="a_node14"><a xlink:href="socket_8hpp.html" target="_top" xlink:title=" ">
<polygon fill="none" stroke="black" points="172.5,-112.5 172.5,-131.5 276.5,-131.5 276.5,-112.5 172.5,-112.5"/>
<text text-anchor="middle" x="224.5" y="-119.5" font-family="Helvetica,sans-Serif" font-size="10.00">socket/socket.hpp</text>
</a>
</g>
</g>
<!-- Node10&#45;&gt;Node14 -->
<g id="edge16" class="edge">
<title>Node10&#45;&gt;Node14</title>
<path fill="none" stroke="midnightblue" d="M471.91,-168.44C420.09,-158.92 336.37,-143.55 280.88,-133.36"/>
<polygon fill="midnightblue" stroke="midnightblue" points="281.34,-129.88 270.87,-131.52 280.07,-136.77 281.34,-129.88"/>
</g>
<!-- Node11&#45;&gt;Node7 -->
<g id="edge12" class="edge">
<title>Node11&#45;&gt;Node7</title>
<path fill="none" stroke="midnightblue" d="M409.58,-112.34C398.99,-99.65 382.62,-75.39 392.5,-56 399.5,-42.27 412.87,-31.75 425.4,-24.35"/>
<polygon fill="midnightblue" stroke="midnightblue" points="427.17,-27.37 434.28,-19.51 423.82,-21.22 427.17,-27.37"/>
</g>
<!-- Node11&#45;&gt;Node8 -->
<g id="edge15" class="edge">
<title>Node11&#45;&gt;Node8</title>
<path fill="none" stroke="midnightblue" d="M402.4,-112.32C387.6,-103.82 364.81,-90.73 347.52,-80.8"/>
<polygon fill="midnightblue" stroke="midnightblue" points="348.98,-77.6 338.57,-75.65 345.49,-83.67 348.98,-77.6"/>
</g>
<!-- Node12 -->
<g id="node12" class="node">
<title>Node12</title>
<g id="a_node12"><a xlink:title=" ">
<polygon fill="none" stroke="#bfbfbf" points="401.5,-56.5 401.5,-75.5 433.5,-75.5 433.5,-56.5 401.5,-56.5"/>
<text text-anchor="middle" x="417.5" y="-63.5" font-family="Helvetica,sans-Serif" font-size="10.00">set</text>
</a>
</g>
</g>
<!-- Node11&#45;&gt;Node12 -->
<g id="edge13" class="edge">
<title>Node11&#45;&gt;Node12</title>
<path fill="none" stroke="midnightblue" d="M417.5,-112.08C417.5,-105.01 417.5,-94.86 417.5,-85.99"/>
<polygon fill="midnightblue" stroke="midnightblue" points="421,-85.75 417.5,-75.75 414,-85.75 421,-85.75"/>
</g>
<!-- Node13 -->
<g id="node13" class="node">
<title>Node13</title>
<g id="a_node13"><a xlink:title=" ">
<polygon fill="none" stroke="#bfbfbf" points="451.5,-56.5 451.5,-75.5 507.5,-75.5 507.5,-56.5 451.5,-56.5"/>
<text text-anchor="middle" x="479.5" y="-63.5" font-family="Helvetica,sans-Serif" font-size="10.00">sstream</text>
</a>
</g>
</g>
<!-- Node11&#45;&gt;Node13 -->
<g id="edge14" class="edge">
<title>Node11&#45;&gt;Node13</title>
<path fill="none" stroke="midnightblue" d="M427.46,-112.32C436.63,-104.34 450.44,-92.31 461.53,-82.65"/>
<polygon fill="midnightblue" stroke="midnightblue" points="464.12,-85.04 469.36,-75.83 459.52,-79.76 464.12,-85.04"/>
</g>
<!-- Node14&#45;&gt;Node7 -->
<g id="edge19" class="edge">
<title>Node14&#45;&gt;Node7</title>
<path fill="none" stroke="midnightblue" d="M231.05,-112.45C242.16,-98.52 266.09,-71.01 292.5,-56 331.14,-34.04 381.12,-22.28 415.28,-16.36"/>
<polygon fill="midnightblue" stroke="midnightblue" points="416.05,-19.78 425.35,-14.71 414.91,-12.87 416.05,-19.78"/>
</g>
<!-- Node14&#45;&gt;Node8 -->
<g id="edge20" class="edge">
<title>Node14&#45;&gt;Node8</title>
<path fill="none" stroke="midnightblue" d="M240.41,-112.32C256.14,-103.74 280.44,-90.49 298.71,-80.52"/>
<polygon fill="midnightblue" stroke="midnightblue" points="300.53,-83.52 307.63,-75.65 297.18,-77.37 300.53,-83.52"/>
</g>
<!-- Node15 -->
<g id="node15" class="node">
<title>Node15</title>
<g id="a_node15"><a xlink:title=" ">
<polygon fill="none" stroke="#bfbfbf" points="73.5,-56.5 73.5,-75.5 161.5,-75.5 161.5,-56.5 73.5,-56.5"/>
<text text-anchor="middle" x="117.5" y="-63.5" font-family="Helvetica,sans-Serif" font-size="10.00">boost/asio.hpp</text>
</a>
</g>
</g>
<!-- Node14&#45;&gt;Node15 -->
<g id="edge17" class="edge">
<title>Node14&#45;&gt;Node15</title>
<path fill="none" stroke="midnightblue" d="M207.31,-112.32C190.15,-103.66 163.55,-90.24 143.75,-80.25"/>
<polygon fill="midnightblue" stroke="midnightblue" points="145.15,-77.04 134.65,-75.65 142,-83.28 145.15,-77.04"/>
</g>
<!-- Node16 -->
<g id="node16" class="node">
<title>Node16</title>
<g id="a_node16"><a xlink:title=" ">
<polygon fill="none" stroke="#bfbfbf" points="180,-56.5 180,-75.5 245,-75.5 245,-56.5 180,-56.5"/>
<text text-anchor="middle" x="212.5" y="-63.5" font-family="Helvetica,sans-Serif" font-size="10.00">functional</text>
</a>
</g>
</g>
<!-- Node14&#45;&gt;Node16 -->
<g id="edge18" class="edge">
<title>Node14&#45;&gt;Node16</title>
<path fill="none" stroke="midnightblue" d="M222.52,-112.08C220.93,-104.93 218.64,-94.64 216.65,-85.69"/>
<polygon fill="midnightblue" stroke="midnightblue" points="220.03,-84.75 214.44,-75.75 213.2,-86.27 220.03,-84.75"/>
</g>
<!-- Node17 -->
<g id="node17" class="node">
<title>Node17</title>
<g id="a_node17"><a xlink:href="general_2socket_2log_8hpp.html" target="_top" xlink:title=" ">
<polygon fill="none" stroke="black" points="2,-56.5 2,-75.5 55,-75.5 55,-56.5 2,-56.5"/>
<text text-anchor="middle" x="28.5" y="-63.5" font-family="Helvetica,sans-Serif" font-size="10.00">log.hpp</text>
</a>
</g>
</g>
<!-- Node14&#45;&gt;Node17 -->
<g id="edge21" class="edge">
<title>Node14&#45;&gt;Node17</title>
<path fill="none" stroke="midnightblue" d="M193.44,-112.44C158.52,-102.82 101.86,-87.21 64.88,-77.02"/>
<polygon fill="midnightblue" stroke="midnightblue" points="65.58,-73.59 55.01,-74.3 63.72,-80.33 65.58,-73.59"/>
</g>
<!-- Node17&#45;&gt;Node7 -->
<g id="edge22" class="edge">
<title>Node17&#45;&gt;Node7</title>
<path fill="none" stroke="midnightblue" d="M55.15,-57.93C58.29,-57.22 61.46,-56.55 64.5,-56 191.75,-32.85 344.63,-19.3 415.24,-13.83"/>
<polygon fill="midnightblue" stroke="midnightblue" points="415.74,-17.3 425.44,-13.05 415.21,-10.32 415.74,-17.3"/>
</g>
<!-- Node18 -->
<g id="node18" class="node">
<title>Node18</title>
<g id="a_node18"><a xlink:title=" ">
<polygon fill="none" stroke="#bfbfbf" points="0,-0.5 0,-19.5 57,-19.5 57,-0.5 0,-0.5"/>
<text text-anchor="middle" x="28.5" y="-7.5" font-family="Helvetica,sans-Serif" font-size="10.00">ostream</text>
</a>
</g>
</g>
<!-- Node17&#45;&gt;Node18 -->
<g id="edge23" class="edge">
<title>Node17&#45;&gt;Node18</title>
<path fill="none" stroke="midnightblue" d="M28.5,-56.08C28.5,-49.01 28.5,-38.86 28.5,-29.99"/>
<polygon fill="midnightblue" stroke="midnightblue" points="32,-29.75 28.5,-19.75 25,-29.75 32,-29.75"/>
</g>
<!-- Node19&#45;&gt;Node7 -->
<g id="edge25" class="edge">
<title>Node19&#45;&gt;Node7</title>
<path fill="none" stroke="midnightblue" d="M597.29,-112.39C588.74,-98.87 570.59,-72.52 549.5,-56 531.52,-41.91 508.41,-30.84 489.48,-23.21"/>
<polygon fill="midnightblue" stroke="midnightblue" points="490.6,-19.89 480.02,-19.53 488.07,-26.41 490.6,-19.89"/>
</g>
<!-- Node20&#45;&gt;Node10 -->
<g id="edge28" class="edge">
<title>Node20&#45;&gt;Node10</title>
<path fill="none" stroke="midnightblue" d="M444.49,-224.4C459.89,-214.95 480.09,-202.56 495.5,-193.11"/>
<polygon fill="midnightblue" stroke="midnightblue" points="497.69,-195.87 504.39,-187.66 494.03,-189.9 497.69,-195.87"/>
</g>
<!-- Node21 -->
<g id="node21" class="node">
<title>Node21</title>
<g id="a_node21"><a xlink:title=" ">
<polygon fill="none" stroke="#bfbfbf" points="348,-168.5 348,-187.5 441,-187.5 441,-168.5 348,-168.5"/>
<text text-anchor="middle" x="394.5" y="-175.5" font-family="Helvetica,sans-Serif" font-size="10.00">unordered_map</text>
</a>
</g>
</g>
<!-- Node20&#45;&gt;Node21 -->
<g id="edge27" class="edge">
<title>Node20&#45;&gt;Node21</title>
<path fill="none" stroke="midnightblue" d="M415.1,-224.4C411.38,-216.2 406.65,-205.78 402.67,-196.99"/>
<polygon fill="midnightblue" stroke="midnightblue" points="405.75,-195.32 398.43,-187.66 399.37,-198.21 405.75,-195.32"/>
</g>
<!-- Node23 -->
<g id="node23" class="node">
<title>Node23</title>
<g id="a_node23"><a xlink:href="properties__decorator_8hpp.html" target="_top" xlink:title=" ">
<polygon fill="none" stroke="black" points="603.5,-403.5 603.5,-422.5 741.5,-422.5 741.5,-403.5 603.5,-403.5"/>
<text text-anchor="middle" x="672.5" y="-410.5" font-family="Helvetica,sans-Serif" font-size="10.00">properties_decorator.hpp</text>
</a>
</g>
</g>
<!-- Node22&#45;&gt;Node23 -->
<g id="edge30" class="edge">
<title>Node22&#45;&gt;Node23</title>
<path fill="none" stroke="midnightblue" d="M954.42,-459.44C895,-449.87 798.78,-434.36 735.57,-424.17"/>
<polygon fill="midnightblue" stroke="midnightblue" points="735.76,-420.65 725.33,-422.52 734.65,-427.56 735.76,-420.65"/>
</g>
<!-- Node23&#45;&gt;Node5 -->
<g id="edge31" class="edge">
<title>Node23&#45;&gt;Node5</title>
<path fill="none" stroke="midnightblue" d="M644.61,-403.44C614.75,-394.28 567.19,-379.69 534.04,-369.52"/>
<polygon fill="midnightblue" stroke="midnightblue" points="534.84,-366.1 524.26,-366.52 532.79,-372.8 534.84,-366.1"/>
</g>
<!-- Node24&#45;&gt;Node23 -->
<g id="edge33" class="edge">
<title>Node24&#45;&gt;Node23</title>
<path fill="none" stroke="midnightblue" d="M615.43,-459.32C625.67,-451.18 641.22,-438.84 653.5,-429.09"/>
<polygon fill="midnightblue" stroke="midnightblue" points="655.72,-431.79 661.38,-422.83 651.37,-426.31 655.72,-431.79"/>
</g>
<!-- Node25&#45;&gt;Node23 -->
<g id="edge35" class="edge">
<title>Node25&#45;&gt;Node23</title>
<path fill="none" stroke="midnightblue" d="M729.57,-459.32C719.33,-451.18 703.78,-438.84 691.5,-429.09"/>
<polygon fill="midnightblue" stroke="midnightblue" points="693.63,-426.31 683.62,-422.83 689.28,-431.79 693.63,-426.31"/>
</g>
<!-- Node26&#45;&gt;Node23 -->
<g id="edge37" class="edge">
<title>Node26&#45;&gt;Node23</title>
<path fill="none" stroke="midnightblue" d="M841.65,-459.44C807.1,-450.16 751.82,-435.31 713.92,-425.13"/>
<polygon fill="midnightblue" stroke="midnightblue" points="714.77,-421.73 704.2,-422.52 712.95,-428.49 714.77,-421.73"/>
</g>
<!-- Node27&#45;&gt;Node23 -->
<g id="edge39" class="edge">
<title>Node27&#45;&gt;Node23</title>
<path fill="none" stroke="midnightblue" d="M505.03,-459.44C539.09,-450.2 593.51,-435.44 631.02,-425.26"/>
<polygon fill="midnightblue" stroke="midnightblue" points="632.38,-428.51 641.12,-422.52 630.55,-421.76 632.38,-428.51"/>
</g>
<!-- Node28 -->
<g id="node28" class="node">
<title>Node28</title>
<g id="a_node28"><a xlink:title=" ">
<polygon fill="none" stroke="#bfbfbf" points="462.5,-403.5 462.5,-422.5 510.5,-422.5 510.5,-403.5 462.5,-403.5"/>
<text text-anchor="middle" x="486.5" y="-410.5" font-family="Helvetica,sans-Serif" font-size="10.00">time.h</text>
</a>
</g>
</g>
<!-- Node27&#45;&gt;Node28 -->
<g id="edge40" class="edge">
<title>Node27&#45;&gt;Node28</title>
<path fill="none" stroke="midnightblue" d="M475.65,-459.08C477.37,-451.93 479.85,-441.64 482,-432.69"/>
<polygon fill="midnightblue" stroke="midnightblue" points="485.46,-433.29 484.39,-422.75 478.65,-431.65 485.46,-433.29"/>
</g>
</g>
</svg>
