<?xml version="1.0" encoding="UTF-8" standalone="no"?>
<!DOCTYPE svg PUBLIC "-//W3C//DTD SVG 1.1//EN"
 "http://www.w3.org/Graphics/SVG/1.1/DTD/svg11.dtd">
<!-- Generated by graphviz version 2.43.0 (0)
 -->
<!-- Title: /home/alexander/Documents/Seminars/TP/Project/src/general/requests/messages/properties_decorator.hpp Pages: 1 -->
<!--zoomable 740 -->
<svg id="main" version="1.1" xmlns="http://www.w3.org/2000/svg" xmlns:xlink="http://www.w3.org/1999/xlink" xml:space="preserve" onload="init(evt)">
<style type="text/css"><![CDATA[
.edge:hover path { stroke: red; }
.edge:hover polygon { stroke: red; fill: red; }
]]></style>
<script type="text/javascript"><![CDATA[
var edges = document.getElementsByTagName('g');
if (edges && edges.length) {
  for (var i=0;i<edges.length;i++) {
    if (edges[i].id.substr(0,4)=='edge') {
      edges[i].setAttribute('class','edge');
    }
  }
}
]]></script>
        <defs>
                <circle id="rim" cx="0" cy="0" r="7"/>
                <circle id="rim2" cx="0" cy="0" r="3.5"/>
                <g id="zoomPlus">
                        <use xlink:href="#rim" fill="#404040">
                                <set attributeName="fill" to="#808080" begin="zoomplus.mouseover" end="zoomplus.mouseout"/>
                        </use>
                        <path d="M-4,0h8M0,-4v8" fill="none" stroke="white" stroke-width="1.5" pointer-events="none"/>
                </g>
                <g id="zoomMin">
                        <use xlink:href="#rim" fill="#404040">
                                <set attributeName="fill" to="#808080" begin="zoomminus.mouseover" end="zoomminus.mouseout"/>
                        </use>
                        <path d="M-4,0h8" fill="none" stroke="white" stroke-width="1.5" pointer-events="none"/>
                </g>
                <g id="dirArrow">
                        <path fill="none" stroke="white" stroke-width="1.5" d="M0,-3.0v7 M-2.5,-0.5L0,-3.0L2.5,-0.5"/>
                </g>
               <g id="resetDef">
                       <use xlink:href="#rim2" fill="#404040">
                               <set attributeName="fill" to="#808080" begin="reset.mouseover" end="reset.mouseout"/>
                       </use>
               </g>
        </defs>

<script type="text/javascript">
var viewWidth = 1613;
var viewHeight = 740;
var sectionId = 'dynsection-1';
</script>
<script xlink:href="svgpan.js"/>
<svg id="graph" class="graph">
<g id="viewport">
<title>/home/alexander/Documents/Seminars/TP/Project/src/general/requests/messages/properties_decorator.hpp</title>
<!-- Node1 -->
<g id="node1" class="node">
<title>Node1</title>
<g id="a_node1"><a xlink:title=" ">
<polygon fill="#bfbfbf" stroke="black" points="545,-679.5 545,-731.5 703,-731.5 703,-679.5 545,-679.5"/>
<text text-anchor="start" x="553" y="-719.5" font-family="Helvetica,sans-Serif" font-size="10.00">/home/alexander/Documents</text>
<text text-anchor="start" x="553" y="-708.5" font-family="Helvetica,sans-Serif" font-size="10.00">/Seminars/TP/Project/src</text>
<text text-anchor="start" x="553" y="-697.5" font-family="Helvetica,sans-Serif" font-size="10.00">/general/requests/messages</text>
<text text-anchor="middle" x="624" y="-686.5" font-family="Helvetica,sans-Serif" font-size="10.00">/properties_decorator.hpp</text>
</a>
</g>
</g>
<!-- Node2 -->
<g id="node2" class="node">
<title>Node2</title>
<g id="a_node2"><a xlink:href="private__decorator_8hpp.html" target="_top" xlink:title=" ">
<polygon fill="none" stroke="black" points="809,-590.5 809,-642.5 967,-642.5 967,-590.5 809,-590.5"/>
<text text-anchor="start" x="817" y="-630.5" font-family="Helvetica,sans-Serif" font-size="10.00">/home/alexander/Documents</text>
<text text-anchor="start" x="817" y="-619.5" font-family="Helvetica,sans-Serif" font-size="10.00">/Seminars/TP/Project/src</text>
<text text-anchor="start" x="817" y="-608.5" font-family="Helvetica,sans-Serif" font-size="10.00">/general/requests/messages</text>
<text text-anchor="middle" x="888" y="-597.5" font-family="Helvetica,sans-Serif" font-size="10.00">/private_decorator.hpp</text>
</a>
</g>
</g>
<!-- Node1&#45;&gt;Node2 -->
<g id="edge1" class="edge">
<title>Node1&#45;&gt;Node2</title>
<path fill="none" stroke="midnightblue" d="M709.64,-676.28C742.63,-665.4 780.06,-653.07 812.07,-642.52"/>
<polygon fill="midnightblue" stroke="midnightblue" points="708.41,-673 700.01,-679.45 710.6,-679.65 708.41,-673"/>
</g>
<!-- Node26 -->
<g id="node26" class="node">
<title>Node26</title>
<g id="a_node26"><a xlink:href="properties__decorator_8cpp.html" target="_top" xlink:title=" ">
<polygon fill="none" stroke="black" points="985,-590.5 985,-642.5 1143,-642.5 1143,-590.5 985,-590.5"/>
<text text-anchor="start" x="993" y="-630.5" font-family="Helvetica,sans-Serif" font-size="10.00">/home/alexander/Documents</text>
<text text-anchor="start" x="993" y="-619.5" font-family="Helvetica,sans-Serif" font-size="10.00">/Seminars/TP/Project/src</text>
<text text-anchor="start" x="993" y="-608.5" font-family="Helvetica,sans-Serif" font-size="10.00">/general/requests/messages</text>
<text text-anchor="middle" x="1064" y="-597.5" font-family="Helvetica,sans-Serif" font-size="10.00">/properties_decorator.cpp</text>
</a>
</g>
</g>
<!-- Node1&#45;&gt;Node26 -->
<g id="edge30" class="edge">
<title>Node1&#45;&gt;Node26</title>
<path fill="none" stroke="midnightblue" d="M713.45,-691.63C784.92,-680.69 887.43,-663.51 976,-643 978.94,-642.32 981.94,-641.6 984.95,-640.85"/>
<polygon fill="midnightblue" stroke="midnightblue" points="712.49,-688.24 703.13,-693.2 713.55,-695.16 712.49,-688.24"/>
</g>
<!-- Node27 -->
<g id="node27" class="node">
<title>Node27</title>
<g id="a_node27"><a xlink:href="room__decorator_8hpp.html" target="_top" xlink:title=" ">
<polygon fill="none" stroke="black" points="105,-590.5 105,-642.5 263,-642.5 263,-590.5 105,-590.5"/>
<text text-anchor="start" x="113" y="-630.5" font-family="Helvetica,sans-Serif" font-size="10.00">/home/alexander/Documents</text>
<text text-anchor="start" x="113" y="-619.5" font-family="Helvetica,sans-Serif" font-size="10.00">/Seminars/TP/Project/src</text>
<text text-anchor="start" x="113" y="-608.5" font-family="Helvetica,sans-Serif" font-size="10.00">/general/requests/messages</text>
<text text-anchor="middle" x="184" y="-597.5" font-family="Helvetica,sans-Serif" font-size="10.00">/room_decorator.hpp</text>
</a>
</g>
</g>
<!-- Node1&#45;&gt;Node27 -->
<g id="edge31" class="edge">
<title>Node1&#45;&gt;Node27</title>
<path fill="none" stroke="midnightblue" d="M534.55,-691.63C463.08,-680.69 360.57,-663.51 272,-643 269.06,-642.32 266.06,-641.6 263.05,-640.85"/>
<polygon fill="midnightblue" stroke="midnightblue" points="534.45,-695.16 544.87,-693.2 535.51,-688.24 534.45,-695.16"/>
</g>
<!-- Node29 -->
<g id="node29" class="node">
<title>Node29</title>
<g id="a_node29"><a xlink:href="sender__decorator_8hpp.html" target="_top" xlink:title=" ">
<polygon fill="none" stroke="black" points="281,-590.5 281,-642.5 439,-642.5 439,-590.5 281,-590.5"/>
<text text-anchor="start" x="289" y="-630.5" font-family="Helvetica,sans-Serif" font-size="10.00">/home/alexander/Documents</text>
<text text-anchor="start" x="289" y="-619.5" font-family="Helvetica,sans-Serif" font-size="10.00">/Seminars/TP/Project/src</text>
<text text-anchor="start" x="289" y="-608.5" font-family="Helvetica,sans-Serif" font-size="10.00">/general/requests/messages</text>
<text text-anchor="middle" x="360" y="-597.5" font-family="Helvetica,sans-Serif" font-size="10.00">/sender_decorator.hpp</text>
</a>
</g>
</g>
<!-- Node1&#45;&gt;Node29 -->
<g id="edge34" class="edge">
<title>Node1&#45;&gt;Node29</title>
<path fill="none" stroke="midnightblue" d="M538.36,-676.28C505.37,-665.4 467.94,-653.07 435.93,-642.52"/>
<polygon fill="midnightblue" stroke="midnightblue" points="537.4,-679.65 547.99,-679.45 539.59,-673 537.4,-679.65"/>
</g>
<!-- Node31 -->
<g id="node31" class="node">
<title>Node31</title>
<g id="a_node31"><a xlink:href="text__decorator_8hpp.html" target="_top" xlink:title=" ">
<polygon fill="none" stroke="black" points="457,-590.5 457,-642.5 615,-642.5 615,-590.5 457,-590.5"/>
<text text-anchor="start" x="465" y="-630.5" font-family="Helvetica,sans-Serif" font-size="10.00">/home/alexander/Documents</text>
<text text-anchor="start" x="465" y="-619.5" font-family="Helvetica,sans-Serif" font-size="10.00">/Seminars/TP/Project/src</text>
<text text-anchor="start" x="465" y="-608.5" font-family="Helvetica,sans-Serif" font-size="10.00">/general/requests/messages</text>
<text text-anchor="middle" x="536" y="-597.5" font-family="Helvetica,sans-Serif" font-size="10.00">/text_decorator.hpp</text>
</a>
</g>
</g>
<!-- Node1&#45;&gt;Node31 -->
<g id="edge37" class="edge">
<title>Node1&#45;&gt;Node31</title>
<path fill="none" stroke="midnightblue" d="M591.2,-672.08C581.35,-662.34 570.69,-651.8 561.4,-642.61"/>
<polygon fill="midnightblue" stroke="midnightblue" points="588.97,-674.79 598.55,-679.34 593.9,-669.82 588.97,-674.79"/>
</g>
<!-- Node33 -->
<g id="node33" class="node">
<title>Node33</title>
<g id="a_node33"><a xlink:href="time__decorator_8hpp.html" target="_top" xlink:title=" ">
<polygon fill="none" stroke="black" points="633,-590.5 633,-642.5 791,-642.5 791,-590.5 633,-590.5"/>
<text text-anchor="start" x="641" y="-630.5" font-family="Helvetica,sans-Serif" font-size="10.00">/home/alexander/Documents</text>
<text text-anchor="start" x="641" y="-619.5" font-family="Helvetica,sans-Serif" font-size="10.00">/Seminars/TP/Project/src</text>
<text text-anchor="start" x="641" y="-608.5" font-family="Helvetica,sans-Serif" font-size="10.00">/general/requests/messages</text>
<text text-anchor="middle" x="712" y="-597.5" font-family="Helvetica,sans-Serif" font-size="10.00">/time_decorator.hpp</text>
</a>
</g>
</g>
<!-- Node1&#45;&gt;Node33 -->
<g id="edge40" class="edge">
<title>Node1&#45;&gt;Node33</title>
<path fill="none" stroke="midnightblue" d="M656.8,-672.08C666.65,-662.34 677.31,-651.8 686.6,-642.61"/>
<polygon fill="midnightblue" stroke="midnightblue" points="654.1,-669.82 649.45,-679.34 659.03,-674.79 654.1,-669.82"/>
</g>
<!-- Node3 -->
<g id="node3" class="node">
<title>Node3</title>
<g id="a_node3"><a xlink:href="all__messages_8hpp.html" target="_top" xlink:title=" ">
<polygon fill="none" stroke="black" points="369,-501.5 369,-553.5 527,-553.5 527,-501.5 369,-501.5"/>
<text text-anchor="start" x="377" y="-541.5" font-family="Helvetica,sans-Serif" font-size="10.00">/home/alexander/Documents</text>
<text text-anchor="start" x="377" y="-530.5" font-family="Helvetica,sans-Serif" font-size="10.00">/Seminars/TP/Project/src</text>
<text text-anchor="start" x="377" y="-519.5" font-family="Helvetica,sans-Serif" font-size="10.00">/general/requests/messages</text>
<text text-anchor="middle" x="448" y="-508.5" font-family="Helvetica,sans-Serif" font-size="10.00">/all_messages.hpp</text>
</a>
</g>
</g>
<!-- Node2&#45;&gt;Node3 -->
<g id="edge2" class="edge">
<title>Node2&#45;&gt;Node3</title>
<path fill="none" stroke="midnightblue" d="M798.95,-589.92C682.32,-566.14 648.68,-577.87 536,-554 533.04,-553.37 530.04,-552.7 527.02,-551.99"/>
<polygon fill="midnightblue" stroke="midnightblue" points="798.48,-593.4 808.98,-592.01 799.91,-586.54 798.48,-593.4"/>
</g>
<!-- Node25 -->
<g id="node25" class="node">
<title>Node25</title>
<g id="a_node25"><a xlink:href="private__decorator_8cpp.html" target="_top" xlink:title=" ">
<polygon fill="none" stroke="black" points="897,-501.5 897,-553.5 1055,-553.5 1055,-501.5 897,-501.5"/>
<text text-anchor="start" x="905" y="-541.5" font-family="Helvetica,sans-Serif" font-size="10.00">/home/alexander/Documents</text>
<text text-anchor="start" x="905" y="-530.5" font-family="Helvetica,sans-Serif" font-size="10.00">/Seminars/TP/Project/src</text>
<text text-anchor="start" x="905" y="-519.5" font-family="Helvetica,sans-Serif" font-size="10.00">/general/requests/messages</text>
<text text-anchor="middle" x="976" y="-508.5" font-family="Helvetica,sans-Serif" font-size="10.00">/private_decorator.cpp</text>
</a>
</g>
</g>
<!-- Node2&#45;&gt;Node25 -->
<g id="edge29" class="edge">
<title>Node2&#45;&gt;Node25</title>
<path fill="none" stroke="midnightblue" d="M920.8,-583.08C930.65,-573.34 941.31,-562.8 950.6,-553.61"/>
<polygon fill="midnightblue" stroke="midnightblue" points="918.1,-580.82 913.45,-590.34 923.03,-585.79 918.1,-580.82"/>
</g>
<!-- Node4 -->
<g id="node4" class="node">
<title>Node4</title>
<g id="a_node4"><a xlink:href="console__renderer_8hpp.html" target="_top" xlink:title=" ">
<polygon fill="none" stroke="black" points="176.5,-418 176.5,-459 355.5,-459 355.5,-418 176.5,-418"/>
<text text-anchor="start" x="184.5" y="-447" font-family="Helvetica,sans-Serif" font-size="10.00">/home/alexander/Documents</text>
<text text-anchor="start" x="184.5" y="-436" font-family="Helvetica,sans-Serif" font-size="10.00">/Seminars/TP/Project/src</text>
<text text-anchor="middle" x="266" y="-425" font-family="Helvetica,sans-Serif" font-size="10.00">/client_side/console_renderer.hpp</text>
</a>
</g>
</g>
<!-- Node3&#45;&gt;Node4 -->
<g id="edge3" class="edge">
<title>Node3&#45;&gt;Node4</title>
<path fill="none" stroke="midnightblue" d="M386.27,-496.99C360.11,-484.49 330.34,-470.26 306.96,-459.08"/>
<polygon fill="midnightblue" stroke="midnightblue" points="384.83,-500.18 395.36,-501.34 387.85,-493.87 384.83,-500.18"/>
</g>
<!-- Node7 -->
<g id="node7" class="node">
<title>Node7</title>
<g id="a_node7"><a xlink:href="messages__builder_8hpp.html" target="_top" xlink:title=" ">
<polygon fill="none" stroke="black" points="462,-412.5 462,-464.5 620,-464.5 620,-412.5 462,-412.5"/>
<text text-anchor="start" x="470" y="-452.5" font-family="Helvetica,sans-Serif" font-size="10.00">/home/alexander/Documents</text>
<text text-anchor="start" x="470" y="-441.5" font-family="Helvetica,sans-Serif" font-size="10.00">/Seminars/TP/Project/src</text>
<text text-anchor="start" x="470" y="-430.5" font-family="Helvetica,sans-Serif" font-size="10.00">/general/requests/messages</text>
<text text-anchor="middle" x="541" y="-419.5" font-family="Helvetica,sans-Serif" font-size="10.00">/messages_builder.hpp</text>
</a>
</g>
</g>
<!-- Node3&#45;&gt;Node7 -->
<g id="edge6" class="edge">
<title>Node3&#45;&gt;Node7</title>
<path fill="none" stroke="midnightblue" d="M482.35,-494.36C492.85,-484.54 504.24,-473.89 514.16,-464.61"/>
<polygon fill="midnightblue" stroke="midnightblue" points="479.81,-491.95 474.9,-501.34 484.59,-497.06 479.81,-491.95"/>
</g>
<!-- Node5 -->
<g id="node5" class="node">
<title>Node5</title>
<g id="a_node5"><a xlink:href="console__renderer_8cpp.html" target="_top" xlink:title=" ">
<polygon fill="none" stroke="black" points="176.5,-329 176.5,-370 355.5,-370 355.5,-329 176.5,-329"/>
<text text-anchor="start" x="184.5" y="-358" font-family="Helvetica,sans-Serif" font-size="10.00">/home/alexander/Documents</text>
<text text-anchor="start" x="184.5" y="-347" font-family="Helvetica,sans-Serif" font-size="10.00">/Seminars/TP/Project/src</text>
<text text-anchor="middle" x="266" y="-336" font-family="Helvetica,sans-Serif" font-size="10.00">/client_side/console_renderer.cpp</text>
</a>
</g>
</g>
<!-- Node4&#45;&gt;Node5 -->
<g id="edge4" class="edge">
<title>Node4&#45;&gt;Node5</title>
<path fill="none" stroke="midnightblue" d="M266,-407.44C266,-395.1 266,-381.16 266,-370.16"/>
<polygon fill="midnightblue" stroke="midnightblue" points="262.5,-407.76 266,-417.76 269.5,-407.76 262.5,-407.76"/>
</g>
<!-- Node6 -->
<g id="node6" class="node">
<title>Node6</title>
<g id="a_node6"><a xlink:href="client__side_2main_8cpp.html" target="_top" xlink:title=" ">
<polygon fill="none" stroke="black" points="0,-329 0,-370 158,-370 158,-329 0,-329"/>
<text text-anchor="start" x="8" y="-358" font-family="Helvetica,sans-Serif" font-size="10.00">/home/alexander/Documents</text>
<text text-anchor="start" x="8" y="-347" font-family="Helvetica,sans-Serif" font-size="10.00">/Seminars/TP/Project/src</text>
<text text-anchor="middle" x="79" y="-336" font-family="Helvetica,sans-Serif" font-size="10.00">/client_side/main.cpp</text>
</a>
</g>
</g>
<!-- Node4&#45;&gt;Node6 -->
<g id="edge5" class="edge">
<title>Node4&#45;&gt;Node6</title>
<path fill="none" stroke="midnightblue" d="M214.75,-413.66C185.35,-399.98 148.88,-383.01 121.15,-370.11"/>
<polygon fill="midnightblue" stroke="midnightblue" points="213.49,-416.93 224.03,-417.98 216.44,-410.58 213.49,-416.93"/>
</g>
<!-- Node8 -->
<g id="node8" class="node">
<title>Node8</title>
<g id="a_node8"><a xlink:href="messages__builder_8cpp.html" target="_top" xlink:title=" ">
<polygon fill="none" stroke="black" points="374,-323.5 374,-375.5 532,-375.5 532,-323.5 374,-323.5"/>
<text text-anchor="start" x="382" y="-363.5" font-family="Helvetica,sans-Serif" font-size="10.00">/home/alexander/Documents</text>
<text text-anchor="start" x="382" y="-352.5" font-family="Helvetica,sans-Serif" font-size="10.00">/Seminars/TP/Project/src</text>
<text text-anchor="start" x="382" y="-341.5" font-family="Helvetica,sans-Serif" font-size="10.00">/general/requests/messages</text>
<text text-anchor="middle" x="453" y="-330.5" font-family="Helvetica,sans-Serif" font-size="10.00">/messages_builder.cpp</text>
</a>
</g>
</g>
<!-- Node7&#45;&gt;Node8 -->
<g id="edge7" class="edge">
<title>Node7&#45;&gt;Node8</title>
<path fill="none" stroke="midnightblue" d="M508.2,-405.08C498.35,-395.34 487.69,-384.8 478.4,-375.61"/>
<polygon fill="midnightblue" stroke="midnightblue" points="505.97,-407.79 515.55,-412.34 510.9,-402.82 505.97,-407.79"/>
</g>
<!-- Node9 -->
<g id="node9" class="node">
<title>Node9</title>
<g id="a_node9"><a xlink:href="request__creator_8hpp.html" target="_top" xlink:title=" ">
<polygon fill="none" stroke="black" points="764,-323.5 764,-375.5 922,-375.5 922,-323.5 764,-323.5"/>
<text text-anchor="start" x="772" y="-363.5" font-family="Helvetica,sans-Serif" font-size="10.00">/home/alexander/Documents</text>
<text text-anchor="start" x="772" y="-352.5" font-family="Helvetica,sans-Serif" font-size="10.00">/Seminars/TP/Project/src</text>
<text text-anchor="start" x="772" y="-341.5" font-family="Helvetica,sans-Serif" font-size="10.00">/general/requests/request</text>
<text text-anchor="middle" x="843" y="-330.5" font-family="Helvetica,sans-Serif" font-size="10.00">_creator.hpp</text>
</a>
</g>
</g>
<!-- Node7&#45;&gt;Node9 -->
<g id="edge8" class="edge">
<title>Node7&#45;&gt;Node9</title>
<path fill="none" stroke="midnightblue" d="M630.11,-411.83C672.54,-399.6 722.86,-385.11 763.92,-373.28"/>
<polygon fill="midnightblue" stroke="midnightblue" points="628.99,-408.51 620.35,-414.64 630.93,-415.24 628.99,-408.51"/>
</g>
<!-- Node23 -->
<g id="node23" class="node">
<title>Node23</title>
<g id="a_node23"><a xlink:href="request__parser_8hpp.html" target="_top" xlink:title=" ">
<polygon fill="none" stroke="black" points="550,-323.5 550,-375.5 708,-375.5 708,-323.5 550,-323.5"/>
<text text-anchor="start" x="558" y="-363.5" font-family="Helvetica,sans-Serif" font-size="10.00">/home/alexander/Documents</text>
<text text-anchor="start" x="558" y="-352.5" font-family="Helvetica,sans-Serif" font-size="10.00">/Seminars/TP/Project/src</text>
<text text-anchor="start" x="558" y="-341.5" font-family="Helvetica,sans-Serif" font-size="10.00">/general/requests/request</text>
<text text-anchor="middle" x="629" y="-330.5" font-family="Helvetica,sans-Serif" font-size="10.00">_parser.hpp</text>
</a>
</g>
</g>
<!-- Node7&#45;&gt;Node23 -->
<g id="edge26" class="edge">
<title>Node7&#45;&gt;Node23</title>
<path fill="none" stroke="midnightblue" d="M573.8,-405.08C583.65,-395.34 594.31,-384.8 603.6,-375.61"/>
<polygon fill="midnightblue" stroke="midnightblue" points="571.1,-402.82 566.45,-412.34 576.03,-407.79 571.1,-402.82"/>
</g>
<!-- Node10 -->
<g id="node10" class="node">
<title>Node10</title>
<g id="a_node10"><a xlink:href="abstract__handler_8cpp.html" target="_top" xlink:title=" ">
<polygon fill="none" stroke="black" points="550,-234.5 550,-286.5 708,-286.5 708,-234.5 550,-234.5"/>
<text text-anchor="start" x="558" y="-274.5" font-family="Helvetica,sans-Serif" font-size="10.00">/home/alexander/Documents</text>
<text text-anchor="start" x="558" y="-263.5" font-family="Helvetica,sans-Serif" font-size="10.00">/Seminars/TP/Project/src</text>
<text text-anchor="start" x="558" y="-252.5" font-family="Helvetica,sans-Serif" font-size="10.00">/general/request_handlers</text>
<text text-anchor="middle" x="629" y="-241.5" font-family="Helvetica,sans-Serif" font-size="10.00">/abstract_handler.cpp</text>
</a>
</g>
</g>
<!-- Node9&#45;&gt;Node10 -->
<g id="edge9" class="edge">
<title>Node9&#45;&gt;Node10</title>
<path fill="none" stroke="midnightblue" d="M771.85,-319.58C745.53,-308.88 715.94,-296.85 690.55,-286.52"/>
<polygon fill="midnightblue" stroke="midnightblue" points="770.81,-322.93 781.39,-323.45 773.44,-316.44 770.81,-322.93"/>
</g>
<!-- Node11 -->
<g id="node11" class="node">
<title>Node11</title>
<g id="a_node11"><a xlink:href="client__handler_8cpp.html" target="_top" xlink:title=" ">
<polygon fill="none" stroke="black" points="764,-234.5 764,-286.5 922,-286.5 922,-234.5 764,-234.5"/>
<text text-anchor="start" x="772" y="-274.5" font-family="Helvetica,sans-Serif" font-size="10.00">/home/alexander/Documents</text>
<text text-anchor="start" x="772" y="-263.5" font-family="Helvetica,sans-Serif" font-size="10.00">/Seminars/TP/Project/src</text>
<text text-anchor="start" x="772" y="-252.5" font-family="Helvetica,sans-Serif" font-size="10.00">/general/request_handlers</text>
<text text-anchor="middle" x="843" y="-241.5" font-family="Helvetica,sans-Serif" font-size="10.00">/client_handler.cpp</text>
</a>
</g>
</g>
<!-- Node9&#45;&gt;Node11 -->
<g id="edge10" class="edge">
<title>Node9&#45;&gt;Node11</title>
<path fill="none" stroke="midnightblue" d="M843,-313.19C843,-304.28 843,-294.9 843,-286.61"/>
<polygon fill="midnightblue" stroke="midnightblue" points="839.5,-313.34 843,-323.34 846.5,-313.34 839.5,-313.34"/>
</g>
<!-- Node12 -->
<g id="node12" class="node">
<title>Node12</title>
<g id="a_node12"><a xlink:href="authorization__request_8cpp.html" target="_top" xlink:title=" ">
<polygon fill="none" stroke="black" points="939.5,-234.5 939.5,-286.5 1108.5,-286.5 1108.5,-234.5 939.5,-234.5"/>
<text text-anchor="start" x="947.5" y="-274.5" font-family="Helvetica,sans-Serif" font-size="10.00">/home/alexander/Documents</text>
<text text-anchor="start" x="947.5" y="-263.5" font-family="Helvetica,sans-Serif" font-size="10.00">/Seminars/TP/Project/src</text>
<text text-anchor="start" x="947.5" y="-252.5" font-family="Helvetica,sans-Serif" font-size="10.00">/general/requests/authorization</text>
<text text-anchor="middle" x="1024" y="-241.5" font-family="Helvetica,sans-Serif" font-size="10.00">/authorization_request.cpp</text>
</a>
</g>
</g>
<!-- Node9&#45;&gt;Node12 -->
<g id="edge11" class="edge">
<title>Node9&#45;&gt;Node12</title>
<path fill="none" stroke="midnightblue" d="M904.55,-318.92C926.4,-308.41 950.77,-296.7 971.76,-286.61"/>
<polygon fill="midnightblue" stroke="midnightblue" points="902.85,-315.85 895.35,-323.34 905.88,-322.16 902.85,-315.85"/>
</g>
<!-- Node13 -->
<g id="node13" class="node">
<title>Node13</title>
<g id="a_node13"><a xlink:href="request__creator_8cpp.html" target="_top" xlink:title=" ">
<polygon fill="none" stroke="black" points="1126,-234.5 1126,-286.5 1284,-286.5 1284,-234.5 1126,-234.5"/>
<text text-anchor="start" x="1134" y="-274.5" font-family="Helvetica,sans-Serif" font-size="10.00">/home/alexander/Documents</text>
<text text-anchor="start" x="1134" y="-263.5" font-family="Helvetica,sans-Serif" font-size="10.00">/Seminars/TP/Project/src</text>
<text text-anchor="start" x="1134" y="-252.5" font-family="Helvetica,sans-Serif" font-size="10.00">/general/requests/request</text>
<text text-anchor="middle" x="1205" y="-241.5" font-family="Helvetica,sans-Serif" font-size="10.00">_creator.cpp</text>
</a>
</g>
</g>
<!-- Node9&#45;&gt;Node13 -->
<g id="edge12" class="edge">
<title>Node9&#45;&gt;Node13</title>
<path fill="none" stroke="midnightblue" d="M932.05,-330.12C986.05,-318.6 1056.24,-302.94 1118,-287 1120.59,-286.33 1123.22,-285.64 1125.87,-284.93"/>
<polygon fill="midnightblue" stroke="midnightblue" points="931.21,-326.72 922.15,-332.23 932.66,-333.57 931.21,-326.72"/>
</g>
<!-- Node14 -->
<g id="node14" class="node">
<title>Node14</title>
<g id="a_node14"><a xlink:href="room_8hpp.html" target="_top" xlink:title=" ">
<polygon fill="none" stroke="black" points="1302,-240 1302,-281 1460,-281 1460,-240 1302,-240"/>
<text text-anchor="start" x="1310" y="-269" font-family="Helvetica,sans-Serif" font-size="10.00">/home/alexander/Documents</text>
<text text-anchor="start" x="1310" y="-258" font-family="Helvetica,sans-Serif" font-size="10.00">/Seminars/TP/Project/src</text>
<text text-anchor="middle" x="1381" y="-247" font-family="Helvetica,sans-Serif" font-size="10.00">/server_side/room.hpp</text>
</a>
</g>
</g>
<!-- Node9&#45;&gt;Node14 -->
<g id="edge13" class="edge">
<title>Node9&#45;&gt;Node14</title>
<path fill="none" stroke="midnightblue" d="M932.08,-340.21C1023.34,-330.81 1169.02,-313.29 1293,-287 1301.09,-285.28 1309.53,-283.21 1317.83,-281"/>
<polygon fill="midnightblue" stroke="midnightblue" points="931.64,-336.73 922.05,-341.23 932.35,-343.7 931.64,-336.73"/>
</g>
<!-- Node19 -->
<g id="node19" class="node">
<title>Node19</title>
<g id="a_node19"><a xlink:href="server_8hpp.html" target="_top" xlink:title=" ">
<polygon fill="none" stroke="black" points="1072,-156.5 1072,-197.5 1230,-197.5 1230,-156.5 1072,-156.5"/>
<text text-anchor="start" x="1080" y="-185.5" font-family="Helvetica,sans-Serif" font-size="10.00">/home/alexander/Documents</text>
<text text-anchor="start" x="1080" y="-174.5" font-family="Helvetica,sans-Serif" font-size="10.00">/Seminars/TP/Project/src</text>
<text text-anchor="middle" x="1151" y="-163.5" font-family="Helvetica,sans-Serif" font-size="10.00">/server_side/server.hpp</text>
</a>
</g>
</g>
<!-- Node9&#45;&gt;Node19 -->
<g id="edge25" class="edge">
<title>Node9&#45;&gt;Node19</title>
<path fill="none" stroke="midnightblue" d="M781.45,-317.2C770.8,-308.89 761.18,-298.85 755,-287 744.11,-266.11 739.55,-251.78 755,-234 795.18,-187.74 968.19,-178.65 1071.77,-177.46"/>
<polygon fill="midnightblue" stroke="midnightblue" points="779.61,-320.19 789.76,-323.22 783.72,-314.52 779.61,-320.19"/>
</g>
<!-- Node15 -->
<g id="node15" class="node">
<title>Node15</title>
<g id="a_node15"><a xlink:href="client__connection_8hpp.html" target="_top" xlink:title=" ">
<polygon fill="none" stroke="black" points="1285.5,-78.5 1285.5,-119.5 1470.5,-119.5 1470.5,-78.5 1285.5,-78.5"/>
<text text-anchor="start" x="1293.5" y="-107.5" font-family="Helvetica,sans-Serif" font-size="10.00">/home/alexander/Documents</text>
<text text-anchor="start" x="1293.5" y="-96.5" font-family="Helvetica,sans-Serif" font-size="10.00">/Seminars/TP/Project/src</text>
<text text-anchor="middle" x="1378" y="-85.5" font-family="Helvetica,sans-Serif" font-size="10.00">/server_side/client_connection.hpp</text>
</a>
</g>
</g>
<!-- Node14&#45;&gt;Node15 -->
<g id="edge14" class="edge">
<title>Node14&#45;&gt;Node15</title>
<path fill="none" stroke="midnightblue" d="M1400.59,-231.13C1406.42,-221.12 1412.04,-209.49 1415,-198 1419.66,-179.93 1420.37,-173.88 1415,-156 1411.01,-142.72 1402.73,-129.69 1395.02,-119.54"/>
<polygon fill="midnightblue" stroke="midnightblue" points="1397.51,-229.47 1395.25,-239.82 1403.47,-233.13 1397.51,-229.47"/>
</g>
<!-- Node18 -->
<g id="node18" class="node">
<title>Node18</title>
<g id="a_node18"><a xlink:href="room_8cpp.html" target="_top" xlink:title=" ">
<polygon fill="none" stroke="black" points="1248,-156.5 1248,-197.5 1406,-197.5 1406,-156.5 1248,-156.5"/>
<text text-anchor="start" x="1256" y="-185.5" font-family="Helvetica,sans-Serif" font-size="10.00">/home/alexander/Documents</text>
<text text-anchor="start" x="1256" y="-174.5" font-family="Helvetica,sans-Serif" font-size="10.00">/Seminars/TP/Project/src</text>
<text text-anchor="middle" x="1327" y="-163.5" font-family="Helvetica,sans-Serif" font-size="10.00">/server_side/room.cpp</text>
</a>
</g>
</g>
<!-- Node14&#45;&gt;Node18 -->
<g id="edge17" class="edge">
<title>Node14&#45;&gt;Node18</title>
<path fill="none" stroke="midnightblue" d="M1362.27,-231.22C1354.9,-220.11 1346.63,-207.63 1339.95,-197.55"/>
<polygon fill="midnightblue" stroke="midnightblue" points="1359.49,-233.37 1367.93,-239.77 1365.32,-229.5 1359.49,-233.37"/>
</g>
<!-- Node14&#45;&gt;Node19 -->
<g id="edge18" class="edge">
<title>Node14&#45;&gt;Node19</title>
<path fill="none" stroke="midnightblue" d="M1316.33,-236.58C1281.58,-224.27 1239.19,-209.25 1206.04,-197.5"/>
<polygon fill="midnightblue" stroke="midnightblue" points="1315.31,-239.94 1325.91,-239.98 1317.65,-233.34 1315.31,-239.94"/>
</g>
<!-- Node16 -->
<g id="node16" class="node">
<title>Node16</title>
<g id="a_node16"><a xlink:href="client__connection_8cpp.html" target="_top" xlink:title=" ">
<polygon fill="none" stroke="black" points="1419.5,-0.5 1419.5,-41.5 1604.5,-41.5 1604.5,-0.5 1419.5,-0.5"/>
<text text-anchor="start" x="1427.5" y="-29.5" font-family="Helvetica,sans-Serif" font-size="10.00">/home/alexander/Documents</text>
<text text-anchor="start" x="1427.5" y="-18.5" font-family="Helvetica,sans-Serif" font-size="10.00">/Seminars/TP/Project/src</text>
<text text-anchor="middle" x="1512" y="-7.5" font-family="Helvetica,sans-Serif" font-size="10.00">/server_side/client_connection.cpp</text>
</a>
</g>
</g>
<!-- Node15&#45;&gt;Node16 -->
<g id="edge15" class="edge">
<title>Node15&#45;&gt;Node16</title>
<path fill="none" stroke="midnightblue" d="M1421.22,-73.49C1439.48,-63.13 1460.43,-51.25 1477.61,-41.51"/>
<polygon fill="midnightblue" stroke="midnightblue" points="1419.48,-70.45 1412.51,-78.43 1422.93,-76.54 1419.48,-70.45"/>
</g>
<!-- Node17 -->
<g id="node17" class="node">
<title>Node17</title>
<g id="a_node17"><a xlink:href="server_8cpp.html" target="_top" xlink:title=" ">
<polygon fill="none" stroke="black" points="1244,-0.5 1244,-41.5 1402,-41.5 1402,-0.5 1244,-0.5"/>
<text text-anchor="start" x="1252" y="-29.5" font-family="Helvetica,sans-Serif" font-size="10.00">/home/alexander/Documents</text>
<text text-anchor="start" x="1252" y="-18.5" font-family="Helvetica,sans-Serif" font-size="10.00">/Seminars/TP/Project/src</text>
<text text-anchor="middle" x="1323" y="-7.5" font-family="Helvetica,sans-Serif" font-size="10.00">/server_side/server.cpp</text>
</a>
</g>
</g>
<!-- Node15&#45;&gt;Node17 -->
<g id="edge16" class="edge">
<title>Node15&#45;&gt;Node17</title>
<path fill="none" stroke="midnightblue" d="M1357.77,-70.05C1350.91,-60.57 1343.4,-50.18 1337.12,-41.51"/>
<polygon fill="midnightblue" stroke="midnightblue" points="1355.14,-72.38 1363.84,-78.43 1360.81,-68.27 1355.14,-72.38"/>
</g>
<!-- Node19&#45;&gt;Node15 -->
<g id="edge19" class="edge">
<title>Node19&#45;&gt;Node15</title>
<path fill="none" stroke="midnightblue" d="M1219.2,-153.17C1251.25,-142.44 1289.06,-129.78 1319.74,-119.51"/>
<polygon fill="midnightblue" stroke="midnightblue" points="1217.83,-149.93 1209.46,-156.43 1220.05,-156.57 1217.83,-149.93"/>
</g>
<!-- Node19&#45;&gt;Node17 -->
<g id="edge24" class="edge">
<title>Node19&#45;&gt;Node17</title>
<path fill="none" stroke="midnightblue" d="M1180.59,-149.51C1214.86,-118.82 1270.52,-68.98 1301.12,-41.59"/>
<polygon fill="midnightblue" stroke="midnightblue" points="1177.9,-147.22 1172.78,-156.5 1182.57,-152.43 1177.9,-147.22"/>
</g>
<!-- Node20 -->
<g id="node20" class="node">
<title>Node20</title>
<g id="a_node20"><a xlink:href="server__side_2console__handler_8hpp.html" target="_top" xlink:title=" ">
<polygon fill="none" stroke="black" points="943.5,-78.5 943.5,-119.5 1122.5,-119.5 1122.5,-78.5 943.5,-78.5"/>
<text text-anchor="start" x="951.5" y="-107.5" font-family="Helvetica,sans-Serif" font-size="10.00">/home/alexander/Documents</text>
<text text-anchor="start" x="951.5" y="-96.5" font-family="Helvetica,sans-Serif" font-size="10.00">/Seminars/TP/Project/src</text>
<text text-anchor="middle" x="1033" y="-85.5" font-family="Helvetica,sans-Serif" font-size="10.00">/server_side/console_handler.hpp</text>
</a>
</g>
</g>
<!-- Node19&#45;&gt;Node20 -->
<g id="edge20" class="edge">
<title>Node19&#45;&gt;Node20</title>
<path fill="none" stroke="midnightblue" d="M1112.06,-150.92C1096.2,-140.7 1078.14,-129.07 1063.28,-119.51"/>
<polygon fill="midnightblue" stroke="midnightblue" points="1110.31,-153.96 1120.61,-156.43 1114.1,-148.07 1110.31,-153.96"/>
</g>
<!-- Node22 -->
<g id="node22" class="node">
<title>Node22</title>
<g id="a_node22"><a xlink:href="server__side_2main_8cpp.html" target="_top" xlink:title=" ">
<polygon fill="none" stroke="black" points="1068,-0.5 1068,-41.5 1226,-41.5 1226,-0.5 1068,-0.5"/>
<text text-anchor="start" x="1076" y="-29.5" font-family="Helvetica,sans-Serif" font-size="10.00">/home/alexander/Documents</text>
<text text-anchor="start" x="1076" y="-18.5" font-family="Helvetica,sans-Serif" font-size="10.00">/Seminars/TP/Project/src</text>
<text text-anchor="middle" x="1147" y="-7.5" font-family="Helvetica,sans-Serif" font-size="10.00">/server_side/main.cpp</text>
</a>
</g>
</g>
<!-- Node19&#45;&gt;Node22 -->
<g id="edge23" class="edge">
<title>Node19&#45;&gt;Node22</title>
<path fill="none" stroke="midnightblue" d="M1150.23,-146.36C1149.43,-115.61 1148.2,-68.36 1147.52,-41.83"/>
<polygon fill="midnightblue" stroke="midnightblue" points="1146.73,-146.59 1150.49,-156.5 1153.73,-146.41 1146.73,-146.59"/>
</g>
<!-- Node21 -->
<g id="node21" class="node">
<title>Node21</title>
<g id="a_node21"><a xlink:href="server__side_2console__handler_8cpp.html" target="_top" xlink:title=" ">
<polygon fill="none" stroke="black" points="872,-0.5 872,-41.5 1050,-41.5 1050,-0.5 872,-0.5"/>
<text text-anchor="start" x="880" y="-29.5" font-family="Helvetica,sans-Serif" font-size="10.00">/home/alexander/Documents</text>
<text text-anchor="start" x="880" y="-18.5" font-family="Helvetica,sans-Serif" font-size="10.00">/Seminars/TP/Project/src</text>
<text text-anchor="middle" x="961" y="-7.5" font-family="Helvetica,sans-Serif" font-size="10.00">/server_side/console_handler.cpp</text>
</a>
</g>
</g>
<!-- Node20&#45;&gt;Node21 -->
<g id="edge21" class="edge">
<title>Node20&#45;&gt;Node21</title>
<path fill="none" stroke="midnightblue" d="M1007.34,-70.92C998.14,-61.2 987.95,-50.45 979.48,-41.51"/>
<polygon fill="midnightblue" stroke="midnightblue" points="1005.04,-73.58 1014.46,-78.43 1010.12,-68.76 1005.04,-73.58"/>
</g>
<!-- Node20&#45;&gt;Node22 -->
<g id="edge22" class="edge">
<title>Node20&#45;&gt;Node22</title>
<path fill="none" stroke="midnightblue" d="M1071.05,-72.64C1086.27,-62.49 1103.53,-50.98 1117.74,-41.51"/>
<polygon fill="midnightblue" stroke="midnightblue" points="1068.74,-69.97 1062.36,-78.43 1072.62,-75.79 1068.74,-69.97"/>
</g>
<!-- Node23&#45;&gt;Node10 -->
<g id="edge27" class="edge">
<title>Node23&#45;&gt;Node10</title>
<path fill="none" stroke="midnightblue" d="M629,-313.19C629,-304.28 629,-294.9 629,-286.61"/>
<polygon fill="midnightblue" stroke="midnightblue" points="625.5,-313.34 629,-323.34 632.5,-313.34 625.5,-313.34"/>
</g>
<!-- Node24 -->
<g id="node24" class="node">
<title>Node24</title>
<g id="a_node24"><a xlink:href="request__parser_8cpp.html" target="_top" xlink:title=" ">
<polygon fill="none" stroke="black" points="374,-234.5 374,-286.5 532,-286.5 532,-234.5 374,-234.5"/>
<text text-anchor="start" x="382" y="-274.5" font-family="Helvetica,sans-Serif" font-size="10.00">/home/alexander/Documents</text>
<text text-anchor="start" x="382" y="-263.5" font-family="Helvetica,sans-Serif" font-size="10.00">/Seminars/TP/Project/src</text>
<text text-anchor="start" x="382" y="-252.5" font-family="Helvetica,sans-Serif" font-size="10.00">/general/requests/request</text>
<text text-anchor="middle" x="453" y="-241.5" font-family="Helvetica,sans-Serif" font-size="10.00">_parser.cpp</text>
</a>
</g>
</g>
<!-- Node23&#45;&gt;Node24 -->
<g id="edge28" class="edge">
<title>Node23&#45;&gt;Node24</title>
<path fill="none" stroke="midnightblue" d="M568.87,-318.78C547.69,-308.31 524.12,-296.66 503.79,-286.61"/>
<polygon fill="midnightblue" stroke="midnightblue" points="567.58,-322.04 578.09,-323.34 570.68,-315.77 567.58,-322.04"/>
</g>
<!-- Node27&#45;&gt;Node3 -->
<g id="edge32" class="edge">
<title>Node27&#45;&gt;Node3</title>
<path fill="none" stroke="midnightblue" d="M269.64,-587.28C302.63,-576.4 340.06,-564.07 372.07,-553.52"/>
<polygon fill="midnightblue" stroke="midnightblue" points="268.41,-584 260.01,-590.45 270.6,-590.65 268.41,-584"/>
</g>
<!-- Node28 -->
<g id="node28" class="node">
<title>Node28</title>
<g id="a_node28"><a xlink:href="room__decorator_8cpp.html" target="_top" xlink:title=" ">
<polygon fill="none" stroke="black" points="17,-501.5 17,-553.5 175,-553.5 175,-501.5 17,-501.5"/>
<text text-anchor="start" x="25" y="-541.5" font-family="Helvetica,sans-Serif" font-size="10.00">/home/alexander/Documents</text>
<text text-anchor="start" x="25" y="-530.5" font-family="Helvetica,sans-Serif" font-size="10.00">/Seminars/TP/Project/src</text>
<text text-anchor="start" x="25" y="-519.5" font-family="Helvetica,sans-Serif" font-size="10.00">/general/requests/messages</text>
<text text-anchor="middle" x="96" y="-508.5" font-family="Helvetica,sans-Serif" font-size="10.00">/room_decorator.cpp</text>
</a>
</g>
</g>
<!-- Node27&#45;&gt;Node28 -->
<g id="edge33" class="edge">
<title>Node27&#45;&gt;Node28</title>
<path fill="none" stroke="midnightblue" d="M151.2,-583.08C141.35,-573.34 130.69,-562.8 121.4,-553.61"/>
<polygon fill="midnightblue" stroke="midnightblue" points="148.97,-585.79 158.55,-590.34 153.9,-580.82 148.97,-585.79"/>
</g>
<!-- Node29&#45;&gt;Node3 -->
<g id="edge35" class="edge">
<title>Node29&#45;&gt;Node3</title>
<path fill="none" stroke="midnightblue" d="M392.8,-583.08C402.65,-573.34 413.31,-562.8 422.6,-553.61"/>
<polygon fill="midnightblue" stroke="midnightblue" points="390.1,-580.82 385.45,-590.34 395.03,-585.79 390.1,-580.82"/>
</g>
<!-- Node30 -->
<g id="node30" class="node">
<title>Node30</title>
<g id="a_node30"><a xlink:href="sender__decorator_8cpp.html" target="_top" xlink:title=" ">
<polygon fill="none" stroke="black" points="193,-501.5 193,-553.5 351,-553.5 351,-501.5 193,-501.5"/>
<text text-anchor="start" x="201" y="-541.5" font-family="Helvetica,sans-Serif" font-size="10.00">/home/alexander/Documents</text>
<text text-anchor="start" x="201" y="-530.5" font-family="Helvetica,sans-Serif" font-size="10.00">/Seminars/TP/Project/src</text>
<text text-anchor="start" x="201" y="-519.5" font-family="Helvetica,sans-Serif" font-size="10.00">/general/requests/messages</text>
<text text-anchor="middle" x="272" y="-508.5" font-family="Helvetica,sans-Serif" font-size="10.00">/sender_decorator.cpp</text>
</a>
</g>
</g>
<!-- Node29&#45;&gt;Node30 -->
<g id="edge36" class="edge">
<title>Node29&#45;&gt;Node30</title>
<path fill="none" stroke="midnightblue" d="M327.2,-583.08C317.35,-573.34 306.69,-562.8 297.4,-553.61"/>
<polygon fill="midnightblue" stroke="midnightblue" points="324.97,-585.79 334.55,-590.34 329.9,-580.82 324.97,-585.79"/>
</g>
<!-- Node31&#45;&gt;Node3 -->
<g id="edge38" class="edge">
<title>Node31&#45;&gt;Node3</title>
<path fill="none" stroke="midnightblue" d="M503.2,-583.08C493.35,-573.34 482.69,-562.8 473.4,-553.61"/>
<polygon fill="midnightblue" stroke="midnightblue" points="500.97,-585.79 510.55,-590.34 505.9,-580.82 500.97,-585.79"/>
</g>
<!-- Node32 -->
<g id="node32" class="node">
<title>Node32</title>
<g id="a_node32"><a xlink:href="text__decorator_8cpp.html" target="_top" xlink:title=" ">
<polygon fill="none" stroke="black" points="545,-501.5 545,-553.5 703,-553.5 703,-501.5 545,-501.5"/>
<text text-anchor="start" x="553" y="-541.5" font-family="Helvetica,sans-Serif" font-size="10.00">/home/alexander/Documents</text>
<text text-anchor="start" x="553" y="-530.5" font-family="Helvetica,sans-Serif" font-size="10.00">/Seminars/TP/Project/src</text>
<text text-anchor="start" x="553" y="-519.5" font-family="Helvetica,sans-Serif" font-size="10.00">/general/requests/messages</text>
<text text-anchor="middle" x="624" y="-508.5" font-family="Helvetica,sans-Serif" font-size="10.00">/text_decorator.cpp</text>
</a>
</g>
</g>
<!-- Node31&#45;&gt;Node32 -->
<g id="edge39" class="edge">
<title>Node31&#45;&gt;Node32</title>
<path fill="none" stroke="midnightblue" d="M568.8,-583.08C578.65,-573.34 589.31,-562.8 598.6,-553.61"/>
<polygon fill="midnightblue" stroke="midnightblue" points="566.1,-580.82 561.45,-590.34 571.03,-585.79 566.1,-580.82"/>
</g>
<!-- Node33&#45;&gt;Node3 -->
<g id="edge41" class="edge">
<title>Node33&#45;&gt;Node3</title>
<path fill="none" stroke="midnightblue" d="M626.36,-587.28C593.37,-576.4 555.94,-564.07 523.93,-553.52"/>
<polygon fill="midnightblue" stroke="midnightblue" points="625.4,-590.65 635.99,-590.45 627.59,-584 625.4,-590.65"/>
</g>
<!-- Node34 -->
<g id="node34" class="node">
<title>Node34</title>
<g id="a_node34"><a xlink:href="time__decorator_8cpp.html" target="_top" xlink:title=" ">
<polygon fill="none" stroke="black" points="721,-501.5 721,-553.5 879,-553.5 879,-501.5 721,-501.5"/>
<text text-anchor="start" x="729" y="-541.5" font-family="Helvetica,sans-Serif" font-size="10.00">/home/alexander/Documents</text>
<text text-anchor="start" x="729" y="-530.5" font-family="Helvetica,sans-Serif" font-size="10.00">/Seminars/TP/Project/src</text>
<text text-anchor="start" x="729" y="-519.5" font-family="Helvetica,sans-Serif" font-size="10.00">/general/requests/messages</text>
<text text-anchor="middle" x="800" y="-508.5" font-family="Helvetica,sans-Serif" font-size="10.00">/time_decorator.cpp</text>
</a>
</g>
</g>
<!-- Node33&#45;&gt;Node34 -->
<g id="edge42" class="edge">
<title>Node33&#45;&gt;Node34</title>
<path fill="none" stroke="midnightblue" d="M744.8,-583.08C754.65,-573.34 765.31,-562.8 774.6,-553.61"/>
<polygon fill="midnightblue" stroke="midnightblue" points="742.1,-580.82 737.45,-590.34 747.03,-585.79 742.1,-580.82"/>
</g>
</g>
</svg>
        <g id="navigator" transform="translate(0 0)" fill="#404254">
                <rect fill="#f2f5e9" fill-opacity="0.5" stroke="#606060" stroke-width=".5" x="0" y="0" width="60" height="60"/>
                <use id="zoomplus" xlink:href="#zoomPlus" x="17" y="9" onmousedown="handleZoom(evt,'in')"/>
                <use id="zoomminus" xlink:href="#zoomMin" x="42" y="9" onmousedown="handleZoom(evt,'out')"/>
                <use id="reset" xlink:href="#resetDef" x="30" y="36" onmousedown="handleReset()"/>
                <g id="arrowUp" xlink:href="#dirArrow" transform="translate(30 24)" onmousedown="handlePan(0,-1)">
                  <use xlink:href="#rim" fill="#404040">
                        <set attributeName="fill" to="#808080" begin="arrowUp.mouseover" end="arrowUp.mouseout"/>
                  </use>
                  <path fill="none" stroke="white" stroke-width="1.5" d="M0,-3.0v7 M-2.5,-0.5L0,-3.0L2.5,-0.5"/>
                </g>
                <g id="arrowRight" xlink:href="#dirArrow" transform="rotate(90) translate(36 -43)" onmousedown="handlePan(1,0)">
                  <use xlink:href="#rim" fill="#404040">
                        <set attributeName="fill" to="#808080" begin="arrowRight.mouseover" end="arrowRight.mouseout"/>
                  </use>
                  <path fill="none" stroke="white" stroke-width="1.5" d="M0,-3.0v7 M-2.5,-0.5L0,-3.0L2.5,-0.5"/>
                </g>
                <g id="arrowDown" xlink:href="#dirArrow" transform="rotate(180) translate(-30 -48)" onmousedown="handlePan(0,1)">
                  <use xlink:href="#rim" fill="#404040">
                        <set attributeName="fill" to="#808080" begin="arrowDown.mouseover" end="arrowDown.mouseout"/>
                  </use>
                  <path fill="none" stroke="white" stroke-width="1.5" d="M0,-3.0v7 M-2.5,-0.5L0,-3.0L2.5,-0.5"/>
                </g>
                <g id="arrowLeft" xlink:href="#dirArrow" transform="rotate(270) translate(-36 17)" onmousedown="handlePan(-1,0)">
                  <use xlink:href="#rim" fill="#404040">
                        <set attributeName="fill" to="#808080" begin="arrowLeft.mouseover" end="arrowLeft.mouseout"/>
                  </use>
                  <path fill="none" stroke="white" stroke-width="1.5" d="M0,-3.0v7 M-2.5,-0.5L0,-3.0L2.5,-0.5"/>
                </g>
        </g>
        <svg viewBox="0 0 15 15" width="100%" height="30px" preserveAspectRatio="xMaxYMin meet">
         <g id="arrow_out" transform="scale(0.3 0.3)">
          <a xlink:href="properties__decorator_8hpp__dep__incl_org.svg" target="_base">
           <rect id="button" ry="5" rx="5" y="6" x="6" height="38" width="38"
                fill="#f2f5e9" fill-opacity="0.5" stroke="#606060" stroke-width="1.0"/>
           <path id="arrow"
             d="M 11.500037,31.436501 C 11.940474,20.09759 22.043105,11.32322 32.158766,21.979434 L 37.068811,17.246167 C 37.068811,17.246167 37.088388,32 37.088388,32 L 22.160133,31.978069 C 22.160133,31.978069 26.997745,27.140456 26.997745,27.140456 C 18.528582,18.264221 13.291696,25.230495 11.500037,31.436501 z"
             style="fill:#404040;"/>
          </a>
         </g>
        </svg>
</svg>
