<?xml version="1.0" encoding="UTF-8" standalone="no"?>
<!DOCTYPE svg PUBLIC "-//W3C//DTD SVG 1.1//EN"
 "http://www.w3.org/Graphics/SVG/1.1/DTD/svg11.dtd">
<!-- Generated by graphviz version 2.43.0 (0)
 -->
<!-- Title: /home/alexander/Documents/Seminars/TP/Project/src/general/requests/messages/properties_decorator.hpp Pages: 1 -->
<svg width="678pt" height="464pt"
 viewBox="0.00 0.00 677.58 464.00" xmlns="http://www.w3.org/2000/svg" xmlns:xlink="http://www.w3.org/1999/xlink">
<g id="graph0" class="graph" transform="scale(1 1) rotate(0) translate(4 460)">
<title>/home/alexander/Documents/Seminars/TP/Project/src/general/requests/messages/properties_decorator.hpp</title>
<!-- Node1 -->
<g id="node1" class="node">
<title>Node1</title>
<g id="a_node1"><a xlink:title=" ">
<polygon fill="#bfbfbf" stroke="black" points="415.5,-403.5 415.5,-455.5 573.5,-455.5 573.5,-403.5 415.5,-403.5"/>
<text text-anchor="start" x="423.5" y="-443.5" font-family="Helvetica,sans-Serif" font-size="10.00">/home/alexander/Documents</text>
<text text-anchor="start" x="423.5" y="-432.5" font-family="Helvetica,sans-Serif" font-size="10.00">/Seminars/TP/Project/src</text>
<text text-anchor="start" x="423.5" y="-421.5" font-family="Helvetica,sans-Serif" font-size="10.00">/general/requests/messages</text>
<text text-anchor="middle" x="494.5" y="-410.5" font-family="Helvetica,sans-Serif" font-size="10.00">/properties_decorator.hpp</text>
</a>
</g>
</g>
<!-- Node2 -->
<g id="node2" class="node">
<title>Node2</title>
<g id="a_node2"><a xlink:href="message_8hpp.html" target="_top" xlink:title=" ">
<polygon fill="none" stroke="black" points="453.5,-347.5 453.5,-366.5 535.5,-366.5 535.5,-347.5 453.5,-347.5"/>
<text text-anchor="middle" x="494.5" y="-354.5" font-family="Helvetica,sans-Serif" font-size="10.00">message.hpp</text>
</a>
</g>
</g>
<!-- Node1&#45;&gt;Node2 -->
<g id="edge1" class="edge">
<title>Node1&#45;&gt;Node2</title>
<path fill="none" stroke="midnightblue" d="M494.5,-403.45C494.5,-394.73 494.5,-385.1 494.5,-376.96"/>
<polygon fill="midnightblue" stroke="midnightblue" points="498,-376.7 494.5,-366.7 491,-376.7 498,-376.7"/>
</g>
<!-- Node3 -->
<g id="node3" class="node">
<title>Node3</title>
<g id="a_node3"><a xlink:href="request_8hpp.html" target="_top" xlink:title=" ">
<polygon fill="none" stroke="black" points="435,-291.5 435,-310.5 554,-310.5 554,-291.5 435,-291.5"/>
<text text-anchor="middle" x="494.5" y="-298.5" font-family="Helvetica,sans-Serif" font-size="10.00">requests/request.hpp</text>
</a>
</g>
</g>
<!-- Node2&#45;&gt;Node3 -->
<g id="edge2" class="edge">
<title>Node2&#45;&gt;Node3</title>
<path fill="none" stroke="midnightblue" d="M494.5,-347.08C494.5,-340.01 494.5,-329.86 494.5,-320.99"/>
<polygon fill="midnightblue" stroke="midnightblue" points="498,-320.75 494.5,-310.75 491,-320.75 498,-320.75"/>
</g>
<!-- Node4 -->
<g id="node4" class="node">
<title>Node4</title>
<g id="a_node4"><a xlink:title=" ">
<polygon fill="none" stroke="#bfbfbf" points="425.5,-0.5 425.5,-19.5 483.5,-19.5 483.5,-0.5 425.5,-0.5"/>
<text text-anchor="middle" x="454.5" y="-7.5" font-family="Helvetica,sans-Serif" font-size="10.00">memory</text>
</a>
</g>
</g>
<!-- Node3&#45;&gt;Node4 -->
<g id="edge3" class="edge">
<title>Node3&#45;&gt;Node4</title>
<path fill="none" stroke="midnightblue" d="M554.25,-295.42C585.14,-290.09 621.32,-278.79 645.5,-255 670.75,-230.16 669.5,-214.42 669.5,-179 669.5,-179 669.5,-179 669.5,-121 669.5,-43.12 556.3,-20.34 494.18,-13.71"/>
<polygon fill="midnightblue" stroke="midnightblue" points="494.24,-10.2 483.94,-12.71 493.56,-17.17 494.24,-10.2"/>
</g>
<!-- Node5 -->
<g id="node5" class="node">
<title>Node5</title>
<g id="a_node5"><a xlink:title=" ">
<polygon fill="none" stroke="#bfbfbf" points="301.5,-56.5 301.5,-75.5 345.5,-75.5 345.5,-56.5 301.5,-56.5"/>
<text text-anchor="middle" x="323.5" y="-63.5" font-family="Helvetica,sans-Serif" font-size="10.00">string</text>
</a>
</g>
</g>
<!-- Node3&#45;&gt;Node5 -->
<g id="edge4" class="edge">
<title>Node3&#45;&gt;Node5</title>
<path fill="none" stroke="midnightblue" d="M434.66,-297.53C402.75,-292.91 365.62,-281.61 343.5,-255 302.62,-205.82 312.38,-122.6 319.38,-85.64"/>
<polygon fill="midnightblue" stroke="midnightblue" points="322.83,-86.24 321.4,-75.75 315.97,-84.84 322.83,-86.24"/>
</g>
<!-- Node6 -->
<g id="node6" class="node">
<title>Node6</title>
<g id="a_node6"><a xlink:href="client__handler_8hpp.html" target="_top" xlink:title=" ">
<polygon fill="none" stroke="black" points="505,-224.5 505,-254.5 636,-254.5 636,-224.5 505,-224.5"/>
<text text-anchor="start" x="513" y="-242.5" font-family="Helvetica,sans-Serif" font-size="10.00">request_handlers/client</text>
<text text-anchor="middle" x="570.5" y="-231.5" font-family="Helvetica,sans-Serif" font-size="10.00">_handler.hpp</text>
</a>
</g>
</g>
<!-- Node3&#45;&gt;Node6 -->
<g id="edge5" class="edge">
<title>Node3&#45;&gt;Node6</title>
<path fill="none" stroke="midnightblue" d="M505.39,-291.48C515.59,-283.49 531.22,-271.25 544.61,-260.77"/>
<polygon fill="midnightblue" stroke="midnightblue" points="546.87,-263.44 552.59,-254.52 542.56,-257.93 546.87,-263.44"/>
</g>
<!-- Node17 -->
<g id="node17" class="node">
<title>Node17</title>
<g id="a_node17"><a xlink:href="server__handler_8hpp.html" target="_top" xlink:title=" ">
<polygon fill="none" stroke="black" points="352.5,-224.5 352.5,-254.5 486.5,-254.5 486.5,-224.5 352.5,-224.5"/>
<text text-anchor="start" x="360.5" y="-242.5" font-family="Helvetica,sans-Serif" font-size="10.00">request_handlers/server</text>
<text text-anchor="middle" x="419.5" y="-231.5" font-family="Helvetica,sans-Serif" font-size="10.00">_handler.hpp</text>
</a>
</g>
</g>
<!-- Node3&#45;&gt;Node17 -->
<g id="edge23" class="edge">
<title>Node3&#45;&gt;Node17</title>
<path fill="none" stroke="midnightblue" d="M483.75,-291.48C473.69,-283.49 458.27,-271.25 445.05,-260.77"/>
<polygon fill="midnightblue" stroke="midnightblue" points="447.19,-258 437.18,-254.52 442.83,-263.48 447.19,-258"/>
</g>
<!-- Node7 -->
<g id="node7" class="node">
<title>Node7</title>
<g id="a_node7"><a xlink:href="abstract__handler_8hpp.html" target="_top" xlink:title=" ">
<polygon fill="none" stroke="black" points="459,-168.5 459,-187.5 578,-187.5 578,-168.5 459,-168.5"/>
<text text-anchor="middle" x="518.5" y="-175.5" font-family="Helvetica,sans-Serif" font-size="10.00">abstract_handler.hpp</text>
</a>
</g>
</g>
<!-- Node6&#45;&gt;Node7 -->
<g id="edge6" class="edge">
<title>Node6&#45;&gt;Node7</title>
<path fill="none" stroke="midnightblue" d="M558.18,-224.4C550.54,-215.66 540.71,-204.41 532.74,-195.3"/>
<polygon fill="midnightblue" stroke="midnightblue" points="535.28,-192.88 526.07,-187.66 530.01,-197.49 535.28,-192.88"/>
</g>
<!-- Node16 -->
<g id="node16" class="node">
<title>Node16</title>
<g id="a_node16"><a xlink:href="renderer_8hpp.html" target="_top" xlink:title=" ">
<polygon fill="none" stroke="black" points="563.5,-112.5 563.5,-131.5 641.5,-131.5 641.5,-112.5 563.5,-112.5"/>
<text text-anchor="middle" x="602.5" y="-119.5" font-family="Helvetica,sans-Serif" font-size="10.00">renderer.hpp</text>
</a>
</g>
</g>
<!-- Node6&#45;&gt;Node16 -->
<g id="edge21" class="edge">
<title>Node6&#45;&gt;Node16</title>
<path fill="none" stroke="midnightblue" d="M575.64,-224.47C579.22,-214.4 583.97,-200.46 587.5,-188 591.84,-172.66 595.85,-155.02 598.63,-141.99"/>
<polygon fill="midnightblue" stroke="midnightblue" points="602.12,-142.41 600.73,-131.9 595.27,-140.98 602.12,-142.41"/>
</g>
<!-- Node7&#45;&gt;Node4 -->
<g id="edge7" class="edge">
<title>Node7&#45;&gt;Node4</title>
<path fill="none" stroke="midnightblue" d="M520.81,-168.45C525.91,-147.75 536.19,-93.84 516.5,-56 509.39,-42.33 496.01,-31.81 483.5,-24.4"/>
<polygon fill="midnightblue" stroke="midnightblue" points="485.09,-21.28 474.64,-19.55 481.73,-27.42 485.09,-21.28"/>
</g>
<!-- Node8 -->
<g id="node8" class="node">
<title>Node8</title>
<g id="a_node8"><a xlink:href="account_8hpp.html" target="_top" xlink:title=" ">
<polygon fill="none" stroke="black" points="379.5,-112.5 379.5,-131.5 455.5,-131.5 455.5,-112.5 379.5,-112.5"/>
<text text-anchor="middle" x="417.5" y="-119.5" font-family="Helvetica,sans-Serif" font-size="10.00">account.hpp</text>
</a>
</g>
</g>
<!-- Node7&#45;&gt;Node8 -->
<g id="edge8" class="edge">
<title>Node7&#45;&gt;Node8</title>
<path fill="none" stroke="midnightblue" d="M502.27,-168.32C486.15,-159.7 461.2,-146.36 442.54,-136.39"/>
<polygon fill="midnightblue" stroke="midnightblue" points="444.16,-133.28 433.69,-131.65 440.86,-139.46 444.16,-133.28"/>
</g>
<!-- Node11 -->
<g id="node11" class="node">
<title>Node11</title>
<g id="a_node11"><a xlink:href="socket_8hpp.html" target="_top" xlink:title=" ">
<polygon fill="none" stroke="black" points="172.5,-112.5 172.5,-131.5 276.5,-131.5 276.5,-112.5 172.5,-112.5"/>
<text text-anchor="middle" x="224.5" y="-119.5" font-family="Helvetica,sans-Serif" font-size="10.00">socket/socket.hpp</text>
</a>
</g>
</g>
<!-- Node7&#45;&gt;Node11 -->
<g id="edge13" class="edge">
<title>Node7&#45;&gt;Node11</title>
<path fill="none" stroke="midnightblue" d="M471.91,-168.44C420.09,-158.92 336.37,-143.55 280.88,-133.36"/>
<polygon fill="midnightblue" stroke="midnightblue" points="281.34,-129.88 270.87,-131.52 280.07,-136.77 281.34,-129.88"/>
</g>
<!-- Node8&#45;&gt;Node4 -->
<g id="edge9" class="edge">
<title>Node8&#45;&gt;Node4</title>
<path fill="none" stroke="midnightblue" d="M409.58,-112.34C398.99,-99.65 382.62,-75.39 392.5,-56 399.5,-42.27 412.87,-31.75 425.4,-24.35"/>
<polygon fill="midnightblue" stroke="midnightblue" points="427.17,-27.37 434.28,-19.51 423.82,-21.22 427.17,-27.37"/>
</g>
<!-- Node8&#45;&gt;Node5 -->
<g id="edge12" class="edge">
<title>Node8&#45;&gt;Node5</title>
<path fill="none" stroke="midnightblue" d="M402.4,-112.32C387.6,-103.82 364.81,-90.73 347.52,-80.8"/>
<polygon fill="midnightblue" stroke="midnightblue" points="348.98,-77.6 338.57,-75.65 345.49,-83.67 348.98,-77.6"/>
</g>
<!-- Node9 -->
<g id="node9" class="node">
<title>Node9</title>
<g id="a_node9"><a xlink:title=" ">
<polygon fill="none" stroke="#bfbfbf" points="401.5,-56.5 401.5,-75.5 433.5,-75.5 433.5,-56.5 401.5,-56.5"/>
<text text-anchor="middle" x="417.5" y="-63.5" font-family="Helvetica,sans-Serif" font-size="10.00">set</text>
</a>
</g>
</g>
<!-- Node8&#45;&gt;Node9 -->
<g id="edge10" class="edge">
<title>Node8&#45;&gt;Node9</title>
<path fill="none" stroke="midnightblue" d="M417.5,-112.08C417.5,-105.01 417.5,-94.86 417.5,-85.99"/>
<polygon fill="midnightblue" stroke="midnightblue" points="421,-85.75 417.5,-75.75 414,-85.75 421,-85.75"/>
</g>
<!-- Node10 -->
<g id="node10" class="node">
<title>Node10</title>
<g id="a_node10"><a xlink:title=" ">
<polygon fill="none" stroke="#bfbfbf" points="451.5,-56.5 451.5,-75.5 507.5,-75.5 507.5,-56.5 451.5,-56.5"/>
<text text-anchor="middle" x="479.5" y="-63.5" font-family="Helvetica,sans-Serif" font-size="10.00">sstream</text>
</a>
</g>
</g>
<!-- Node8&#45;&gt;Node10 -->
<g id="edge11" class="edge">
<title>Node8&#45;&gt;Node10</title>
<path fill="none" stroke="midnightblue" d="M427.46,-112.32C436.63,-104.34 450.44,-92.31 461.53,-82.65"/>
<polygon fill="midnightblue" stroke="midnightblue" points="464.12,-85.04 469.36,-75.83 459.52,-79.76 464.12,-85.04"/>
</g>
<!-- Node11&#45;&gt;Node4 -->
<g id="edge16" class="edge">
<title>Node11&#45;&gt;Node4</title>
<path fill="none" stroke="midnightblue" d="M231.05,-112.45C242.16,-98.52 266.09,-71.01 292.5,-56 331.14,-34.04 381.12,-22.28 415.28,-16.36"/>
<polygon fill="midnightblue" stroke="midnightblue" points="416.05,-19.78 425.35,-14.71 414.91,-12.87 416.05,-19.78"/>
</g>
<!-- Node11&#45;&gt;Node5 -->
<g id="edge17" class="edge">
<title>Node11&#45;&gt;Node5</title>
<path fill="none" stroke="midnightblue" d="M240.41,-112.32C256.14,-103.74 280.44,-90.49 298.71,-80.52"/>
<polygon fill="midnightblue" stroke="midnightblue" points="300.53,-83.52 307.63,-75.65 297.18,-77.37 300.53,-83.52"/>
</g>
<!-- Node12 -->
<g id="node12" class="node">
<title>Node12</title>
<g id="a_node12"><a xlink:title=" ">
<polygon fill="none" stroke="#bfbfbf" points="73.5,-56.5 73.5,-75.5 161.5,-75.5 161.5,-56.5 73.5,-56.5"/>
<text text-anchor="middle" x="117.5" y="-63.5" font-family="Helvetica,sans-Serif" font-size="10.00">boost/asio.hpp</text>
</a>
</g>
</g>
<!-- Node11&#45;&gt;Node12 -->
<g id="edge14" class="edge">
<title>Node11&#45;&gt;Node12</title>
<path fill="none" stroke="midnightblue" d="M207.31,-112.32C190.15,-103.66 163.55,-90.24 143.75,-80.25"/>
<polygon fill="midnightblue" stroke="midnightblue" points="145.15,-77.04 134.65,-75.65 142,-83.28 145.15,-77.04"/>
</g>
<!-- Node13 -->
<g id="node13" class="node">
<title>Node13</title>
<g id="a_node13"><a xlink:title=" ">
<polygon fill="none" stroke="#bfbfbf" points="180,-56.5 180,-75.5 245,-75.5 245,-56.5 180,-56.5"/>
<text text-anchor="middle" x="212.5" y="-63.5" font-family="Helvetica,sans-Serif" font-size="10.00">functional</text>
</a>
</g>
</g>
<!-- Node11&#45;&gt;Node13 -->
<g id="edge15" class="edge">
<title>Node11&#45;&gt;Node13</title>
<path fill="none" stroke="midnightblue" d="M222.52,-112.08C220.93,-104.93 218.64,-94.64 216.65,-85.69"/>
<polygon fill="midnightblue" stroke="midnightblue" points="220.03,-84.75 214.44,-75.75 213.2,-86.27 220.03,-84.75"/>
</g>
<!-- Node14 -->
<g id="node14" class="node">
<title>Node14</title>
<g id="a_node14"><a xlink:href="general_2socket_2log_8hpp.html" target="_top" xlink:title=" ">
<polygon fill="none" stroke="black" points="2,-56.5 2,-75.5 55,-75.5 55,-56.5 2,-56.5"/>
<text text-anchor="middle" x="28.5" y="-63.5" font-family="Helvetica,sans-Serif" font-size="10.00">log.hpp</text>
</a>
</g>
</g>
<!-- Node11&#45;&gt;Node14 -->
<g id="edge18" class="edge">
<title>Node11&#45;&gt;Node14</title>
<path fill="none" stroke="midnightblue" d="M193.44,-112.44C158.52,-102.82 101.86,-87.21 64.88,-77.02"/>
<polygon fill="midnightblue" stroke="midnightblue" points="65.58,-73.59 55.01,-74.3 63.72,-80.33 65.58,-73.59"/>
</g>
<!-- Node14&#45;&gt;Node4 -->
<g id="edge19" class="edge">
<title>Node14&#45;&gt;Node4</title>
<path fill="none" stroke="midnightblue" d="M55.15,-57.93C58.29,-57.22 61.46,-56.55 64.5,-56 191.75,-32.85 344.63,-19.3 415.24,-13.83"/>
<polygon fill="midnightblue" stroke="midnightblue" points="415.74,-17.3 425.44,-13.05 415.21,-10.32 415.74,-17.3"/>
</g>
<!-- Node15 -->
<g id="node15" class="node">
<title>Node15</title>
<g id="a_node15"><a xlink:title=" ">
<polygon fill="none" stroke="#bfbfbf" points="0,-0.5 0,-19.5 57,-19.5 57,-0.5 0,-0.5"/>
<text text-anchor="middle" x="28.5" y="-7.5" font-family="Helvetica,sans-Serif" font-size="10.00">ostream</text>
</a>
</g>
</g>
<!-- Node14&#45;&gt;Node15 -->
<g id="edge20" class="edge">
<title>Node14&#45;&gt;Node15</title>
<path fill="none" stroke="midnightblue" d="M28.5,-56.08C28.5,-49.01 28.5,-38.86 28.5,-29.99"/>
<polygon fill="midnightblue" stroke="midnightblue" points="32,-29.75 28.5,-19.75 25,-29.75 32,-29.75"/>
</g>
<!-- Node16&#45;&gt;Node4 -->
<g id="edge22" class="edge">
<title>Node16&#45;&gt;Node4</title>
<path fill="none" stroke="midnightblue" d="M597.29,-112.39C588.74,-98.87 570.59,-72.52 549.5,-56 531.52,-41.91 508.41,-30.84 489.48,-23.21"/>
<polygon fill="midnightblue" stroke="midnightblue" points="490.6,-19.89 480.02,-19.53 488.07,-26.41 490.6,-19.89"/>
</g>
<!-- Node17&#45;&gt;Node7 -->
<g id="edge25" class="edge">
<title>Node17&#45;&gt;Node7</title>
<path fill="none" stroke="midnightblue" d="M442.96,-224.4C458.83,-214.86 479.69,-202.32 495.47,-192.84"/>
<polygon fill="midnightblue" stroke="midnightblue" points="497.33,-195.81 504.09,-187.66 493.72,-189.81 497.33,-195.81"/>
</g>
<!-- Node18 -->
<g id="node18" class="node">
<title>Node18</title>
<g id="a_node18"><a xlink:title=" ">
<polygon fill="none" stroke="#bfbfbf" points="348,-168.5 348,-187.5 441,-187.5 441,-168.5 348,-168.5"/>
<text text-anchor="middle" x="394.5" y="-175.5" font-family="Helvetica,sans-Serif" font-size="10.00">unordered_map</text>
</a>
</g>
</g>
<!-- Node17&#45;&gt;Node18 -->
<g id="edge24" class="edge">
<title>Node17&#45;&gt;Node18</title>
<path fill="none" stroke="midnightblue" d="M413.58,-224.4C410.13,-216.2 405.75,-205.78 402.06,-196.99"/>
<polygon fill="midnightblue" stroke="midnightblue" points="405.24,-195.52 398.14,-187.66 398.78,-198.23 405.24,-195.52"/>
</g>
</g>
</svg>
