<?xml version="1.0" encoding="UTF-8" standalone="no"?>
<!DOCTYPE svg PUBLIC "-//W3C//DTD SVG 1.1//EN"
 "http://www.w3.org/Graphics/SVG/1.1/DTD/svg11.dtd">
<!-- Generated by graphviz version 2.43.0 (0)
 -->
<!-- Title: /home/alexander/Documents/Seminars/TP/Project/src/general/requests/request_creator.cpp Pages: 1 -->
<!--zoomable 755 -->
<svg id="main" version="1.1" xmlns="http://www.w3.org/2000/svg" xmlns:xlink="http://www.w3.org/1999/xlink" xml:space="preserve" onload="init(evt)">
<style type="text/css"><![CDATA[
.edge:hover path { stroke: red; }
.edge:hover polygon { stroke: red; fill: red; }
]]></style>
<script type="text/javascript"><![CDATA[
var edges = document.getElementsByTagName('g');
if (edges && edges.length) {
  for (var i=0;i<edges.length;i++) {
    if (edges[i].id.substr(0,4)=='edge') {
      edges[i].setAttribute('class','edge');
    }
  }
}
]]></script>
        <defs>
                <circle id="rim" cx="0" cy="0" r="7"/>
                <circle id="rim2" cx="0" cy="0" r="3.5"/>
                <g id="zoomPlus">
                        <use xlink:href="#rim" fill="#404040">
                                <set attributeName="fill" to="#808080" begin="zoomplus.mouseover" end="zoomplus.mouseout"/>
                        </use>
                        <path d="M-4,0h8M0,-4v8" fill="none" stroke="white" stroke-width="1.5" pointer-events="none"/>
                </g>
                <g id="zoomMin">
                        <use xlink:href="#rim" fill="#404040">
                                <set attributeName="fill" to="#808080" begin="zoomminus.mouseover" end="zoomminus.mouseout"/>
                        </use>
                        <path d="M-4,0h8" fill="none" stroke="white" stroke-width="1.5" pointer-events="none"/>
                </g>
                <g id="dirArrow">
                        <path fill="none" stroke="white" stroke-width="1.5" d="M0,-3.0v7 M-2.5,-0.5L0,-3.0L2.5,-0.5"/>
                </g>
               <g id="resetDef">
                       <use xlink:href="#rim2" fill="#404040">
                               <set attributeName="fill" to="#808080" begin="reset.mouseover" end="reset.mouseout"/>
                       </use>
               </g>
        </defs>

<script type="text/javascript">
var viewWidth = 1091;
var viewHeight = 755;
var sectionId = 'dynsection-0';
</script>
<script xlink:href="svgpan.js"/>
<svg id="graph" class="graph">
<g id="viewport">
<title>/home/alexander/Documents/Seminars/TP/Project/src/general/requests/request_creator.cpp</title>
<!-- Node1 -->
<g id="node1" class="node">
<title>Node1</title>
<g id="a_node1"><a xlink:title=" ">
<polygon fill="#bfbfbf" stroke="black" points="407.5,-694.5 407.5,-746.5 565.5,-746.5 565.5,-694.5 407.5,-694.5"/>
<text text-anchor="start" x="415.5" y="-734.5" font-family="Helvetica,sans-Serif" font-size="10.00">/home/alexander/Documents</text>
<text text-anchor="start" x="415.5" y="-723.5" font-family="Helvetica,sans-Serif" font-size="10.00">/Seminars/TP/Project/src</text>
<text text-anchor="start" x="415.5" y="-712.5" font-family="Helvetica,sans-Serif" font-size="10.00">/general/requests/request</text>
<text text-anchor="middle" x="486.5" y="-701.5" font-family="Helvetica,sans-Serif" font-size="10.00">_creator.cpp</text>
</a>
</g>
</g>
<!-- Node2 -->
<g id="node2" class="node">
<title>Node2</title>
<g id="a_node2"><a xlink:href="request__creator_8hpp.html" target="_top" xlink:title=" ">
<polygon fill="none" stroke="black" points="430,-638.5 430,-657.5 543,-657.5 543,-638.5 430,-638.5"/>
<text text-anchor="middle" x="486.5" y="-645.5" font-family="Helvetica,sans-Serif" font-size="10.00">request_creator.hpp</text>
</a>
</g>
</g>
<!-- Node1&#45;&gt;Node2 -->
<g id="edge1" class="edge">
<title>Node1&#45;&gt;Node2</title>
<path fill="none" stroke="midnightblue" d="M486.5,-694.45C486.5,-685.73 486.5,-676.1 486.5,-667.96"/>
<polygon fill="midnightblue" stroke="midnightblue" points="490,-667.7 486.5,-657.7 483,-667.7 490,-667.7"/>
</g>
<!-- Node3 -->
<g id="node3" class="node">
<title>Node3</title>
<g id="a_node3"><a xlink:href="sign__in__request_8hpp.html" target="_top" xlink:title=" ">
<polygon fill="none" stroke="black" points="279.5,-571.5 279.5,-601.5 405.5,-601.5 405.5,-571.5 279.5,-571.5"/>
<text text-anchor="start" x="287.5" y="-589.5" font-family="Helvetica,sans-Serif" font-size="10.00">requests/authorization</text>
<text text-anchor="middle" x="342.5" y="-578.5" font-family="Helvetica,sans-Serif" font-size="10.00">/sign_in_request.hpp</text>
</a>
</g>
</g>
<!-- Node2&#45;&gt;Node3 -->
<g id="edge2" class="edge">
<title>Node2&#45;&gt;Node3</title>
<path fill="none" stroke="midnightblue" d="M465.87,-638.48C445.09,-629.89 412.4,-616.38 385.89,-605.43"/>
<polygon fill="midnightblue" stroke="midnightblue" points="387.02,-602.11 376.44,-601.52 384.34,-608.58 387.02,-602.11"/>
</g>
<!-- Node21 -->
<g id="node21" class="node">
<title>Node21</title>
<g id="a_node21"><a xlink:href="sign__up__request_8hpp.html" target="_top" xlink:title=" ">
<polygon fill="none" stroke="black" points="423.5,-571.5 423.5,-601.5 549.5,-601.5 549.5,-571.5 423.5,-571.5"/>
<text text-anchor="start" x="431.5" y="-589.5" font-family="Helvetica,sans-Serif" font-size="10.00">requests/authorization</text>
<text text-anchor="middle" x="486.5" y="-578.5" font-family="Helvetica,sans-Serif" font-size="10.00">/sign_up_request.hpp</text>
</a>
</g>
</g>
<!-- Node2&#45;&gt;Node21 -->
<g id="edge28" class="edge">
<title>Node2&#45;&gt;Node21</title>
<path fill="none" stroke="midnightblue" d="M486.5,-638.48C486.5,-631.47 486.5,-621.19 486.5,-611.7"/>
<polygon fill="midnightblue" stroke="midnightblue" points="490,-611.52 486.5,-601.52 483,-611.52 490,-611.52"/>
</g>
<!-- Node22 -->
<g id="node22" class="node">
<title>Node22</title>
<g id="a_node22"><a xlink:href="messages__builder_8hpp.html" target="_top" xlink:title=" ">
<polygon fill="none" stroke="black" points="579.5,-571.5 579.5,-601.5 743.5,-601.5 743.5,-571.5 579.5,-571.5"/>
<text text-anchor="start" x="587.5" y="-589.5" font-family="Helvetica,sans-Serif" font-size="10.00">requests/messages/messages</text>
<text text-anchor="middle" x="661.5" y="-578.5" font-family="Helvetica,sans-Serif" font-size="10.00">_builder.hpp</text>
</a>
</g>
</g>
<!-- Node2&#45;&gt;Node22 -->
<g id="edge30" class="edge">
<title>Node2&#45;&gt;Node22</title>
<path fill="none" stroke="midnightblue" d="M511.57,-638.48C537.27,-629.74 577.95,-615.91 610.46,-604.86"/>
<polygon fill="midnightblue" stroke="midnightblue" points="611.91,-608.06 620.26,-601.52 609.66,-601.43 611.91,-608.06"/>
</g>
<!-- Node4 -->
<g id="node4" class="node">
<title>Node4</title>
<g id="a_node4"><a xlink:href="authorization__request_8hpp.html" target="_top" xlink:title=" ">
<polygon fill="none" stroke="black" points="270.5,-515.5 270.5,-534.5 414.5,-534.5 414.5,-515.5 270.5,-515.5"/>
<text text-anchor="middle" x="342.5" y="-522.5" font-family="Helvetica,sans-Serif" font-size="10.00">authorization_request.hpp</text>
</a>
</g>
</g>
<!-- Node3&#45;&gt;Node4 -->
<g id="edge3" class="edge">
<title>Node3&#45;&gt;Node4</title>
<path fill="none" stroke="midnightblue" d="M342.5,-571.4C342.5,-563.47 342.5,-553.46 342.5,-544.86"/>
<polygon fill="midnightblue" stroke="midnightblue" points="346,-544.66 342.5,-534.66 339,-544.66 346,-544.66"/>
</g>
<!-- Node5 -->
<g id="node5" class="node">
<title>Node5</title>
<g id="a_node5"><a xlink:href="request_8hpp.html" target="_top" xlink:title=" ">
<polygon fill="none" stroke="black" points="436,-291.5 436,-310.5 555,-310.5 555,-291.5 436,-291.5"/>
<text text-anchor="middle" x="495.5" y="-298.5" font-family="Helvetica,sans-Serif" font-size="10.00">requests/request.hpp</text>
</a>
</g>
</g>
<!-- Node4&#45;&gt;Node5 -->
<g id="edge4" class="edge">
<title>Node4&#45;&gt;Node5</title>
<path fill="none" stroke="midnightblue" d="M339.59,-515.19C335.85,-502.3 330.71,-477.8 338.5,-459 365.83,-393.01 435.85,-340.3 472.44,-316.21"/>
<polygon fill="midnightblue" stroke="midnightblue" points="474.47,-319.07 480.98,-310.71 470.68,-313.19 474.47,-319.07"/>
</g>
<!-- Node6 -->
<g id="node6" class="node">
<title>Node6</title>
<g id="a_node6"><a xlink:title=" ">
<polygon fill="none" stroke="#bfbfbf" points="425.5,-0.5 425.5,-19.5 483.5,-19.5 483.5,-0.5 425.5,-0.5"/>
<text text-anchor="middle" x="454.5" y="-7.5" font-family="Helvetica,sans-Serif" font-size="10.00">memory</text>
</a>
</g>
</g>
<!-- Node5&#45;&gt;Node6 -->
<g id="edge5" class="edge">
<title>Node5&#45;&gt;Node6</title>
<path fill="none" stroke="midnightblue" d="M555.37,-295.54C586.29,-290.24 622.46,-278.93 646.5,-255 671.51,-230.1 669.5,-214.29 669.5,-179 669.5,-179 669.5,-179 669.5,-121 669.5,-43.12 556.3,-20.34 494.18,-13.71"/>
<polygon fill="midnightblue" stroke="midnightblue" points="494.24,-10.2 483.94,-12.71 493.56,-17.17 494.24,-10.2"/>
</g>
<!-- Node7 -->
<g id="node7" class="node">
<title>Node7</title>
<g id="a_node7"><a xlink:title=" ">
<polygon fill="none" stroke="#bfbfbf" points="301.5,-56.5 301.5,-75.5 345.5,-75.5 345.5,-56.5 301.5,-56.5"/>
<text text-anchor="middle" x="323.5" y="-63.5" font-family="Helvetica,sans-Serif" font-size="10.00">string</text>
</a>
</g>
</g>
<!-- Node5&#45;&gt;Node7 -->
<g id="edge6" class="edge">
<title>Node5&#45;&gt;Node7</title>
<path fill="none" stroke="midnightblue" d="M435.71,-297.49C403.82,-292.85 366.69,-281.55 344.5,-255 303.46,-205.9 312.73,-122.64 319.5,-85.65"/>
<polygon fill="midnightblue" stroke="midnightblue" points="322.95,-86.24 321.46,-75.75 316.08,-84.88 322.95,-86.24"/>
</g>
<!-- Node8 -->
<g id="node8" class="node">
<title>Node8</title>
<g id="a_node8"><a xlink:href="client__handler_8hpp.html" target="_top" xlink:title=" ">
<polygon fill="none" stroke="black" points="506,-224.5 506,-254.5 637,-254.5 637,-224.5 506,-224.5"/>
<text text-anchor="start" x="514" y="-242.5" font-family="Helvetica,sans-Serif" font-size="10.00">request_handlers/client</text>
<text text-anchor="middle" x="571.5" y="-231.5" font-family="Helvetica,sans-Serif" font-size="10.00">_handler.hpp</text>
</a>
</g>
</g>
<!-- Node5&#45;&gt;Node8 -->
<g id="edge7" class="edge">
<title>Node5&#45;&gt;Node8</title>
<path fill="none" stroke="midnightblue" d="M506.39,-291.48C516.59,-283.49 532.22,-271.25 545.61,-260.77"/>
<polygon fill="midnightblue" stroke="midnightblue" points="547.87,-263.44 553.59,-254.52 543.56,-257.93 547.87,-263.44"/>
</g>
<!-- Node19 -->
<g id="node19" class="node">
<title>Node19</title>
<g id="a_node19"><a xlink:href="server__handler_8hpp.html" target="_top" xlink:title=" ">
<polygon fill="none" stroke="black" points="353.5,-224.5 353.5,-254.5 487.5,-254.5 487.5,-224.5 353.5,-224.5"/>
<text text-anchor="start" x="361.5" y="-242.5" font-family="Helvetica,sans-Serif" font-size="10.00">request_handlers/server</text>
<text text-anchor="middle" x="420.5" y="-231.5" font-family="Helvetica,sans-Serif" font-size="10.00">_handler.hpp</text>
</a>
</g>
</g>
<!-- Node5&#45;&gt;Node19 -->
<g id="edge25" class="edge">
<title>Node5&#45;&gt;Node19</title>
<path fill="none" stroke="midnightblue" d="M484.75,-291.48C474.69,-283.49 459.27,-271.25 446.05,-260.77"/>
<polygon fill="midnightblue" stroke="midnightblue" points="448.19,-258 438.18,-254.52 443.83,-263.48 448.19,-258"/>
</g>
<!-- Node9 -->
<g id="node9" class="node">
<title>Node9</title>
<g id="a_node9"><a xlink:href="abstract__handler_8hpp.html" target="_top" xlink:title=" ">
<polygon fill="none" stroke="black" points="458,-168.5 458,-187.5 577,-187.5 577,-168.5 458,-168.5"/>
<text text-anchor="middle" x="517.5" y="-175.5" font-family="Helvetica,sans-Serif" font-size="10.00">abstract_handler.hpp</text>
</a>
</g>
</g>
<!-- Node8&#45;&gt;Node9 -->
<g id="edge8" class="edge">
<title>Node8&#45;&gt;Node9</title>
<path fill="none" stroke="midnightblue" d="M558.7,-224.4C550.78,-215.66 540.56,-204.41 532.29,-195.3"/>
<polygon fill="midnightblue" stroke="midnightblue" points="534.67,-192.71 525.36,-187.66 529.49,-197.42 534.67,-192.71"/>
</g>
<!-- Node18 -->
<g id="node18" class="node">
<title>Node18</title>
<g id="a_node18"><a xlink:href="renderer_8hpp.html" target="_top" xlink:title=" ">
<polygon fill="none" stroke="black" points="563.5,-112.5 563.5,-131.5 641.5,-131.5 641.5,-112.5 563.5,-112.5"/>
<text text-anchor="middle" x="602.5" y="-119.5" font-family="Helvetica,sans-Serif" font-size="10.00">renderer.hpp</text>
</a>
</g>
</g>
<!-- Node8&#45;&gt;Node18 -->
<g id="edge23" class="edge">
<title>Node8&#45;&gt;Node18</title>
<path fill="none" stroke="midnightblue" d="M575.88,-224.4C578.97,-214.3 583.15,-200.36 586.5,-188 590.69,-172.56 595,-154.93 598.09,-141.93"/>
<polygon fill="midnightblue" stroke="midnightblue" points="601.58,-142.4 600.46,-131.87 594.76,-140.8 601.58,-142.4"/>
</g>
<!-- Node9&#45;&gt;Node6 -->
<g id="edge9" class="edge">
<title>Node9&#45;&gt;Node6</title>
<path fill="none" stroke="midnightblue" d="M519.9,-168.46C525.21,-147.78 536.03,-93.91 516.5,-56 509.44,-42.3 496.07,-31.78 483.55,-24.37"/>
<polygon fill="midnightblue" stroke="midnightblue" points="485.14,-21.25 474.68,-19.53 481.78,-27.39 485.14,-21.25"/>
</g>
<!-- Node10 -->
<g id="node10" class="node">
<title>Node10</title>
<g id="a_node10"><a xlink:href="account_8hpp.html" target="_top" xlink:title=" ">
<polygon fill="none" stroke="black" points="379.5,-112.5 379.5,-131.5 455.5,-131.5 455.5,-112.5 379.5,-112.5"/>
<text text-anchor="middle" x="417.5" y="-119.5" font-family="Helvetica,sans-Serif" font-size="10.00">account.hpp</text>
</a>
</g>
</g>
<!-- Node9&#45;&gt;Node10 -->
<g id="edge10" class="edge">
<title>Node9&#45;&gt;Node10</title>
<path fill="none" stroke="midnightblue" d="M501.43,-168.32C485.54,-159.74 460.99,-146.49 442.54,-136.52"/>
<polygon fill="midnightblue" stroke="midnightblue" points="443.99,-133.33 433.53,-131.65 440.66,-139.49 443.99,-133.33"/>
</g>
<!-- Node13 -->
<g id="node13" class="node">
<title>Node13</title>
<g id="a_node13"><a xlink:href="socket_8hpp.html" target="_top" xlink:title=" ">
<polygon fill="none" stroke="black" points="175.5,-112.5 175.5,-131.5 279.5,-131.5 279.5,-112.5 175.5,-112.5"/>
<text text-anchor="middle" x="227.5" y="-119.5" font-family="Helvetica,sans-Serif" font-size="10.00">socket/socket.hpp</text>
</a>
</g>
</g>
<!-- Node9&#45;&gt;Node13 -->
<g id="edge15" class="edge">
<title>Node9&#45;&gt;Node13</title>
<path fill="none" stroke="midnightblue" d="M471.55,-168.44C420.43,-158.92 337.85,-143.55 283.12,-133.36"/>
<polygon fill="midnightblue" stroke="midnightblue" points="283.71,-129.91 273.24,-131.52 282.43,-136.79 283.71,-129.91"/>
</g>
<!-- Node10&#45;&gt;Node6 -->
<g id="edge11" class="edge">
<title>Node10&#45;&gt;Node6</title>
<path fill="none" stroke="midnightblue" d="M409.58,-112.34C398.99,-99.65 382.62,-75.39 392.5,-56 399.5,-42.27 412.87,-31.75 425.4,-24.35"/>
<polygon fill="midnightblue" stroke="midnightblue" points="427.17,-27.37 434.28,-19.51 423.82,-21.22 427.17,-27.37"/>
</g>
<!-- Node10&#45;&gt;Node7 -->
<g id="edge14" class="edge">
<title>Node10&#45;&gt;Node7</title>
<path fill="none" stroke="midnightblue" d="M402.4,-112.32C387.6,-103.82 364.81,-90.73 347.52,-80.8"/>
<polygon fill="midnightblue" stroke="midnightblue" points="348.98,-77.6 338.57,-75.65 345.49,-83.67 348.98,-77.6"/>
</g>
<!-- Node11 -->
<g id="node11" class="node">
<title>Node11</title>
<g id="a_node11"><a xlink:title=" ">
<polygon fill="none" stroke="#bfbfbf" points="401.5,-56.5 401.5,-75.5 433.5,-75.5 433.5,-56.5 401.5,-56.5"/>
<text text-anchor="middle" x="417.5" y="-63.5" font-family="Helvetica,sans-Serif" font-size="10.00">set</text>
</a>
</g>
</g>
<!-- Node10&#45;&gt;Node11 -->
<g id="edge12" class="edge">
<title>Node10&#45;&gt;Node11</title>
<path fill="none" stroke="midnightblue" d="M417.5,-112.08C417.5,-105.01 417.5,-94.86 417.5,-85.99"/>
<polygon fill="midnightblue" stroke="midnightblue" points="421,-85.75 417.5,-75.75 414,-85.75 421,-85.75"/>
</g>
<!-- Node12 -->
<g id="node12" class="node">
<title>Node12</title>
<g id="a_node12"><a xlink:title=" ">
<polygon fill="none" stroke="#bfbfbf" points="451.5,-56.5 451.5,-75.5 507.5,-75.5 507.5,-56.5 451.5,-56.5"/>
<text text-anchor="middle" x="479.5" y="-63.5" font-family="Helvetica,sans-Serif" font-size="10.00">sstream</text>
</a>
</g>
</g>
<!-- Node10&#45;&gt;Node12 -->
<g id="edge13" class="edge">
<title>Node10&#45;&gt;Node12</title>
<path fill="none" stroke="midnightblue" d="M427.46,-112.32C436.63,-104.34 450.44,-92.31 461.53,-82.65"/>
<polygon fill="midnightblue" stroke="midnightblue" points="464.12,-85.04 469.36,-75.83 459.52,-79.76 464.12,-85.04"/>
</g>
<!-- Node13&#45;&gt;Node6 -->
<g id="edge18" class="edge">
<title>Node13&#45;&gt;Node6</title>
<path fill="none" stroke="midnightblue" d="M233.67,-112.43C244.17,-98.49 266.86,-70.96 292.5,-56 330.89,-33.6 380.91,-21.93 415.16,-16.15"/>
<polygon fill="midnightblue" stroke="midnightblue" points="415.92,-19.57 425.25,-14.54 414.82,-12.66 415.92,-19.57"/>
</g>
<!-- Node13&#45;&gt;Node7 -->
<g id="edge19" class="edge">
<title>Node13&#45;&gt;Node7</title>
<path fill="none" stroke="midnightblue" d="M242.92,-112.32C258.04,-103.82 281.32,-90.73 298.97,-80.8"/>
<polygon fill="midnightblue" stroke="midnightblue" points="301.11,-83.61 308.11,-75.65 297.68,-77.51 301.11,-83.61"/>
</g>
<!-- Node14 -->
<g id="node14" class="node">
<title>Node14</title>
<g id="a_node14"><a xlink:title=" ">
<polygon fill="none" stroke="#bfbfbf" points="73.5,-56.5 73.5,-75.5 161.5,-75.5 161.5,-56.5 73.5,-56.5"/>
<text text-anchor="middle" x="117.5" y="-63.5" font-family="Helvetica,sans-Serif" font-size="10.00">boost/asio.hpp</text>
</a>
</g>
</g>
<!-- Node13&#45;&gt;Node14 -->
<g id="edge16" class="edge">
<title>Node13&#45;&gt;Node14</title>
<path fill="none" stroke="midnightblue" d="M209.83,-112.32C192.11,-103.62 164.6,-90.12 144.21,-80.11"/>
<polygon fill="midnightblue" stroke="midnightblue" points="145.65,-76.92 135.13,-75.65 142.56,-83.2 145.65,-76.92"/>
</g>
<!-- Node15 -->
<g id="node15" class="node">
<title>Node15</title>
<g id="a_node15"><a xlink:title=" ">
<polygon fill="none" stroke="#bfbfbf" points="180,-56.5 180,-75.5 245,-75.5 245,-56.5 180,-56.5"/>
<text text-anchor="middle" x="212.5" y="-63.5" font-family="Helvetica,sans-Serif" font-size="10.00">functional</text>
</a>
</g>
</g>
<!-- Node13&#45;&gt;Node15 -->
<g id="edge17" class="edge">
<title>Node13&#45;&gt;Node15</title>
<path fill="none" stroke="midnightblue" d="M225.02,-112.08C223.01,-104.85 220.11,-94.41 217.61,-85.4"/>
<polygon fill="midnightblue" stroke="midnightblue" points="220.98,-84.45 214.93,-75.75 214.24,-86.32 220.98,-84.45"/>
</g>
<!-- Node16 -->
<g id="node16" class="node">
<title>Node16</title>
<g id="a_node16"><a xlink:href="general_2socket_2log_8hpp.html" target="_top" xlink:title=" ">
<polygon fill="none" stroke="black" points="2,-56.5 2,-75.5 55,-75.5 55,-56.5 2,-56.5"/>
<text text-anchor="middle" x="28.5" y="-63.5" font-family="Helvetica,sans-Serif" font-size="10.00">log.hpp</text>
</a>
</g>
</g>
<!-- Node13&#45;&gt;Node16 -->
<g id="edge20" class="edge">
<title>Node13&#45;&gt;Node16</title>
<path fill="none" stroke="midnightblue" d="M195.97,-112.44C160.41,-102.79 102.65,-87.12 65.12,-76.94"/>
<polygon fill="midnightblue" stroke="midnightblue" points="65.68,-73.46 55.11,-74.22 63.84,-80.22 65.68,-73.46"/>
</g>
<!-- Node16&#45;&gt;Node6 -->
<g id="edge21" class="edge">
<title>Node16&#45;&gt;Node6</title>
<path fill="none" stroke="midnightblue" d="M55.15,-57.93C58.29,-57.22 61.46,-56.55 64.5,-56 191.75,-32.85 344.63,-19.3 415.24,-13.83"/>
<polygon fill="midnightblue" stroke="midnightblue" points="415.74,-17.3 425.44,-13.05 415.21,-10.32 415.74,-17.3"/>
</g>
<!-- Node17 -->
<g id="node17" class="node">
<title>Node17</title>
<g id="a_node17"><a xlink:title=" ">
<polygon fill="none" stroke="#bfbfbf" points="0,-0.5 0,-19.5 57,-19.5 57,-0.5 0,-0.5"/>
<text text-anchor="middle" x="28.5" y="-7.5" font-family="Helvetica,sans-Serif" font-size="10.00">ostream</text>
</a>
</g>
</g>
<!-- Node16&#45;&gt;Node17 -->
<g id="edge22" class="edge">
<title>Node16&#45;&gt;Node17</title>
<path fill="none" stroke="midnightblue" d="M28.5,-56.08C28.5,-49.01 28.5,-38.86 28.5,-29.99"/>
<polygon fill="midnightblue" stroke="midnightblue" points="32,-29.75 28.5,-19.75 25,-29.75 32,-29.75"/>
</g>
<!-- Node18&#45;&gt;Node6 -->
<g id="edge24" class="edge">
<title>Node18&#45;&gt;Node6</title>
<path fill="none" stroke="midnightblue" d="M597.29,-112.39C588.74,-98.87 570.59,-72.52 549.5,-56 531.52,-41.91 508.41,-30.84 489.48,-23.21"/>
<polygon fill="midnightblue" stroke="midnightblue" points="490.6,-19.89 480.02,-19.53 488.07,-26.41 490.6,-19.89"/>
</g>
<!-- Node19&#45;&gt;Node9 -->
<g id="edge27" class="edge">
<title>Node19&#45;&gt;Node9</title>
<path fill="none" stroke="midnightblue" d="M443.49,-224.4C458.89,-214.95 479.09,-202.56 494.5,-193.11"/>
<polygon fill="midnightblue" stroke="midnightblue" points="496.69,-195.87 503.39,-187.66 493.03,-189.9 496.69,-195.87"/>
</g>
<!-- Node20 -->
<g id="node20" class="node">
<title>Node20</title>
<g id="a_node20"><a xlink:title=" ">
<polygon fill="none" stroke="#bfbfbf" points="347,-168.5 347,-187.5 440,-187.5 440,-168.5 347,-168.5"/>
<text text-anchor="middle" x="393.5" y="-175.5" font-family="Helvetica,sans-Serif" font-size="10.00">unordered_map</text>
</a>
</g>
</g>
<!-- Node19&#45;&gt;Node20 -->
<g id="edge26" class="edge">
<title>Node19&#45;&gt;Node20</title>
<path fill="none" stroke="midnightblue" d="M414.1,-224.4C410.38,-216.2 405.65,-205.78 401.67,-196.99"/>
<polygon fill="midnightblue" stroke="midnightblue" points="404.75,-195.32 397.43,-187.66 398.37,-198.21 404.75,-195.32"/>
</g>
<!-- Node21&#45;&gt;Node4 -->
<g id="edge29" class="edge">
<title>Node21&#45;&gt;Node4</title>
<path fill="none" stroke="midnightblue" d="M452.37,-571.4C428.21,-561.42 396.1,-548.15 372.83,-538.53"/>
<polygon fill="midnightblue" stroke="midnightblue" points="374.03,-535.24 363.45,-534.66 371.36,-541.71 374.03,-535.24"/>
</g>
<!-- Node23 -->
<g id="node23" class="node">
<title>Node23</title>
<g id="a_node23"><a xlink:href="all__messages_8hpp.html" target="_top" xlink:title=" ">
<polygon fill="none" stroke="black" points="620.5,-515.5 620.5,-534.5 724.5,-534.5 724.5,-515.5 620.5,-515.5"/>
<text text-anchor="middle" x="672.5" y="-522.5" font-family="Helvetica,sans-Serif" font-size="10.00">all_messages.hpp</text>
</a>
</g>
</g>
<!-- Node22&#45;&gt;Node23 -->
<g id="edge31" class="edge">
<title>Node22&#45;&gt;Node23</title>
<path fill="none" stroke="midnightblue" d="M664.11,-571.4C665.59,-563.38 667.47,-553.23 669.07,-544.57"/>
<polygon fill="midnightblue" stroke="midnightblue" points="672.52,-545.13 670.9,-534.66 665.64,-543.85 672.52,-545.13"/>
</g>
<!-- Node24 -->
<g id="node24" class="node">
<title>Node24</title>
<g id="a_node24"><a xlink:href="base__message_8hpp.html" target="_top" xlink:title=" ">
<polygon fill="none" stroke="black" points="972.5,-403.5 972.5,-422.5 1082.5,-422.5 1082.5,-403.5 972.5,-403.5"/>
<text text-anchor="middle" x="1027.5" y="-410.5" font-family="Helvetica,sans-Serif" font-size="10.00">base_message.hpp</text>
</a>
</g>
</g>
<!-- Node23&#45;&gt;Node24 -->
<g id="edge32" class="edge">
<title>Node23&#45;&gt;Node24</title>
<path fill="none" stroke="midnightblue" d="M724.82,-523.75C808.42,-522.26 966.98,-514.67 1008.5,-479 1021.72,-467.64 1026,-447.65 1027.26,-432.82"/>
<polygon fill="midnightblue" stroke="midnightblue" points="1030.76,-432.88 1027.74,-422.73 1023.77,-432.55 1030.76,-432.88"/>
</g>
<!-- Node26 -->
<g id="node26" class="node">
<title>Node26</title>
<g id="a_node26"><a xlink:href="private__decorator_8hpp.html" target="_top" xlink:title=" ">
<polygon fill="none" stroke="black" points="474,-459.5 474,-478.5 597,-478.5 597,-459.5 474,-459.5"/>
<text text-anchor="middle" x="535.5" y="-466.5" font-family="Helvetica,sans-Serif" font-size="10.00">private_decorator.hpp</text>
</a>
</g>
</g>
<!-- Node23&#45;&gt;Node26 -->
<g id="edge35" class="edge">
<title>Node23&#45;&gt;Node26</title>
<path fill="none" stroke="midnightblue" d="M650.79,-515.44C628.15,-506.52 592.43,-492.44 566.75,-482.32"/>
<polygon fill="midnightblue" stroke="midnightblue" points="567.69,-478.93 557.11,-478.52 565.13,-485.44 567.69,-478.93"/>
</g>
<!-- Node28 -->
<g id="node28" class="node">
<title>Node28</title>
<g id="a_node28"><a xlink:href="room__decorator_8hpp.html" target="_top" xlink:title=" ">
<polygon fill="none" stroke="black" points="615.5,-459.5 615.5,-478.5 729.5,-478.5 729.5,-459.5 615.5,-459.5"/>
<text text-anchor="middle" x="672.5" y="-466.5" font-family="Helvetica,sans-Serif" font-size="10.00">room_decorator.hpp</text>
</a>
</g>
</g>
<!-- Node23&#45;&gt;Node28 -->
<g id="edge38" class="edge">
<title>Node23&#45;&gt;Node28</title>
<path fill="none" stroke="midnightblue" d="M672.5,-515.08C672.5,-508.01 672.5,-497.86 672.5,-488.99"/>
<polygon fill="midnightblue" stroke="midnightblue" points="676,-488.75 672.5,-478.75 669,-488.75 676,-488.75"/>
</g>
<!-- Node29 -->
<g id="node29" class="node">
<title>Node29</title>
<g id="a_node29"><a xlink:href="sender__decorator_8hpp.html" target="_top" xlink:title=" ">
<polygon fill="none" stroke="black" points="747.5,-459.5 747.5,-478.5 869.5,-478.5 869.5,-459.5 747.5,-459.5"/>
<text text-anchor="middle" x="808.5" y="-466.5" font-family="Helvetica,sans-Serif" font-size="10.00">sender_decorator.hpp</text>
</a>
</g>
</g>
<!-- Node23&#45;&gt;Node29 -->
<g id="edge40" class="edge">
<title>Node23&#45;&gt;Node29</title>
<path fill="none" stroke="midnightblue" d="M694.05,-515.44C716.53,-506.52 751.99,-492.44 777.48,-482.32"/>
<polygon fill="midnightblue" stroke="midnightblue" points="779.05,-485.46 787.05,-478.52 776.47,-478.95 779.05,-485.46"/>
</g>
<!-- Node30 -->
<g id="node30" class="node">
<title>Node30</title>
<g id="a_node30"><a xlink:href="text__decorator_8hpp.html" target="_top" xlink:title=" ">
<polygon fill="none" stroke="black" points="347.5,-459.5 347.5,-478.5 455.5,-478.5 455.5,-459.5 347.5,-459.5"/>
<text text-anchor="middle" x="401.5" y="-466.5" font-family="Helvetica,sans-Serif" font-size="10.00">text_decorator.hpp</text>
</a>
</g>
</g>
<!-- Node23&#45;&gt;Node30 -->
<g id="edge42" class="edge">
<title>Node23&#45;&gt;Node30</title>
<path fill="none" stroke="midnightblue" d="M629.56,-515.44C581.99,-505.96 505.26,-490.67 454.11,-480.48"/>
<polygon fill="midnightblue" stroke="midnightblue" points="454.73,-477.04 444.24,-478.52 453.36,-483.9 454.73,-477.04"/>
</g>
<!-- Node31 -->
<g id="node31" class="node">
<title>Node31</title>
<g id="a_node31"><a xlink:href="time__decorator_8hpp.html" target="_top" xlink:title=" ">
<polygon fill="none" stroke="black" points="888,-459.5 888,-478.5 999,-478.5 999,-459.5 888,-459.5"/>
<text text-anchor="middle" x="943.5" y="-466.5" font-family="Helvetica,sans-Serif" font-size="10.00">time_decorator.hpp</text>
</a>
</g>
</g>
<!-- Node23&#45;&gt;Node31 -->
<g id="edge44" class="edge">
<title>Node23&#45;&gt;Node31</title>
<path fill="none" stroke="midnightblue" d="M715.44,-515.44C763.01,-505.96 839.74,-490.67 890.89,-480.48"/>
<polygon fill="midnightblue" stroke="midnightblue" points="891.64,-483.9 900.76,-478.52 890.27,-477.04 891.64,-483.9"/>
</g>
<!-- Node25 -->
<g id="node25" class="node">
<title>Node25</title>
<g id="a_node25"><a xlink:href="message_8hpp.html" target="_top" xlink:title=" ">
<polygon fill="none" stroke="black" points="631.5,-347.5 631.5,-366.5 713.5,-366.5 713.5,-347.5 631.5,-347.5"/>
<text text-anchor="middle" x="672.5" y="-354.5" font-family="Helvetica,sans-Serif" font-size="10.00">message.hpp</text>
</a>
</g>
</g>
<!-- Node24&#45;&gt;Node25 -->
<g id="edge33" class="edge">
<title>Node24&#45;&gt;Node25</title>
<path fill="none" stroke="midnightblue" d="M972.42,-403.62C904.48,-393.29 789.9,-375.86 723.76,-365.8"/>
<polygon fill="midnightblue" stroke="midnightblue" points="723.99,-362.29 713.58,-364.25 722.94,-369.21 723.99,-362.29"/>
</g>
<!-- Node25&#45;&gt;Node5 -->
<g id="edge34" class="edge">
<title>Node25&#45;&gt;Node5</title>
<path fill="none" stroke="midnightblue" d="M644.45,-347.44C614.42,-338.28 566.59,-323.69 533.26,-313.52"/>
<polygon fill="midnightblue" stroke="midnightblue" points="534,-310.09 523.41,-310.52 531.96,-316.78 534,-310.09"/>
</g>
<!-- Node27 -->
<g id="node27" class="node">
<title>Node27</title>
<g id="a_node27"><a xlink:href="properties__decorator_8hpp.html" target="_top" xlink:title=" ">
<polygon fill="none" stroke="black" points="603.5,-403.5 603.5,-422.5 741.5,-422.5 741.5,-403.5 603.5,-403.5"/>
<text text-anchor="middle" x="672.5" y="-410.5" font-family="Helvetica,sans-Serif" font-size="10.00">properties_decorator.hpp</text>
</a>
</g>
</g>
<!-- Node26&#45;&gt;Node27 -->
<g id="edge36" class="edge">
<title>Node26&#45;&gt;Node27</title>
<path fill="none" stroke="midnightblue" d="M557.21,-459.44C579.85,-450.52 615.57,-436.44 641.25,-426.32"/>
<polygon fill="midnightblue" stroke="midnightblue" points="642.87,-429.44 650.89,-422.52 640.31,-422.93 642.87,-429.44"/>
</g>
<!-- Node27&#45;&gt;Node25 -->
<g id="edge37" class="edge">
<title>Node27&#45;&gt;Node25</title>
<path fill="none" stroke="midnightblue" d="M672.5,-403.08C672.5,-396.01 672.5,-385.86 672.5,-376.99"/>
<polygon fill="midnightblue" stroke="midnightblue" points="676,-376.75 672.5,-366.75 669,-376.75 676,-376.75"/>
</g>
<!-- Node28&#45;&gt;Node27 -->
<g id="edge39" class="edge">
<title>Node28&#45;&gt;Node27</title>
<path fill="none" stroke="midnightblue" d="M672.5,-459.08C672.5,-452.01 672.5,-441.86 672.5,-432.99"/>
<polygon fill="midnightblue" stroke="midnightblue" points="676,-432.75 672.5,-422.75 669,-432.75 676,-432.75"/>
</g>
<!-- Node29&#45;&gt;Node27 -->
<g id="edge41" class="edge">
<title>Node29&#45;&gt;Node27</title>
<path fill="none" stroke="midnightblue" d="M786.95,-459.44C764.47,-450.52 729.01,-436.44 703.52,-426.32"/>
<polygon fill="midnightblue" stroke="midnightblue" points="704.53,-422.95 693.95,-422.52 701.95,-429.46 704.53,-422.95"/>
</g>
<!-- Node30&#45;&gt;Node27 -->
<g id="edge43" class="edge">
<title>Node30&#45;&gt;Node27</title>
<path fill="none" stroke="midnightblue" d="M444.44,-459.44C492.01,-449.96 568.74,-434.67 619.89,-424.48"/>
<polygon fill="midnightblue" stroke="midnightblue" points="620.64,-427.9 629.76,-422.52 619.27,-421.04 620.64,-427.9"/>
</g>
<!-- Node31&#45;&gt;Node27 -->
<g id="edge45" class="edge">
<title>Node31&#45;&gt;Node27</title>
<path fill="none" stroke="midnightblue" d="M900.56,-459.44C852.99,-449.96 776.26,-434.67 725.11,-424.48"/>
<polygon fill="midnightblue" stroke="midnightblue" points="725.73,-421.04 715.24,-422.52 724.36,-427.9 725.73,-421.04"/>
</g>
<!-- Node32 -->
<g id="node32" class="node">
<title>Node32</title>
<g id="a_node32"><a xlink:title=" ">
<polygon fill="none" stroke="#bfbfbf" points="906.5,-403.5 906.5,-422.5 954.5,-422.5 954.5,-403.5 906.5,-403.5"/>
<text text-anchor="middle" x="930.5" y="-410.5" font-family="Helvetica,sans-Serif" font-size="10.00">time.h</text>
</a>
</g>
</g>
<!-- Node31&#45;&gt;Node32 -->
<g id="edge46" class="edge">
<title>Node31&#45;&gt;Node32</title>
<path fill="none" stroke="midnightblue" d="M941.35,-459.08C939.63,-451.93 937.15,-441.64 935,-432.69"/>
<polygon fill="midnightblue" stroke="midnightblue" points="938.35,-431.65 932.61,-422.75 931.54,-433.29 938.35,-431.65"/>
</g>
</g>
</svg>
        <g id="navigator" transform="translate(0 0)" fill="#404254">
                <rect fill="#f2f5e9" fill-opacity="0.5" stroke="#606060" stroke-width=".5" x="0" y="0" width="60" height="60"/>
                <use id="zoomplus" xlink:href="#zoomPlus" x="17" y="9" onmousedown="handleZoom(evt,'in')"/>
                <use id="zoomminus" xlink:href="#zoomMin" x="42" y="9" onmousedown="handleZoom(evt,'out')"/>
                <use id="reset" xlink:href="#resetDef" x="30" y="36" onmousedown="handleReset()"/>
                <g id="arrowUp" xlink:href="#dirArrow" transform="translate(30 24)" onmousedown="handlePan(0,-1)">
                  <use xlink:href="#rim" fill="#404040">
                        <set attributeName="fill" to="#808080" begin="arrowUp.mouseover" end="arrowUp.mouseout"/>
                  </use>
                  <path fill="none" stroke="white" stroke-width="1.5" d="M0,-3.0v7 M-2.5,-0.5L0,-3.0L2.5,-0.5"/>
                </g>
                <g id="arrowRight" xlink:href="#dirArrow" transform="rotate(90) translate(36 -43)" onmousedown="handlePan(1,0)">
                  <use xlink:href="#rim" fill="#404040">
                        <set attributeName="fill" to="#808080" begin="arrowRight.mouseover" end="arrowRight.mouseout"/>
                  </use>
                  <path fill="none" stroke="white" stroke-width="1.5" d="M0,-3.0v7 M-2.5,-0.5L0,-3.0L2.5,-0.5"/>
                </g>
                <g id="arrowDown" xlink:href="#dirArrow" transform="rotate(180) translate(-30 -48)" onmousedown="handlePan(0,1)">
                  <use xlink:href="#rim" fill="#404040">
                        <set attributeName="fill" to="#808080" begin="arrowDown.mouseover" end="arrowDown.mouseout"/>
                  </use>
                  <path fill="none" stroke="white" stroke-width="1.5" d="M0,-3.0v7 M-2.5,-0.5L0,-3.0L2.5,-0.5"/>
                </g>
                <g id="arrowLeft" xlink:href="#dirArrow" transform="rotate(270) translate(-36 17)" onmousedown="handlePan(-1,0)">
                  <use xlink:href="#rim" fill="#404040">
                        <set attributeName="fill" to="#808080" begin="arrowLeft.mouseover" end="arrowLeft.mouseout"/>
                  </use>
                  <path fill="none" stroke="white" stroke-width="1.5" d="M0,-3.0v7 M-2.5,-0.5L0,-3.0L2.5,-0.5"/>
                </g>
        </g>
        <svg viewBox="0 0 15 15" width="100%" height="30px" preserveAspectRatio="xMaxYMin meet">
         <g id="arrow_out" transform="scale(0.3 0.3)">
          <a xlink:href="request__creator_8cpp__incl_org.svg" target="_base">
           <rect id="button" ry="5" rx="5" y="6" x="6" height="38" width="38"
                fill="#f2f5e9" fill-opacity="0.5" stroke="#606060" stroke-width="1.0"/>
           <path id="arrow"
             d="M 11.500037,31.436501 C 11.940474,20.09759 22.043105,11.32322 32.158766,21.979434 L 37.068811,17.246167 C 37.068811,17.246167 37.088388,32 37.088388,32 L 22.160133,31.978069 C 22.160133,31.978069 26.997745,27.140456 26.997745,27.140456 C 18.528582,18.264221 13.291696,25.230495 11.500037,31.436501 z"
             style="fill:#404040;"/>
          </a>
         </g>
        </svg>
</svg>
