<?xml version="1.0" encoding="UTF-8" standalone="no"?>
<!DOCTYPE svg PUBLIC "-//W3C//DTD SVG 1.1//EN"
 "http://www.w3.org/Graphics/SVG/1.1/DTD/svg11.dtd">
<!-- Generated by graphviz version 2.43.0 (0)
 -->
<!-- Title: /home/alexander/Documents/Seminars/TP/Project/src/general/requests/request_creator.hpp Pages: 1 -->
<svg width="1207pt" height="384pt"
 viewBox="0.00 0.00 1207.00 384.00" xmlns="http://www.w3.org/2000/svg" xmlns:xlink="http://www.w3.org/1999/xlink">
<g id="graph0" class="graph" transform="scale(1 1) rotate(0) translate(4 380)">
<title>/home/alexander/Documents/Seminars/TP/Project/src/general/requests/request_creator.hpp</title>
<!-- Node1 -->
<g id="node1" class="node">
<title>Node1</title>
<g id="a_node1"><a xlink:title=" ">
<polygon fill="#bfbfbf" stroke="black" points="447,-323.5 447,-375.5 605,-375.5 605,-323.5 447,-323.5"/>
<text text-anchor="start" x="455" y="-363.5" font-family="Helvetica,sans-Serif" font-size="10.00">/home/alexander/Documents</text>
<text text-anchor="start" x="455" y="-352.5" font-family="Helvetica,sans-Serif" font-size="10.00">/Seminars/TP/Project/src</text>
<text text-anchor="start" x="455" y="-341.5" font-family="Helvetica,sans-Serif" font-size="10.00">/general/requests/request</text>
<text text-anchor="middle" x="526" y="-330.5" font-family="Helvetica,sans-Serif" font-size="10.00">_creator.hpp</text>
</a>
</g>
</g>
<!-- Node2 -->
<g id="node2" class="node">
<title>Node2</title>
<g id="a_node2"><a xlink:href="abstract__handler_8cpp.html" target="_top" xlink:title=" ">
<polygon fill="none" stroke="black" points="0,-234.5 0,-286.5 158,-286.5 158,-234.5 0,-234.5"/>
<text text-anchor="start" x="8" y="-274.5" font-family="Helvetica,sans-Serif" font-size="10.00">/home/alexander/Documents</text>
<text text-anchor="start" x="8" y="-263.5" font-family="Helvetica,sans-Serif" font-size="10.00">/Seminars/TP/Project/src</text>
<text text-anchor="start" x="8" y="-252.5" font-family="Helvetica,sans-Serif" font-size="10.00">/general/request_handlers</text>
<text text-anchor="middle" x="79" y="-241.5" font-family="Helvetica,sans-Serif" font-size="10.00">/abstract_handler.cpp</text>
</a>
</g>
</g>
<!-- Node1&#45;&gt;Node2 -->
<g id="edge1" class="edge">
<title>Node1&#45;&gt;Node2</title>
<path fill="none" stroke="midnightblue" d="M436.63,-336.04C363.66,-325.19 258.09,-307.93 167,-287 164.05,-286.32 161.06,-285.61 158.04,-284.86"/>
<polygon fill="midnightblue" stroke="midnightblue" points="436.3,-339.53 446.7,-337.53 437.32,-332.61 436.3,-339.53"/>
</g>
<!-- Node3 -->
<g id="node3" class="node">
<title>Node3</title>
<g id="a_node3"><a xlink:href="client__handler_8cpp.html" target="_top" xlink:title=" ">
<polygon fill="none" stroke="black" points="176,-234.5 176,-286.5 334,-286.5 334,-234.5 176,-234.5"/>
<text text-anchor="start" x="184" y="-274.5" font-family="Helvetica,sans-Serif" font-size="10.00">/home/alexander/Documents</text>
<text text-anchor="start" x="184" y="-263.5" font-family="Helvetica,sans-Serif" font-size="10.00">/Seminars/TP/Project/src</text>
<text text-anchor="start" x="184" y="-252.5" font-family="Helvetica,sans-Serif" font-size="10.00">/general/request_handlers</text>
<text text-anchor="middle" x="255" y="-241.5" font-family="Helvetica,sans-Serif" font-size="10.00">/client_handler.cpp</text>
</a>
</g>
</g>
<!-- Node1&#45;&gt;Node3 -->
<g id="edge2" class="edge">
<title>Node1&#45;&gt;Node3</title>
<path fill="none" stroke="midnightblue" d="M438.09,-320.28C404.22,-309.4 365.81,-297.07 332.94,-286.52"/>
<polygon fill="midnightblue" stroke="midnightblue" points="437.39,-323.73 447.98,-323.45 439.53,-317.06 437.39,-323.73"/>
</g>
<!-- Node4 -->
<g id="node4" class="node">
<title>Node4</title>
<g id="a_node4"><a xlink:href="authorization__request_8cpp.html" target="_top" xlink:title=" ">
<polygon fill="none" stroke="black" points="351.5,-234.5 351.5,-286.5 520.5,-286.5 520.5,-234.5 351.5,-234.5"/>
<text text-anchor="start" x="359.5" y="-274.5" font-family="Helvetica,sans-Serif" font-size="10.00">/home/alexander/Documents</text>
<text text-anchor="start" x="359.5" y="-263.5" font-family="Helvetica,sans-Serif" font-size="10.00">/Seminars/TP/Project/src</text>
<text text-anchor="start" x="359.5" y="-252.5" font-family="Helvetica,sans-Serif" font-size="10.00">/general/requests/authorization</text>
<text text-anchor="middle" x="436" y="-241.5" font-family="Helvetica,sans-Serif" font-size="10.00">/authorization_request.cpp</text>
</a>
</g>
</g>
<!-- Node1&#45;&gt;Node4 -->
<g id="edge3" class="edge">
<title>Node1&#45;&gt;Node4</title>
<path fill="none" stroke="midnightblue" d="M492.75,-316.36C482.6,-306.54 471.58,-295.89 461.97,-286.61"/>
<polygon fill="midnightblue" stroke="midnightblue" points="490.35,-318.9 499.97,-323.34 495.21,-313.87 490.35,-318.9"/>
</g>
<!-- Node5 -->
<g id="node5" class="node">
<title>Node5</title>
<g id="a_node5"><a xlink:href="request__creator_8cpp.html" target="_top" xlink:title=" ">
<polygon fill="none" stroke="black" points="538,-234.5 538,-286.5 696,-286.5 696,-234.5 538,-234.5"/>
<text text-anchor="start" x="546" y="-274.5" font-family="Helvetica,sans-Serif" font-size="10.00">/home/alexander/Documents</text>
<text text-anchor="start" x="546" y="-263.5" font-family="Helvetica,sans-Serif" font-size="10.00">/Seminars/TP/Project/src</text>
<text text-anchor="start" x="546" y="-252.5" font-family="Helvetica,sans-Serif" font-size="10.00">/general/requests/request</text>
<text text-anchor="middle" x="617" y="-241.5" font-family="Helvetica,sans-Serif" font-size="10.00">_creator.cpp</text>
</a>
</g>
</g>
<!-- Node1&#45;&gt;Node5 -->
<g id="edge4" class="edge">
<title>Node1&#45;&gt;Node5</title>
<path fill="none" stroke="midnightblue" d="M559.61,-316.36C569.89,-306.54 581.03,-295.89 590.74,-286.61"/>
<polygon fill="midnightblue" stroke="midnightblue" points="557.13,-313.9 552.32,-323.34 561.97,-318.96 557.13,-313.9"/>
</g>
<!-- Node6 -->
<g id="node6" class="node">
<title>Node6</title>
<g id="a_node6"><a xlink:href="room_8hpp.html" target="_top" xlink:title=" ">
<polygon fill="none" stroke="black" points="714,-240 714,-281 872,-281 872,-240 714,-240"/>
<text text-anchor="start" x="722" y="-269" font-family="Helvetica,sans-Serif" font-size="10.00">/home/alexander/Documents</text>
<text text-anchor="start" x="722" y="-258" font-family="Helvetica,sans-Serif" font-size="10.00">/Seminars/TP/Project/src</text>
<text text-anchor="middle" x="793" y="-247" font-family="Helvetica,sans-Serif" font-size="10.00">/server_side/room.hpp</text>
</a>
</g>
</g>
<!-- Node1&#45;&gt;Node6 -->
<g id="edge5" class="edge">
<title>Node1&#45;&gt;Node6</title>
<path fill="none" stroke="midnightblue" d="M612.7,-320.25C651.92,-307.47 697.32,-292.68 732.74,-281.13"/>
<polygon fill="midnightblue" stroke="midnightblue" points="611.29,-317.03 602.87,-323.45 613.46,-323.68 611.29,-317.03"/>
</g>
<!-- Node11 -->
<g id="node11" class="node">
<title>Node11</title>
<g id="a_node11"><a xlink:href="server_8hpp.html" target="_top" xlink:title=" ">
<polygon fill="none" stroke="black" points="872,-156.5 872,-197.5 1030,-197.5 1030,-156.5 872,-156.5"/>
<text text-anchor="start" x="880" y="-185.5" font-family="Helvetica,sans-Serif" font-size="10.00">/home/alexander/Documents</text>
<text text-anchor="start" x="880" y="-174.5" font-family="Helvetica,sans-Serif" font-size="10.00">/Seminars/TP/Project/src</text>
<text text-anchor="middle" x="951" y="-163.5" font-family="Helvetica,sans-Serif" font-size="10.00">/server_side/server.hpp</text>
</a>
</g>
</g>
<!-- Node1&#45;&gt;Node11 -->
<g id="edge17" class="edge">
<title>Node1&#45;&gt;Node11</title>
<path fill="none" stroke="midnightblue" d="M615.07,-341.27C705.6,-332.49 838.42,-315.25 881,-287 913.61,-265.37 934.23,-222.79 944.09,-197.73"/>
<polygon fill="midnightblue" stroke="midnightblue" points="614.69,-337.79 605.07,-342.22 615.36,-344.75 614.69,-337.79"/>
</g>
<!-- Node7 -->
<g id="node7" class="node">
<title>Node7</title>
<g id="a_node7"><a xlink:href="client__connection_8hpp.html" target="_top" xlink:title=" ">
<polygon fill="none" stroke="black" points="597.5,-78.5 597.5,-119.5 782.5,-119.5 782.5,-78.5 597.5,-78.5"/>
<text text-anchor="start" x="605.5" y="-107.5" font-family="Helvetica,sans-Serif" font-size="10.00">/home/alexander/Documents</text>
<text text-anchor="start" x="605.5" y="-96.5" font-family="Helvetica,sans-Serif" font-size="10.00">/Seminars/TP/Project/src</text>
<text text-anchor="middle" x="690" y="-85.5" font-family="Helvetica,sans-Serif" font-size="10.00">/server_side/client_connection.hpp</text>
</a>
</g>
</g>
<!-- Node6&#45;&gt;Node7 -->
<g id="edge6" class="edge">
<title>Node6&#45;&gt;Node7</title>
<path fill="none" stroke="midnightblue" d="M726.97,-235.15C711.11,-226.02 696.14,-213.87 687,-198 673.07,-173.81 678.22,-140.39 683.72,-119.5"/>
<polygon fill="midnightblue" stroke="midnightblue" points="725.37,-238.27 735.83,-239.93 728.68,-232.1 725.37,-238.27"/>
</g>
<!-- Node10 -->
<g id="node10" class="node">
<title>Node10</title>
<g id="a_node10"><a xlink:href="room_8cpp.html" target="_top" xlink:title=" ">
<polygon fill="none" stroke="black" points="696,-156.5 696,-197.5 854,-197.5 854,-156.5 696,-156.5"/>
<text text-anchor="start" x="704" y="-185.5" font-family="Helvetica,sans-Serif" font-size="10.00">/home/alexander/Documents</text>
<text text-anchor="start" x="704" y="-174.5" font-family="Helvetica,sans-Serif" font-size="10.00">/Seminars/TP/Project/src</text>
<text text-anchor="middle" x="775" y="-163.5" font-family="Helvetica,sans-Serif" font-size="10.00">/server_side/room.cpp</text>
</a>
</g>
</g>
<!-- Node6&#45;&gt;Node10 -->
<g id="edge9" class="edge">
<title>Node6&#45;&gt;Node10</title>
<path fill="none" stroke="midnightblue" d="M786.46,-229.9C784.08,-219.13 781.46,-207.23 779.32,-197.55"/>
<polygon fill="midnightblue" stroke="midnightblue" points="783.07,-230.76 788.64,-239.77 789.9,-229.25 783.07,-230.76"/>
</g>
<!-- Node6&#45;&gt;Node11 -->
<g id="edge10" class="edge">
<title>Node6&#45;&gt;Node11</title>
<path fill="none" stroke="midnightblue" d="M839.9,-235.31C863.28,-223.25 891.19,-208.85 913.19,-197.5"/>
<polygon fill="midnightblue" stroke="midnightblue" points="838.13,-232.28 830.84,-239.98 841.34,-238.5 838.13,-232.28"/>
</g>
<!-- Node8 -->
<g id="node8" class="node">
<title>Node8</title>
<g id="a_node8"><a xlink:href="client__connection_8cpp.html" target="_top" xlink:title=" ">
<polygon fill="none" stroke="black" points="466.5,-0.5 466.5,-41.5 651.5,-41.5 651.5,-0.5 466.5,-0.5"/>
<text text-anchor="start" x="474.5" y="-29.5" font-family="Helvetica,sans-Serif" font-size="10.00">/home/alexander/Documents</text>
<text text-anchor="start" x="474.5" y="-18.5" font-family="Helvetica,sans-Serif" font-size="10.00">/Seminars/TP/Project/src</text>
<text text-anchor="middle" x="559" y="-7.5" font-family="Helvetica,sans-Serif" font-size="10.00">/server_side/client_connection.cpp</text>
</a>
</g>
</g>
<!-- Node7&#45;&gt;Node8 -->
<g id="edge7" class="edge">
<title>Node7&#45;&gt;Node8</title>
<path fill="none" stroke="midnightblue" d="M647.26,-73.2C629.53,-62.92 609.26,-51.16 592.62,-41.51"/>
<polygon fill="midnightblue" stroke="midnightblue" points="645.86,-76.44 656.26,-78.43 649.37,-70.38 645.86,-76.44"/>
</g>
<!-- Node9 -->
<g id="node9" class="node">
<title>Node9</title>
<g id="a_node9"><a xlink:href="server_8cpp.html" target="_top" xlink:title=" ">
<polygon fill="none" stroke="black" points="669,-0.5 669,-41.5 827,-41.5 827,-0.5 669,-0.5"/>
<text text-anchor="start" x="677" y="-29.5" font-family="Helvetica,sans-Serif" font-size="10.00">/home/alexander/Documents</text>
<text text-anchor="start" x="677" y="-18.5" font-family="Helvetica,sans-Serif" font-size="10.00">/Seminars/TP/Project/src</text>
<text text-anchor="middle" x="748" y="-7.5" font-family="Helvetica,sans-Serif" font-size="10.00">/server_side/server.cpp</text>
</a>
</g>
</g>
<!-- Node7&#45;&gt;Node9 -->
<g id="edge8" class="edge">
<title>Node7&#45;&gt;Node9</title>
<path fill="none" stroke="midnightblue" d="M711.11,-70.34C718.41,-60.78 726.42,-50.27 733.11,-41.51"/>
<polygon fill="midnightblue" stroke="midnightblue" points="708.22,-68.36 704.94,-78.43 713.79,-72.6 708.22,-68.36"/>
</g>
<!-- Node11&#45;&gt;Node7 -->
<g id="edge11" class="edge">
<title>Node11&#45;&gt;Node7</title>
<path fill="none" stroke="midnightblue" d="M874.01,-153.58C836.86,-142.76 792.72,-129.91 756.99,-119.51"/>
<polygon fill="midnightblue" stroke="midnightblue" points="873.21,-156.99 883.79,-156.43 875.16,-150.27 873.21,-156.99"/>
</g>
<!-- Node11&#45;&gt;Node9 -->
<g id="edge16" class="edge">
<title>Node11&#45;&gt;Node9</title>
<path fill="none" stroke="midnightblue" d="M902.15,-151.42C885.69,-142.35 867.56,-131.47 852,-120 819.25,-95.86 785.78,-62.43 765.95,-41.52"/>
<polygon fill="midnightblue" stroke="midnightblue" points="900.64,-154.59 911.1,-156.27 903.97,-148.43 900.64,-154.59"/>
</g>
<!-- Node12 -->
<g id="node12" class="node">
<title>Node12</title>
<g id="a_node12"><a xlink:href="server__side_2console__handler_8hpp.html" target="_top" xlink:title=" ">
<polygon fill="none" stroke="black" points="861.5,-78.5 861.5,-119.5 1040.5,-119.5 1040.5,-78.5 861.5,-78.5"/>
<text text-anchor="start" x="869.5" y="-107.5" font-family="Helvetica,sans-Serif" font-size="10.00">/home/alexander/Documents</text>
<text text-anchor="start" x="869.5" y="-96.5" font-family="Helvetica,sans-Serif" font-size="10.00">/Seminars/TP/Project/src</text>
<text text-anchor="middle" x="951" y="-85.5" font-family="Helvetica,sans-Serif" font-size="10.00">/server_side/console_handler.hpp</text>
</a>
</g>
</g>
<!-- Node11&#45;&gt;Node12 -->
<g id="edge12" class="edge">
<title>Node11&#45;&gt;Node12</title>
<path fill="none" stroke="midnightblue" d="M951,-146.3C951,-137.3 951,-127.65 951,-119.51"/>
<polygon fill="midnightblue" stroke="midnightblue" points="947.5,-146.43 951,-156.43 954.5,-146.43 947.5,-146.43"/>
</g>
<!-- Node14 -->
<g id="node14" class="node">
<title>Node14</title>
<g id="a_node14"><a xlink:href="server__side_2main_8cpp.html" target="_top" xlink:title=" ">
<polygon fill="none" stroke="black" points="1041,-0.5 1041,-41.5 1199,-41.5 1199,-0.5 1041,-0.5"/>
<text text-anchor="start" x="1049" y="-29.5" font-family="Helvetica,sans-Serif" font-size="10.00">/home/alexander/Documents</text>
<text text-anchor="start" x="1049" y="-18.5" font-family="Helvetica,sans-Serif" font-size="10.00">/Seminars/TP/Project/src</text>
<text text-anchor="middle" x="1120" y="-7.5" font-family="Helvetica,sans-Serif" font-size="10.00">/server_side/main.cpp</text>
</a>
</g>
</g>
<!-- Node11&#45;&gt;Node14 -->
<g id="edge15" class="edge">
<title>Node11&#45;&gt;Node14</title>
<path fill="none" stroke="midnightblue" d="M1004.23,-151.45C1019.93,-142.79 1036.5,-132.14 1050,-120 1075.65,-96.93 1097.31,-62.88 1109.47,-41.6"/>
<polygon fill="midnightblue" stroke="midnightblue" points="1002.29,-148.51 995.12,-156.31 1005.59,-154.69 1002.29,-148.51"/>
</g>
<!-- Node13 -->
<g id="node13" class="node">
<title>Node13</title>
<g id="a_node13"><a xlink:href="server__side_2console__handler_8cpp.html" target="_top" xlink:title=" ">
<polygon fill="none" stroke="black" points="845,-0.5 845,-41.5 1023,-41.5 1023,-0.5 845,-0.5"/>
<text text-anchor="start" x="853" y="-29.5" font-family="Helvetica,sans-Serif" font-size="10.00">/home/alexander/Documents</text>
<text text-anchor="start" x="853" y="-18.5" font-family="Helvetica,sans-Serif" font-size="10.00">/Seminars/TP/Project/src</text>
<text text-anchor="middle" x="934" y="-7.5" font-family="Helvetica,sans-Serif" font-size="10.00">/server_side/console_handler.cpp</text>
</a>
</g>
</g>
<!-- Node12&#45;&gt;Node13 -->
<g id="edge13" class="edge">
<title>Node12&#45;&gt;Node13</title>
<path fill="none" stroke="midnightblue" d="M944.42,-68.59C942.39,-59.51 940.21,-49.74 938.36,-41.51"/>
<polygon fill="midnightblue" stroke="midnightblue" points="941.02,-69.43 946.62,-78.43 947.85,-67.91 941.02,-69.43"/>
</g>
<!-- Node12&#45;&gt;Node14 -->
<g id="edge14" class="edge">
<title>Node12&#45;&gt;Node14</title>
<path fill="none" stroke="midnightblue" d="M1003.95,-74.19C1027.33,-63.67 1054.47,-51.47 1076.63,-41.51"/>
<polygon fill="midnightblue" stroke="midnightblue" points="1002.21,-71.13 994.52,-78.43 1005.08,-77.52 1002.21,-71.13"/>
</g>
</g>
</svg>
