<?xml version="1.0" encoding="UTF-8" standalone="no"?>
<!DOCTYPE svg PUBLIC "-//W3C//DTD SVG 1.1//EN"
 "http://www.w3.org/Graphics/SVG/1.1/DTD/svg11.dtd">
<!-- Generated by graphviz version 2.43.0 (0)
 -->
<!-- Title: /home/alexander/Documents/Seminars/TP/Project/src/general/requests/request_parser.cpp Pages: 1 -->
<!--zoomable 755 -->
<svg id="main" version="1.1" xmlns="http://www.w3.org/2000/svg" xmlns:xlink="http://www.w3.org/1999/xlink" xml:space="preserve" onload="init(evt)">
<style type="text/css"><![CDATA[
.edge:hover path { stroke: red; }
.edge:hover polygon { stroke: red; fill: red; }
]]></style>
<script type="text/javascript"><![CDATA[
var edges = document.getElementsByTagName('g');
if (edges && edges.length) {
  for (var i=0;i<edges.length;i++) {
    if (edges[i].id.substr(0,4)=='edge') {
      edges[i].setAttribute('class','edge');
    }
  }
}
]]></script>
        <defs>
                <circle id="rim" cx="0" cy="0" r="7"/>
                <circle id="rim2" cx="0" cy="0" r="3.5"/>
                <g id="zoomPlus">
                        <use xlink:href="#rim" fill="#404040">
                                <set attributeName="fill" to="#808080" begin="zoomplus.mouseover" end="zoomplus.mouseout"/>
                        </use>
                        <path d="M-4,0h8M0,-4v8" fill="none" stroke="white" stroke-width="1.5" pointer-events="none"/>
                </g>
                <g id="zoomMin">
                        <use xlink:href="#rim" fill="#404040">
                                <set attributeName="fill" to="#808080" begin="zoomminus.mouseover" end="zoomminus.mouseout"/>
                        </use>
                        <path d="M-4,0h8" fill="none" stroke="white" stroke-width="1.5" pointer-events="none"/>
                </g>
                <g id="dirArrow">
                        <path fill="none" stroke="white" stroke-width="1.5" d="M0,-3.0v7 M-2.5,-0.5L0,-3.0L2.5,-0.5"/>
                </g>
               <g id="resetDef">
                       <use xlink:href="#rim2" fill="#404040">
                               <set attributeName="fill" to="#808080" begin="reset.mouseover" end="reset.mouseout"/>
                       </use>
               </g>
        </defs>

<script type="text/javascript">
var viewWidth = 938;
var viewHeight = 755;
var sectionId = 'dynsection-0';
</script>
<script xlink:href="svgpan.js"/>
<svg id="graph" class="graph">
<g id="viewport">
<title>/home/alexander/Documents/Seminars/TP/Project/src/general/requests/request_parser.cpp</title>
<!-- Node1 -->
<g id="node1" class="node">
<title>Node1</title>
<g id="a_node1"><a xlink:title=" ">
<polygon fill="#bfbfbf" stroke="black" points="139,-694.5 139,-746.5 297,-746.5 297,-694.5 139,-694.5"/>
<text text-anchor="start" x="147" y="-734.5" font-family="Helvetica,sans-Serif" font-size="10.00">/home/alexander/Documents</text>
<text text-anchor="start" x="147" y="-723.5" font-family="Helvetica,sans-Serif" font-size="10.00">/Seminars/TP/Project/src</text>
<text text-anchor="start" x="147" y="-712.5" font-family="Helvetica,sans-Serif" font-size="10.00">/general/requests/request</text>
<text text-anchor="middle" x="218" y="-701.5" font-family="Helvetica,sans-Serif" font-size="10.00">_parser.cpp</text>
</a>
</g>
</g>
<!-- Node2 -->
<g id="node2" class="node">
<title>Node2</title>
<g id="a_node2"><a xlink:href="request__parser_8hpp.html" target="_top" xlink:title=" ">
<polygon fill="none" stroke="black" points="163,-638.5 163,-657.5 273,-657.5 273,-638.5 163,-638.5"/>
<text text-anchor="middle" x="218" y="-645.5" font-family="Helvetica,sans-Serif" font-size="10.00">request_parser.hpp</text>
</a>
</g>
</g>
<!-- Node1&#45;&gt;Node2 -->
<g id="edge1" class="edge">
<title>Node1&#45;&gt;Node2</title>
<path fill="none" stroke="midnightblue" d="M218,-694.45C218,-685.73 218,-676.1 218,-667.96"/>
<polygon fill="midnightblue" stroke="midnightblue" points="221.5,-667.7 218,-657.7 214.5,-667.7 221.5,-667.7"/>
</g>
<!-- Node3 -->
<g id="node3" class="node">
<title>Node3</title>
<g id="a_node3"><a xlink:title=" ">
<polygon fill="none" stroke="#bfbfbf" points="0,-56.5 0,-75.5 56,-75.5 56,-56.5 0,-56.5"/>
<text text-anchor="middle" x="28" y="-63.5" font-family="Helvetica,sans-Serif" font-size="10.00">sstream</text>
</a>
</g>
</g>
<!-- Node2&#45;&gt;Node3 -->
<g id="edge2" class="edge">
<title>Node2&#45;&gt;Node3</title>
<path fill="none" stroke="midnightblue" d="M162.69,-640.79C133.38,-634.99 98.47,-623.75 74,-602 46.34,-577.42 40,-563 40,-526 40,-526 40,-526 40,-177 40,-144.76 34.84,-107.51 31.29,-85.68"/>
<polygon fill="midnightblue" stroke="midnightblue" points="34.69,-84.8 29.57,-75.52 27.79,-85.97 34.69,-84.8"/>
</g>
<!-- Node4 -->
<g id="node4" class="node">
<title>Node4</title>
<g id="a_node4"><a xlink:href="sign__in__request_8hpp.html" target="_top" xlink:title=" ">
<polygon fill="none" stroke="black" points="227,-571.5 227,-601.5 353,-601.5 353,-571.5 227,-571.5"/>
<text text-anchor="start" x="235" y="-589.5" font-family="Helvetica,sans-Serif" font-size="10.00">requests/authorization</text>
<text text-anchor="middle" x="290" y="-578.5" font-family="Helvetica,sans-Serif" font-size="10.00">/sign_in_request.hpp</text>
</a>
</g>
</g>
<!-- Node2&#45;&gt;Node4 -->
<g id="edge3" class="edge">
<title>Node2&#45;&gt;Node4</title>
<path fill="none" stroke="midnightblue" d="M228.32,-638.48C237.88,-630.57 252.51,-618.48 265.11,-608.07"/>
<polygon fill="midnightblue" stroke="midnightblue" points="267.55,-610.59 273.03,-601.52 263.09,-605.2 267.55,-610.59"/>
</g>
<!-- Node21 -->
<g id="node21" class="node">
<title>Node21</title>
<g id="a_node21"><a xlink:href="sign__up__request_8hpp.html" target="_top" xlink:title=" ">
<polygon fill="none" stroke="black" points="83,-571.5 83,-601.5 209,-601.5 209,-571.5 83,-571.5"/>
<text text-anchor="start" x="91" y="-589.5" font-family="Helvetica,sans-Serif" font-size="10.00">requests/authorization</text>
<text text-anchor="middle" x="146" y="-578.5" font-family="Helvetica,sans-Serif" font-size="10.00">/sign_up_request.hpp</text>
</a>
</g>
</g>
<!-- Node2&#45;&gt;Node21 -->
<g id="edge29" class="edge">
<title>Node2&#45;&gt;Node21</title>
<path fill="none" stroke="midnightblue" d="M207.68,-638.48C198.12,-630.57 183.49,-618.48 170.89,-608.07"/>
<polygon fill="midnightblue" stroke="midnightblue" points="172.91,-605.2 162.97,-601.52 168.45,-610.59 172.91,-605.2"/>
</g>
<!-- Node22 -->
<g id="node22" class="node">
<title>Node22</title>
<g id="a_node22"><a xlink:href="messages__builder_8hpp.html" target="_top" xlink:title=" ">
<polygon fill="none" stroke="black" points="372,-571.5 372,-601.5 536,-601.5 536,-571.5 372,-571.5"/>
<text text-anchor="start" x="380" y="-589.5" font-family="Helvetica,sans-Serif" font-size="10.00">requests/messages/messages</text>
<text text-anchor="middle" x="454" y="-578.5" font-family="Helvetica,sans-Serif" font-size="10.00">_builder.hpp</text>
</a>
</g>
</g>
<!-- Node2&#45;&gt;Node22 -->
<g id="edge31" class="edge">
<title>Node2&#45;&gt;Node22</title>
<path fill="none" stroke="midnightblue" d="M251.81,-638.48C287.36,-629.51 344.18,-615.19 388.54,-604"/>
<polygon fill="midnightblue" stroke="midnightblue" points="389.54,-607.36 398.38,-601.52 387.83,-600.57 389.54,-607.36"/>
</g>
<!-- Node5 -->
<g id="node5" class="node">
<title>Node5</title>
<g id="a_node5"><a xlink:href="authorization__request_8hpp.html" target="_top" xlink:title=" ">
<polygon fill="none" stroke="black" points="123,-515.5 123,-534.5 267,-534.5 267,-515.5 123,-515.5"/>
<text text-anchor="middle" x="195" y="-522.5" font-family="Helvetica,sans-Serif" font-size="10.00">authorization_request.hpp</text>
</a>
</g>
</g>
<!-- Node4&#45;&gt;Node5 -->
<g id="edge4" class="edge">
<title>Node4&#45;&gt;Node5</title>
<path fill="none" stroke="midnightblue" d="M267.49,-571.4C252.4,-561.95 232.61,-549.56 217.53,-540.11"/>
<polygon fill="midnightblue" stroke="midnightblue" points="219.16,-537 208.82,-534.66 215.44,-542.93 219.16,-537"/>
</g>
<!-- Node6 -->
<g id="node6" class="node">
<title>Node6</title>
<g id="a_node6"><a xlink:href="request_8hpp.html" target="_top" xlink:title=" ">
<polygon fill="none" stroke="black" points="227.5,-291.5 227.5,-310.5 346.5,-310.5 346.5,-291.5 227.5,-291.5"/>
<text text-anchor="middle" x="287" y="-298.5" font-family="Helvetica,sans-Serif" font-size="10.00">requests/request.hpp</text>
</a>
</g>
</g>
<!-- Node5&#45;&gt;Node6 -->
<g id="edge5" class="edge">
<title>Node5&#45;&gt;Node6</title>
<path fill="none" stroke="midnightblue" d="M194.88,-515.35C194.91,-488.01 198.25,-401.99 237,-347 245.01,-335.63 256.39,-325.1 266.27,-317.09"/>
<polygon fill="midnightblue" stroke="midnightblue" points="268.7,-319.64 274.45,-310.74 264.4,-314.11 268.7,-319.64"/>
</g>
<!-- Node7 -->
<g id="node7" class="node">
<title>Node7</title>
<g id="a_node7"><a xlink:title=" ">
<polygon fill="none" stroke="#bfbfbf" points="444,-0.5 444,-19.5 502,-19.5 502,-0.5 444,-0.5"/>
<text text-anchor="middle" x="473" y="-7.5" font-family="Helvetica,sans-Serif" font-size="10.00">memory</text>
</a>
</g>
</g>
<!-- Node6&#45;&gt;Node7 -->
<g id="edge6" class="edge">
<title>Node6&#45;&gt;Node7</title>
<path fill="none" stroke="midnightblue" d="M346.71,-292.02C447.14,-276.92 639,-240.07 639,-179 639,-179 639,-179 639,-121 639,-60.48 561.38,-31.29 512.3,-18.89"/>
<polygon fill="midnightblue" stroke="midnightblue" points="512.84,-15.42 502.3,-16.49 511.2,-22.22 512.84,-15.42"/>
</g>
<!-- Node8 -->
<g id="node8" class="node">
<title>Node8</title>
<g id="a_node8"><a xlink:title=" ">
<polygon fill="none" stroke="#bfbfbf" points="162,-56.5 162,-75.5 206,-75.5 206,-56.5 162,-56.5"/>
<text text-anchor="middle" x="184" y="-63.5" font-family="Helvetica,sans-Serif" font-size="10.00">string</text>
</a>
</g>
</g>
<!-- Node6&#45;&gt;Node8 -->
<g id="edge7" class="edge">
<title>Node6&#45;&gt;Node8</title>
<path fill="none" stroke="midnightblue" d="M261.31,-291.5C244.24,-284.46 222.85,-272.72 211,-255 175.61,-202.07 178.25,-122.02 181.68,-85.88"/>
<polygon fill="midnightblue" stroke="midnightblue" points="185.18,-86.1 182.77,-75.78 178.22,-85.35 185.18,-86.1"/>
</g>
<!-- Node9 -->
<g id="node9" class="node">
<title>Node9</title>
<g id="a_node9"><a xlink:href="client__handler_8hpp.html" target="_top" xlink:title=" ">
<polygon fill="none" stroke="black" points="372.5,-224.5 372.5,-254.5 503.5,-254.5 503.5,-224.5 372.5,-224.5"/>
<text text-anchor="start" x="380.5" y="-242.5" font-family="Helvetica,sans-Serif" font-size="10.00">request_handlers/client</text>
<text text-anchor="middle" x="438" y="-231.5" font-family="Helvetica,sans-Serif" font-size="10.00">_handler.hpp</text>
</a>
</g>
</g>
<!-- Node6&#45;&gt;Node9 -->
<g id="edge8" class="edge">
<title>Node6&#45;&gt;Node9</title>
<path fill="none" stroke="midnightblue" d="M308.63,-291.48C330.52,-282.85 365,-269.26 392.86,-258.29"/>
<polygon fill="midnightblue" stroke="midnightblue" points="394.39,-261.45 402.41,-254.52 391.83,-254.93 394.39,-261.45"/>
</g>
<!-- Node19 -->
<g id="node19" class="node">
<title>Node19</title>
<g id="a_node19"><a xlink:href="server__handler_8hpp.html" target="_top" xlink:title=" ">
<polygon fill="none" stroke="black" points="220,-224.5 220,-254.5 354,-254.5 354,-224.5 220,-224.5"/>
<text text-anchor="start" x="228" y="-242.5" font-family="Helvetica,sans-Serif" font-size="10.00">request_handlers/server</text>
<text text-anchor="middle" x="287" y="-231.5" font-family="Helvetica,sans-Serif" font-size="10.00">_handler.hpp</text>
</a>
</g>
</g>
<!-- Node6&#45;&gt;Node19 -->
<g id="edge26" class="edge">
<title>Node6&#45;&gt;Node19</title>
<path fill="none" stroke="midnightblue" d="M287,-291.48C287,-284.47 287,-274.19 287,-264.7"/>
<polygon fill="midnightblue" stroke="midnightblue" points="290.5,-264.52 287,-254.52 283.5,-264.52 290.5,-264.52"/>
</g>
<!-- Node10 -->
<g id="node10" class="node">
<title>Node10</title>
<g id="a_node10"><a xlink:href="abstract__handler_8hpp.html" target="_top" xlink:title=" ">
<polygon fill="none" stroke="black" points="341.5,-168.5 341.5,-187.5 460.5,-187.5 460.5,-168.5 341.5,-168.5"/>
<text text-anchor="middle" x="401" y="-175.5" font-family="Helvetica,sans-Serif" font-size="10.00">abstract_handler.hpp</text>
</a>
</g>
</g>
<!-- Node9&#45;&gt;Node10 -->
<g id="edge9" class="edge">
<title>Node9&#45;&gt;Node10</title>
<path fill="none" stroke="midnightblue" d="M429.23,-224.4C424.02,-216.02 417.37,-205.33 411.83,-196.42"/>
<polygon fill="midnightblue" stroke="midnightblue" points="414.64,-194.3 406.38,-187.66 408.69,-198 414.64,-194.3"/>
</g>
<!-- Node18 -->
<g id="node18" class="node">
<title>Node18</title>
<g id="a_node18"><a xlink:href="renderer_8hpp.html" target="_top" xlink:title=" ">
<polygon fill="none" stroke="black" points="533,-112.5 533,-131.5 611,-131.5 611,-112.5 533,-112.5"/>
<text text-anchor="middle" x="572" y="-119.5" font-family="Helvetica,sans-Serif" font-size="10.00">renderer.hpp</text>
</a>
</g>
</g>
<!-- Node9&#45;&gt;Node18 -->
<g id="edge24" class="edge">
<title>Node9&#45;&gt;Node18</title>
<path fill="none" stroke="midnightblue" d="M454.43,-224.34C479.78,-202.49 528.22,-160.73 554.31,-138.24"/>
<polygon fill="midnightblue" stroke="midnightblue" points="556.65,-140.85 561.94,-131.67 552.08,-135.55 556.65,-140.85"/>
</g>
<!-- Node10&#45;&gt;Node7 -->
<g id="edge10" class="edge">
<title>Node10&#45;&gt;Node7</title>
<path fill="none" stroke="midnightblue" d="M417.81,-168.3C444.33,-153.49 494.92,-120.61 515,-76 523.23,-57.7 507.57,-38.63 493.08,-25.92"/>
<polygon fill="midnightblue" stroke="midnightblue" points="495.27,-23.19 485.32,-19.55 490.83,-28.6 495.27,-23.19"/>
</g>
<!-- Node11 -->
<g id="node11" class="node">
<title>Node11</title>
<g id="a_node11"><a xlink:href="account_8hpp.html" target="_top" xlink:title=" ">
<polygon fill="none" stroke="black" points="88,-112.5 88,-131.5 164,-131.5 164,-112.5 88,-112.5"/>
<text text-anchor="middle" x="126" y="-119.5" font-family="Helvetica,sans-Serif" font-size="10.00">account.hpp</text>
</a>
</g>
</g>
<!-- Node10&#45;&gt;Node11 -->
<g id="edge11" class="edge">
<title>Node10&#45;&gt;Node11</title>
<path fill="none" stroke="midnightblue" d="M357.43,-168.44C307.45,-158.63 225.75,-142.59 173.99,-132.42"/>
<polygon fill="midnightblue" stroke="midnightblue" points="174.54,-128.97 164.06,-130.47 173.2,-135.83 174.54,-128.97"/>
</g>
<!-- Node13 -->
<g id="node13" class="node">
<title>Node13</title>
<g id="a_node13"><a xlink:href="socket_8hpp.html" target="_top" xlink:title=" ">
<polygon fill="none" stroke="black" points="318,-112.5 318,-131.5 422,-131.5 422,-112.5 318,-112.5"/>
<text text-anchor="middle" x="370" y="-119.5" font-family="Helvetica,sans-Serif" font-size="10.00">socket/socket.hpp</text>
</a>
</g>
</g>
<!-- Node10&#45;&gt;Node13 -->
<g id="edge16" class="edge">
<title>Node10&#45;&gt;Node13</title>
<path fill="none" stroke="midnightblue" d="M395.88,-168.08C391.59,-160.61 385.34,-149.72 380.06,-140.52"/>
<polygon fill="midnightblue" stroke="midnightblue" points="383.04,-138.68 375.02,-131.75 376.97,-142.17 383.04,-138.68"/>
</g>
<!-- Node11&#45;&gt;Node3 -->
<g id="edge14" class="edge">
<title>Node11&#45;&gt;Node3</title>
<path fill="none" stroke="midnightblue" d="M110.25,-112.32C94.68,-103.74 70.62,-90.49 52.54,-80.52"/>
<polygon fill="midnightblue" stroke="midnightblue" points="54.15,-77.42 43.71,-75.65 50.78,-83.55 54.15,-77.42"/>
</g>
<!-- Node11&#45;&gt;Node7 -->
<g id="edge12" class="edge">
<title>Node11&#45;&gt;Node7</title>
<path fill="none" stroke="midnightblue" d="M126.92,-112.2C128.92,-97.92 135.02,-69.91 153,-56 196.12,-22.64 358.22,-14 433.78,-11.77"/>
<polygon fill="midnightblue" stroke="midnightblue" points="433.94,-15.27 443.84,-11.49 433.75,-8.27 433.94,-15.27"/>
</g>
<!-- Node11&#45;&gt;Node8 -->
<g id="edge15" class="edge">
<title>Node11&#45;&gt;Node8</title>
<path fill="none" stroke="midnightblue" d="M135.32,-112.32C143.89,-104.34 156.81,-92.31 167.19,-82.65"/>
<polygon fill="midnightblue" stroke="midnightblue" points="169.58,-85.21 174.51,-75.83 164.81,-80.09 169.58,-85.21"/>
</g>
<!-- Node12 -->
<g id="node12" class="node">
<title>Node12</title>
<g id="a_node12"><a xlink:title=" ">
<polygon fill="none" stroke="#bfbfbf" points="74,-56.5 74,-75.5 106,-75.5 106,-56.5 74,-56.5"/>
<text text-anchor="middle" x="90" y="-63.5" font-family="Helvetica,sans-Serif" font-size="10.00">set</text>
</a>
</g>
</g>
<!-- Node11&#45;&gt;Node12 -->
<g id="edge13" class="edge">
<title>Node11&#45;&gt;Node12</title>
<path fill="none" stroke="midnightblue" d="M120.06,-112.08C115.02,-104.53 107.66,-93.49 101.49,-84.23"/>
<polygon fill="midnightblue" stroke="midnightblue" points="104.29,-82.13 95.83,-75.75 98.47,-86.01 104.29,-82.13"/>
</g>
<!-- Node13&#45;&gt;Node7 -->
<g id="edge19" class="edge">
<title>Node13&#45;&gt;Node7</title>
<path fill="none" stroke="midnightblue" d="M378.08,-112.37C395.31,-93.97 435.85,-50.67 457.97,-27.05"/>
<polygon fill="midnightblue" stroke="midnightblue" points="460.68,-29.28 464.96,-19.59 455.57,-24.5 460.68,-29.28"/>
</g>
<!-- Node13&#45;&gt;Node8 -->
<g id="edge20" class="edge">
<title>Node13&#45;&gt;Node8</title>
<path fill="none" stroke="midnightblue" d="M340.53,-112.44C306.5,-102.56 250.73,-86.37 215.76,-76.22"/>
<polygon fill="midnightblue" stroke="midnightblue" points="216.63,-72.83 206.05,-73.4 214.68,-79.55 216.63,-72.83"/>
</g>
<!-- Node14 -->
<g id="node14" class="node">
<title>Node14</title>
<g id="a_node14"><a xlink:title=" ">
<polygon fill="none" stroke="#bfbfbf" points="296,-56.5 296,-75.5 384,-75.5 384,-56.5 296,-56.5"/>
<text text-anchor="middle" x="340" y="-63.5" font-family="Helvetica,sans-Serif" font-size="10.00">boost/asio.hpp</text>
</a>
</g>
</g>
<!-- Node13&#45;&gt;Node14 -->
<g id="edge17" class="edge">
<title>Node13&#45;&gt;Node14</title>
<path fill="none" stroke="midnightblue" d="M365.05,-112.08C360.9,-104.61 354.85,-93.72 349.73,-84.52"/>
<polygon fill="midnightblue" stroke="midnightblue" points="352.78,-82.79 344.86,-75.75 346.66,-86.19 352.78,-82.79"/>
</g>
<!-- Node15 -->
<g id="node15" class="node">
<title>Node15</title>
<g id="a_node15"><a xlink:title=" ">
<polygon fill="none" stroke="#bfbfbf" points="440.5,-56.5 440.5,-75.5 505.5,-75.5 505.5,-56.5 440.5,-56.5"/>
<text text-anchor="middle" x="473" y="-63.5" font-family="Helvetica,sans-Serif" font-size="10.00">functional</text>
</a>
</g>
</g>
<!-- Node13&#45;&gt;Node15 -->
<g id="edge18" class="edge">
<title>Node13&#45;&gt;Node15</title>
<path fill="none" stroke="midnightblue" d="M386.55,-112.32C402.99,-103.7 428.43,-90.36 447.47,-80.39"/>
<polygon fill="midnightblue" stroke="midnightblue" points="449.26,-83.4 456.49,-75.65 446.01,-77.2 449.26,-83.4"/>
</g>
<!-- Node16 -->
<g id="node16" class="node">
<title>Node16</title>
<g id="a_node16"><a xlink:href="general_2socket_2log_8hpp.html" target="_top" xlink:title=" ">
<polygon fill="none" stroke="black" points="224.5,-56.5 224.5,-75.5 277.5,-75.5 277.5,-56.5 224.5,-56.5"/>
<text text-anchor="middle" x="251" y="-63.5" font-family="Helvetica,sans-Serif" font-size="10.00">log.hpp</text>
</a>
</g>
</g>
<!-- Node13&#45;&gt;Node16 -->
<g id="edge21" class="edge">
<title>Node13&#45;&gt;Node16</title>
<path fill="none" stroke="midnightblue" d="M351.14,-112.44C331.73,-103.64 301.27,-89.81 279.04,-79.72"/>
<polygon fill="midnightblue" stroke="midnightblue" points="280.32,-76.46 269.77,-75.52 277.43,-82.84 280.32,-76.46"/>
</g>
<!-- Node16&#45;&gt;Node7 -->
<g id="edge22" class="edge">
<title>Node16&#45;&gt;Node7</title>
<path fill="none" stroke="midnightblue" d="M277.73,-58.29C280.85,-57.52 284,-56.74 287,-56 337.72,-43.52 396.3,-29.4 433.95,-20.36"/>
<polygon fill="midnightblue" stroke="midnightblue" points="435.08,-23.68 443.99,-17.95 433.45,-16.88 435.08,-23.68"/>
</g>
<!-- Node17 -->
<g id="node17" class="node">
<title>Node17</title>
<g id="a_node17"><a xlink:title=" ">
<polygon fill="none" stroke="#bfbfbf" points="222.5,-0.5 222.5,-19.5 279.5,-19.5 279.5,-0.5 222.5,-0.5"/>
<text text-anchor="middle" x="251" y="-7.5" font-family="Helvetica,sans-Serif" font-size="10.00">ostream</text>
</a>
</g>
</g>
<!-- Node16&#45;&gt;Node17 -->
<g id="edge23" class="edge">
<title>Node16&#45;&gt;Node17</title>
<path fill="none" stroke="midnightblue" d="M251,-56.08C251,-49.01 251,-38.86 251,-29.99"/>
<polygon fill="midnightblue" stroke="midnightblue" points="254.5,-29.75 251,-19.75 247.5,-29.75 254.5,-29.75"/>
</g>
<!-- Node18&#45;&gt;Node7 -->
<g id="edge25" class="edge">
<title>Node18&#45;&gt;Node7</title>
<path fill="none" stroke="midnightblue" d="M570.65,-112.07C568.21,-98.6 561.97,-72.86 548,-56 536.55,-42.19 519.7,-31.54 504.87,-24.08"/>
<polygon fill="midnightblue" stroke="midnightblue" points="506.03,-20.76 495.49,-19.64 503.03,-27.08 506.03,-20.76"/>
</g>
<!-- Node19&#45;&gt;Node10 -->
<g id="edge28" class="edge">
<title>Node19&#45;&gt;Node10</title>
<path fill="none" stroke="midnightblue" d="M314.02,-224.4C332.63,-214.68 357.21,-201.86 375.49,-192.31"/>
<polygon fill="midnightblue" stroke="midnightblue" points="377.17,-195.39 384.41,-187.66 373.93,-189.18 377.17,-195.39"/>
</g>
<!-- Node20 -->
<g id="node20" class="node">
<title>Node20</title>
<g id="a_node20"><a xlink:title=" ">
<polygon fill="none" stroke="#bfbfbf" points="230.5,-168.5 230.5,-187.5 323.5,-187.5 323.5,-168.5 230.5,-168.5"/>
<text text-anchor="middle" x="277" y="-175.5" font-family="Helvetica,sans-Serif" font-size="10.00">unordered_map</text>
</a>
</g>
</g>
<!-- Node19&#45;&gt;Node20 -->
<g id="edge27" class="edge">
<title>Node19&#45;&gt;Node20</title>
<path fill="none" stroke="midnightblue" d="M284.63,-224.4C283.28,-216.38 281.58,-206.23 280.12,-197.57"/>
<polygon fill="midnightblue" stroke="midnightblue" points="283.56,-196.94 278.46,-187.66 276.66,-198.1 283.56,-196.94"/>
</g>
<!-- Node21&#45;&gt;Node5 -->
<g id="edge30" class="edge">
<title>Node21&#45;&gt;Node5</title>
<path fill="none" stroke="midnightblue" d="M157.61,-571.4C164.73,-562.75 173.88,-551.64 181.35,-542.58"/>
<polygon fill="midnightblue" stroke="midnightblue" points="184.21,-544.6 187.87,-534.66 178.81,-540.15 184.21,-544.6"/>
</g>
<!-- Node23 -->
<g id="node23" class="node">
<title>Node23</title>
<g id="a_node23"><a xlink:href="all__messages_8hpp.html" target="_top" xlink:title=" ">
<polygon fill="none" stroke="black" points="417,-515.5 417,-534.5 521,-534.5 521,-515.5 417,-515.5"/>
<text text-anchor="middle" x="469" y="-522.5" font-family="Helvetica,sans-Serif" font-size="10.00">all_messages.hpp</text>
</a>
</g>
</g>
<!-- Node22&#45;&gt;Node23 -->
<g id="edge32" class="edge">
<title>Node22&#45;&gt;Node23</title>
<path fill="none" stroke="midnightblue" d="M457.55,-571.4C459.58,-563.38 462.13,-553.23 464.32,-544.57"/>
<polygon fill="midnightblue" stroke="midnightblue" points="467.77,-545.21 466.82,-534.66 460.98,-543.5 467.77,-545.21"/>
</g>
<!-- Node24 -->
<g id="node24" class="node">
<title>Node24</title>
<g id="a_node24"><a xlink:href="base__message_8hpp.html" target="_top" xlink:title=" ">
<polygon fill="none" stroke="black" points="223,-403.5 223,-422.5 333,-422.5 333,-403.5 223,-403.5"/>
<text text-anchor="middle" x="278" y="-410.5" font-family="Helvetica,sans-Serif" font-size="10.00">base_message.hpp</text>
</a>
</g>
</g>
<!-- Node23&#45;&gt;Node24 -->
<g id="edge33" class="edge">
<title>Node23&#45;&gt;Node24</title>
<path fill="none" stroke="midnightblue" d="M416.65,-519.52C363.72,-513.77 287.18,-501.72 269,-479 258.46,-465.83 263.12,-446.15 268.93,-431.9"/>
<polygon fill="midnightblue" stroke="midnightblue" points="272.18,-433.2 273.16,-422.65 265.82,-430.29 272.18,-433.2"/>
</g>
<!-- Node26 -->
<g id="node26" class="node">
<title>Node26</title>
<g id="a_node26"><a xlink:href="private__decorator_8hpp.html" target="_top" xlink:title=" ">
<polygon fill="none" stroke="black" points="674.5,-459.5 674.5,-478.5 797.5,-478.5 797.5,-459.5 674.5,-459.5"/>
<text text-anchor="middle" x="736" y="-466.5" font-family="Helvetica,sans-Serif" font-size="10.00">private_decorator.hpp</text>
</a>
</g>
</g>
<!-- Node23&#45;&gt;Node26 -->
<g id="edge36" class="edge">
<title>Node23&#45;&gt;Node26</title>
<path fill="none" stroke="midnightblue" d="M511.31,-515.44C558.08,-505.98 633.46,-490.74 683.85,-480.55"/>
<polygon fill="midnightblue" stroke="midnightblue" points="684.78,-483.93 693.89,-478.52 683.4,-477.07 684.78,-483.93"/>
</g>
<!-- Node28 -->
<g id="node28" class="node">
<title>Node28</title>
<g id="a_node28"><a xlink:href="room__decorator_8hpp.html" target="_top" xlink:title=" ">
<polygon fill="none" stroke="black" points="816,-459.5 816,-478.5 930,-478.5 930,-459.5 816,-459.5"/>
<text text-anchor="middle" x="873" y="-466.5" font-family="Helvetica,sans-Serif" font-size="10.00">room_decorator.hpp</text>
</a>
</g>
</g>
<!-- Node23&#45;&gt;Node28 -->
<g id="edge39" class="edge">
<title>Node23&#45;&gt;Node28</title>
<path fill="none" stroke="midnightblue" d="M521.12,-517.11C585.5,-508.59 698.68,-493.58 805.76,-479.16"/>
<polygon fill="midnightblue" stroke="midnightblue" points="806.32,-482.62 815.76,-477.82 805.39,-475.68 806.32,-482.62"/>
</g>
<!-- Node29 -->
<g id="node29" class="node">
<title>Node29</title>
<g id="a_node29"><a xlink:href="sender__decorator_8hpp.html" target="_top" xlink:title=" ">
<polygon fill="none" stroke="black" points="408,-459.5 408,-478.5 530,-478.5 530,-459.5 408,-459.5"/>
<text text-anchor="middle" x="469" y="-466.5" font-family="Helvetica,sans-Serif" font-size="10.00">sender_decorator.hpp</text>
</a>
</g>
</g>
<!-- Node23&#45;&gt;Node29 -->
<g id="edge41" class="edge">
<title>Node23&#45;&gt;Node29</title>
<path fill="none" stroke="midnightblue" d="M469,-515.08C469,-508.01 469,-497.86 469,-488.99"/>
<polygon fill="midnightblue" stroke="midnightblue" points="472.5,-488.75 469,-478.75 465.5,-488.75 472.5,-488.75"/>
</g>
<!-- Node30 -->
<g id="node30" class="node">
<title>Node30</title>
<g id="a_node30"><a xlink:href="text__decorator_8hpp.html" target="_top" xlink:title=" ">
<polygon fill="none" stroke="black" points="548,-459.5 548,-478.5 656,-478.5 656,-459.5 548,-459.5"/>
<text text-anchor="middle" x="602" y="-466.5" font-family="Helvetica,sans-Serif" font-size="10.00">text_decorator.hpp</text>
</a>
</g>
</g>
<!-- Node23&#45;&gt;Node30 -->
<g id="edge43" class="edge">
<title>Node23&#45;&gt;Node30</title>
<path fill="none" stroke="midnightblue" d="M490.07,-515.44C512.06,-506.52 546.73,-492.44 571.66,-482.32"/>
<polygon fill="midnightblue" stroke="midnightblue" points="573.08,-485.52 581.02,-478.52 570.44,-479.04 573.08,-485.52"/>
</g>
<!-- Node31 -->
<g id="node31" class="node">
<title>Node31</title>
<g id="a_node31"><a xlink:href="time__decorator_8hpp.html" target="_top" xlink:title=" ">
<polygon fill="none" stroke="black" points="278.5,-459.5 278.5,-478.5 389.5,-478.5 389.5,-459.5 278.5,-459.5"/>
<text text-anchor="middle" x="334" y="-466.5" font-family="Helvetica,sans-Serif" font-size="10.00">time_decorator.hpp</text>
</a>
</g>
</g>
<!-- Node23&#45;&gt;Node31 -->
<g id="edge45" class="edge">
<title>Node23&#45;&gt;Node31</title>
<path fill="none" stroke="midnightblue" d="M447.61,-515.44C425.29,-506.52 390.1,-492.44 364.79,-482.32"/>
<polygon fill="midnightblue" stroke="midnightblue" points="365.88,-478.98 355.29,-478.52 363.28,-485.48 365.88,-478.98"/>
</g>
<!-- Node25 -->
<g id="node25" class="node">
<title>Node25</title>
<g id="a_node25"><a xlink:href="message_8hpp.html" target="_top" xlink:title=" ">
<polygon fill="none" stroke="black" points="246,-347.5 246,-366.5 328,-366.5 328,-347.5 246,-347.5"/>
<text text-anchor="middle" x="287" y="-354.5" font-family="Helvetica,sans-Serif" font-size="10.00">message.hpp</text>
</a>
</g>
</g>
<!-- Node24&#45;&gt;Node25 -->
<g id="edge34" class="edge">
<title>Node24&#45;&gt;Node25</title>
<path fill="none" stroke="midnightblue" d="M279.49,-403.08C280.68,-395.93 282.39,-385.64 283.88,-376.69"/>
<polygon fill="midnightblue" stroke="midnightblue" points="287.35,-377.19 285.54,-366.75 280.45,-376.04 287.35,-377.19"/>
</g>
<!-- Node25&#45;&gt;Node6 -->
<g id="edge35" class="edge">
<title>Node25&#45;&gt;Node6</title>
<path fill="none" stroke="midnightblue" d="M287,-347.08C287,-340.01 287,-329.86 287,-320.99"/>
<polygon fill="midnightblue" stroke="midnightblue" points="290.5,-320.75 287,-310.75 283.5,-320.75 290.5,-320.75"/>
</g>
<!-- Node27 -->
<g id="node27" class="node">
<title>Node27</title>
<g id="a_node27"><a xlink:href="properties__decorator_8hpp.html" target="_top" xlink:title=" ">
<polygon fill="none" stroke="black" points="475,-403.5 475,-422.5 613,-422.5 613,-403.5 475,-403.5"/>
<text text-anchor="middle" x="544" y="-410.5" font-family="Helvetica,sans-Serif" font-size="10.00">properties_decorator.hpp</text>
</a>
</g>
</g>
<!-- Node26&#45;&gt;Node27 -->
<g id="edge37" class="edge">
<title>Node26&#45;&gt;Node27</title>
<path fill="none" stroke="midnightblue" d="M705.58,-459.44C672.72,-450.2 620.22,-435.44 584.03,-425.26"/>
<polygon fill="midnightblue" stroke="midnightblue" points="584.85,-421.85 574.28,-422.52 582.96,-428.59 584.85,-421.85"/>
</g>
<!-- Node27&#45;&gt;Node25 -->
<g id="edge38" class="edge">
<title>Node27&#45;&gt;Node25</title>
<path fill="none" stroke="midnightblue" d="M503.28,-403.44C458.35,-394 386,-378.8 337.5,-368.61"/>
<polygon fill="midnightblue" stroke="midnightblue" points="338.04,-365.15 327.53,-366.52 336.6,-372 338.04,-365.15"/>
</g>
<!-- Node28&#45;&gt;Node27 -->
<g id="edge40" class="edge">
<title>Node28&#45;&gt;Node27</title>
<path fill="none" stroke="midnightblue" d="M820.87,-459.44C762.51,-449.87 668.02,-434.36 605.94,-424.17"/>
<polygon fill="midnightblue" stroke="midnightblue" points="606.32,-420.68 595.89,-422.52 605.19,-427.59 606.32,-420.68"/>
</g>
<!-- Node29&#45;&gt;Node27 -->
<g id="edge42" class="edge">
<title>Node29&#45;&gt;Node27</title>
<path fill="none" stroke="midnightblue" d="M481.05,-459.32C492.46,-451.11 509.83,-438.6 523.43,-428.81"/>
<polygon fill="midnightblue" stroke="midnightblue" points="525.66,-431.52 531.73,-422.83 521.57,-425.84 525.66,-431.52"/>
</g>
<!-- Node30&#45;&gt;Node27 -->
<g id="edge44" class="edge">
<title>Node30&#45;&gt;Node27</title>
<path fill="none" stroke="midnightblue" d="M592.68,-459.32C584.11,-451.34 571.19,-439.31 560.81,-429.65"/>
<polygon fill="midnightblue" stroke="midnightblue" points="563.19,-427.09 553.49,-422.83 558.42,-432.21 563.19,-427.09"/>
</g>
<!-- Node31&#45;&gt;Node27 -->
<g id="edge46" class="edge">
<title>Node31&#45;&gt;Node27</title>
<path fill="none" stroke="midnightblue" d="M367.28,-459.44C403.45,-450.14 461.38,-435.25 500.98,-425.06"/>
<polygon fill="midnightblue" stroke="midnightblue" points="502.07,-428.4 510.88,-422.52 500.32,-421.62 502.07,-428.4"/>
</g>
<!-- Node32 -->
<g id="node32" class="node">
<title>Node32</title>
<g id="a_node32"><a xlink:title=" ">
<polygon fill="none" stroke="#bfbfbf" points="351,-403.5 351,-422.5 399,-422.5 399,-403.5 351,-403.5"/>
<text text-anchor="middle" x="375" y="-410.5" font-family="Helvetica,sans-Serif" font-size="10.00">time.h</text>
</a>
</g>
</g>
<!-- Node31&#45;&gt;Node32 -->
<g id="edge47" class="edge">
<title>Node31&#45;&gt;Node32</title>
<path fill="none" stroke="midnightblue" d="M340.77,-459.08C346.56,-451.46 355.06,-440.26 362.14,-430.94"/>
<polygon fill="midnightblue" stroke="midnightblue" points="365.1,-432.83 368.36,-422.75 359.52,-428.6 365.1,-432.83"/>
</g>
</g>
</svg>
        <g id="navigator" transform="translate(0 0)" fill="#404254">
                <rect fill="#f2f5e9" fill-opacity="0.5" stroke="#606060" stroke-width=".5" x="0" y="0" width="60" height="60"/>
                <use id="zoomplus" xlink:href="#zoomPlus" x="17" y="9" onmousedown="handleZoom(evt,'in')"/>
                <use id="zoomminus" xlink:href="#zoomMin" x="42" y="9" onmousedown="handleZoom(evt,'out')"/>
                <use id="reset" xlink:href="#resetDef" x="30" y="36" onmousedown="handleReset()"/>
                <g id="arrowUp" xlink:href="#dirArrow" transform="translate(30 24)" onmousedown="handlePan(0,-1)">
                  <use xlink:href="#rim" fill="#404040">
                        <set attributeName="fill" to="#808080" begin="arrowUp.mouseover" end="arrowUp.mouseout"/>
                  </use>
                  <path fill="none" stroke="white" stroke-width="1.5" d="M0,-3.0v7 M-2.5,-0.5L0,-3.0L2.5,-0.5"/>
                </g>
                <g id="arrowRight" xlink:href="#dirArrow" transform="rotate(90) translate(36 -43)" onmousedown="handlePan(1,0)">
                  <use xlink:href="#rim" fill="#404040">
                        <set attributeName="fill" to="#808080" begin="arrowRight.mouseover" end="arrowRight.mouseout"/>
                  </use>
                  <path fill="none" stroke="white" stroke-width="1.5" d="M0,-3.0v7 M-2.5,-0.5L0,-3.0L2.5,-0.5"/>
                </g>
                <g id="arrowDown" xlink:href="#dirArrow" transform="rotate(180) translate(-30 -48)" onmousedown="handlePan(0,1)">
                  <use xlink:href="#rim" fill="#404040">
                        <set attributeName="fill" to="#808080" begin="arrowDown.mouseover" end="arrowDown.mouseout"/>
                  </use>
                  <path fill="none" stroke="white" stroke-width="1.5" d="M0,-3.0v7 M-2.5,-0.5L0,-3.0L2.5,-0.5"/>
                </g>
                <g id="arrowLeft" xlink:href="#dirArrow" transform="rotate(270) translate(-36 17)" onmousedown="handlePan(-1,0)">
                  <use xlink:href="#rim" fill="#404040">
                        <set attributeName="fill" to="#808080" begin="arrowLeft.mouseover" end="arrowLeft.mouseout"/>
                  </use>
                  <path fill="none" stroke="white" stroke-width="1.5" d="M0,-3.0v7 M-2.5,-0.5L0,-3.0L2.5,-0.5"/>
                </g>
        </g>
        <svg viewBox="0 0 15 15" width="100%" height="30px" preserveAspectRatio="xMaxYMin meet">
         <g id="arrow_out" transform="scale(0.3 0.3)">
          <a xlink:href="request__parser_8cpp__incl_org.svg" target="_base">
           <rect id="button" ry="5" rx="5" y="6" x="6" height="38" width="38"
                fill="#f2f5e9" fill-opacity="0.5" stroke="#606060" stroke-width="1.0"/>
           <path id="arrow"
             d="M 11.500037,31.436501 C 11.940474,20.09759 22.043105,11.32322 32.158766,21.979434 L 37.068811,17.246167 C 37.068811,17.246167 37.088388,32 37.088388,32 L 22.160133,31.978069 C 22.160133,31.978069 26.997745,27.140456 26.997745,27.140456 C 18.528582,18.264221 13.291696,25.230495 11.500037,31.436501 z"
             style="fill:#404040;"/>
          </a>
         </g>
        </svg>
</svg>
