<?xml version="1.0" encoding="UTF-8" standalone="no"?>
<!DOCTYPE svg PUBLIC "-//W3C//DTD SVG 1.1//EN"
 "http://www.w3.org/Graphics/SVG/1.1/DTD/svg11.dtd">
<!-- Generated by graphviz version 2.43.0 (0)
 -->
<!-- Title: /home/alexander/Documents/Seminars/TP/Project/src/server_side/room.hpp Pages: 1 -->
<!--zoomable 744 -->
<svg id="main" version="1.1" xmlns="http://www.w3.org/2000/svg" xmlns:xlink="http://www.w3.org/1999/xlink" xml:space="preserve" onload="init(evt)">
<style type="text/css"><![CDATA[
.edge:hover path { stroke: red; }
.edge:hover polygon { stroke: red; fill: red; }
]]></style>
<script type="text/javascript"><![CDATA[
var edges = document.getElementsByTagName('g');
if (edges && edges.length) {
  for (var i=0;i<edges.length;i++) {
    if (edges[i].id.substr(0,4)=='edge') {
      edges[i].setAttribute('class','edge');
    }
  }
}
]]></script>
        <defs>
                <circle id="rim" cx="0" cy="0" r="7"/>
                <circle id="rim2" cx="0" cy="0" r="3.5"/>
                <g id="zoomPlus">
                        <use xlink:href="#rim" fill="#404040">
                                <set attributeName="fill" to="#808080" begin="zoomplus.mouseover" end="zoomplus.mouseout"/>
                        </use>
                        <path d="M-4,0h8M0,-4v8" fill="none" stroke="white" stroke-width="1.5" pointer-events="none"/>
                </g>
                <g id="zoomMin">
                        <use xlink:href="#rim" fill="#404040">
                                <set attributeName="fill" to="#808080" begin="zoomminus.mouseover" end="zoomminus.mouseout"/>
                        </use>
                        <path d="M-4,0h8" fill="none" stroke="white" stroke-width="1.5" pointer-events="none"/>
                </g>
                <g id="dirArrow">
                        <path fill="none" stroke="white" stroke-width="1.5" d="M0,-3.0v7 M-2.5,-0.5L0,-3.0L2.5,-0.5"/>
                </g>
               <g id="resetDef">
                       <use xlink:href="#rim2" fill="#404040">
                               <set attributeName="fill" to="#808080" begin="reset.mouseover" end="reset.mouseout"/>
                       </use>
               </g>
        </defs>

<script type="text/javascript">
var viewWidth = 992;
var viewHeight = 744;
var sectionId = 'dynsection-0';
</script>
<script xlink:href="svgpan.js"/>
<svg id="graph" class="graph">
<g id="viewport">
<title>/home/alexander/Documents/Seminars/TP/Project/src/server_side/room.hpp</title>
<!-- Node1 -->
<g id="node1" class="node">
<title>Node1</title>
<g id="a_node1"><a xlink:title=" ">
<polygon fill="#bfbfbf" stroke="black" points="91,-694.5 91,-735.5 249,-735.5 249,-694.5 91,-694.5"/>
<text text-anchor="start" x="99" y="-723.5" font-family="Helvetica,sans-Serif" font-size="10.00">/home/alexander/Documents</text>
<text text-anchor="start" x="99" y="-712.5" font-family="Helvetica,sans-Serif" font-size="10.00">/Seminars/TP/Project/src</text>
<text text-anchor="middle" x="170" y="-701.5" font-family="Helvetica,sans-Serif" font-size="10.00">/server_side/room.hpp</text>
</a>
</g>
</g>
<!-- Node2 -->
<g id="node2" class="node">
<title>Node2</title>
<g id="a_node2"><a xlink:title=" ">
<polygon fill="none" stroke="#bfbfbf" points="0,-638.5 0,-657.5 68,-657.5 68,-638.5 0,-638.5"/>
<text text-anchor="middle" x="34" y="-645.5" font-family="Helvetica,sans-Serif" font-size="10.00">filesystem</text>
</a>
</g>
</g>
<!-- Node1&#45;&gt;Node2 -->
<g id="edge1" class="edge">
<title>Node1&#45;&gt;Node2</title>
<path fill="none" stroke="midnightblue" d="M129.2,-694.5C107.24,-684.01 80.76,-671.35 61.31,-662.05"/>
<polygon fill="midnightblue" stroke="midnightblue" points="62.64,-658.81 52.1,-657.65 59.62,-665.12 62.64,-658.81"/>
</g>
<!-- Node3 -->
<g id="node3" class="node">
<title>Node3</title>
<g id="a_node3"><a xlink:title=" ">
<polygon fill="none" stroke="#bfbfbf" points="86.5,-638.5 86.5,-657.5 141.5,-657.5 141.5,-638.5 86.5,-638.5"/>
<text text-anchor="middle" x="114" y="-645.5" font-family="Helvetica,sans-Serif" font-size="10.00">fstream</text>
</a>
</g>
</g>
<!-- Node1&#45;&gt;Node3 -->
<g id="edge2" class="edge">
<title>Node1&#45;&gt;Node3</title>
<path fill="none" stroke="midnightblue" d="M153.2,-694.5C145.19,-685.2 135.72,-674.21 128.09,-665.36"/>
<polygon fill="midnightblue" stroke="midnightblue" points="130.63,-662.94 121.45,-657.65 125.33,-667.51 130.63,-662.94"/>
</g>
<!-- Node4 -->
<g id="node4" class="node">
<title>Node4</title>
<g id="a_node4"><a xlink:title=" ">
<polygon fill="none" stroke="#bfbfbf" points="171.5,-168.5 171.5,-187.5 264.5,-187.5 264.5,-168.5 171.5,-168.5"/>
<text text-anchor="middle" x="218" y="-175.5" font-family="Helvetica,sans-Serif" font-size="10.00">unordered_map</text>
</a>
</g>
</g>
<!-- Node1&#45;&gt;Node4 -->
<g id="edge3" class="edge">
<title>Node1&#45;&gt;Node4</title>
<path fill="none" stroke="midnightblue" d="M170,-694.28C170,-669.39 170,-625.27 170,-587.5 170,-587.5 170,-587.5 170,-300 170,-265.18 175.16,-255.95 189,-224 193.24,-214.21 199.51,-204.15 205.13,-196.03"/>
<polygon fill="midnightblue" stroke="midnightblue" points="208.06,-197.97 211.07,-187.81 202.38,-193.87 208.06,-197.97"/>
</g>
<!-- Node5 -->
<g id="node5" class="node">
<title>Node5</title>
<g id="a_node5"><a xlink:href="server__handler_8hpp.html" target="_top" xlink:title=" ">
<polygon fill="none" stroke="black" points="198,-224.5 198,-254.5 332,-254.5 332,-224.5 198,-224.5"/>
<text text-anchor="start" x="206" y="-242.5" font-family="Helvetica,sans-Serif" font-size="10.00">request_handlers/server</text>
<text text-anchor="middle" x="265" y="-231.5" font-family="Helvetica,sans-Serif" font-size="10.00">_handler.hpp</text>
</a>
</g>
</g>
<!-- Node1&#45;&gt;Node5 -->
<g id="edge4" class="edge">
<title>Node1&#45;&gt;Node5</title>
<path fill="none" stroke="midnightblue" d="M179.79,-694.39C191.05,-669.98 208,-626.71 208,-587.5 208,-587.5 208,-587.5 208,-356 208,-320.66 229.72,-284.94 246.34,-262.78"/>
<polygon fill="midnightblue" stroke="midnightblue" points="249.25,-264.74 252.63,-254.7 243.73,-260.44 249.25,-264.74"/>
</g>
<!-- Node17 -->
<g id="node17" class="node">
<title>Node17</title>
<g id="a_node17"><a xlink:href="request__creator_8hpp.html" target="_top" xlink:title=" ">
<polygon fill="none" stroke="black" points="607,-638.5 607,-657.5 765,-657.5 765,-638.5 607,-638.5"/>
<text text-anchor="middle" x="686" y="-645.5" font-family="Helvetica,sans-Serif" font-size="10.00">requests/request_creator.hpp</text>
</a>
</g>
</g>
<!-- Node1&#45;&gt;Node17 -->
<g id="edge21" class="edge">
<title>Node1&#45;&gt;Node17</title>
<path fill="none" stroke="midnightblue" d="M249.21,-704.02C346.76,-691.73 511.38,-671 608.25,-658.79"/>
<polygon fill="midnightblue" stroke="midnightblue" points="608.79,-662.25 618.27,-657.53 607.92,-655.31 608.79,-662.25"/>
</g>
<!-- Node5&#45;&gt;Node4 -->
<g id="edge5" class="edge">
<title>Node5&#45;&gt;Node4</title>
<path fill="none" stroke="midnightblue" d="M253.86,-224.4C247.03,-215.75 238.26,-204.64 231.09,-195.58"/>
<polygon fill="midnightblue" stroke="midnightblue" points="233.78,-193.34 224.84,-187.66 228.29,-197.67 233.78,-193.34"/>
</g>
<!-- Node6 -->
<g id="node6" class="node">
<title>Node6</title>
<g id="a_node6"><a xlink:href="abstract__handler_8hpp.html" target="_top" xlink:title=" ">
<polygon fill="none" stroke="black" points="388.5,-168.5 388.5,-187.5 507.5,-187.5 507.5,-168.5 388.5,-168.5"/>
<text text-anchor="middle" x="448" y="-175.5" font-family="Helvetica,sans-Serif" font-size="10.00">abstract_handler.hpp</text>
</a>
</g>
</g>
<!-- Node5&#45;&gt;Node6 -->
<g id="edge6" class="edge">
<title>Node5&#45;&gt;Node6</title>
<path fill="none" stroke="midnightblue" d="M308.37,-224.4C339.99,-214.12 382.33,-200.35 412.07,-190.68"/>
<polygon fill="midnightblue" stroke="midnightblue" points="413.21,-193.99 421.64,-187.57 411.05,-187.33 413.21,-193.99"/>
</g>
<!-- Node7 -->
<g id="node7" class="node">
<title>Node7</title>
<g id="a_node7"><a xlink:title=" ">
<polygon fill="none" stroke="#bfbfbf" points="601,-0.5 601,-19.5 659,-19.5 659,-0.5 601,-0.5"/>
<text text-anchor="middle" x="630" y="-7.5" font-family="Helvetica,sans-Serif" font-size="10.00">memory</text>
</a>
</g>
</g>
<!-- Node6&#45;&gt;Node7 -->
<g id="edge7" class="edge">
<title>Node6&#45;&gt;Node7</title>
<path fill="none" stroke="midnightblue" d="M474.02,-168.41C510.98,-154.84 578.19,-124.83 614,-76 623.77,-62.67 627.63,-44.1 629.12,-30.22"/>
<polygon fill="midnightblue" stroke="midnightblue" points="632.64,-30.11 629.9,-19.88 625.66,-29.59 632.64,-30.11"/>
</g>
<!-- Node8 -->
<g id="node8" class="node">
<title>Node8</title>
<g id="a_node8"><a xlink:href="account_8hpp.html" target="_top" xlink:title=" ">
<polygon fill="none" stroke="black" points="212,-112.5 212,-131.5 288,-131.5 288,-112.5 212,-112.5"/>
<text text-anchor="middle" x="250" y="-119.5" font-family="Helvetica,sans-Serif" font-size="10.00">account.hpp</text>
</a>
</g>
</g>
<!-- Node6&#45;&gt;Node8 -->
<g id="edge8" class="edge">
<title>Node6&#45;&gt;Node8</title>
<path fill="none" stroke="midnightblue" d="M416.63,-168.44C382.74,-159.2 328.6,-144.44 291.28,-134.26"/>
<polygon fill="midnightblue" stroke="midnightblue" points="291.8,-130.77 281.23,-131.52 289.95,-137.52 291.8,-130.77"/>
</g>
<!-- Node12 -->
<g id="node12" class="node">
<title>Node12</title>
<g id="a_node12"><a xlink:href="socket_8hpp.html" target="_top" xlink:title=" ">
<polygon fill="none" stroke="black" points="392,-112.5 392,-131.5 496,-131.5 496,-112.5 392,-112.5"/>
<text text-anchor="middle" x="444" y="-119.5" font-family="Helvetica,sans-Serif" font-size="10.00">socket/socket.hpp</text>
</a>
</g>
</g>
<!-- Node6&#45;&gt;Node12 -->
<g id="edge13" class="edge">
<title>Node6&#45;&gt;Node12</title>
<path fill="none" stroke="midnightblue" d="M447.34,-168.08C446.82,-161.01 446.06,-150.86 445.41,-141.99"/>
<polygon fill="midnightblue" stroke="midnightblue" points="448.88,-141.47 444.65,-131.75 441.9,-141.98 448.88,-141.47"/>
</g>
<!-- Node8&#45;&gt;Node7 -->
<g id="edge9" class="edge">
<title>Node8&#45;&gt;Node7</title>
<path fill="none" stroke="midnightblue" d="M249.75,-112.26C249.86,-98.06 252.35,-70.17 269,-56 293.18,-35.42 502.09,-19.41 590.62,-13.48"/>
<polygon fill="midnightblue" stroke="midnightblue" points="591.05,-16.96 600.8,-12.81 590.59,-9.98 591.05,-16.96"/>
</g>
<!-- Node9 -->
<g id="node9" class="node">
<title>Node9</title>
<g id="a_node9"><a xlink:title=" ">
<polygon fill="none" stroke="#bfbfbf" points="116,-56.5 116,-75.5 148,-75.5 148,-56.5 116,-56.5"/>
<text text-anchor="middle" x="132" y="-63.5" font-family="Helvetica,sans-Serif" font-size="10.00">set</text>
</a>
</g>
</g>
<!-- Node8&#45;&gt;Node9 -->
<g id="edge10" class="edge">
<title>Node8&#45;&gt;Node9</title>
<path fill="none" stroke="midnightblue" d="M231.3,-112.44C211.38,-103.32 179.7,-88.83 157.5,-78.67"/>
<polygon fill="midnightblue" stroke="midnightblue" points="158.88,-75.45 148.33,-74.47 155.97,-81.82 158.88,-75.45"/>
</g>
<!-- Node10 -->
<g id="node10" class="node">
<title>Node10</title>
<g id="a_node10"><a xlink:title=" ">
<polygon fill="none" stroke="#bfbfbf" points="166,-56.5 166,-75.5 222,-75.5 222,-56.5 166,-56.5"/>
<text text-anchor="middle" x="194" y="-63.5" font-family="Helvetica,sans-Serif" font-size="10.00">sstream</text>
</a>
</g>
</g>
<!-- Node8&#45;&gt;Node10 -->
<g id="edge11" class="edge">
<title>Node8&#45;&gt;Node10</title>
<path fill="none" stroke="midnightblue" d="M241,-112.32C232.81,-104.42 220.49,-92.55 210.53,-82.94"/>
<polygon fill="midnightblue" stroke="midnightblue" points="212.79,-80.26 203.16,-75.83 207.93,-85.29 212.79,-80.26"/>
</g>
<!-- Node11 -->
<g id="node11" class="node">
<title>Node11</title>
<g id="a_node11"><a xlink:title=" ">
<polygon fill="none" stroke="#bfbfbf" points="278,-56.5 278,-75.5 322,-75.5 322,-56.5 278,-56.5"/>
<text text-anchor="middle" x="300" y="-63.5" font-family="Helvetica,sans-Serif" font-size="10.00">string</text>
</a>
</g>
</g>
<!-- Node8&#45;&gt;Node11 -->
<g id="edge12" class="edge">
<title>Node8&#45;&gt;Node11</title>
<path fill="none" stroke="midnightblue" d="M258.26,-112.08C265.46,-104.3 276.11,-92.8 284.85,-83.37"/>
<polygon fill="midnightblue" stroke="midnightblue" points="287.67,-85.47 291.9,-75.75 282.53,-80.71 287.67,-85.47"/>
</g>
<!-- Node12&#45;&gt;Node7 -->
<g id="edge16" class="edge">
<title>Node12&#45;&gt;Node7</title>
<path fill="none" stroke="midnightblue" d="M496,-114.82C526.57,-108.99 564.5,-97.72 592,-76 607.35,-63.87 617.74,-43.71 623.73,-29.05"/>
<polygon fill="midnightblue" stroke="midnightblue" points="627.06,-30.13 627.31,-19.54 620.51,-27.66 627.06,-30.13"/>
</g>
<!-- Node12&#45;&gt;Node11 -->
<g id="edge17" class="edge">
<title>Node12&#45;&gt;Node11</title>
<path fill="none" stroke="midnightblue" d="M421.18,-112.44C397.03,-103.39 358.72,-89.02 331.65,-78.87"/>
<polygon fill="midnightblue" stroke="midnightblue" points="332.83,-75.57 322.24,-75.34 330.37,-82.13 332.83,-75.57"/>
</g>
<!-- Node13 -->
<g id="node13" class="node">
<title>Node13</title>
<g id="a_node13"><a xlink:title=" ">
<polygon fill="none" stroke="#bfbfbf" points="495,-56.5 495,-75.5 583,-75.5 583,-56.5 495,-56.5"/>
<text text-anchor="middle" x="539" y="-63.5" font-family="Helvetica,sans-Serif" font-size="10.00">boost/asio.hpp</text>
</a>
</g>
</g>
<!-- Node12&#45;&gt;Node13 -->
<g id="edge14" class="edge">
<title>Node12&#45;&gt;Node13</title>
<path fill="none" stroke="midnightblue" d="M459.26,-112.32C474.22,-103.82 497.25,-90.73 514.73,-80.8"/>
<polygon fill="midnightblue" stroke="midnightblue" points="516.81,-83.64 523.77,-75.65 513.35,-77.55 516.81,-83.64"/>
</g>
<!-- Node14 -->
<g id="node14" class="node">
<title>Node14</title>
<g id="a_node14"><a xlink:title=" ">
<polygon fill="none" stroke="#bfbfbf" points="411.5,-56.5 411.5,-75.5 476.5,-75.5 476.5,-56.5 411.5,-56.5"/>
<text text-anchor="middle" x="444" y="-63.5" font-family="Helvetica,sans-Serif" font-size="10.00">functional</text>
</a>
</g>
</g>
<!-- Node12&#45;&gt;Node14 -->
<g id="edge15" class="edge">
<title>Node12&#45;&gt;Node14</title>
<path fill="none" stroke="midnightblue" d="M444,-112.08C444,-105.01 444,-94.86 444,-85.99"/>
<polygon fill="midnightblue" stroke="midnightblue" points="447.5,-85.75 444,-75.75 440.5,-85.75 447.5,-85.75"/>
</g>
<!-- Node15 -->
<g id="node15" class="node">
<title>Node15</title>
<g id="a_node15"><a xlink:href="general_2socket_2log_8hpp.html" target="_top" xlink:title=" ">
<polygon fill="none" stroke="black" points="340.5,-56.5 340.5,-75.5 393.5,-75.5 393.5,-56.5 340.5,-56.5"/>
<text text-anchor="middle" x="367" y="-63.5" font-family="Helvetica,sans-Serif" font-size="10.00">log.hpp</text>
</a>
</g>
</g>
<!-- Node12&#45;&gt;Node15 -->
<g id="edge18" class="edge">
<title>Node12&#45;&gt;Node15</title>
<path fill="none" stroke="midnightblue" d="M431.63,-112.32C419.84,-104.06 401.87,-91.45 387.86,-81.63"/>
<polygon fill="midnightblue" stroke="midnightblue" points="389.54,-78.53 379.34,-75.65 385.52,-84.26 389.54,-78.53"/>
</g>
<!-- Node15&#45;&gt;Node7 -->
<g id="edge19" class="edge">
<title>Node15&#45;&gt;Node7</title>
<path fill="none" stroke="midnightblue" d="M393.7,-58.17C396.83,-57.41 399.98,-56.68 403,-56 468.65,-41.3 545.54,-26.57 590.88,-18.15"/>
<polygon fill="midnightblue" stroke="midnightblue" points="591.68,-21.56 600.88,-16.3 590.41,-14.68 591.68,-21.56"/>
</g>
<!-- Node16 -->
<g id="node16" class="node">
<title>Node16</title>
<g id="a_node16"><a xlink:title=" ">
<polygon fill="none" stroke="#bfbfbf" points="338.5,-0.5 338.5,-19.5 395.5,-19.5 395.5,-0.5 338.5,-0.5"/>
<text text-anchor="middle" x="367" y="-7.5" font-family="Helvetica,sans-Serif" font-size="10.00">ostream</text>
</a>
</g>
</g>
<!-- Node15&#45;&gt;Node16 -->
<g id="edge20" class="edge">
<title>Node15&#45;&gt;Node16</title>
<path fill="none" stroke="midnightblue" d="M367,-56.08C367,-49.01 367,-38.86 367,-29.99"/>
<polygon fill="midnightblue" stroke="midnightblue" points="370.5,-29.75 367,-19.75 363.5,-29.75 370.5,-29.75"/>
</g>
<!-- Node18 -->
<g id="node18" class="node">
<title>Node18</title>
<g id="a_node18"><a xlink:href="sign__in__request_8hpp.html" target="_top" xlink:title=" ">
<polygon fill="none" stroke="black" points="849,-571.5 849,-601.5 975,-601.5 975,-571.5 849,-571.5"/>
<text text-anchor="start" x="857" y="-589.5" font-family="Helvetica,sans-Serif" font-size="10.00">requests/authorization</text>
<text text-anchor="middle" x="912" y="-578.5" font-family="Helvetica,sans-Serif" font-size="10.00">/sign_in_request.hpp</text>
</a>
</g>
</g>
<!-- Node17&#45;&gt;Node18 -->
<g id="edge22" class="edge">
<title>Node17&#45;&gt;Node18</title>
<path fill="none" stroke="midnightblue" d="M718.38,-638.48C752.35,-629.53 806.6,-615.25 849.05,-604.07"/>
<polygon fill="midnightblue" stroke="midnightblue" points="849.96,-607.45 858.74,-601.52 848.17,-600.68 849.96,-607.45"/>
</g>
<!-- Node23 -->
<g id="node23" class="node">
<title>Node23</title>
<g id="a_node23"><a xlink:href="sign__up__request_8hpp.html" target="_top" xlink:title=" ">
<polygon fill="none" stroke="black" points="705,-571.5 705,-601.5 831,-601.5 831,-571.5 705,-571.5"/>
<text text-anchor="start" x="713" y="-589.5" font-family="Helvetica,sans-Serif" font-size="10.00">requests/authorization</text>
<text text-anchor="middle" x="768" y="-578.5" font-family="Helvetica,sans-Serif" font-size="10.00">/sign_up_request.hpp</text>
</a>
</g>
</g>
<!-- Node17&#45;&gt;Node23 -->
<g id="edge32" class="edge">
<title>Node17&#45;&gt;Node23</title>
<path fill="none" stroke="midnightblue" d="M697.75,-638.48C708.85,-630.42 725.93,-618.02 740.47,-607.47"/>
<polygon fill="midnightblue" stroke="midnightblue" points="742.64,-610.23 748.67,-601.52 738.52,-604.56 742.64,-610.23"/>
</g>
<!-- Node24 -->
<g id="node24" class="node">
<title>Node24</title>
<g id="a_node24"><a xlink:href="messages__builder_8hpp.html" target="_top" xlink:title=" ">
<polygon fill="none" stroke="black" points="523,-571.5 523,-601.5 687,-601.5 687,-571.5 523,-571.5"/>
<text text-anchor="start" x="531" y="-589.5" font-family="Helvetica,sans-Serif" font-size="10.00">requests/messages/messages</text>
<text text-anchor="middle" x="605" y="-578.5" font-family="Helvetica,sans-Serif" font-size="10.00">_builder.hpp</text>
</a>
</g>
</g>
<!-- Node17&#45;&gt;Node24 -->
<g id="edge34" class="edge">
<title>Node17&#45;&gt;Node24</title>
<path fill="none" stroke="midnightblue" d="M674.39,-638.48C663.42,-630.42 646.55,-618.02 632.19,-607.47"/>
<polygon fill="midnightblue" stroke="midnightblue" points="634.22,-604.62 624.09,-601.52 630.08,-610.26 634.22,-604.62"/>
</g>
<!-- Node19 -->
<g id="node19" class="node">
<title>Node19</title>
<g id="a_node19"><a xlink:href="authorization__request_8hpp.html" target="_top" xlink:title=" ">
<polygon fill="none" stroke="black" points="840,-515.5 840,-534.5 984,-534.5 984,-515.5 840,-515.5"/>
<text text-anchor="middle" x="912" y="-522.5" font-family="Helvetica,sans-Serif" font-size="10.00">authorization_request.hpp</text>
</a>
</g>
</g>
<!-- Node18&#45;&gt;Node19 -->
<g id="edge23" class="edge">
<title>Node18&#45;&gt;Node19</title>
<path fill="none" stroke="midnightblue" d="M912,-571.4C912,-563.47 912,-553.46 912,-544.86"/>
<polygon fill="midnightblue" stroke="midnightblue" points="915.5,-544.66 912,-534.66 908.5,-544.66 915.5,-544.66"/>
</g>
<!-- Node20 -->
<g id="node20" class="node">
<title>Node20</title>
<g id="a_node20"><a xlink:href="request_8hpp.html" target="_top" xlink:title=" ">
<polygon fill="none" stroke="black" points="575.5,-291.5 575.5,-310.5 694.5,-310.5 694.5,-291.5 575.5,-291.5"/>
<text text-anchor="middle" x="635" y="-298.5" font-family="Helvetica,sans-Serif" font-size="10.00">requests/request.hpp</text>
</a>
</g>
</g>
<!-- Node19&#45;&gt;Node20 -->
<g id="edge24" class="edge">
<title>Node19&#45;&gt;Node20</title>
<path fill="none" stroke="midnightblue" d="M917.61,-515.44C930.74,-494.23 960.45,-438.43 935,-403 882.89,-330.47 776.05,-309.33 704.96,-303.55"/>
<polygon fill="midnightblue" stroke="midnightblue" points="704.97,-300.04 694.74,-302.81 704.46,-307.03 704.97,-300.04"/>
</g>
<!-- Node20&#45;&gt;Node5 -->
<g id="edge31" class="edge">
<title>Node20&#45;&gt;Node5</title>
<path fill="none" stroke="midnightblue" d="M577.64,-291.46C519.28,-282.68 426.26,-268.43 346,-255 344.73,-254.79 343.45,-254.57 342.17,-254.35"/>
<polygon fill="midnightblue" stroke="midnightblue" points="342.61,-250.88 332.16,-252.64 341.43,-257.78 342.61,-250.88"/>
</g>
<!-- Node20&#45;&gt;Node7 -->
<g id="edge25" class="edge">
<title>Node20&#45;&gt;Node7</title>
<path fill="none" stroke="midnightblue" d="M654.12,-291.44C687.76,-274.93 754,-235.28 754,-179 754,-179 754,-179 754,-121 754,-72.26 699.73,-39.87 662.99,-23.52"/>
<polygon fill="midnightblue" stroke="midnightblue" points="664.19,-20.23 653.62,-19.52 661.44,-26.67 664.19,-20.23"/>
</g>
<!-- Node20&#45;&gt;Node11 -->
<g id="edge26" class="edge">
<title>Node20&#45;&gt;Node11</title>
<path fill="none" stroke="midnightblue" d="M599.83,-291.43C547.24,-277.21 447.11,-244.55 380,-188 345.3,-158.76 319.82,-110.74 307.77,-84.86"/>
<polygon fill="midnightblue" stroke="midnightblue" points="310.86,-83.21 303.56,-75.53 304.48,-86.09 310.86,-83.21"/>
</g>
<!-- Node21 -->
<g id="node21" class="node">
<title>Node21</title>
<g id="a_node21"><a xlink:href="client__handler_8hpp.html" target="_top" xlink:title=" ">
<polygon fill="none" stroke="black" points="569.5,-224.5 569.5,-254.5 700.5,-254.5 700.5,-224.5 569.5,-224.5"/>
<text text-anchor="start" x="577.5" y="-242.5" font-family="Helvetica,sans-Serif" font-size="10.00">request_handlers/client</text>
<text text-anchor="middle" x="635" y="-231.5" font-family="Helvetica,sans-Serif" font-size="10.00">_handler.hpp</text>
</a>
</g>
</g>
<!-- Node20&#45;&gt;Node21 -->
<g id="edge27" class="edge">
<title>Node20&#45;&gt;Node21</title>
<path fill="none" stroke="midnightblue" d="M635,-291.48C635,-284.47 635,-274.19 635,-264.7"/>
<polygon fill="midnightblue" stroke="midnightblue" points="638.5,-264.52 635,-254.52 631.5,-264.52 638.5,-264.52"/>
</g>
<!-- Node21&#45;&gt;Node6 -->
<g id="edge28" class="edge">
<title>Node21&#45;&gt;Node6</title>
<path fill="none" stroke="midnightblue" d="M590.68,-224.4C558.37,-214.12 515.1,-200.35 484.71,-190.68"/>
<polygon fill="midnightblue" stroke="midnightblue" points="485.53,-187.27 474.94,-187.57 483.41,-193.94 485.53,-187.27"/>
</g>
<!-- Node22 -->
<g id="node22" class="node">
<title>Node22</title>
<g id="a_node22"><a xlink:href="renderer_8hpp.html" target="_top" xlink:title=" ">
<polygon fill="none" stroke="black" points="648,-112.5 648,-131.5 726,-131.5 726,-112.5 648,-112.5"/>
<text text-anchor="middle" x="687" y="-119.5" font-family="Helvetica,sans-Serif" font-size="10.00">renderer.hpp</text>
</a>
</g>
</g>
<!-- Node21&#45;&gt;Node22 -->
<g id="edge29" class="edge">
<title>Node21&#45;&gt;Node22</title>
<path fill="none" stroke="midnightblue" d="M641.38,-224.34C650.83,-203.34 668.56,-163.96 678.92,-140.96"/>
<polygon fill="midnightblue" stroke="midnightblue" points="682.18,-142.22 683.1,-131.67 675.8,-139.35 682.18,-142.22"/>
</g>
<!-- Node22&#45;&gt;Node7 -->
<g id="edge30" class="edge">
<title>Node22&#45;&gt;Node7</title>
<path fill="none" stroke="midnightblue" d="M684.62,-112.26C680.95,-99.46 673.25,-75.07 663,-56 657.68,-46.1 650.4,-35.93 644.03,-27.77"/>
<polygon fill="midnightblue" stroke="midnightblue" points="646.62,-25.4 637.62,-19.81 641.17,-29.79 646.62,-25.4"/>
</g>
<!-- Node23&#45;&gt;Node19 -->
<g id="edge33" class="edge">
<title>Node23&#45;&gt;Node19</title>
<path fill="none" stroke="midnightblue" d="M802.13,-571.4C826.29,-561.42 858.4,-548.15 881.67,-538.53"/>
<polygon fill="midnightblue" stroke="midnightblue" points="883.14,-541.71 891.05,-534.66 880.47,-535.24 883.14,-541.71"/>
</g>
<!-- Node25 -->
<g id="node25" class="node">
<title>Node25</title>
<g id="a_node25"><a xlink:href="all__messages_8hpp.html" target="_top" xlink:title=" ">
<polygon fill="none" stroke="black" points="553,-515.5 553,-534.5 657,-534.5 657,-515.5 553,-515.5"/>
<text text-anchor="middle" x="605" y="-522.5" font-family="Helvetica,sans-Serif" font-size="10.00">all_messages.hpp</text>
</a>
</g>
</g>
<!-- Node24&#45;&gt;Node25 -->
<g id="edge35" class="edge">
<title>Node24&#45;&gt;Node25</title>
<path fill="none" stroke="midnightblue" d="M605,-571.4C605,-563.47 605,-553.46 605,-544.86"/>
<polygon fill="midnightblue" stroke="midnightblue" points="608.5,-544.66 605,-534.66 601.5,-544.66 608.5,-544.66"/>
</g>
<!-- Node26 -->
<g id="node26" class="node">
<title>Node26</title>
<g id="a_node26"><a xlink:href="base__message_8hpp.html" target="_top" xlink:title=" ">
<polygon fill="none" stroke="black" points="816,-403.5 816,-422.5 926,-422.5 926,-403.5 816,-403.5"/>
<text text-anchor="middle" x="871" y="-410.5" font-family="Helvetica,sans-Serif" font-size="10.00">base_message.hpp</text>
</a>
</g>
</g>
<!-- Node25&#45;&gt;Node26 -->
<g id="edge36" class="edge">
<title>Node25&#45;&gt;Node26</title>
<path fill="none" stroke="midnightblue" d="M657.1,-523.76C732.59,-522.18 866.7,-514.33 897,-479 909.06,-464.94 897.55,-444.59 886.26,-430.42"/>
<polygon fill="midnightblue" stroke="midnightblue" points="888.64,-427.82 879.47,-422.5 883.32,-432.37 888.64,-427.82"/>
</g>
<!-- Node28 -->
<g id="node28" class="node">
<title>Node28</title>
<g id="a_node28"><a xlink:href="private__decorator_8hpp.html" target="_top" xlink:title=" ">
<polygon fill="none" stroke="black" points="502.5,-459.5 502.5,-478.5 625.5,-478.5 625.5,-459.5 502.5,-459.5"/>
<text text-anchor="middle" x="564" y="-466.5" font-family="Helvetica,sans-Serif" font-size="10.00">private_decorator.hpp</text>
</a>
</g>
</g>
<!-- Node25&#45;&gt;Node28 -->
<g id="edge39" class="edge">
<title>Node25&#45;&gt;Node28</title>
<path fill="none" stroke="midnightblue" d="M598.23,-515.08C592.44,-507.46 583.94,-496.26 576.86,-486.94"/>
<polygon fill="midnightblue" stroke="midnightblue" points="579.48,-484.6 570.64,-478.75 573.9,-488.83 579.48,-484.6"/>
</g>
<!-- Node30 -->
<g id="node30" class="node">
<title>Node30</title>
<g id="a_node30"><a xlink:href="room__decorator_8hpp.html" target="_top" xlink:title=" ">
<polygon fill="none" stroke="black" points="644,-459.5 644,-478.5 758,-478.5 758,-459.5 644,-459.5"/>
<text text-anchor="middle" x="701" y="-466.5" font-family="Helvetica,sans-Serif" font-size="10.00">room_decorator.hpp</text>
</a>
</g>
</g>
<!-- Node25&#45;&gt;Node30 -->
<g id="edge42" class="edge">
<title>Node25&#45;&gt;Node30</title>
<path fill="none" stroke="midnightblue" d="M620.42,-515.32C635.54,-506.82 658.82,-493.73 676.47,-483.8"/>
<polygon fill="midnightblue" stroke="midnightblue" points="678.61,-486.61 685.61,-478.65 675.18,-480.51 678.61,-486.61"/>
</g>
<!-- Node31 -->
<g id="node31" class="node">
<title>Node31</title>
<g id="a_node31"><a xlink:href="sender__decorator_8hpp.html" target="_top" xlink:title=" ">
<polygon fill="none" stroke="black" points="236,-459.5 236,-478.5 358,-478.5 358,-459.5 236,-459.5"/>
<text text-anchor="middle" x="297" y="-466.5" font-family="Helvetica,sans-Serif" font-size="10.00">sender_decorator.hpp</text>
</a>
</g>
</g>
<!-- Node25&#45;&gt;Node31 -->
<g id="edge44" class="edge">
<title>Node25&#45;&gt;Node31</title>
<path fill="none" stroke="midnightblue" d="M556.2,-515.44C501.79,-505.9 413.83,-490.48 355.71,-480.29"/>
<polygon fill="midnightblue" stroke="midnightblue" points="356.03,-476.8 345.58,-478.52 354.82,-483.69 356.03,-476.8"/>
</g>
<!-- Node32 -->
<g id="node32" class="node">
<title>Node32</title>
<g id="a_node32"><a xlink:href="text__decorator_8hpp.html" target="_top" xlink:title=" ">
<polygon fill="none" stroke="black" points="376,-459.5 376,-478.5 484,-478.5 484,-459.5 376,-459.5"/>
<text text-anchor="middle" x="430" y="-466.5" font-family="Helvetica,sans-Serif" font-size="10.00">text_decorator.hpp</text>
</a>
</g>
</g>
<!-- Node25&#45;&gt;Node32 -->
<g id="edge46" class="edge">
<title>Node25&#45;&gt;Node32</title>
<path fill="none" stroke="midnightblue" d="M577.27,-515.44C547.57,-506.28 500.28,-491.69 467.33,-481.52"/>
<polygon fill="midnightblue" stroke="midnightblue" points="468.19,-478.12 457.6,-478.52 466.12,-484.81 468.19,-478.12"/>
</g>
<!-- Node33 -->
<g id="node33" class="node">
<title>Node33</title>
<g id="a_node33"><a xlink:href="time__decorator_8hpp.html" target="_top" xlink:title=" ">
<polygon fill="none" stroke="black" points="776.5,-459.5 776.5,-478.5 887.5,-478.5 887.5,-459.5 776.5,-459.5"/>
<text text-anchor="middle" x="832" y="-466.5" font-family="Helvetica,sans-Serif" font-size="10.00">time_decorator.hpp</text>
</a>
</g>
</g>
<!-- Node25&#45;&gt;Node33 -->
<g id="edge48" class="edge">
<title>Node25&#45;&gt;Node33</title>
<path fill="none" stroke="midnightblue" d="M640.97,-515.44C680.32,-506.08 743.49,-491.06 786.31,-480.87"/>
<polygon fill="midnightblue" stroke="midnightblue" points="787.28,-484.24 796.2,-478.52 785.66,-477.43 787.28,-484.24"/>
</g>
<!-- Node27 -->
<g id="node27" class="node">
<title>Node27</title>
<g id="a_node27"><a xlink:href="message_8hpp.html" target="_top" xlink:title=" ">
<polygon fill="none" stroke="black" points="594,-347.5 594,-366.5 676,-366.5 676,-347.5 594,-347.5"/>
<text text-anchor="middle" x="635" y="-354.5" font-family="Helvetica,sans-Serif" font-size="10.00">message.hpp</text>
</a>
</g>
</g>
<!-- Node26&#45;&gt;Node27 -->
<g id="edge37" class="edge">
<title>Node26&#45;&gt;Node27</title>
<path fill="none" stroke="midnightblue" d="M833.61,-403.44C792.61,-394.06 726.75,-378.99 682.22,-368.8"/>
<polygon fill="midnightblue" stroke="midnightblue" points="682.75,-365.34 672.22,-366.52 681.19,-372.16 682.75,-365.34"/>
</g>
<!-- Node27&#45;&gt;Node20 -->
<g id="edge38" class="edge">
<title>Node27&#45;&gt;Node20</title>
<path fill="none" stroke="midnightblue" d="M635,-347.08C635,-340.01 635,-329.86 635,-320.99"/>
<polygon fill="midnightblue" stroke="midnightblue" points="638.5,-320.75 635,-310.75 631.5,-320.75 638.5,-320.75"/>
</g>
<!-- Node29 -->
<g id="node29" class="node">
<title>Node29</title>
<g id="a_node29"><a xlink:href="properties__decorator_8hpp.html" target="_top" xlink:title=" ">
<polygon fill="none" stroke="black" points="545,-403.5 545,-422.5 683,-422.5 683,-403.5 545,-403.5"/>
<text text-anchor="middle" x="614" y="-410.5" font-family="Helvetica,sans-Serif" font-size="10.00">properties_decorator.hpp</text>
</a>
</g>
</g>
<!-- Node28&#45;&gt;Node29 -->
<g id="edge40" class="edge">
<title>Node28&#45;&gt;Node29</title>
<path fill="none" stroke="midnightblue" d="M572.26,-459.08C579.46,-451.3 590.11,-439.8 598.85,-430.37"/>
<polygon fill="midnightblue" stroke="midnightblue" points="601.67,-432.47 605.9,-422.75 596.53,-427.71 601.67,-432.47"/>
</g>
<!-- Node29&#45;&gt;Node27 -->
<g id="edge41" class="edge">
<title>Node29&#45;&gt;Node27</title>
<path fill="none" stroke="midnightblue" d="M617.47,-403.08C620.31,-395.77 624.43,-385.18 627.96,-376.1"/>
<polygon fill="midnightblue" stroke="midnightblue" points="631.23,-377.34 631.6,-366.75 624.71,-374.8 631.23,-377.34"/>
</g>
<!-- Node30&#45;&gt;Node29 -->
<g id="edge43" class="edge">
<title>Node30&#45;&gt;Node29</title>
<path fill="none" stroke="midnightblue" d="M687.02,-459.32C673.45,-450.9 652.62,-437.97 636.68,-428.07"/>
<polygon fill="midnightblue" stroke="midnightblue" points="638.29,-424.95 627.94,-422.65 634.59,-430.9 638.29,-424.95"/>
</g>
<!-- Node31&#45;&gt;Node29 -->
<g id="edge45" class="edge">
<title>Node31&#45;&gt;Node29</title>
<path fill="none" stroke="midnightblue" d="M347.23,-459.44C403.34,-449.89 494.13,-434.42 553.95,-424.23"/>
<polygon fill="midnightblue" stroke="midnightblue" points="554.74,-427.65 564.01,-422.52 553.56,-420.75 554.74,-427.65"/>
</g>
<!-- Node32&#45;&gt;Node29 -->
<g id="edge47" class="edge">
<title>Node32&#45;&gt;Node29</title>
<path fill="none" stroke="midnightblue" d="M459.16,-459.44C490.51,-450.24 540.53,-435.56 575.2,-425.39"/>
<polygon fill="midnightblue" stroke="midnightblue" points="576.37,-428.69 584.98,-422.52 574.4,-421.97 576.37,-428.69"/>
</g>
<!-- Node33&#45;&gt;Node29 -->
<g id="edge49" class="edge">
<title>Node33&#45;&gt;Node29</title>
<path fill="none" stroke="midnightblue" d="M797.46,-459.44C759.75,-450.1 699.26,-435.12 658.14,-424.93"/>
<polygon fill="midnightblue" stroke="midnightblue" points="658.93,-421.52 648.38,-422.52 657.25,-428.32 658.93,-421.52"/>
</g>
<!-- Node34 -->
<g id="node34" class="node">
<title>Node34</title>
<g id="a_node34"><a xlink:title=" ">
<polygon fill="none" stroke="#bfbfbf" points="750,-403.5 750,-422.5 798,-422.5 798,-403.5 750,-403.5"/>
<text text-anchor="middle" x="774" y="-410.5" font-family="Helvetica,sans-Serif" font-size="10.00">time.h</text>
</a>
</g>
</g>
<!-- Node33&#45;&gt;Node34 -->
<g id="edge50" class="edge">
<title>Node33&#45;&gt;Node34</title>
<path fill="none" stroke="midnightblue" d="M822.68,-459.32C814.11,-451.34 801.19,-439.31 790.81,-429.65"/>
<polygon fill="midnightblue" stroke="midnightblue" points="793.19,-427.09 783.49,-422.83 788.42,-432.21 793.19,-427.09"/>
</g>
</g>
</svg>
        <g id="navigator" transform="translate(0 0)" fill="#404254">
                <rect fill="#f2f5e9" fill-opacity="0.5" stroke="#606060" stroke-width=".5" x="0" y="0" width="60" height="60"/>
                <use id="zoomplus" xlink:href="#zoomPlus" x="17" y="9" onmousedown="handleZoom(evt,'in')"/>
                <use id="zoomminus" xlink:href="#zoomMin" x="42" y="9" onmousedown="handleZoom(evt,'out')"/>
                <use id="reset" xlink:href="#resetDef" x="30" y="36" onmousedown="handleReset()"/>
                <g id="arrowUp" xlink:href="#dirArrow" transform="translate(30 24)" onmousedown="handlePan(0,-1)">
                  <use xlink:href="#rim" fill="#404040">
                        <set attributeName="fill" to="#808080" begin="arrowUp.mouseover" end="arrowUp.mouseout"/>
                  </use>
                  <path fill="none" stroke="white" stroke-width="1.5" d="M0,-3.0v7 M-2.5,-0.5L0,-3.0L2.5,-0.5"/>
                </g>
                <g id="arrowRight" xlink:href="#dirArrow" transform="rotate(90) translate(36 -43)" onmousedown="handlePan(1,0)">
                  <use xlink:href="#rim" fill="#404040">
                        <set attributeName="fill" to="#808080" begin="arrowRight.mouseover" end="arrowRight.mouseout"/>
                  </use>
                  <path fill="none" stroke="white" stroke-width="1.5" d="M0,-3.0v7 M-2.5,-0.5L0,-3.0L2.5,-0.5"/>
                </g>
                <g id="arrowDown" xlink:href="#dirArrow" transform="rotate(180) translate(-30 -48)" onmousedown="handlePan(0,1)">
                  <use xlink:href="#rim" fill="#404040">
                        <set attributeName="fill" to="#808080" begin="arrowDown.mouseover" end="arrowDown.mouseout"/>
                  </use>
                  <path fill="none" stroke="white" stroke-width="1.5" d="M0,-3.0v7 M-2.5,-0.5L0,-3.0L2.5,-0.5"/>
                </g>
                <g id="arrowLeft" xlink:href="#dirArrow" transform="rotate(270) translate(-36 17)" onmousedown="handlePan(-1,0)">
                  <use xlink:href="#rim" fill="#404040">
                        <set attributeName="fill" to="#808080" begin="arrowLeft.mouseover" end="arrowLeft.mouseout"/>
                  </use>
                  <path fill="none" stroke="white" stroke-width="1.5" d="M0,-3.0v7 M-2.5,-0.5L0,-3.0L2.5,-0.5"/>
                </g>
        </g>
        <svg viewBox="0 0 15 15" width="100%" height="30px" preserveAspectRatio="xMaxYMin meet">
         <g id="arrow_out" transform="scale(0.3 0.3)">
          <a xlink:href="room_8hpp__incl_org.svg" target="_base">
           <rect id="button" ry="5" rx="5" y="6" x="6" height="38" width="38"
                fill="#f2f5e9" fill-opacity="0.5" stroke="#606060" stroke-width="1.0"/>
           <path id="arrow"
             d="M 11.500037,31.436501 C 11.940474,20.09759 22.043105,11.32322 32.158766,21.979434 L 37.068811,17.246167 C 37.068811,17.246167 37.088388,32 37.088388,32 L 22.160133,31.978069 C 22.160133,31.978069 26.997745,27.140456 26.997745,27.140456 C 18.528582,18.264221 13.291696,25.230495 11.500037,31.436501 z"
             style="fill:#404040;"/>
          </a>
         </g>
        </svg>
</svg>
