<?xml version="1.0" encoding="UTF-8" standalone="no"?>
<!DOCTYPE svg PUBLIC "-//W3C//DTD SVG 1.1//EN"
 "http://www.w3.org/Graphics/SVG/1.1/DTD/svg11.dtd">
<!-- Generated by graphviz version 2.43.0 (0)
 -->
<!-- Title: /home/alexander/Documents/Seminars/TP/Project/src/general/requests/messages/room_decorator.hpp Pages: 1 -->
<!--zoomable 651 -->
<svg id="main" version="1.1" xmlns="http://www.w3.org/2000/svg" xmlns:xlink="http://www.w3.org/1999/xlink" xml:space="preserve" onload="init(evt)">
<style type="text/css"><![CDATA[
.edge:hover path { stroke: red; }
.edge:hover polygon { stroke: red; fill: red; }
]]></style>
<script type="text/javascript"><![CDATA[
var edges = document.getElementsByTagName('g');
if (edges && edges.length) {
  for (var i=0;i<edges.length;i++) {
    if (edges[i].id.substr(0,4)=='edge') {
      edges[i].setAttribute('class','edge');
    }
  }
}
]]></script>
        <defs>
                <circle id="rim" cx="0" cy="0" r="7"/>
                <circle id="rim2" cx="0" cy="0" r="3.5"/>
                <g id="zoomPlus">
                        <use xlink:href="#rim" fill="#404040">
                                <set attributeName="fill" to="#808080" begin="zoomplus.mouseover" end="zoomplus.mouseout"/>
                        </use>
                        <path d="M-4,0h8M0,-4v8" fill="none" stroke="white" stroke-width="1.5" pointer-events="none"/>
                </g>
                <g id="zoomMin">
                        <use xlink:href="#rim" fill="#404040">
                                <set attributeName="fill" to="#808080" begin="zoomminus.mouseover" end="zoomminus.mouseout"/>
                        </use>
                        <path d="M-4,0h8" fill="none" stroke="white" stroke-width="1.5" pointer-events="none"/>
                </g>
                <g id="dirArrow">
                        <path fill="none" stroke="white" stroke-width="1.5" d="M0,-3.0v7 M-2.5,-0.5L0,-3.0L2.5,-0.5"/>
                </g>
               <g id="resetDef">
                       <use xlink:href="#rim2" fill="#404040">
                               <set attributeName="fill" to="#808080" begin="reset.mouseover" end="reset.mouseout"/>
                       </use>
               </g>
        </defs>

<script type="text/javascript">
var viewWidth = 1106;
var viewHeight = 651;
var sectionId = 'dynsection-1';
</script>
<script xlink:href="svgpan.js"/>
<svg id="graph" class="graph">
<g id="viewport">
<title>/home/alexander/Documents/Seminars/TP/Project/src/general/requests/messages/room_decorator.hpp</title>
<!-- Node1 -->
<g id="node1" class="node">
<title>Node1</title>
<g id="a_node1"><a xlink:title=" ">
<polygon fill="#bfbfbf" stroke="black" points="378.5,-590.5 378.5,-642.5 536.5,-642.5 536.5,-590.5 378.5,-590.5"/>
<text text-anchor="start" x="386.5" y="-630.5" font-family="Helvetica,sans-Serif" font-size="10.00">/home/alexander/Documents</text>
<text text-anchor="start" x="386.5" y="-619.5" font-family="Helvetica,sans-Serif" font-size="10.00">/Seminars/TP/Project/src</text>
<text text-anchor="start" x="386.5" y="-608.5" font-family="Helvetica,sans-Serif" font-size="10.00">/general/requests/messages</text>
<text text-anchor="middle" x="457.5" y="-597.5" font-family="Helvetica,sans-Serif" font-size="10.00">/room_decorator.hpp</text>
</a>
</g>
</g>
<!-- Node2 -->
<g id="node2" class="node">
<title>Node2</title>
<g id="a_node2"><a xlink:href="all__messages_8hpp.html" target="_top" xlink:title=" ">
<polygon fill="none" stroke="black" points="290.5,-501.5 290.5,-553.5 448.5,-553.5 448.5,-501.5 290.5,-501.5"/>
<text text-anchor="start" x="298.5" y="-541.5" font-family="Helvetica,sans-Serif" font-size="10.00">/home/alexander/Documents</text>
<text text-anchor="start" x="298.5" y="-530.5" font-family="Helvetica,sans-Serif" font-size="10.00">/Seminars/TP/Project/src</text>
<text text-anchor="start" x="298.5" y="-519.5" font-family="Helvetica,sans-Serif" font-size="10.00">/general/requests/messages</text>
<text text-anchor="middle" x="369.5" y="-508.5" font-family="Helvetica,sans-Serif" font-size="10.00">/all_messages.hpp</text>
</a>
</g>
</g>
<!-- Node1&#45;&gt;Node2 -->
<g id="edge1" class="edge">
<title>Node1&#45;&gt;Node2</title>
<path fill="none" stroke="midnightblue" d="M424.7,-583.08C414.85,-573.34 404.19,-562.8 394.9,-553.61"/>
<polygon fill="midnightblue" stroke="midnightblue" points="422.47,-585.79 432.05,-590.34 427.4,-580.82 422.47,-585.79"/>
</g>
<!-- Node24 -->
<g id="node24" class="node">
<title>Node24</title>
<g id="a_node24"><a xlink:href="room__decorator_8cpp.html" target="_top" xlink:title=" ">
<polygon fill="none" stroke="black" points="466.5,-501.5 466.5,-553.5 624.5,-553.5 624.5,-501.5 466.5,-501.5"/>
<text text-anchor="start" x="474.5" y="-541.5" font-family="Helvetica,sans-Serif" font-size="10.00">/home/alexander/Documents</text>
<text text-anchor="start" x="474.5" y="-530.5" font-family="Helvetica,sans-Serif" font-size="10.00">/Seminars/TP/Project/src</text>
<text text-anchor="start" x="474.5" y="-519.5" font-family="Helvetica,sans-Serif" font-size="10.00">/general/requests/messages</text>
<text text-anchor="middle" x="545.5" y="-508.5" font-family="Helvetica,sans-Serif" font-size="10.00">/room_decorator.cpp</text>
</a>
</g>
</g>
<!-- Node1&#45;&gt;Node24 -->
<g id="edge28" class="edge">
<title>Node1&#45;&gt;Node24</title>
<path fill="none" stroke="midnightblue" d="M490.3,-583.08C500.15,-573.34 510.81,-562.8 520.1,-553.61"/>
<polygon fill="midnightblue" stroke="midnightblue" points="487.6,-580.82 482.95,-590.34 492.53,-585.79 487.6,-580.82"/>
</g>
<!-- Node3 -->
<g id="node3" class="node">
<title>Node3</title>
<g id="a_node3"><a xlink:href="console__renderer_8hpp.html" target="_top" xlink:title=" ">
<polygon fill="none" stroke="black" points="187,-418 187,-459 366,-459 366,-418 187,-418"/>
<text text-anchor="start" x="195" y="-447" font-family="Helvetica,sans-Serif" font-size="10.00">/home/alexander/Documents</text>
<text text-anchor="start" x="195" y="-436" font-family="Helvetica,sans-Serif" font-size="10.00">/Seminars/TP/Project/src</text>
<text text-anchor="middle" x="276.5" y="-425" font-family="Helvetica,sans-Serif" font-size="10.00">/client_side/console_renderer.hpp</text>
</a>
</g>
</g>
<!-- Node2&#45;&gt;Node3 -->
<g id="edge2" class="edge">
<title>Node2&#45;&gt;Node3</title>
<path fill="none" stroke="midnightblue" d="M334.95,-494.18C322.35,-482.39 308.49,-469.43 297.43,-459.08"/>
<polygon fill="midnightblue" stroke="midnightblue" points="332.91,-497.06 342.6,-501.34 337.69,-491.95 332.91,-497.06"/>
</g>
<!-- Node6 -->
<g id="node6" class="node">
<title>Node6</title>
<g id="a_node6"><a xlink:href="messages__builder_8hpp.html" target="_top" xlink:title=" ">
<polygon fill="none" stroke="black" points="466.5,-412.5 466.5,-464.5 624.5,-464.5 624.5,-412.5 466.5,-412.5"/>
<text text-anchor="start" x="474.5" y="-452.5" font-family="Helvetica,sans-Serif" font-size="10.00">/home/alexander/Documents</text>
<text text-anchor="start" x="474.5" y="-441.5" font-family="Helvetica,sans-Serif" font-size="10.00">/Seminars/TP/Project/src</text>
<text text-anchor="start" x="474.5" y="-430.5" font-family="Helvetica,sans-Serif" font-size="10.00">/general/requests/messages</text>
<text text-anchor="middle" x="545.5" y="-419.5" font-family="Helvetica,sans-Serif" font-size="10.00">/messages_builder.hpp</text>
</a>
</g>
</g>
<!-- Node2&#45;&gt;Node6 -->
<g id="edge5" class="edge">
<title>Node2&#45;&gt;Node6</title>
<path fill="none" stroke="midnightblue" d="M429.63,-496.78C450.81,-486.31 474.38,-474.66 494.71,-464.61"/>
<polygon fill="midnightblue" stroke="midnightblue" points="427.82,-493.77 420.41,-501.34 430.92,-500.04 427.82,-493.77"/>
</g>
<!-- Node4 -->
<g id="node4" class="node">
<title>Node4</title>
<g id="a_node4"><a xlink:href="console__renderer_8cpp.html" target="_top" xlink:title=" ">
<polygon fill="none" stroke="black" points="0,-329 0,-370 179,-370 179,-329 0,-329"/>
<text text-anchor="start" x="8" y="-358" font-family="Helvetica,sans-Serif" font-size="10.00">/home/alexander/Documents</text>
<text text-anchor="start" x="8" y="-347" font-family="Helvetica,sans-Serif" font-size="10.00">/Seminars/TP/Project/src</text>
<text text-anchor="middle" x="89.5" y="-336" font-family="Helvetica,sans-Serif" font-size="10.00">/client_side/console_renderer.cpp</text>
</a>
</g>
</g>
<!-- Node3&#45;&gt;Node4 -->
<g id="edge3" class="edge">
<title>Node3&#45;&gt;Node4</title>
<path fill="none" stroke="midnightblue" d="M225.25,-413.66C195.85,-399.98 159.38,-383.01 131.65,-370.11"/>
<polygon fill="midnightblue" stroke="midnightblue" points="223.99,-416.93 234.53,-417.98 226.94,-410.58 223.99,-416.93"/>
</g>
<!-- Node5 -->
<g id="node5" class="node">
<title>Node5</title>
<g id="a_node5"><a xlink:href="client__side_2main_8cpp.html" target="_top" xlink:title=" ">
<polygon fill="none" stroke="black" points="197.5,-329 197.5,-370 355.5,-370 355.5,-329 197.5,-329"/>
<text text-anchor="start" x="205.5" y="-358" font-family="Helvetica,sans-Serif" font-size="10.00">/home/alexander/Documents</text>
<text text-anchor="start" x="205.5" y="-347" font-family="Helvetica,sans-Serif" font-size="10.00">/Seminars/TP/Project/src</text>
<text text-anchor="middle" x="276.5" y="-336" font-family="Helvetica,sans-Serif" font-size="10.00">/client_side/main.cpp</text>
</a>
</g>
</g>
<!-- Node3&#45;&gt;Node5 -->
<g id="edge4" class="edge">
<title>Node3&#45;&gt;Node5</title>
<path fill="none" stroke="midnightblue" d="M276.5,-407.44C276.5,-395.1 276.5,-381.16 276.5,-370.16"/>
<polygon fill="midnightblue" stroke="midnightblue" points="273,-407.76 276.5,-417.76 280,-407.76 273,-407.76"/>
</g>
<!-- Node7 -->
<g id="node7" class="node">
<title>Node7</title>
<g id="a_node7"><a xlink:href="messages__builder_8cpp.html" target="_top" xlink:title=" ">
<polygon fill="none" stroke="black" points="373.5,-323.5 373.5,-375.5 531.5,-375.5 531.5,-323.5 373.5,-323.5"/>
<text text-anchor="start" x="381.5" y="-363.5" font-family="Helvetica,sans-Serif" font-size="10.00">/home/alexander/Documents</text>
<text text-anchor="start" x="381.5" y="-352.5" font-family="Helvetica,sans-Serif" font-size="10.00">/Seminars/TP/Project/src</text>
<text text-anchor="start" x="381.5" y="-341.5" font-family="Helvetica,sans-Serif" font-size="10.00">/general/requests/messages</text>
<text text-anchor="middle" x="452.5" y="-330.5" font-family="Helvetica,sans-Serif" font-size="10.00">/messages_builder.cpp</text>
</a>
</g>
</g>
<!-- Node6&#45;&gt;Node7 -->
<g id="edge6" class="edge">
<title>Node6&#45;&gt;Node7</title>
<path fill="none" stroke="midnightblue" d="M511.15,-405.36C500.65,-395.54 489.26,-384.89 479.34,-375.61"/>
<polygon fill="midnightblue" stroke="midnightblue" points="508.91,-408.06 518.6,-412.34 513.69,-402.95 508.91,-408.06"/>
</g>
<!-- Node8 -->
<g id="node8" class="node">
<title>Node8</title>
<g id="a_node8"><a xlink:href="request__creator_8hpp.html" target="_top" xlink:title=" ">
<polygon fill="none" stroke="black" points="549.5,-323.5 549.5,-375.5 707.5,-375.5 707.5,-323.5 549.5,-323.5"/>
<text text-anchor="start" x="557.5" y="-363.5" font-family="Helvetica,sans-Serif" font-size="10.00">/home/alexander/Documents</text>
<text text-anchor="start" x="557.5" y="-352.5" font-family="Helvetica,sans-Serif" font-size="10.00">/Seminars/TP/Project/src</text>
<text text-anchor="start" x="557.5" y="-341.5" font-family="Helvetica,sans-Serif" font-size="10.00">/general/requests/request</text>
<text text-anchor="middle" x="628.5" y="-330.5" font-family="Helvetica,sans-Serif" font-size="10.00">_creator.hpp</text>
</a>
</g>
</g>
<!-- Node6&#45;&gt;Node8 -->
<g id="edge7" class="edge">
<title>Node6&#45;&gt;Node8</title>
<path fill="none" stroke="midnightblue" d="M576.43,-405.08C585.73,-395.34 595.78,-384.8 604.55,-375.61"/>
<polygon fill="midnightblue" stroke="midnightblue" points="573.88,-402.68 569.51,-412.34 578.94,-407.52 573.88,-402.68"/>
</g>
<!-- Node22 -->
<g id="node22" class="node">
<title>Node22</title>
<g id="a_node22"><a xlink:href="request__parser_8hpp.html" target="_top" xlink:title=" ">
<polygon fill="none" stroke="black" points="763.5,-323.5 763.5,-375.5 921.5,-375.5 921.5,-323.5 763.5,-323.5"/>
<text text-anchor="start" x="771.5" y="-363.5" font-family="Helvetica,sans-Serif" font-size="10.00">/home/alexander/Documents</text>
<text text-anchor="start" x="771.5" y="-352.5" font-family="Helvetica,sans-Serif" font-size="10.00">/Seminars/TP/Project/src</text>
<text text-anchor="start" x="771.5" y="-341.5" font-family="Helvetica,sans-Serif" font-size="10.00">/general/requests/request</text>
<text text-anchor="middle" x="842.5" y="-330.5" font-family="Helvetica,sans-Serif" font-size="10.00">_parser.hpp</text>
</a>
</g>
</g>
<!-- Node6&#45;&gt;Node22 -->
<g id="edge25" class="edge">
<title>Node6&#45;&gt;Node22</title>
<path fill="none" stroke="midnightblue" d="M634.4,-411.46C675.36,-399.46 723.57,-385.34 763.26,-373.71"/>
<polygon fill="midnightblue" stroke="midnightblue" points="633.31,-408.13 624.7,-414.3 635.28,-414.85 633.31,-408.13"/>
</g>
<!-- Node9 -->
<g id="node9" class="node">
<title>Node9</title>
<g id="a_node9"><a xlink:href="abstract__handler_8cpp.html" target="_top" xlink:title=" ">
<polygon fill="none" stroke="black" points="763.5,-234.5 763.5,-286.5 921.5,-286.5 921.5,-234.5 763.5,-234.5"/>
<text text-anchor="start" x="771.5" y="-274.5" font-family="Helvetica,sans-Serif" font-size="10.00">/home/alexander/Documents</text>
<text text-anchor="start" x="771.5" y="-263.5" font-family="Helvetica,sans-Serif" font-size="10.00">/Seminars/TP/Project/src</text>
<text text-anchor="start" x="771.5" y="-252.5" font-family="Helvetica,sans-Serif" font-size="10.00">/general/request_handlers</text>
<text text-anchor="middle" x="842.5" y="-241.5" font-family="Helvetica,sans-Serif" font-size="10.00">/abstract_handler.cpp</text>
</a>
</g>
</g>
<!-- Node8&#45;&gt;Node9 -->
<g id="edge8" class="edge">
<title>Node8&#45;&gt;Node9</title>
<path fill="none" stroke="midnightblue" d="M699.65,-319.58C725.97,-308.88 755.56,-296.85 780.95,-286.52"/>
<polygon fill="midnightblue" stroke="midnightblue" points="698.06,-316.44 690.11,-323.45 700.69,-322.93 698.06,-316.44"/>
</g>
<!-- Node10 -->
<g id="node10" class="node">
<title>Node10</title>
<g id="a_node10"><a xlink:href="client__handler_8cpp.html" target="_top" xlink:title=" ">
<polygon fill="none" stroke="black" points="11.5,-234.5 11.5,-286.5 169.5,-286.5 169.5,-234.5 11.5,-234.5"/>
<text text-anchor="start" x="19.5" y="-274.5" font-family="Helvetica,sans-Serif" font-size="10.00">/home/alexander/Documents</text>
<text text-anchor="start" x="19.5" y="-263.5" font-family="Helvetica,sans-Serif" font-size="10.00">/Seminars/TP/Project/src</text>
<text text-anchor="start" x="19.5" y="-252.5" font-family="Helvetica,sans-Serif" font-size="10.00">/general/request_handlers</text>
<text text-anchor="middle" x="90.5" y="-241.5" font-family="Helvetica,sans-Serif" font-size="10.00">/client_handler.cpp</text>
</a>
</g>
</g>
<!-- Node8&#45;&gt;Node10 -->
<g id="edge9" class="edge">
<title>Node8&#45;&gt;Node10</title>
<path fill="none" stroke="midnightblue" d="M538.87,-322.84C379.43,-293.34 333.38,-317.3 177.5,-287 174.87,-286.49 172.21,-285.93 169.53,-285.34"/>
<polygon fill="midnightblue" stroke="midnightblue" points="538.56,-326.34 549.03,-324.77 539.86,-319.47 538.56,-326.34"/>
</g>
<!-- Node11 -->
<g id="node11" class="node">
<title>Node11</title>
<g id="a_node11"><a xlink:href="authorization__request_8cpp.html" target="_top" xlink:title=" ">
<polygon fill="none" stroke="black" points="187,-234.5 187,-286.5 356,-286.5 356,-234.5 187,-234.5"/>
<text text-anchor="start" x="195" y="-274.5" font-family="Helvetica,sans-Serif" font-size="10.00">/home/alexander/Documents</text>
<text text-anchor="start" x="195" y="-263.5" font-family="Helvetica,sans-Serif" font-size="10.00">/Seminars/TP/Project/src</text>
<text text-anchor="start" x="195" y="-252.5" font-family="Helvetica,sans-Serif" font-size="10.00">/general/requests/authorization</text>
<text text-anchor="middle" x="271.5" y="-241.5" font-family="Helvetica,sans-Serif" font-size="10.00">/authorization_request.cpp</text>
</a>
</g>
</g>
<!-- Node8&#45;&gt;Node11 -->
<g id="edge10" class="edge">
<title>Node8&#45;&gt;Node11</title>
<path fill="none" stroke="midnightblue" d="M539.59,-322.86C461.27,-303.98 439.12,-304.84 364.5,-287 361.73,-286.34 358.92,-285.65 356.09,-284.95"/>
<polygon fill="midnightblue" stroke="midnightblue" points="538.88,-326.29 549.43,-325.26 540.54,-319.49 538.88,-326.29"/>
</g>
<!-- Node12 -->
<g id="node12" class="node">
<title>Node12</title>
<g id="a_node12"><a xlink:href="request__creator_8cpp.html" target="_top" xlink:title=" ">
<polygon fill="none" stroke="black" points="373.5,-234.5 373.5,-286.5 531.5,-286.5 531.5,-234.5 373.5,-234.5"/>
<text text-anchor="start" x="381.5" y="-274.5" font-family="Helvetica,sans-Serif" font-size="10.00">/home/alexander/Documents</text>
<text text-anchor="start" x="381.5" y="-263.5" font-family="Helvetica,sans-Serif" font-size="10.00">/Seminars/TP/Project/src</text>
<text text-anchor="start" x="381.5" y="-252.5" font-family="Helvetica,sans-Serif" font-size="10.00">/general/requests/request</text>
<text text-anchor="middle" x="452.5" y="-241.5" font-family="Helvetica,sans-Serif" font-size="10.00">_creator.cpp</text>
</a>
</g>
</g>
<!-- Node8&#45;&gt;Node12 -->
<g id="edge11" class="edge">
<title>Node8&#45;&gt;Node12</title>
<path fill="none" stroke="midnightblue" d="M568.37,-318.78C547.19,-308.31 523.62,-296.66 503.29,-286.61"/>
<polygon fill="midnightblue" stroke="midnightblue" points="567.08,-322.04 577.59,-323.34 570.18,-315.77 567.08,-322.04"/>
</g>
<!-- Node13 -->
<g id="node13" class="node">
<title>Node13</title>
<g id="a_node13"><a xlink:href="room_8hpp.html" target="_top" xlink:title=" ">
<polygon fill="none" stroke="black" points="549.5,-240 549.5,-281 707.5,-281 707.5,-240 549.5,-240"/>
<text text-anchor="start" x="557.5" y="-269" font-family="Helvetica,sans-Serif" font-size="10.00">/home/alexander/Documents</text>
<text text-anchor="start" x="557.5" y="-258" font-family="Helvetica,sans-Serif" font-size="10.00">/Seminars/TP/Project/src</text>
<text text-anchor="middle" x="628.5" y="-247" font-family="Helvetica,sans-Serif" font-size="10.00">/server_side/room.hpp</text>
</a>
</g>
</g>
<!-- Node8&#45;&gt;Node13 -->
<g id="edge12" class="edge">
<title>Node8&#45;&gt;Node13</title>
<path fill="none" stroke="midnightblue" d="M628.5,-313.16C628.5,-302.21 628.5,-290.55 628.5,-281.08"/>
<polygon fill="midnightblue" stroke="midnightblue" points="625,-313.34 628.5,-323.34 632,-313.34 625,-313.34"/>
</g>
<!-- Node18 -->
<g id="node18" class="node">
<title>Node18</title>
<g id="a_node18"><a xlink:href="server_8hpp.html" target="_top" xlink:title=" ">
<polygon fill="none" stroke="black" points="690.5,-156.5 690.5,-197.5 848.5,-197.5 848.5,-156.5 690.5,-156.5"/>
<text text-anchor="start" x="698.5" y="-185.5" font-family="Helvetica,sans-Serif" font-size="10.00">/home/alexander/Documents</text>
<text text-anchor="start" x="698.5" y="-174.5" font-family="Helvetica,sans-Serif" font-size="10.00">/Seminars/TP/Project/src</text>
<text text-anchor="middle" x="769.5" y="-163.5" font-family="Helvetica,sans-Serif" font-size="10.00">/server_side/server.hpp</text>
</a>
</g>
</g>
<!-- Node8&#45;&gt;Node18 -->
<g id="edge24" class="edge">
<title>Node8&#45;&gt;Node18</title>
<path fill="none" stroke="midnightblue" d="M682.16,-317.49C694.46,-308.71 706.76,-298.4 716.5,-287 739.59,-259.96 755.29,-221.12 763.3,-197.84"/>
<polygon fill="midnightblue" stroke="midnightblue" points="679.94,-314.77 673.68,-323.31 683.9,-320.54 679.94,-314.77"/>
</g>
<!-- Node14 -->
<g id="node14" class="node">
<title>Node14</title>
<g id="a_node14"><a xlink:href="client__connection_8hpp.html" target="_top" xlink:title=" ">
<polygon fill="none" stroke="black" points="416,-78.5 416,-119.5 601,-119.5 601,-78.5 416,-78.5"/>
<text text-anchor="start" x="424" y="-107.5" font-family="Helvetica,sans-Serif" font-size="10.00">/home/alexander/Documents</text>
<text text-anchor="start" x="424" y="-96.5" font-family="Helvetica,sans-Serif" font-size="10.00">/Seminars/TP/Project/src</text>
<text text-anchor="middle" x="508.5" y="-85.5" font-family="Helvetica,sans-Serif" font-size="10.00">/server_side/client_connection.hpp</text>
</a>
</g>
</g>
<!-- Node13&#45;&gt;Node14 -->
<g id="edge13" class="edge">
<title>Node13&#45;&gt;Node14</title>
<path fill="none" stroke="midnightblue" d="M548.57,-235.46C531.51,-226.49 515.6,-214.34 505.5,-198 490.82,-174.25 496.18,-140.71 501.93,-119.67"/>
<polygon fill="midnightblue" stroke="midnightblue" points="547.05,-238.61 557.57,-239.87 550.13,-232.33 547.05,-238.61"/>
</g>
<!-- Node17 -->
<g id="node17" class="node">
<title>Node17</title>
<g id="a_node17"><a xlink:href="room_8cpp.html" target="_top" xlink:title=" ">
<polygon fill="none" stroke="black" points="514.5,-156.5 514.5,-197.5 672.5,-197.5 672.5,-156.5 514.5,-156.5"/>
<text text-anchor="start" x="522.5" y="-185.5" font-family="Helvetica,sans-Serif" font-size="10.00">/home/alexander/Documents</text>
<text text-anchor="start" x="522.5" y="-174.5" font-family="Helvetica,sans-Serif" font-size="10.00">/Seminars/TP/Project/src</text>
<text text-anchor="middle" x="593.5" y="-163.5" font-family="Helvetica,sans-Serif" font-size="10.00">/server_side/room.cpp</text>
</a>
</g>
</g>
<!-- Node13&#45;&gt;Node17 -->
<g id="edge16" class="edge">
<title>Node13&#45;&gt;Node17</title>
<path fill="none" stroke="midnightblue" d="M616.07,-230.56C611.37,-219.62 606.14,-207.43 601.89,-197.55"/>
<polygon fill="midnightblue" stroke="midnightblue" points="612.87,-231.96 620.03,-239.77 619.3,-229.2 612.87,-231.96"/>
</g>
<!-- Node13&#45;&gt;Node18 -->
<g id="edge17" class="edge">
<title>Node13&#45;&gt;Node18</title>
<path fill="none" stroke="midnightblue" d="M671.15,-234.85C691.77,-222.93 716.17,-208.82 735.51,-197.64"/>
<polygon fill="midnightblue" stroke="midnightblue" points="669.18,-231.94 662.27,-239.98 672.68,-238 669.18,-231.94"/>
</g>
<!-- Node15 -->
<g id="node15" class="node">
<title>Node15</title>
<g id="a_node15"><a xlink:href="client__connection_8cpp.html" target="_top" xlink:title=" ">
<polygon fill="none" stroke="black" points="285,-0.5 285,-41.5 470,-41.5 470,-0.5 285,-0.5"/>
<text text-anchor="start" x="293" y="-29.5" font-family="Helvetica,sans-Serif" font-size="10.00">/home/alexander/Documents</text>
<text text-anchor="start" x="293" y="-18.5" font-family="Helvetica,sans-Serif" font-size="10.00">/Seminars/TP/Project/src</text>
<text text-anchor="middle" x="377.5" y="-7.5" font-family="Helvetica,sans-Serif" font-size="10.00">/server_side/client_connection.cpp</text>
</a>
</g>
</g>
<!-- Node14&#45;&gt;Node15 -->
<g id="edge14" class="edge">
<title>Node14&#45;&gt;Node15</title>
<path fill="none" stroke="midnightblue" d="M465.76,-73.2C448.03,-62.92 427.76,-51.16 411.12,-41.51"/>
<polygon fill="midnightblue" stroke="midnightblue" points="464.36,-76.44 474.76,-78.43 467.87,-70.38 464.36,-76.44"/>
</g>
<!-- Node16 -->
<g id="node16" class="node">
<title>Node16</title>
<g id="a_node16"><a xlink:href="server_8cpp.html" target="_top" xlink:title=" ">
<polygon fill="none" stroke="black" points="487.5,-0.5 487.5,-41.5 645.5,-41.5 645.5,-0.5 487.5,-0.5"/>
<text text-anchor="start" x="495.5" y="-29.5" font-family="Helvetica,sans-Serif" font-size="10.00">/home/alexander/Documents</text>
<text text-anchor="start" x="495.5" y="-18.5" font-family="Helvetica,sans-Serif" font-size="10.00">/Seminars/TP/Project/src</text>
<text text-anchor="middle" x="566.5" y="-7.5" font-family="Helvetica,sans-Serif" font-size="10.00">/server_side/server.cpp</text>
</a>
</g>
</g>
<!-- Node14&#45;&gt;Node16 -->
<g id="edge15" class="edge">
<title>Node14&#45;&gt;Node16</title>
<path fill="none" stroke="midnightblue" d="M529.61,-70.34C536.91,-60.78 544.92,-50.27 551.61,-41.51"/>
<polygon fill="midnightblue" stroke="midnightblue" points="526.72,-68.36 523.44,-78.43 532.29,-72.6 526.72,-68.36"/>
</g>
<!-- Node18&#45;&gt;Node14 -->
<g id="edge18" class="edge">
<title>Node18&#45;&gt;Node14</title>
<path fill="none" stroke="midnightblue" d="M692.51,-153.58C655.36,-142.76 611.22,-129.91 575.49,-119.51"/>
<polygon fill="midnightblue" stroke="midnightblue" points="691.71,-156.99 702.29,-156.43 693.66,-150.27 691.71,-156.99"/>
</g>
<!-- Node18&#45;&gt;Node16 -->
<g id="edge23" class="edge">
<title>Node18&#45;&gt;Node16</title>
<path fill="none" stroke="midnightblue" d="M720.65,-151.42C704.19,-142.35 686.06,-131.47 670.5,-120 637.75,-95.86 604.28,-62.43 584.45,-41.52"/>
<polygon fill="midnightblue" stroke="midnightblue" points="719.14,-154.59 729.6,-156.27 722.47,-148.43 719.14,-154.59"/>
</g>
<!-- Node19 -->
<g id="node19" class="node">
<title>Node19</title>
<g id="a_node19"><a xlink:href="server__side_2console__handler_8hpp.html" target="_top" xlink:title=" ">
<polygon fill="none" stroke="black" points="680,-78.5 680,-119.5 859,-119.5 859,-78.5 680,-78.5"/>
<text text-anchor="start" x="688" y="-107.5" font-family="Helvetica,sans-Serif" font-size="10.00">/home/alexander/Documents</text>
<text text-anchor="start" x="688" y="-96.5" font-family="Helvetica,sans-Serif" font-size="10.00">/Seminars/TP/Project/src</text>
<text text-anchor="middle" x="769.5" y="-85.5" font-family="Helvetica,sans-Serif" font-size="10.00">/server_side/console_handler.hpp</text>
</a>
</g>
</g>
<!-- Node18&#45;&gt;Node19 -->
<g id="edge19" class="edge">
<title>Node18&#45;&gt;Node19</title>
<path fill="none" stroke="midnightblue" d="M769.5,-146.3C769.5,-137.3 769.5,-127.65 769.5,-119.51"/>
<polygon fill="midnightblue" stroke="midnightblue" points="766,-146.43 769.5,-156.43 773,-146.43 766,-146.43"/>
</g>
<!-- Node21 -->
<g id="node21" class="node">
<title>Node21</title>
<g id="a_node21"><a xlink:href="server__side_2main_8cpp.html" target="_top" xlink:title=" ">
<polygon fill="none" stroke="black" points="859.5,-0.5 859.5,-41.5 1017.5,-41.5 1017.5,-0.5 859.5,-0.5"/>
<text text-anchor="start" x="867.5" y="-29.5" font-family="Helvetica,sans-Serif" font-size="10.00">/home/alexander/Documents</text>
<text text-anchor="start" x="867.5" y="-18.5" font-family="Helvetica,sans-Serif" font-size="10.00">/Seminars/TP/Project/src</text>
<text text-anchor="middle" x="938.5" y="-7.5" font-family="Helvetica,sans-Serif" font-size="10.00">/server_side/main.cpp</text>
</a>
</g>
</g>
<!-- Node18&#45;&gt;Node21 -->
<g id="edge22" class="edge">
<title>Node18&#45;&gt;Node21</title>
<path fill="none" stroke="midnightblue" d="M822.73,-151.45C838.43,-142.79 855,-132.14 868.5,-120 894.15,-96.93 915.81,-62.88 927.97,-41.6"/>
<polygon fill="midnightblue" stroke="midnightblue" points="820.79,-148.51 813.62,-156.31 824.09,-154.69 820.79,-148.51"/>
</g>
<!-- Node20 -->
<g id="node20" class="node">
<title>Node20</title>
<g id="a_node20"><a xlink:href="server__side_2console__handler_8cpp.html" target="_top" xlink:title=" ">
<polygon fill="none" stroke="black" points="663.5,-0.5 663.5,-41.5 841.5,-41.5 841.5,-0.5 663.5,-0.5"/>
<text text-anchor="start" x="671.5" y="-29.5" font-family="Helvetica,sans-Serif" font-size="10.00">/home/alexander/Documents</text>
<text text-anchor="start" x="671.5" y="-18.5" font-family="Helvetica,sans-Serif" font-size="10.00">/Seminars/TP/Project/src</text>
<text text-anchor="middle" x="752.5" y="-7.5" font-family="Helvetica,sans-Serif" font-size="10.00">/server_side/console_handler.cpp</text>
</a>
</g>
</g>
<!-- Node19&#45;&gt;Node20 -->
<g id="edge20" class="edge">
<title>Node19&#45;&gt;Node20</title>
<path fill="none" stroke="midnightblue" d="M762.92,-68.59C760.89,-59.51 758.71,-49.74 756.86,-41.51"/>
<polygon fill="midnightblue" stroke="midnightblue" points="759.52,-69.43 765.12,-78.43 766.35,-67.91 759.52,-69.43"/>
</g>
<!-- Node19&#45;&gt;Node21 -->
<g id="edge21" class="edge">
<title>Node19&#45;&gt;Node21</title>
<path fill="none" stroke="midnightblue" d="M822.45,-74.19C845.83,-63.67 872.97,-51.47 895.13,-41.51"/>
<polygon fill="midnightblue" stroke="midnightblue" points="820.71,-71.13 813.02,-78.43 823.58,-77.52 820.71,-71.13"/>
</g>
<!-- Node22&#45;&gt;Node9 -->
<g id="edge26" class="edge">
<title>Node22&#45;&gt;Node9</title>
<path fill="none" stroke="midnightblue" d="M842.5,-313.19C842.5,-304.28 842.5,-294.9 842.5,-286.61"/>
<polygon fill="midnightblue" stroke="midnightblue" points="839,-313.34 842.5,-323.34 846,-313.34 839,-313.34"/>
</g>
<!-- Node23 -->
<g id="node23" class="node">
<title>Node23</title>
<g id="a_node23"><a xlink:href="request__parser_8cpp.html" target="_top" xlink:title=" ">
<polygon fill="none" stroke="black" points="939.5,-234.5 939.5,-286.5 1097.5,-286.5 1097.5,-234.5 939.5,-234.5"/>
<text text-anchor="start" x="947.5" y="-274.5" font-family="Helvetica,sans-Serif" font-size="10.00">/home/alexander/Documents</text>
<text text-anchor="start" x="947.5" y="-263.5" font-family="Helvetica,sans-Serif" font-size="10.00">/Seminars/TP/Project/src</text>
<text text-anchor="start" x="947.5" y="-252.5" font-family="Helvetica,sans-Serif" font-size="10.00">/general/requests/request</text>
<text text-anchor="middle" x="1018.5" y="-241.5" font-family="Helvetica,sans-Serif" font-size="10.00">_parser.cpp</text>
</a>
</g>
</g>
<!-- Node22&#45;&gt;Node23 -->
<g id="edge27" class="edge">
<title>Node22&#45;&gt;Node23</title>
<path fill="none" stroke="midnightblue" d="M902.63,-318.78C923.81,-308.31 947.38,-296.66 967.71,-286.61"/>
<polygon fill="midnightblue" stroke="midnightblue" points="900.82,-315.77 893.41,-323.34 903.92,-322.04 900.82,-315.77"/>
</g>
</g>
</svg>
        <g id="navigator" transform="translate(0 0)" fill="#404254">
                <rect fill="#f2f5e9" fill-opacity="0.5" stroke="#606060" stroke-width=".5" x="0" y="0" width="60" height="60"/>
                <use id="zoomplus" xlink:href="#zoomPlus" x="17" y="9" onmousedown="handleZoom(evt,'in')"/>
                <use id="zoomminus" xlink:href="#zoomMin" x="42" y="9" onmousedown="handleZoom(evt,'out')"/>
                <use id="reset" xlink:href="#resetDef" x="30" y="36" onmousedown="handleReset()"/>
                <g id="arrowUp" xlink:href="#dirArrow" transform="translate(30 24)" onmousedown="handlePan(0,-1)">
                  <use xlink:href="#rim" fill="#404040">
                        <set attributeName="fill" to="#808080" begin="arrowUp.mouseover" end="arrowUp.mouseout"/>
                  </use>
                  <path fill="none" stroke="white" stroke-width="1.5" d="M0,-3.0v7 M-2.5,-0.5L0,-3.0L2.5,-0.5"/>
                </g>
                <g id="arrowRight" xlink:href="#dirArrow" transform="rotate(90) translate(36 -43)" onmousedown="handlePan(1,0)">
                  <use xlink:href="#rim" fill="#404040">
                        <set attributeName="fill" to="#808080" begin="arrowRight.mouseover" end="arrowRight.mouseout"/>
                  </use>
                  <path fill="none" stroke="white" stroke-width="1.5" d="M0,-3.0v7 M-2.5,-0.5L0,-3.0L2.5,-0.5"/>
                </g>
                <g id="arrowDown" xlink:href="#dirArrow" transform="rotate(180) translate(-30 -48)" onmousedown="handlePan(0,1)">
                  <use xlink:href="#rim" fill="#404040">
                        <set attributeName="fill" to="#808080" begin="arrowDown.mouseover" end="arrowDown.mouseout"/>
                  </use>
                  <path fill="none" stroke="white" stroke-width="1.5" d="M0,-3.0v7 M-2.5,-0.5L0,-3.0L2.5,-0.5"/>
                </g>
                <g id="arrowLeft" xlink:href="#dirArrow" transform="rotate(270) translate(-36 17)" onmousedown="handlePan(-1,0)">
                  <use xlink:href="#rim" fill="#404040">
                        <set attributeName="fill" to="#808080" begin="arrowLeft.mouseover" end="arrowLeft.mouseout"/>
                  </use>
                  <path fill="none" stroke="white" stroke-width="1.5" d="M0,-3.0v7 M-2.5,-0.5L0,-3.0L2.5,-0.5"/>
                </g>
        </g>
        <svg viewBox="0 0 15 15" width="100%" height="30px" preserveAspectRatio="xMaxYMin meet">
         <g id="arrow_out" transform="scale(0.3 0.3)">
          <a xlink:href="room__decorator_8hpp__dep__incl_org.svg" target="_base">
           <rect id="button" ry="5" rx="5" y="6" x="6" height="38" width="38"
                fill="#f2f5e9" fill-opacity="0.5" stroke="#606060" stroke-width="1.0"/>
           <path id="arrow"
             d="M 11.500037,31.436501 C 11.940474,20.09759 22.043105,11.32322 32.158766,21.979434 L 37.068811,17.246167 C 37.068811,17.246167 37.088388,32 37.088388,32 L 22.160133,31.978069 C 22.160133,31.978069 26.997745,27.140456 26.997745,27.140456 C 18.528582,18.264221 13.291696,25.230495 11.500037,31.436501 z"
             style="fill:#404040;"/>
          </a>
         </g>
        </svg>
</svg>
