<?xml version="1.0" encoding="UTF-8" standalone="no"?>
<!DOCTYPE svg PUBLIC "-//W3C//DTD SVG 1.1//EN"
 "http://www.w3.org/Graphics/SVG/1.1/DTD/svg11.dtd">
<!-- Generated by graphviz version 2.43.0 (0)
 -->
<!-- Title: main Pages: 1 -->
<svg width="230pt" height="154pt"
 viewBox="0.00 0.00 230.00 154.00" xmlns="http://www.w3.org/2000/svg" xmlns:xlink="http://www.w3.org/1999/xlink">
<g id="graph0" class="graph" transform="scale(1 1) rotate(0) translate(4 150)">
<title>main</title>
<!-- Node1 -->
<g id="node1" class="node">
<title>Node1</title>
<g id="a_node1"><a xlink:title=" ">
<polygon fill="#bfbfbf" stroke="black" points="0,-66.5 0,-85.5 41,-85.5 41,-66.5 0,-66.5"/>
<text text-anchor="middle" x="20.5" y="-73.5" font-family="Helvetica,sans-Serif" font-size="10.00">main</text>
</a>
</g>
</g>
<!-- Node2 -->
<g id="node2" class="node">
<title>Node2</title>
<g id="a_node2"><a xlink:href="class_simple_database.html#a2058ece362d4ba81bb4289961397e059" target="_top" xlink:title=" ">
<polygon fill="none" stroke="black" points="77,-126.5 77,-145.5 222,-145.5 222,-126.5 77,-126.5"/>
<text text-anchor="middle" x="149.5" y="-133.5" font-family="Helvetica,sans-Serif" font-size="10.00">SimpleDatabase::initialize</text>
</a>
</g>
</g>
<!-- Node1&#45;&gt;Node2 -->
<g id="edge1" class="edge">
<title>Node1&#45;&gt;Node2</title>
<path fill="none" stroke="midnightblue" d="M32.17,-85.82C42.8,-95.11 59.94,-108.8 77,-117 81.92,-119.36 87.18,-121.47 92.52,-123.33"/>
<polygon fill="midnightblue" stroke="midnightblue" points="91.6,-126.71 102.19,-126.43 93.74,-120.04 91.6,-126.71"/>
</g>
<!-- Node3 -->
<g id="node3" class="node">
<title>Node3</title>
<g id="a_node3"><a xlink:href="class_server_logger.html#a51607aec776dc72c9bac2f0599689137" target="_top" xlink:title=" ">
<polygon fill="none" stroke="black" points="85,-88.5 85,-107.5 214,-107.5 214,-88.5 85,-88.5"/>
<text text-anchor="middle" x="149.5" y="-95.5" font-family="Helvetica,sans-Serif" font-size="10.00">ServerLogger::initialize</text>
</a>
</g>
</g>
<!-- Node1&#45;&gt;Node3 -->
<g id="edge2" class="edge">
<title>Node1&#45;&gt;Node3</title>
<path fill="none" stroke="midnightblue" d="M41.07,-79.39C52.59,-81.39 67.91,-84.04 83.36,-86.72"/>
<polygon fill="midnightblue" stroke="midnightblue" points="83.04,-90.21 93.5,-88.47 84.24,-83.32 83.04,-90.21"/>
</g>
<!-- Node4 -->
<g id="node4" class="node">
<title>Node4</title>
<g id="a_node4"><a xlink:href="class_server_permissions_bank.html#ad04a1ec42ac07dea616e237887d0d3bb" target="_top" xlink:title=" ">
<polygon fill="none" stroke="black" points="83.5,-39 83.5,-69 215.5,-69 215.5,-39 83.5,-39"/>
<text text-anchor="start" x="91.5" y="-57" font-family="Helvetica,sans-Serif" font-size="10.00">ServerPermissionsBank</text>
<text text-anchor="middle" x="149.5" y="-46" font-family="Helvetica,sans-Serif" font-size="10.00">::initialize</text>
</a>
</g>
</g>
<!-- Node1&#45;&gt;Node4 -->
<g id="edge3" class="edge">
<title>Node1&#45;&gt;Node4</title>
<path fill="none" stroke="midnightblue" d="M41.07,-72.61C50.09,-71.05 61.43,-69.08 73.35,-67.02"/>
<polygon fill="midnightblue" stroke="midnightblue" points="74.19,-70.42 83.45,-65.27 73,-63.53 74.19,-70.42"/>
</g>
<!-- Node5 -->
<g id="node5" class="node">
<title>Node5</title>
<g id="a_node5"><a xlink:href="class_logger.html#acbb274646e574604da4b7ddea476bae9" target="_top" xlink:title=" ">
<polygon fill="none" stroke="black" points="114,-0.5 114,-19.5 185,-19.5 185,-0.5 114,-0.5"/>
<text text-anchor="middle" x="149.5" y="-7.5" font-family="Helvetica,sans-Serif" font-size="10.00">Logger::log</text>
</a>
</g>
</g>
<!-- Node1&#45;&gt;Node5 -->
<g id="edge4" class="edge">
<title>Node1&#45;&gt;Node5</title>
<path fill="none" stroke="midnightblue" d="M30.81,-66.14C41.15,-55.72 58.82,-39.52 77,-30 85.39,-25.61 94.84,-22.09 104.07,-19.31"/>
<polygon fill="midnightblue" stroke="midnightblue" points="105.23,-22.62 113.93,-16.57 103.36,-15.87 105.23,-22.62"/>
</g>
</g>
</svg>
