<?xml version="1.0" encoding="UTF-8" standalone="no"?>
<!DOCTYPE svg PUBLIC "-//W3C//DTD SVG 1.1//EN"
 "http://www.w3.org/Graphics/SVG/1.1/DTD/svg11.dtd">
<!-- Generated by graphviz version 2.43.0 (0)
 -->
<!-- Title: /home/alexander/Documents/Seminars/TP/Project/src/general/request_handlers/server_handler.cpp Pages: 1 -->
<!--zoomable 408 -->
<svg id="main" version="1.1" xmlns="http://www.w3.org/2000/svg" xmlns:xlink="http://www.w3.org/1999/xlink" xml:space="preserve" onload="init(evt)">
<style type="text/css"><![CDATA[
.edge:hover path { stroke: red; }
.edge:hover polygon { stroke: red; fill: red; }
]]></style>
<script type="text/javascript"><![CDATA[
var edges = document.getElementsByTagName('g');
if (edges && edges.length) {
  for (var i=0;i<edges.length;i++) {
    if (edges[i].id.substr(0,4)=='edge') {
      edges[i].setAttribute('class','edge');
    }
  }
}
]]></script>
        <defs>
                <circle id="rim" cx="0" cy="0" r="7"/>
                <circle id="rim2" cx="0" cy="0" r="3.5"/>
                <g id="zoomPlus">
                        <use xlink:href="#rim" fill="#404040">
                                <set attributeName="fill" to="#808080" begin="zoomplus.mouseover" end="zoomplus.mouseout"/>
                        </use>
                        <path d="M-4,0h8M0,-4v8" fill="none" stroke="white" stroke-width="1.5" pointer-events="none"/>
                </g>
                <g id="zoomMin">
                        <use xlink:href="#rim" fill="#404040">
                                <set attributeName="fill" to="#808080" begin="zoomminus.mouseover" end="zoomminus.mouseout"/>
                        </use>
                        <path d="M-4,0h8" fill="none" stroke="white" stroke-width="1.5" pointer-events="none"/>
                </g>
                <g id="dirArrow">
                        <path fill="none" stroke="white" stroke-width="1.5" d="M0,-3.0v7 M-2.5,-0.5L0,-3.0L2.5,-0.5"/>
                </g>
               <g id="resetDef">
                       <use xlink:href="#rim2" fill="#404040">
                               <set attributeName="fill" to="#808080" begin="reset.mouseover" end="reset.mouseout"/>
                       </use>
               </g>
        </defs>

<script type="text/javascript">
var viewWidth = 648;
var viewHeight = 408;
var sectionId = 'dynsection-0';
</script>
<script xlink:href="svgpan.js"/>
<svg id="graph" class="graph">
<g id="viewport">
<title>/home/alexander/Documents/Seminars/TP/Project/src/general/request_handlers/server_handler.cpp</title>
<!-- Node1 -->
<g id="node1" class="node">
<title>Node1</title>
<g id="a_node1"><a xlink:title=" ">
<polygon fill="#bfbfbf" stroke="black" points="221.5,-347.5 221.5,-399.5 379.5,-399.5 379.5,-347.5 221.5,-347.5"/>
<text text-anchor="start" x="229.5" y="-387.5" font-family="Helvetica,sans-Serif" font-size="10.00">/home/alexander/Documents</text>
<text text-anchor="start" x="229.5" y="-376.5" font-family="Helvetica,sans-Serif" font-size="10.00">/Seminars/TP/Project/src</text>
<text text-anchor="start" x="229.5" y="-365.5" font-family="Helvetica,sans-Serif" font-size="10.00">/general/request_handlers</text>
<text text-anchor="middle" x="300.5" y="-354.5" font-family="Helvetica,sans-Serif" font-size="10.00">/server_handler.cpp</text>
</a>
</g>
</g>
<!-- Node2 -->
<g id="node2" class="node">
<title>Node2</title>
<g id="a_node2"><a xlink:href="server__handler_8hpp.html" target="_top" xlink:title=" ">
<polygon fill="none" stroke="black" points="201.5,-230 201.5,-249 311.5,-249 311.5,-230 201.5,-230"/>
<text text-anchor="middle" x="256.5" y="-237" font-family="Helvetica,sans-Serif" font-size="10.00">server_handler.hpp</text>
</a>
</g>
</g>
<!-- Node1&#45;&gt;Node2 -->
<g id="edge1" class="edge">
<title>Node1&#45;&gt;Node2</title>
<path fill="none" stroke="midnightblue" d="M289.45,-347.33C284.82,-336.3 279.58,-323.12 275.5,-311 269.69,-293.75 264.42,-273.66 260.91,-259.36"/>
<polygon fill="midnightblue" stroke="midnightblue" points="264.23,-258.2 258.5,-249.29 257.43,-259.83 264.23,-258.2"/>
</g>
<!-- Node15 -->
<g id="node15" class="node">
<title>Node15</title>
<g id="a_node15"><a xlink:href="request_8hpp.html" target="_top" xlink:title=" ">
<polygon fill="none" stroke="black" points="285,-291.5 285,-310.5 404,-310.5 404,-291.5 285,-291.5"/>
<text text-anchor="middle" x="344.5" y="-298.5" font-family="Helvetica,sans-Serif" font-size="10.00">requests/request.hpp</text>
</a>
</g>
</g>
<!-- Node1&#45;&gt;Node15 -->
<g id="edge18" class="edge">
<title>Node1&#45;&gt;Node15</title>
<path fill="none" stroke="midnightblue" d="M316.14,-347.45C321.95,-338.13 328.42,-327.77 333.7,-319.3"/>
<polygon fill="midnightblue" stroke="midnightblue" points="336.75,-321.03 339.07,-310.7 330.81,-317.33 336.75,-321.03"/>
</g>
<!-- Node3 -->
<g id="node3" class="node">
<title>Node3</title>
<g id="a_node3"><a xlink:title=" ">
<polygon fill="none" stroke="#bfbfbf" points="210,-168.5 210,-187.5 303,-187.5 303,-168.5 210,-168.5"/>
<text text-anchor="middle" x="256.5" y="-175.5" font-family="Helvetica,sans-Serif" font-size="10.00">unordered_map</text>
</a>
</g>
</g>
<!-- Node2&#45;&gt;Node3 -->
<g id="edge2" class="edge">
<title>Node2&#45;&gt;Node3</title>
<path fill="none" stroke="midnightblue" d="M256.5,-229.98C256.5,-221.58 256.5,-208.48 256.5,-197.66"/>
<polygon fill="midnightblue" stroke="midnightblue" points="260,-197.51 256.5,-187.51 253,-197.51 260,-197.51"/>
</g>
<!-- Node4 -->
<g id="node4" class="node">
<title>Node4</title>
<g id="a_node4"><a xlink:href="abstract__handler_8hpp.html" target="_top" xlink:title=" ">
<polygon fill="none" stroke="black" points="368,-168.5 368,-187.5 487,-187.5 487,-168.5 368,-168.5"/>
<text text-anchor="middle" x="427.5" y="-175.5" font-family="Helvetica,sans-Serif" font-size="10.00">abstract_handler.hpp</text>
</a>
</g>
</g>
<!-- Node2&#45;&gt;Node4 -->
<g id="edge3" class="edge">
<title>Node2&#45;&gt;Node4</title>
<path fill="none" stroke="midnightblue" d="M281,-229.98C310.46,-219.72 360.08,-202.46 393.3,-190.9"/>
<polygon fill="midnightblue" stroke="midnightblue" points="394.75,-194.1 403.05,-187.51 392.45,-187.49 394.75,-194.1"/>
</g>
<!-- Node5 -->
<g id="node5" class="node">
<title>Node5</title>
<g id="a_node5"><a xlink:title=" ">
<polygon fill="none" stroke="#bfbfbf" points="424.5,-0.5 424.5,-19.5 482.5,-19.5 482.5,-0.5 424.5,-0.5"/>
<text text-anchor="middle" x="453.5" y="-7.5" font-family="Helvetica,sans-Serif" font-size="10.00">memory</text>
</a>
</g>
</g>
<!-- Node4&#45;&gt;Node5 -->
<g id="edge4" class="edge">
<title>Node4&#45;&gt;Node5</title>
<path fill="none" stroke="midnightblue" d="M439.26,-168.33C459.47,-152.6 500.08,-117.16 515.5,-76 518.62,-67.68 519.54,-63.92 515.5,-56 508.5,-42.27 495.13,-31.75 482.6,-24.35"/>
<polygon fill="midnightblue" stroke="midnightblue" points="484.18,-21.22 473.72,-19.51 480.83,-27.37 484.18,-21.22"/>
</g>
<!-- Node6 -->
<g id="node6" class="node">
<title>Node6</title>
<g id="a_node6"><a xlink:href="account_8hpp.html" target="_top" xlink:title=" ">
<polygon fill="none" stroke="black" points="378.5,-112.5 378.5,-131.5 454.5,-131.5 454.5,-112.5 378.5,-112.5"/>
<text text-anchor="middle" x="416.5" y="-119.5" font-family="Helvetica,sans-Serif" font-size="10.00">account.hpp</text>
</a>
</g>
</g>
<!-- Node4&#45;&gt;Node6 -->
<g id="edge5" class="edge">
<title>Node4&#45;&gt;Node6</title>
<path fill="none" stroke="midnightblue" d="M425.68,-168.08C424.23,-160.93 422.13,-150.64 420.31,-141.69"/>
<polygon fill="midnightblue" stroke="midnightblue" points="423.71,-140.85 418.28,-131.75 416.85,-142.25 423.71,-140.85"/>
</g>
<!-- Node10 -->
<g id="node10" class="node">
<title>Node10</title>
<g id="a_node10"><a xlink:href="socket_8hpp.html" target="_top" xlink:title=" ">
<polygon fill="none" stroke="black" points="150.5,-112.5 150.5,-131.5 254.5,-131.5 254.5,-112.5 150.5,-112.5"/>
<text text-anchor="middle" x="202.5" y="-119.5" font-family="Helvetica,sans-Serif" font-size="10.00">socket/socket.hpp</text>
</a>
</g>
</g>
<!-- Node4&#45;&gt;Node10 -->
<g id="edge10" class="edge">
<title>Node4&#45;&gt;Node10</title>
<path fill="none" stroke="midnightblue" d="M391.85,-168.44C352.84,-159.08 290.23,-144.06 247.78,-133.87"/>
<polygon fill="midnightblue" stroke="midnightblue" points="248.53,-130.45 237.99,-131.52 246.89,-137.25 248.53,-130.45"/>
</g>
<!-- Node6&#45;&gt;Node5 -->
<g id="edge6" class="edge">
<title>Node6&#45;&gt;Node5</title>
<path fill="none" stroke="midnightblue" d="M408.58,-112.34C397.99,-99.65 381.62,-75.39 391.5,-56 398.5,-42.27 411.87,-31.75 424.4,-24.35"/>
<polygon fill="midnightblue" stroke="midnightblue" points="426.17,-27.37 433.28,-19.51 422.82,-21.22 426.17,-27.37"/>
</g>
<!-- Node7 -->
<g id="node7" class="node">
<title>Node7</title>
<g id="a_node7"><a xlink:title=" ">
<polygon fill="none" stroke="#bfbfbf" points="400.5,-56.5 400.5,-75.5 432.5,-75.5 432.5,-56.5 400.5,-56.5"/>
<text text-anchor="middle" x="416.5" y="-63.5" font-family="Helvetica,sans-Serif" font-size="10.00">set</text>
</a>
</g>
</g>
<!-- Node6&#45;&gt;Node7 -->
<g id="edge7" class="edge">
<title>Node6&#45;&gt;Node7</title>
<path fill="none" stroke="midnightblue" d="M416.5,-112.08C416.5,-105.01 416.5,-94.86 416.5,-85.99"/>
<polygon fill="midnightblue" stroke="midnightblue" points="420,-85.75 416.5,-75.75 413,-85.75 420,-85.75"/>
</g>
<!-- Node8 -->
<g id="node8" class="node">
<title>Node8</title>
<g id="a_node8"><a xlink:title=" ">
<polygon fill="none" stroke="#bfbfbf" points="450.5,-56.5 450.5,-75.5 506.5,-75.5 506.5,-56.5 450.5,-56.5"/>
<text text-anchor="middle" x="478.5" y="-63.5" font-family="Helvetica,sans-Serif" font-size="10.00">sstream</text>
</a>
</g>
</g>
<!-- Node6&#45;&gt;Node8 -->
<g id="edge8" class="edge">
<title>Node6&#45;&gt;Node8</title>
<path fill="none" stroke="midnightblue" d="M426.46,-112.32C435.63,-104.34 449.44,-92.31 460.53,-82.65"/>
<polygon fill="midnightblue" stroke="midnightblue" points="463.12,-85.04 468.36,-75.83 458.52,-79.76 463.12,-85.04"/>
</g>
<!-- Node9 -->
<g id="node9" class="node">
<title>Node9</title>
<g id="a_node9"><a xlink:title=" ">
<polygon fill="none" stroke="#bfbfbf" points="300.5,-56.5 300.5,-75.5 344.5,-75.5 344.5,-56.5 300.5,-56.5"/>
<text text-anchor="middle" x="322.5" y="-63.5" font-family="Helvetica,sans-Serif" font-size="10.00">string</text>
</a>
</g>
</g>
<!-- Node6&#45;&gt;Node9 -->
<g id="edge9" class="edge">
<title>Node6&#45;&gt;Node9</title>
<path fill="none" stroke="midnightblue" d="M401.4,-112.32C386.6,-103.82 363.81,-90.73 346.52,-80.8"/>
<polygon fill="midnightblue" stroke="midnightblue" points="347.98,-77.6 337.57,-75.65 344.49,-83.67 347.98,-77.6"/>
</g>
<!-- Node10&#45;&gt;Node5 -->
<g id="edge13" class="edge">
<title>Node10&#45;&gt;Node5</title>
<path fill="none" stroke="midnightblue" d="M195.93,-112.36C186.48,-98.8 171.64,-72.38 185.5,-56 214.28,-21.98 346.5,-13.67 413.84,-11.64"/>
<polygon fill="midnightblue" stroke="midnightblue" points="414.16,-15.14 424.07,-11.37 413.98,-8.14 414.16,-15.14"/>
</g>
<!-- Node10&#45;&gt;Node9 -->
<g id="edge14" class="edge">
<title>Node10&#45;&gt;Node9</title>
<path fill="none" stroke="midnightblue" d="M221.51,-112.44C241.09,-103.64 271.81,-89.81 294.23,-79.72"/>
<polygon fill="midnightblue" stroke="midnightblue" points="295.89,-82.81 303.57,-75.52 293.02,-76.43 295.89,-82.81"/>
</g>
<!-- Node11 -->
<g id="node11" class="node">
<title>Node11</title>
<g id="a_node11"><a xlink:title=" ">
<polygon fill="none" stroke="#bfbfbf" points="194.5,-56.5 194.5,-75.5 282.5,-75.5 282.5,-56.5 194.5,-56.5"/>
<text text-anchor="middle" x="238.5" y="-63.5" font-family="Helvetica,sans-Serif" font-size="10.00">boost/asio.hpp</text>
</a>
</g>
</g>
<!-- Node10&#45;&gt;Node11 -->
<g id="edge11" class="edge">
<title>Node10&#45;&gt;Node11</title>
<path fill="none" stroke="midnightblue" d="M208.44,-112.08C213.48,-104.53 220.84,-93.49 227.01,-84.23"/>
<polygon fill="midnightblue" stroke="midnightblue" points="230.03,-86.01 232.67,-75.75 224.21,-82.13 230.03,-86.01"/>
</g>
<!-- Node12 -->
<g id="node12" class="node">
<title>Node12</title>
<g id="a_node12"><a xlink:title=" ">
<polygon fill="none" stroke="#bfbfbf" points="73,-56.5 73,-75.5 138,-75.5 138,-56.5 73,-56.5"/>
<text text-anchor="middle" x="105.5" y="-63.5" font-family="Helvetica,sans-Serif" font-size="10.00">functional</text>
</a>
</g>
</g>
<!-- Node10&#45;&gt;Node12 -->
<g id="edge12" class="edge">
<title>Node10&#45;&gt;Node12</title>
<path fill="none" stroke="midnightblue" d="M186.92,-112.32C171.5,-103.74 147.69,-90.49 129.79,-80.52"/>
<polygon fill="midnightblue" stroke="midnightblue" points="131.49,-77.46 121.05,-75.65 128.08,-83.58 131.49,-77.46"/>
</g>
<!-- Node13 -->
<g id="node13" class="node">
<title>Node13</title>
<g id="a_node13"><a xlink:href="general_2socket_2log_8hpp.html" target="_top" xlink:title=" ">
<polygon fill="none" stroke="black" points="2,-56.5 2,-75.5 55,-75.5 55,-56.5 2,-56.5"/>
<text text-anchor="middle" x="28.5" y="-63.5" font-family="Helvetica,sans-Serif" font-size="10.00">log.hpp</text>
</a>
</g>
</g>
<!-- Node10&#45;&gt;Node13 -->
<g id="edge15" class="edge">
<title>Node10&#45;&gt;Node13</title>
<path fill="none" stroke="midnightblue" d="M174.93,-112.44C145.14,-103.2 97.55,-88.43 64.75,-78.25"/>
<polygon fill="midnightblue" stroke="midnightblue" points="65.67,-74.87 55.09,-75.25 63.6,-81.56 65.67,-74.87"/>
</g>
<!-- Node13&#45;&gt;Node5 -->
<g id="edge16" class="edge">
<title>Node13&#45;&gt;Node5</title>
<path fill="none" stroke="midnightblue" d="M55.17,-57.74C57.97,-57.1 60.79,-56.5 63.5,-56 190.67,-32.43 343.59,-19.08 414.22,-13.74"/>
<polygon fill="midnightblue" stroke="midnightblue" points="414.72,-17.22 424.43,-12.99 414.2,-10.24 414.72,-17.22"/>
</g>
<!-- Node14 -->
<g id="node14" class="node">
<title>Node14</title>
<g id="a_node14"><a xlink:title=" ">
<polygon fill="none" stroke="#bfbfbf" points="0,-0.5 0,-19.5 57,-19.5 57,-0.5 0,-0.5"/>
<text text-anchor="middle" x="28.5" y="-7.5" font-family="Helvetica,sans-Serif" font-size="10.00">ostream</text>
</a>
</g>
</g>
<!-- Node13&#45;&gt;Node14 -->
<g id="edge17" class="edge">
<title>Node13&#45;&gt;Node14</title>
<path fill="none" stroke="midnightblue" d="M28.5,-56.08C28.5,-49.01 28.5,-38.86 28.5,-29.99"/>
<polygon fill="midnightblue" stroke="midnightblue" points="32,-29.75 28.5,-19.75 25,-29.75 32,-29.75"/>
</g>
<!-- Node15&#45;&gt;Node2 -->
<g id="edge25" class="edge">
<title>Node15&#45;&gt;Node2</title>
<path fill="none" stroke="midnightblue" d="M331.89,-291.48C317.78,-281.93 294.67,-266.31 277.75,-254.87"/>
<polygon fill="midnightblue" stroke="midnightblue" points="279.33,-251.71 269.08,-249.01 275.41,-257.51 279.33,-251.71"/>
</g>
<!-- Node15&#45;&gt;Node5 -->
<g id="edge19" class="edge">
<title>Node15&#45;&gt;Node5</title>
<path fill="none" stroke="midnightblue" d="M388.66,-291.46C470.96,-274.28 639.5,-232.56 639.5,-179 639.5,-179 639.5,-179 639.5,-121 639.5,-53.33 547.16,-26.41 492.61,-16.41"/>
<polygon fill="midnightblue" stroke="midnightblue" points="493.01,-12.93 482.56,-14.68 491.82,-19.83 493.01,-12.93"/>
</g>
<!-- Node15&#45;&gt;Node9 -->
<g id="edge20" class="edge">
<title>Node15&#45;&gt;Node9</title>
<path fill="none" stroke="midnightblue" d="M343.69,-291.43C340.51,-257.75 328.83,-133.99 324.3,-86.1"/>
<polygon fill="midnightblue" stroke="midnightblue" points="327.76,-85.52 323.34,-75.9 320.8,-86.18 327.76,-85.52"/>
</g>
<!-- Node16 -->
<g id="node16" class="node">
<title>Node16</title>
<g id="a_node16"><a xlink:href="client__handler_8hpp.html" target="_top" xlink:title=" ">
<polygon fill="none" stroke="black" points="368,-224.5 368,-254.5 499,-254.5 499,-224.5 368,-224.5"/>
<text text-anchor="start" x="376" y="-242.5" font-family="Helvetica,sans-Serif" font-size="10.00">request_handlers/client</text>
<text text-anchor="middle" x="433.5" y="-231.5" font-family="Helvetica,sans-Serif" font-size="10.00">_handler.hpp</text>
</a>
</g>
</g>
<!-- Node15&#45;&gt;Node16 -->
<g id="edge21" class="edge">
<title>Node15&#45;&gt;Node16</title>
<path fill="none" stroke="midnightblue" d="M357.25,-291.48C369.42,-283.34 388.19,-270.79 404.06,-260.18"/>
<polygon fill="midnightblue" stroke="midnightblue" points="406.16,-262.99 412.52,-254.52 402.27,-257.17 406.16,-262.99"/>
</g>
<!-- Node16&#45;&gt;Node4 -->
<g id="edge22" class="edge">
<title>Node16&#45;&gt;Node4</title>
<path fill="none" stroke="midnightblue" d="M432.08,-224.4C431.28,-216.47 430.27,-206.46 429.4,-197.86"/>
<polygon fill="midnightblue" stroke="midnightblue" points="432.86,-197.26 428.37,-187.66 425.89,-197.96 432.86,-197.26"/>
</g>
<!-- Node17 -->
<g id="node17" class="node">
<title>Node17</title>
<g id="a_node17"><a xlink:href="renderer_8hpp.html" target="_top" xlink:title=" ">
<polygon fill="none" stroke="black" points="533.5,-112.5 533.5,-131.5 611.5,-131.5 611.5,-112.5 533.5,-112.5"/>
<text text-anchor="middle" x="572.5" y="-119.5" font-family="Helvetica,sans-Serif" font-size="10.00">renderer.hpp</text>
</a>
</g>
</g>
<!-- Node16&#45;&gt;Node17 -->
<g id="edge23" class="edge">
<title>Node16&#45;&gt;Node17</title>
<path fill="none" stroke="midnightblue" d="M450.94,-224.43C463.4,-214.35 480.54,-200.41 495.5,-188 515.73,-171.23 538.72,-151.76 554.28,-138.54"/>
<polygon fill="midnightblue" stroke="midnightblue" points="556.74,-141.04 562.09,-131.89 552.2,-135.71 556.74,-141.04"/>
</g>
<!-- Node17&#45;&gt;Node5 -->
<g id="edge24" class="edge">
<title>Node17&#45;&gt;Node5</title>
<path fill="none" stroke="midnightblue" d="M571.42,-112.34C569.3,-98.76 563.44,-72.33 548.5,-56 533.6,-39.72 511.58,-28.78 492.49,-21.77"/>
<polygon fill="midnightblue" stroke="midnightblue" points="493.43,-18.39 482.83,-18.45 491.15,-25.01 493.43,-18.39"/>
</g>
</g>
</svg>
        <g id="navigator" transform="translate(0 0)" fill="#404254">
                <rect fill="#f2f5e9" fill-opacity="0.5" stroke="#606060" stroke-width=".5" x="0" y="0" width="60" height="60"/>
                <use id="zoomplus" xlink:href="#zoomPlus" x="17" y="9" onmousedown="handleZoom(evt,'in')"/>
                <use id="zoomminus" xlink:href="#zoomMin" x="42" y="9" onmousedown="handleZoom(evt,'out')"/>
                <use id="reset" xlink:href="#resetDef" x="30" y="36" onmousedown="handleReset()"/>
                <g id="arrowUp" xlink:href="#dirArrow" transform="translate(30 24)" onmousedown="handlePan(0,-1)">
                  <use xlink:href="#rim" fill="#404040">
                        <set attributeName="fill" to="#808080" begin="arrowUp.mouseover" end="arrowUp.mouseout"/>
                  </use>
                  <path fill="none" stroke="white" stroke-width="1.5" d="M0,-3.0v7 M-2.5,-0.5L0,-3.0L2.5,-0.5"/>
                </g>
                <g id="arrowRight" xlink:href="#dirArrow" transform="rotate(90) translate(36 -43)" onmousedown="handlePan(1,0)">
                  <use xlink:href="#rim" fill="#404040">
                        <set attributeName="fill" to="#808080" begin="arrowRight.mouseover" end="arrowRight.mouseout"/>
                  </use>
                  <path fill="none" stroke="white" stroke-width="1.5" d="M0,-3.0v7 M-2.5,-0.5L0,-3.0L2.5,-0.5"/>
                </g>
                <g id="arrowDown" xlink:href="#dirArrow" transform="rotate(180) translate(-30 -48)" onmousedown="handlePan(0,1)">
                  <use xlink:href="#rim" fill="#404040">
                        <set attributeName="fill" to="#808080" begin="arrowDown.mouseover" end="arrowDown.mouseout"/>
                  </use>
                  <path fill="none" stroke="white" stroke-width="1.5" d="M0,-3.0v7 M-2.5,-0.5L0,-3.0L2.5,-0.5"/>
                </g>
                <g id="arrowLeft" xlink:href="#dirArrow" transform="rotate(270) translate(-36 17)" onmousedown="handlePan(-1,0)">
                  <use xlink:href="#rim" fill="#404040">
                        <set attributeName="fill" to="#808080" begin="arrowLeft.mouseover" end="arrowLeft.mouseout"/>
                  </use>
                  <path fill="none" stroke="white" stroke-width="1.5" d="M0,-3.0v7 M-2.5,-0.5L0,-3.0L2.5,-0.5"/>
                </g>
        </g>
        <svg viewBox="0 0 15 15" width="100%" height="30px" preserveAspectRatio="xMaxYMin meet">
         <g id="arrow_out" transform="scale(0.3 0.3)">
          <a xlink:href="server__handler_8cpp__incl_org.svg" target="_base">
           <rect id="button" ry="5" rx="5" y="6" x="6" height="38" width="38"
                fill="#f2f5e9" fill-opacity="0.5" stroke="#606060" stroke-width="1.0"/>
           <path id="arrow"
             d="M 11.500037,31.436501 C 11.940474,20.09759 22.043105,11.32322 32.158766,21.979434 L 37.068811,17.246167 C 37.068811,17.246167 37.088388,32 37.088388,32 L 22.160133,31.978069 C 22.160133,31.978069 26.997745,27.140456 26.997745,27.140456 C 18.528582,18.264221 13.291696,25.230495 11.500037,31.436501 z"
             style="fill:#404040;"/>
          </a>
         </g>
        </svg>
</svg>
