<?xml version="1.0" encoding="UTF-8" standalone="no"?>
<!DOCTYPE svg PUBLIC "-//W3C//DTD SVG 1.1//EN"
 "http://www.w3.org/Graphics/SVG/1.1/DTD/svg11.dtd">
<!-- Generated by graphviz version 2.43.0 (0)
 -->
<!-- Title: /home/alexander/Documents/Seminars/TP/Project/src/server_side/server.cpp Pages: 1 -->
<svg width="1135pt" height="912pt"
 viewBox="0.00 0.00 1135.00 912.00" xmlns="http://www.w3.org/2000/svg" xmlns:xlink="http://www.w3.org/1999/xlink">
<g id="graph0" class="graph" transform="scale(1 1) rotate(0) translate(4 908)">
<title>/home/alexander/Documents/Seminars/TP/Project/src/server_side/server.cpp</title>
<!-- Node1 -->
<g id="node1" class="node">
<title>Node1</title>
<g id="a_node1"><a xlink:title=" ">
<polygon fill="#bfbfbf" stroke="black" points="395.5,-862.5 395.5,-903.5 553.5,-903.5 553.5,-862.5 395.5,-862.5"/>
<text text-anchor="start" x="403.5" y="-891.5" font-family="Helvetica,sans-Serif" font-size="10.00">/home/alexander/Documents</text>
<text text-anchor="start" x="403.5" y="-880.5" font-family="Helvetica,sans-Serif" font-size="10.00">/Seminars/TP/Project/src</text>
<text text-anchor="middle" x="474.5" y="-869.5" font-family="Helvetica,sans-Serif" font-size="10.00">/server_side/server.cpp</text>
</a>
</g>
</g>
<!-- Node2 -->
<g id="node2" class="node">
<title>Node2</title>
<g id="a_node2"><a xlink:href="server_8hpp.html" target="_top" xlink:title=" ">
<polygon fill="none" stroke="black" points="399.5,-750.5 399.5,-769.5 467.5,-769.5 467.5,-750.5 399.5,-750.5"/>
<text text-anchor="middle" x="433.5" y="-757.5" font-family="Helvetica,sans-Serif" font-size="10.00">server.hpp</text>
</a>
</g>
</g>
<!-- Node1&#45;&gt;Node2 -->
<g id="edge1" class="edge">
<title>Node1&#45;&gt;Node2</title>
<path fill="none" stroke="midnightblue" d="M464.21,-862.46C458.95,-851.88 452.78,-838.47 448.5,-826 443.26,-810.75 439.29,-792.86 436.75,-779.72"/>
<polygon fill="midnightblue" stroke="midnightblue" points="440.13,-778.78 434.89,-769.57 433.25,-780.04 440.13,-778.78"/>
</g>
<!-- Node41 -->
<g id="node41" class="node">
<title>Node41</title>
<g id="a_node41"><a xlink:href="client__connection_8hpp.html" target="_top" xlink:title=" ">
<polygon fill="none" stroke="black" points="458,-806.5 458,-825.5 581,-825.5 581,-806.5 458,-806.5"/>
<text text-anchor="middle" x="519.5" y="-813.5" font-family="Helvetica,sans-Serif" font-size="10.00">client_connection.hpp</text>
</a>
</g>
</g>
<!-- Node1&#45;&gt;Node41 -->
<g id="edge64" class="edge">
<title>Node1&#45;&gt;Node41</title>
<path fill="none" stroke="midnightblue" d="M488,-862.5C494.3,-853.39 501.73,-842.66 507.79,-833.91"/>
<polygon fill="midnightblue" stroke="midnightblue" points="510.7,-835.87 513.51,-825.65 504.94,-831.88 510.7,-835.87"/>
</g>
<!-- Node3 -->
<g id="node3" class="node">
<title>Node3</title>
<g id="a_node3"><a xlink:title=" ">
<polygon fill="none" stroke="#bfbfbf" points="343.5,-638.5 343.5,-657.5 411.5,-657.5 411.5,-638.5 343.5,-638.5"/>
<text text-anchor="middle" x="377.5" y="-645.5" font-family="Helvetica,sans-Serif" font-size="10.00">filesystem</text>
</a>
</g>
</g>
<!-- Node2&#45;&gt;Node3 -->
<g id="edge2" class="edge">
<title>Node2&#45;&gt;Node3</title>
<path fill="none" stroke="midnightblue" d="M429.11,-750.37C419.95,-732.38 398.65,-690.55 386.47,-666.63"/>
<polygon fill="midnightblue" stroke="midnightblue" points="389.53,-664.92 381.87,-657.59 383.29,-668.09 389.53,-664.92"/>
</g>
<!-- Node4 -->
<g id="node4" class="node">
<title>Node4</title>
<g id="a_node4"><a xlink:title=" ">
<polygon fill="none" stroke="#bfbfbf" points="163.5,-694.5 163.5,-713.5 195.5,-713.5 195.5,-694.5 163.5,-694.5"/>
<text text-anchor="middle" x="179.5" y="-701.5" font-family="Helvetica,sans-Serif" font-size="10.00">list</text>
</a>
</g>
</g>
<!-- Node2&#45;&gt;Node4 -->
<g id="edge3" class="edge">
<title>Node2&#45;&gt;Node4</title>
<path fill="none" stroke="midnightblue" d="M399.18,-754.1C355.81,-747.52 278.8,-734.53 205.49,-714.25"/>
<polygon fill="midnightblue" stroke="midnightblue" points="206.22,-710.81 195.65,-711.47 204.32,-717.55 206.22,-710.81"/>
</g>
<!-- Node5 -->
<g id="node5" class="node">
<title>Node5</title>
<g id="a_node5"><a xlink:href="simple__database_8hpp.html" target="_top" xlink:title=" ">
<polygon fill="none" stroke="black" points="213,-694.5 213,-713.5 382,-713.5 382,-694.5 213,-694.5"/>
<text text-anchor="middle" x="297.5" y="-701.5" font-family="Helvetica,sans-Serif" font-size="10.00">database/simple_database.hpp</text>
</a>
</g>
</g>
<!-- Node2&#45;&gt;Node5 -->
<g id="edge4" class="edge">
<title>Node2&#45;&gt;Node5</title>
<path fill="none" stroke="midnightblue" d="M411.95,-750.44C389.47,-741.52 354.01,-727.44 328.52,-717.32"/>
<polygon fill="midnightblue" stroke="midnightblue" points="329.53,-713.95 318.95,-713.52 326.95,-720.46 329.53,-713.95"/>
</g>
<!-- Node14 -->
<g id="node14" class="node">
<title>Node14</title>
<g id="a_node14"><a xlink:href="server__handler_8hpp.html" target="_top" xlink:title=" ">
<polygon fill="none" stroke="black" points="830.5,-224.5 830.5,-254.5 964.5,-254.5 964.5,-224.5 830.5,-224.5"/>
<text text-anchor="start" x="838.5" y="-242.5" font-family="Helvetica,sans-Serif" font-size="10.00">request_handlers/server</text>
<text text-anchor="middle" x="897.5" y="-231.5" font-family="Helvetica,sans-Serif" font-size="10.00">_handler.hpp</text>
</a>
</g>
</g>
<!-- Node2&#45;&gt;Node14 -->
<g id="edge15" class="edge">
<title>Node2&#45;&gt;Node14</title>
<path fill="none" stroke="midnightblue" d="M467.87,-759.22C585.31,-759.05 963.5,-750.61 963.5,-649 963.5,-649 963.5,-649 963.5,-468 963.5,-390.69 927.91,-304.24 909,-263.76"/>
<polygon fill="midnightblue" stroke="midnightblue" points="912.15,-262.24 904.69,-254.72 905.83,-265.25 912.15,-262.24"/>
</g>
<!-- Node22 -->
<g id="node22" class="node">
<title>Node22</title>
<g id="a_node22"><a xlink:href="request__creator_8hpp.html" target="_top" xlink:title=" ">
<polygon fill="none" stroke="black" points="429.5,-638.5 429.5,-657.5 587.5,-657.5 587.5,-638.5 429.5,-638.5"/>
<text text-anchor="middle" x="508.5" y="-645.5" font-family="Helvetica,sans-Serif" font-size="10.00">requests/request_creator.hpp</text>
</a>
</g>
</g>
<!-- Node2&#45;&gt;Node22 -->
<g id="edge28" class="edge">
<title>Node2&#45;&gt;Node22</title>
<path fill="none" stroke="midnightblue" d="M437.24,-750.18C442.89,-737.29 454.36,-712.78 467.5,-694 474.75,-683.63 484.19,-673.12 492.18,-664.86"/>
<polygon fill="midnightblue" stroke="midnightblue" points="494.72,-667.28 499.28,-657.72 489.75,-662.34 494.72,-667.28"/>
</g>
<!-- Node40 -->
<g id="node40" class="node">
<title>Node40</title>
<g id="a_node40"><a xlink:href="room_8hpp.html" target="_top" xlink:title=" ">
<polygon fill="none" stroke="black" points="477,-694.5 477,-713.5 540,-713.5 540,-694.5 477,-694.5"/>
<text text-anchor="middle" x="508.5" y="-701.5" font-family="Helvetica,sans-Serif" font-size="10.00">room.hpp</text>
</a>
</g>
</g>
<!-- Node2&#45;&gt;Node40 -->
<g id="edge58" class="edge">
<title>Node2&#45;&gt;Node40</title>
<path fill="none" stroke="midnightblue" d="M445.55,-750.32C456.96,-742.11 474.33,-729.6 487.93,-719.81"/>
<polygon fill="midnightblue" stroke="midnightblue" points="490.16,-722.52 496.23,-713.83 486.07,-716.84 490.16,-722.52"/>
</g>
<!-- Node5&#45;&gt;Node3 -->
<g id="edge6" class="edge">
<title>Node5&#45;&gt;Node3</title>
<path fill="none" stroke="midnightblue" d="M310.35,-694.32C322.72,-685.98 341.63,-673.21 356.24,-663.35"/>
<polygon fill="midnightblue" stroke="midnightblue" points="358.35,-666.15 364.68,-657.65 354.43,-660.35 358.35,-666.15"/>
</g>
<!-- Node6 -->
<g id="node6" class="node">
<title>Node6</title>
<g id="a_node6"><a xlink:title=" ">
<polygon fill="none" stroke="#bfbfbf" points="149,-638.5 149,-657.5 196,-657.5 196,-638.5 149,-638.5"/>
<text text-anchor="middle" x="172.5" y="-645.5" font-family="Helvetica,sans-Serif" font-size="10.00">deque</text>
</a>
</g>
</g>
<!-- Node5&#45;&gt;Node6 -->
<g id="edge5" class="edge">
<title>Node5&#45;&gt;Node6</title>
<path fill="none" stroke="midnightblue" d="M277.69,-694.44C257.21,-685.6 225.02,-671.69 201.64,-661.59"/>
<polygon fill="midnightblue" stroke="midnightblue" points="202.78,-658.27 192.21,-657.52 200.01,-664.7 202.78,-658.27"/>
</g>
<!-- Node7 -->
<g id="node7" class="node">
<title>Node7</title>
<g id="a_node7"><a xlink:title=" ">
<polygon fill="none" stroke="#bfbfbf" points="270,-638.5 270,-657.5 325,-657.5 325,-638.5 270,-638.5"/>
<text text-anchor="middle" x="297.5" y="-645.5" font-family="Helvetica,sans-Serif" font-size="10.00">fstream</text>
</a>
</g>
</g>
<!-- Node5&#45;&gt;Node7 -->
<g id="edge7" class="edge">
<title>Node5&#45;&gt;Node7</title>
<path fill="none" stroke="midnightblue" d="M297.5,-694.08C297.5,-687.01 297.5,-676.86 297.5,-667.99"/>
<polygon fill="midnightblue" stroke="midnightblue" points="301,-667.75 297.5,-657.75 294,-667.75 301,-667.75"/>
</g>
<!-- Node8 -->
<g id="node8" class="node">
<title>Node8</title>
<g id="a_node8"><a xlink:title=" ">
<polygon fill="none" stroke="#bfbfbf" points="143.5,-56.5 143.5,-75.5 199.5,-75.5 199.5,-56.5 143.5,-56.5"/>
<text text-anchor="middle" x="171.5" y="-63.5" font-family="Helvetica,sans-Serif" font-size="10.00">sstream</text>
</a>
</g>
</g>
<!-- Node5&#45;&gt;Node8 -->
<g id="edge8" class="edge">
<title>Node5&#45;&gt;Node8</title>
<path fill="none" stroke="midnightblue" d="M285.13,-694.36C250.99,-670.5 157.8,-605.21 155.5,-602 74.39,-488.87 65.5,-441.2 65.5,-302 65.5,-302 65.5,-302 65.5,-177 65.5,-146.9 65.37,-135.23 84.5,-112 97.15,-96.64 116.42,-85.92 133.61,-78.8"/>
<polygon fill="midnightblue" stroke="midnightblue" points="135.35,-81.88 143.42,-75.03 132.83,-75.35 135.35,-81.88"/>
</g>
<!-- Node9 -->
<g id="node9" class="node">
<title>Node9</title>
<g id="a_node9"><a xlink:href="accounts__database_8hpp.html" target="_top" xlink:title=" ">
<polygon fill="none" stroke="black" points="0,-638.5 0,-657.5 131,-657.5 131,-638.5 0,-638.5"/>
<text text-anchor="middle" x="65.5" y="-645.5" font-family="Helvetica,sans-Serif" font-size="10.00">accounts_database.hpp</text>
</a>
</g>
</g>
<!-- Node5&#45;&gt;Node9 -->
<g id="edge9" class="edge">
<title>Node5&#45;&gt;Node9</title>
<path fill="none" stroke="midnightblue" d="M260.74,-694.44C220.44,-685.06 155.69,-669.99 111.92,-659.8"/>
<polygon fill="midnightblue" stroke="midnightblue" points="112.62,-656.37 102.09,-657.52 111.04,-663.19 112.62,-656.37"/>
</g>
<!-- Node10 -->
<g id="node10" class="node">
<title>Node10</title>
<g id="a_node10"><a xlink:href="account_8hpp.html" target="_top" xlink:title=" ">
<polygon fill="none" stroke="black" points="209.5,-112.5 209.5,-131.5 285.5,-131.5 285.5,-112.5 209.5,-112.5"/>
<text text-anchor="middle" x="247.5" y="-119.5" font-family="Helvetica,sans-Serif" font-size="10.00">account.hpp</text>
</a>
</g>
</g>
<!-- Node9&#45;&gt;Node10 -->
<g id="edge10" class="edge">
<title>Node9&#45;&gt;Node10</title>
<path fill="none" stroke="midnightblue" d="M65.5,-638.49C65.5,-618.74 65.5,-568.22 65.5,-526 65.5,-526 65.5,-526 65.5,-468 65.5,-351.95 98.51,-323.35 158.5,-224 178.89,-190.24 211.07,-157.1 230.64,-138.43"/>
<polygon fill="midnightblue" stroke="midnightblue" points="233.05,-140.97 237.94,-131.58 228.26,-135.87 233.05,-140.97"/>
</g>
<!-- Node10&#45;&gt;Node8 -->
<g id="edge13" class="edge">
<title>Node10&#45;&gt;Node8</title>
<path fill="none" stroke="midnightblue" d="M235.29,-112.32C223.72,-104.11 206.12,-91.6 192.34,-81.81"/>
<polygon fill="midnightblue" stroke="midnightblue" points="194.11,-78.77 183.93,-75.83 190.06,-84.48 194.11,-78.77"/>
</g>
<!-- Node11 -->
<g id="node11" class="node">
<title>Node11</title>
<g id="a_node11"><a xlink:title=" ">
<polygon fill="none" stroke="#bfbfbf" points="375.5,-0.5 375.5,-19.5 433.5,-19.5 433.5,-0.5 375.5,-0.5"/>
<text text-anchor="middle" x="404.5" y="-7.5" font-family="Helvetica,sans-Serif" font-size="10.00">memory</text>
</a>
</g>
</g>
<!-- Node10&#45;&gt;Node11 -->
<g id="edge11" class="edge">
<title>Node10&#45;&gt;Node11</title>
<path fill="none" stroke="midnightblue" d="M252.07,-112.25C259.63,-98.54 275.95,-71.94 296.5,-56 316.96,-40.13 343.82,-28.9 365.64,-21.64"/>
<polygon fill="midnightblue" stroke="midnightblue" points="366.8,-24.94 375.27,-18.57 364.68,-18.27 366.8,-24.94"/>
</g>
<!-- Node12 -->
<g id="node12" class="node">
<title>Node12</title>
<g id="a_node12"><a xlink:title=" ">
<polygon fill="none" stroke="#bfbfbf" points="217.5,-56.5 217.5,-75.5 249.5,-75.5 249.5,-56.5 217.5,-56.5"/>
<text text-anchor="middle" x="233.5" y="-63.5" font-family="Helvetica,sans-Serif" font-size="10.00">set</text>
</a>
</g>
</g>
<!-- Node10&#45;&gt;Node12 -->
<g id="edge12" class="edge">
<title>Node10&#45;&gt;Node12</title>
<path fill="none" stroke="midnightblue" d="M245.19,-112.08C243.33,-104.93 240.66,-94.64 238.35,-85.69"/>
<polygon fill="midnightblue" stroke="midnightblue" points="241.67,-84.55 235.77,-75.75 234.89,-86.31 241.67,-84.55"/>
</g>
<!-- Node13 -->
<g id="node13" class="node">
<title>Node13</title>
<g id="a_node13"><a xlink:title=" ">
<polygon fill="none" stroke="#bfbfbf" points="305.5,-56.5 305.5,-75.5 349.5,-75.5 349.5,-56.5 305.5,-56.5"/>
<text text-anchor="middle" x="327.5" y="-63.5" font-family="Helvetica,sans-Serif" font-size="10.00">string</text>
</a>
</g>
</g>
<!-- Node10&#45;&gt;Node13 -->
<g id="edge14" class="edge">
<title>Node10&#45;&gt;Node13</title>
<path fill="none" stroke="midnightblue" d="M260.35,-112.32C272.72,-103.98 291.63,-91.21 306.24,-81.35"/>
<polygon fill="midnightblue" stroke="midnightblue" points="308.35,-84.15 314.68,-75.65 304.43,-78.35 308.35,-84.15"/>
</g>
<!-- Node15 -->
<g id="node15" class="node">
<title>Node15</title>
<g id="a_node15"><a xlink:title=" ">
<polygon fill="none" stroke="#bfbfbf" points="955,-168.5 955,-187.5 1048,-187.5 1048,-168.5 955,-168.5"/>
<text text-anchor="middle" x="1001.5" y="-175.5" font-family="Helvetica,sans-Serif" font-size="10.00">unordered_map</text>
</a>
</g>
</g>
<!-- Node14&#45;&gt;Node15 -->
<g id="edge16" class="edge">
<title>Node14&#45;&gt;Node15</title>
<path fill="none" stroke="midnightblue" d="M922.15,-224.4C938.82,-214.86 960.73,-202.32 977.31,-192.84"/>
<polygon fill="midnightblue" stroke="midnightblue" points="979.43,-195.66 986.37,-187.66 975.95,-189.59 979.43,-195.66"/>
</g>
<!-- Node16 -->
<g id="node16" class="node">
<title>Node16</title>
<g id="a_node16"><a xlink:href="abstract__handler_8hpp.html" target="_top" xlink:title=" ">
<polygon fill="none" stroke="black" points="356,-168.5 356,-187.5 475,-187.5 475,-168.5 356,-168.5"/>
<text text-anchor="middle" x="415.5" y="-175.5" font-family="Helvetica,sans-Serif" font-size="10.00">abstract_handler.hpp</text>
</a>
</g>
</g>
<!-- Node14&#45;&gt;Node16 -->
<g id="edge17" class="edge">
<title>Node14&#45;&gt;Node16</title>
<path fill="none" stroke="midnightblue" d="M830.48,-230.23C739.48,-218.99 577.6,-199.01 485.22,-187.61"/>
<polygon fill="midnightblue" stroke="midnightblue" points="485.48,-184.11 475.13,-186.36 484.63,-191.06 485.48,-184.11"/>
</g>
<!-- Node16&#45;&gt;Node10 -->
<g id="edge19" class="edge">
<title>Node16&#45;&gt;Node10</title>
<path fill="none" stroke="midnightblue" d="M388.88,-168.44C360.49,-159.32 315.36,-144.81 283.75,-134.65"/>
<polygon fill="midnightblue" stroke="midnightblue" points="284.59,-131.24 274,-131.52 282.44,-137.91 284.59,-131.24"/>
</g>
<!-- Node16&#45;&gt;Node11 -->
<g id="edge18" class="edge">
<title>Node16&#45;&gt;Node11</title>
<path fill="none" stroke="midnightblue" d="M412.63,-168.24C406.46,-148.39 392.76,-98.36 396.5,-56 397.28,-47.2 398.89,-37.54 400.47,-29.43"/>
<polygon fill="midnightblue" stroke="midnightblue" points="403.91,-30.07 402.51,-19.57 397.06,-28.65 403.91,-30.07"/>
</g>
<!-- Node17 -->
<g id="node17" class="node">
<title>Node17</title>
<g id="a_node17"><a xlink:href="socket_8hpp.html" target="_top" xlink:title=" ">
<polygon fill="none" stroke="black" points="431.5,-112.5 431.5,-131.5 535.5,-131.5 535.5,-112.5 431.5,-112.5"/>
<text text-anchor="middle" x="483.5" y="-119.5" font-family="Helvetica,sans-Serif" font-size="10.00">socket/socket.hpp</text>
</a>
</g>
</g>
<!-- Node16&#45;&gt;Node17 -->
<g id="edge20" class="edge">
<title>Node16&#45;&gt;Node17</title>
<path fill="none" stroke="midnightblue" d="M426.43,-168.32C436.67,-160.18 452.22,-147.84 464.5,-138.09"/>
<polygon fill="midnightblue" stroke="midnightblue" points="466.72,-140.79 472.38,-131.83 462.37,-135.31 466.72,-140.79"/>
</g>
<!-- Node17&#45;&gt;Node11 -->
<g id="edge23" class="edge">
<title>Node17&#45;&gt;Node11</title>
<path fill="none" stroke="midnightblue" d="M504.44,-112.45C529.85,-100.81 567.34,-78.82 550.5,-56 543.95,-47.13 484.31,-30.8 443.31,-20.44"/>
<polygon fill="midnightblue" stroke="midnightblue" points="444.14,-17.04 433.59,-18 442.44,-23.83 444.14,-17.04"/>
</g>
<!-- Node17&#45;&gt;Node13 -->
<g id="edge24" class="edge">
<title>Node17&#45;&gt;Node13</title>
<path fill="none" stroke="midnightblue" d="M458.78,-112.44C431.88,-103.13 388.79,-88.22 359.37,-78.03"/>
<polygon fill="midnightblue" stroke="midnightblue" points="360.18,-74.61 349.58,-74.64 357.89,-81.22 360.18,-74.61"/>
</g>
<!-- Node18 -->
<g id="node18" class="node">
<title>Node18</title>
<g id="a_node18"><a xlink:title=" ">
<polygon fill="none" stroke="#bfbfbf" points="598.5,-56.5 598.5,-75.5 686.5,-75.5 686.5,-56.5 598.5,-56.5"/>
<text text-anchor="middle" x="642.5" y="-63.5" font-family="Helvetica,sans-Serif" font-size="10.00">boost/asio.hpp</text>
</a>
</g>
</g>
<!-- Node17&#45;&gt;Node18 -->
<g id="edge21" class="edge">
<title>Node17&#45;&gt;Node18</title>
<path fill="none" stroke="midnightblue" d="M508.69,-112.44C535.44,-103.36 577.9,-88.94 607.81,-78.78"/>
<polygon fill="midnightblue" stroke="midnightblue" points="609.08,-82.05 617.42,-75.52 606.83,-75.42 609.08,-82.05"/>
</g>
<!-- Node19 -->
<g id="node19" class="node">
<title>Node19</title>
<g id="a_node19"><a xlink:title=" ">
<polygon fill="none" stroke="#bfbfbf" points="477,-56.5 477,-75.5 542,-75.5 542,-56.5 477,-56.5"/>
<text text-anchor="middle" x="509.5" y="-63.5" font-family="Helvetica,sans-Serif" font-size="10.00">functional</text>
</a>
</g>
</g>
<!-- Node17&#45;&gt;Node19 -->
<g id="edge22" class="edge">
<title>Node17&#45;&gt;Node19</title>
<path fill="none" stroke="midnightblue" d="M487.79,-112.08C491.35,-104.69 496.52,-93.95 500.92,-84.81"/>
<polygon fill="midnightblue" stroke="midnightblue" points="504.1,-86.28 505.29,-75.75 497.79,-83.24 504.1,-86.28"/>
</g>
<!-- Node20 -->
<g id="node20" class="node">
<title>Node20</title>
<g id="a_node20"><a xlink:href="general_2socket_2log_8hpp.html" target="_top" xlink:title=" ">
<polygon fill="none" stroke="black" points="406,-56.5 406,-75.5 459,-75.5 459,-56.5 406,-56.5"/>
<text text-anchor="middle" x="432.5" y="-63.5" font-family="Helvetica,sans-Serif" font-size="10.00">log.hpp</text>
</a>
</g>
</g>
<!-- Node17&#45;&gt;Node20 -->
<g id="edge25" class="edge">
<title>Node17&#45;&gt;Node20</title>
<path fill="none" stroke="midnightblue" d="M475.08,-112.08C467.65,-104.22 456.65,-92.57 447.69,-83.08"/>
<polygon fill="midnightblue" stroke="midnightblue" points="450.18,-80.62 440.76,-75.75 445.09,-85.42 450.18,-80.62"/>
</g>
<!-- Node20&#45;&gt;Node11 -->
<g id="edge26" class="edge">
<title>Node20&#45;&gt;Node11</title>
<path fill="none" stroke="midnightblue" d="M427.88,-56.08C424.04,-48.69 418.48,-37.95 413.74,-28.81"/>
<polygon fill="midnightblue" stroke="midnightblue" points="416.75,-27.02 409.04,-19.75 410.53,-30.24 416.75,-27.02"/>
</g>
<!-- Node21 -->
<g id="node21" class="node">
<title>Node21</title>
<g id="a_node21"><a xlink:title=" ">
<polygon fill="none" stroke="#bfbfbf" points="452,-0.5 452,-19.5 509,-19.5 509,-0.5 452,-0.5"/>
<text text-anchor="middle" x="480.5" y="-7.5" font-family="Helvetica,sans-Serif" font-size="10.00">ostream</text>
</a>
</g>
</g>
<!-- Node20&#45;&gt;Node21 -->
<g id="edge27" class="edge">
<title>Node20&#45;&gt;Node21</title>
<path fill="none" stroke="midnightblue" d="M440.43,-56.08C447.35,-48.3 457.57,-36.8 465.95,-27.37"/>
<polygon fill="midnightblue" stroke="midnightblue" points="468.69,-29.55 472.72,-19.75 463.46,-24.9 468.69,-29.55"/>
</g>
<!-- Node23 -->
<g id="node23" class="node">
<title>Node23</title>
<g id="a_node23"><a xlink:href="sign__in__request_8hpp.html" target="_top" xlink:title=" ">
<polygon fill="none" stroke="black" points="164.5,-571.5 164.5,-601.5 290.5,-601.5 290.5,-571.5 164.5,-571.5"/>
<text text-anchor="start" x="172.5" y="-589.5" font-family="Helvetica,sans-Serif" font-size="10.00">requests/authorization</text>
<text text-anchor="middle" x="227.5" y="-578.5" font-family="Helvetica,sans-Serif" font-size="10.00">/sign_in_request.hpp</text>
</a>
</g>
</g>
<!-- Node22&#45;&gt;Node23 -->
<g id="edge29" class="edge">
<title>Node22&#45;&gt;Node23</title>
<path fill="none" stroke="midnightblue" d="M468.24,-638.48C424.61,-629.24 354.08,-614.3 300.62,-602.98"/>
<polygon fill="midnightblue" stroke="midnightblue" points="301.01,-599.49 290.5,-600.84 299.56,-606.34 301.01,-599.49"/>
</g>
<!-- Node28 -->
<g id="node28" class="node">
<title>Node28</title>
<g id="a_node28"><a xlink:href="sign__up__request_8hpp.html" target="_top" xlink:title=" ">
<polygon fill="none" stroke="black" points="308.5,-571.5 308.5,-601.5 434.5,-601.5 434.5,-571.5 308.5,-571.5"/>
<text text-anchor="start" x="316.5" y="-589.5" font-family="Helvetica,sans-Serif" font-size="10.00">requests/authorization</text>
<text text-anchor="middle" x="371.5" y="-578.5" font-family="Helvetica,sans-Serif" font-size="10.00">/sign_up_request.hpp</text>
</a>
</g>
</g>
<!-- Node22&#45;&gt;Node28 -->
<g id="edge39" class="edge">
<title>Node22&#45;&gt;Node28</title>
<path fill="none" stroke="midnightblue" d="M488.87,-638.48C469.19,-629.93 438.28,-616.5 413.11,-605.57"/>
<polygon fill="midnightblue" stroke="midnightblue" points="414.35,-602.3 403.79,-601.52 411.57,-608.72 414.35,-602.3"/>
</g>
<!-- Node29 -->
<g id="node29" class="node">
<title>Node29</title>
<g id="a_node29"><a xlink:href="messages__builder_8hpp.html" target="_top" xlink:title=" ">
<polygon fill="none" stroke="black" points="452.5,-571.5 452.5,-601.5 616.5,-601.5 616.5,-571.5 452.5,-571.5"/>
<text text-anchor="start" x="460.5" y="-589.5" font-family="Helvetica,sans-Serif" font-size="10.00">requests/messages/messages</text>
<text text-anchor="middle" x="534.5" y="-578.5" font-family="Helvetica,sans-Serif" font-size="10.00">_builder.hpp</text>
</a>
</g>
</g>
<!-- Node22&#45;&gt;Node29 -->
<g id="edge41" class="edge">
<title>Node22&#45;&gt;Node29</title>
<path fill="none" stroke="midnightblue" d="M512.23,-638.48C515.38,-631.25 520.07,-620.53 524.33,-610.78"/>
<polygon fill="midnightblue" stroke="midnightblue" points="527.58,-612.09 528.37,-601.52 521.16,-609.28 527.58,-612.09"/>
</g>
<!-- Node24 -->
<g id="node24" class="node">
<title>Node24</title>
<g id="a_node24"><a xlink:href="authorization__request_8hpp.html" target="_top" xlink:title=" ">
<polygon fill="none" stroke="black" points="155.5,-515.5 155.5,-534.5 299.5,-534.5 299.5,-515.5 155.5,-515.5"/>
<text text-anchor="middle" x="227.5" y="-522.5" font-family="Helvetica,sans-Serif" font-size="10.00">authorization_request.hpp</text>
</a>
</g>
</g>
<!-- Node23&#45;&gt;Node24 -->
<g id="edge30" class="edge">
<title>Node23&#45;&gt;Node24</title>
<path fill="none" stroke="midnightblue" d="M227.5,-571.4C227.5,-563.47 227.5,-553.46 227.5,-544.86"/>
<polygon fill="midnightblue" stroke="midnightblue" points="231,-544.66 227.5,-534.66 224,-544.66 231,-544.66"/>
</g>
<!-- Node25 -->
<g id="node25" class="node">
<title>Node25</title>
<g id="a_node25"><a xlink:href="request_8hpp.html" target="_top" xlink:title=" ">
<polygon fill="none" stroke="black" points="268,-291.5 268,-310.5 387,-310.5 387,-291.5 268,-291.5"/>
<text text-anchor="middle" x="327.5" y="-298.5" font-family="Helvetica,sans-Serif" font-size="10.00">requests/request.hpp</text>
</a>
</g>
</g>
<!-- Node24&#45;&gt;Node25 -->
<g id="edge31" class="edge">
<title>Node24&#45;&gt;Node25</title>
<path fill="none" stroke="midnightblue" d="M216.79,-515.3C207.56,-507.07 194.91,-493.79 189.5,-479 177.38,-445.86 192,-431.72 212.5,-403 238.49,-366.59 280.02,-334.4 305.42,-316.61"/>
<polygon fill="midnightblue" stroke="midnightblue" points="307.72,-319.28 313.99,-310.73 303.76,-313.51 307.72,-319.28"/>
</g>
<!-- Node25&#45;&gt;Node11 -->
<g id="edge32" class="edge">
<title>Node25&#45;&gt;Node11</title>
<path fill="none" stroke="midnightblue" d="M387.12,-293.87C495.68,-281.03 714.5,-246.76 714.5,-179 714.5,-179 714.5,-179 714.5,-121 714.5,-90.9 718.25,-75.71 695.5,-56 654.67,-20.63 513.1,-29.53 443.95,-19.88"/>
<polygon fill="midnightblue" stroke="midnightblue" points="444.33,-16.4 433.9,-18.24 443.21,-23.31 444.33,-16.4"/>
</g>
<!-- Node25&#45;&gt;Node13 -->
<g id="edge33" class="edge">
<title>Node25&#45;&gt;Node13</title>
<path fill="none" stroke="midnightblue" d="M327.5,-291.43C327.5,-257.75 327.5,-133.99 327.5,-86.1"/>
<polygon fill="midnightblue" stroke="midnightblue" points="331,-85.9 327.5,-75.9 324,-85.9 331,-85.9"/>
</g>
<!-- Node25&#45;&gt;Node14 -->
<g id="edge38" class="edge">
<title>Node25&#45;&gt;Node14</title>
<path fill="none" stroke="midnightblue" d="M387.15,-293.77C491.08,-282.93 705.19,-260.57 820.29,-248.56"/>
<polygon fill="midnightblue" stroke="midnightblue" points="820.85,-252.02 830.43,-247.5 820.12,-245.06 820.85,-252.02"/>
</g>
<!-- Node26 -->
<g id="node26" class="node">
<title>Node26</title>
<g id="a_node26"><a xlink:href="client__handler_8hpp.html" target="_top" xlink:title=" ">
<polygon fill="none" stroke="black" points="168,-224.5 168,-254.5 299,-254.5 299,-224.5 168,-224.5"/>
<text text-anchor="start" x="176" y="-242.5" font-family="Helvetica,sans-Serif" font-size="10.00">request_handlers/client</text>
<text text-anchor="middle" x="233.5" y="-231.5" font-family="Helvetica,sans-Serif" font-size="10.00">_handler.hpp</text>
</a>
</g>
</g>
<!-- Node25&#45;&gt;Node26 -->
<g id="edge34" class="edge">
<title>Node25&#45;&gt;Node26</title>
<path fill="none" stroke="midnightblue" d="M314.03,-291.48C301.06,-283.27 280.99,-270.56 264.12,-259.88"/>
<polygon fill="midnightblue" stroke="midnightblue" points="265.98,-256.91 255.65,-254.52 262.23,-262.83 265.98,-256.91"/>
</g>
<!-- Node26&#45;&gt;Node16 -->
<g id="edge35" class="edge">
<title>Node26&#45;&gt;Node16</title>
<path fill="none" stroke="midnightblue" d="M276.63,-224.4C308.08,-214.12 350.19,-200.35 379.77,-190.68"/>
<polygon fill="midnightblue" stroke="midnightblue" points="380.87,-194.01 389.28,-187.57 378.69,-187.35 380.87,-194.01"/>
</g>
<!-- Node27 -->
<g id="node27" class="node">
<title>Node27</title>
<g id="a_node27"><a xlink:href="renderer_8hpp.html" target="_top" xlink:title=" ">
<polygon fill="none" stroke="black" points="93.5,-112.5 93.5,-131.5 171.5,-131.5 171.5,-112.5 93.5,-112.5"/>
<text text-anchor="middle" x="132.5" y="-119.5" font-family="Helvetica,sans-Serif" font-size="10.00">renderer.hpp</text>
</a>
</g>
</g>
<!-- Node26&#45;&gt;Node27 -->
<g id="edge36" class="edge">
<title>Node26&#45;&gt;Node27</title>
<path fill="none" stroke="midnightblue" d="M221.12,-224.34C202.34,-202.86 166.75,-162.17 146.87,-139.43"/>
<polygon fill="midnightblue" stroke="midnightblue" points="149.3,-136.89 140.08,-131.67 144.03,-141.5 149.3,-136.89"/>
</g>
<!-- Node27&#45;&gt;Node11 -->
<g id="edge37" class="edge">
<title>Node27&#45;&gt;Node11</title>
<path fill="none" stroke="midnightblue" d="M129.64,-112.18C125.78,-98.38 120.83,-71.64 134.5,-56 164.11,-22.12 297.65,-13.74 365.17,-11.67"/>
<polygon fill="midnightblue" stroke="midnightblue" points="365.51,-15.16 375.41,-11.39 365.32,-8.17 365.51,-15.16"/>
</g>
<!-- Node28&#45;&gt;Node24 -->
<g id="edge40" class="edge">
<title>Node28&#45;&gt;Node24</title>
<path fill="none" stroke="midnightblue" d="M337.37,-571.4C313.21,-561.42 281.1,-548.15 257.83,-538.53"/>
<polygon fill="midnightblue" stroke="midnightblue" points="259.03,-535.24 248.45,-534.66 256.36,-541.71 259.03,-535.24"/>
</g>
<!-- Node30 -->
<g id="node30" class="node">
<title>Node30</title>
<g id="a_node30"><a xlink:href="all__messages_8hpp.html" target="_top" xlink:title=" ">
<polygon fill="none" stroke="black" points="482.5,-515.5 482.5,-534.5 586.5,-534.5 586.5,-515.5 482.5,-515.5"/>
<text text-anchor="middle" x="534.5" y="-522.5" font-family="Helvetica,sans-Serif" font-size="10.00">all_messages.hpp</text>
</a>
</g>
</g>
<!-- Node29&#45;&gt;Node30 -->
<g id="edge42" class="edge">
<title>Node29&#45;&gt;Node30</title>
<path fill="none" stroke="midnightblue" d="M534.5,-571.4C534.5,-563.47 534.5,-553.46 534.5,-544.86"/>
<polygon fill="midnightblue" stroke="midnightblue" points="538,-544.66 534.5,-534.66 531,-544.66 538,-544.66"/>
</g>
<!-- Node31 -->
<g id="node31" class="node">
<title>Node31</title>
<g id="a_node31"><a xlink:href="base__message_8hpp.html" target="_top" xlink:title=" ">
<polygon fill="none" stroke="black" points="221.5,-403.5 221.5,-422.5 331.5,-422.5 331.5,-403.5 221.5,-403.5"/>
<text text-anchor="middle" x="276.5" y="-410.5" font-family="Helvetica,sans-Serif" font-size="10.00">base_message.hpp</text>
</a>
</g>
</g>
<!-- Node30&#45;&gt;Node31 -->
<g id="edge43" class="edge">
<title>Node30&#45;&gt;Node31</title>
<path fill="none" stroke="midnightblue" d="M482.33,-520.74C392.61,-514.6 216.88,-500.01 198.5,-479 180.3,-458.2 213.65,-438.5 242.23,-426.35"/>
<polygon fill="midnightblue" stroke="midnightblue" points="243.7,-429.53 251.66,-422.53 241.08,-423.04 243.7,-429.53"/>
</g>
<!-- Node33 -->
<g id="node33" class="node">
<title>Node33</title>
<g id="a_node33"><a xlink:href="private__decorator_8hpp.html" target="_top" xlink:title=" ">
<polygon fill="none" stroke="black" points="208,-459.5 208,-478.5 331,-478.5 331,-459.5 208,-459.5"/>
<text text-anchor="middle" x="269.5" y="-466.5" font-family="Helvetica,sans-Serif" font-size="10.00">private_decorator.hpp</text>
</a>
</g>
</g>
<!-- Node30&#45;&gt;Node33 -->
<g id="edge46" class="edge">
<title>Node30&#45;&gt;Node33</title>
<path fill="none" stroke="midnightblue" d="M492.51,-515.44C446.09,-505.98 371.27,-490.74 321.26,-480.55"/>
<polygon fill="midnightblue" stroke="midnightblue" points="321.79,-477.08 311.29,-478.52 320.39,-483.94 321.79,-477.08"/>
</g>
<!-- Node35 -->
<g id="node35" class="node">
<title>Node35</title>
<g id="a_node35"><a xlink:href="room__decorator_8hpp.html" target="_top" xlink:title=" ">
<polygon fill="none" stroke="black" points="349.5,-459.5 349.5,-478.5 463.5,-478.5 463.5,-459.5 349.5,-459.5"/>
<text text-anchor="middle" x="406.5" y="-466.5" font-family="Helvetica,sans-Serif" font-size="10.00">room_decorator.hpp</text>
</a>
</g>
</g>
<!-- Node30&#45;&gt;Node35 -->
<g id="edge49" class="edge">
<title>Node30&#45;&gt;Node35</title>
<path fill="none" stroke="midnightblue" d="M514.22,-515.44C493.15,-506.56 459.98,-492.56 436.01,-482.45"/>
<polygon fill="midnightblue" stroke="midnightblue" points="437.26,-479.18 426.69,-478.52 434.54,-485.63 437.26,-479.18"/>
</g>
<!-- Node36 -->
<g id="node36" class="node">
<title>Node36</title>
<g id="a_node36"><a xlink:href="sender__decorator_8hpp.html" target="_top" xlink:title=" ">
<polygon fill="none" stroke="black" points="481.5,-459.5 481.5,-478.5 603.5,-478.5 603.5,-459.5 481.5,-459.5"/>
<text text-anchor="middle" x="542.5" y="-466.5" font-family="Helvetica,sans-Serif" font-size="10.00">sender_decorator.hpp</text>
</a>
</g>
</g>
<!-- Node30&#45;&gt;Node36 -->
<g id="edge51" class="edge">
<title>Node30&#45;&gt;Node36</title>
<path fill="none" stroke="midnightblue" d="M535.82,-515.08C536.88,-507.93 538.41,-497.64 539.73,-488.69"/>
<polygon fill="midnightblue" stroke="midnightblue" points="543.2,-489.16 541.2,-478.75 536.28,-488.13 543.2,-489.16"/>
</g>
<!-- Node37 -->
<g id="node37" class="node">
<title>Node37</title>
<g id="a_node37"><a xlink:href="text__decorator_8hpp.html" target="_top" xlink:title=" ">
<polygon fill="none" stroke="black" points="621.5,-459.5 621.5,-478.5 729.5,-478.5 729.5,-459.5 621.5,-459.5"/>
<text text-anchor="middle" x="675.5" y="-466.5" font-family="Helvetica,sans-Serif" font-size="10.00">text_decorator.hpp</text>
</a>
</g>
</g>
<!-- Node30&#45;&gt;Node37 -->
<g id="edge53" class="edge">
<title>Node30&#45;&gt;Node37</title>
<path fill="none" stroke="midnightblue" d="M556.84,-515.44C580.25,-506.48 617.24,-492.31 643.69,-482.18"/>
<polygon fill="midnightblue" stroke="midnightblue" points="645.18,-485.36 653.26,-478.52 642.67,-478.82 645.18,-485.36"/>
</g>
<!-- Node38 -->
<g id="node38" class="node">
<title>Node38</title>
<g id="a_node38"><a xlink:href="time__decorator_8hpp.html" target="_top" xlink:title=" ">
<polygon fill="none" stroke="black" points="748,-459.5 748,-478.5 859,-478.5 859,-459.5 748,-459.5"/>
<text text-anchor="middle" x="803.5" y="-466.5" font-family="Helvetica,sans-Serif" font-size="10.00">time_decorator.hpp</text>
</a>
</g>
</g>
<!-- Node30&#45;&gt;Node38 -->
<g id="edge55" class="edge">
<title>Node30&#45;&gt;Node38</title>
<path fill="none" stroke="midnightblue" d="M577.12,-515.44C624.25,-505.98 700.19,-490.74 750.96,-480.55"/>
<polygon fill="midnightblue" stroke="midnightblue" points="751.96,-483.92 761.08,-478.52 750.58,-477.05 751.96,-483.92"/>
</g>
<!-- Node32 -->
<g id="node32" class="node">
<title>Node32</title>
<g id="a_node32"><a xlink:href="message_8hpp.html" target="_top" xlink:title=" ">
<polygon fill="none" stroke="black" points="286.5,-347.5 286.5,-366.5 368.5,-366.5 368.5,-347.5 286.5,-347.5"/>
<text text-anchor="middle" x="327.5" y="-354.5" font-family="Helvetica,sans-Serif" font-size="10.00">message.hpp</text>
</a>
</g>
</g>
<!-- Node31&#45;&gt;Node32 -->
<g id="edge44" class="edge">
<title>Node31&#45;&gt;Node32</title>
<path fill="none" stroke="midnightblue" d="M284.92,-403.08C292.35,-395.22 303.35,-383.57 312.31,-374.08"/>
<polygon fill="midnightblue" stroke="midnightblue" points="314.91,-376.42 319.24,-366.75 309.82,-371.62 314.91,-376.42"/>
</g>
<!-- Node32&#45;&gt;Node25 -->
<g id="edge45" class="edge">
<title>Node32&#45;&gt;Node25</title>
<path fill="none" stroke="midnightblue" d="M327.5,-347.08C327.5,-340.01 327.5,-329.86 327.5,-320.99"/>
<polygon fill="midnightblue" stroke="midnightblue" points="331,-320.75 327.5,-310.75 324,-320.75 331,-320.75"/>
</g>
<!-- Node34 -->
<g id="node34" class="node">
<title>Node34</title>
<g id="a_node34"><a xlink:href="properties__decorator_8hpp.html" target="_top" xlink:title=" ">
<polygon fill="none" stroke="black" points="445.5,-403.5 445.5,-422.5 583.5,-422.5 583.5,-403.5 445.5,-403.5"/>
<text text-anchor="middle" x="514.5" y="-410.5" font-family="Helvetica,sans-Serif" font-size="10.00">properties_decorator.hpp</text>
</a>
</g>
</g>
<!-- Node33&#45;&gt;Node34 -->
<g id="edge47" class="edge">
<title>Node33&#45;&gt;Node34</title>
<path fill="none" stroke="midnightblue" d="M308.32,-459.44C351.06,-450.02 419.83,-434.87 466.07,-424.68"/>
<polygon fill="midnightblue" stroke="midnightblue" points="466.85,-428.09 475.86,-422.52 465.34,-421.25 466.85,-428.09"/>
</g>
<!-- Node34&#45;&gt;Node32 -->
<g id="edge48" class="edge">
<title>Node34&#45;&gt;Node32</title>
<path fill="none" stroke="midnightblue" d="M484.87,-403.44C453,-394.24 402.17,-379.56 366.94,-369.39"/>
<polygon fill="midnightblue" stroke="midnightblue" points="367.57,-365.93 356.99,-366.52 365.63,-372.65 367.57,-365.93"/>
</g>
<!-- Node35&#45;&gt;Node34 -->
<g id="edge50" class="edge">
<title>Node35&#45;&gt;Node34</title>
<path fill="none" stroke="midnightblue" d="M423.85,-459.32C441.17,-450.66 468.02,-437.24 488,-427.25"/>
<polygon fill="midnightblue" stroke="midnightblue" points="489.81,-430.26 497.19,-422.65 486.68,-424 489.81,-430.26"/>
</g>
<!-- Node36&#45;&gt;Node34 -->
<g id="edge52" class="edge">
<title>Node36&#45;&gt;Node34</title>
<path fill="none" stroke="midnightblue" d="M537.88,-459.08C534.04,-451.69 528.48,-440.95 523.74,-431.81"/>
<polygon fill="midnightblue" stroke="midnightblue" points="526.75,-430.02 519.04,-422.75 520.53,-433.24 526.75,-430.02"/>
</g>
<!-- Node37&#45;&gt;Node34 -->
<g id="edge54" class="edge">
<title>Node37&#45;&gt;Node34</title>
<path fill="none" stroke="midnightblue" d="M649.99,-459.44C622.9,-450.36 579.91,-435.94 549.63,-425.78"/>
<polygon fill="midnightblue" stroke="midnightblue" points="550.49,-422.38 539.89,-422.52 548.26,-429.01 550.49,-422.38"/>
</g>
<!-- Node38&#45;&gt;Node34 -->
<g id="edge56" class="edge">
<title>Node38&#45;&gt;Node34</title>
<path fill="none" stroke="midnightblue" d="M757.71,-459.44C706.76,-449.92 624.47,-434.55 569.93,-424.36"/>
<polygon fill="midnightblue" stroke="midnightblue" points="570.55,-420.91 560.08,-422.52 569.27,-427.79 570.55,-420.91"/>
</g>
<!-- Node39 -->
<g id="node39" class="node">
<title>Node39</title>
<g id="a_node39"><a xlink:title=" ">
<polygon fill="none" stroke="#bfbfbf" points="779.5,-403.5 779.5,-422.5 827.5,-422.5 827.5,-403.5 779.5,-403.5"/>
<text text-anchor="middle" x="803.5" y="-410.5" font-family="Helvetica,sans-Serif" font-size="10.00">time.h</text>
</a>
</g>
</g>
<!-- Node38&#45;&gt;Node39 -->
<g id="edge57" class="edge">
<title>Node38&#45;&gt;Node39</title>
<path fill="none" stroke="midnightblue" d="M803.5,-459.08C803.5,-452.01 803.5,-441.86 803.5,-432.99"/>
<polygon fill="midnightblue" stroke="midnightblue" points="807,-432.75 803.5,-422.75 800,-432.75 807,-432.75"/>
</g>
<!-- Node40&#45;&gt;Node3 -->
<g id="edge59" class="edge">
<title>Node40&#45;&gt;Node3</title>
<path fill="none" stroke="midnightblue" d="M487.74,-694.44C466.18,-685.56 432.24,-671.56 407.71,-661.45"/>
<polygon fill="midnightblue" stroke="midnightblue" points="408.74,-658.09 398.16,-657.52 406.07,-664.56 408.74,-658.09"/>
</g>
<!-- Node40&#45;&gt;Node7 -->
<g id="edge60" class="edge">
<title>Node40&#45;&gt;Node7</title>
<path fill="none" stroke="midnightblue" d="M476.91,-694.92C438.97,-685.21 375.4,-668.94 335,-658.6"/>
<polygon fill="midnightblue" stroke="midnightblue" points="335.81,-655.19 325.26,-656.1 334.08,-661.97 335.81,-655.19"/>
</g>
<!-- Node40&#45;&gt;Node14 -->
<g id="edge62" class="edge">
<title>Node40&#45;&gt;Node14</title>
<path fill="none" stroke="midnightblue" d="M540.16,-700.21C631.25,-691.33 887.5,-659.9 887.5,-587.5 887.5,-587.5 887.5,-587.5 887.5,-356 887.5,-324.38 891.27,-288.06 894.18,-264.73"/>
<polygon fill="midnightblue" stroke="midnightblue" points="897.66,-265.06 895.48,-254.69 890.72,-264.16 897.66,-265.06"/>
</g>
<!-- Node40&#45;&gt;Node15 -->
<g id="edge61" class="edge">
<title>Node40&#45;&gt;Node15</title>
<path fill="none" stroke="midnightblue" d="M540.19,-701.07C637.5,-694.27 925.5,-667.41 925.5,-587.5 925.5,-587.5 925.5,-587.5 925.5,-468 925.5,-413.15 977.34,-251.77 995.39,-197.24"/>
<polygon fill="midnightblue" stroke="midnightblue" points="998.78,-198.15 998.61,-187.56 992.13,-195.94 998.78,-198.15"/>
</g>
<!-- Node40&#45;&gt;Node22 -->
<g id="edge63" class="edge">
<title>Node40&#45;&gt;Node22</title>
<path fill="none" stroke="midnightblue" d="M508.5,-694.08C508.5,-687.01 508.5,-676.86 508.5,-667.99"/>
<polygon fill="midnightblue" stroke="midnightblue" points="512,-667.75 508.5,-657.75 505,-667.75 512,-667.75"/>
</g>
<!-- Node41&#45;&gt;Node2 -->
<g id="edge71" class="edge">
<title>Node41&#45;&gt;Node2</title>
<path fill="none" stroke="midnightblue" d="M505.68,-806.32C492.27,-797.9 471.68,-784.97 455.91,-775.07"/>
<polygon fill="midnightblue" stroke="midnightblue" points="457.61,-772.01 447.28,-769.65 453.89,-777.94 457.61,-772.01"/>
</g>
<!-- Node41&#45;&gt;Node9 -->
<g id="edge65" class="edge">
<title>Node41&#45;&gt;Node9</title>
<path fill="none" stroke="midnightblue" d="M466.3,-806.5C393.27,-793.47 259.12,-764.59 154.5,-714 127.51,-700.95 100.22,-679.52 83.1,-664.86"/>
<polygon fill="midnightblue" stroke="midnightblue" points="84.97,-661.85 75.14,-657.9 80.36,-667.11 84.97,-661.85"/>
</g>
<!-- Node41&#45;&gt;Node14 -->
<g id="edge69" class="edge">
<title>Node41&#45;&gt;Node14</title>
<path fill="none" stroke="midnightblue" d="M581.04,-813.75C710.98,-809.45 1001.5,-790.3 1001.5,-705 1001.5,-705 1001.5,-705 1001.5,-468 1001.5,-384.65 980.58,-363.53 939.5,-291 933.79,-280.92 926.01,-270.9 918.69,-262.46"/>
<polygon fill="midnightblue" stroke="midnightblue" points="921.18,-260.01 911.89,-254.92 915.98,-264.69 921.18,-260.01"/>
</g>
<!-- Node41&#45;&gt;Node40 -->
<g id="edge70" class="edge">
<title>Node41&#45;&gt;Node40</title>
<path fill="none" stroke="midnightblue" d="M518.64,-806.37C516.86,-788.62 512.77,-747.67 510.36,-723.6"/>
<polygon fill="midnightblue" stroke="midnightblue" points="513.84,-723.19 509.36,-713.59 506.87,-723.89 513.84,-723.19"/>
</g>
<!-- Node42 -->
<g id="node42" class="node">
<title>Node42</title>
<g id="a_node42"><a xlink:href="permissions_8hpp.html" target="_top" xlink:title=" ">
<polygon fill="none" stroke="black" points="1030,-230 1030,-249 1127,-249 1127,-230 1030,-230"/>
<text text-anchor="middle" x="1078.5" y="-237" font-family="Helvetica,sans-Serif" font-size="10.00">permissions.hpp</text>
</a>
</g>
</g>
<!-- Node41&#45;&gt;Node42 -->
<g id="edge66" class="edge">
<title>Node41&#45;&gt;Node42</title>
<path fill="none" stroke="midnightblue" d="M581.07,-815.26C722.49,-814.2 1058.5,-801.52 1058.5,-705 1058.5,-705 1058.5,-705 1058.5,-356 1058.5,-321.36 1067.34,-281.71 1073.27,-259.04"/>
<polygon fill="midnightblue" stroke="midnightblue" points="1076.72,-259.67 1075.97,-249.11 1069.97,-257.84 1076.72,-259.67"/>
</g>
<!-- Node42&#45;&gt;Node11 -->
<g id="edge67" class="edge">
<title>Node42&#45;&gt;Node11</title>
<path fill="none" stroke="midnightblue" d="M1078.23,-229.88C1077.3,-215.2 1073.32,-185.27 1056.5,-168 949.03,-57.64 878.59,-90.69 728.5,-56 606.85,-27.88 570.41,-42.03 443.96,-20.08"/>
<polygon fill="midnightblue" stroke="midnightblue" points="444.35,-16.6 433.89,-18.29 443.13,-23.49 444.35,-16.6"/>
</g>
<!-- Node42&#45;&gt;Node15 -->
<g id="edge68" class="edge">
<title>Node42&#45;&gt;Node15</title>
<path fill="none" stroke="midnightblue" d="M1067.47,-229.98C1055.23,-220.52 1035.27,-205.1 1020.51,-193.69"/>
<polygon fill="midnightblue" stroke="midnightblue" points="1022.56,-190.85 1012.51,-187.51 1018.28,-196.39 1022.56,-190.85"/>
</g>
</g>
</svg>
