<?xml version="1.0" encoding="UTF-8" standalone="no"?>
<!DOCTYPE svg PUBLIC "-//W3C//DTD SVG 1.1//EN"
 "http://www.w3.org/Graphics/SVG/1.1/DTD/svg11.dtd">
<!-- Generated by graphviz version 2.43.0 (0)
 -->
<!-- Title: /home/alexander/Documents/Seminars/TP/Project/src/server_side/server.hpp Pages: 1 -->
<!--zoomable 800 -->
<svg id="main" version="1.1" xmlns="http://www.w3.org/2000/svg" xmlns:xlink="http://www.w3.org/1999/xlink" xml:space="preserve" onload="init(evt)">
<style type="text/css"><![CDATA[
.edge:hover path { stroke: red; }
.edge:hover polygon { stroke: red; fill: red; }
]]></style>
<script type="text/javascript"><![CDATA[
var edges = document.getElementsByTagName('g');
if (edges && edges.length) {
  for (var i=0;i<edges.length;i++) {
    if (edges[i].id.substr(0,4)=='edge') {
      edges[i].setAttribute('class','edge');
    }
  }
}
]]></script>
        <defs>
                <circle id="rim" cx="0" cy="0" r="7"/>
                <circle id="rim2" cx="0" cy="0" r="3.5"/>
                <g id="zoomPlus">
                        <use xlink:href="#rim" fill="#404040">
                                <set attributeName="fill" to="#808080" begin="zoomplus.mouseover" end="zoomplus.mouseout"/>
                        </use>
                        <path d="M-4,0h8M0,-4v8" fill="none" stroke="white" stroke-width="1.5" pointer-events="none"/>
                </g>
                <g id="zoomMin">
                        <use xlink:href="#rim" fill="#404040">
                                <set attributeName="fill" to="#808080" begin="zoomminus.mouseover" end="zoomminus.mouseout"/>
                        </use>
                        <path d="M-4,0h8" fill="none" stroke="white" stroke-width="1.5" pointer-events="none"/>
                </g>
                <g id="dirArrow">
                        <path fill="none" stroke="white" stroke-width="1.5" d="M0,-3.0v7 M-2.5,-0.5L0,-3.0L2.5,-0.5"/>
                </g>
               <g id="resetDef">
                       <use xlink:href="#rim2" fill="#404040">
                               <set attributeName="fill" to="#808080" begin="reset.mouseover" end="reset.mouseout"/>
                       </use>
               </g>
        </defs>

<script type="text/javascript">
var viewWidth = 1117;
var viewHeight = 800;
var sectionId = 'dynsection-0';
</script>
<script xlink:href="svgpan.js"/>
<svg id="graph" class="graph">
<g id="viewport">
<title>/home/alexander/Documents/Seminars/TP/Project/src/server_side/server.hpp</title>
<!-- Node1 -->
<g id="node1" class="node">
<title>Node1</title>
<g id="a_node1"><a xlink:title=" ">
<polygon fill="#bfbfbf" stroke="black" points="262,-750.5 262,-791.5 420,-791.5 420,-750.5 262,-750.5"/>
<text text-anchor="start" x="270" y="-779.5" font-family="Helvetica,sans-Serif" font-size="10.00">/home/alexander/Documents</text>
<text text-anchor="start" x="270" y="-768.5" font-family="Helvetica,sans-Serif" font-size="10.00">/Seminars/TP/Project/src</text>
<text text-anchor="middle" x="341" y="-757.5" font-family="Helvetica,sans-Serif" font-size="10.00">/server_side/server.hpp</text>
</a>
</g>
</g>
<!-- Node2 -->
<g id="node2" class="node">
<title>Node2</title>
<g id="a_node2"><a xlink:title=" ">
<polygon fill="none" stroke="#bfbfbf" points="132,-638.5 132,-657.5 200,-657.5 200,-638.5 132,-638.5"/>
<text text-anchor="middle" x="166" y="-645.5" font-family="Helvetica,sans-Serif" font-size="10.00">filesystem</text>
</a>
</g>
</g>
<!-- Node1&#45;&gt;Node2 -->
<g id="edge1" class="edge">
<title>Node1&#45;&gt;Node2</title>
<path fill="none" stroke="midnightblue" d="M312.49,-750.29C277.23,-725.91 218.05,-684.99 186.79,-663.38"/>
<polygon fill="midnightblue" stroke="midnightblue" points="188.62,-660.38 178.4,-657.57 184.64,-666.14 188.62,-660.38"/>
</g>
<!-- Node3 -->
<g id="node3" class="node">
<title>Node3</title>
<g id="a_node3"><a xlink:title=" ">
<polygon fill="none" stroke="#bfbfbf" points="444,-694.5 444,-713.5 476,-713.5 476,-694.5 444,-694.5"/>
<text text-anchor="middle" x="460" y="-701.5" font-family="Helvetica,sans-Serif" font-size="10.00">list</text>
</a>
</g>
</g>
<!-- Node1&#45;&gt;Node3 -->
<g id="edge2" class="edge">
<title>Node1&#45;&gt;Node3</title>
<path fill="none" stroke="midnightblue" d="M376.7,-750.5C395.48,-740.24 418.03,-727.93 434.93,-718.69"/>
<polygon fill="midnightblue" stroke="midnightblue" points="437.06,-721.52 444.16,-713.65 433.71,-715.37 437.06,-721.52"/>
</g>
<!-- Node4 -->
<g id="node4" class="node">
<title>Node4</title>
<g id="a_node4"><a xlink:href="simple__database_8hpp.html" target="_top" xlink:title=" ">
<polygon fill="none" stroke="black" points="12.5,-694.5 12.5,-713.5 181.5,-713.5 181.5,-694.5 12.5,-694.5"/>
<text text-anchor="middle" x="97" y="-701.5" font-family="Helvetica,sans-Serif" font-size="10.00">database/simple_database.hpp</text>
</a>
</g>
</g>
<!-- Node1&#45;&gt;Node4 -->
<g id="edge3" class="edge">
<title>Node1&#45;&gt;Node4</title>
<path fill="none" stroke="midnightblue" d="M267.79,-750.5C225.76,-739.3 174.47,-725.64 139.13,-716.22"/>
<polygon fill="midnightblue" stroke="midnightblue" points="139.72,-712.76 129.16,-713.57 137.92,-719.52 139.72,-712.76"/>
</g>
<!-- Node13 -->
<g id="node13" class="node">
<title>Node13</title>
<g id="a_node13"><a xlink:href="server__handler_8hpp.html" target="_top" xlink:title=" ">
<polygon fill="none" stroke="black" points="330,-224.5 330,-254.5 464,-254.5 464,-224.5 330,-224.5"/>
<text text-anchor="start" x="338" y="-242.5" font-family="Helvetica,sans-Serif" font-size="10.00">request_handlers/server</text>
<text text-anchor="middle" x="397" y="-231.5" font-family="Helvetica,sans-Serif" font-size="10.00">_handler.hpp</text>
</a>
</g>
</g>
<!-- Node1&#45;&gt;Node13 -->
<g id="edge14" class="edge">
<title>Node1&#45;&gt;Node13</title>
<path fill="none" stroke="midnightblue" d="M350.92,-750.44C361.88,-726.97 378,-686.12 378,-649 378,-649 378,-649 378,-356 378,-324.07 385.16,-287.83 390.69,-264.59"/>
<polygon fill="midnightblue" stroke="midnightblue" points="394.15,-265.15 393.16,-254.6 387.36,-263.47 394.15,-265.15"/>
</g>
<!-- Node21 -->
<g id="node21" class="node">
<title>Node21</title>
<g id="a_node21"><a xlink:href="request__creator_8hpp.html" target="_top" xlink:title=" ">
<polygon fill="none" stroke="black" points="479,-638.5 479,-657.5 637,-657.5 637,-638.5 479,-638.5"/>
<text text-anchor="middle" x="558" y="-645.5" font-family="Helvetica,sans-Serif" font-size="10.00">requests/request_creator.hpp</text>
</a>
</g>
</g>
<!-- Node1&#45;&gt;Node21 -->
<g id="edge27" class="edge">
<title>Node1&#45;&gt;Node21</title>
<path fill="none" stroke="midnightblue" d="M361.19,-750.35C379.31,-733.57 407.24,-709.72 435,-694 460.56,-679.52 491.65,-668.2 516.18,-660.53"/>
<polygon fill="midnightblue" stroke="midnightblue" points="517.36,-663.83 525.91,-657.57 515.33,-657.13 517.36,-663.83"/>
</g>
<!-- Node39 -->
<g id="node39" class="node">
<title>Node39</title>
<g id="a_node39"><a xlink:href="room_8hpp.html" target="_top" xlink:title=" ">
<polygon fill="none" stroke="black" points="279.5,-694.5 279.5,-713.5 342.5,-713.5 342.5,-694.5 279.5,-694.5"/>
<text text-anchor="middle" x="311" y="-701.5" font-family="Helvetica,sans-Serif" font-size="10.00">room.hpp</text>
</a>
</g>
</g>
<!-- Node1&#45;&gt;Node39 -->
<g id="edge57" class="edge">
<title>Node1&#45;&gt;Node39</title>
<path fill="none" stroke="midnightblue" d="M332,-750.5C327.93,-741.68 323.16,-731.34 319.19,-722.74"/>
<polygon fill="midnightblue" stroke="midnightblue" points="322.36,-721.27 314.99,-713.65 316.01,-724.2 322.36,-721.27"/>
</g>
<!-- Node4&#45;&gt;Node2 -->
<g id="edge5" class="edge">
<title>Node4&#45;&gt;Node2</title>
<path fill="none" stroke="midnightblue" d="M108.09,-694.32C118.49,-686.18 134.26,-673.84 146.72,-664.09"/>
<polygon fill="midnightblue" stroke="midnightblue" points="148.99,-666.75 154.71,-657.83 144.68,-661.24 148.99,-666.75"/>
</g>
<!-- Node5 -->
<g id="node5" class="node">
<title>Node5</title>
<g id="a_node5"><a xlink:title=" ">
<polygon fill="none" stroke="#bfbfbf" points="66.5,-638.5 66.5,-657.5 113.5,-657.5 113.5,-638.5 66.5,-638.5"/>
<text text-anchor="middle" x="90" y="-645.5" font-family="Helvetica,sans-Serif" font-size="10.00">deque</text>
</a>
</g>
</g>
<!-- Node4&#45;&gt;Node5 -->
<g id="edge4" class="edge">
<title>Node4&#45;&gt;Node5</title>
<path fill="none" stroke="midnightblue" d="M95.84,-694.08C94.92,-686.93 93.58,-676.64 92.42,-667.69"/>
<polygon fill="midnightblue" stroke="midnightblue" points="95.89,-667.22 91.13,-657.75 88.95,-668.12 95.89,-667.22"/>
</g>
<!-- Node6 -->
<g id="node6" class="node">
<title>Node6</title>
<g id="a_node6"><a xlink:title=" ">
<polygon fill="none" stroke="#bfbfbf" points="218.5,-638.5 218.5,-657.5 273.5,-657.5 273.5,-638.5 218.5,-638.5"/>
<text text-anchor="middle" x="246" y="-645.5" font-family="Helvetica,sans-Serif" font-size="10.00">fstream</text>
</a>
</g>
</g>
<!-- Node4&#45;&gt;Node6 -->
<g id="edge6" class="edge">
<title>Node4&#45;&gt;Node6</title>
<path fill="none" stroke="midnightblue" d="M120.61,-694.44C145.46,-685.44 184.77,-671.19 212.75,-661.05"/>
<polygon fill="midnightblue" stroke="midnightblue" points="214.29,-664.21 222.5,-657.52 211.91,-657.63 214.29,-664.21"/>
</g>
<!-- Node7 -->
<g id="node7" class="node">
<title>Node7</title>
<g id="a_node7"><a xlink:title=" ">
<polygon fill="none" stroke="#bfbfbf" points="60,-56.5 60,-75.5 116,-75.5 116,-56.5 60,-56.5"/>
<text text-anchor="middle" x="88" y="-63.5" font-family="Helvetica,sans-Serif" font-size="10.00">sstream</text>
</a>
</g>
</g>
<!-- Node4&#45;&gt;Node7 -->
<g id="edge7" class="edge">
<title>Node4&#45;&gt;Node7</title>
<path fill="none" stroke="midnightblue" d="M81.84,-694.38C54.56,-677.61 0,-637.78 0,-587.5 0,-587.5 0,-587.5 0,-177 0,-135.03 39.54,-99.9 65.61,-81.3"/>
<polygon fill="midnightblue" stroke="midnightblue" points="67.6,-84.18 73.86,-75.64 63.64,-78.41 67.6,-84.18"/>
</g>
<!-- Node8 -->
<g id="node8" class="node">
<title>Node8</title>
<g id="a_node8"><a xlink:href="accounts__database_8hpp.html" target="_top" xlink:title=" ">
<polygon fill="none" stroke="black" points="64.5,-347.5 64.5,-366.5 195.5,-366.5 195.5,-347.5 64.5,-347.5"/>
<text text-anchor="middle" x="130" y="-354.5" font-family="Helvetica,sans-Serif" font-size="10.00">accounts_database.hpp</text>
</a>
</g>
</g>
<!-- Node4&#45;&gt;Node8 -->
<g id="edge8" class="edge">
<title>Node4&#45;&gt;Node8</title>
<path fill="none" stroke="midnightblue" d="M87,-694.33C77.9,-685.92 64.75,-672.35 57,-658 41.59,-629.44 38,-619.95 38,-587.5 38,-587.5 38,-587.5 38,-468 38,-425.5 78.91,-390.77 106.17,-372.34"/>
<polygon fill="midnightblue" stroke="midnightblue" points="108.33,-375.11 114.81,-366.73 104.51,-369.24 108.33,-375.11"/>
</g>
<!-- Node9 -->
<g id="node9" class="node">
<title>Node9</title>
<g id="a_node9"><a xlink:href="account_8hpp.html" target="_top" xlink:title=" ">
<polygon fill="none" stroke="black" points="163,-112.5 163,-131.5 239,-131.5 239,-112.5 163,-112.5"/>
<text text-anchor="middle" x="201" y="-119.5" font-family="Helvetica,sans-Serif" font-size="10.00">account.hpp</text>
</a>
</g>
</g>
<!-- Node8&#45;&gt;Node9 -->
<g id="edge9" class="edge">
<title>Node8&#45;&gt;Node9</title>
<path fill="none" stroke="midnightblue" d="M132.61,-347.43C142.92,-313.61 180.9,-188.95 195.36,-141.5"/>
<polygon fill="midnightblue" stroke="midnightblue" points="198.72,-142.48 198.29,-131.9 192.03,-140.44 198.72,-142.48"/>
</g>
<!-- Node9&#45;&gt;Node7 -->
<g id="edge12" class="edge">
<title>Node9&#45;&gt;Node7</title>
<path fill="none" stroke="midnightblue" d="M183.09,-112.44C164.75,-103.68 135.99,-89.94 114.91,-79.86"/>
<polygon fill="midnightblue" stroke="midnightblue" points="116.35,-76.67 105.82,-75.52 113.33,-82.99 116.35,-76.67"/>
</g>
<!-- Node10 -->
<g id="node10" class="node">
<title>Node10</title>
<g id="a_node10"><a xlink:title=" ">
<polygon fill="none" stroke="#bfbfbf" points="575,-0.5 575,-19.5 633,-19.5 633,-0.5 575,-0.5"/>
<text text-anchor="middle" x="604" y="-7.5" font-family="Helvetica,sans-Serif" font-size="10.00">memory</text>
</a>
</g>
</g>
<!-- Node9&#45;&gt;Node10 -->
<g id="edge10" class="edge">
<title>Node9&#45;&gt;Node10</title>
<path fill="none" stroke="midnightblue" d="M203.82,-112.06C208.9,-97.59 221.05,-69.31 242,-56 294.88,-22.41 482.21,-13.86 564.61,-11.71"/>
<polygon fill="midnightblue" stroke="midnightblue" points="564.91,-15.21 574.82,-11.46 564.74,-8.21 564.91,-15.21"/>
</g>
<!-- Node11 -->
<g id="node11" class="node">
<title>Node11</title>
<g id="a_node11"><a xlink:title=" ">
<polygon fill="none" stroke="#bfbfbf" points="163,-56.5 163,-75.5 195,-75.5 195,-56.5 163,-56.5"/>
<text text-anchor="middle" x="179" y="-63.5" font-family="Helvetica,sans-Serif" font-size="10.00">set</text>
</a>
</g>
</g>
<!-- Node9&#45;&gt;Node11 -->
<g id="edge11" class="edge">
<title>Node9&#45;&gt;Node11</title>
<path fill="none" stroke="midnightblue" d="M197.37,-112.08C194.39,-104.77 190.07,-94.18 186.38,-85.1"/>
<polygon fill="midnightblue" stroke="midnightblue" points="189.58,-83.69 182.57,-75.75 183.1,-86.33 189.58,-83.69"/>
</g>
<!-- Node12 -->
<g id="node12" class="node">
<title>Node12</title>
<g id="a_node12"><a xlink:title=" ">
<polygon fill="none" stroke="#bfbfbf" points="251,-56.5 251,-75.5 295,-75.5 295,-56.5 251,-56.5"/>
<text text-anchor="middle" x="273" y="-63.5" font-family="Helvetica,sans-Serif" font-size="10.00">string</text>
</a>
</g>
</g>
<!-- Node9&#45;&gt;Node12 -->
<g id="edge13" class="edge">
<title>Node9&#45;&gt;Node12</title>
<path fill="none" stroke="midnightblue" d="M212.57,-112.32C223.42,-104.18 239.88,-91.84 252.88,-82.09"/>
<polygon fill="midnightblue" stroke="midnightblue" points="255.32,-84.63 261.22,-75.83 251.12,-79.03 255.32,-84.63"/>
</g>
<!-- Node14 -->
<g id="node14" class="node">
<title>Node14</title>
<g id="a_node14"><a xlink:title=" ">
<polygon fill="none" stroke="#bfbfbf" points="288.5,-168.5 288.5,-187.5 381.5,-187.5 381.5,-168.5 288.5,-168.5"/>
<text text-anchor="middle" x="335" y="-175.5" font-family="Helvetica,sans-Serif" font-size="10.00">unordered_map</text>
</a>
</g>
</g>
<!-- Node13&#45;&gt;Node14 -->
<g id="edge15" class="edge">
<title>Node13&#45;&gt;Node14</title>
<path fill="none" stroke="midnightblue" d="M382.31,-224.4C373.02,-215.49 361,-203.95 351.4,-194.74"/>
<polygon fill="midnightblue" stroke="midnightblue" points="353.66,-192.06 344.02,-187.66 348.81,-197.11 353.66,-192.06"/>
</g>
<!-- Node15 -->
<g id="node15" class="node">
<title>Node15</title>
<g id="a_node15"><a xlink:href="abstract__handler_8hpp.html" target="_top" xlink:title=" ">
<polygon fill="none" stroke="black" points="472.5,-168.5 472.5,-187.5 591.5,-187.5 591.5,-168.5 472.5,-168.5"/>
<text text-anchor="middle" x="532" y="-175.5" font-family="Helvetica,sans-Serif" font-size="10.00">abstract_handler.hpp</text>
</a>
</g>
</g>
<!-- Node13&#45;&gt;Node15 -->
<g id="edge16" class="edge">
<title>Node13&#45;&gt;Node15</title>
<path fill="none" stroke="midnightblue" d="M428.99,-224.4C451.44,-214.51 481.21,-201.38 502.98,-191.79"/>
<polygon fill="midnightblue" stroke="midnightblue" points="504.62,-194.89 512.36,-187.66 501.79,-188.49 504.62,-194.89"/>
</g>
<!-- Node15&#45;&gt;Node9 -->
<g id="edge18" class="edge">
<title>Node15&#45;&gt;Node9</title>
<path fill="none" stroke="midnightblue" d="M479.55,-168.44C416.31,-158.13 310.88,-140.93 249.47,-130.91"/>
<polygon fill="midnightblue" stroke="midnightblue" points="249.7,-127.4 239.27,-129.24 248.58,-134.31 249.7,-127.4"/>
</g>
<!-- Node15&#45;&gt;Node10 -->
<g id="edge17" class="edge">
<title>Node15&#45;&gt;Node10</title>
<path fill="none" stroke="midnightblue" d="M547.18,-168.37C559.47,-160.53 576.14,-147.79 585,-132 603.23,-99.5 605.41,-54.79 604.96,-29.82"/>
<polygon fill="midnightblue" stroke="midnightblue" points="608.45,-29.44 604.61,-19.57 601.46,-29.69 608.45,-29.44"/>
</g>
<!-- Node16 -->
<g id="node16" class="node">
<title>Node16</title>
<g id="a_node16"><a xlink:href="socket_8hpp.html" target="_top" xlink:title=" ">
<polygon fill="none" stroke="black" points="472,-112.5 472,-131.5 576,-131.5 576,-112.5 472,-112.5"/>
<text text-anchor="middle" x="524" y="-119.5" font-family="Helvetica,sans-Serif" font-size="10.00">socket/socket.hpp</text>
</a>
</g>
</g>
<!-- Node15&#45;&gt;Node16 -->
<g id="edge19" class="edge">
<title>Node15&#45;&gt;Node16</title>
<path fill="none" stroke="midnightblue" d="M530.68,-168.08C529.62,-160.93 528.09,-150.64 526.77,-141.69"/>
<polygon fill="midnightblue" stroke="midnightblue" points="530.22,-141.13 525.3,-131.75 523.3,-142.16 530.22,-141.13"/>
</g>
<!-- Node16&#45;&gt;Node10 -->
<g id="edge22" class="edge">
<title>Node16&#45;&gt;Node10</title>
<path fill="none" stroke="midnightblue" d="M533.32,-112.22C542.28,-103.51 555.92,-89.54 566,-76 577.2,-60.96 587.78,-42.37 594.91,-28.93"/>
<polygon fill="midnightblue" stroke="midnightblue" points="598.15,-30.28 599.66,-19.79 591.94,-27.06 598.15,-30.28"/>
</g>
<!-- Node16&#45;&gt;Node12 -->
<g id="edge23" class="edge">
<title>Node16&#45;&gt;Node12</title>
<path fill="none" stroke="midnightblue" d="M477.64,-112.47C435.34,-104.47 370.89,-91.71 305.41,-75.95"/>
<polygon fill="midnightblue" stroke="midnightblue" points="305.87,-72.46 295.33,-73.5 304.22,-79.26 305.87,-72.46"/>
</g>
<!-- Node17 -->
<g id="node17" class="node">
<title>Node17</title>
<g id="a_node17"><a xlink:title=" ">
<polygon fill="none" stroke="#bfbfbf" points="385,-56.5 385,-75.5 473,-75.5 473,-56.5 385,-56.5"/>
<text text-anchor="middle" x="429" y="-63.5" font-family="Helvetica,sans-Serif" font-size="10.00">boost/asio.hpp</text>
</a>
</g>
</g>
<!-- Node16&#45;&gt;Node17 -->
<g id="edge20" class="edge">
<title>Node16&#45;&gt;Node17</title>
<path fill="none" stroke="midnightblue" d="M508.74,-112.32C493.78,-103.82 470.75,-90.73 453.27,-80.8"/>
<polygon fill="midnightblue" stroke="midnightblue" points="454.65,-77.55 444.23,-75.65 451.19,-83.64 454.65,-77.55"/>
</g>
<!-- Node18 -->
<g id="node18" class="node">
<title>Node18</title>
<g id="a_node18"><a xlink:title=" ">
<polygon fill="none" stroke="#bfbfbf" points="491.5,-56.5 491.5,-75.5 556.5,-75.5 556.5,-56.5 491.5,-56.5"/>
<text text-anchor="middle" x="524" y="-63.5" font-family="Helvetica,sans-Serif" font-size="10.00">functional</text>
</a>
</g>
</g>
<!-- Node16&#45;&gt;Node18 -->
<g id="edge21" class="edge">
<title>Node16&#45;&gt;Node18</title>
<path fill="none" stroke="midnightblue" d="M524,-112.08C524,-105.01 524,-94.86 524,-85.99"/>
<polygon fill="midnightblue" stroke="midnightblue" points="527.5,-85.75 524,-75.75 520.5,-85.75 527.5,-85.75"/>
</g>
<!-- Node19 -->
<g id="node19" class="node">
<title>Node19</title>
<g id="a_node19"><a xlink:href="general_2socket_2log_8hpp.html" target="_top" xlink:title=" ">
<polygon fill="none" stroke="black" points="313.5,-56.5 313.5,-75.5 366.5,-75.5 366.5,-56.5 313.5,-56.5"/>
<text text-anchor="middle" x="340" y="-63.5" font-family="Helvetica,sans-Serif" font-size="10.00">log.hpp</text>
</a>
</g>
</g>
<!-- Node16&#45;&gt;Node19 -->
<g id="edge24" class="edge">
<title>Node16&#45;&gt;Node19</title>
<path fill="none" stroke="midnightblue" d="M494.84,-112.44C462.75,-103.02 411.11,-87.87 376.38,-77.68"/>
<polygon fill="midnightblue" stroke="midnightblue" points="377.21,-74.27 366.63,-74.82 375.24,-80.99 377.21,-74.27"/>
</g>
<!-- Node19&#45;&gt;Node10 -->
<g id="edge25" class="edge">
<title>Node19&#45;&gt;Node10</title>
<path fill="none" stroke="midnightblue" d="M366.7,-58.17C369.83,-57.41 372.98,-56.67 376,-56 441.94,-41.26 519.17,-26.55 564.71,-18.14"/>
<polygon fill="midnightblue" stroke="midnightblue" points="565.55,-21.54 574.75,-16.29 564.28,-14.66 565.55,-21.54"/>
</g>
<!-- Node20 -->
<g id="node20" class="node">
<title>Node20</title>
<g id="a_node20"><a xlink:title=" ">
<polygon fill="none" stroke="#bfbfbf" points="311.5,-0.5 311.5,-19.5 368.5,-19.5 368.5,-0.5 311.5,-0.5"/>
<text text-anchor="middle" x="340" y="-7.5" font-family="Helvetica,sans-Serif" font-size="10.00">ostream</text>
</a>
</g>
</g>
<!-- Node19&#45;&gt;Node20 -->
<g id="edge26" class="edge">
<title>Node19&#45;&gt;Node20</title>
<path fill="none" stroke="midnightblue" d="M340,-56.08C340,-49.01 340,-38.86 340,-29.99"/>
<polygon fill="midnightblue" stroke="midnightblue" points="343.5,-29.75 340,-19.75 336.5,-29.75 343.5,-29.75"/>
</g>
<!-- Node22 -->
<g id="node22" class="node">
<title>Node22</title>
<g id="a_node22"><a xlink:href="sign__in__request_8hpp.html" target="_top" xlink:title=" ">
<polygon fill="none" stroke="black" points="802,-571.5 802,-601.5 928,-601.5 928,-571.5 802,-571.5"/>
<text text-anchor="start" x="810" y="-589.5" font-family="Helvetica,sans-Serif" font-size="10.00">requests/authorization</text>
<text text-anchor="middle" x="865" y="-578.5" font-family="Helvetica,sans-Serif" font-size="10.00">/sign_in_request.hpp</text>
</a>
</g>
</g>
<!-- Node21&#45;&gt;Node22 -->
<g id="edge28" class="edge">
<title>Node21&#45;&gt;Node22</title>
<path fill="none" stroke="midnightblue" d="M603.51,-638.42C648.75,-629.86 720.37,-616.22 791.73,-602.24"/>
<polygon fill="midnightblue" stroke="midnightblue" points="792.65,-605.63 801.79,-600.27 791.3,-598.76 792.65,-605.63"/>
</g>
<!-- Node27 -->
<g id="node27" class="node">
<title>Node27</title>
<g id="a_node27"><a xlink:href="sign__up__request_8hpp.html" target="_top" xlink:title=" ">
<polygon fill="none" stroke="black" points="658,-571.5 658,-601.5 784,-601.5 784,-571.5 658,-571.5"/>
<text text-anchor="start" x="666" y="-589.5" font-family="Helvetica,sans-Serif" font-size="10.00">requests/authorization</text>
<text text-anchor="middle" x="721" y="-578.5" font-family="Helvetica,sans-Serif" font-size="10.00">/sign_up_request.hpp</text>
</a>
</g>
</g>
<!-- Node21&#45;&gt;Node27 -->
<g id="edge38" class="edge">
<title>Node21&#45;&gt;Node27</title>
<path fill="none" stroke="midnightblue" d="M581.35,-638.48C605.18,-629.78 642.85,-616.03 673.06,-605"/>
<polygon fill="midnightblue" stroke="midnightblue" points="674.39,-608.24 682.58,-601.52 671.99,-601.66 674.39,-608.24"/>
</g>
<!-- Node28 -->
<g id="node28" class="node">
<title>Node28</title>
<g id="a_node28"><a xlink:href="messages__builder_8hpp.html" target="_top" xlink:title=" ">
<polygon fill="none" stroke="black" points="476,-571.5 476,-601.5 640,-601.5 640,-571.5 476,-571.5"/>
<text text-anchor="start" x="484" y="-589.5" font-family="Helvetica,sans-Serif" font-size="10.00">requests/messages/messages</text>
<text text-anchor="middle" x="558" y="-578.5" font-family="Helvetica,sans-Serif" font-size="10.00">_builder.hpp</text>
</a>
</g>
</g>
<!-- Node21&#45;&gt;Node28 -->
<g id="edge40" class="edge">
<title>Node21&#45;&gt;Node28</title>
<path fill="none" stroke="midnightblue" d="M558,-638.48C558,-631.47 558,-621.19 558,-611.7"/>
<polygon fill="midnightblue" stroke="midnightblue" points="561.5,-611.52 558,-601.52 554.5,-611.52 561.5,-611.52"/>
</g>
<!-- Node23 -->
<g id="node23" class="node">
<title>Node23</title>
<g id="a_node23"><a xlink:href="authorization__request_8hpp.html" target="_top" xlink:title=" ">
<polygon fill="none" stroke="black" points="793,-515.5 793,-534.5 937,-534.5 937,-515.5 793,-515.5"/>
<text text-anchor="middle" x="865" y="-522.5" font-family="Helvetica,sans-Serif" font-size="10.00">authorization_request.hpp</text>
</a>
</g>
</g>
<!-- Node22&#45;&gt;Node23 -->
<g id="edge29" class="edge">
<title>Node22&#45;&gt;Node23</title>
<path fill="none" stroke="midnightblue" d="M865,-571.4C865,-563.47 865,-553.46 865,-544.86"/>
<polygon fill="midnightblue" stroke="midnightblue" points="868.5,-544.66 865,-534.66 861.5,-544.66 868.5,-544.66"/>
</g>
<!-- Node24 -->
<g id="node24" class="node">
<title>Node24</title>
<g id="a_node24"><a xlink:href="request_8hpp.html" target="_top" xlink:title=" ">
<polygon fill="none" stroke="black" points="565.5,-291.5 565.5,-310.5 684.5,-310.5 684.5,-291.5 565.5,-291.5"/>
<text text-anchor="middle" x="625" y="-298.5" font-family="Helvetica,sans-Serif" font-size="10.00">requests/request.hpp</text>
</a>
</g>
</g>
<!-- Node23&#45;&gt;Node24 -->
<g id="edge30" class="edge">
<title>Node23&#45;&gt;Node24</title>
<path fill="none" stroke="midnightblue" d="M937.19,-520.37C999.92,-515.52 1083.95,-504.36 1105,-479 1110.68,-472.16 1110.22,-466.2 1105,-459 1054.6,-389.49 800.41,-334.45 683.72,-312.42"/>
<polygon fill="midnightblue" stroke="midnightblue" points="684.01,-308.91 673.54,-310.52 682.72,-315.8 684.01,-308.91"/>
</g>
<!-- Node24&#45;&gt;Node10 -->
<g id="edge31" class="edge">
<title>Node24&#45;&gt;Node10</title>
<path fill="none" stroke="midnightblue" d="M645.96,-291.38C662.36,-283.78 684.83,-271.38 700,-255 725.66,-227.29 738,-216.76 738,-179 738,-179 738,-179 738,-121 738,-70.39 680.2,-38.81 640.52,-23.09"/>
<polygon fill="midnightblue" stroke="midnightblue" points="641.71,-19.8 631.12,-19.53 639.23,-26.35 641.71,-19.8"/>
</g>
<!-- Node24&#45;&gt;Node12 -->
<g id="edge32" class="edge">
<title>Node24&#45;&gt;Node12</title>
<path fill="none" stroke="midnightblue" d="M610.41,-291.41C595.39,-282.5 571.37,-268.07 551,-255 453.31,-192.32 339.31,-113.34 293.54,-81.39"/>
<polygon fill="midnightblue" stroke="midnightblue" points="295.53,-78.51 285.33,-75.65 291.52,-84.25 295.53,-78.51"/>
</g>
<!-- Node24&#45;&gt;Node13 -->
<g id="edge37" class="edge">
<title>Node24&#45;&gt;Node13</title>
<path fill="none" stroke="midnightblue" d="M592.33,-291.48C558.06,-282.53 503.33,-268.25 460.51,-257.07"/>
<polygon fill="midnightblue" stroke="midnightblue" points="461.29,-253.66 450.74,-254.52 459.53,-260.43 461.29,-253.66"/>
</g>
<!-- Node25 -->
<g id="node25" class="node">
<title>Node25</title>
<g id="a_node25"><a xlink:href="client__handler_8hpp.html" target="_top" xlink:title=" ">
<polygon fill="none" stroke="black" points="559.5,-224.5 559.5,-254.5 690.5,-254.5 690.5,-224.5 559.5,-224.5"/>
<text text-anchor="start" x="567.5" y="-242.5" font-family="Helvetica,sans-Serif" font-size="10.00">request_handlers/client</text>
<text text-anchor="middle" x="625" y="-231.5" font-family="Helvetica,sans-Serif" font-size="10.00">_handler.hpp</text>
</a>
</g>
</g>
<!-- Node24&#45;&gt;Node25 -->
<g id="edge33" class="edge">
<title>Node24&#45;&gt;Node25</title>
<path fill="none" stroke="midnightblue" d="M625,-291.48C625,-284.47 625,-274.19 625,-264.7"/>
<polygon fill="midnightblue" stroke="midnightblue" points="628.5,-264.52 625,-254.52 621.5,-264.52 628.5,-264.52"/>
</g>
<!-- Node25&#45;&gt;Node15 -->
<g id="edge34" class="edge">
<title>Node25&#45;&gt;Node15</title>
<path fill="none" stroke="midnightblue" d="M602.96,-224.4C588.19,-214.95 568.82,-202.56 554.05,-193.11"/>
<polygon fill="midnightblue" stroke="midnightblue" points="555.84,-190.1 545.53,-187.66 552.07,-196 555.84,-190.1"/>
</g>
<!-- Node26 -->
<g id="node26" class="node">
<title>Node26</title>
<g id="a_node26"><a xlink:href="renderer_8hpp.html" target="_top" xlink:title=" ">
<polygon fill="none" stroke="black" points="632,-112.5 632,-131.5 710,-131.5 710,-112.5 632,-112.5"/>
<text text-anchor="middle" x="671" y="-119.5" font-family="Helvetica,sans-Serif" font-size="10.00">renderer.hpp</text>
</a>
</g>
</g>
<!-- Node25&#45;&gt;Node26 -->
<g id="edge35" class="edge">
<title>Node25&#45;&gt;Node26</title>
<path fill="none" stroke="midnightblue" d="M630.64,-224.34C638.97,-203.43 654.55,-164.31 663.72,-141.27"/>
<polygon fill="midnightblue" stroke="midnightblue" points="667.1,-142.25 667.55,-131.67 660.6,-139.66 667.1,-142.25"/>
</g>
<!-- Node26&#45;&gt;Node10 -->
<g id="edge36" class="edge">
<title>Node26&#45;&gt;Node10</title>
<path fill="none" stroke="midnightblue" d="M667,-112.36C661.01,-99.69 649.13,-75.45 637,-56 630.98,-46.34 623.53,-36.07 617.24,-27.78"/>
<polygon fill="midnightblue" stroke="midnightblue" points="619.87,-25.46 610.98,-19.69 614.33,-29.74 619.87,-25.46"/>
</g>
<!-- Node27&#45;&gt;Node23 -->
<g id="edge39" class="edge">
<title>Node27&#45;&gt;Node23</title>
<path fill="none" stroke="midnightblue" d="M755.13,-571.4C779.29,-561.42 811.4,-548.15 834.67,-538.53"/>
<polygon fill="midnightblue" stroke="midnightblue" points="836.14,-541.71 844.05,-534.66 833.47,-535.24 836.14,-541.71"/>
</g>
<!-- Node29 -->
<g id="node29" class="node">
<title>Node29</title>
<g id="a_node29"><a xlink:href="all__messages_8hpp.html" target="_top" xlink:title=" ">
<polygon fill="none" stroke="black" points="576,-515.5 576,-534.5 680,-534.5 680,-515.5 576,-515.5"/>
<text text-anchor="middle" x="628" y="-522.5" font-family="Helvetica,sans-Serif" font-size="10.00">all_messages.hpp</text>
</a>
</g>
</g>
<!-- Node28&#45;&gt;Node29 -->
<g id="edge41" class="edge">
<title>Node28&#45;&gt;Node29</title>
<path fill="none" stroke="midnightblue" d="M574.59,-571.4C585.29,-562.31 599.19,-550.49 610.13,-541.19"/>
<polygon fill="midnightblue" stroke="midnightblue" points="612.46,-543.8 617.81,-534.66 607.93,-538.47 612.46,-543.8"/>
</g>
<!-- Node30 -->
<g id="node30" class="node">
<title>Node30</title>
<g id="a_node30"><a xlink:href="base__message_8hpp.html" target="_top" xlink:title=" ">
<polygon fill="none" stroke="black" points="406,-403.5 406,-422.5 516,-422.5 516,-403.5 406,-403.5"/>
<text text-anchor="middle" x="461" y="-410.5" font-family="Helvetica,sans-Serif" font-size="10.00">base_message.hpp</text>
</a>
</g>
</g>
<!-- Node29&#45;&gt;Node30 -->
<g id="edge42" class="edge">
<title>Node29&#45;&gt;Node30</title>
<path fill="none" stroke="midnightblue" d="M575.85,-518.99C525.09,-512.9 453.17,-500.66 436,-479 424.68,-464.72 435.35,-444.72 446.05,-430.69"/>
<polygon fill="midnightblue" stroke="midnightblue" points="448.87,-432.78 452.51,-422.83 443.46,-428.33 448.87,-432.78"/>
</g>
<!-- Node32 -->
<g id="node32" class="node">
<title>Node32</title>
<g id="a_node32"><a xlink:href="private__decorator_8hpp.html" target="_top" xlink:title=" ">
<polygon fill="none" stroke="black" points="700.5,-459.5 700.5,-478.5 823.5,-478.5 823.5,-459.5 700.5,-459.5"/>
<text text-anchor="middle" x="762" y="-466.5" font-family="Helvetica,sans-Serif" font-size="10.00">private_decorator.hpp</text>
</a>
</g>
</g>
<!-- Node29&#45;&gt;Node32 -->
<g id="edge45" class="edge">
<title>Node29&#45;&gt;Node32</title>
<path fill="none" stroke="midnightblue" d="M649.23,-515.44C671.38,-506.52 706.32,-492.44 731.44,-482.32"/>
<polygon fill="midnightblue" stroke="midnightblue" points="732.9,-485.5 740.87,-478.52 730.28,-479.01 732.9,-485.5"/>
</g>
<!-- Node34 -->
<g id="node34" class="node">
<title>Node34</title>
<g id="a_node34"><a xlink:href="room__decorator_8hpp.html" target="_top" xlink:title=" ">
<polygon fill="none" stroke="black" points="842,-459.5 842,-478.5 956,-478.5 956,-459.5 842,-459.5"/>
<text text-anchor="middle" x="899" y="-466.5" font-family="Helvetica,sans-Serif" font-size="10.00">room_decorator.hpp</text>
</a>
</g>
</g>
<!-- Node29&#45;&gt;Node34 -->
<g id="edge48" class="edge">
<title>Node29&#45;&gt;Node34</title>
<path fill="none" stroke="midnightblue" d="M670.94,-515.44C718.51,-505.96 795.24,-490.67 846.39,-480.48"/>
<polygon fill="midnightblue" stroke="midnightblue" points="847.14,-483.9 856.26,-478.52 845.77,-477.04 847.14,-483.9"/>
</g>
<!-- Node35 -->
<g id="node35" class="node">
<title>Node35</title>
<g id="a_node35"><a xlink:href="sender__decorator_8hpp.html" target="_top" xlink:title=" ">
<polygon fill="none" stroke="black" points="974,-459.5 974,-478.5 1096,-478.5 1096,-459.5 974,-459.5"/>
<text text-anchor="middle" x="1035" y="-466.5" font-family="Helvetica,sans-Serif" font-size="10.00">sender_decorator.hpp</text>
</a>
</g>
</g>
<!-- Node29&#45;&gt;Node35 -->
<g id="edge50" class="edge">
<title>Node29&#45;&gt;Node35</title>
<path fill="none" stroke="midnightblue" d="M680.37,-517.05C752.54,-507.48 882.79,-490.19 963.76,-479.45"/>
<polygon fill="midnightblue" stroke="midnightblue" points="964.42,-482.9 973.87,-478.11 963.5,-475.96 964.42,-482.9"/>
</g>
<!-- Node36 -->
<g id="node36" class="node">
<title>Node36</title>
<g id="a_node36"><a xlink:href="text__decorator_8hpp.html" target="_top" xlink:title=" ">
<polygon fill="none" stroke="black" points="574,-459.5 574,-478.5 682,-478.5 682,-459.5 574,-459.5"/>
<text text-anchor="middle" x="628" y="-466.5" font-family="Helvetica,sans-Serif" font-size="10.00">text_decorator.hpp</text>
</a>
</g>
</g>
<!-- Node29&#45;&gt;Node36 -->
<g id="edge52" class="edge">
<title>Node29&#45;&gt;Node36</title>
<path fill="none" stroke="midnightblue" d="M628,-515.08C628,-508.01 628,-497.86 628,-488.99"/>
<polygon fill="midnightblue" stroke="midnightblue" points="631.5,-488.75 628,-478.75 624.5,-488.75 631.5,-488.75"/>
</g>
<!-- Node37 -->
<g id="node37" class="node">
<title>Node37</title>
<g id="a_node37"><a xlink:href="time__decorator_8hpp.html" target="_top" xlink:title=" ">
<polygon fill="none" stroke="black" points="444.5,-459.5 444.5,-478.5 555.5,-478.5 555.5,-459.5 444.5,-459.5"/>
<text text-anchor="middle" x="500" y="-466.5" font-family="Helvetica,sans-Serif" font-size="10.00">time_decorator.hpp</text>
</a>
</g>
</g>
<!-- Node29&#45;&gt;Node37 -->
<g id="edge54" class="edge">
<title>Node29&#45;&gt;Node37</title>
<path fill="none" stroke="midnightblue" d="M607.72,-515.44C586.65,-506.56 553.48,-492.56 529.51,-482.45"/>
<polygon fill="midnightblue" stroke="midnightblue" points="530.76,-479.18 520.19,-478.52 528.04,-485.63 530.76,-479.18"/>
</g>
<!-- Node31 -->
<g id="node31" class="node">
<title>Node31</title>
<g id="a_node31"><a xlink:href="message_8hpp.html" target="_top" xlink:title=" ">
<polygon fill="none" stroke="black" points="584,-347.5 584,-366.5 666,-366.5 666,-347.5 584,-347.5"/>
<text text-anchor="middle" x="625" y="-354.5" font-family="Helvetica,sans-Serif" font-size="10.00">message.hpp</text>
</a>
</g>
</g>
<!-- Node30&#45;&gt;Node31 -->
<g id="edge43" class="edge">
<title>Node30&#45;&gt;Node31</title>
<path fill="none" stroke="midnightblue" d="M486.99,-403.44C514.7,-394.32 558.75,-379.81 589.62,-369.65"/>
<polygon fill="midnightblue" stroke="midnightblue" points="590.73,-372.97 599.14,-366.52 588.54,-366.32 590.73,-372.97"/>
</g>
<!-- Node31&#45;&gt;Node24 -->
<g id="edge44" class="edge">
<title>Node31&#45;&gt;Node24</title>
<path fill="none" stroke="midnightblue" d="M625,-347.08C625,-340.01 625,-329.86 625,-320.99"/>
<polygon fill="midnightblue" stroke="midnightblue" points="628.5,-320.75 625,-310.75 621.5,-320.75 628.5,-320.75"/>
</g>
<!-- Node33 -->
<g id="node33" class="node">
<title>Node33</title>
<g id="a_node33"><a xlink:href="properties__decorator_8hpp.html" target="_top" xlink:title=" ">
<polygon fill="none" stroke="black" points="647,-403.5 647,-422.5 785,-422.5 785,-403.5 647,-403.5"/>
<text text-anchor="middle" x="716" y="-410.5" font-family="Helvetica,sans-Serif" font-size="10.00">properties_decorator.hpp</text>
</a>
</g>
</g>
<!-- Node32&#45;&gt;Node33 -->
<g id="edge46" class="edge">
<title>Node32&#45;&gt;Node33</title>
<path fill="none" stroke="midnightblue" d="M754.4,-459.08C747.77,-451.3 737.98,-439.8 729.94,-430.37"/>
<polygon fill="midnightblue" stroke="midnightblue" points="732.6,-428.09 723.45,-422.75 727.27,-432.63 732.6,-428.09"/>
</g>
<!-- Node33&#45;&gt;Node31 -->
<g id="edge47" class="edge">
<title>Node33&#45;&gt;Node31</title>
<path fill="none" stroke="midnightblue" d="M701.38,-403.32C687.05,-394.82 664.99,-381.73 648.25,-371.8"/>
<polygon fill="midnightblue" stroke="midnightblue" points="649.97,-368.75 639.58,-366.65 646.4,-374.77 649.97,-368.75"/>
</g>
<!-- Node34&#45;&gt;Node33 -->
<g id="edge49" class="edge">
<title>Node34&#45;&gt;Node33</title>
<path fill="none" stroke="midnightblue" d="M870,-459.44C838.82,-450.24 789.07,-435.56 754.59,-425.39"/>
<polygon fill="midnightblue" stroke="midnightblue" points="755.44,-421.99 744.86,-422.52 753.46,-428.7 755.44,-421.99"/>
</g>
<!-- Node35&#45;&gt;Node33 -->
<g id="edge51" class="edge">
<title>Node35&#45;&gt;Node33</title>
<path fill="none" stroke="midnightblue" d="M984.45,-459.44C927.99,-449.89 836.63,-434.42 776.43,-424.23"/>
<polygon fill="midnightblue" stroke="midnightblue" points="776.75,-420.73 766.31,-422.52 775.59,-427.64 776.75,-420.73"/>
</g>
<!-- Node36&#45;&gt;Node33 -->
<g id="edge53" class="edge">
<title>Node36&#45;&gt;Node33</title>
<path fill="none" stroke="midnightblue" d="M642.14,-459.32C655.87,-450.9 676.94,-437.97 693.06,-428.07"/>
<polygon fill="midnightblue" stroke="midnightblue" points="695.2,-430.87 701.9,-422.65 691.54,-424.9 695.2,-430.87"/>
</g>
<!-- Node37&#45;&gt;Node33 -->
<g id="edge55" class="edge">
<title>Node37&#45;&gt;Node33</title>
<path fill="none" stroke="midnightblue" d="M534.23,-459.44C571.51,-450.12 631.27,-435.18 672.01,-425"/>
<polygon fill="midnightblue" stroke="midnightblue" points="673.08,-428.34 681.93,-422.52 671.38,-421.55 673.08,-428.34"/>
</g>
<!-- Node38 -->
<g id="node38" class="node">
<title>Node38</title>
<g id="a_node38"><a xlink:title=" ">
<polygon fill="none" stroke="#bfbfbf" points="534,-403.5 534,-422.5 582,-422.5 582,-403.5 534,-403.5"/>
<text text-anchor="middle" x="558" y="-410.5" font-family="Helvetica,sans-Serif" font-size="10.00">time.h</text>
</a>
</g>
</g>
<!-- Node37&#45;&gt;Node38 -->
<g id="edge56" class="edge">
<title>Node37&#45;&gt;Node38</title>
<path fill="none" stroke="midnightblue" d="M509.32,-459.32C517.89,-451.34 530.81,-439.31 541.19,-429.65"/>
<polygon fill="midnightblue" stroke="midnightblue" points="543.58,-432.21 548.51,-422.83 538.81,-427.09 543.58,-432.21"/>
</g>
<!-- Node39&#45;&gt;Node2 -->
<g id="edge58" class="edge">
<title>Node39&#45;&gt;Node2</title>
<path fill="none" stroke="midnightblue" d="M288.02,-694.44C263.84,-685.44 225.58,-671.19 198.35,-661.05"/>
<polygon fill="midnightblue" stroke="midnightblue" points="199.46,-657.73 188.87,-657.52 197.02,-664.29 199.46,-657.73"/>
</g>
<!-- Node39&#45;&gt;Node6 -->
<g id="edge59" class="edge">
<title>Node39&#45;&gt;Node6</title>
<path fill="none" stroke="midnightblue" d="M300.56,-694.32C290.85,-686.26 276.18,-674.08 264.5,-664.37"/>
<polygon fill="midnightblue" stroke="midnightblue" points="266.56,-661.53 256.63,-657.83 262.09,-666.92 266.56,-661.53"/>
</g>
<!-- Node39&#45;&gt;Node13 -->
<g id="edge61" class="edge">
<title>Node39&#45;&gt;Node13</title>
<path fill="none" stroke="midnightblue" d="M314.67,-694.49C322.48,-675.61 340,-628.64 340,-587.5 340,-587.5 340,-587.5 340,-356 340,-320.66 361.72,-284.94 378.34,-262.78"/>
<polygon fill="midnightblue" stroke="midnightblue" points="381.25,-264.74 384.63,-254.7 375.73,-260.44 381.25,-264.74"/>
</g>
<!-- Node39&#45;&gt;Node14 -->
<g id="edge60" class="edge">
<title>Node39&#45;&gt;Node14</title>
<path fill="none" stroke="midnightblue" d="M309.86,-694.32C307.44,-675.12 302,-627.52 302,-587.5 302,-587.5 302,-587.5 302,-300 302,-262.24 317.15,-220.1 326.92,-196.85"/>
<polygon fill="midnightblue" stroke="midnightblue" points="330.17,-198.15 330.95,-187.59 323.75,-195.36 330.17,-198.15"/>
</g>
<!-- Node39&#45;&gt;Node21 -->
<g id="edge62" class="edge">
<title>Node39&#45;&gt;Node21</title>
<path fill="none" stroke="midnightblue" d="M342.53,-696.11C384.63,-686.9 459.62,-670.51 509.09,-659.69"/>
<polygon fill="midnightblue" stroke="midnightblue" points="509.91,-663.1 518.93,-657.54 508.41,-656.26 509.91,-663.1"/>
</g>
</g>
</svg>
        <g id="navigator" transform="translate(0 0)" fill="#404254">
                <rect fill="#f2f5e9" fill-opacity="0.5" stroke="#606060" stroke-width=".5" x="0" y="0" width="60" height="60"/>
                <use id="zoomplus" xlink:href="#zoomPlus" x="17" y="9" onmousedown="handleZoom(evt,'in')"/>
                <use id="zoomminus" xlink:href="#zoomMin" x="42" y="9" onmousedown="handleZoom(evt,'out')"/>
                <use id="reset" xlink:href="#resetDef" x="30" y="36" onmousedown="handleReset()"/>
                <g id="arrowUp" xlink:href="#dirArrow" transform="translate(30 24)" onmousedown="handlePan(0,-1)">
                  <use xlink:href="#rim" fill="#404040">
                        <set attributeName="fill" to="#808080" begin="arrowUp.mouseover" end="arrowUp.mouseout"/>
                  </use>
                  <path fill="none" stroke="white" stroke-width="1.5" d="M0,-3.0v7 M-2.5,-0.5L0,-3.0L2.5,-0.5"/>
                </g>
                <g id="arrowRight" xlink:href="#dirArrow" transform="rotate(90) translate(36 -43)" onmousedown="handlePan(1,0)">
                  <use xlink:href="#rim" fill="#404040">
                        <set attributeName="fill" to="#808080" begin="arrowRight.mouseover" end="arrowRight.mouseout"/>
                  </use>
                  <path fill="none" stroke="white" stroke-width="1.5" d="M0,-3.0v7 M-2.5,-0.5L0,-3.0L2.5,-0.5"/>
                </g>
                <g id="arrowDown" xlink:href="#dirArrow" transform="rotate(180) translate(-30 -48)" onmousedown="handlePan(0,1)">
                  <use xlink:href="#rim" fill="#404040">
                        <set attributeName="fill" to="#808080" begin="arrowDown.mouseover" end="arrowDown.mouseout"/>
                  </use>
                  <path fill="none" stroke="white" stroke-width="1.5" d="M0,-3.0v7 M-2.5,-0.5L0,-3.0L2.5,-0.5"/>
                </g>
                <g id="arrowLeft" xlink:href="#dirArrow" transform="rotate(270) translate(-36 17)" onmousedown="handlePan(-1,0)">
                  <use xlink:href="#rim" fill="#404040">
                        <set attributeName="fill" to="#808080" begin="arrowLeft.mouseover" end="arrowLeft.mouseout"/>
                  </use>
                  <path fill="none" stroke="white" stroke-width="1.5" d="M0,-3.0v7 M-2.5,-0.5L0,-3.0L2.5,-0.5"/>
                </g>
        </g>
        <svg viewBox="0 0 15 15" width="100%" height="30px" preserveAspectRatio="xMaxYMin meet">
         <g id="arrow_out" transform="scale(0.3 0.3)">
          <a xlink:href="server_8hpp__incl_org.svg" target="_base">
           <rect id="button" ry="5" rx="5" y="6" x="6" height="38" width="38"
                fill="#f2f5e9" fill-opacity="0.5" stroke="#606060" stroke-width="1.0"/>
           <path id="arrow"
             d="M 11.500037,31.436501 C 11.940474,20.09759 22.043105,11.32322 32.158766,21.979434 L 37.068811,17.246167 C 37.068811,17.246167 37.088388,32 37.088388,32 L 22.160133,31.978069 C 22.160133,31.978069 26.997745,27.140456 26.997745,27.140456 C 18.528582,18.264221 13.291696,25.230495 11.500037,31.436501 z"
             style="fill:#404040;"/>
          </a>
         </g>
        </svg>
</svg>
