<?xml version="1.0" encoding="UTF-8" standalone="no"?>
<!DOCTYPE svg PUBLIC "-//W3C//DTD SVG 1.1//EN"
 "http://www.w3.org/Graphics/SVG/1.1/DTD/svg11.dtd">
<!-- Generated by graphviz version 2.43.0 (0)
 -->
<!-- Title: /home/alexander/Documents/Seminars/TP/Project/src/server_side/log.hpp Pages: 1 -->
<svg width="683pt" height="162pt"
 viewBox="0.00 0.00 682.50 162.00" xmlns="http://www.w3.org/2000/svg" xmlns:xlink="http://www.w3.org/1999/xlink">
<g id="graph0" class="graph" transform="scale(1 1) rotate(0) translate(4 158)">
<title>/home/alexander/Documents/Seminars/TP/Project/src/server_side/log.hpp</title>
<!-- Node1 -->
<g id="node1" class="node">
<title>Node1</title>
<g id="a_node1"><a xlink:title=" ">
<polygon fill="#bfbfbf" stroke="black" points="321,-112.5 321,-153.5 479,-153.5 479,-112.5 321,-112.5"/>
<text text-anchor="start" x="329" y="-141.5" font-family="Helvetica,sans-Serif" font-size="10.00">/home/alexander/Documents</text>
<text text-anchor="start" x="329" y="-130.5" font-family="Helvetica,sans-Serif" font-size="10.00">/Seminars/TP/Project/src</text>
<text text-anchor="middle" x="400" y="-119.5" font-family="Helvetica,sans-Serif" font-size="10.00">/server_side/log.hpp</text>
</a>
</g>
</g>
<!-- Node2 -->
<g id="node2" class="node">
<title>Node2</title>
<g id="a_node2"><a xlink:title=" ">
<polygon fill="none" stroke="#bfbfbf" points="0,-56.5 0,-75.5 154,-75.5 154,-56.5 0,-56.5"/>
<text text-anchor="middle" x="77" y="-63.5" font-family="Helvetica,sans-Serif" font-size="10.00">boost/iostreams/stream.hpp</text>
</a>
</g>
</g>
<!-- Node1&#45;&gt;Node2 -->
<g id="edge1" class="edge">
<title>Node1&#45;&gt;Node2</title>
<path fill="none" stroke="midnightblue" d="M320.99,-116.1C261.45,-104.12 181.48,-88.03 129.59,-77.58"/>
<polygon fill="midnightblue" stroke="midnightblue" points="130.1,-74.12 119.61,-75.57 128.72,-80.98 130.1,-74.12"/>
</g>
<!-- Node3 -->
<g id="node3" class="node">
<title>Node3</title>
<g id="a_node3"><a xlink:title=" ">
<polygon fill="none" stroke="#bfbfbf" points="172.5,-56.5 172.5,-75.5 307.5,-75.5 307.5,-56.5 172.5,-56.5"/>
<text text-anchor="middle" x="240" y="-63.5" font-family="Helvetica,sans-Serif" font-size="10.00">boost/iostreams/tee.hpp</text>
</a>
</g>
</g>
<!-- Node1&#45;&gt;Node3 -->
<g id="edge2" class="edge">
<title>Node1&#45;&gt;Node3</title>
<path fill="none" stroke="midnightblue" d="M351.99,-112.5C325.58,-101.77 293.59,-88.77 270.57,-79.42"/>
<polygon fill="midnightblue" stroke="midnightblue" points="271.88,-76.17 261.3,-75.65 269.25,-82.66 271.88,-76.17"/>
</g>
<!-- Node4 -->
<g id="node4" class="node">
<title>Node4</title>
<g id="a_node4"><a xlink:title=" ">
<polygon fill="none" stroke="#bfbfbf" points="326,-56.5 326,-75.5 394,-75.5 394,-56.5 326,-56.5"/>
<text text-anchor="middle" x="360" y="-63.5" font-family="Helvetica,sans-Serif" font-size="10.00">filesystem</text>
</a>
</g>
</g>
<!-- Node1&#45;&gt;Node4 -->
<g id="edge3" class="edge">
<title>Node1&#45;&gt;Node4</title>
<path fill="none" stroke="midnightblue" d="M388,-112.5C382.46,-103.49 375.93,-92.89 370.58,-84.19"/>
<polygon fill="midnightblue" stroke="midnightblue" points="373.55,-82.33 365.32,-75.65 367.58,-86 373.55,-82.33"/>
</g>
<!-- Node5 -->
<g id="node5" class="node">
<title>Node5</title>
<g id="a_node5"><a xlink:title=" ">
<polygon fill="none" stroke="#bfbfbf" points="412.5,-56.5 412.5,-75.5 467.5,-75.5 467.5,-56.5 412.5,-56.5"/>
<text text-anchor="middle" x="440" y="-63.5" font-family="Helvetica,sans-Serif" font-size="10.00">fstream</text>
</a>
</g>
</g>
<!-- Node1&#45;&gt;Node5 -->
<g id="edge4" class="edge">
<title>Node1&#45;&gt;Node5</title>
<path fill="none" stroke="midnightblue" d="M412,-112.5C417.54,-103.49 424.07,-92.89 429.42,-84.19"/>
<polygon fill="midnightblue" stroke="midnightblue" points="432.42,-86 434.68,-75.65 426.45,-82.33 432.42,-86"/>
</g>
<!-- Node6 -->
<g id="node6" class="node">
<title>Node6</title>
<g id="a_node6"><a xlink:title=" ">
<polygon fill="none" stroke="#bfbfbf" points="486,-56.5 486,-75.5 546,-75.5 546,-56.5 486,-56.5"/>
<text text-anchor="middle" x="516" y="-63.5" font-family="Helvetica,sans-Serif" font-size="10.00">iostream</text>
</a>
</g>
</g>
<!-- Node1&#45;&gt;Node6 -->
<g id="edge5" class="edge">
<title>Node1&#45;&gt;Node6</title>
<path fill="none" stroke="midnightblue" d="M434.8,-112.5C453.1,-102.24 475.09,-89.93 491.56,-80.69"/>
<polygon fill="midnightblue" stroke="midnightblue" points="493.55,-83.59 500.56,-75.65 490.12,-77.49 493.55,-83.59"/>
</g>
<!-- Node7 -->
<g id="node7" class="node">
<title>Node7</title>
<g id="a_node7"><a xlink:href="general_2socket_2log_8hpp.html" target="_top" xlink:title=" ">
<polygon fill="none" stroke="black" points="564.5,-56.5 564.5,-75.5 651.5,-75.5 651.5,-56.5 564.5,-56.5"/>
<text text-anchor="middle" x="608" y="-63.5" font-family="Helvetica,sans-Serif" font-size="10.00">socket/log.hpp</text>
</a>
</g>
</g>
<!-- Node1&#45;&gt;Node7 -->
<g id="edge6" class="edge">
<title>Node1&#45;&gt;Node7</title>
<path fill="none" stroke="midnightblue" d="M462.41,-112.5C497.78,-101.44 540.83,-87.99 570.91,-78.59"/>
<polygon fill="midnightblue" stroke="midnightblue" points="572.08,-81.89 580.59,-75.57 570,-75.21 572.08,-81.89"/>
</g>
<!-- Node8 -->
<g id="node8" class="node">
<title>Node8</title>
<g id="a_node8"><a xlink:title=" ">
<polygon fill="none" stroke="#bfbfbf" points="541,-0.5 541,-19.5 599,-19.5 599,-0.5 541,-0.5"/>
<text text-anchor="middle" x="570" y="-7.5" font-family="Helvetica,sans-Serif" font-size="10.00">memory</text>
</a>
</g>
</g>
<!-- Node7&#45;&gt;Node8 -->
<g id="edge7" class="edge">
<title>Node7&#45;&gt;Node8</title>
<path fill="none" stroke="midnightblue" d="M601.73,-56.08C596.36,-48.46 588.48,-37.26 581.92,-27.94"/>
<polygon fill="midnightblue" stroke="midnightblue" points="584.78,-25.91 576.16,-19.75 579.05,-29.94 584.78,-25.91"/>
</g>
<!-- Node9 -->
<g id="node9" class="node">
<title>Node9</title>
<g id="a_node9"><a xlink:title=" ">
<polygon fill="none" stroke="#bfbfbf" points="617.5,-0.5 617.5,-19.5 674.5,-19.5 674.5,-0.5 617.5,-0.5"/>
<text text-anchor="middle" x="646" y="-7.5" font-family="Helvetica,sans-Serif" font-size="10.00">ostream</text>
</a>
</g>
</g>
<!-- Node7&#45;&gt;Node9 -->
<g id="edge8" class="edge">
<title>Node7&#45;&gt;Node9</title>
<path fill="none" stroke="midnightblue" d="M614.27,-56.08C619.64,-48.46 627.52,-37.26 634.08,-27.94"/>
<polygon fill="midnightblue" stroke="midnightblue" points="636.95,-29.94 639.84,-19.75 631.22,-25.91 636.95,-29.94"/>
</g>
</g>
</svg>
