<?xml version="1.0" encoding="UTF-8" standalone="no"?>
<!DOCTYPE svg PUBLIC "-//W3C//DTD SVG 1.1//EN"
 "http://www.w3.org/Graphics/SVG/1.1/DTD/svg11.dtd">
<!-- Generated by graphviz version 2.43.0 (0)
 -->
<!-- Title: /home/alexander/Documents/Seminars/TP/Project/src/general/request_handlers/server_handler.hpp Pages: 1 -->
<svg width="600pt" height="285pt"
 viewBox="0.00 0.00 600.00 285.00" xmlns="http://www.w3.org/2000/svg" xmlns:xlink="http://www.w3.org/1999/xlink">
<g id="graph0" class="graph" transform="scale(1 1) rotate(0) translate(4 281)">
<title>/home/alexander/Documents/Seminars/TP/Project/src/general/request_handlers/server_handler.hpp</title>
<!-- Node1 -->
<g id="node1" class="node">
<title>Node1</title>
<g id="a_node1"><a xlink:title=" ">
<polygon fill="#bfbfbf" stroke="black" points="29.5,-224.5 29.5,-276.5 187.5,-276.5 187.5,-224.5 29.5,-224.5"/>
<text text-anchor="start" x="37.5" y="-264.5" font-family="Helvetica,sans-Serif" font-size="10.00">/home/alexander/Documents</text>
<text text-anchor="start" x="37.5" y="-253.5" font-family="Helvetica,sans-Serif" font-size="10.00">/Seminars/TP/Project/src</text>
<text text-anchor="start" x="37.5" y="-242.5" font-family="Helvetica,sans-Serif" font-size="10.00">/general/request_handlers</text>
<text text-anchor="middle" x="108.5" y="-231.5" font-family="Helvetica,sans-Serif" font-size="10.00">/server_handler.hpp</text>
</a>
</g>
</g>
<!-- Node2 -->
<g id="node2" class="node">
<title>Node2</title>
<g id="a_node2"><a xlink:title=" ">
<polygon fill="none" stroke="#bfbfbf" points="0,-168.5 0,-187.5 93,-187.5 93,-168.5 0,-168.5"/>
<text text-anchor="middle" x="46.5" y="-175.5" font-family="Helvetica,sans-Serif" font-size="10.00">unordered_map</text>
</a>
</g>
</g>
<!-- Node1&#45;&gt;Node2 -->
<g id="edge1" class="edge">
<title>Node1&#45;&gt;Node2</title>
<path fill="none" stroke="midnightblue" d="M86.47,-224.45C77.92,-214.73 68.38,-203.88 60.76,-195.22"/>
<polygon fill="midnightblue" stroke="midnightblue" points="63.38,-192.89 54.15,-187.7 58.12,-197.52 63.38,-192.89"/>
</g>
<!-- Node3 -->
<g id="node3" class="node">
<title>Node3</title>
<g id="a_node3"><a xlink:href="abstract__handler_8hpp.html" target="_top" xlink:title=" ">
<polygon fill="none" stroke="black" points="111,-168.5 111,-187.5 230,-187.5 230,-168.5 111,-168.5"/>
<text text-anchor="middle" x="170.5" y="-175.5" font-family="Helvetica,sans-Serif" font-size="10.00">abstract_handler.hpp</text>
</a>
</g>
</g>
<!-- Node1&#45;&gt;Node3 -->
<g id="edge2" class="edge">
<title>Node1&#45;&gt;Node3</title>
<path fill="none" stroke="midnightblue" d="M130.53,-224.45C139.08,-214.73 148.62,-203.88 156.24,-195.22"/>
<polygon fill="midnightblue" stroke="midnightblue" points="158.88,-197.52 162.85,-187.7 153.62,-192.89 158.88,-197.52"/>
</g>
<!-- Node4 -->
<g id="node4" class="node">
<title>Node4</title>
<g id="a_node4"><a xlink:title=" ">
<polygon fill="none" stroke="#bfbfbf" points="178.5,-0.5 178.5,-19.5 236.5,-19.5 236.5,-0.5 178.5,-0.5"/>
<text text-anchor="middle" x="207.5" y="-7.5" font-family="Helvetica,sans-Serif" font-size="10.00">memory</text>
</a>
</g>
</g>
<!-- Node3&#45;&gt;Node4 -->
<g id="edge3" class="edge">
<title>Node3&#45;&gt;Node4</title>
<path fill="none" stroke="midnightblue" d="M158.34,-168.36C147.67,-160.16 132.48,-146.9 123.5,-132 105.67,-102.44 88.76,-84.99 107.5,-56 120.95,-35.2 146.55,-23.92 168.48,-17.86"/>
<polygon fill="midnightblue" stroke="midnightblue" points="169.38,-21.24 178.24,-15.42 167.69,-14.45 169.38,-21.24"/>
</g>
<!-- Node5 -->
<g id="node5" class="node">
<title>Node5</title>
<g id="a_node5"><a xlink:href="account_8hpp.html" target="_top" xlink:title=" ">
<polygon fill="none" stroke="black" points="132.5,-112.5 132.5,-131.5 208.5,-131.5 208.5,-112.5 132.5,-112.5"/>
<text text-anchor="middle" x="170.5" y="-119.5" font-family="Helvetica,sans-Serif" font-size="10.00">account.hpp</text>
</a>
</g>
</g>
<!-- Node3&#45;&gt;Node5 -->
<g id="edge4" class="edge">
<title>Node3&#45;&gt;Node5</title>
<path fill="none" stroke="midnightblue" d="M170.5,-168.08C170.5,-161.01 170.5,-150.86 170.5,-141.99"/>
<polygon fill="midnightblue" stroke="midnightblue" points="174,-141.75 170.5,-131.75 167,-141.75 174,-141.75"/>
</g>
<!-- Node9 -->
<g id="node9" class="node">
<title>Node9</title>
<g id="a_node9"><a xlink:href="socket_8hpp.html" target="_top" xlink:title=" ">
<polygon fill="none" stroke="black" points="303.5,-112.5 303.5,-131.5 407.5,-131.5 407.5,-112.5 303.5,-112.5"/>
<text text-anchor="middle" x="355.5" y="-119.5" font-family="Helvetica,sans-Serif" font-size="10.00">socket/socket.hpp</text>
</a>
</g>
</g>
<!-- Node3&#45;&gt;Node9 -->
<g id="edge9" class="edge">
<title>Node3&#45;&gt;Node9</title>
<path fill="none" stroke="midnightblue" d="M199.81,-168.44C231.34,-159.24 281.63,-144.56 316.49,-134.39"/>
<polygon fill="midnightblue" stroke="midnightblue" points="317.7,-137.68 326.32,-131.52 315.74,-130.96 317.7,-137.68"/>
</g>
<!-- Node5&#45;&gt;Node4 -->
<g id="edge5" class="edge">
<title>Node5&#45;&gt;Node4</title>
<path fill="none" stroke="midnightblue" d="M153.43,-112.43C132.26,-100.6 100.57,-78.21 114.5,-56 126.4,-37.02 148.83,-25.85 168.67,-19.38"/>
<polygon fill="midnightblue" stroke="midnightblue" points="169.85,-22.69 178.45,-16.5 167.87,-15.97 169.85,-22.69"/>
</g>
<!-- Node6 -->
<g id="node6" class="node">
<title>Node6</title>
<g id="a_node6"><a xlink:title=" ">
<polygon fill="none" stroke="#bfbfbf" points="123.5,-56.5 123.5,-75.5 155.5,-75.5 155.5,-56.5 123.5,-56.5"/>
<text text-anchor="middle" x="139.5" y="-63.5" font-family="Helvetica,sans-Serif" font-size="10.00">set</text>
</a>
</g>
</g>
<!-- Node5&#45;&gt;Node6 -->
<g id="edge6" class="edge">
<title>Node5&#45;&gt;Node6</title>
<path fill="none" stroke="midnightblue" d="M165.38,-112.08C161.09,-104.61 154.84,-93.72 149.56,-84.52"/>
<polygon fill="midnightblue" stroke="midnightblue" points="152.54,-82.68 144.52,-75.75 146.47,-86.17 152.54,-82.68"/>
</g>
<!-- Node7 -->
<g id="node7" class="node">
<title>Node7</title>
<g id="a_node7"><a xlink:title=" ">
<polygon fill="none" stroke="#bfbfbf" points="173.5,-56.5 173.5,-75.5 229.5,-75.5 229.5,-56.5 173.5,-56.5"/>
<text text-anchor="middle" x="201.5" y="-63.5" font-family="Helvetica,sans-Serif" font-size="10.00">sstream</text>
</a>
</g>
</g>
<!-- Node5&#45;&gt;Node7 -->
<g id="edge7" class="edge">
<title>Node5&#45;&gt;Node7</title>
<path fill="none" stroke="midnightblue" d="M175.62,-112.08C179.91,-104.61 186.16,-93.72 191.44,-84.52"/>
<polygon fill="midnightblue" stroke="midnightblue" points="194.53,-86.17 196.48,-75.75 188.46,-82.68 194.53,-86.17"/>
</g>
<!-- Node8 -->
<g id="node8" class="node">
<title>Node8</title>
<g id="a_node8"><a xlink:title=" ">
<polygon fill="none" stroke="#bfbfbf" points="247.5,-56.5 247.5,-75.5 291.5,-75.5 291.5,-56.5 247.5,-56.5"/>
<text text-anchor="middle" x="269.5" y="-63.5" font-family="Helvetica,sans-Serif" font-size="10.00">string</text>
</a>
</g>
</g>
<!-- Node5&#45;&gt;Node8 -->
<g id="edge8" class="edge">
<title>Node5&#45;&gt;Node8</title>
<path fill="none" stroke="midnightblue" d="M186.41,-112.32C202.14,-103.74 226.44,-90.49 244.71,-80.52"/>
<polygon fill="midnightblue" stroke="midnightblue" points="246.53,-83.52 253.63,-75.65 243.18,-77.37 246.53,-83.52"/>
</g>
<!-- Node9&#45;&gt;Node4 -->
<g id="edge12" class="edge">
<title>Node9&#45;&gt;Node4</title>
<path fill="none" stroke="midnightblue" d="M350,-112.42C341,-98.95 321.99,-72.67 300.5,-56 282.72,-42.21 260.03,-31.13 241.52,-23.41"/>
<polygon fill="midnightblue" stroke="midnightblue" points="242.57,-20.07 231.99,-19.58 239.96,-26.56 242.57,-20.07"/>
</g>
<!-- Node9&#45;&gt;Node8 -->
<g id="edge13" class="edge">
<title>Node9&#45;&gt;Node8</title>
<path fill="none" stroke="midnightblue" d="M341.68,-112.32C328.27,-103.9 307.68,-90.97 291.91,-81.07"/>
<polygon fill="midnightblue" stroke="midnightblue" points="293.61,-78.01 283.28,-75.65 289.89,-83.94 293.61,-78.01"/>
</g>
<!-- Node10 -->
<g id="node10" class="node">
<title>Node10</title>
<g id="a_node10"><a xlink:title=" ">
<polygon fill="none" stroke="#bfbfbf" points="347.5,-56.5 347.5,-75.5 435.5,-75.5 435.5,-56.5 347.5,-56.5"/>
<text text-anchor="middle" x="391.5" y="-63.5" font-family="Helvetica,sans-Serif" font-size="10.00">boost/asio.hpp</text>
</a>
</g>
</g>
<!-- Node9&#45;&gt;Node10 -->
<g id="edge10" class="edge">
<title>Node9&#45;&gt;Node10</title>
<path fill="none" stroke="midnightblue" d="M361.44,-112.08C366.48,-104.53 373.84,-93.49 380.01,-84.23"/>
<polygon fill="midnightblue" stroke="midnightblue" points="383.03,-86.01 385.67,-75.75 377.21,-82.13 383.03,-86.01"/>
</g>
<!-- Node11 -->
<g id="node11" class="node">
<title>Node11</title>
<g id="a_node11"><a xlink:title=" ">
<polygon fill="none" stroke="#bfbfbf" points="454,-56.5 454,-75.5 519,-75.5 519,-56.5 454,-56.5"/>
<text text-anchor="middle" x="486.5" y="-63.5" font-family="Helvetica,sans-Serif" font-size="10.00">functional</text>
</a>
</g>
</g>
<!-- Node9&#45;&gt;Node11 -->
<g id="edge11" class="edge">
<title>Node9&#45;&gt;Node11</title>
<path fill="none" stroke="midnightblue" d="M376.26,-112.44C397.82,-103.56 431.76,-89.56 456.29,-79.45"/>
<polygon fill="midnightblue" stroke="midnightblue" points="457.93,-82.56 465.84,-75.52 455.26,-76.09 457.93,-82.56"/>
</g>
<!-- Node12 -->
<g id="node12" class="node">
<title>Node12</title>
<g id="a_node12"><a xlink:href="general_2socket_2log_8hpp.html" target="_top" xlink:title=" ">
<polygon fill="none" stroke="black" points="537,-56.5 537,-75.5 590,-75.5 590,-56.5 537,-56.5"/>
<text text-anchor="middle" x="563.5" y="-63.5" font-family="Helvetica,sans-Serif" font-size="10.00">log.hpp</text>
</a>
</g>
</g>
<!-- Node9&#45;&gt;Node12 -->
<g id="edge14" class="edge">
<title>Node9&#45;&gt;Node12</title>
<path fill="none" stroke="midnightblue" d="M388.46,-112.44C426.21,-102.64 487.88,-86.63 527.04,-76.47"/>
<polygon fill="midnightblue" stroke="midnightblue" points="528.17,-79.79 536.97,-73.89 526.41,-73.01 528.17,-79.79"/>
</g>
<!-- Node12&#45;&gt;Node4 -->
<g id="edge15" class="edge">
<title>Node12&#45;&gt;Node4</title>
<path fill="none" stroke="midnightblue" d="M536.82,-57.81C534.02,-57.15 531.21,-56.54 528.5,-56 427.99,-36.1 308.08,-21.74 247.21,-15.11"/>
<polygon fill="midnightblue" stroke="midnightblue" points="247.21,-11.59 236.9,-14 246.46,-18.55 247.21,-11.59"/>
</g>
<!-- Node13 -->
<g id="node13" class="node">
<title>Node13</title>
<g id="a_node13"><a xlink:title=" ">
<polygon fill="none" stroke="#bfbfbf" points="535,-0.5 535,-19.5 592,-19.5 592,-0.5 535,-0.5"/>
<text text-anchor="middle" x="563.5" y="-7.5" font-family="Helvetica,sans-Serif" font-size="10.00">ostream</text>
</a>
</g>
</g>
<!-- Node12&#45;&gt;Node13 -->
<g id="edge16" class="edge">
<title>Node12&#45;&gt;Node13</title>
<path fill="none" stroke="midnightblue" d="M563.5,-56.08C563.5,-49.01 563.5,-38.86 563.5,-29.99"/>
<polygon fill="midnightblue" stroke="midnightblue" points="567,-29.75 563.5,-19.75 560,-29.75 567,-29.75"/>
</g>
</g>
</svg>
