<?xml version="1.0" encoding="UTF-8" standalone="no"?>
<!DOCTYPE svg PUBLIC "-//W3C//DTD SVG 1.1//EN"
 "http://www.w3.org/Graphics/SVG/1.1/DTD/svg11.dtd">
<!-- Generated by graphviz version 2.43.0 (0)
 -->
<!-- Title: /home/alexander/Documents/Seminars/TP/Project/src/server_side/console_handler.hpp Pages: 1 -->
<svg width="1342pt" height="856pt"
 viewBox="0.00 0.00 1341.50 856.00" xmlns="http://www.w3.org/2000/svg" xmlns:xlink="http://www.w3.org/1999/xlink">
<g id="graph0" class="graph" transform="scale(1 1) rotate(0) translate(4 852)">
<title>/home/alexander/Documents/Seminars/TP/Project/src/server_side/console_handler.hpp</title>
<!-- Node1 -->
<g id="node1" class="node">
<title>Node1</title>
<g id="a_node1"><a xlink:title=" ">
<polygon fill="#bfbfbf" stroke="black" points="910.5,-806.5 910.5,-847.5 1089.5,-847.5 1089.5,-806.5 910.5,-806.5"/>
<text text-anchor="start" x="918.5" y="-835.5" font-family="Helvetica,sans-Serif" font-size="10.00">/home/alexander/Documents</text>
<text text-anchor="start" x="918.5" y="-824.5" font-family="Helvetica,sans-Serif" font-size="10.00">/Seminars/TP/Project/src</text>
<text text-anchor="middle" x="1000" y="-813.5" font-family="Helvetica,sans-Serif" font-size="10.00">/server_side/console_handler.hpp</text>
</a>
</g>
</g>
<!-- Node2 -->
<g id="node2" class="node">
<title>Node2</title>
<g id="a_node2"><a xlink:title=" ">
<polygon fill="none" stroke="#bfbfbf" points="888,-750.5 888,-769.5 948,-769.5 948,-750.5 888,-750.5"/>
<text text-anchor="middle" x="918" y="-757.5" font-family="Helvetica,sans-Serif" font-size="10.00">iostream</text>
</a>
</g>
</g>
<!-- Node1&#45;&gt;Node2 -->
<g id="edge1" class="edge">
<title>Node1&#45;&gt;Node2</title>
<path fill="none" stroke="midnightblue" d="M975.4,-806.5C963.07,-796.72 948.37,-785.07 936.93,-776.01"/>
<polygon fill="midnightblue" stroke="midnightblue" points="938.93,-773.12 928.92,-769.65 934.58,-778.61 938.93,-773.12"/>
</g>
<!-- Node3 -->
<g id="node3" class="node">
<title>Node3</title>
<g id="a_node3"><a xlink:href="permissions_8hpp.html" target="_top" xlink:title=" ">
<polygon fill="none" stroke="black" points="1236.5,-230 1236.5,-249 1333.5,-249 1333.5,-230 1236.5,-230"/>
<text text-anchor="middle" x="1285" y="-237" font-family="Helvetica,sans-Serif" font-size="10.00">permissions.hpp</text>
</a>
</g>
</g>
<!-- Node1&#45;&gt;Node3 -->
<g id="edge2" class="edge">
<title>Node1&#45;&gt;Node3</title>
<path fill="none" stroke="midnightblue" d="M1089.68,-823.5C1171.92,-815.84 1281,-789.72 1281,-705 1281,-705 1281,-705 1281,-356 1281,-321.84 1282.77,-282.04 1283.95,-259.2"/>
<polygon fill="midnightblue" stroke="midnightblue" points="1287.45,-259.36 1284.49,-249.19 1280.46,-258.99 1287.45,-259.36"/>
</g>
<!-- Node6 -->
<g id="node6" class="node">
<title>Node6</title>
<g id="a_node6"><a xlink:href="server_8hpp.html" target="_top" xlink:title=" ">
<polygon fill="none" stroke="black" points="966,-750.5 966,-769.5 1034,-769.5 1034,-750.5 966,-750.5"/>
<text text-anchor="middle" x="1000" y="-757.5" font-family="Helvetica,sans-Serif" font-size="10.00">server.hpp</text>
</a>
</g>
</g>
<!-- Node1&#45;&gt;Node6 -->
<g id="edge5" class="edge">
<title>Node1&#45;&gt;Node6</title>
<path fill="none" stroke="midnightblue" d="M1000,-806.5C1000,-798.07 1000,-788.24 1000,-779.87"/>
<polygon fill="midnightblue" stroke="midnightblue" points="1003.5,-779.65 1000,-769.65 996.5,-779.65 1003.5,-779.65"/>
</g>
<!-- Node4 -->
<g id="node4" class="node">
<title>Node4</title>
<g id="a_node4"><a xlink:title=" ">
<polygon fill="none" stroke="#bfbfbf" points="682,-0.5 682,-19.5 740,-19.5 740,-0.5 682,-0.5"/>
<text text-anchor="middle" x="711" y="-7.5" font-family="Helvetica,sans-Serif" font-size="10.00">memory</text>
</a>
</g>
</g>
<!-- Node3&#45;&gt;Node4 -->
<g id="edge3" class="edge">
<title>Node3&#45;&gt;Node4</title>
<path fill="none" stroke="midnightblue" d="M1285.76,-229.86C1287.86,-200.14 1290.33,-101.49 1236,-56 1198.97,-25 865.84,-14.52 750.27,-11.81"/>
<polygon fill="midnightblue" stroke="midnightblue" points="750.18,-8.3 740.1,-11.57 750.02,-15.3 750.18,-8.3"/>
</g>
<!-- Node5 -->
<g id="node5" class="node">
<title>Node5</title>
<g id="a_node5"><a xlink:title=" ">
<polygon fill="none" stroke="#bfbfbf" points="953.5,-168.5 953.5,-187.5 1046.5,-187.5 1046.5,-168.5 953.5,-168.5"/>
<text text-anchor="middle" x="1000" y="-175.5" font-family="Helvetica,sans-Serif" font-size="10.00">unordered_map</text>
</a>
</g>
</g>
<!-- Node3&#45;&gt;Node5 -->
<g id="edge4" class="edge">
<title>Node3&#45;&gt;Node5</title>
<path fill="none" stroke="midnightblue" d="M1244.17,-229.98C1193.16,-219.33 1105.9,-201.11 1050.68,-189.58"/>
<polygon fill="midnightblue" stroke="midnightblue" points="1051.26,-186.13 1040.76,-187.51 1049.83,-192.98 1051.26,-186.13"/>
</g>
<!-- Node7 -->
<g id="node7" class="node">
<title>Node7</title>
<g id="a_node7"><a xlink:title=" ">
<polygon fill="none" stroke="#bfbfbf" points="966,-638.5 966,-657.5 1034,-657.5 1034,-638.5 966,-638.5"/>
<text text-anchor="middle" x="1000" y="-645.5" font-family="Helvetica,sans-Serif" font-size="10.00">filesystem</text>
</a>
</g>
</g>
<!-- Node6&#45;&gt;Node7 -->
<g id="edge6" class="edge">
<title>Node6&#45;&gt;Node7</title>
<path fill="none" stroke="midnightblue" d="M1000,-750.37C1000,-732.62 1000,-691.67 1000,-667.6"/>
<polygon fill="midnightblue" stroke="midnightblue" points="1003.5,-667.59 1000,-657.59 996.5,-667.59 1003.5,-667.59"/>
</g>
<!-- Node8 -->
<g id="node8" class="node">
<title>Node8</title>
<g id="a_node8"><a xlink:title=" ">
<polygon fill="none" stroke="#bfbfbf" points="1214,-694.5 1214,-713.5 1246,-713.5 1246,-694.5 1214,-694.5"/>
<text text-anchor="middle" x="1230" y="-701.5" font-family="Helvetica,sans-Serif" font-size="10.00">list</text>
</a>
</g>
</g>
<!-- Node6&#45;&gt;Node8 -->
<g id="edge7" class="edge">
<title>Node6&#45;&gt;Node8</title>
<path fill="none" stroke="midnightblue" d="M1034.07,-752.92C1073.11,-745.65 1139.1,-732.43 1204.34,-713.89"/>
<polygon fill="midnightblue" stroke="midnightblue" points="1205.32,-717.25 1213.96,-711.12 1203.38,-710.53 1205.32,-717.25"/>
</g>
<!-- Node9 -->
<g id="node9" class="node">
<title>Node9</title>
<g id="a_node9"><a xlink:href="simple__database_8hpp.html" target="_top" xlink:title=" ">
<polygon fill="none" stroke="black" points="1027.5,-694.5 1027.5,-713.5 1196.5,-713.5 1196.5,-694.5 1027.5,-694.5"/>
<text text-anchor="middle" x="1112" y="-701.5" font-family="Helvetica,sans-Serif" font-size="10.00">database/simple_database.hpp</text>
</a>
</g>
</g>
<!-- Node6&#45;&gt;Node9 -->
<g id="edge8" class="edge">
<title>Node6&#45;&gt;Node9</title>
<path fill="none" stroke="midnightblue" d="M1017.99,-750.32C1036.04,-741.62 1064.05,-728.12 1084.8,-718.11"/>
<polygon fill="midnightblue" stroke="midnightblue" points="1086.56,-721.15 1094.05,-713.65 1083.52,-714.84 1086.56,-721.15"/>
</g>
<!-- Node17 -->
<g id="node17" class="node">
<title>Node17</title>
<g id="a_node17"><a xlink:href="server__handler_8hpp.html" target="_top" xlink:title=" ">
<polygon fill="none" stroke="black" points="826,-224.5 826,-254.5 960,-254.5 960,-224.5 826,-224.5"/>
<text text-anchor="start" x="834" y="-242.5" font-family="Helvetica,sans-Serif" font-size="10.00">request_handlers/server</text>
<text text-anchor="middle" x="893" y="-231.5" font-family="Helvetica,sans-Serif" font-size="10.00">_handler.hpp</text>
</a>
</g>
</g>
<!-- Node6&#45;&gt;Node17 -->
<g id="edge19" class="edge">
<title>Node6&#45;&gt;Node17</title>
<path fill="none" stroke="midnightblue" d="M967.06,-750.46C945.41,-743.51 917.58,-731.88 898,-714 873.62,-691.73 862,-682.02 862,-649 862,-649 862,-649 862,-356 862,-323.27 873.76,-287.04 882.79,-264.04"/>
<polygon fill="midnightblue" stroke="midnightblue" points="886.04,-265.34 886.58,-254.76 879.56,-262.7 886.04,-265.34"/>
</g>
<!-- Node24 -->
<g id="node24" class="node">
<title>Node24</title>
<g id="a_node24"><a xlink:href="request__creator_8hpp.html" target="_top" xlink:title=" ">
<polygon fill="none" stroke="black" points="676,-638.5 676,-657.5 834,-657.5 834,-638.5 676,-638.5"/>
<text text-anchor="middle" x="755" y="-645.5" font-family="Helvetica,sans-Serif" font-size="10.00">requests/request_creator.hpp</text>
</a>
</g>
</g>
<!-- Node6&#45;&gt;Node24 -->
<g id="edge32" class="edge">
<title>Node6&#45;&gt;Node24</title>
<path fill="none" stroke="midnightblue" d="M966.53,-750.44C928.48,-740.47 868.95,-724.09 848,-714 819.79,-700.41 790.75,-678.63 772.79,-664.07"/>
<polygon fill="midnightblue" stroke="midnightblue" points="774.86,-661.24 764.92,-657.58 770.4,-666.64 774.86,-661.24"/>
</g>
<!-- Node42 -->
<g id="node42" class="node">
<title>Node42</title>
<g id="a_node42"><a xlink:href="room_8hpp.html" target="_top" xlink:title=" ">
<polygon fill="none" stroke="black" points="907.5,-694.5 907.5,-713.5 970.5,-713.5 970.5,-694.5 907.5,-694.5"/>
<text text-anchor="middle" x="939" y="-701.5" font-family="Helvetica,sans-Serif" font-size="10.00">room.hpp</text>
</a>
</g>
</g>
<!-- Node6&#45;&gt;Node42 -->
<g id="edge62" class="edge">
<title>Node6&#45;&gt;Node42</title>
<path fill="none" stroke="midnightblue" d="M990.2,-750.32C981.18,-742.34 967.59,-730.31 956.68,-720.65"/>
<polygon fill="midnightblue" stroke="midnightblue" points="958.79,-717.84 948.98,-713.83 954.15,-723.08 958.79,-717.84"/>
</g>
<!-- Node9&#45;&gt;Node7 -->
<g id="edge10" class="edge">
<title>Node9&#45;&gt;Node7</title>
<path fill="none" stroke="midnightblue" d="M1094.01,-694.32C1075.96,-685.62 1047.95,-672.12 1027.2,-662.11"/>
<polygon fill="midnightblue" stroke="midnightblue" points="1028.48,-658.84 1017.95,-657.65 1025.44,-665.15 1028.48,-658.84"/>
</g>
<!-- Node10 -->
<g id="node10" class="node">
<title>Node10</title>
<g id="a_node10"><a xlink:title=" ">
<polygon fill="none" stroke="#bfbfbf" points="1164.5,-638.5 1164.5,-657.5 1211.5,-657.5 1211.5,-638.5 1164.5,-638.5"/>
<text text-anchor="middle" x="1188" y="-645.5" font-family="Helvetica,sans-Serif" font-size="10.00">deque</text>
</a>
</g>
</g>
<!-- Node9&#45;&gt;Node10 -->
<g id="edge9" class="edge">
<title>Node9&#45;&gt;Node10</title>
<path fill="none" stroke="midnightblue" d="M1124.21,-694.32C1135.78,-686.11 1153.38,-673.6 1167.16,-663.81"/>
<polygon fill="midnightblue" stroke="midnightblue" points="1169.44,-666.48 1175.57,-657.83 1165.39,-660.77 1169.44,-666.48"/>
</g>
<!-- Node11 -->
<g id="node11" class="node">
<title>Node11</title>
<g id="a_node11"><a xlink:title=" ">
<polygon fill="none" stroke="#bfbfbf" points="1052.5,-638.5 1052.5,-657.5 1107.5,-657.5 1107.5,-638.5 1052.5,-638.5"/>
<text text-anchor="middle" x="1080" y="-645.5" font-family="Helvetica,sans-Serif" font-size="10.00">fstream</text>
</a>
</g>
</g>
<!-- Node9&#45;&gt;Node11 -->
<g id="edge11" class="edge">
<title>Node9&#45;&gt;Node11</title>
<path fill="none" stroke="midnightblue" d="M1106.72,-694.08C1102.29,-686.61 1095.84,-675.72 1090.38,-666.52"/>
<polygon fill="midnightblue" stroke="midnightblue" points="1093.29,-664.57 1085.19,-657.75 1087.27,-668.14 1093.29,-664.57"/>
</g>
<!-- Node12 -->
<g id="node12" class="node">
<title>Node12</title>
<g id="a_node12"><a xlink:title=" ">
<polygon fill="none" stroke="#bfbfbf" points="1171,-56.5 1171,-75.5 1227,-75.5 1227,-56.5 1171,-56.5"/>
<text text-anchor="middle" x="1199" y="-63.5" font-family="Helvetica,sans-Serif" font-size="10.00">sstream</text>
</a>
</g>
</g>
<!-- Node9&#45;&gt;Node12 -->
<g id="edge12" class="edge">
<title>Node9&#45;&gt;Node12</title>
<path fill="none" stroke="midnightblue" d="M1164.28,-694.48C1185.59,-688.15 1208.19,-677.14 1221,-658 1253.44,-609.51 1210.95,-181.36 1201,-85.84"/>
<polygon fill="midnightblue" stroke="midnightblue" points="1204.48,-85.47 1199.95,-75.89 1197.51,-86.2 1204.48,-85.47"/>
</g>
<!-- Node13 -->
<g id="node13" class="node">
<title>Node13</title>
<g id="a_node13"><a xlink:href="accounts__database_8hpp.html" target="_top" xlink:title=" ">
<polygon fill="none" stroke="black" points="1046.5,-347.5 1046.5,-366.5 1177.5,-366.5 1177.5,-347.5 1046.5,-347.5"/>
<text text-anchor="middle" x="1112" y="-354.5" font-family="Helvetica,sans-Serif" font-size="10.00">accounts_database.hpp</text>
</a>
</g>
</g>
<!-- Node9&#45;&gt;Node13 -->
<g id="edge13" class="edge">
<title>Node9&#45;&gt;Node13</title>
<path fill="none" stroke="midnightblue" d="M1115.04,-694.43C1121.5,-675.44 1136,-628.26 1136,-587.5 1136,-587.5 1136,-587.5 1136,-468 1136,-435.06 1125.6,-397.82 1118.49,-376.21"/>
<polygon fill="midnightblue" stroke="midnightblue" points="1121.78,-375.03 1115.24,-366.7 1115.16,-377.29 1121.78,-375.03"/>
</g>
<!-- Node14 -->
<g id="node14" class="node">
<title>Node14</title>
<g id="a_node14"><a xlink:href="account_8hpp.html" target="_top" xlink:title=" ">
<polygon fill="none" stroke="black" points="1042,-112.5 1042,-131.5 1118,-131.5 1118,-112.5 1042,-112.5"/>
<text text-anchor="middle" x="1080" y="-119.5" font-family="Helvetica,sans-Serif" font-size="10.00">account.hpp</text>
</a>
</g>
</g>
<!-- Node13&#45;&gt;Node14 -->
<g id="edge14" class="edge">
<title>Node13&#45;&gt;Node14</title>
<path fill="none" stroke="midnightblue" d="M1110.82,-347.43C1106.2,-313.75 1089.2,-189.99 1082.62,-142.1"/>
<polygon fill="midnightblue" stroke="midnightblue" points="1086.05,-141.33 1081.22,-131.9 1079.11,-142.28 1086.05,-141.33"/>
</g>
<!-- Node14&#45;&gt;Node4 -->
<g id="edge15" class="edge">
<title>Node14&#45;&gt;Node4</title>
<path fill="none" stroke="midnightblue" d="M1081.58,-112.4C1083.61,-98.41 1085.22,-70.81 1070,-56 1025.25,-12.48 833.6,-9.41 750.12,-10.22"/>
<polygon fill="midnightblue" stroke="midnightblue" points="749.98,-6.72 740.02,-10.34 750.06,-13.72 749.98,-6.72"/>
</g>
<!-- Node14&#45;&gt;Node12 -->
<g id="edge17" class="edge">
<title>Node14&#45;&gt;Node12</title>
<path fill="none" stroke="midnightblue" d="M1098.86,-112.44C1118.27,-103.64 1148.73,-89.81 1170.96,-79.72"/>
<polygon fill="midnightblue" stroke="midnightblue" points="1172.57,-82.84 1180.23,-75.52 1169.68,-76.46 1172.57,-82.84"/>
</g>
<!-- Node15 -->
<g id="node15" class="node">
<title>Node15</title>
<g id="a_node15"><a xlink:title=" ">
<polygon fill="none" stroke="#bfbfbf" points="1029,-56.5 1029,-75.5 1061,-75.5 1061,-56.5 1029,-56.5"/>
<text text-anchor="middle" x="1045" y="-63.5" font-family="Helvetica,sans-Serif" font-size="10.00">set</text>
</a>
</g>
</g>
<!-- Node14&#45;&gt;Node15 -->
<g id="edge16" class="edge">
<title>Node14&#45;&gt;Node15</title>
<path fill="none" stroke="midnightblue" d="M1074.22,-112.08C1069.33,-104.53 1062.17,-93.49 1056.17,-84.23"/>
<polygon fill="midnightblue" stroke="midnightblue" points="1059.05,-82.24 1050.67,-75.75 1053.17,-86.05 1059.05,-82.24"/>
</g>
<!-- Node16 -->
<g id="node16" class="node">
<title>Node16</title>
<g id="a_node16"><a xlink:title=" ">
<polygon fill="none" stroke="#bfbfbf" points="967,-56.5 967,-75.5 1011,-75.5 1011,-56.5 967,-56.5"/>
<text text-anchor="middle" x="989" y="-63.5" font-family="Helvetica,sans-Serif" font-size="10.00">string</text>
</a>
</g>
</g>
<!-- Node14&#45;&gt;Node16 -->
<g id="edge18" class="edge">
<title>Node14&#45;&gt;Node16</title>
<path fill="none" stroke="midnightblue" d="M1065.38,-112.32C1051.05,-103.82 1028.99,-90.73 1012.25,-80.8"/>
<polygon fill="midnightblue" stroke="midnightblue" points="1013.97,-77.75 1003.58,-75.65 1010.4,-83.77 1013.97,-77.75"/>
</g>
<!-- Node17&#45;&gt;Node5 -->
<g id="edge20" class="edge">
<title>Node17&#45;&gt;Node5</title>
<path fill="none" stroke="midnightblue" d="M918.36,-224.4C935.67,-214.77 958.48,-202.09 975.58,-192.58"/>
<polygon fill="midnightblue" stroke="midnightblue" points="977.39,-195.58 984.43,-187.66 973.99,-189.46 977.39,-195.58"/>
</g>
<!-- Node18 -->
<g id="node18" class="node">
<title>Node18</title>
<g id="a_node18"><a xlink:href="abstract__handler_8hpp.html" target="_top" xlink:title=" ">
<polygon fill="none" stroke="black" points="777.5,-168.5 777.5,-187.5 896.5,-187.5 896.5,-168.5 777.5,-168.5"/>
<text text-anchor="middle" x="837" y="-175.5" font-family="Helvetica,sans-Serif" font-size="10.00">abstract_handler.hpp</text>
</a>
</g>
</g>
<!-- Node17&#45;&gt;Node18 -->
<g id="edge21" class="edge">
<title>Node17&#45;&gt;Node18</title>
<path fill="none" stroke="midnightblue" d="M879.73,-224.4C871.42,-215.58 860.7,-204.18 852.08,-195.02"/>
<polygon fill="midnightblue" stroke="midnightblue" points="854.55,-192.54 845.15,-187.66 849.45,-197.34 854.55,-192.54"/>
</g>
<!-- Node18&#45;&gt;Node4 -->
<g id="edge22" class="edge">
<title>Node18&#45;&gt;Node4</title>
<path fill="none" stroke="midnightblue" d="M850.7,-168.45C881.52,-148.17 951.19,-95.9 919,-56 898.19,-30.2 804.36,-18.46 750.1,-13.74"/>
<polygon fill="midnightblue" stroke="midnightblue" points="750.39,-10.26 740.13,-12.92 749.81,-17.23 750.39,-10.26"/>
</g>
<!-- Node18&#45;&gt;Node14 -->
<g id="edge23" class="edge">
<title>Node18&#45;&gt;Node14</title>
<path fill="none" stroke="midnightblue" d="M875.5,-168.44C917.81,-159.04 985.82,-143.93 1031.67,-133.74"/>
<polygon fill="midnightblue" stroke="midnightblue" points="1032.67,-137.1 1041.68,-131.52 1031.15,-130.27 1032.67,-137.1"/>
</g>
<!-- Node19 -->
<g id="node19" class="node">
<title>Node19</title>
<g id="a_node19"><a xlink:href="socket_8hpp.html" target="_top" xlink:title=" ">
<polygon fill="none" stroke="black" points="736,-112.5 736,-131.5 840,-131.5 840,-112.5 736,-112.5"/>
<text text-anchor="middle" x="788" y="-119.5" font-family="Helvetica,sans-Serif" font-size="10.00">socket/socket.hpp</text>
</a>
</g>
</g>
<!-- Node18&#45;&gt;Node19 -->
<g id="edge24" class="edge">
<title>Node18&#45;&gt;Node19</title>
<path fill="none" stroke="midnightblue" d="M828.91,-168.08C821.84,-160.3 811.41,-148.8 802.85,-139.37"/>
<polygon fill="midnightblue" stroke="midnightblue" points="805.25,-136.8 795.94,-131.75 800.07,-141.51 805.25,-136.8"/>
</g>
<!-- Node19&#45;&gt;Node4 -->
<g id="edge27" class="edge">
<title>Node19&#45;&gt;Node4</title>
<path fill="none" stroke="midnightblue" d="M771.94,-112.37C758.82,-104.54 740.76,-91.8 730,-76 720.59,-62.18 715.77,-43.66 713.35,-29.92"/>
<polygon fill="midnightblue" stroke="midnightblue" points="716.76,-29.09 711.83,-19.72 709.84,-30.13 716.76,-29.09"/>
</g>
<!-- Node19&#45;&gt;Node16 -->
<g id="edge28" class="edge">
<title>Node19&#45;&gt;Node16</title>
<path fill="none" stroke="midnightblue" d="M819.85,-112.44C857.39,-102.36 919.41,-85.7 957.01,-75.6"/>
<polygon fill="midnightblue" stroke="midnightblue" points="958.17,-78.91 966.92,-72.93 956.36,-72.15 958.17,-78.91"/>
</g>
<!-- Node20 -->
<g id="node20" class="node">
<title>Node20</title>
<g id="a_node20"><a xlink:title=" ">
<polygon fill="none" stroke="#bfbfbf" points="739,-56.5 739,-75.5 827,-75.5 827,-56.5 739,-56.5"/>
<text text-anchor="middle" x="783" y="-63.5" font-family="Helvetica,sans-Serif" font-size="10.00">boost/asio.hpp</text>
</a>
</g>
</g>
<!-- Node19&#45;&gt;Node20 -->
<g id="edge25" class="edge">
<title>Node19&#45;&gt;Node20</title>
<path fill="none" stroke="midnightblue" d="M787.17,-112.08C786.52,-105.01 785.58,-94.86 784.76,-85.99"/>
<polygon fill="midnightblue" stroke="midnightblue" points="788.22,-85.39 783.81,-75.75 781.25,-86.03 788.22,-85.39"/>
</g>
<!-- Node21 -->
<g id="node21" class="node">
<title>Node21</title>
<g id="a_node21"><a xlink:title=" ">
<polygon fill="none" stroke="#bfbfbf" points="845.5,-56.5 845.5,-75.5 910.5,-75.5 910.5,-56.5 845.5,-56.5"/>
<text text-anchor="middle" x="878" y="-63.5" font-family="Helvetica,sans-Serif" font-size="10.00">functional</text>
</a>
</g>
</g>
<!-- Node19&#45;&gt;Node21 -->
<g id="edge26" class="edge">
<title>Node19&#45;&gt;Node21</title>
<path fill="none" stroke="midnightblue" d="M802.46,-112.32C816.5,-103.9 838.05,-90.97 854.54,-81.07"/>
<polygon fill="midnightblue" stroke="midnightblue" points="856.8,-83.8 863.58,-75.65 853.2,-77.8 856.8,-83.8"/>
</g>
<!-- Node22 -->
<g id="node22" class="node">
<title>Node22</title>
<g id="a_node22"><a xlink:href="general_2socket_2log_8hpp.html" target="_top" xlink:title=" ">
<polygon fill="none" stroke="black" points="591.5,-56.5 591.5,-75.5 644.5,-75.5 644.5,-56.5 591.5,-56.5"/>
<text text-anchor="middle" x="618" y="-63.5" font-family="Helvetica,sans-Serif" font-size="10.00">log.hpp</text>
</a>
</g>
</g>
<!-- Node19&#45;&gt;Node22 -->
<g id="edge29" class="edge">
<title>Node19&#45;&gt;Node22</title>
<path fill="none" stroke="midnightblue" d="M761.06,-112.44C732.26,-103.29 686.4,-88.73 654.4,-78.56"/>
<polygon fill="midnightblue" stroke="midnightblue" points="655.12,-75.12 644.53,-75.43 653,-81.79 655.12,-75.12"/>
</g>
<!-- Node22&#45;&gt;Node4 -->
<g id="edge30" class="edge">
<title>Node22&#45;&gt;Node4</title>
<path fill="none" stroke="midnightblue" d="M632.94,-56.32C647.59,-47.82 670.13,-34.73 687.24,-24.8"/>
<polygon fill="midnightblue" stroke="midnightblue" points="689.2,-27.7 696.1,-19.65 685.69,-21.65 689.2,-27.7"/>
</g>
<!-- Node23 -->
<g id="node23" class="node">
<title>Node23</title>
<g id="a_node23"><a xlink:title=" ">
<polygon fill="none" stroke="#bfbfbf" points="589.5,-0.5 589.5,-19.5 646.5,-19.5 646.5,-0.5 589.5,-0.5"/>
<text text-anchor="middle" x="618" y="-7.5" font-family="Helvetica,sans-Serif" font-size="10.00">ostream</text>
</a>
</g>
</g>
<!-- Node22&#45;&gt;Node23 -->
<g id="edge31" class="edge">
<title>Node22&#45;&gt;Node23</title>
<path fill="none" stroke="midnightblue" d="M618,-56.08C618,-49.01 618,-38.86 618,-29.99"/>
<polygon fill="midnightblue" stroke="midnightblue" points="621.5,-29.75 618,-19.75 614.5,-29.75 621.5,-29.75"/>
</g>
<!-- Node25 -->
<g id="node25" class="node">
<title>Node25</title>
<g id="a_node25"><a xlink:href="sign__in__request_8hpp.html" target="_top" xlink:title=" ">
<polygon fill="none" stroke="black" points="708,-571.5 708,-601.5 834,-601.5 834,-571.5 708,-571.5"/>
<text text-anchor="start" x="716" y="-589.5" font-family="Helvetica,sans-Serif" font-size="10.00">requests/authorization</text>
<text text-anchor="middle" x="771" y="-578.5" font-family="Helvetica,sans-Serif" font-size="10.00">/sign_in_request.hpp</text>
</a>
</g>
</g>
<!-- Node24&#45;&gt;Node25 -->
<g id="edge33" class="edge">
<title>Node24&#45;&gt;Node25</title>
<path fill="none" stroke="midnightblue" d="M757.29,-638.48C759.2,-631.4 762,-620.97 764.58,-611.39"/>
<polygon fill="midnightblue" stroke="midnightblue" points="768.01,-612.09 767.23,-601.52 761.25,-610.27 768.01,-612.09"/>
</g>
<!-- Node30 -->
<g id="node30" class="node">
<title>Node30</title>
<g id="a_node30"><a xlink:href="sign__up__request_8hpp.html" target="_top" xlink:title=" ">
<polygon fill="none" stroke="black" points="564,-571.5 564,-601.5 690,-601.5 690,-571.5 564,-571.5"/>
<text text-anchor="start" x="572" y="-589.5" font-family="Helvetica,sans-Serif" font-size="10.00">requests/authorization</text>
<text text-anchor="middle" x="627" y="-578.5" font-family="Helvetica,sans-Serif" font-size="10.00">/sign_up_request.hpp</text>
</a>
</g>
</g>
<!-- Node24&#45;&gt;Node30 -->
<g id="edge43" class="edge">
<title>Node24&#45;&gt;Node30</title>
<path fill="none" stroke="midnightblue" d="M736.66,-638.48C718.43,-630 689.9,-616.74 666.5,-605.86"/>
<polygon fill="midnightblue" stroke="midnightblue" points="667.71,-602.56 657.17,-601.52 664.76,-608.91 667.71,-602.56"/>
</g>
<!-- Node31 -->
<g id="node31" class="node">
<title>Node31</title>
<g id="a_node31"><a xlink:href="messages__builder_8hpp.html" target="_top" xlink:title=" ">
<polygon fill="none" stroke="black" points="381,-571.5 381,-601.5 545,-601.5 545,-571.5 381,-571.5"/>
<text text-anchor="start" x="389" y="-589.5" font-family="Helvetica,sans-Serif" font-size="10.00">requests/messages/messages</text>
<text text-anchor="middle" x="463" y="-578.5" font-family="Helvetica,sans-Serif" font-size="10.00">_builder.hpp</text>
</a>
</g>
</g>
<!-- Node24&#45;&gt;Node31 -->
<g id="edge45" class="edge">
<title>Node24&#45;&gt;Node31</title>
<path fill="none" stroke="midnightblue" d="M713.16,-638.48C668.63,-629.4 597.11,-614.83 541.92,-603.58"/>
<polygon fill="midnightblue" stroke="midnightblue" points="542.32,-600.09 531.82,-601.52 540.92,-606.95 542.32,-600.09"/>
</g>
<!-- Node26 -->
<g id="node26" class="node">
<title>Node26</title>
<g id="a_node26"><a xlink:href="authorization__request_8hpp.html" target="_top" xlink:title=" ">
<polygon fill="none" stroke="black" points="690,-515.5 690,-534.5 834,-534.5 834,-515.5 690,-515.5"/>
<text text-anchor="middle" x="762" y="-522.5" font-family="Helvetica,sans-Serif" font-size="10.00">authorization_request.hpp</text>
</a>
</g>
</g>
<!-- Node25&#45;&gt;Node26 -->
<g id="edge34" class="edge">
<title>Node25&#45;&gt;Node26</title>
<path fill="none" stroke="midnightblue" d="M768.87,-571.4C767.65,-563.38 766.12,-553.23 764.81,-544.57"/>
<polygon fill="midnightblue" stroke="midnightblue" points="768.27,-544.02 763.31,-534.66 761.34,-545.07 768.27,-544.02"/>
</g>
<!-- Node27 -->
<g id="node27" class="node">
<title>Node27</title>
<g id="a_node27"><a xlink:href="request_8hpp.html" target="_top" xlink:title=" ">
<polygon fill="none" stroke="black" points="669.5,-291.5 669.5,-310.5 788.5,-310.5 788.5,-291.5 669.5,-291.5"/>
<text text-anchor="middle" x="729" y="-298.5" font-family="Helvetica,sans-Serif" font-size="10.00">requests/request.hpp</text>
</a>
</g>
</g>
<!-- Node26&#45;&gt;Node27 -->
<g id="edge35" class="edge">
<title>Node26&#45;&gt;Node27</title>
<path fill="none" stroke="midnightblue" d="M760.71,-515.3C755.85,-482.63 738.64,-366.87 731.82,-320.96"/>
<polygon fill="midnightblue" stroke="midnightblue" points="735.25,-320.26 730.32,-310.88 728.33,-321.29 735.25,-320.26"/>
</g>
<!-- Node27&#45;&gt;Node4 -->
<g id="edge36" class="edge">
<title>Node27&#45;&gt;Node4</title>
<path fill="none" stroke="midnightblue" d="M694.2,-291.43C645.52,-277.12 563,-243.37 563,-179 563,-179 563,-179 563,-121 563,-90.9 561.27,-77.82 582,-56 594.58,-42.75 638.74,-29.15 671.91,-20.42"/>
<polygon fill="midnightblue" stroke="midnightblue" points="673,-23.76 681.81,-17.87 671.25,-16.98 673,-23.76"/>
</g>
<!-- Node27&#45;&gt;Node16 -->
<g id="edge37" class="edge">
<title>Node27&#45;&gt;Node16</title>
<path fill="none" stroke="midnightblue" d="M738.17,-291.41C757.08,-273.8 800.05,-234.4 817,-224 853.02,-201.9 872.04,-214.44 905,-188 941.1,-159.04 968.14,-110.55 980.89,-84.62"/>
<polygon fill="midnightblue" stroke="midnightblue" points="984.05,-86.12 985.2,-75.59 977.73,-83.11 984.05,-86.12"/>
</g>
<!-- Node27&#45;&gt;Node17 -->
<g id="edge42" class="edge">
<title>Node27&#45;&gt;Node17</title>
<path fill="none" stroke="midnightblue" d="M752.5,-291.48C776.47,-282.78 814.37,-269.03 844.77,-258"/>
<polygon fill="midnightblue" stroke="midnightblue" points="846.14,-261.22 854.35,-254.52 843.75,-254.64 846.14,-261.22"/>
</g>
<!-- Node28 -->
<g id="node28" class="node">
<title>Node28</title>
<g id="a_node28"><a xlink:href="client__handler_8hpp.html" target="_top" xlink:title=" ">
<polygon fill="none" stroke="black" points="638.5,-224.5 638.5,-254.5 769.5,-254.5 769.5,-224.5 638.5,-224.5"/>
<text text-anchor="start" x="646.5" y="-242.5" font-family="Helvetica,sans-Serif" font-size="10.00">request_handlers/client</text>
<text text-anchor="middle" x="704" y="-231.5" font-family="Helvetica,sans-Serif" font-size="10.00">_handler.hpp</text>
</a>
</g>
</g>
<!-- Node27&#45;&gt;Node28 -->
<g id="edge38" class="edge">
<title>Node27&#45;&gt;Node28</title>
<path fill="none" stroke="midnightblue" d="M725.42,-291.48C722.38,-284.25 717.88,-273.53 713.78,-263.78"/>
<polygon fill="midnightblue" stroke="midnightblue" points="716.99,-262.39 709.89,-254.52 710.54,-265.1 716.99,-262.39"/>
</g>
<!-- Node28&#45;&gt;Node18 -->
<g id="edge39" class="edge">
<title>Node28&#45;&gt;Node18</title>
<path fill="none" stroke="midnightblue" d="M735.52,-224.4C757.64,-214.51 786.97,-201.38 808.41,-191.79"/>
<polygon fill="midnightblue" stroke="midnightblue" points="809.95,-194.94 817.65,-187.66 807.09,-188.55 809.95,-194.94"/>
</g>
<!-- Node29 -->
<g id="node29" class="node">
<title>Node29</title>
<g id="a_node29"><a xlink:href="renderer_8hpp.html" target="_top" xlink:title=" ">
<polygon fill="none" stroke="black" points="637,-112.5 637,-131.5 715,-131.5 715,-112.5 637,-112.5"/>
<text text-anchor="middle" x="676" y="-119.5" font-family="Helvetica,sans-Serif" font-size="10.00">renderer.hpp</text>
</a>
</g>
</g>
<!-- Node28&#45;&gt;Node29 -->
<g id="edge40" class="edge">
<title>Node28&#45;&gt;Node29</title>
<path fill="none" stroke="midnightblue" d="M700.57,-224.34C695.52,-203.53 686.1,-164.66 680.51,-141.58"/>
<polygon fill="midnightblue" stroke="midnightblue" points="683.86,-140.56 678.1,-131.67 677.06,-142.21 683.86,-140.56"/>
</g>
<!-- Node29&#45;&gt;Node4 -->
<g id="edge41" class="edge">
<title>Node29&#45;&gt;Node4</title>
<path fill="none" stroke="midnightblue" d="M678.75,-112.37C684.42,-94.54 697.54,-53.3 705.19,-29.27"/>
<polygon fill="midnightblue" stroke="midnightblue" points="708.57,-30.18 708.27,-19.59 701.9,-28.06 708.57,-30.18"/>
</g>
<!-- Node30&#45;&gt;Node26 -->
<g id="edge44" class="edge">
<title>Node30&#45;&gt;Node26</title>
<path fill="none" stroke="midnightblue" d="M658.99,-571.4C681.44,-561.51 711.21,-548.38 732.98,-538.79"/>
<polygon fill="midnightblue" stroke="midnightblue" points="734.62,-541.89 742.36,-534.66 731.79,-535.49 734.62,-541.89"/>
</g>
<!-- Node32 -->
<g id="node32" class="node">
<title>Node32</title>
<g id="a_node32"><a xlink:href="all__messages_8hpp.html" target="_top" xlink:title=" ">
<polygon fill="none" stroke="black" points="409,-515.5 409,-534.5 513,-534.5 513,-515.5 409,-515.5"/>
<text text-anchor="middle" x="461" y="-522.5" font-family="Helvetica,sans-Serif" font-size="10.00">all_messages.hpp</text>
</a>
</g>
</g>
<!-- Node31&#45;&gt;Node32 -->
<g id="edge46" class="edge">
<title>Node31&#45;&gt;Node32</title>
<path fill="none" stroke="midnightblue" d="M462.53,-571.4C462.26,-563.47 461.92,-553.46 461.63,-544.86"/>
<polygon fill="midnightblue" stroke="midnightblue" points="465.13,-544.53 461.29,-534.66 458.13,-544.77 465.13,-544.53"/>
</g>
<!-- Node33 -->
<g id="node33" class="node">
<title>Node33</title>
<g id="a_node33"><a xlink:href="base__message_8hpp.html" target="_top" xlink:title=" ">
<polygon fill="none" stroke="black" points="624,-403.5 624,-422.5 734,-422.5 734,-403.5 624,-403.5"/>
<text text-anchor="middle" x="679" y="-410.5" font-family="Helvetica,sans-Serif" font-size="10.00">base_message.hpp</text>
</a>
</g>
</g>
<!-- Node32&#45;&gt;Node33 -->
<g id="edge47" class="edge">
<title>Node32&#45;&gt;Node33</title>
<path fill="none" stroke="midnightblue" d="M513.33,-518.2C564.96,-511.45 639.09,-498.65 660,-479 672.57,-467.18 676.98,-447.55 678.44,-432.95"/>
<polygon fill="midnightblue" stroke="midnightblue" points="681.96,-432.76 679.09,-422.56 674.97,-432.33 681.96,-432.76"/>
</g>
<!-- Node35 -->
<g id="node35" class="node">
<title>Node35</title>
<g id="a_node35"><a xlink:href="private__decorator_8hpp.html" target="_top" xlink:title=" ">
<polygon fill="none" stroke="black" points="126.5,-459.5 126.5,-478.5 249.5,-478.5 249.5,-459.5 126.5,-459.5"/>
<text text-anchor="middle" x="188" y="-466.5" font-family="Helvetica,sans-Serif" font-size="10.00">private_decorator.hpp</text>
</a>
</g>
</g>
<!-- Node32&#45;&gt;Node35 -->
<g id="edge50" class="edge">
<title>Node32&#45;&gt;Node35</title>
<path fill="none" stroke="midnightblue" d="M417.74,-515.44C369.82,-505.96 292.52,-490.67 241,-480.48"/>
<polygon fill="midnightblue" stroke="midnightblue" points="241.54,-477.02 231.06,-478.52 240.19,-483.89 241.54,-477.02"/>
</g>
<!-- Node37 -->
<g id="node37" class="node">
<title>Node37</title>
<g id="a_node37"><a xlink:href="room__decorator_8hpp.html" target="_top" xlink:title=" ">
<polygon fill="none" stroke="black" points="268,-459.5 268,-478.5 382,-478.5 382,-459.5 268,-459.5"/>
<text text-anchor="middle" x="325" y="-466.5" font-family="Helvetica,sans-Serif" font-size="10.00">room_decorator.hpp</text>
</a>
</g>
</g>
<!-- Node32&#45;&gt;Node37 -->
<g id="edge53" class="edge">
<title>Node32&#45;&gt;Node37</title>
<path fill="none" stroke="midnightblue" d="M439.45,-515.44C416.97,-506.52 381.51,-492.44 356.02,-482.32"/>
<polygon fill="midnightblue" stroke="midnightblue" points="357.03,-478.95 346.45,-478.52 354.45,-485.46 357.03,-478.95"/>
</g>
<!-- Node38 -->
<g id="node38" class="node">
<title>Node38</title>
<g id="a_node38"><a xlink:href="sender__decorator_8hpp.html" target="_top" xlink:title=" ">
<polygon fill="none" stroke="black" points="400,-459.5 400,-478.5 522,-478.5 522,-459.5 400,-459.5"/>
<text text-anchor="middle" x="461" y="-466.5" font-family="Helvetica,sans-Serif" font-size="10.00">sender_decorator.hpp</text>
</a>
</g>
</g>
<!-- Node32&#45;&gt;Node38 -->
<g id="edge55" class="edge">
<title>Node32&#45;&gt;Node38</title>
<path fill="none" stroke="midnightblue" d="M461,-515.08C461,-508.01 461,-497.86 461,-488.99"/>
<polygon fill="midnightblue" stroke="midnightblue" points="464.5,-488.75 461,-478.75 457.5,-488.75 464.5,-488.75"/>
</g>
<!-- Node39 -->
<g id="node39" class="node">
<title>Node39</title>
<g id="a_node39"><a xlink:href="text__decorator_8hpp.html" target="_top" xlink:title=" ">
<polygon fill="none" stroke="black" points="0,-459.5 0,-478.5 108,-478.5 108,-459.5 0,-459.5"/>
<text text-anchor="middle" x="54" y="-466.5" font-family="Helvetica,sans-Serif" font-size="10.00">text_decorator.hpp</text>
</a>
</g>
</g>
<!-- Node32&#45;&gt;Node39 -->
<g id="edge57" class="edge">
<title>Node32&#45;&gt;Node39</title>
<path fill="none" stroke="midnightblue" d="M408.81,-517.37C343.43,-509.02 227.66,-494.09 118.49,-479.19"/>
<polygon fill="midnightblue" stroke="midnightblue" points="118.67,-475.68 108.29,-477.8 117.72,-482.62 118.67,-475.68"/>
</g>
<!-- Node40 -->
<g id="node40" class="node">
<title>Node40</title>
<g id="a_node40"><a xlink:href="time__decorator_8hpp.html" target="_top" xlink:title=" ">
<polygon fill="none" stroke="black" points="540.5,-459.5 540.5,-478.5 651.5,-478.5 651.5,-459.5 540.5,-459.5"/>
<text text-anchor="middle" x="596" y="-466.5" font-family="Helvetica,sans-Serif" font-size="10.00">time_decorator.hpp</text>
</a>
</g>
</g>
<!-- Node32&#45;&gt;Node40 -->
<g id="edge59" class="edge">
<title>Node32&#45;&gt;Node40</title>
<path fill="none" stroke="midnightblue" d="M482.39,-515.44C504.71,-506.52 539.9,-492.44 565.21,-482.32"/>
<polygon fill="midnightblue" stroke="midnightblue" points="566.72,-485.48 574.71,-478.52 564.12,-478.98 566.72,-485.48"/>
</g>
<!-- Node34 -->
<g id="node34" class="node">
<title>Node34</title>
<g id="a_node34"><a xlink:href="message_8hpp.html" target="_top" xlink:title=" ">
<polygon fill="none" stroke="black" points="638,-347.5 638,-366.5 720,-366.5 720,-347.5 638,-347.5"/>
<text text-anchor="middle" x="679" y="-354.5" font-family="Helvetica,sans-Serif" font-size="10.00">message.hpp</text>
</a>
</g>
</g>
<!-- Node33&#45;&gt;Node34 -->
<g id="edge48" class="edge">
<title>Node33&#45;&gt;Node34</title>
<path fill="none" stroke="midnightblue" d="M679,-403.08C679,-396.01 679,-385.86 679,-376.99"/>
<polygon fill="midnightblue" stroke="midnightblue" points="682.5,-376.75 679,-366.75 675.5,-376.75 682.5,-376.75"/>
</g>
<!-- Node34&#45;&gt;Node27 -->
<g id="edge49" class="edge">
<title>Node34&#45;&gt;Node27</title>
<path fill="none" stroke="midnightblue" d="M687.26,-347.08C694.46,-339.3 705.11,-327.8 713.85,-318.37"/>
<polygon fill="midnightblue" stroke="midnightblue" points="716.67,-320.47 720.9,-310.75 711.53,-315.71 716.67,-320.47"/>
</g>
<!-- Node36 -->
<g id="node36" class="node">
<title>Node36</title>
<g id="a_node36"><a xlink:href="properties__decorator_8hpp.html" target="_top" xlink:title=" ">
<polygon fill="none" stroke="black" points="324,-403.5 324,-422.5 462,-422.5 462,-403.5 324,-403.5"/>
<text text-anchor="middle" x="393" y="-410.5" font-family="Helvetica,sans-Serif" font-size="10.00">properties_decorator.hpp</text>
</a>
</g>
</g>
<!-- Node35&#45;&gt;Node36 -->
<g id="edge51" class="edge">
<title>Node35&#45;&gt;Node36</title>
<path fill="none" stroke="midnightblue" d="M220.48,-459.44C255.72,-450.16 312.1,-435.31 350.76,-425.13"/>
<polygon fill="midnightblue" stroke="midnightblue" points="351.89,-428.45 360.67,-422.52 350.11,-421.68 351.89,-428.45"/>
</g>
<!-- Node36&#45;&gt;Node34 -->
<g id="edge52" class="edge">
<title>Node36&#45;&gt;Node34</title>
<path fill="none" stroke="midnightblue" d="M438.32,-403.44C489.81,-393.72 573.68,-377.89 627.58,-367.71"/>
<polygon fill="midnightblue" stroke="midnightblue" points="628.43,-371.11 637.61,-365.82 627.13,-364.23 628.43,-371.11"/>
</g>
<!-- Node37&#45;&gt;Node36 -->
<g id="edge54" class="edge">
<title>Node37&#45;&gt;Node36</title>
<path fill="none" stroke="midnightblue" d="M335.93,-459.32C346.17,-451.18 361.72,-438.84 374,-429.09"/>
<polygon fill="midnightblue" stroke="midnightblue" points="376.22,-431.79 381.88,-422.83 371.87,-426.31 376.22,-431.79"/>
</g>
<!-- Node38&#45;&gt;Node36 -->
<g id="edge56" class="edge">
<title>Node38&#45;&gt;Node36</title>
<path fill="none" stroke="midnightblue" d="M450.07,-459.32C439.83,-451.18 424.28,-438.84 412,-429.09"/>
<polygon fill="midnightblue" stroke="midnightblue" points="414.13,-426.31 404.12,-422.83 409.78,-431.79 414.13,-426.31"/>
</g>
<!-- Node39&#45;&gt;Node36 -->
<g id="edge58" class="edge">
<title>Node39&#45;&gt;Node36</title>
<path fill="none" stroke="midnightblue" d="M107.72,-459.44C167.97,-449.85 265.61,-434.29 329.57,-424.1"/>
<polygon fill="midnightblue" stroke="midnightblue" points="330.21,-427.55 339.54,-422.52 329.11,-420.63 330.21,-427.55"/>
</g>
<!-- Node40&#45;&gt;Node36 -->
<g id="edge60" class="edge">
<title>Node40&#45;&gt;Node36</title>
<path fill="none" stroke="midnightblue" d="M563.83,-459.44C528.94,-450.16 473.11,-435.31 434.83,-425.13"/>
<polygon fill="midnightblue" stroke="midnightblue" points="435.58,-421.7 425.02,-422.52 433.78,-428.47 435.58,-421.7"/>
</g>
<!-- Node41 -->
<g id="node41" class="node">
<title>Node41</title>
<g id="a_node41"><a xlink:title=" ">
<polygon fill="none" stroke="#bfbfbf" points="558,-403.5 558,-422.5 606,-422.5 606,-403.5 558,-403.5"/>
<text text-anchor="middle" x="582" y="-410.5" font-family="Helvetica,sans-Serif" font-size="10.00">time.h</text>
</a>
</g>
</g>
<!-- Node40&#45;&gt;Node41 -->
<g id="edge61" class="edge">
<title>Node40&#45;&gt;Node41</title>
<path fill="none" stroke="midnightblue" d="M593.69,-459.08C591.83,-451.93 589.16,-441.64 586.85,-432.69"/>
<polygon fill="midnightblue" stroke="midnightblue" points="590.17,-431.55 584.27,-422.75 583.39,-433.31 590.17,-431.55"/>
</g>
<!-- Node42&#45;&gt;Node5 -->
<g id="edge65" class="edge">
<title>Node42&#45;&gt;Node5</title>
<path fill="none" stroke="midnightblue" d="M940.01,-694.34C946.97,-634.55 987.92,-282.78 997.84,-197.58"/>
<polygon fill="midnightblue" stroke="midnightblue" points="1001.32,-197.91 999,-187.57 994.37,-197.1 1001.32,-197.91"/>
</g>
<!-- Node42&#45;&gt;Node7 -->
<g id="edge63" class="edge">
<title>Node42&#45;&gt;Node7</title>
<path fill="none" stroke="midnightblue" d="M948.8,-694.32C957.82,-686.34 971.41,-674.31 982.32,-664.65"/>
<polygon fill="midnightblue" stroke="midnightblue" points="984.85,-667.08 990.02,-657.83 980.21,-661.84 984.85,-667.08"/>
</g>
<!-- Node42&#45;&gt;Node11 -->
<g id="edge64" class="edge">
<title>Node42&#45;&gt;Node11</title>
<path fill="none" stroke="midnightblue" d="M961.34,-694.44C984.75,-685.48 1021.74,-671.31 1048.19,-661.18"/>
<polygon fill="midnightblue" stroke="midnightblue" points="1049.68,-664.36 1057.76,-657.52 1047.17,-657.82 1049.68,-664.36"/>
</g>
<!-- Node42&#45;&gt;Node17 -->
<g id="edge66" class="edge">
<title>Node42&#45;&gt;Node17</title>
<path fill="none" stroke="midnightblue" d="M933.9,-694.35C923.33,-675.58 900,-629.41 900,-587.5 900,-587.5 900,-587.5 900,-356 900,-324.44 897.36,-288.11 895.33,-264.76"/>
<polygon fill="midnightblue" stroke="midnightblue" points="898.8,-264.35 894.42,-254.71 891.83,-264.98 898.8,-264.35"/>
</g>
<!-- Node42&#45;&gt;Node24 -->
<g id="edge67" class="edge">
<title>Node42&#45;&gt;Node24</title>
<path fill="none" stroke="midnightblue" d="M909.84,-694.44C878.49,-685.24 828.47,-670.56 793.8,-660.39"/>
<polygon fill="midnightblue" stroke="midnightblue" points="794.6,-656.97 784.02,-657.52 792.63,-663.69 794.6,-656.97"/>
</g>
</g>
</svg>
