<?xml version="1.0" encoding="UTF-8" standalone="no"?>
<!DOCTYPE svg PUBLIC "-//W3C//DTD SVG 1.1//EN"
 "http://www.w3.org/Graphics/SVG/1.1/DTD/svg11.dtd">
<!-- Generated by graphviz version 2.43.0 (0)
 -->
<!-- Title: /home/alexander/Documents/Seminars/TP/Project/src/server_side/server_permissions.cpp Pages: 1 -->
<svg width="310pt" height="218pt"
 viewBox="0.00 0.00 309.50 218.00" xmlns="http://www.w3.org/2000/svg" xmlns:xlink="http://www.w3.org/1999/xlink">
<g id="graph0" class="graph" transform="scale(1 1) rotate(0) translate(4 214)">
<title>/home/alexander/Documents/Seminars/TP/Project/src/server_side/server_permissions.cpp</title>
<!-- Node1 -->
<g id="node1" class="node">
<title>Node1</title>
<g id="a_node1"><a xlink:title=" ">
<polygon fill="#bfbfbf" stroke="black" points="17,-168.5 17,-209.5 211,-209.5 211,-168.5 17,-168.5"/>
<text text-anchor="start" x="25" y="-197.5" font-family="Helvetica,sans-Serif" font-size="10.00">/home/alexander/Documents</text>
<text text-anchor="start" x="25" y="-186.5" font-family="Helvetica,sans-Serif" font-size="10.00">/Seminars/TP/Project/src</text>
<text text-anchor="middle" x="114" y="-175.5" font-family="Helvetica,sans-Serif" font-size="10.00">/server_side/server_permissions.cpp</text>
</a>
</g>
</g>
<!-- Node2 -->
<g id="node2" class="node">
<title>Node2</title>
<g id="a_node2"><a xlink:href="server__permissions_8hpp.html" target="_top" xlink:title=" ">
<polygon fill="none" stroke="black" points="47.5,-112.5 47.5,-131.5 180.5,-131.5 180.5,-112.5 47.5,-112.5"/>
<text text-anchor="middle" x="114" y="-119.5" font-family="Helvetica,sans-Serif" font-size="10.00">server_permissions.hpp</text>
</a>
</g>
</g>
<!-- Node1&#45;&gt;Node2 -->
<g id="edge1" class="edge">
<title>Node1&#45;&gt;Node2</title>
<path fill="none" stroke="midnightblue" d="M114,-168.5C114,-160.07 114,-150.24 114,-141.87"/>
<polygon fill="midnightblue" stroke="midnightblue" points="117.5,-141.65 114,-131.65 110.5,-141.65 117.5,-141.65"/>
</g>
<!-- Node3 -->
<g id="node3" class="node">
<title>Node3</title>
<g id="a_node3"><a xlink:title=" ">
<polygon fill="none" stroke="#bfbfbf" points="0,-56.5 0,-75.5 68,-75.5 68,-56.5 0,-56.5"/>
<text text-anchor="middle" x="34" y="-63.5" font-family="Helvetica,sans-Serif" font-size="10.00">filesystem</text>
</a>
</g>
</g>
<!-- Node2&#45;&gt;Node3 -->
<g id="edge2" class="edge">
<title>Node2&#45;&gt;Node3</title>
<path fill="none" stroke="midnightblue" d="M101.15,-112.32C88.78,-103.98 69.87,-91.21 55.26,-81.35"/>
<polygon fill="midnightblue" stroke="midnightblue" points="57.07,-78.35 46.82,-75.65 53.15,-84.15 57.07,-78.35"/>
</g>
<!-- Node4 -->
<g id="node4" class="node">
<title>Node4</title>
<g id="a_node4"><a xlink:title=" ">
<polygon fill="none" stroke="#bfbfbf" points="86.5,-56.5 86.5,-75.5 141.5,-75.5 141.5,-56.5 86.5,-56.5"/>
<text text-anchor="middle" x="114" y="-63.5" font-family="Helvetica,sans-Serif" font-size="10.00">fstream</text>
</a>
</g>
</g>
<!-- Node2&#45;&gt;Node4 -->
<g id="edge3" class="edge">
<title>Node2&#45;&gt;Node4</title>
<path fill="none" stroke="midnightblue" d="M114,-112.08C114,-105.01 114,-94.86 114,-85.99"/>
<polygon fill="midnightblue" stroke="midnightblue" points="117.5,-85.75 114,-75.75 110.5,-85.75 117.5,-85.75"/>
</g>
<!-- Node5 -->
<g id="node5" class="node">
<title>Node5</title>
<g id="a_node5"><a xlink:href="permissions_8hpp.html" target="_top" xlink:title=" ">
<polygon fill="none" stroke="black" points="159.5,-56.5 159.5,-75.5 256.5,-75.5 256.5,-56.5 159.5,-56.5"/>
<text text-anchor="middle" x="208" y="-63.5" font-family="Helvetica,sans-Serif" font-size="10.00">permissions.hpp</text>
</a>
</g>
</g>
<!-- Node2&#45;&gt;Node5 -->
<g id="edge4" class="edge">
<title>Node2&#45;&gt;Node5</title>
<path fill="none" stroke="midnightblue" d="M129.1,-112.32C143.9,-103.82 166.69,-90.73 183.98,-80.8"/>
<polygon fill="midnightblue" stroke="midnightblue" points="186.01,-83.67 192.93,-75.65 182.52,-77.6 186.01,-83.67"/>
</g>
<!-- Node6 -->
<g id="node6" class="node">
<title>Node6</title>
<g id="a_node6"><a xlink:title=" ">
<polygon fill="none" stroke="#bfbfbf" points="132,-0.5 132,-19.5 190,-19.5 190,-0.5 132,-0.5"/>
<text text-anchor="middle" x="161" y="-7.5" font-family="Helvetica,sans-Serif" font-size="10.00">memory</text>
</a>
</g>
</g>
<!-- Node5&#45;&gt;Node6 -->
<g id="edge5" class="edge">
<title>Node5&#45;&gt;Node6</title>
<path fill="none" stroke="midnightblue" d="M200.24,-56.08C193.46,-48.3 183.46,-36.8 175.24,-27.37"/>
<polygon fill="midnightblue" stroke="midnightblue" points="177.82,-25 168.62,-19.75 172.54,-29.59 177.82,-25"/>
</g>
<!-- Node7 -->
<g id="node7" class="node">
<title>Node7</title>
<g id="a_node7"><a xlink:title=" ">
<polygon fill="none" stroke="#bfbfbf" points="208.5,-0.5 208.5,-19.5 301.5,-19.5 301.5,-0.5 208.5,-0.5"/>
<text text-anchor="middle" x="255" y="-7.5" font-family="Helvetica,sans-Serif" font-size="10.00">unordered_map</text>
</a>
</g>
</g>
<!-- Node5&#45;&gt;Node7 -->
<g id="edge6" class="edge">
<title>Node5&#45;&gt;Node7</title>
<path fill="none" stroke="midnightblue" d="M215.76,-56.08C222.54,-48.3 232.54,-36.8 240.76,-27.37"/>
<polygon fill="midnightblue" stroke="midnightblue" points="243.46,-29.59 247.38,-19.75 238.18,-25 243.46,-29.59"/>
</g>
</g>
</svg>
