<?xml version="1.0" encoding="UTF-8" standalone="no"?>
<!DOCTYPE svg PUBLIC "-//W3C//DTD SVG 1.1//EN"
 "http://www.w3.org/Graphics/SVG/1.1/DTD/svg11.dtd">
<!-- Generated by graphviz version 2.43.0 (0)
 -->
<!-- Title: /home/alexander/Documents/Seminars/TP/Project/src/server_side/database/simple_database.hpp Pages: 1 -->
<svg width="741pt" height="306pt"
 viewBox="0.00 0.00 740.50 306.00" xmlns="http://www.w3.org/2000/svg" xmlns:xlink="http://www.w3.org/1999/xlink">
<g id="graph0" class="graph" transform="scale(1 1) rotate(0) translate(4 302)">
<title>/home/alexander/Documents/Seminars/TP/Project/src/server_side/database/simple_database.hpp</title>
<!-- Node1 -->
<g id="node1" class="node">
<title>Node1</title>
<g id="a_node1"><a xlink:title=" ">
<polygon fill="#bfbfbf" stroke="black" points="256.5,-245.5 256.5,-297.5 416.5,-297.5 416.5,-245.5 256.5,-245.5"/>
<text text-anchor="start" x="264.5" y="-285.5" font-family="Helvetica,sans-Serif" font-size="10.00">/home/alexander/Documents</text>
<text text-anchor="start" x="264.5" y="-274.5" font-family="Helvetica,sans-Serif" font-size="10.00">/Seminars/TP/Project/src</text>
<text text-anchor="start" x="264.5" y="-263.5" font-family="Helvetica,sans-Serif" font-size="10.00">/server_side/database/simple</text>
<text text-anchor="middle" x="336.5" y="-252.5" font-family="Helvetica,sans-Serif" font-size="10.00">_database.hpp</text>
</a>
</g>
</g>
<!-- Node2 -->
<g id="node2" class="node">
<title>Node2</title>
<g id="a_node2"><a xlink:href="simple__database_8cpp.html" target="_top" xlink:title=" ">
<polygon fill="none" stroke="black" points="168.5,-156.5 168.5,-208.5 328.5,-208.5 328.5,-156.5 168.5,-156.5"/>
<text text-anchor="start" x="176.5" y="-196.5" font-family="Helvetica,sans-Serif" font-size="10.00">/home/alexander/Documents</text>
<text text-anchor="start" x="176.5" y="-185.5" font-family="Helvetica,sans-Serif" font-size="10.00">/Seminars/TP/Project/src</text>
<text text-anchor="start" x="176.5" y="-174.5" font-family="Helvetica,sans-Serif" font-size="10.00">/server_side/database/simple</text>
<text text-anchor="middle" x="248.5" y="-163.5" font-family="Helvetica,sans-Serif" font-size="10.00">_database.cpp</text>
</a>
</g>
</g>
<!-- Node1&#45;&gt;Node2 -->
<g id="edge1" class="edge">
<title>Node1&#45;&gt;Node2</title>
<path fill="none" stroke="midnightblue" d="M303.7,-238.08C293.85,-228.34 283.19,-217.8 273.9,-208.61"/>
<polygon fill="midnightblue" stroke="midnightblue" points="301.47,-240.79 311.05,-245.34 306.4,-235.82 301.47,-240.79"/>
</g>
<!-- Node3 -->
<g id="node3" class="node">
<title>Node3</title>
<g id="a_node3"><a xlink:href="server_8hpp.html" target="_top" xlink:title=" ">
<polygon fill="none" stroke="black" points="346.5,-162 346.5,-203 504.5,-203 504.5,-162 346.5,-162"/>
<text text-anchor="start" x="354.5" y="-191" font-family="Helvetica,sans-Serif" font-size="10.00">/home/alexander/Documents</text>
<text text-anchor="start" x="354.5" y="-180" font-family="Helvetica,sans-Serif" font-size="10.00">/Seminars/TP/Project/src</text>
<text text-anchor="middle" x="425.5" y="-169" font-family="Helvetica,sans-Serif" font-size="10.00">/server_side/server.hpp</text>
</a>
</g>
</g>
<!-- Node1&#45;&gt;Node3 -->
<g id="edge2" class="edge">
<title>Node1&#45;&gt;Node3</title>
<path fill="none" stroke="midnightblue" d="M369.56,-238.18C381.62,-226.39 394.88,-213.43 405.47,-203.08"/>
<polygon fill="midnightblue" stroke="midnightblue" points="366.95,-235.84 362.24,-245.34 371.84,-240.85 366.95,-235.84"/>
</g>
<!-- Node4 -->
<g id="node4" class="node">
<title>Node4</title>
<g id="a_node4"><a xlink:href="client__connection_8hpp.html" target="_top" xlink:title=" ">
<polygon fill="none" stroke="black" points="154,-78.5 154,-119.5 339,-119.5 339,-78.5 154,-78.5"/>
<text text-anchor="start" x="162" y="-107.5" font-family="Helvetica,sans-Serif" font-size="10.00">/home/alexander/Documents</text>
<text text-anchor="start" x="162" y="-96.5" font-family="Helvetica,sans-Serif" font-size="10.00">/Seminars/TP/Project/src</text>
<text text-anchor="middle" x="246.5" y="-85.5" font-family="Helvetica,sans-Serif" font-size="10.00">/server_side/client_connection.hpp</text>
</a>
</g>
</g>
<!-- Node3&#45;&gt;Node4 -->
<g id="edge3" class="edge">
<title>Node3&#45;&gt;Node4</title>
<path fill="none" stroke="midnightblue" d="M373.42,-157.79C346.72,-145.63 314.59,-131 289.33,-119.5"/>
<polygon fill="midnightblue" stroke="midnightblue" points="372.07,-161.02 382.63,-161.98 374.97,-154.65 372.07,-161.02"/>
</g>
<!-- Node6 -->
<g id="node6" class="node">
<title>Node6</title>
<g id="a_node6"><a xlink:href="server_8cpp.html" target="_top" xlink:title=" ">
<polygon fill="none" stroke="black" points="202.5,-0.5 202.5,-41.5 360.5,-41.5 360.5,-0.5 202.5,-0.5"/>
<text text-anchor="start" x="210.5" y="-29.5" font-family="Helvetica,sans-Serif" font-size="10.00">/home/alexander/Documents</text>
<text text-anchor="start" x="210.5" y="-18.5" font-family="Helvetica,sans-Serif" font-size="10.00">/Seminars/TP/Project/src</text>
<text text-anchor="middle" x="281.5" y="-7.5" font-family="Helvetica,sans-Serif" font-size="10.00">/server_side/server.cpp</text>
</a>
</g>
</g>
<!-- Node3&#45;&gt;Node6 -->
<g id="edge10" class="edge">
<title>Node3&#45;&gt;Node6</title>
<path fill="none" stroke="midnightblue" d="M406.86,-153.39C391.95,-131.79 369.9,-101.73 347.5,-78 335.12,-64.89 319.85,-51.76 307.11,-41.52"/>
<polygon fill="midnightblue" stroke="midnightblue" points="404.07,-155.51 412.6,-161.8 409.85,-151.57 404.07,-155.51"/>
</g>
<!-- Node7 -->
<g id="node7" class="node">
<title>Node7</title>
<g id="a_node7"><a xlink:href="server__side_2console__handler_8hpp.html" target="_top" xlink:title=" ">
<polygon fill="none" stroke="black" points="395,-78.5 395,-119.5 574,-119.5 574,-78.5 395,-78.5"/>
<text text-anchor="start" x="403" y="-107.5" font-family="Helvetica,sans-Serif" font-size="10.00">/home/alexander/Documents</text>
<text text-anchor="start" x="403" y="-96.5" font-family="Helvetica,sans-Serif" font-size="10.00">/Seminars/TP/Project/src</text>
<text text-anchor="middle" x="484.5" y="-85.5" font-family="Helvetica,sans-Serif" font-size="10.00">/server_side/console_handler.hpp</text>
</a>
</g>
</g>
<!-- Node3&#45;&gt;Node7 -->
<g id="edge6" class="edge">
<title>Node3&#45;&gt;Node7</title>
<path fill="none" stroke="midnightblue" d="M445.73,-153.55C453.83,-142.36 462.98,-129.73 470.35,-119.55"/>
<polygon fill="midnightblue" stroke="midnightblue" points="442.81,-151.62 439.78,-161.77 448.48,-155.72 442.81,-151.62"/>
</g>
<!-- Node9 -->
<g id="node9" class="node">
<title>Node9</title>
<g id="a_node9"><a xlink:href="server__side_2main_8cpp.html" target="_top" xlink:title=" ">
<polygon fill="none" stroke="black" points="574.5,-0.5 574.5,-41.5 732.5,-41.5 732.5,-0.5 574.5,-0.5"/>
<text text-anchor="start" x="582.5" y="-29.5" font-family="Helvetica,sans-Serif" font-size="10.00">/home/alexander/Documents</text>
<text text-anchor="start" x="582.5" y="-18.5" font-family="Helvetica,sans-Serif" font-size="10.00">/Seminars/TP/Project/src</text>
<text text-anchor="middle" x="653.5" y="-7.5" font-family="Helvetica,sans-Serif" font-size="10.00">/server_side/main.cpp</text>
</a>
</g>
</g>
<!-- Node3&#45;&gt;Node9 -->
<g id="edge9" class="edge">
<title>Node3&#45;&gt;Node9</title>
<path fill="none" stroke="midnightblue" d="M510.81,-158.52C535.83,-149.18 562.17,-136.58 583.5,-120 611.07,-98.57 632.46,-63.39 644,-41.53"/>
<polygon fill="midnightblue" stroke="midnightblue" points="509.53,-155.26 501.3,-161.94 511.89,-161.85 509.53,-155.26"/>
</g>
<!-- Node5 -->
<g id="node5" class="node">
<title>Node5</title>
<g id="a_node5"><a xlink:href="client__connection_8cpp.html" target="_top" xlink:title=" ">
<polygon fill="none" stroke="black" points="0,-0.5 0,-41.5 185,-41.5 185,-0.5 0,-0.5"/>
<text text-anchor="start" x="8" y="-29.5" font-family="Helvetica,sans-Serif" font-size="10.00">/home/alexander/Documents</text>
<text text-anchor="start" x="8" y="-18.5" font-family="Helvetica,sans-Serif" font-size="10.00">/Seminars/TP/Project/src</text>
<text text-anchor="middle" x="92.5" y="-7.5" font-family="Helvetica,sans-Serif" font-size="10.00">/server_side/client_connection.cpp</text>
</a>
</g>
</g>
<!-- Node4&#45;&gt;Node5 -->
<g id="edge4" class="edge">
<title>Node4&#45;&gt;Node5</title>
<path fill="none" stroke="midnightblue" d="M197.68,-73.91C176.51,-63.46 152.03,-51.38 132.02,-41.51"/>
<polygon fill="midnightblue" stroke="midnightblue" points="196.32,-77.14 206.84,-78.43 199.42,-70.86 196.32,-77.14"/>
</g>
<!-- Node4&#45;&gt;Node6 -->
<g id="edge5" class="edge">
<title>Node4&#45;&gt;Node6</title>
<path fill="none" stroke="midnightblue" d="M259.77,-69.17C264.03,-59.93 268.64,-49.92 272.52,-41.51"/>
<polygon fill="midnightblue" stroke="midnightblue" points="256.52,-67.88 255.51,-78.43 262.88,-70.81 256.52,-67.88"/>
</g>
<!-- Node8 -->
<g id="node8" class="node">
<title>Node8</title>
<g id="a_node8"><a xlink:href="server__side_2console__handler_8cpp.html" target="_top" xlink:title=" ">
<polygon fill="none" stroke="black" points="378.5,-0.5 378.5,-41.5 556.5,-41.5 556.5,-0.5 378.5,-0.5"/>
<text text-anchor="start" x="386.5" y="-29.5" font-family="Helvetica,sans-Serif" font-size="10.00">/home/alexander/Documents</text>
<text text-anchor="start" x="386.5" y="-18.5" font-family="Helvetica,sans-Serif" font-size="10.00">/Seminars/TP/Project/src</text>
<text text-anchor="middle" x="467.5" y="-7.5" font-family="Helvetica,sans-Serif" font-size="10.00">/server_side/console_handler.cpp</text>
</a>
</g>
</g>
<!-- Node7&#45;&gt;Node8 -->
<g id="edge7" class="edge">
<title>Node7&#45;&gt;Node8</title>
<path fill="none" stroke="midnightblue" d="M477.92,-68.59C475.89,-59.51 473.71,-49.74 471.86,-41.51"/>
<polygon fill="midnightblue" stroke="midnightblue" points="474.52,-69.43 480.12,-78.43 481.35,-67.91 474.52,-69.43"/>
</g>
<!-- Node7&#45;&gt;Node9 -->
<g id="edge8" class="edge">
<title>Node7&#45;&gt;Node9</title>
<path fill="none" stroke="midnightblue" d="M537.45,-74.19C560.83,-63.67 587.97,-51.47 610.13,-41.51"/>
<polygon fill="midnightblue" stroke="midnightblue" points="535.71,-71.13 528.02,-78.43 538.58,-77.52 535.71,-71.13"/>
</g>
</g>
</svg>
