<?xml version="1.0" encoding="UTF-8" standalone="no"?>
<!DOCTYPE svg PUBLIC "-//W3C//DTD SVG 1.1//EN"
 "http://www.w3.org/Graphics/SVG/1.1/DTD/svg11.dtd">
<!-- Generated by graphviz version 2.43.0 (0)
 -->
<!-- Title: /home/alexander/Documents/Seminars/TP/Project/src/server_side/database/simple_database.cpp Pages: 1 -->
<svg width="460pt" height="285pt"
 viewBox="0.00 0.00 459.50 285.00" xmlns="http://www.w3.org/2000/svg" xmlns:xlink="http://www.w3.org/1999/xlink">
<g id="graph0" class="graph" transform="scale(1 1) rotate(0) translate(4 281)">
<title>/home/alexander/Documents/Seminars/TP/Project/src/server_side/database/simple_database.cpp</title>
<!-- Node1 -->
<g id="node1" class="node">
<title>Node1</title>
<g id="a_node1"><a xlink:title=" ">
<polygon fill="#bfbfbf" stroke="black" points="151.5,-224.5 151.5,-276.5 311.5,-276.5 311.5,-224.5 151.5,-224.5"/>
<text text-anchor="start" x="159.5" y="-264.5" font-family="Helvetica,sans-Serif" font-size="10.00">/home/alexander/Documents</text>
<text text-anchor="start" x="159.5" y="-253.5" font-family="Helvetica,sans-Serif" font-size="10.00">/Seminars/TP/Project/src</text>
<text text-anchor="start" x="159.5" y="-242.5" font-family="Helvetica,sans-Serif" font-size="10.00">/server_side/database/simple</text>
<text text-anchor="middle" x="231.5" y="-231.5" font-family="Helvetica,sans-Serif" font-size="10.00">_database.cpp</text>
</a>
</g>
</g>
<!-- Node2 -->
<g id="node2" class="node">
<title>Node2</title>
<g id="a_node2"><a xlink:href="simple__database_8hpp.html" target="_top" xlink:title=" ">
<polygon fill="none" stroke="black" points="119,-168.5 119,-187.5 240,-187.5 240,-168.5 119,-168.5"/>
<text text-anchor="middle" x="179.5" y="-175.5" font-family="Helvetica,sans-Serif" font-size="10.00">simple_database.hpp</text>
</a>
</g>
</g>
<!-- Node1&#45;&gt;Node2 -->
<g id="edge1" class="edge">
<title>Node1&#45;&gt;Node2</title>
<path fill="none" stroke="midnightblue" d="M213.02,-224.45C206,-214.93 198.18,-204.33 191.86,-195.76"/>
<polygon fill="midnightblue" stroke="midnightblue" points="194.67,-193.67 185.91,-187.7 189.03,-197.82 194.67,-193.67"/>
</g>
<!-- Node12 -->
<g id="node12" class="node">
<title>Node12</title>
<g id="a_node12"><a xlink:title=" ">
<polygon fill="none" stroke="#bfbfbf" points="258,-168.5 258,-187.5 311,-187.5 311,-168.5 258,-168.5"/>
<text text-anchor="middle" x="284.5" y="-175.5" font-family="Helvetica,sans-Serif" font-size="10.00">log.hpp</text>
</a>
</g>
</g>
<!-- Node1&#45;&gt;Node12 -->
<g id="edge12" class="edge">
<title>Node1&#45;&gt;Node12</title>
<path fill="none" stroke="midnightblue" d="M250.34,-224.45C257.49,-214.93 265.46,-204.33 271.9,-195.76"/>
<polygon fill="midnightblue" stroke="midnightblue" points="274.75,-197.79 277.96,-187.7 269.16,-193.59 274.75,-197.79"/>
</g>
<!-- Node3 -->
<g id="node3" class="node">
<title>Node3</title>
<g id="a_node3"><a xlink:title=" ">
<polygon fill="none" stroke="#bfbfbf" points="0,-112.5 0,-131.5 47,-131.5 47,-112.5 0,-112.5"/>
<text text-anchor="middle" x="23.5" y="-119.5" font-family="Helvetica,sans-Serif" font-size="10.00">deque</text>
</a>
</g>
</g>
<!-- Node2&#45;&gt;Node3 -->
<g id="edge2" class="edge">
<title>Node2&#45;&gt;Node3</title>
<path fill="none" stroke="midnightblue" d="M154.78,-168.44C128.34,-159.29 86.26,-144.73 56.89,-134.56"/>
<polygon fill="midnightblue" stroke="midnightblue" points="57.68,-131.13 47.08,-131.16 55.39,-137.74 57.68,-131.13"/>
</g>
<!-- Node4 -->
<g id="node4" class="node">
<title>Node4</title>
<g id="a_node4"><a xlink:title=" ">
<polygon fill="none" stroke="#bfbfbf" points="65.5,-112.5 65.5,-131.5 133.5,-131.5 133.5,-112.5 65.5,-112.5"/>
<text text-anchor="middle" x="99.5" y="-119.5" font-family="Helvetica,sans-Serif" font-size="10.00">filesystem</text>
</a>
</g>
</g>
<!-- Node2&#45;&gt;Node4 -->
<g id="edge3" class="edge">
<title>Node2&#45;&gt;Node4</title>
<path fill="none" stroke="midnightblue" d="M166.65,-168.32C154.28,-159.98 135.37,-147.21 120.76,-137.35"/>
<polygon fill="midnightblue" stroke="midnightblue" points="122.57,-134.35 112.32,-131.65 118.65,-140.15 122.57,-134.35"/>
</g>
<!-- Node5 -->
<g id="node5" class="node">
<title>Node5</title>
<g id="a_node5"><a xlink:title=" ">
<polygon fill="none" stroke="#bfbfbf" points="152,-112.5 152,-131.5 207,-131.5 207,-112.5 152,-112.5"/>
<text text-anchor="middle" x="179.5" y="-119.5" font-family="Helvetica,sans-Serif" font-size="10.00">fstream</text>
</a>
</g>
</g>
<!-- Node2&#45;&gt;Node5 -->
<g id="edge4" class="edge">
<title>Node2&#45;&gt;Node5</title>
<path fill="none" stroke="midnightblue" d="M179.5,-168.08C179.5,-161.01 179.5,-150.86 179.5,-141.99"/>
<polygon fill="midnightblue" stroke="midnightblue" points="183,-141.75 179.5,-131.75 176,-141.75 183,-141.75"/>
</g>
<!-- Node6 -->
<g id="node6" class="node">
<title>Node6</title>
<g id="a_node6"><a xlink:title=" ">
<polygon fill="none" stroke="#bfbfbf" points="207.5,-0.5 207.5,-19.5 263.5,-19.5 263.5,-0.5 207.5,-0.5"/>
<text text-anchor="middle" x="235.5" y="-7.5" font-family="Helvetica,sans-Serif" font-size="10.00">sstream</text>
</a>
</g>
</g>
<!-- Node2&#45;&gt;Node6 -->
<g id="edge5" class="edge">
<title>Node2&#45;&gt;Node6</title>
<path fill="none" stroke="midnightblue" d="M188.78,-168.29C197.17,-159.85 209.15,-146.26 215.5,-132 230.62,-98.09 234.42,-54.23 235.31,-29.71"/>
<polygon fill="midnightblue" stroke="midnightblue" points="238.81,-29.72 235.54,-19.64 231.81,-29.55 238.81,-29.72"/>
</g>
<!-- Node7 -->
<g id="node7" class="node">
<title>Node7</title>
<g id="a_node7"><a xlink:href="accounts__database_8hpp.html" target="_top" xlink:title=" ">
<polygon fill="none" stroke="black" points="264,-112.5 264,-131.5 395,-131.5 395,-112.5 264,-112.5"/>
<text text-anchor="middle" x="329.5" y="-119.5" font-family="Helvetica,sans-Serif" font-size="10.00">accounts_database.hpp</text>
</a>
</g>
</g>
<!-- Node2&#45;&gt;Node7 -->
<g id="edge6" class="edge">
<title>Node2&#45;&gt;Node7</title>
<path fill="none" stroke="midnightblue" d="M203.27,-168.44C228.39,-159.4 268.21,-145.06 296.4,-134.92"/>
<polygon fill="midnightblue" stroke="midnightblue" points="297.62,-138.2 305.84,-131.52 295.25,-131.61 297.62,-138.2"/>
</g>
<!-- Node8 -->
<g id="node8" class="node">
<title>Node8</title>
<g id="a_node8"><a xlink:href="account_8hpp.html" target="_top" xlink:title=" ">
<polygon fill="none" stroke="black" points="291.5,-56.5 291.5,-75.5 367.5,-75.5 367.5,-56.5 291.5,-56.5"/>
<text text-anchor="middle" x="329.5" y="-63.5" font-family="Helvetica,sans-Serif" font-size="10.00">account.hpp</text>
</a>
</g>
</g>
<!-- Node7&#45;&gt;Node8 -->
<g id="edge7" class="edge">
<title>Node7&#45;&gt;Node8</title>
<path fill="none" stroke="midnightblue" d="M329.5,-112.08C329.5,-105.01 329.5,-94.86 329.5,-85.99"/>
<polygon fill="midnightblue" stroke="midnightblue" points="333,-85.75 329.5,-75.75 326,-85.75 333,-85.75"/>
</g>
<!-- Node8&#45;&gt;Node6 -->
<g id="edge10" class="edge">
<title>Node8&#45;&gt;Node6</title>
<path fill="none" stroke="midnightblue" d="M314.4,-56.32C299.6,-47.82 276.81,-34.73 259.52,-24.8"/>
<polygon fill="midnightblue" stroke="midnightblue" points="260.98,-21.6 250.57,-19.65 257.49,-27.67 260.98,-21.6"/>
</g>
<!-- Node9 -->
<g id="node9" class="node">
<title>Node9</title>
<g id="a_node9"><a xlink:title=" ">
<polygon fill="none" stroke="#bfbfbf" points="281.5,-0.5 281.5,-19.5 339.5,-19.5 339.5,-0.5 281.5,-0.5"/>
<text text-anchor="middle" x="310.5" y="-7.5" font-family="Helvetica,sans-Serif" font-size="10.00">memory</text>
</a>
</g>
</g>
<!-- Node8&#45;&gt;Node9 -->
<g id="edge8" class="edge">
<title>Node8&#45;&gt;Node9</title>
<path fill="none" stroke="midnightblue" d="M326.36,-56.08C323.82,-48.85 320.14,-38.41 316.97,-29.4"/>
<polygon fill="midnightblue" stroke="midnightblue" points="320.2,-28.02 313.58,-19.75 313.6,-30.35 320.2,-28.02"/>
</g>
<!-- Node10 -->
<g id="node10" class="node">
<title>Node10</title>
<g id="a_node10"><a xlink:title=" ">
<polygon fill="none" stroke="#bfbfbf" points="357.5,-0.5 357.5,-19.5 389.5,-19.5 389.5,-0.5 357.5,-0.5"/>
<text text-anchor="middle" x="373.5" y="-7.5" font-family="Helvetica,sans-Serif" font-size="10.00">set</text>
</a>
</g>
</g>
<!-- Node8&#45;&gt;Node10 -->
<g id="edge9" class="edge">
<title>Node8&#45;&gt;Node10</title>
<path fill="none" stroke="midnightblue" d="M336.77,-56.08C343.04,-48.38 352.29,-37.03 359.93,-27.65"/>
<polygon fill="midnightblue" stroke="midnightblue" points="362.77,-29.71 366.37,-19.75 357.34,-25.29 362.77,-29.71"/>
</g>
<!-- Node11 -->
<g id="node11" class="node">
<title>Node11</title>
<g id="a_node11"><a xlink:title=" ">
<polygon fill="none" stroke="#bfbfbf" points="407.5,-0.5 407.5,-19.5 451.5,-19.5 451.5,-0.5 407.5,-0.5"/>
<text text-anchor="middle" x="429.5" y="-7.5" font-family="Helvetica,sans-Serif" font-size="10.00">string</text>
</a>
</g>
</g>
<!-- Node8&#45;&gt;Node11 -->
<g id="edge11" class="edge">
<title>Node8&#45;&gt;Node11</title>
<path fill="none" stroke="midnightblue" d="M345.57,-56.32C361.46,-47.74 386.01,-34.49 404.46,-24.52"/>
<polygon fill="midnightblue" stroke="midnightblue" points="406.34,-27.49 413.47,-19.65 403.01,-21.33 406.34,-27.49"/>
</g>
</g>
</svg>
