<?xml version="1.0" encoding="UTF-8" standalone="no"?>
<!DOCTYPE svg PUBLIC "-//W3C//DTD SVG 1.1//EN"
 "http://www.w3.org/Graphics/SVG/1.1/DTD/svg11.dtd">
<!-- Generated by graphviz version 2.43.0 (0)
 -->
<!-- Title: /home/alexander/Documents/Seminars/TP/Project/src/general/socket/socket.cpp Pages: 1 -->
<svg width="354pt" height="218pt"
 viewBox="0.00 0.00 353.50 218.00" xmlns="http://www.w3.org/2000/svg" xmlns:xlink="http://www.w3.org/1999/xlink">
<g id="graph0" class="graph" transform="scale(1 1) rotate(0) translate(4 214)">
<title>/home/alexander/Documents/Seminars/TP/Project/src/general/socket/socket.cpp</title>
<!-- Node1 -->
<g id="node1" class="node">
<title>Node1</title>
<g id="a_node1"><a xlink:title=" ">
<polygon fill="#bfbfbf" stroke="black" points="162,-168.5 162,-209.5 320,-209.5 320,-168.5 162,-168.5"/>
<text text-anchor="start" x="170" y="-197.5" font-family="Helvetica,sans-Serif" font-size="10.00">/home/alexander/Documents</text>
<text text-anchor="start" x="170" y="-186.5" font-family="Helvetica,sans-Serif" font-size="10.00">/Seminars/TP/Project/src</text>
<text text-anchor="middle" x="241" y="-175.5" font-family="Helvetica,sans-Serif" font-size="10.00">/general/socket/socket.cpp</text>
</a>
</g>
</g>
<!-- Node2 -->
<g id="node2" class="node">
<title>Node2</title>
<g id="a_node2"><a xlink:href="socket_8hpp.html" target="_top" xlink:title=" ">
<polygon fill="none" stroke="black" points="165.5,-112.5 165.5,-131.5 234.5,-131.5 234.5,-112.5 165.5,-112.5"/>
<text text-anchor="middle" x="200" y="-119.5" font-family="Helvetica,sans-Serif" font-size="10.00">socket.hpp</text>
</a>
</g>
</g>
<!-- Node1&#45;&gt;Node2 -->
<g id="edge1" class="edge">
<title>Node1&#45;&gt;Node2</title>
<path fill="none" stroke="midnightblue" d="M228.7,-168.5C223.02,-159.49 216.33,-148.89 210.84,-140.19"/>
<polygon fill="midnightblue" stroke="midnightblue" points="213.75,-138.24 205.46,-131.65 207.83,-141.98 213.75,-138.24"/>
</g>
<!-- Node9 -->
<g id="node9" class="node">
<title>Node9</title>
<g id="a_node9"><a xlink:title=" ">
<polygon fill="none" stroke="#bfbfbf" points="253,-112.5 253,-131.5 313,-131.5 313,-112.5 253,-112.5"/>
<text text-anchor="middle" x="283" y="-119.5" font-family="Helvetica,sans-Serif" font-size="10.00">iostream</text>
</a>
</g>
</g>
<!-- Node1&#45;&gt;Node9 -->
<g id="edge9" class="edge">
<title>Node1&#45;&gt;Node9</title>
<path fill="none" stroke="midnightblue" d="M253.6,-168.5C259.42,-159.49 266.27,-148.89 271.9,-140.19"/>
<polygon fill="midnightblue" stroke="midnightblue" points="274.92,-141.95 277.41,-131.65 269.04,-138.15 274.92,-141.95"/>
</g>
<!-- Node3 -->
<g id="node3" class="node">
<title>Node3</title>
<g id="a_node3"><a xlink:title=" ">
<polygon fill="none" stroke="#bfbfbf" points="0,-56.5 0,-75.5 88,-75.5 88,-56.5 0,-56.5"/>
<text text-anchor="middle" x="44" y="-63.5" font-family="Helvetica,sans-Serif" font-size="10.00">boost/asio.hpp</text>
</a>
</g>
</g>
<!-- Node2&#45;&gt;Node3 -->
<g id="edge2" class="edge">
<title>Node2&#45;&gt;Node3</title>
<path fill="none" stroke="midnightblue" d="M175.28,-112.44C149.15,-103.4 107.74,-89.06 78.42,-78.92"/>
<polygon fill="midnightblue" stroke="midnightblue" points="79.2,-75.48 68.6,-75.52 76.91,-82.1 79.2,-75.48"/>
</g>
<!-- Node4 -->
<g id="node4" class="node">
<title>Node4</title>
<g id="a_node4"><a xlink:title=" ">
<polygon fill="none" stroke="#bfbfbf" points="106.5,-56.5 106.5,-75.5 171.5,-75.5 171.5,-56.5 106.5,-56.5"/>
<text text-anchor="middle" x="139" y="-63.5" font-family="Helvetica,sans-Serif" font-size="10.00">functional</text>
</a>
</g>
</g>
<!-- Node2&#45;&gt;Node4 -->
<g id="edge3" class="edge">
<title>Node2&#45;&gt;Node4</title>
<path fill="none" stroke="midnightblue" d="M190.2,-112.32C181.18,-104.34 167.59,-92.31 156.68,-82.65"/>
<polygon fill="midnightblue" stroke="midnightblue" points="158.79,-79.84 148.98,-75.83 154.15,-85.08 158.79,-79.84"/>
</g>
<!-- Node5 -->
<g id="node5" class="node">
<title>Node5</title>
<g id="a_node5"><a xlink:title=" ">
<polygon fill="none" stroke="#bfbfbf" points="192,-0.5 192,-19.5 250,-19.5 250,-0.5 192,-0.5"/>
<text text-anchor="middle" x="221" y="-7.5" font-family="Helvetica,sans-Serif" font-size="10.00">memory</text>
</a>
</g>
</g>
<!-- Node2&#45;&gt;Node5 -->
<g id="edge4" class="edge">
<title>Node2&#45;&gt;Node5</title>
<path fill="none" stroke="midnightblue" d="M201.65,-112.37C205.04,-94.62 212.85,-53.67 217.45,-29.6"/>
<polygon fill="midnightblue" stroke="midnightblue" points="220.92,-30.07 219.36,-19.59 214.05,-28.76 220.92,-30.07"/>
</g>
<!-- Node6 -->
<g id="node6" class="node">
<title>Node6</title>
<g id="a_node6"><a xlink:title=" ">
<polygon fill="none" stroke="#bfbfbf" points="228,-56.5 228,-75.5 272,-75.5 272,-56.5 228,-56.5"/>
<text text-anchor="middle" x="250" y="-63.5" font-family="Helvetica,sans-Serif" font-size="10.00">string</text>
</a>
</g>
</g>
<!-- Node2&#45;&gt;Node6 -->
<g id="edge5" class="edge">
<title>Node2&#45;&gt;Node6</title>
<path fill="none" stroke="midnightblue" d="M208.26,-112.08C215.46,-104.3 226.11,-92.8 234.85,-83.37"/>
<polygon fill="midnightblue" stroke="midnightblue" points="237.67,-85.47 241.9,-75.75 232.53,-80.71 237.67,-85.47"/>
</g>
<!-- Node7 -->
<g id="node7" class="node">
<title>Node7</title>
<g id="a_node7"><a xlink:href="general_2socket_2log_8hpp.html" target="_top" xlink:title=" ">
<polygon fill="none" stroke="black" points="290.5,-56.5 290.5,-75.5 343.5,-75.5 343.5,-56.5 290.5,-56.5"/>
<text text-anchor="middle" x="317" y="-63.5" font-family="Helvetica,sans-Serif" font-size="10.00">log.hpp</text>
</a>
</g>
</g>
<!-- Node2&#45;&gt;Node7 -->
<g id="edge6" class="edge">
<title>Node2&#45;&gt;Node7</title>
<path fill="none" stroke="midnightblue" d="M218.54,-112.44C237.62,-103.64 267.57,-89.81 289.44,-79.72"/>
<polygon fill="midnightblue" stroke="midnightblue" points="290.93,-82.88 298.55,-75.52 288,-76.53 290.93,-82.88"/>
</g>
<!-- Node7&#45;&gt;Node5 -->
<g id="edge7" class="edge">
<title>Node7&#45;&gt;Node5</title>
<path fill="none" stroke="midnightblue" d="M301.58,-56.32C286.46,-47.82 263.18,-34.73 245.53,-24.8"/>
<polygon fill="midnightblue" stroke="midnightblue" points="246.82,-21.51 236.39,-19.65 243.39,-27.61 246.82,-21.51"/>
</g>
<!-- Node8 -->
<g id="node8" class="node">
<title>Node8</title>
<g id="a_node8"><a xlink:title=" ">
<polygon fill="none" stroke="#bfbfbf" points="288.5,-0.5 288.5,-19.5 345.5,-19.5 345.5,-0.5 288.5,-0.5"/>
<text text-anchor="middle" x="317" y="-7.5" font-family="Helvetica,sans-Serif" font-size="10.00">ostream</text>
</a>
</g>
</g>
<!-- Node7&#45;&gt;Node8 -->
<g id="edge8" class="edge">
<title>Node7&#45;&gt;Node8</title>
<path fill="none" stroke="midnightblue" d="M317,-56.08C317,-49.01 317,-38.86 317,-29.99"/>
<polygon fill="midnightblue" stroke="midnightblue" points="320.5,-29.75 317,-19.75 313.5,-29.75 320.5,-29.75"/>
</g>
</g>
</svg>
